<?xml version="1.0" standalone="no"?>
<svg xmlns="http://www.w3.org/2000/svg" version="1.2" baseProfile="tiny" width="256" height="144" viewBox="0 0 256 144">
<rect x="0" y="0" width="256" height="144" id="0" fill="rgb(161,101,212)" fill-opacity="1" />
<polygon points="164,110 44,0 0,98" id="1" fill="rgb(255,191,255)" fill-opacity="0.501961" />
<polygon points="0,143 256,144 248,108" id="2" fill="rgb(0,64,109)" fill-opacity="0.501961" />
<polygon points="254,79 256,0 131,0" id="3" fill="rgb(66,0,251)" fill-opacity="0.501961" />
<polygon points="0,95 96,134 0,144" id="4" fill="rgb(27,42,111)" fill-opacity="0.501961" />
<polygon points="256,101 7,109 256,55" id="5" fill="rgb(255,92,243)" fill-opacity="0.501961" />
<polygon points="78,0 159,0 119,41" id="6" fill="rgb(63,218,255)" fill-opacity="0.501961" />
<polygon points="128,57 128,120 159,23" id="7" fill="rgb(97,24,88)" fill-opacity="0.501961" />
<polygon points="79,0 0,61 124,119" id="8" fill="rgb(255,176,246)" fill-opacity="0.501961" />
<polygon points="147,61 160,64 169,138" id="9" fill="rgb(41,9,72)" fill-opacity="0.501961" />
<polygon points="256,73 252,22 156,70" id="10" fill="rgb(167,6,227)" fill-opacity="0.501961" />
<polygon points="188,67 128,0 196,0" id="11" fill="rgb(101,106,255)" fill-opacity="0.501961" />
<polygon points="159,66 165,100 255,96" id="12" fill="rgb(255,132,255)" fill-opacity="0.501961" />
<polygon points="5,51 110,22 110,75" id="13" fill="rgb(242,202,243)" fill-opacity="0.501961" />
<polygon points="64,63 0,88 71,120" id="14" fill="rgb(253,106,224)" fill-opacity="0.501961" />
<polygon points="91,51 50,27 85,26" id="15" fill="rgb(156,73,210)" fill-opacity="0.501961" />
<polygon points="170,69 147,5 113,72" id="16" fill="rgb(162,64,156)" fill-opacity="0.501961" />
<polygon points="187,125 191,144 256,144" id="17" fill="rgb(0,51,126)" fill-opacity="0.501961" />
<polygon points="69,134 256,98 256,117" id="18" fill="rgb(129,98,184)" fill-opacity="0.501961" />
<polygon points="125,102 132,120 136,63" id="19" fill="rgb(48,15,91)" fill-opacity="0.501961" />
<polygon points="177,0 256,0 256,48" id="20" fill="rgb(72,16,211)" fill-opacity="0.501961" />
<polygon points="76,116 128,118 94,144" id="21" fill="rgb(149,184,251)" fill-opacity="0.501961" />
<polygon points="0,62 0,98 132,85" id="22" fill="rgb(247,120,232)" fill-opacity="0.501961" />
<polygon points="39,0 7,51 7,9" id="23" fill="rgb(167,142,150)" fill-opacity="0.501961" />
<polygon points="0,144 37,123 76,144" id="24" fill="rgb(30,57,118)" fill-opacity="0.501961" />
<polygon points="142,75 132,127 153,87" id="25" fill="rgb(255,179,255)" fill-opacity="0.501961" />
<polygon points="32,13 27,55 83,5" id="26" fill="rgb(255,148,255)" fill-opacity="0.501961" />
<polygon points="215,104 254,153 256,100" id="27" fill="rgb(105,55,124)" fill-opacity="0.501961" />
<polygon points="224,73 179,25 158,69" id="28" fill="rgb(171,78,255)" fill-opacity="0.501961" />
<polygon points="75,36 79,81 38,35" id="29" fill="rgb(255,238,255)" fill-opacity="0.501961" />
<polygon points="53,116 42,123 122,120" id="30" fill="rgb(199,172,255)" fill-opacity="0.501961" />
<polygon points="217,125 89,144 73,127" id="31" fill="rgb(64,103,185)" fill-opacity="0.501961" />
<polygon points="132,71 84,84 124,50" id="32" fill="rgb(205,77,248)" fill-opacity="0.501961" />
<polygon points="134,127 172,144 134,144" id="33" fill="rgb(10,32,110)" fill-opacity="0.501961" />
<polygon points="256,71 256,102 180,83" id="34" fill="rgb(255,82,241)" fill-opacity="0.501961" />
<polygon points="88,51 120,37 75,0" id="35" fill="rgb(188,151,204)" fill-opacity="0.501961" />
<polygon points="15,2 0,14 -2,-22" id="36" fill="rgb(31,118,255)" fill-opacity="0.501961" />
<polygon points="175,117 206,96 213,122" id="37" fill="rgb(202,93,213)" fill-opacity="0.501961" />
<polygon points="91,0 139,0 121,57" id="38" fill="rgb(110,164,255)" fill-opacity="0.501961" />
<polygon points="92,135 108,144 85,144" id="39" fill="rgb(18,213,255)" fill-opacity="0.501961" />
<polygon points="8,45 32,42 26,10" id="40" fill="rgb(165,75,161)" fill-opacity="0.501961" />
<polygon points="23,99 126,105 121,79" id="41" fill="rgb(255,150,254)" fill-opacity="0.501961" />
<polygon points="24,144 26,98 0,95" id="42" fill="rgb(113,58,164)" fill-opacity="0.501961" />
<polygon points="0,107 112,109 112,119" id="43" fill="rgb(163,70,180)" fill-opacity="0.501961" />
<polygon points="155,105 154,129 176,144" id="44" fill="rgb(132,128,246)" fill-opacity="0.501961" />
<polygon points="177,116 174,123 228,135" id="45" fill="rgb(51,58,94)" fill-opacity="0.501961" />
<polygon points="202,0 150,25 203,56" id="46" fill="rgb(111,78,255)" fill-opacity="0.501961" />
<polygon points="242,88 173,105 163,81" id="47" fill="rgb(255,136,253)" fill-opacity="0.501961" />
<polygon points="26,88 54,62 66,72" id="48" fill="rgb(199,89,189)" fill-opacity="0.501961" />
<polygon points="136,66 135,38 131,56" id="49" fill="rgb(177,173,255)" fill-opacity="0.501961" />
<polygon points="84,11 65,-5 88,0" id="50" fill="rgb(58,124,172)" fill-opacity="0.501961" />
<polygon points="256,78 164,58 162,81" id="51" fill="rgb(206,72,248)" fill-opacity="0.501961" />
<polygon points="221,124 218,106 206,106" id="52" fill="rgb(91,196,255)" fill-opacity="0.501961" />
<polygon points="151,13 128,38 146,51" id="53" fill="rgb(181,70,116)" fill-opacity="0.501961" />
<polygon points="23,13 15,32 9,13" id="54" fill="rgb(199,197,200)" fill-opacity="0.501961" />
<polygon points="71,14 80,15 88,59" id="55" fill="rgb(153,91,158)" fill-opacity="0.501961" />
<polygon points="255,137 205,144 251,123" id="56" fill="rgb(37,53,93)" fill-opacity="0.501961" />
<polygon points="155,112 158,61 167,112" id="57" fill="rgb(97,37,128)" fill-opacity="0.501961" />
<polygon points="248,121 256,103 237,96" id="58" fill="rgb(194,43,184)" fill-opacity="0.501961" />
<polygon points="142,72 137,111 158,104" id="59" fill="rgb(255,142,255)" fill-opacity="0.501961" />
<polygon points="256,70 198,56 256,30" id="60" fill="rgb(151,12,205)" fill-opacity="0.501961" />
<polygon points="37,128 85,126 41,116" id="61" fill="rgb(87,95,204)" fill-opacity="0.501961" />
<polygon points="133,75 164,53 153,70" id="62" fill="rgb(97,33,106)" fill-opacity="0.501961" />
<polygon points="98,73 86,75 61,0" id="63" fill="rgb(250,164,255)" fill-opacity="0.501961" />
<polygon points="12,42 0,69 28,82" id="64" fill="rgb(223,86,221)" fill-opacity="0.501961" />
<polygon points="164,0 167,14 63,0" id="65" fill="rgb(86,150,255)" fill-opacity="0.501961" />
<polygon points="93,74 107,52 91,49" id="66" fill="rgb(255,234,255)" fill-opacity="0.501961" />
<polygon points="0,17 35,-22 0,31" id="67" fill="rgb(117,66,176)" fill-opacity="0.501961" />
<polygon points="78,125 129,122 77,113" id="68" fill="rgb(216,164,247)" fill-opacity="0.501961" />
<polygon points="123,143 131,123 132,65" id="69" fill="rgb(78,49,135)" fill-opacity="0.501961" />
<polygon points="200,144 187,144 187,133" id="70" fill="rgb(21,141,250)" fill-opacity="0.501961" />
<polygon points="159,31 134,29 140,42" id="71" fill="rgb(225,122,170)" fill-opacity="0.501961" />
<polygon points="54,112 0,90 77,76" id="72" fill="rgb(247,142,241)" fill-opacity="0.501961" />
<polygon points="195,110 168,105 237,100" id="73" fill="rgb(216,70,210)" fill-opacity="0.501961" />
<polygon points="101,103 126,87 125,124" id="74" fill="rgb(248,141,248)" fill-opacity="0.501961" />
<polygon points="145,139 153,144 150,116" id="75" fill="rgb(26,47,76)" fill-opacity="0.501961" />
<polygon points="26,2 85,7 27,-19" id="76" fill="rgb(172,139,172)" fill-opacity="0.501961" />
<polygon points="19,139 80,137 82,124" id="77" fill="rgb(89,50,115)" fill-opacity="0.501961" />
<polygon points="18,44 31,70 8,65" id="78" fill="rgb(255,157,255)" fill-opacity="0.501961" />
<polygon points="34,140 29,124 41,128" id="79" fill="rgb(0,74,52)" fill-opacity="0.501961" />
<polygon points="31,87 0,97 0,78" id="80" fill="rgb(255,141,255)" fill-opacity="0.501961" />
<polygon points="0,127 0,144 50,142" id="81" fill="rgb(43,63,166)" fill-opacity="0.501961" />
<polygon points="93,19 68,2 62,13" id="82" fill="rgb(255,145,255)" fill-opacity="0.501961" />
<polygon points="140,22 138,31 89,28" id="83" fill="rgb(144,169,253)" fill-opacity="0.501961" />
<polygon points="155,117 126,136 109,126" id="84" fill="rgb(112,130,215)" fill-opacity="0.501961" />
<polygon points="9,44 0,51 0,31" id="85" fill="rgb(99,142,255)" fill-opacity="0.501961" />
<polygon points="137,120 136,90 141,76" id="86" fill="rgb(255,166,255)" fill-opacity="0.501961" />
<polygon points="135,73 111,58 115,40" id="87" fill="rgb(163,80,255)" fill-opacity="0.501961" />
<polygon points="39,125 60,111 9,108" id="88" fill="rgb(123,83,174)" fill-opacity="0.501961" />
<polygon points="190,36 148,0 167,55" id="89" fill="rgb(118,115,255)" fill-opacity="0.501961" />
</svg>