<svg xmlns="http://www.w3.org/2000/svg" viewBox="0 0 1280 720"><path fill="#a066d3" d="M0 0h1280v720H0z"/><g fill-opacity=".5"><path fill="#ffc1ff" d="M697.5 567.5l-775-105 420-540z"/><path fill="#004670" d="M1357.5 787.5l-165-270-950 190z"/><path fill="#4000f9" d="M577.5-52.5l780 60-100 380z"/><path fill="#0a2864" d="M467.5 662.5l-445 135-55-325z"/><path fill="#ff55ef" d="M1332.5 502.5l-995 55 905-305z"/><path fill="#41d5ff" d="M902.5-77.5l-295 285-290-280z"/><path fill="#75285c" d="M657.5 192.5l85-180 100 565z"/><path fill="#ffa2f9" d="M172.5-77.5l-35 630 510-65z"/><path fill="#4c175f" d="M632.5 647.5l75-210-55-230z"/><path fill="#9b04dc" d="M1262.5 102.5l85 285-495-75z"/><path fill="#ff73f6" d="M1322.5 442.5l-520-110 105 275z"/><path fill="#fffdff" d="M67.5 257.5l420 90-155-170z"/><path fill="#6e65ff" d="M1067.5 122.5l-360-200 175 445z"/><path fill="#ffb5ff" d="M802.5 492.5l-135 100 30-215z"/><path fill="#003474" d="M927.5 767.5l60-155 370 155z"/><path fill="#643674" d="M1087.5 497.5l115 300 155-275z"/><path fill="#f871e4" d="M612.5 572.5l-535-360-155 250z"/><path fill="#e6b8e5" d="M582.5 142.5l-90 335-75-425z"/><path fill="#2a0e5e" d="M787.5 547.5l5-170 55 220z"/><path fill="#7ea0e8" d="M272.5 572.5l485 35-275 120z"/></g></svg>