<svg xmlns="http://www.w3.org/2000/svg" viewBox="0 0 1651 1341"><path fill-rule="evenodd" d="M0 670v671h1651V0H0v670M220 48c2 0 8 1 11 3l11 2 11 4 9 3 3 1 14 8a151 151 0 0121 13l6 4a12170 12170 0 0038 35l-7 9-7 8-2-5-3-3v-2c0-2-4-6-5-6-1 1-1 0-1-2 0-6-18-20-32-25-8-3-26-4-26-2h-1c-1-1-10 0-10 1l-2 1h-4l-7 4c-5 2-13 8-12 9l-1 1c-2-1-7 4-6 6h-1c-1-2-6 5-5 7 0 2 0 2-1 1-2 0-6 7-4 8v1c-2-1-3 1-3 5l-1 2-3 14 1 5v2h-1l2 1c1 1 2 2 1 3l-1 1-1-2v-1c-1 0-1 5 2 14l2 5 1 1c-1 1 0 6 4 10l2 5a122 122 0 01-43-3 177 177 0 01-70-33l-9-7-14-11-20-20c-1-2 0-3 10-13 14-13 20-18 24-20l8-7 12-8 13-7c18-11 44-19 62-21 9-1 27 0 35 1m307-1a66 66 0 0124 5 187 187 0 0163 32l11 8 10 7 4 4 4 4 6 5 5 7 3 3-3 3a671 671 0 00-14 15l-12 10c-8 8-10 9-10 7l-2-3v-1c1 1 2 0 1-6l-2-7v-1c0-1-5-13-9-19-3-4-4-5-5-4-2 0-2 0-1-1s1-1-2-4l-4-3-1-1-1-2-2-1-3-1-4-3c-2-2-13-6-15-6h-2l-2-1h-3-21c-4 0-5 1-4 2l-1 1-1-1c0-2-2-1-10 3-7 3-17 10-21 15-2 2-2 2-1 3v1l-3 1c0 1 0 2 2 2v1l-1 2-1 2v-3c1-4-2-2-6 5-6 12-7 20-7 38l2 9v1c0 2 5 14 7 16l3 4c0 2 0 2-2 2l-9-2-10-3-7-1-16-7a467 467 0 00-30-15l-7-5-12-8-10-8a415 415 0 00-21-20c-7-7-7-5 4-17a180 180 0 0134-28l12-9a176 176 0 0164-25l10-2h29m322 1a124 124 0 0133 10l6 3 6 2a281 281 0 0176 59 237 237 0 01-76 59c-1 0-2-3-1-4l3-12c0-5 0-6-2-6-1-1-1-1 1-1s2 0 1-2c0-2-1-2-2-1-2 1-2 1 0-1 2-1 3-7 1-8v-3c0-1 0-2-2-3-3-1-4-2-2-2 5 1-3-16-12-25l-15-12-3-2c-3-2-9-4-10-3h-4c1-3-5-4-19-4-9 0-12 1-13 2h-1-2l-4 2c-3 0-7 2-7 3l-1 1c0-1-6 2-9 5-6 4-7 5-4 5 1-1 1-1 0 0l-3 1-3 3-4 5-6 9 2 1c1 1 1 1-1 1-1 0-2 0-1 1l-1 1-5 16v6 12c0 4 1 7 2 7l1 2v5c2 6 2 6 0 5a238 238 0 01-87-63 195 195 0 0133-31c3-4 9-8 15-11l13-8c1-2 8-5 15-8l14-7a110 110 0 0141-10h3c2-1 26 0 34 1m317 1l9 2 5 1 10 4 9 4 8 3 12 6 10 6 4 4 5 3 5 3 6 5 10 8 10 9c6 4 14 13 14 14a278 278 0 01-71 56c-2 3-13 8-17 9-2 0-5 1-7 3l-28 6 2-3v-4c-1-1-1-1 1-2 2-2 4-5 4-8l1-4 2-7-1-7-2-1h2l1-8c-1-10-2-13-4-12l-1-1c0-1 0-2 1-1v-2c-1-5-4-11-6-12v-1c1-2-11-14-17-19h-5c-2 2-3 2-3 0 0-1 1-2 2-1h1c1-1-5-4-6-3l-1-1c1-1-5-3-6-2l-1-1-5-1-5-1h-23c-7 1-16 5-15 6l-1 1-5 1c-5 3-18 15-18 17l-1 1c-2 0-5 8-4 9l-1 1c-3 2-7 14-6 20l-1 2-1 3 1 3v2c-2 2-2 1-7-3l-10-7a147 147 0 01-24-22c-4-5-4-5-3-7l4-5a401 401 0 0023-20 1160 1160 0 0032-22c5-3 11-6 12-8l9-4 9-4 7-2 14-3c20-5 24-6 39-5l22 2m304-1c7 0 12 1 20 4a843 843 0 0035 13l5 3c1 2 7 5 12 8l13 8 7 6c15 11 30 24 33 30 2 3-12 17-31 32a193 193 0 00-17 13l-14 9-6 4-5 2-36 13c-9 4-44 6-47 3l2-6 3-8v-1c1 1 2-3 4-9l-1-5v-1c1 1 2-4 2-13l-1-9c0-3-4-13-5-12l-1-1c1-1-1-6-3-6v-1c1-3-11-17-13-15l-1-1c1 0 0-2-2-3l-3-1-1-1-3-2-2-1c0-2-20-9-22-7h-1c0-2-17-1-24 1l-11 3c-5 2-15 9-15 10l3-1 2-1-1 1-1 2v1l-3-1-2 1c1 1 0 1 0 0-2 0-2 0-2 2l-1 2c-2 0-9 8-8 9l-1 2-2 4-1 1-2 3-1 3-3-2-10-9c-1-2-1-2 1-4l5-6 8-8a453 453 0 0032-26l6-4 6-4a215 215 0 0156-22l7-1c7-3 14-3 41-1M829 96l2 2 1 1-1 1h-2l-1-4v-3l1 3m278-1l-1 1v-1l1-1v1m-843 1l-2 1v-1h2m826 0h-2v-1l2 1m294 2c1 2 1 2-1 1v-3c0-2 1-1 1 2m6 2l-3-1-2-3c1-1 5 3 5 4m9-4c1 2 0 2-2 0v-1l2 1M260 97l-1 1-2-1v-1l3 1m272 2l-1-2c-1-1-1-1 0 0l1 2m276-1v1l-1-1v-1l1 1m10 1l-1 1v-1l1-2v2m563 1c0 2 0 2 2 2h1c-2 1-3 1-5-1-3-3-3-4 0-3l2 2M279 99l-1 1-1-1 1-1 1 1m1125 2h-2v-2c2-1 2-1 2 2m-1148-1l-1 1-1-1v-1l2 1m572 1v1l1 1h-1c-2-1-2-4 0-4v2m584-1l-1 1-1-1v-1l2 1m-1160 1l-3 1c-2 1-2 1-1-1 1-1 4-2 4 0m277 1v1c-1 1-4 0-4-2h2c0 1 1 2 2 1m285 0l-2 2v-3c2-2 3-1 2 1m300-1l-2 1v-1h2m240 0v1l-1-1v-1l1 1m41 0l-2 1v-1h2m-1152 1c1 2-1 2-2 0v-1l2 1m30 0l-1 1-1-1 1-1 1 1m11 0l-1 1-1-1v-1l2 1m263 0l-1 1c-1 0-2 0-1-1l1-1 1 1m546 0l-1 1v-1l1-1v1m273 0l-1 1-1-1v-1l2 1m33 0v1l-1-1v-1l1 1m-1132 1v1l-1-1c-1-1 1-2 1 0m570 0v1l-1-1v-1l1 1m242 0l-1 1-1-1v-1l2 1m48 0v1l-1-1v-1l1 1m262 0l-3 2-2 2c0-2 3-5 5-5v1m22 0v3h-4c-5 2-4 0 1-3h3m-856 1v1l-1-1v-1l1 1m244-1l-2 1c0 1-1 1 0 0l2-1m35 1l-1 1-1-1 1-1 1 1m284 0h-2v-1l2 1m238 2v2l-3-1-1-1c-1-2 1-2 4 0m-1104-1l-2 2h-1l2-2h1m322 2l-2 1v-1l2-2v2m846 1h-1l-2-3 2 1 1 2m-1174 1l-2 1c0-1 2-4 3-3l-1 2m18-2l-2 1v-1l3-1-1 1m26 0l-1 1-1-1v-1l2 1m266 0h-3c-1-1 0-1 2-1 1 0 2 0 1 1m258 0h-2c-1-1 0-1 1-1s2 0 1 1m23 2h-1c-1-2-1-2-2 1l-2 3-1-1 4-6 2 3m528-2h-3l2-1 1 1m-853 3h-1v-2l1 2m33-2l-2 1c-2 1-2 1-1-1h3m284 0h-2v-1l2 1m306 1l-1 2c-2 0-2-1-1-3 2-1 2-1 2 1m12-1l-1 1-1-1v-1l2 1m-67 3h-1c-2-1-3-3-1-3l2 3m-846-1l-1 1-1-1 1-1 1 1m1153-1l-2 1c0 1-1 1 0 0l2-1m-1087 2h-4l2-1 2 1m8 0l-2 1v-1h2m754 1l-1 1-1-1v-1l2 1m2 1l-1 1v-2c1-2 2-1 1 1m85-1l1 1c-5 1-6 1-5-1h4m-619 3l-1-1v-1l1 2m298-1l-1 1v-1l2-2-1 2m243 1c-2 2-2 2-2-1l2-1v2m43-1l-2 1-3-1c0-1 2-2 3-1l2 1m240-1l-2 4-2 3c-1 0 0-3 2-5 1-2 1-2-1-2-1-1-1-1 1-1l2 1m-778 4l-2-1-1-2c0-1 3 1 3 3m303-3l-2 1c-1 0-2 0-1-1l1-1 2 1m478 0l-1 1v-1l1-1v1m72 1l-2-1c-1-1-1-1 0 0l2 1m-1187 0l-1 1-1-1 1-1 1 1m40 1l-1 1v-1l1-2v2m227 0c1 0 1 1 0 0l-1-1c0-1 1-1 1 1m27-2l-2 2h-2l2-2h2m48 1l-1 4c-2 3-3 2-1-1v-4l2 1m269 2c-1 1-1 0-1-1s0-2 1-1v2m234-2l-1 1-1-1v-1l2 1m290 0l-1 1-1-1 1-1 1 1m15 1c-1 1-1 1 0 0l1-2-1 2m30-1h-2v-1l2 1m2 1l-2 2c-2 0-2 0 0-2s2-2 2 0m-1130 0l-1 1-1-1v-1l2 1m517 0l-1 1-1-1v-1l2 1m267 1l-2 1v-2l2-1v2m-830 1l-1 1-1-2h1l1 1m888-1l-2 1-1-1 2-1 1 1m-897 1l-1 1-1-1v-1l2 1m31 1c1 1 1 1 0 0-2-1-2-2-1-2l1 2m1109 0l-1 1v-1l1-2v2m52 0h-1l-2-1h2l1 1m-841-1l-1 2-1-1 1-1h1m749 1h-2v-1l2 1m58 0l-2 1c-1 1-1 1 0 0 1-2 2-2 2-1m-1145 1h-2v-1l2 1m63 1l-2-1c-1-1-1-1 0 0l2 1m228-1l2 1c2-1 3 0 1 1s-4-1-3-2 1-1 0 0m548 1c-1 1-1 1 0 0l1-2-1 2m265 0h-3c0-1 1-2 3-2s2 1 0 2m13-1l-1 1-1-1v-1l2 1m-1109 1c0 2-2 2-2 1-1-1 0-2 1-2l1 1m525 0l-1 1v-1l1-1v1m90 1l-1 1v-1l1-2v2m514 0l1 2-2-2-1-2 2 2m-1116 0l-1 2-1-1 1-2 1 1m247 1c-1 2-2 1-2-1h2v1m77 0h-1l1-2v2m211 0h-1l1-2v2m299-1l-2 1v-1h2m-804 1l-1 1-1-1 1-1 1 1m486 2v1l-3-3c0-1 3 0 3 2m308-1c1 0 1 1 0 0l-1-1c0-1 1-1 1 1m-844 2l-1-2c-1-1-1-1 0 0l1 2m3-2l-1 1-1-1v-1l2 1m1139 0l-2 1-2-1 2-1 2 1m-1168 1v1l-1-1v-1l1 1m314 1c0 1 0 2-1 1l-1-1v-2l2 2m26-1c-1 1 0 1 1 1v2c0 2 0 2 1 1l1 1-3 1c-2 0-2 0-1-1v-3-2h1m16 0l-1 1-1-1 1-1 1 1m4-1l-1 2-1-1 1-1h1m14 1v1l-1-1v-1l1 1m758-1l-1 2-1-1 1-1h1m38 2c1 1 0 2-1 2v-3c1-1 1-1 1 1m-1083 0l-2 1v-1h2m293 2l-1-2c-1-1-1-1 0 0l1 2m226-1l-1 1v-2c1-2 2-1 1 1m273-1l-2 1 1-1h1m247 1c-2 3-2 3-2 1s1-3 2-3v2m75-1h-2c-1-1 0-1 1-1s2 0 1 1m-1178 2h-1l-2-1h2l1 1m41-1v1c-1 2-5 1-4-1h4m9 3l-2-1c-2-3-1-3 1-1l1 2m9-1h-1l-2-3 2 1 1 2m229 0c-1 1-3-1-2-2h1l1 2m9-2v4h-1c-2-2-2-3 0-4h1m251 2l-1-2c-1-1-1-1 0 0l1 2m13-1l-1 1c-3 0-2-2 1-3v2m5-1l-2 1v-1l1-1 1 1m4 0l-1 1-1-1v-1l2 1m298-1l-1 2-1-1 1-1h1m220 1l-1 1v-1l1-1v1m-813 1l-1 1v-1l1-1v1m79 0l-1 1-1-1 1-1 1 1m487-1l-2 1c0 1-1 1 0 0l2-1m-536 4h-1l-2-2h2l1 2m807-2l-2 1c-1 1-1 1 0 0 1-2 2-2 2-1m52 0v5l-1-2-2-2-2-1h5m19 0l-1 1-1-1v-1l2 1m-1186 1l-3 3v-1-1l1-2 2 1m556 0l-1 1-1-1v-1l2 1m258 0l-1 1-1-1 1-1 1 1m6 0l-1 1-1-1 1-1 1 1m38-1l-2 1v-1h2m55 0l-1 1h-2l2-1h1m183 1v2l-2-1c-2-1-2-2-1-2l3 1m41 0v1l-1-1v-1l1 1m14 1c-1 2-2 1-2-1h2v1m-1128 0h-2c-1-1 0-1 1-1s2 0 1 1m232 0v1l-1-1v-1l1 1m19 2v-1l1-2-1 3m327-1h-1v-1c0-1 1-1 1 1m12-1l-1 1-1-1v-1l2 1m13 1l-1 1-1-2h1l1 1m181 0c0 1-4 2-4 0l5-2-1 2m24-1l-1 1-1-1 1-1 1 1m312 0l-1 1-1-1 1-1 1 1m40 0v1l-1-1v-1l1 1m-563 2c0 2-1 3-2 3l-1-1 1-2c1-3 2-2 2 0m226 1c-1 1-2-1-1-2h1v2m48-2h-2v-1l2 1m263 2h-1v-1l1-1 1-1-1 3m-1183-1l-1 1-1-1 1-1 1 1m364 0l-1 1v-1l1-1v1m239 0h-2v-1l2 1m53 1v1l-1-1-1-2 2 2m239-2l-1 2-1-1 1-1h1m10 0l-1 2-1-1 1-1h1m309 1h-2c-1-1 0-1 1-1s2 0 1 1m-853 0l-2 1v-1h2m192 0l-1 2-1-1 1-1h1m78 1c1 1 0 2-1 1l-1 1-1 1v-3h3m496 1l-1 1v-2c1-2 2-1 1 1m90 1c-1 1-2-1-1-2h1v2m-1203-1h-2v-1l2 1m78 0l-1 1-1-1v-1l2 1m260 0h-2v-1l2 1m23 0l-1 1v-1l1-1v1m207-1l-1 2-1-1 1-1h1m43 2c1 0 1 1 0 0l-1-1c0-1 1-1 1 1m46 0h-1l-2-1h2l1 1m160-1l-1 1-1-1 1-1 1 1m30 1c0 2-2 1-1 0l1-1v1m245-1l-1 1v-1l1-1v1m-1096 1v1l-1-1v-1l1 1m74 1l-1 1v-1l1-2v2m197 1l-2 2 3-5-1 3m26-2l-1 1-1-1 1-1 1 1m3 0v1l-1-1v-1l1 1m253 2l-1 2-1-2 1-2v-1l1 3m104-2l-1 1-2-1 2-1 1 1m237 1h-1l1-2v2m17 0c-1 1-4 0-4-1h3l1 1m276-2l-1 2-1-1 1-1h1m-1191 3l-2 1 1-2c2-1 3 0 1 1m379-2l-1 2-1-1 1-1h1m169 1h-2l1-1c2 0 2 0 1 1m18 0l-1 1v-1l1-1v1m86 0c1 2 1 2-1 1l-2-1h3m464 0l-1 1-1-1 1-1 1 1m-1031 2l-2 2-1-2 1-2 2 2m12-1l-1 1-1-1v-1l2 1m465-1l-2 1v-1h2m543 1v1h-1c0-2 1-2 1-1m96 0l-1 1-1-1 1-1 1 1m-835 1c1 2-1 2-2 1v-2l2 1m212-1l-1 2-1-1 1-1h1m341 1l-1 1-1-1 1-1 1 1m203 0c3-1 3-1 3 1 0 1 0 2-1 1h-2c0 2 0 2-2 0l-2-2h4m-773 2l-2 1c-2 0-2 0 0-1l2-1v1m4 0l-1 1-1-1v-1l2 1m282 1l-1 1v-2c1-2 2-1 1 1m15-1l-2 1v-1l3-1-1 1m10 2l-2-1c-1-2-1-2 1-1l1 2m246-2l-2 1-1-1 2-1 1 1m-640 1v1l-1-1v-1l1 1m658 1c0 2-1 3-2 2v-2c2-2 2-2 2 0m-362 0l-2 1-1-1 2-1 1 1m7 1l-2 2v-2c0-3 2-2 2 0m13-2l-1 2-1-1 1-1h1m57 0l-1 2h-2l2-2h1m210 0l-1 2-1-1 1-1h1m-487 2l1 1h-3c-2-2 0-3 2-1m25 0l-1 1-1-1 1-1 1 1m189-1l-1 2-1-1 1-1h1m56 1v2 3l-2-2c-1-3 0-4 1-4l1 1m205-1l-1 2-1-1 1-1h1m364 1l-1 1-1-1v-1l2 1m-542 1v1l-1-1v-1l1 1m174 0l-1 1-1-1v-1l2 1m70 2h-1v-1-1l1-1v3m213-3l-2 1v-1h2m101 1l-1 1-1-1v-1l2 1m-1213 4l-2 2 1-3 1-3v4m1117-3l-1 1-1-1 1-1 1 1m70 0l-1 1-1-1 1-1 1 1m-1123 1l-2 1-1-1 2-1 1 1m22 0l-1 1-1-1v-1l2 1m203 1l-1 1-1-1v-1l2 1m539 0l-1 1-1-1 1-1 1 1m283 0l-1 2-1-1c-1-2 0-3 2-1m73 0v1h-1c0-2 1-2 1-1m17 0l-1 1v-1l1-1v1m-547 0l-2 1v-1h2m269 2c1 1 1 1 0 0l-2-1c0-1 1-1 2 1m-948 1h-1l1-2v2m12-1v2c-1 1-2 0-1-1 0-2 1-2 1-1m5 1l-1 1v-2c1-2 2-1 1 1m643 1l-1-2c-1-1-1-1 0 0l1 2m214-2l-1 1-1-1 1-1 1 1m51 0l-1 1-1-1v-1l2 1m279 0v1l-1-1c-1-1 1-2 1 0m13 0v3l-1-2c0-2 1-3 1-1m6 0v1h-1c0-2 1-2 1-1m-1217 1l-1 1-1-1v-1l2 1m288 0l-1 1-1-1 1-1 1 1m15 1h-1l1-2v2m285-1l-1 1-1-1v-1l2 1m94 0l-2 1h-2l2-1 2-1v1m548 1l-1 1v-1l1-2v2m-930 0l-1 1-1-1v-1l2 1m258 1h-1l1-2v2m6 3c0 1 0 2-1 1v-1l-1-1-1-2h2l1 3m-478-1v1l-1-1v-2l1 2m288-1l-1 2h-3v-1l2-1 1-1 1 1m289 1l-2-1c-1-1-1-1 0 0l2 1m470-1l-1 1-1-1 1-1 1 1m-467 1l-1 1-1-1 1-1 1 1m9 0l-1 1-2-1 1-1 2 1m256 0l-2 1v-1l3-1-1 1m287 1l-1 2-1-1c1-1 0-2-1-2v-1l3 2m14-2l-1 2-1-1 1-1h1m-674 2l-2 1c0 1-1 1 0 0l2-1m120 1l-1 1-1-1 1-1 1 1m178 0l-1 1-1-1 1-1 1 1m-764 2l-3 1v-1h1l1-1 1-1v2m195-1l-1 1-1-1v-1l2 1m304 1h-1l1-2v2m332-2l-1 2-1-1 1-1h1m8 1l-1 1-1-1 1-1 1 1m295 0l-1 1-1-1 1-1 1 1m-857 2c1 0 1 1 0 0l-1-1c0-1 1-1 1 1m770-1v2l-1-1c-2-2-2-2 0-2l1 1m69 0c1 2-1 2-2 1v-2l2 1m-561 2v4c-1 2-3 0-3-3 0-2 1-3 2-3 2 0 2 0 1 2m289 0l-1 1v-1l1-2v2m-268 1l1 1c-1 1-5 0-5-2h2l2 1m165-1l2 1-5-1h3m-831 3l-3 1 1-3c3-1 4-1 2 2m14-3l-1 2-1-1 1-1h1m568 2c0 2 0 2-1 1v-3l1 2m9 1l-2 1v-1l1-2c-1-1 0 0 0 0l1 2m261-1h-3l2-1 2-1-1 2m363-1l-1 1-1-1v-1l2 1m-1189 3l-1 2v-1-3h1v2m531-2l-1 1-1-1 1-1 1 1m5 1l-1 1v-2c1-2 2-1 1 1m16 0c1 1 1 1 0 0l-2-2 2 2m266 0l-3 1 1-1c2-2 3-2 2 0m300-1l-1 1v-1l1-1v1m-1066 2l-1 1v-2c1-2 2-1 1 1m228 0c0 2-1 3-2 2l1-3 1 1m80 2c0 1-1 1-1-1-1-1 0-2 1-1v2m817-2v1l-1-1v-1l1 1m-910 2l-3 1c-2 0-2 0 0-1 2 0 2 0 1-1v-1l2 2m78-1l-1 1-1-1v-1l2 1m-368 1c-1 2-3 2-3 1l2-2 1 1m16-1l-2 2h-1l3-2m828 1l-1 1 1-2v1m88-1l-1 2-1-1 1-1h1m-635 3l-1 1-1 2h-1c-1-3-1-5 1-4l2 1m283 1h1l1 1h-3l-1-2-1-1h2l1 2m621-2h-2v-1l2 1m-1176 3c0 3-3 2-3 0s1-3 2-2l1 2m534 1c1 3-1 4-2 0v-3c1 0 2 1 2 3m-563 0l-2 1v-2c1-1 3-1 2 1m581-1c1 1 0 2-1 1v-1h1m616 0v1l-1-1v-1l1 1m32 0l-1 1 1-2v1m-859 2c0 2 0 2-1 1-1-2-1-2-1 0-1 2-1 2-1 0s0-3 2-3l1 2m207-1l-3 1h-1c0-2 1-2 3-2s2 0 1 1m289 1l-2-1h1l1 1m-563 2l-1 1-1-2 1-1 1 2m264-2l-1 1-1-1 1-1 1 1m74 0v1l-1-1v-1l1 1m219 0l-2 1-1-1 2-1 1 1m57 0v1l-1-1v-1l1 1m-920 1l-1 1h-2c0-2 2-3 3-1m313 2c-1 1-2-1-1-2h1v2m69-3l-1 2-1-1 1-1h1m543 0l-2 1v-1h2m16 0l-1 2-1-1 1-1h1m-918 4c1 1 1 1 0 0l-2-2v-1l2 3m280-3l-1 2-1-1 1-1h1m18 1l-1 1v-1l1-1v1m537 1l-1 1v-2c1-2 2-1 1 1m71-2l-1 2-1-1 1-1h1m-648 3l-1 1-1-1v-1l2 1m362 1l-1 1-2-2c0-1 2-1 3 1m9-1l-2 1c-2 0-2 0-1-1h3m218 0l-1 1-1-1v-1l2 1m50 1c0 1-2 2-2 0l3-2-1 2m23-1l-1 1-1-1v-1l2 1m262 1l-1 1v-1l1-2v2m-1177 0l-1 1v-1l1-1v1m344 1l2 1-2-1h-4l-1-1c0-1 2-1 5 1m203-1l1 1-2-1c-3-1-1-2 1 0m373 1l-1 1v-2c1-2 2-1 1 1m275 1c0 3 0 3-2 2v-3c2-2 1-3 2 1m-931-2l-1 2-1-1 1-1h1m270 2l-1 1v-1l1-2v2m351-1h-2c-1-1 0-1 1-1s2 0 1 1m-629 1v1l-1-1v-1l1 1m79 0l-1 1v-1l1-1v1m578 1l1 1 2 1-1 1c-2 0-3-3-2-4v1m-932 0v1h-1c0-2 1-2 1-1m12 1l-1 1-1-1 1-2 1 2m23-1v1l-1-1v-1l1 1m281 0l-1 1-1-1v-1l2 1m245 0l-2 1v-1l3-1-1 1m302-1l-2 1c0 1-1 1 0 0l2-1m315 1c1 1 0 2-1 1v-1h1m18 1h-1l1-2v2m25 0h-1l1-2v2m-1214 1l-1 1c-2 0-2-1-1-2l2 1m553 3l-2-1c-3-3-2-3 1-1l1 2m101-2h-1l1-2v2m-310 0v1l-1-1v-1l1 1m525 0l-2 1v-1h2m-845 1h-1l-2-1h2l1 1m261 0v1l-1-1v-1l1 1m307 1l-2-1h1l1 1m15-1v1h-2c0 3 0 4-1 3s0-5 1-5l2 1m567 0l-3 1v-1l2-1 1 1m35-1l-1 2-1-1 1-1h1m-905 2l-1 1v-1l1-1v1m612-1l-2 2c-1 1-1 1 0 0 0-2 2-3 2-2m266 1l-1 1-1-1v-1l2 1m-856 1l-1 1-3 1v-1c1-2 4-2 4-1m262 0v1l-1-1v-1l1 1m334 1h-1l1-2v2m268 1c-1 1-2-1-1-2h1v2m-1192 0c-2 1-2 1-2-1h2v1m318-1l-2 2v-1c0-2 2-3 2-1m251 3c-1 0-6-1-5-2h4c0-2 0-2 1-1v3m641-2c1 1 1 1 0 0l-2-2 2 2m-936-1l-1 2-1-1 1-1h1m370 1l-1 1v-1l1-1v1m-313 0c0 1-4 2-5 1l2-1h3m259 4l-1-1-1-2h1l1 3m285-3h-2v-1l2 1m22 0c-1 2-5 2-6 1s-1-1 1-1h2l2-1 1 1m318 1l-1 1v-1l2-2-1 2m-923-1l-1 2-1-1 1-1h1m309 2c-1 1-1 1 0 0l1-2-1 2m14-1l-1 1c-1 1-2 0-2-1h3m320 0l-2 1-2-1 2-1 2 1m-925 1h-2v-1l2 1m563-1l-1 2-1-1 1-1h1m312 1h-2l1-1 1 1m312 0l-1 1-1-1v-1l2 1m-918 1l-2 1c-2 0-2 0-1-1h3m353 0v1l-1-1v-1l1 1m-338 2l-1 1-1-2 1-1 1 2m640-1l-2 1c-4 0-3-1 0-2l2 1m-623 1h-5l3-1 2 1m287 1h-1v-1c0-1 1-1 1 1m-294 70l13 3 8 2a115 115 0 0130 11l8 4 14 8 13 8 14 11 20 18c8 8 10 11 9 12-3 5-43 39-43 36l2-5c1-5 2-10 0-9v-1c2-3 2-16 0-15v-1-3c1-2-4-16-8-23-5-8-11-14-17-19-6-4-19-10-27-11h-28c-5 1-17 7-23 11-3 3-4 4-4 6v2 1h-1c-1-1-2-2-1-3h-1l-1 2-1 1c-1 0-2 1-1 2l-1 1c-2 0-8 8-11 16l-5 18h2l1 2-1 2-2 2h1v2l-1 2v6c1 7 4 18 8 24 3 6 10 14 11 14 2 0 3 0 2 1 0 2 7 8 12 11 2 1 2 1-2 2a179 179 0 01-107-37c-8-5-37-30-40-36-1-3-1-3 4-9l5-6a484 484 0 0032-26l6-5 6-3 10-6c5-4 10-7 12-7l10-4 17-6 12-3c2-1 7-2 15-2a161 161 0 0022-1h7m329 4a237 237 0 0177 37l13 11 16 16 7 8-2 2a271 271 0 01-24 23l-7 6-6 4-10 7-13 8c-9 6-22 13-32 16l-5 2v-3l1-2 1 2 4-3c3-3 5-6 4-7l1-1c2 1 11-14 11-20l1-2 1-1-1-2v-2l2-4c0-2 0-3-1-2h-4 1l2-1c2-1 2-4 2-11-1-9-1-13-3-13v-2c0-3-7-17-13-23-5-5-8-7-11-5-1 1-1 1 0 0l2-2c2-1-7-7-9-7l-3-1c-2-2-14-6-16-6h-3l-10-1c-16 0-31 6-43 16-4 4-6 6-5 7l-1 1c-1-1-4 2-3 4l-1 1c-1-1-4 3-7 9a65 65 0 00-5 28c0 10 0 14 2 15 2 2 3 3 1 3v5c1 3 2 3 2 2l2-2v2 3c0 2 3 9 8 14l3 3h1l1 2 5 5 4 4-8-3-9-2a322 322 0 01-62-35c-7-5-34-30-34-31a263 263 0 0173-58l28-11 10-3 4-1 7-1 17-2h14l23 4m297-4a127 127 0 0134 9 216 216 0 0161 34l9 7c2 3 5 6 8 7l7 7 6 7 3 4c0 3-22 24-39 37l-6 6-1 1c0-1-3 0-5 2l-8 5-11 6-10 5-15 5a108 108 0 01-35 9h-11l-6-1 6-4c6-4 14-12 12-12l2-1 3-4c2-3 2-3 0-5-1-1-1-1 1-1 3 1 3 0 5-4l2-6 1-3c3 0 4-30 1-39-2-7-4-10-5-9l-1-2c0-3-4-9-5-8l-1-1-3-5-4-3-1 1-1-2c2-2-6-7-8-6l-2-1h1l1-1-3-1-1-1-1-1-4-1c-10-5-30-6-41-3-9 2-16 5-16 7h-1l-4 1c-4 3-5 4-2 4h1l-3 1c-1-1-12 9-11 9l4 1 4 1v2h-2l-3-2h-3c-1-1-2 0-5 5-2 4-2 4-1 5v1c-3 0-5 5-4 7v3c-3 1-5 10-5 20 0 5 1 7 2 8v1c-2 1 1 9 3 10v-1l-1-1h2c2 2 2 2 0 2-2 1-3 2-1 3l1 2c0 4-13-5-24-16l-7-6c-4-1-17-16-18-19l14-15c13-12 23-20 37-29l34-19a241 241 0 0151-11 90 90 0 0016-2l7 1m-930 2a168 168 0 0158 23l4 2-4-1-13-1-10 1h-7c-8 2-10 3-9 4l-1 1c-1-1-2 0-1 1 0 2 0 2-3 1h-3l-1 2-1 1-1-2c-1 0-10 7-13 11-3 3-3 3-1 2s2-1 1 1c-2 1-3 2-4 1-1 0-9 14-8 15l-1 1-2 2v3h1l1 2h-1l-3 3c-2 4-2 22 0 30l1 7 1 2 1 1 2 5c2 5 2 5 3 3 1-1 1-1 1 1 0 3 4 10 5 9l2 2c0 2 2 3 3 4l2 1 3 3 4 4a125 125 0 01-67-1 303 303 0 01-70-35l-6-5-9-8a5368 5368 0 00-21-20l-2-3 10-10 13-12a145 145 0 0131-24l9-5 4-2 6-3a132 132 0 0156-18c8-1 34 0 40 1m1249-1c18 3 26 6 39 13l13 5 10 6 11 7 12 8 13 10 21 21 4 5-8 9-10 9-9 8c-8 7-9 7-27 19a165 165 0 01-32 18c-5 2-11 4-31 8-14 4-17 4-29 4s-14 0-28-4l-3-2h1l3-2v-2l-1-2c0-1 4 1 3 2l3-2 3-4c-2 0-1-2 1-2 1 1 2 0 5-3 2-3 3-5 2-6l2-3c3-2 6-9 4-9v-1-2h1l1-2v-2l1-13a54 54 0 00-4-26c0-3-4-10-6-10v-1c0-2-4-7-6-6v-1c2-2-7-9-11-10-2 0-2 0-2 2 1 1 1 1 0 0v-2c2-2 2-2-2-4l-5-2-1-1-17-5h-2-22c-3 1-4 0-1-1l7-4 10-5 6-3c4-3 10-5 18-6l11-3 8-2 7-1h37M272 293l-1 1-1-1 1-1 1 1m276-1l-1 2-1-1 1-1h1m276 1l-1 1v-1l1-1v1m565 0h-2v-1l2 1m-290 3c0 1 0 2-2 2v-1-4l2 3m-5 0l-2-1c-1-1-1-1 0 0l2 1m26-1h-3c-2 0-1-1 1-1l2 1m265 2l-2 3 2-3c0-2 2-3 2-3l-2 3m-1123-1v1l-1-1v-1l1 1m6 1h-1l1-2v2m564 0c1 1 1 1 0 0l-2-2 2 2m11 0v1l-1-1v-2l1 2m10 0h-1l-2-1h2l1 1m-600 0l-1 2-1-1 1-2 1 1m587 0l-1 1-1-1v-1l2 1m269 2l-2-2h1l1 2m-23 0l-2-1c-1-1-1-1 0 0l2 1m42-1l-1 1-1-1 1-1 1 1m-23 0l-2 1v-1h2m296 2l-2-1c-1-1-1-1 0 0l2 1m-1119-1l-1 2-1-1 1-1h1m246 1l-2 1 2-2v1m275 1l-1 1-1-2 1-1 1 2m558 0l1 1c-1 1-5 0-5-2h1l3 1m36-1l-1 1-1-1 1-1 1 1m9 1h-1l1-2v2m-822-1l-1 2-1-1 1-1h1m234 1l-1 1-1-1v-1l2 1m-581 3l-2 1 1-2 1-2v3m314-2h-1l-2-1h2l1 1m2 1l-1 1v-2c1-2 2-1 1 1m4-1v1h-1c0-2 1-2 1-1m-293 2l-2 2v-1c1-1 1-1-1-2-1-1-1-1 1-1s3 1 2 2m534-2l-1 2-1-1 1-1h1m33 2h-2l-2-1h2l2 1m240 3l-1-1-1-3 2 4m24-3v1l-1-1v-2l1 2m-841-1l-1 2-1-1 1-1h1m40 1l-1 1-1-1v-1l2 1m517 1l-3 1 1-2c2-2 4-1 2 1m295-2l-1 2-1-1 1-1h1m246 2c1 1 1 1 0 0l-2-2 2 2m16 0l-1 1v-1l1-2v2m-1121 1v1l-1-1-1-2 2 2m301-1c2 1 0 2-2 1h-3l-1-1h6m28 1l-1 1-1-2h1l1 1m6-1h-3v-1l3 1m261 0l-1 1v-1l1-1v1m232 1h-1c0-1 1-2 2-1l-1 1m25-2l-1 2-1-1 1-1h1m17 1h-2v-1l2 1m13-1l-1 2-1-1 1-1h1m-839 2h-2v-1l2 1m1104 0h-2v-1l2 1m-1168 1l-2 1-1-1 2-1 1 1m18 1h-3c-1-2-1-2 1-2l2 2m270-1l-1 1v-1l1-1v1m10 1h-3v-2l3 2m31-2l-1 2-1-1 1-1h1m820 2c-1 2-3 2-3 0 0-1 0-2 2-1l1 1m-1136 1l-1 1v-2c1-1 1-1 1 1m562-1v1l-1-1v-1l1 1m569 1c0 1-1 2-2 1v-2c2-1 2-1 2 1m15 0l-1 1-1-2h1l1 1m-1159 0l-1 1 1-2v1m304 1l-3 1 1-2c2-2 4-1 2 1m579 0l-1 1v1c1 1 0 2-1 2-2 0-3-1-3-2s1-2 2-1l1-1c1-2 2-2 2 0m254-1l-1 1-1-1v-1l2 1m-815 1v1l-1-1v-1l1 1m37 0l-1 1-1-1 1-1 1 1m480 0l-1 1-1-1v-1l2 1m49 1c0 2-2 1-2 0-1-1 0-2 1-1l1 1m-870 1h-3c-1-2-1-1 1-1s3 0 2 1m557-2l-1 2-1-1 1-1h1m-265 3l-1 1-1-2h1l1 1m271 0v1l-1-1v-2l1 2m19-1l-1 1-1-1 1-1 1 1m321 1l1 1-3-1v-2l2 2m208 0l-2 3 1-2 2-3-1 2m-1108 1c-1 1-1 1 0 0l1-2-1 2m15-1l-2 2c-1 2-2 2-3 1-1-2-1-2 1-1l2-1c0-2 2-3 2-1m43 1c-1 1-1 1 0 0l1-2-1 2m285 0l-1 1v-1l1-2v2m233-1l-1 1-1-1 1-1 1 1m273 1c-2 1-3 3-2 3h-1c-2-1-2-1 1-3 4-3 5-2 2 0m41-1h-2v-1l2 1m208 2c0 2 0 2-1 1v-3l1 2m49-1c0 1 0 2-1 1-2 0-2-1-1-2 1-2 2-1 2 1m-1159 1h2l1-1c2 0 1 2-1 2-1 1-5-1-5-2s1-1 3 1m554-1l-1 1-1-1 1-1 1 1m53 0l-1 1v-1l1-1v1m32 0l-1 1-1-1v-1l2 1m554 1h-1v-1c0-1 1-1 1 1m-325 0v1l-1-1v-1l1 1m25 1l1 1h1c0 2-2 1-3-1v-2l1 2m285 0c1 2 1 2-2 2l-2-1 2-3 2 2m-1109 0l-1 1-1-1v-1l2 1m11 0c3 0 2 1 0 1-1 1-2 0-3-1s-1-1 0 0h3m819 3v1l-1 1-1-1v-4l2 1v2m201-3l-1 1-1-1v-1l2 1m-1089 3c-1 1-2-1-1-2h1v2m32 0l-2-1c-2 0-2 0-1-1s4 0 3 2m240-2l-3 1c-2 0-2 0 0-1h3m272 0l-4 2c-3 1-2 0 1-2h3m87 0l-1 1-1-1 1-1 1 1m189 0l-1 1v-1h1m-765 2l-1 1v-1l1-2v2m286-1h-2v-1l2 1m537-1l-2 1c0 1-1 1 0 0l2-1m307 2h-1l1-2v2m-1165 0h-1l-2-1h2l1 1m54 0l6 4a378 378 0 0012 13l5 5-4 5c-3 4-6 6-7 6l-1-5c-2-11-9-27-12-26-1 0-2 0-2-2h3m498 0c1 2-1 2-2 1v-2l2 1m565 0l-1 1v-1l1-1v1m-1093 1v1l-1-1v-1l1 1m524-1l-1 2-1-1 1-1h1m242 3v2l-1 1-1-3c-1-3 0-3 1-2 2 1 2 1 1 2m46-1l-1 1v-1l1-2v2m-867 0l-1 1-2-1v-1l3 1m28 0l-1 1v-1l1-1v1m246 0l-1 1-1-1v-1l2 1m47-1l-2 1c0 1-1 1 0 0l2-1m283 2h-1l1-2v2m10-1l-1 1c-1 0-2 0-1-1l1-1 1 1m236-1l-1 2-1-1 1-1h1m256 2c2 1 2 2 1 3h-4l-1-2 2 1h1l-1-2-1-2 3 2m-840 1h-1l-2-1h2l1 1m21-1l-1 1-1 2h-2l1-1 1-1c-1-1 1-2 3-2l-1 1m270 1l-1 1-2-2h1l2 1m23-1l-1 1v-1l1-1v1m514 1l-2 1 2-3v2m28-1h-3v-1l3 1m45 2c0 1-1 1-1-1-1-1 0-2 1-1v2m-1173 4l-4-5 2 1 2 4m54-4c1 1 1 1 0 0l-2-2 2 2m270 1h-2c-2-2-1-3 1-2l1 2m244-2l-1 1v-1l1-1v1m25 0l-1 1-2-1 1-1 2 1m32 0h-2l-2-1 4 1m290 0v1l-1-1v-1l1 1m246 0l-2 1v-1l1-1 1 1m-1167 1l-1 1-1-1v-1l2 1m380-1l-2 1v-1h2m181 2c1 1 1 1 0 0-2-1-2-2-1-2l1 2m540 1l-1 3-1 1c-1 0-2 3-1 5v1c-2 0-3 5-4 12l-2 2-9-9 18-18v3m71-2h-2v-1l2 1m-1177 2h-1l1-2v2m81-1l-1 1v-1l1-1v1m795 0l2 2c2 1 2 1 0 1l-3 1c0 2 0 2-2 2l-2-1 2-2 2-3v-1l1 1m-806 1l1 1-3-1v-1l2 1m220 1l-1 1-1-2h1l1 1m287 2v1l-2-2v-1l2 2m61-3l-2 1v-1l1-1 1 1m4 0l-1 1c-1 1-2 0-1-1 0-1 2-2 2 0m558 2h-2l-2-1c0-2 1-2 2-1l2 2m-857 0l-2-1c-1-1-1-1 0 0l2 1m36 0c1 0 1 1 0 0l-1-1c0-1 1-1 1 1m192-1v1l-1-1v-1l1 1m265 0l-1 1v-1h1m23 0l-1 1-1-1v-1l2 1m-536 1l-1 1-1-1 1-1 1 1m13 0v1l-1-1v-1l1 1m290-1l-1 2-1-1 1-1h1m494 3c0 2-1 1-1-1l1-2v3m-1100-2l-1 2-1-1 1-1h1m78 1v1h-1c0-2 1-2 1-1m259 1l-1 1-1-2c1-1 2-1 2 1m207-1l-1 1-1-1v-1l2 1m267 0l-1 1v-1l1-1v1m320 0l-1 1-1-1 1-1 1 1m28 2c-1 1-1 0-1-1s0-2 1-1v2m-547 0c0 1-2 2-2 0v-1l2-1v2m289-1l-2 1c-2 0-2 0-1-1h3m245 0v1l-1-1v-1l1 1m-1097 1h-2c-1-1 0-1 1-1s2 0 1 1m272 0v1l-1-1v-1l1 1m45 0v1l1 1c-1 1-4-1-4-2l2-1 1 1m170 0l-1 1-1-1 1-1 1 1m629 0l-2 1v-1h2m-1155 1v1l-1-1v-1l1 1m270 2c0-1 1-1 0 0l-2 1c-1 0-2-1-1-2 0-2 0-2 1-1l2 2m18-2l-1 1-1-1v-1l2 1m306 0l-1 1-1-1v-1l2 1m287-1l-1 2-1-1 1-1h1m-908 2l-2 1v-1h2m77 0l-1 1h-1l-2 2h-1v-2l4-2 1 1m284 0l-3 1c-1 1-2 1-1 2 0 2-3 1-4 0-1-2-1-2 1-2v2l2-2c2-2 5-2 5-1m231 0l-1 1v-1l1-1v1m54 0l-1 2c0 2 0 2-1 1l2-4v1m224 0v1l-1-1v-1l1 1m33 2c2 2 2 2 0 1l-3-2-1-1c-2-2 3-1 4 2m24-2v1l-1-1v-1l1 1m184 0h-2v-1l2 1m102-1l-2 1c0 1-1 1 0 0l2-1m-935 2l-2 2-2 1-1 1c-2 0 0-3 5-5v1m70 0l-2 1c-1 0-2 0-1-1l1-1 2 1m228 1h2c0 1-1 2-3 2s-3-1-3-2c0-2 0-2 1-1l3 1m-585 0l-2 1v-1h2m4 0l-2 1v-1h2m384 0l-1 1-1-1v-1l2 1m173 1l-1 1-1-2h1l1 1m9-1l-1 1-1-1v-1l2 1m293 0v1l-1-1v-1l1 1m70 0l-1 1-1-1 1-1 1 1m182 0l-2 1v-1h2m35 0l-3 1v-1h3m46 0l-2 1-1-1 2-1 1 1m-1183 1l-1 1-1-1v-1l2 1m65 0v1l-1-1v-1l1 1m201-1l-1 2-1-1 1-1h1m105 1h-2v-1l2 1m475 0l-1 1-1-1v-1l2 1m268-1l-1 1h-2l2-1h1m-1117 2l-2 1-1-1 2-1 1 1m64 0v1l-1-1v-1l1 1m30 0l-2 1v-1l1-1 1 1m188 0v1l1 2-2-1v-3l1 1m83 2l-2-1-2-2 2 1 2 2m20-2c1 2 0 2-2 0v-1l2 1m802 2c-1 4-3 5-2 1l1-4 1 3m35-2l-1 1-1-1 1-1 1 1m-1213 1l-1 1-1-1v-1l2 1m578 0l-1 1v-1l1-1v1m41 2c1 1 1 1 0 0l-2-2v-1l2 3m-563 0c-1 1-1 1 0 0l1-2-1 2m22 0l-3 1v-1l2-1 1-1v2m210 3l-2-1-2-3c0-1 4 2 4 4m337-3l-1 1-1-2h1l1 1m205-1h3c0 3-3 3-4 1v-2l1 1m95 0l-2 1v-1l1-1 1 1m276-1c0 1-1 2-3 2l-2 1 1-2h2l2-1m-1225 2l-1 1v-1l1-1v1m10 0v1l-1-1v-1l1 1m76 0v2h-1c-1-1-1-3 1-3v1m20 0h-2v-1l2 1m5 0l-1 1v-1l1-1v1m553 1l-1 1v-2c1-2 2-1 1 1m20-1l-3 1v-1h3m191 0c1 1 0 1 0 0-2 0-2-1-1-1l1 1m244 0c1 1 0 1 0 0-2 0-2-1-1-1l1 1m27 0l-2 1v-1h2m51 0v1l-1-1v-1l1 1m-1101 2c0 1 0 2-1 1h-1v-1c2-3 2-2 2 0m288-1h-2v-1l2 1m202 0h-5l3-1 2 1m4 0l-1 1-1-1 1-1 1 1m64 1l-1 1v-1l1-2v2m551-1l-1 1-1-1 1-1 1 1m6 1l-1 1v-2c1-1 1-1 1 1m-823-1l-1 2-1-1 1-1h1m570 2h-1v-1h1v1m258-1l-1 1-1-1v-1l2 1m-1206 6l-2-2-2-3c1-1 5 4 4 5m26-5l-1 1-1-1 1-1 1 1m541 0l-1 1-2-1 2-1 1 1m283 2l-1-1v-1l1 2m-837-1l-1 1v-1l1-1v1m352 1h-1l1-2v2m741-2l-2 1c0 1-1 1 0 0l2-1m-716 4h-2c-2 0-3-1-1-2l3 2m190-2l-2 1-1-1 2-1 1 1m528 0l-2 1v-1h2m-1019 2h-2v-1c2-1 2-1 2 1m296-1l-2 1v-1l1-1 1 1m476 1l-1 1v-1l1-2v2m343-2l-2 2c-1 1-1 1 0 0l2-2m-833 3l-1 1-1-1-1-1c-2-1-2-1 0-1s3 0 3 2m199-1l-1 2c0 1-3-1-2-2 0-2 3-1 3 0m-573 1l-1 1-1-1v-1l2 1m306 1c0 2-3 1-3 0-1-1 0-2 1-1l2 1m340-2l-1 2-1-1 1-1h1m192 1h-2v-1l2 1m389 2l-1-2c-1-1-1-1 0 0l1 2m-1143-1l-1 1-1-1 1-1 1 1m1031-1l-2 2c-1 1-1 1 0 0 0-2 2-3 2-2m26 1l-1 1-1-1v-1l2 1m-1026 1l-1 1-2-1 1-1 2 1m170 1l-1 1v-1l1-2v2m279 1c-1 1-1 0-1-1s0-2 1-1v2m360-1l-1 1v-1l1-2v2m-642-1l-2 2c-1 1-1 1 0 0 0-2 2-3 2-2m14 1l-1 1-1-1 1-1 1 1m76-1l-1 2-1-1 1-1h1m305 2h-1l1-2v2m175-1l-2 2h-1v-1l-2-1h5m10 1v1l-1-1v-2l1 2m77 0h-1l-2-2h2l1 2m275-1h-2v-1l2 1m-1225 1v1l-1-1v-1l1 1m9 0l-1 1c-1 0-2 0-1-1l1-1 1 1m95 1l-1 1-1-2 1-1 1 2m218 0l-1 1v-2c1-1 1-1 1 1m334 0l-1 1-1-2h1l1 1m-642 1h-1l1-2v2m106-1l-1 1-1-1 1-1 1 1m193 0l-1 1-1-1 1-1 1 1m360 0v1l-1-1v-1l1 1m444 0v1l-1-1v-1l1 1m98-1l-2 1h-2l2-1h2m-630 2h-2v-1l2 1m-581 2v1c-2 1-4 0-3-2h1c0 1 1 2 2 1m23-1l-2 1v-1l1-1 1 1m7 0l-1 1v-1l1-1v1m379 1l-1 1-1-2h1l1 1m439 1c-1 1-1 0-1-1s0-2 1-1v2m6-2h-2v-1l2 1m5 0l-2 1c-1 1-1 1 0 0 1-2 2-2 2-1m272-1l-1 2-1-1 1-1h1m94 1l-2 1v-1h2m-1211 1l-1 1-1-1v-1l2 1m388 0l-1 1v-1l1-1v1m193 0l-1 1v-1l1-1v1m550 0l-1 2-1-1 1-1h1m63 4h-2l-2-2c0-2 0-2 2 0l2 2m-1198-1l-1 1v-1l1-2v2m280-1l-2 2c-2 1-2 0-1-1 1-2 3-3 3-1m367 2l-1-2c-1-1-1-1 0 0l1 2m-570-1l-1 1-1-1 1-1 1 1m19 1l-1 1-1-2 1-1 1 2m276-2l-1 2-1-1 1-1h1m470 0l-1 2-1-1 1-1h1m87 1h-2v-1l2 1m279 0l-2 1v-1h2m4 0l-1 1v-1l1-1v1m-817 4l-2 1c-2 0-2 0-1-2 1-3 2-3 2-1l1 2m437-4l-1 2c-1 1-2 1-2-1l2-1h1m116 1l-1 1-1-1v-1l2 1m271-1l-1 2-1-1 1-1h1m-1126 4c-1 1-2-1-1-2h1v2m477-2l-1 1-1-1v-1l2 1m16 1l-1 1v-1l2-2-1 2m-291 0l-1 1-1-1 1-1 1 1m-278 3c-1 3-2 3-3 1l-1-2h3l1-2v3m353-1l-1 1-1-2h1l1 1m544 2l-1 1c-2 1-2 0-1-4l2 3m-926-2v1l-1-1v-1l1 1m21 0h-2v-1l2 1m268 0c1 2 0 2-2 0v-1l2 1m106 2l-3-2h2l1 2m187-2c0 2-2 2-2 1-1-1 0-2 1-2l1 1m81 2c-1 1-2-1-1-2h1v2m208-2l-1 1v-1l1-1v1m72 2l-1-2c-1-1-1-1 0 0l1 2m268-1l-2 3-1-1 1-2 2-2v2m-1208 2l-1-2c-1-1-1-1 0 0l1 2m90-1l-2-1c-1-1-1-1 0 0l2 1m12-1h-2v-1l2 1m857 1l-3 1 1-2c2-2 4-1 2 1m178 0l-2 3-1 1-1-1 6-5-2 2m64 2l-1 1-1-3c0-2 0-2 1 0l1 2m22-3l-1 1-1-1 1-1 1 1m-928 1h-2c-1-1-1-1 1-1l1 1m89 1l-2 2c-2 0-2 0-1-2l2-2 1 2m179-1v4c-2-1-2-5-1-5l1 1m8 0h-2v-1l2 1m82 0l-1 1v-1l1-1v1m210 1l-1 1-1-1c0-2 2-2 2 0m3 1l1 1 1 2c0 2-2 0-3-3s-1-3 1-2v2m63 0l-2-1v-1c1-1 3 1 2 2m20-2v1l-1-1v-1l1 1m-635 1l-1 1-2-1v-1l3 1m58 0l-1 1c-2 1-3 0-1-1h2m291 0v1l-1-1v-1l1 1m7 0l-1 1-1-1 1-1 1 1m-675 2h-1l1-2v2m324 0c1 1 1 1 0 0-2-1-2-2-1-2l1 2m339 0h-1l1-2v2m8-1l-1 1-1-1v-1l2 1m-569 1l-1 1-1-1v-1l2 1m300 1h-1l-2-1h2l1 1m202 0v2l-2-2v-2l2 2m57 0l-2 1v-1-1l1-1 1 2m216 0l-2 1v-2l2-1v2m336 0h-3c-2 0-1-1 2-1l1 1m17 1l-2 1v-1l2-2v2m-1215 0v1l-1-1v-1l1 1m20 1c1 1 1 1 0 0l-2-1c0-1 1-1 2 1m345-1l-2 1v-1l1-1 1 1m208 0h-1l-2-1h2l1 1m85 0l-1 1-1-1v-1l2 1m193 1c-1 1-1 1 0 0l1-2-1 2m351-1l-2 1 2-2v1m-1125 2l-1 1v-2c2-1 2-1 1 1m10-1h-5l2-1 3 1m187 1l-1 1v-1l1-2v2m117-1h-2v-1l2 1m277 1h-1v-1c0-1 1-1 1 1m244 0c1 0 1 1 0 0l-1-1c0-1 1-1 1 1m-919 0l-1 1-1-1 1-1 1 1m3-1l-1 2-1-1 1-1h1m10 1l-1 1-1-1 1-1 1 1m302 0h-2v-1l2 1m271-1l-2 1h-1l3-1m351 2v1c-2 0-3-3-2-3l2 2m16 1l-2 2 1-3 1-2v3m-878-1l-1 1v-1l1-1v1m-42 1l-1 1v-1l1-1v1m333 1l-1 1v2h-1c-1-1 0-5 1-5l1 2m499 0h-2c-1-1 0-2 1-1l1 1m5-2l-1 2-1-1 1-1h1m278 1l-1 1v-1l1-1v1m58 0l-1 1v-1l1-1v1m-1185 1l-1 2-1-1 1-2 1 1m265 1l-1 1-1-2h1l1 1m27-1l-1 1h-1l-1 1v-1c1-2 2-2 3-1m63 0h-3c-1-1-1-1 1-1l2 1m225 0l-2 1v-1l1-1 1 1m592 1c0 2 0 2-1 1-1-2 0-3 1-3v2m-1181 2c-2 1-2 0-1-1l2-1-1 2m296-3l-1 2-1-1 1-1h1m12 1v1l-1-1v-1l1 1m41 0l-2 1v-1h2m26 0v1h-1c0-2 1-2 1-1m-69 2l-1 1-1-2h1l1 1m271 0h-1l1-2v2m8-1l-1 1-2-1 2-1 1 1m39 1l-1 1c-2 0-2-1-1-2s2-1 2 1m231-2l-1 2-1-1 1-1h1m-832 2l-2 1h-1l2-2c2 0 2 0 1 1m43 1h-1l1-2v2m300-2l-1 2-1-1 1-1h1m467 1l-1 2h-1l-1-1v1l-1 1c-1-1 0-4 2-4l2 1m344-1l-2 1c0 1-1 1 0 0l2-1m19 1l-1 1-1-1 1-1 1 1m16 0l-1 1-1-1 1-1 1 1m-1138 1l-1 2-1-1 1-2 1 1m221 1l-1 2v-2l1-2v2m622 0l-2-1c-1-1-1-1 0 0l2 1m263 1c-1 1-3-1-2-2h1l1 2m-1168-1v1l-1-1c-1-1 1-2 1 0m268 1v1l-2-2c0-2 1-1 2 1m4-2l-1 2-1-1 1-1h1m273 0l-1 2-1-1 1-1h1m-530 3l-1 4h-2l1-2-1-2-2-2h2c2 0 3 1 3 2m595 0l-1 1-1-2h1l1 1m248-1l-1 2c-1 1-2 0-2-1s1-2 2-1h1m-813 2l-2 1 1-2c2-1 2-1 1 1m247-1l-2 1v-1l1-1 1 1m54 0v1l-1-1v-1l1 1m25 1c-1 1-1 1 0 0l1-2-1 2m183 1h-3v-2c2-1 4 0 3 2m24 0h-1l-1-2v-1l2 3m65-2l-1 1-1-1 1-1 1 1m201 0l-2 1 2-2v1m58 2h-1l-2-1-2-1h2l3 2m294-2l-2 1c-2 0-2 0-1-1h3m-1163 2h-1l1-2v2m557 0c0 2-1 2-2 0l-1-1h3v1m-288 0v1c0 2-2 1-2-1h2m268 0l-1 1-1-1 1-1 1 1m290-1l-1 2-1-1 1-1h1m3 3c-1 1-1 0-1-1s0-2 1-1v2m264-1h-3 1l1-1 1-1v2m-762 1v1l-3-2h1l2 1m201-1l-1 1v-1l1-1v1m332-1l-1 2-1-1 1-1h1m-620 2l-2 2v-1c1-2 2-3 2-1m68 1c1 0 1 1 0 0l-1-1c0-1 1-1 1 1m4-1l-1 1-1-1v-1l2 1m249 0l-1 1-1-1v-1l2 1m46 1h-1l1-2v2m206-1h-1l-2-1h2l1 1m-855 2h-1c0-1 1-2 2-1l-1 1m361 0l-3 1h-2l3-1 3-2-1 2m189-1l-1 1-1-1 1-1 1 1m282-1l-2 1v-1h2m311 2h-1v-1c0-1 1-1 1 1m3 0v1c-2-1-3-3-1-3l1 2m-1139 0l-2 1-1-1 2-1 1 1m267 0l-1 1-1-1 1-1 1 1m67 0l-1 1-1-1 1-1 1 1m216 0v1l-1-1v-1l1 1m25 1h-2l1-1h2l-1 1m12 0l-2-1c-1-1-1-1 0 0l2 1m33 1h-1l-2-2h1l2 2m221-2v3h-1v-4l1 1m71-1l-1 1h-2l2-1h1m-894 3h-1l1-2v2m269 0l-2 2v-1l1-1 1-2v2m55 0h-1l1-2v2m813-1h-2c-1-1 0-1 1-1s2 0 1 1m10 2v-1l1-2-1 3m19-2v1l-1-1v-1l1 1m-1144 2l-1 1-1-2h1l1 1m563-1l-1 1-1-1v-1l2 1m37 1c0 2-2 3-2 1l3-3-1 2m221-1l-2 1-1-1 2-1 1 1m12 0v1l-1-1v-1l1 1m9 3l-1-1-1-2h1l1 3m279-2l-1 1-1-2h1l1 1m9-1l-1 1-1-1 1-1 1 1m-1159 2v1l-1-1v-2l1 2m314-2l-1 2-1-1 1-1h1m311 2h-1l1-2v2m9-1h-2v-1l2 1m506 0l-1 1-1-1 1-1 1 1m5 0l-1 1-1-1v-1l2 1m-1176 1l-2 1 1 1h-1c-1-1 0-3 2-3v1m13 0l-2 1v-1h2m303 0l-1 1-1-1v-1l2 1m8-1l-1 2-1-1 1-1h1m572 1l-1 1-1-1 1-1 1 1m12 0l-1 1-1-1v-1l2 1m-888 1l1 1-3-1v-1l2 1m552 1c1 0 1 1 0 0l-1-1c0-1 1-1 1 1m275 0l-2 1c-1 0-1-1 1-1 2-2 3-2 1 0m29-1l-1 1c-3 1-4 0-4-1h5m283 1l1 1-3-1v-2l2 2m-862 0l-2 1c-2 1-3-1 0-1l2-1v1m64 2c-1 1-1 0-1-1s0-2 1-1v2m8-2c1 1 0 1 0 0-2 0-2-1-1-1l1 1m212 0c1 1 0 1 0 0-2 0-2-1-1-1l1 1m34 0l-1 1-2-1 1-1 2 1m242 0l-1 1-1-1v-1l2 1m35 0l-1 1v-1l1-1v1m272 1l-2-1c-1-1-1-1 0 0l2 1m-567 1l-2-1c-1-1-1-1 0 0l2 1m61-1h-2v-1l2 1m247 0l-1 1v-1l1-1v1m-252 1l-1 1v-1l1-1v1m523 0l-1 1v-1l1-1v1m11 0l-1 1-1-1v-1l2 1m17 0l-1 1-1-1v-1l2 1m-916 1l-1 1-3 1v-1c2-2 4-3 4-1m280 0l-1 1-1-1 1-1 1 1m347 0l-1 1v-1l1-1v1m-607 1l-1 1-1-1v-1l2 1m280 1h-2c-1 0-1-1 1-1 2-1 3 0 1 1m-575 0h-3c-1-1-1-1 1-1l2 1m279 0h-2v-1l2 1m27 0h-2v-1l2 1m577 0l-1 1v-1l1-1v1m-601 1v1l-1-1c-1-1 1-2 1 0m312 0l-2 1v-1l1-1 1 1m8 0l-1 1-1-1v-1l2 1m32 0v1c-1 1-2 0-1-1h1m-618 1l1 3v1l-2-2v-2h1m296-1l-1 2-1-1 1-1h1m274 1c1 1 0 1 0 0-2 0-2-1-1-1l1 1m277 0h-2v-1l2 1m-565 2l-4 2 1-2c3-3 5-3 3 0m28 0l-3 1 1-1h2m580 1l-1 1-1-1v-1l2 1m-340 1l-2 2c-1 1-1 1 0 0v-2l1-1 1 1m45 0h-2c-1-1 0-1 1-1s2 0 1 1m571-1l-2 2c-1 1-1 1 0 0 0-2 2-3 2-2m-279 2v1l-1-1v-1l1 1m-900 2v3l-1-1-1-1-1-1c0-3 1-2 3 0m285-2l-2 2h-1c1-2 3-3 3-2m14 2l-1 1-1-1 1-2 1 2m317 0l-1 1v-2c1-2 2-1 1 1m6 0h-2l-2-1h2l2 1m274 0c1 1 1 1-1 1a1035 1035 0 001-1m277-1h-2c-1-1-1-1 1-1s2 0 1 1m-1165 1l-1 1v-1l1-1v1m861 2l-1-2c-1-1-1-1 0 0l1 2m-563-1h-6l4-1c3 0 3 0 2 1m573 0l-1 1v-1l1-1v1m-6 1l-1 1-1-1 1-1 1 1m-290 0l-1 2-1-1 1-1h1m294 2v1l-1-1v-1l1 1m-269 1l-2 1v-1l1-1 1 1m-57 76a101 101 0 0014 7c1 2 7 5 20 12a10328 10328 0 0168 38 1645 1645 0 00-43 16l8 11a15260 15260 0 0131 38c1 2 1 2-1 4l-12 10-5-5a1575 1575 0 00-27-35l-9-12-2 2-2 3-5 9a1122 1122 0 00-16 23l-6-19a709 709 0 00-9-39 8484 8484 0 00-18-69c0-1 3 0 14 6m-569-4l6 1 6 2c5 1 17 4 23 7l-2 1c-2 0-3 1-3 3l-1 2c-2 0-2-2-1-2l1-1c-1-1-8 2-8 3h-1l-2 1-1 1c-1-1-10 5-10 7 1 1 1 1 0 0-3-1-13 12-18 22-3 8-6 20-6 28a63 63 0 004 22c0 3 6 14 8 15 2 0 2 0 1 1s1 3 6 8l9 8 1-1-1-1 2 2c1 2 2 3 4 3l3 2 2 1h1c0 1 1 2 7 3 5 2 5 2 3 3a144 144 0 01-63 8h-10l-16-4-3-1-6-2-9-3c-10-4-14-6-17-9l-4-2c-3 0-11-5-22-13l-15-12c-4-2-18-15-25-22-6-6-5-8 2-15a297 297 0 0182-56c8-3 16-6 24-7l8-1c5-3 18-3 41-2m317 2c8 1 9 2 6 3l-2 1h-3l-4 1c0 1-1 2-2 1-3-1-24 12-22 14l-1 1-5 4a96 96 0 00-13 25c-3 6-2 38 1 36v2l6 13c1-1 1 0 0 0l2 4 3 4c0 1 3 3 4 2v1c-1 1 9 10 17 14 8 5 15 7 25 8l8-1h6l4-1h2c3 0 14-4 14-5l2-1c2 0 10-5 12-8l2-3c-1-1 0-1 1-1 3 0 6-4 4-5-1-1-1-1 1-1l3-1 1-2 6-11h-1l-1-1 1-1c2 1 3 0 3-4l1-3 1-2v-3c1-1 2-17 1-23l-4-13-1-2-1-3c-1-2-1-3-3-2v-1c1-2 1-2-2-5-3-4-2-4 3 0l10 7 11 8 22 21c5 6 5 6 4 8-3 5-8 9-15 15l-12 10a136 136 0 01-33 24l-9 5-8 4a167 167 0 01-93 13c-9-1-13-3-22-7l-13-4c-4-2-13-6-23-13l-7-4-8-5-7-5-27-23c-5-5-10-11-10-13 1-2 5-7 8-8l4-4 6-6 12-11 12-9 9-6 11-7a178 178 0 0019-9l7-2a95 95 0 0132-10c7-3 31-3 45 0m933-1l13 2c11 1 17 3 44 16a149 149 0 0143 29l6 4 12 11 11 11-2 3-13 13-3 3-7 7-8 6-6 5-8 5-9 6-6 4-2 2-14 6c-7 4-15 7-20 8l-12 4-10 2-8 1-34 1a154 154 0 01-31-8c-5-1-8-3-4-3 5 0 24-10 24-12l1-1c2 0 10-8 10-9l-2-1c0 1-1 1 0 0l2-1c2 0 4-3 3-4l1-1c1 1 2-1 4-5 4-8 5-13 5-18l1-4v-22c-3-14-11-26-21-35-8-7-20-14-17-10l-1 1-1-3-4-2-5-1c0-1 8-5 12-5l4-1 5-2 8-1c9-3 22-3 39-1m-296 2l17 6c12 4 26 10 30 14l11 6 14 10 12 9c5 3 20 17 25 24 3 3 3 3 2 5l-19 19-12 9a235 235 0 01-76 40l-21 5-19 1c-13-1-17-1-26-4a1086 1086 0 00-32-10l-6-3h-1l-3-2c-7-2-24-13-34-22l-10-8c-5-2-29-26-29-27s12-13 19-18l9-9 8-7 8-5 6-4 7-4c3-3 4-2 1 1-4 5-10 18-12 27-3 15-2 28 5 43 2 4 3 6 4 5h1v1c-2 0-1 1 2 5l4 5c5 6 19 15 23 14v1c-1 1-1 1 1 1 4-1 6 0 6 2l1 1 4 1c3 0 3 0 2-1v-1l2 2c1 1 11 2 11 0h1c1 1 7 1 7-1v-1l1 1h5c9-3 11-3 10-4l1-1c1 1 6-1 5-2l1-2 1 1c-1 2 0 1 3-1 5-4 6-5 5-6l1-1c2 1 2 0 3-1l1-2c0 2 9-8 10-11l2-3c3-3 9-26 6-25h-1l1-1v-6c2-2 2-3 0-10-1-10-5-19-10-27-6-8-18-19-20-17l-1-1c1-1-7-5-9-5h-1c2-2-4-2-6 0h-1l1-2-11-3c-4 1-5-1-2-2 5-1 17-2 36-1 17 0 21 0 26 2m-627 2l-1 1v-1l1-1v1m6 1l-2 2h-1l3-2m547 1l-1 1v-1l1-1v1m-558 3v1l-1-1v-1l1 1m16 1l-1 1v-2c1-2 2-1 1 1m536-1v1l-1-1v-1l1 1m15 0h-1c-2 0-3-1-1-1l2 1m-540 2l-1 2h-2c-1 0 1-3 3-3v1m529 0l-1 1v-1l1-1v1m302 1c1 2 1 2-1 1l-1-2c0-1 1-1 2 1m-296 0v1l-1-1v-1l1 1m-17 2l-2 1-2-1-1-1c1-1 5 0 5 1m-818 1h-2v-1l2 1m280 1c0 2 0 2-1 1l-2-2c-1-1-1-1 1-1l2 2m531-2l-1 1h-2l2-1h1m-524 4l-1 2-1-2v-1l-1-1h3v2m26-2h-2v-1l2 1m508 0l-1 1-2-1 1-1 2 1m55 1c-2 2-2 2-1 0l1-1v1m-873 0l-2 1v-1l1-1 1 1m255 2l2 2c2 0 2 0 1 1-1 2-4 0-4-3h-1c-2 1-2 1-1-1 0-3 2-2 3 1m5-1c1 0 1 1 0 0l-1-1c0-1 1-1 1 1m9 0l-2-1c-1-1-1-1 0 0l2 1m4 0c1 1 1 1 0 0l-2-1c0-1 1-1 2 1m27 0v1l-1-1v-2l1 2m577 0l-1 1-1-1v-1l2 1m242 0l-1 1v-1l1-1v1m23 0l-1 1-1-1v-1l2 1m-1167 2c0 2-2 1-2-1v-1l2 2m322 0h-1l-2-1h2l1 1m-313-1l-2 1v-1h2m290 2l-2 1-2-1h4m863 0l-1 1-1-1v-1l2 1m-300 1l-1 1-1-1v-1l2 1m31 0l-1 1v-1l1-1v1m-905 1l-1 2c-1 0-2-1-1-2l1-1 1 1m347-1l-2 1v-1h2m568 2v3-1l-1-3v-1l1 2m245-1l-2 1 2-2v1m-818 1l-1 1-1-1 1-1 1 1m509 0l-1 1-2-1 1-1 2 1m304 2v1l-1-2c0-2 1-1 1 1m-841 0l-2 1 2-2v1m532 0l-1 1-1-1 1-1 1 1m76 0v1l-1-1v-1l1 1m262 0c-1 1 0 1 1 1s2 0 1 1l-4-2 2-1v1m-1172 1l-3 1 1-1h2m348 0l-1 1c-1 1-2 0-1-1 0-1 2-2 2 0m6 1l-2 1v-1c2-2 3-1 2 0m494-1c1 1 1 2-2 1-1 0-2 0-1-1h3m28 1h-2l-2-1h2l2 1m31 1l-1-1v-1l1 2m233-2l-1 1v-1l1-1v1m-1096 0l-1 2-1-1 1-1h1m234 3h-1l1-2h1l-1 2m56-2l-1 1-1-1 1-1 1 1m-356 2v1l-1 2c-1 0-2-4-1-5l1 1 1 1m16-1v1l-1-1v-1l1 1m31 1h-1l1-2v2m799 0c0 2 0 2 1 0l3-1c2 0 1 1-1 3-3 1-7 0-5-1l1-2 1-1v2m87 1c1 2 0 3-2 1v-1-1l1-2 1 3m-903-1c2 2 1 3-1 2l-2-2h3m9 0l-1 1-2-1 1-1 2 1m13 2h-1l-2-1-1-1c1-1 4 0 4 2m310-1c-1 1-1 1 0 0l1-2-1 2m818 0v1l-1-1v-2l1 2m-832 2l-3-1c-1-2-1-2 1-1l2 2m8-1l-2 1c-1 0-2-1-1-2s3-1 3 1m-76 0l-2 1v-1l1-1 1 1m24 0l-1 1v-1l1-1v1m5-1l-1 2-1-1 1-1h1m523 1l-1 1-1-1 1-1 1 1m49 1l-1 1-1-2h1l1 1m276 1l-3-2h2l1 2m-1162 0h-1l1-2v2m66 0l-3 2h-1c0-1 4-4 5-3l-1 1m9-1l2-1 1 1v1c5 1 7 2 5 4h-1c0-1 0-2-1-1l-3-1-3-1c-2 1-2 0-2-1 0-2 0-2 1-1h1m311 1c1 1 0 1-1 1-2 0-2 0-1-1l2-2v2m469 0l-2 1v-2c1-1 3-1 2 1m73-1l-2 1v-1h2m284-1l-1 2-1-1 1-1h1m-1178 1l-2 1v-1h2m20 1l-2 1v-1l1-1 1 1m288 1c0 2-2 1-3-1h1l2 1m3-1l-1 1-1-1 1-1 1 1m28 0l-1 1-1-1 1-1 1 1m506 0c-2 2-5 3-5 2l2-1 1-1 1-1 1 1m17 2v3s-2-4-1-5c0-2 1-1 1 2m255-1c0 2-2 3-2 1l3-3-1 2m-1103 0h-1l-2-1h2l1 1m10 0h-2v-1l2 1m883 1c1 1 1 1 0 0-2-1-2-2-1-2l1 2m246-1c1 2-1 2-2 1v-2l2 1m-1170 1l-2 1v-1l1-1 1 1m349 0l-1 1-1-1 1-1 1 1m481 0l-1 1-1-1v-1l2 1m312 0l-1 1-1-1 1-1 1 1m19 0h-1l-1 2c1 1 1 1 0 0s-1-3 1-3l1 1m31 1c0 2 0 2-1 1h-3c-2 0-2 0-1-1l3-1 2-1v2m-1182 0c1 2-1 2-2 1v-2l2 1m1167 0l-7 3-1 1h-1c-2 0 0-2 2-2l4-2h3m-1159 2l-2-1h1l1 1m31 1h-1v-2l1 2m1151-3l-1 2-1-1 1-1h1m-1144 2l-1 1v-1l1-1v1m220 0h-2v-1l2 1m21 2l-1 1-1-3h1l1 2m65-1h-1l-2-1h2l1 1m783-1h-2v-1l2 1m5 0l-1 1-1-1 1-1 1 1m-1135 2h-1l-2-2h2l1 2m11-1l-2 1v-1l1-1 1 1m8 1h-1l1-2v2m9-1l-1 2-1-1 1-2 1 1m259 0l1 1-3-1v-1l2 1m518 1l3 1h1c0 2-3 1-5-1h-3c0-2 2-3 4 0m56-2l-1 2-1-1 1-1h1m-889 3v1l-2-1h-1l-1-1c1-1 2-1 4 1m281 0h2l-3 1c-4 0-5-1-3-2h2l2 1m565-1l-2 1v-1l1-1 1 1m307 1c0 2-1 3-2 1v-2c2-1 2-1 2 1m-1121 0l-1 1v-1l1-1v1m305 0l-1 1v-1l1-1v1m26 0v1c-1 1-2 0-1-1h1m521 0c1 1 0 1 0 0-2 0-2-1-1-1l1 1m57 1l-1 1v-2c1-2 2-1 1 1m207 0l-1 1-2-2c0-1 2-1 3 1m-1142 1h-1l1-2v2m29 0l-1 1-1-1v-1l2 1m276 0v2h-1c-1-1-1-3 1-3v1m36 1l2 2h-2l-2-1v-2l2 1m502 0l-1 1-1-1 1-2 1 2m8 1l-1-2c-1-1-1-1 0 0l1 2m13-2l-2 1v-1h2m-872 0l-1 2-1-1 1-1h1m827 2l-1 1-1-1 1-2 1 2m79-1l-1 1-1-1 1-1 1 1m220 0v1l-1-1v-1l1 1m-1130 2h-1c0-1 1-2 2-1l-1 1m32-2l-1 1h-2l2-1h1m52 1l-2 1v-1h2m204 0v2l-1-1c0-2 1-3 1-1m79 1h-1l1-2v2m477-1l-2 1v-1l1-1 1 1m7 0h-2v-1l2 1m313-1l-2 1h-1l3-1m11 2l-1 1-1-2 1-1 1 2m-1100 3l-1 1v-4c2-2 2-1 1 3m247-4l-2 2c-1 1-1 1 0 0l2-2m37 1v1l-1-1v-1l1 1m29 0c1-1 1-1 1 1 0 1-1 2-2 1l-1-2h2m485 0v1l-1-1h1m326 0l-1 1-1-1v-1l2 1m-1184 1l-1 1-2-1 1-1 2 1m921 0l-1 1-1-1v-1l2 1m4-1l-1 2-1-1 1-1h1m5 2l-1 1-2-2c0-1 2-1 3 1m180-1l-1 1v-1l1-1v1m22 0l-1 1-1-1v-1l2 1m3 0c1 1 0 1 0 0-2 0-2-1-1-1l1 1m42 2v1c0 1-2-1-2-3h1l1 2m-1167 0c-1 1-1 1 0 0l1-2-1 2m278-1v1l-1-1v-1l1 1m854-1l-2 2c-1 1-1 1 0 0 0-2 2-3 2-2m-1066 4c0 2 0 2-1 0l-1-2c0-2 2 0 2 2m204-1l-2 1 2-3v2m88 1l1 2 1 1-3-1c-1-2-2-2-1-4 2-2 3-1 2 2m13-2v1l-1-1v-1l1 1m465 0h1l-1 2c-1 1-1 1-2-1-2-2-2-3 0-1h2m-766 1v1h-1c0-2 1-2 1-1m855 0l-1 1-1-1 1-1 1 1m-938 1v1l-1-1v-1l1 1m358 1l-2 2 2-4v2m485-1l-1 1-1-1 1-1 1 1m-839 1l1 3c1 1 1 1 0 0-2-2-2-4 0-4l-1 1m13 1l-1 1-1-1c0-2 2-2 2 0m286-1l-1 1-1 1h-1l-1-1h1l1-1 1-1 1 1m598 1l-1 1v-1l1-2v2m205 1l-1-2c-1-1-1-1 0 0l1 2m34-2l-1 1v-1l1-1v1m-1145 1l-1 1-1-1v-1l2 1m65 3c-1 1-3-2-2-3h1l1 3m219-3l-1 1-1-1 1-1 1 1m4 1h-1l1-2v2m5 0l-3 2 4-4-1 2m100 1l1 2c-1 1-4-3-3-4h1l1 2m530-2l-2 1-2 1-1 1v-2c2-2 5-3 5-1m6 0l-1 1-2 1-1 1 2-4 2 1m-836 1l-1 1-1-1v-1l2 1m206 0h-2c-1-1 0-1 1-1s2 0 1 1m837 1l-2-1c-1-1-1-1 0 0l2 1m-1130 0l-1 2h-2c-2-2-2-2 0-2h3m271 1l-2-1h1l1 1m93-1l-1 1-1-1v-1l2 1m-99 3l-3-1c-1-2-1-2 1-1l2 2m25 0c-1 4-1 4-2 2v-3c2-3 2-3 2 1m840-1l-2 1c-1 1-2 0-2-1s1-2 2-1l2 1m-1066 1l-2 1 1-2c2-1 3 0 1 1m9-1h-2l-3-1h3l2 1m755 0l-2 1v-1l1-1 1 1m7 0l-1 1v-1l1-1v1m17-1l-2 1c0 1-1 1 0 0l2-1m-859 2l-1 2c-1 1-1 1-1-1s2-3 2-1m914 1l-1 1c-1-1 0-3 1-3v2m-931 0l-1 1v-1l1-1v1m938 1l-1 1-1-2 1-1 1 2m12 0l-1 1-1-1 1-2 1 2m-815 20l-7 6-1-1v-4l1-11-1-11 7 7 7 7-6 7m173-19l-1 1v-1l1-2v2m84-1l-1 1-1-1 1-1 1 1m472-1l-2 2c-1 1-1 1 0 0 0-2 2-3 2-2m99 2l-2 2c-1-2 0-4 2-4v2m-841 0c-1 2-3 2-3 0l2-1c2 0 2 0 1 1m836 0h-1c-2 0-3-1-1-1l2 1m255 0v1l-1-1v-1l1 1m-919 4l-1 2v-2l-1-2-1-1h2l1 3m113-2l-1 2-3-2c-2-2-2-2 1-2 2 0 3 1 3 2m707 3v4l2 1-1 1-2 2 1 1v1l-1 4c1 4 0 4-4 0-5-7-5-7-3-10l8-9v5m-1090 0h-1c-2 0-3-2-1-3h1l1 3m5-3l-1 1-1-1v-1l2 1m59 2l-1 1 1-4v3m8-2l-1 1v-1l1-1v1m12 1h-1l1-2v2m199 0l-1 1-1-2h1l1 1m72 0l-2-1c-1-1-1-1 0 0l2 1m487-1v1l-1 1h-1c0-2 1-3 2-3v1m83 2l-1 1-1-3h1l1 2m3 0l-1-2c-1-1-1-1 0 0l1 2m188-2h-4l2-1 2 1m10 0v1l-1-1v-1l1 1m57 0l-2 1c0 1-1 1 0 0l2-1m9 2c1 0 1 1 0 0l-1-1c0-1 1-1 1 1m-1105 0v1l-1-1v-1l1 1m728 1v1l-1-1-1-2 2 2m307-1v1l-1-1v-1l1 1m-766 2c-2 1-2 1-2-1h2v1m861 0v1l-1-1v-2l1 2m-1238 0l-1 1-1-1v-1l2 1m32 1h-1c0-1 1-2 2-1l-1 1m74 1h-1l-2-2h1l2 2m826-2h-2v-1l2 1m-811 1h-2v-1l2 1m176 1l-1 1-1-1 1-2 1 2m98 0h-1l1-2v2m465 0h-3c0-1 1-2 3-1v1m-560 0v1l-1-1v-1l1 1m16 2l-1 3-1-3 1-3 1 3m56 2c-2 1-2 1-2-2s1-3 2-1v3m483 0l-1-2 1-2v4m71-3l-1 2-1-2 1-2 1 2m21-1l-1 1-1-1h2m180 2c0 3 0 3-1 2v-3c0-3 1-2 1 1m-197-2l-1 2-1-1 1-1h1m5 3c-1 1-1 0-1-1s0-2 1-1v2m279-2h-2v-1l2 1m-822 1l-1 1-1-1 1-1 1 1m11 0l-1 1-1-1 1-1 1 1m824 0l-1 1-1-1 1-1 1 1m-930 2l-1 1-1-1v-1l2 1m3 0l-1 1v-1l1-1v1m560 0v1c-2 1-3 0-3-1h3m87 2l-2 3 1-3c0-2 1-3 2-3l-1 3m267-2h-2v-1l2 1m-1181 2l-1 1-1-2h1l1 1m1089-1l-1 1-1-1v-1l2 1m-745 2l-2-1h1l1 1m-364 0c1 1 0 1 0 0-2 0-2-1-1-1l1 1m823 1l-2 1 2-3v2m281 1c0 2 0 2-1 1v-3l1 2m21-2h-2v-1l2 1m68 2l-2 1c-2 0-2 0-1-1v-2h1l2 2m-1186 0l-1 2-1-3 1-1 1 2m270 2h-2l1-1 1-2h1l-1 3m583-4l-1 2-1-1 1-1h1m270 1l-1 1v-1l1-1v1m71 0h-2l1-1 1 1m-911 2c-1 1-1 1 0 0l1-2-1 2m101 0c0 1-1 2-3 2-3 0-3 0-1-2s4-2 4 0m459-1v2c-2-1-3-3-1-3l1 1m60 0l-1 1v-1h1m-920 1v1l-1-1v-1l1 1m23 0l-2 1v-1h2m67 0v1l-1-1v-1l1 1m30 0l-1 1-1-1v-1l2 1m837 3v1c-2 1-2 0-2-2s0-3 1-1l1 2m177-3l-2 1-2-1 2-1 2 1m-301 2l-2-1h1l1 1m386-1h-2v-1l2 1m-1102 1l-2 1-2-1 1-1 3 1m269 1l-1 1-1-2h1l1 1m471 0v1l-1-1-1-2 2 2m95-1l-2 1v-1h2m255 2c1 2 0 3-1 2v-3c0-3 1-3 1 1m-281 0l-1 2c1 1 0 1 0 0-2-3-2-4 1-3v1m6 0l-1 1v-1l1-2v2m12 0l-1 1-1-1 1-2 1 2m267-1v1l-1-1v-1l1 1m-1128 2c0 1-1 2-2 1v-2c1-2 2-1 2 1m225-1l-1 1-2-1 2-1 1 1m545 3l-2-2c-1-2-1-2 1-1l1 3m64-3v1l-1-1 1-1v1m-906 1l-1 1v-1l1-1v1m1137 1l-2 1c-1 1-2 0-2-1s1-2 2-1l2 1m-1130 2h-3c-1 0-2 0-1-2 1-1 2-1 3 1l1 1m73-2l-2 1c-2 0-2 0 0-1l2-1v1m193-1l-2 1c0 1-1 1 0 0l2-1m562 0l-2 1v-1h2m-812 5c0 2-2 1-3-1l-2-3 3 2 2 2m899-1l2 1c0 1-3 2-4 1l-1-1v-1c0-4 0-4 1-1 1 1 1 2 2 1m-923-2l-1 2-1-1 1-1h1m13 1l-1 1v-1l1-1v1m282 1l2 2c0 1-4-1-4-3l2 1m77-2l-1 2-1-1 1-1h1m558 4l-2-1c-2-2-1-4 1-2l1 3m183-2v1l-1-1-1-2 2 2m74-1l-1 1-1-1v-1l2 1m-878 1v1l1 1h-3c-3-1-3-1-1-2a206 206 0 003 0m599 1v2l-2-2c0-3 1-2 2 0m-906-1l-1 2-1-1 1-1h1m284 0l-1 2-1-1 1-1h1m14 1v1l-1-1v-1l1 1m16 0l-1 1-1-1v-1l2 1m49 0v3h-1l-1-2 1-2 1 1m14 0v3c0 2-1 3-2 1-1-1 1-5 2-5v1m-293 4l-2 1v-3c2-2 3-1 2 2m1021-3v1l-1-1v-1l1 1m81 1l-1 2-1 2h-1l2-6 1 2m-1180 0l-1 1-1-1h2m82 1l-1 1v-1l1-2v2m760-1l-1 1v-1l1-1v1m8 0l2 1-1 1h-1-3c-3-2-3-2-1-2h4m333 0v1l-1-1v-1l1 1m-1179 2h-1l1-2v2m278 0l1 1-3-1v-2l2 2m30-1c-1 0-1 2 1 3v3h-1l-1-3c-2-2-2-3-1-3l3-1-1 1m509 0l-2 1v-1h2m68-1l-1 2-1-1 1-1h1m6 1l-2 1c-1 0-2 0-1-1l1-1 2 1m42 0l-1 1-1-1 1-1 1 1m175 0h-2v-1l2 1m-1050 4c-1 1-2-2-1-3 0-1 1-1 1 1v2m228-2l-1 1v-1l1-1v1m573 0l-2 2c-2 1-2 1-1-1s3-3 3-1m7 0v1l-1-1v-1l1 1m62 0l-1 1c-2 1-3 0-1-1h2m-930 0l-1 1h-2l2-1h1m307 2c1 2 0 2-2 0v-2l2 2m12 0v3h-1c-2-1-2-2 0-3l2-1-1 1m10-1l-2 1c-1 0-2 0-1-1l1-1 2 1m45 1h-2l-1 2 2-4 1 2m547-2l-1 2-1-1 1-1h1m4 1l-1 1-1-1v-1l2 1m-939 2l-1 1-1-2h1l1 1m358-1l-1 1v-1l1-1v1m8 1h-1l1-2v2m513-2l-2 1v-1h2m319 0l-1 2-1-1 1-1h1m-1167 2l-1 1-2-1 2-1 1 1m33 2l-1-2c-1-1-1-1 0 0l1 2m288-1l-2 1v-2l2-1h2l-2 2m490-1v1l-1-1v-1l1 1m33 1c0 1-1 2-2 1v-2c2-1 2-1 2 1m246-1v1l-1-1v-1l1 1m-271 1h-2v-1l2 1m4 0l-1 2-1-1 1-2 1 1m7 1c-1 1-1 1 0 0l1-2-1 2m48-1l-1 1-1-1 1-1 1 1m220 0l-1 1v-1l1-1v1m50 0h-2v-1l2 1m-1168 2l-1 1v-1l1-2v2m11-1l-1 1-1-1v-1l2 1m17 1l-3 2c0-1 2-4 4-4l-1 2m62-1h-2c-1-1 0-1 1-1s2 0 1 1m1040 0v1l-1-1v-1l1 1m52 0h-2c-1-1 0-1 1-1s2 0 1 1m-1136 0l-1 2-1-1 1-1h1m311 1v1l-1-1c-1-1 1-2 1 0m785 0l-3 2 2-3 1 1m5 1c0 2 0 2-2 1v-2c1-2 2-1 2 1m11-1l-1 1-1-1v-1l2 1m12 0h-2v-1l2 1m-1176 2l-2 1v-1l2-2v2m279 0l-1 1-2-2 1-1 2 2m558-1h-2l-1 1c1 2 0 2-1 2-2 0-2 0 0-2s4-3 4-1m-809 2l-2 1v-1l2-2v2m28 0l-1 1-1-2h1l1 1m790-1l-1 1-1-1v-1l2 1m-807 1l-1 1-1-1v-1l2 1m51 1l-1 1v-2c1-2 2-1 1 1m220-1l-1 2-1-1 1-2 1 1m5 0l-2 1v-1l3-1-1 1m574 0l-1 1-1-1v-1l2 1m323 1v2l-1-2v-2l1 2m-1150 1h-1l1-2v2m7-1l1 3h10c0 1-1 2-3 1l-4 2h-3l-1-2-1-4-1-1 2 1m308 0l-2 1-3-1 3-1 2 1m786 0l-1 1-1-1 1-1 1 1m23 0h-2v-1l2 1m-1164 2l-1 1v-2c2-1 2-1 1 1m10-1h-2v-1l2 1m54 1l-1 1-2-1h1l1-1 1-1v2m203-1h-2v-1l2 1m603 2l-1 2v-3c1-3 2-3 1 1m235-1l-1 1-1-2h1l1 1m46-1l1 1v1c-1 2-4 0-3-2h2m34 4v2l-2-2-3-2-2-1h2l2-1 1 1 2 3m-895-1l-1-2c-1-1-1-1 0 0l1 2m871-1l-1 1v-1l1-2v2m7-1h-2v-1l2 1m-1177 1l-1 1-1-1 1-1 1 1m50 3c0 2-4-1-4-3l1 1 3 2m299-3l-1 1-1-1 1-1 1 1m481-1l-1 2-1-1 1-1h1m32 3l-1 1-1-1-1-1-2-1c0-1 3 0 5 2m273 0h-1l-1-2 2 2m7-2l-1 1-1-1 1-1 1 1m-1155 1l-1 1v-1l1-1v1m44 1h-2v-1c2-1 2-1 2 1m297 0l-3 1c-3-1-4-1-2-2s5 0 5 1m27 0h-1c0-1 1-2 2-1l-1 1m-318 0l-1 1-1-1v-1l2 1m4 0h-2v-1l2 1m797 1c1 1 1 1 0 0l-2-1c0-1 1-1 2 1m72 0c1 0 1 1 0 0l-1-1c0-1 1-1 1 1m-893 0h-2v-1l2 1m334 1v2h-1c-1-2 1-5 2-3l-1 1m517 1c0 2-1 1-1-1l1-2v3m277-2l-2 1v-1l1-1 1 1m-1157 1l-1 1-1-1 1-1 1 1m39 1v1c-2 2-3 1-3-1s0-2 1-1c0 1 1 2 2 1m12 1h-2v-1l2-1 1-1-1 3m253-2v1l-1-1v-1l1 1m5 0l-1 1-1-1v-1l2 1m39 0l-2 1v-1l1-1 1 1m8 1l-1 1-1-2 1-1 1 2m490 0c0 1 0 2 1 1h4l-1 2-1-1h-1c-2 1-4 1-4-1v-1a517 517 0 003 0m-818 0l-2 1 3-2c1 0 1 1-1 1m1102 0l-1 1-1-1v-1l2 1m49 1l-1 1v-1l1-2v2m-1133 1h-1l1-2v2m254 0l-1 1-1-1 1-1 1 1m59 1h-1l1-2v2m-295 1c1 1 1 1 0 0-2-1-2-2-1-2l1 2m292-1l-1 1-2-1 1-1 2 1m503 0h-3c-1-1 0-1 2-1 1 0 2 0 1 1m11 0l-3 1c-2 0-2 0 0-1h3m27 1h-4c0-1 1-2 2-1l2 1m292 1l-1-2c-1-1-1-1 0 0l1 2m-867 0c1 0 1 1 0 0l-1-1c0-1 1-1 1 1m47-1l-1 1-1-1 1-1 1 1m792 0l-1 1v-1l1-1v1m34 0l-2 1h-1c-1 0 1-2 3-2v1m-340 1v1l-1-1v-1l1 1m55-1l-1 1h-2l2-1h1m254 3c-1 1-1 0-1-1s0-2 1-1v2m-813 0l-1 1-1-1 1-1 1 1m509 0l-2 1-1-1 2-1 1 1m-535 1l-1 1v-1l1-1v1m845 1l-2-1c-1-1-1-1 0 0l2 1m-865 0l-2 1c-1 0-2 0-1-1l1-1 2 1m578 0l-1 1-1-1v-1l2 1m31 0v1l-1-1v-1l1 1m-594 1h-4l2-1 2 1m578 0h-2v-1l2 1m285 0l-2 1v-1l1-1 1 1m-1162 1l-1 2c-2 1-2 1-1-1 0-2 2-3 2-1m9 0l-1 1c-1 0-2 0-1-1l1-1 1 1m313 0l-2 1v-1h2m551 0l-1 1-1-1v-1l2 1m254 0v1l-1-1v-1l1 1m-848 1l1 1-1 1-2-1h-1l-1-1h4m30 0v3h-3l1-1c1 1 1 1 1-1-1-2-1-3 1-1m16 2c0 2-1 1-1-1l1-2v3m-39-1l-2 1 2-2v1m12 1c0 1-2 2-2 0l3-2-1 2m545 0c-1 1-3 3-3 1l3-3v2m324-1l-2 1v-1l1-1 1 1m-1142 1l-1 1-1-1v-1l2 1m277 0v1l-1-1v-1l1 1m-303 2l-2 1v-1h2m4 1c1 2 0 3-2 2v-3l2 1m20-1l-1 1h-2l2-1h1m295 1h-2v-1l2 1m848 0l-1 1-1-1 1-1 1 1m-28 1h-1l-2-1h2l1 1m16 0l-2 2h-2l2-1 1-1 1-1v1m-296 1l-2 1v-1h2m-854 3h-3c-1-1-1-1 1-1l2 1m1155 0v1l-1-1v-1l1 1m61 84a83330 83330 0 0039 8 538 538 0 0134 17l7 4 8 6 14 12 6 4c4 2 22 19 23 22 1 2 0 4-6 9-3 5-8 9-10 10l-10 8a176 176 0 01-101 48 142 142 0 01-83-15c-4 0-15-6-18-8l-2-3 2 1 9 2h9c3 1 21-3 21-4h1l3-1 1-1 1-1 1-1c3 1 16-9 16-11l2-1 2-2 2-2v-3c0-2 0-2 1-1h2v-2l2-2c3-4 7-13 5-14-1-1-1-1 1-1 1 1 2-5 3-15l-1-11v-3a61 61 0 00-25-42l-3-2c-1-2 0-2 3-3l18-2 14-1c0-1 1-1 9 1m-1241 1c9 2 9 2 7 3-4 2-6 4-5 5l-1 1c-2-2-14 12-18 22-8 17-8 39 1 56 4 10 15 23 17 21l1 1c-1 1 6 6 11 8l5 3h5l1 1 2 1 6 2 21-1v-1h10l-14 8-6 3-6 3-4 2a145 145 0 01-110 1c-7-3-13-5-18-9l-7-3a205 205 0 01-53-39l-6-6c0-2-2-3-3-3l-3-3c-1-2-1-3 1-5a276 276 0 0171-55l12-5c6-3 13-6 16-6l10-2c10-4 43-6 57-3m288-1l2 2h-1c-2-1-5 3-4 5l-1 2h-1l-1 1c-2-1-8 6-12 14-4 7-7 18-7 24v5 2l2 1-1 1h-1l2 2 1 2c0 2-2 2-2 1l1 11a64 64 0 0010 20l8 8h3v2l3 4c4 4 18 10 20 10h2c0 1 2 2 5 2h26l8-2 8-4 4-2c3 0 12-8 11-10h1c2 2 13-14 16-24 3-7 4-12 3-12v-2c2-3 2-12 0-15-1-1-1-1 0 0 2 0 2 0 2-2l-1-5-1-4 3 2c6 4 37 33 38 36a162 162 0 01-35 33l-19 13-7 4-4 3-6 3-17 7-14 5c-6 3-27 7-38 7l-32-2a1201 1201 0 00-40-15l-11-6c-5-2-10-4-11-6l-11-7-12-9a782 782 0 00-28-26l-4-5 10-10c5-6 11-11 12-11l8-7 11-9 8-5 11-7 12-6c1-2 4-3 7-4l9-4c2-2 6-3 9-4l7-2 26-5h13m621 1l-2-1c-1-1-1-1 0 0l2 1m26 0a183 183 0 0161 21 208 208 0 0021 14l7 5c3 2 11 8 16 14l12 11 5 4c3 5 3 6-3 12l-10 9-11 10c-4 2-6 5-7 6l-4 3-9 6-8 6-8 4c-2 2-7 5-11 6l-12 6-8 4-8 2c-7 2-27 5-34 5a265 265 0 01-49-5l-12-4-8-3-6-3-5-2-7-4-7-4c-2 0-5-3-9-6l-10-7-8-7-5-3-14-13c-14-14-14-14-8-19l7-7a192 192 0 0134-28h4l3 2-3-1c-3 0-3 0-4 5v5l-1 2c-1 1-2 13 0 13l1 4c0 6 1 10 2 10l1 1 3 1 1 1h-3l-1 1 1 2c1-1 1 0 0 0l2 3 1 2 1 4 5 6h4c1 1 1 1-1 1l-2 1 11 10 3 1c-1 1 7 6 15 9 9 3 37 4 35 1l3-1c5 0 17-4 16-6-1-1-1-1 0 0l7-4 4-4v-1c1 0 2 0 1-1l1-1c1 1 4-2 10-10l2-4 1-2 5-10c1-5 2-30 1-34 0-2-1-3-2-3v-1l-1-6c-3-7-9-17-11-17l-2-1h1l-1-3-10-9c-1-1-1-1 4-1l11 2m-327 1v1l-1-1v-1l1 1m-312 1c1 2-1 2-2 1v-2l2 1m17 0l-2 1-1 1-1-1c0-2 1-2 3-2 3 0 3 0 1 1m316 1l-1 1-1-2 1-1 1 2m262-1v1l-1-1h1m12-1l-1 2-1-1 1-1h1m5 1l-2 1c-1 0-2 0-1-1l2-1 1 1m-897 1l-1 1-1-1v-1l2 1m602 1h-1l1-2v2m21-1h-2l-2-1h2l2 1m-59 1v1l-1-1v-1l1 1m28 0v1l-1-1v-1l1 1m309 0l-1 1-1-1 1-1 1 1m-350 1v2l-1 2v-1c1-2-1-1-3 1a60 60 0 00-10 15v3h1c1 1 0 1-1 1s-2 1-3 5c-4 11-4 27-1 39a72 72 0 0013 23l2 1v1c0 2 6 8 7 7l-1-2v-1c1-1 1-1 1 3 0 1 1 2 3 2l2 3 2-1h1v1c-1 1 1 2 4 3l7 3 2 1c2 1 6 2 5 0h1c2 2 8 4 7 2v-1l1 1 10 1c11-1 19-3 17-4v-1h2c1 2 12-4 17-8 10-8 12-11 12-12l1-1c2-1 10-17 10-19v-1l1-4 1-4 1-1-1-2-1-1 1-1 1-8c0-9 0-10-2-11h-3l-1-1h2l3-1a57 57 0 00-9-21l-1-2-1-1-1-2-1 1-1 1 1-2c0-3 6-2 11 1 1 2 5 4 9 5l10 6 8 6 14 9c8 6 36 32 36 34l-7 7-7 8-20 16-9 7-6 4-7 6-4 2-8 4-8 4-10 5-9 3-8 3c-10 4-21 5-43 5a92 92 0 01-47-8l-10-4c-10-3-24-11-31-16l-8-6c-6-2-9-5-23-17a673 673 0 00-21-20l-3-3 8-9 10-10c2-1 5-3 6-6l8-6 7-5a260 260 0 0165-33m352 0v1h-1c0-2 1-2 1-1m277 0l-1 1-1-1v-1l2 1m-884 2c2 3 0 3-3 0-2-1-2-2-1-2l4 2m28 1l-3-2h2l1 2m285-2h-2c-1-1 0-1 1-1s2 0 1 1m283 0v1l-1-1v-1l1 1m-888 2l-2 1v-1l1-1 1 1m10 1c1 1 1 1 0 0-2-1-2-2-1-2l1 2m566 0h-2v-1l2 1m5 0l-2 1v-1h2m-304 0l-2 1v-1h2m319 1l-2 1v-1l1-1 1 1m-602 1l-1 1c-2-1-4 0-4 2v1c-2 0-1-3 1-4h4m274 1h1c0 2-3 3-3 1l-1-1v-1h1l2 1m301-1c3 0 1 2-1 1l-1-1h2m330-1l-1 2-1-1 1-1h1m290 1h-2v-1l2 1m-900 1l-1 1-1-1 1-1 1 1m875 0l-3 1 1-1h2m-1141 1l-1 1v-1l1-1v1m526 0l-1 1-1-1 1-1 1 1m68 0l-1 2-1-1 1-1h1m540 1v1l-1-1v-1l1 1m11-1l-1 2-1-1 1-1h1m16 1h-3c-1-1-1-1 1-1l2 1m-908 1l-1 1-1-1 1-1 1 1m300 1l-1 1v-2c1-2 2-1 1 1m310-1v1l-1-1v-1l1 1m-905 1h-1l-1 1 2 1v1c-2 0-3-2-2-3l2-1v1m298-1l-1 2-1-1 1-1h1m63 2h-1l1-2v2m254-1l-2 1-1-1 2-1 1 1m43-1l-1 1h-2l2-1h1m199 1h-2v-1l2 1m18 1h-2l-2-1c1-1 4 0 4 1m17-1v1l-1-1v-1l1 1m-545 1c1 1 0 1 0 0-2 0-2-1-1-1l1 1m242 0h-2v-1l2 1m-558 3c-1 1-1 0-1-1s0-2 1-1v2m10-2l-1 1-1-1v-1l2 1m275-1l-1 2-1-1 1-1h1m320 1v1l-1-1v-1l1 1m24 1c1 2 1 2-1 1v-3l1 2m225-1c1 1 0 1 0 0-2 0-2-1-1-1l1 1m11 0l-1 1-1-1 1-1 1 1m12 0l-1 1-1-1 1-1 1 1m-601 1h-2v-1l2 1m38 1c1 2 0 2-2 0v-2l2 2m320 0l-2-1c-1-1-1-1 0 0l2 1m506-1l-1 1-1-1 1-1 1 1m5-1l-1 2-1-1 1-1h1m5 0l-1 2-1-1 1-1h1m5 3h-1v-2c1 0 2 1 1 2m-823 1c1 1 0 7-1 7l-1-5 1-4 1 2m288-1l-2-1c-1-1-1-1 0 0l2 1m230-1l-1 1-2-1 1-1 2 1m12 0l-1 1-1-1v-1l2 1m49 1l-2 1c-2 0-2 0-1-1 2-2 3-2 3 0m248-1v1l-1-1v-1l1 1m-882 1l-1 1-1-1v-1l2 1m332 0l-2 1-1-1 2-1 1 1m221 1h-1l1-2v2m343 1c-1 1-2-1-1-2h1v2m-1190 1l-1-2c-1-1-1-1 0 0l1 2m5-2l-1 1-1-1 1-1 1 1m268 0l-1 1-1-1 1-1 1 1m7 1v2l-1-2c-1-2 1-3 1 0m61-1l-2 1-1-1 2-1 1 1m19 0v3l-1-1-2-2c-2-1-2-1 0-1l3 1m222 0h-1l-2-1h2l1 1m560 0l-1 1v-1h1m3 1l-1 1v-1l1-2v2m9 1l-1-2c-1-1-1-1 0 0l1 2m7-2h-2c-1-1 0-1 1-1s2 0 1 1m-612 1l-1 1-1-1 1-1 1 1m39 0l1 1-3-1v-1l2 1m25 0l-1 1v-1l1-1v1m35 1v1l-1-2c0-2 1-1 1 1m270-1h-2v-1l2 1m-923 1l-1 1v-1l1-1v1m310 1c0 2-1 3-2 2v-3c2-1 2-1 2 1m48-2l-1 2-1-1 1-1h1m249 0l-1 2-1-1 1-1h1m252 1l-2 1v-1l1-1 1 1m13 2l-1 1-1-2c0-2 0-2 1-1l1 2m-298-1v1l-1-1v-1l1 1m24 1c1 1 0 1-2 1s-2 0 0-1l2-2v2m308-1l-1 1-1-1 1-1 1 1m-882 3l-3 1-3 1 2-3c2-2 4-1 4 1m28-1c1 0 1 1 0 0l-1-1c0-1 1-1 1 1m283-2l-2 2c-1 1-1 1 0 0l2-2m243 0l-1 2-1-1 1-1h1m8 2l-2 2v-1l1-2 1-1v2m35 0h-1v-1c0-1 1-1 1 1m19 0c1 0 1 1 0 0l-1-1c0-1 1-1 1 1m228 0l-1 1-1-2h1l1 1m320-1v1l-1-1v-1l1 1m-1156 1l-1 1-1-1v-1l2 1m530 0v1c-2 1-3 0-3-1h3m347 0l-1 1h-1l-2 1c-1 0-1-1 1-1 2-2 2-2 3-1m-298 1h-2c-1-1 0-1 1-1s2 0 1 1m40-1l-1 2-1-1 1-1h1m214 2c-2 1-2 1-2-1h2v1m338-1h-1l-2-1h2l1 1m-1195 2c0 2-2 1-1 0l1-1v1m268-1l-1 1-1-1 1-1 1 1m15 1l-1 1-1-2 1-1 1 2m84 0h-1l1-2v2m-346 0h-2c-1-1 0-1 1-1s2 0 1 1m515 0l-1 1-1-1 1-1 1 1m118 1c-1 1-1 1 0 0l1-2-1 2m513 0h-1l1-2v2m-1157 1c1 1 1 1-1 1-1 0-2 0-1-1v-1c0-2 1-1 2 1m261 0l-2 2v-2l2-2v2m83 1c-1 1-2-1-1-2h1v2m467-2l-3 2 2-3 1 1m84 0l-2 1v-1l1-1 1 1m295 0c1 1 0 2-1 1l-1-1c0-2 2-1 2 0m-1211 3h-1l-2-2h2l1 2m304-1h-1c0-1 1-2 2-1l-1 1m48 0l-1 1v-2c0-2 1-1 1 1m225 1v1l-2-3h1l1 2m46-2l-1 1-1-1 1-1 1 1m31 0l-1 1-1-1v-1l2 1m484 0v1l-1-1v-1l1 1m32 0l-2 1h-1c1-2 3-2 3-1m25 0l-1 1v-1l1-1v1m-821 3c0 2-1 1-1-1l1-2v3m211-2h2v1l-2 1-2-1-1-1h3m54 0v1h-2v-1l3-1-1 1m542 3l-2-1c-2 0-2 0-1-1 1-2 2-2 2 0l1 2m-1173-1v1l-2-1v-2l2 2m265 0l-2 1 2-3v2m26-1v1l-2-1h2m8 0l-1 1v-1l1-1v1m56 1l-2 1c-2 0-2 0-1-1h3m489 0l-1 1-1-1v-1l2 1m88 3h-1l-1-3h1l1 3m195-3l-1 1v-1h1m-1115 1l-1 1c-1 1-2 0-1-1 0-1 2-2 2 0m798 1c1 0 1 1 0 0l-1-1c0-1 1-1 1 1m106-1l-2 3v-2c0-2 1-3 2-1m221 0l-2 1v-1h2m-1073 4l-1-1-1-2h1l1 3m471-2l-1 1v-2c1-2 2-1 1 1m106 0l-1 1-1-2h1l1 1m254-1l-1 1v-1l1-1v1m-913 1l-1 1v-1l1-1v1m10 0l-1 1-1-1 1-1 1 1m6 3l-2-2c-1-2-1-2 1-1l1 3m9-2l-2 1v-1c2-2 3-2 2 0m7 0c-2 1-2 1-2-1h2v1m340-1l-1 1v-1l1-1v1m197 1c1 0 1 1 0 0l-1-1c0-1 1-1 1 1m13-1l1 2-3-1c-1-2 0-3 2-1m90 1h-1v-1c0-1 1-1 1 1m244 0l-1 2v-2l1-2v2m27 0h-1l1-2v2m-852 0l-2 1-2-1 2-1 2 1m221 0h-2v-1l2 1m277 0l-1 1v-1l1-1v1m616 0c1 1 0 2-1 1-2 0-2 0-1-1h2m-836 1l-1 1-1-1v-1l2 1m26 0h-2v-1l2 1m182 0l-2 1c-2 1-2 1-1-1h3m16 1l-2 2v-4h1l1 2m69-1h-2l2-1v1m199 2v1l-1 1v-3c1-2 1-2 2-1l-1 2m358-1v1l-2-1v-2l2 2m-569 1l-1 1-1-2v-1l2 2m-559-1l-1 2-1-1 1-1h1m467 2l-1 1-1-2c1-1 2-1 2 1m86 0l-1 2v-2l1-2v2m-278 1c0 2-2 1-3-1h1l2 1m12-1c1 2-1 2-3 1v-2l3 1m281 1l-1 1v-1l1-2v2m170 1l-1-2c-1-1-1-1 0 0l1 2m-523 0l-3 1 1-1 4-2-2 2m341 0l-1 1-1-2h1l1 1m17-1l-1 1-1-1 1-1 1 1m193 0c0 2-2 2-3 0-1-1-1-1 1-1l2 1m59 0v3c-1 2-1 2-1-1-1-3 0-4 1-2m8 2l-3-2h2l1 2m207-1c2 2 2 2 0 1l-3-2c0-2 2-1 3 1m70-1l-1 1-1-1v-1l2 1m-1181 2c1 3 1 4-1 4v-1l-1-2h-1l-1 1 2-4 2 2m268-1l-1 1v-1l1-1v1m643 1l-2-1c-1-1-1-1 0 0l2 1m12-1l-1 1v-1l1-1v1m10 1h-1l-2-1c0-2 2-1 3 1m241 0l-1 1v-1l1-2v2m-1201 1h-4l2-1a388 388 0 002 1m91-2l-2 1c0 1-1 1 0 0l2-1m301 2c-2 2-4 1-2-1h3l-1 1m269 0l-1 1-1-2 1-1 1 2m562 0l-1 1v-2c1-2 2-1 1 1m-1120 1l2 3c2 0 2 1 1 1-1 1-6-2-5-4l-1-1c-1-1-1-1 1-1l2 2m277-1l-1 1v-1l1-1v1m200 1l-1 3c-2 0-2-1-1-2l1-2v-1l1 2m630-1h-1l-2-1h2l1 1m10 0l-1 1-1-1v-1l2 1m-834 2c1 1 1 1 0 0-2-1-2-2-1-2l1 2m18-1v3h-1l-1-2c0-2 1-3 2-1m281-1l-1 2-1-1 1-1h1m2 2h-1l1-2v2m-382 0l-1 1-1-1 1-1 1 1m69 1c0 2-2 3-2 1v-2l2-1v2m222-1l-1 1-1-1v-1l2 1m247 3h-2l-2-2h2l2 2m-553 1l-1 1c-2 0-3-1-2-3 0-1 3 0 3 2m272-2l-1 1v-1l1-1v1m396-1l-1 2-1-1 1-1h1m271 1l-1 1-1-1v-1l2 1m-1130 1h-2c-1-1 0-1 1-1s2 0 1 1m283 0l-1 1-1-1v-1l2 1m826-1l-2 2c-2 2-2 2-2 0l2-2h2m14 1v1c-1 1-2 0-2-1h2m-641 1h-2v-1l2 1m84 1h-1l1-2v2m-666 0h1l1 1h-3l-1-1h2m303-1l-1 2-1-1 1-1h1m282 0l-1 2-1-1 1-1h1m264 3c-1 1-1 0-1-1s0-2 1-1v2m111-2h-2v-1l2 1m-557 1v1l-1-1v-1l1 1m7 1l-1 1-1-2h1l1 1m187-2l-2 1v-1h2m79 1l-1 1v-1l1-1v1m185 1l-1 1-1 2c0 1-4 2-5 1l2-1 2-1v-1-2h1l2 1m-837 0l-1 1-2-1 1-1 2 1m7 0l-1 1-1-1 1-1 1 1m824 0l-2 1v-1h2m370 0c1 1 0 1 0 0-2 0-2-1-1-1l1 1m-934 1l-1 1-1-1 1-1 1 1m-190 1v4l-1-1v-1l-1-1 1-2 1 1m16 0l-1 1-1-1v-1l2 1m5 0v1l-1-1v-1l1 1m188 0l-1 1-1-1 1-1 1 1m9 1h-1v-1c0-1 1-1 1 1m78-1h-2v-1l2 1m185-1l-2 1v-1h2m71 2l-1 1-1-1 1-2 1 2m17-1l-1 1v-1l1-1v1m15 1v1l-1-1v-2l1 2m526-1l-1 1-2-1 1-1 2 1m-1214 1l-1 1v-1l1-1v1m10-1c0 1-3 2-4 1l2-1h2m282 2v1l-1-1-1-2 2 2m580-1l-1 1v-1h1m78 1l-2 1v-1l2-2v2m175-1l-1 1v-1l1-1v1m-829 1l-1 1-1-1 1-1 1 1m11 0l-1 1-1-1 1-1 1 1m628 2l-1-2c-1-1-1-1 0 0l1 2m-339-1v1l-1-1 1-1v1m556 1h-2l1-1c2-1 2-1 1 1m72-1h-2c-1-1 0-1 1-1s2 0 1 1m20 3c-1 1-2-1-1-3h1v3m-1129 0l-1 3 1-3 1-3-1 3m19 3l6 6c1 1 1 1-5 7a270 270 0 00-17 16l2-5c3-6 3-6 1-7v-1c2 1 2 0 3-1l4-16 1-5 5 6m183-5l-1 1-3 1v-1c2-2 4-3 4-1m267 3h-3v-2c1-2 2-2 2 0l1 2m653-2c-1 1-1 1 0 0l1-2-1 2m-1226 0l-2 1v-1l1-1 1 1m374 1l-3 1c-2 0-2 0 0-1 3-2 4-2 3 0m18 1c-3 1-3 1-1-1 1-2 2-2 2-1 1 1 0 2-1 2m-300-1l-1 1c-1 0-2 0-1-1l1-1 1 1m488-1l-2 1h-1l3-1m92 1c1 1 0 1 0 0-2 0-2-1-1-1l1 1m167 0c1 1 0 1 0 0-2 0-2-1-1-1l1 1m25 1h-1l1-2v2m-476 0l-1 1-1-1 1-1 1 1m261 0l-1 1c-1 0-2 0-1-1l1-1 1 1m178 0l-1 1-1-1v-1l2 1m275 1l1 6c1 4 1 4 3 3 2 0 2 0 1 1-2 2-2 4 0 4l1 4 2 5c1 3 1 3-1 2l-3-3-5-4-7-6-2-4 4-5 5-5 1 2m-1101 1c0 1-1 2-2 1l1-2c2-1 2-1 1 1m15 1c1 4 1 4-1 0l-1-3 2 3m566-2l-1 1-1-1h2m270 2v-1l1-1-1 2m258-2c0 2-2 2-3 1s-1-1 0 0l2-1v-1l1 1m-1018 1l-2 1 2-2v1m-85 0l-2 1c0 1-1 1 0 0l2-1m82 3l-2-1v-1h2v2m217-2l-1 1h-1l-1 1 2-3 1 1m264 0l-1 1-2-1 2-1 1 1m381 1l-1 1-1-2h1l1 1m-871 4l-1-1-1-3c0-1 2 1 2 4m567-4v1l-1-1c-1-1 1-2 1 0m216 1l-1 2v-2c0-3 1-2 1 0m332 2l-1 3-2-4c0-4 2-3 3 1m9-3l-1 1v-1l1-1v1m5 0l-2 1v-1l1-1 1 1m-841 1l-1 1v-1l1-1v1m208 0v1l-1-1v-1l1 1m2 0v2c-2 1-2 1-1-1 0-2 1-2 1-1m5 0l-1 1-1-1 1-1 1 1m74 0v2l-1-1c0-2 1-3 1-1m20 1h-1l-2-1h2l1 1m192 0l-2 1v-2c1-1 3-1 2 1m237-1l-1 1-1-1v-1l2 1m33 1h-2l-3-1h2l3 1m77-1l1 1c-1 2-4 1-4-1-1-1-1-1 1-1l2 1m-1121 1h1l5 3h-2c-1-1-2-2-3-1l-2-1-2-1v-1l3 1m9 0l-1 1-1-1 1-1 1 1m532 1l-2 2 2-4v2m6-1l-1 1v-1l1-1v1m207 0c1 1 0 1 0 0l-2 1-1 1 2-3 1 1m-859 1l1 1c0 2-3 2-3 0v-1h2m13 0v1l-1-1v-1l1 1m72 0l-1 1-1-1v-1l2 1m216 0l-1 1-1-1 1-1 1 1m12 0l-1 1-1-1v-1l2 1m810 0h-2v-1l2 1m-1096 0l-1 2-1-1 1-1h1m299 1l-1 1h-1l-1 1 2-3 1 1m77 0v1c-1 1-2 0-1-1h1m202 0l-1 1-1-1 1-1 1 1m-587 1l-2 1-2-1 1-1 3 1m2 1h-1c0-1 1-2 2-1l-1 1m280-1l-1 1-2-1 1-1 2 1m919 0l-1 1v-1l1-1v1m21 0l-1 1v-1l1-1v1m-1233 1l-1 1-1-1v-1l2 1m84 1l2 1 1 1-1 1c-2 0-5-2-3-2l-1-2c-2 0-2-1-1-1l3 2m201-1l3 2-6-3 3 1m299 0l-2 2v-1c0-2 2-3 2-1m4 1c1 1 1 1-1 1l-2-1 1-1c0-1 2-1 2 1m528 1l-2-1-2-2 2 1 2 2m35 0c-1 1-3-1-2-2h1l1 2m-1146-1h-2v-1l2 1m364 2h-1l-4-1-2-1c0-1 6 0 7 2m15-2v1l-1-1v-1l1 1m3 2l-2 3 3-6-1 3m183-1l-2 1 2-3v2m77-1l-2 1v-1h2m8 1c1 1 0 2-1 3h-1l1-3c0-3 1-3 1 0m6-1l-1 1-1-1v-1l2 1m203 0l-1 1v-1l1-1v1m70 0l-1 1v-1l1-1v1m194 0h-2v-1l2 1m69 0l-1 1-2-1 1-1 2 1m-889 1l-1 1h-3c-1-2 2-3 4-1m49 0l-2 1-2-1 2-1 2 1m523 1l-1 1v-1l1-2v2m32 0c0 1-4 2-4 0l5-2-1 2m223-1v1l-1-1v-1l1 1m-533 1v1l-1-1v-1l1 1m255 1h-1l-2-1h2l1 1m71 0c0 2 0 3-2 2-2 0-2 0-1-1l2-2 1-1v2m23-1v2c-1 0-2-1-1-2l1-1v1m272 1h-2c-1-1 0-2 1-1l1 1m-1186 0l-1 1v-1l1-1v1m288-1l-1 2-1-1 1-1h1m24 2l-2 1v-1l2-2v2m45-1l-2 1h-1c-2 0 0-2 2-2s2 0 1 1m197 0l-1 1v-1l1-1v1m327 0l-1 1-1-1 1-1 1 1m-841 1l-2 1c-2 0-2 0-1-1h3m35 0l-1 1-1-1v-1l2 1m451-1l-2 1v-1h2m52 1v1l-1-1v-1l1 1m24 0c0 1-1 2-2 1v-1h2m552 0c1 1 0 1 0 0-2 0-2-1-1-1l1 1m-1178 1h-2l1-1 1 1m92 0v1h-1c0-2 1-2 1-1m777 0l-2 1c-2 0-2 0-1-1h3m245 1v1l-1-1v-2l1 2m59 0h-1l1-2v2m-1159 0l-1 1-1-1 1-1 1 1m13 0l-1 1v-1l1-1v1m324 2l-1-2c-1-1-1-1 0 0l1 2m221-2l-3 1 4-2-1 1m573-1l-1 2-1-1 1-1h1m-828 2l-1 1v-1l1-1v1m12 2c0 3-2 5-2 4-1-1 2-7 3-7l-1 3m-325 1c-2 3-3 4-2 1l3-4-1 3m280-1l-3 2v-1l1-2 2-1v2m52-1l-2 1v-1h2m300 1c0 2-2 1-2 0-1-1 0-2 1-1l1 1m217-1l-1 1-1-1v-1l2 1m19 0l-2 2-1 1c-2-2 0-3 3-4 2 0 2 0 0 1m322 0l-3 1-1-1 2-1 2 1m-619 2h-1l1-2v2m57-1h-1l-2-1h2l1 1m-557 1v1l-1-1v-1l1 1m222 2l1 1 1 1-3-2c-2-2-3-3 0-2l1 2m21-1c-1 1-1 1 0 0l1-2-1 2m242 0h-1c0-1 1-2 2-1l-1 1m557 2l-3 2 2-2 1-2-1-1h2c1 1 1 2-1 3m42-3h-2v-1l2 1m-1160 1l-2 1v-1l1-1 1 1m61-1l-2 2c-1 1-1 1 0 0l2-2m319 1l-2 1v-1h2m453 1c1 1 0 2-1 3-2 1-2 1-1-2 1-4 2-4 2-1m283-1l-2 1v-1h2m63 1v1l-1-1v-2l1 2m-1163 0l-1 1-1-1v-1l2 1m261 1l-2 1v-1l2-2v2m322-1l-2 1c-1 0-2 0-1-1l2-1 1 1m33 0l-2 1-2-1 2-1 2 1m290-1l-2 1c0 1-1 1 0 0l2-1m246 1l-1 1-2-1 1-1 2 1m34 0h-2v-1l2 1m-917 2c0 2-2 1-1 0l1-1v1m331 0h-1l1-2v2m232 0l-2-1c-1-1-1-1 0 0l2 1m286-2l-2 1c0 1-1 1 0 0l2-1m-1122 2l-3 1v-1l2-1 1 1m321 0l-1 1-1-1v-1l2 1m293-1l-1 2-1-1 1-1h1m227 2c-1 1-1 1 0 0l1-2-1 2m-757 0l-1 1v-1l1-1v1m499 1l-2 1v-2c1-1 3-1 2 1m316 0v2l-2-2c0-2 2-3 2 0m-868 0l-2 1v-1h2m35 0l-1 1-1-1 1-1 1 1m488 1h-2c-4-1-4-2-1-1l3 1m44-1l-1 1v-1l1-1v1m30 0v1l-1-1v-1l1 1m520 0v1l-1-1v-1l1 1m48 1h-1v-1c0-1 1-1 1 1m-1151 0l-2 1h-2c-3 0-1-2 3-2 2 0 2 0 1 1m587 1v1l-1-1v-2l1 2m194-1l-1 1-2-1 1-1 2 1m6 1l-1 1-1-2h1l1 1m-821 0v1l-1-1v-1l1 1m72 1h-5l-1 1v-1c1-2 5-1 6 0m200 0h-1l-3-1c-1-1 0-1 1-1 2 0 3 1 3 2m69-1h-2v-1l2 1m290 0l-1 1-1-1 1-1 1 1m217 3c-2 0-2-1-2-3 1-1 1-1 2 1v2m37-3l-1 1v5l-1-3c-2-2-2-4 0-4l2 1m282 1c-1 2-3 3-3 2l-1-2 2-1c2 0 3 0 2 1m-1151 3c0 2-2 1-2-1h-2c-2 0-2 0-1-1 1-2 1-2 3 0l2 2m42-4l-1 2-1-1 1-1h1m529 1l-1 1v-1l1-1v1m497 0l1 1c-1 1-3 0-3-1h2m-1095 2c-2 1-4 1-3-1l3-1v2m4-1l-1 1-1-1 1-1 1 1m56 1l-1 1v-1l1-2v2m551 0c1 0 1 1 0 0l-1-1c0-1 1-1 1 1m259 0h-2l-2-1h2l2 1m239 0c-1 1-1 1 0 0l1-2-1 2m12 1c2 3 0 2-2-1l-1-1 3 2m72-1l-1 1v-1l1-2v2m-1211 0l1 1-3-1v-1l2 1m31 2l-1-2c-1-1-1-1 0 0l1 2m19-2l-1 1-1-1 1-1 1 1m39 2l-1-2c-1-1-1-1 0 0l1 2m285 0c0 2-2 1-2-1l1-2 1 3m198-2l-1 1-1-1v-1l2 1m53 0v1l-1-1v-1l1 1m32-1l-2 1c0 1-1 1 0 0l2-1m-618 2l-1 1-1-1v-1l2 1m280 0l-2 1c-1 0 0-2 2-2v1m289 0v1c-1 1-4 0-4-1h4m283 1v2h-1c-2-1-2-2 0-3h2l-1 1m286-1h-1l-2-1h2l1 1m-1150 1c1 1 0 2-1 2-5 0-5 0-4 2h-1c-2-1 0-3 2-3l2-1h2m271 1l-2-1c-1-1-1-1 0 0l2 1m292-1l-1 1v-1l1-1v1m291 0v1l1 1h-1c-2-1-2-3-1-3l1 1m-839 0l-1 2-1-1 1-1h1m542 1l-1 1-1-1v-1l2 1m313 0l-1 1c-1 1-2 0-1-1 0-1 2-2 2 0m-888 2c0 2 0 2-1 1v-2c0-2 1-1 1 1m52-1l-1 1v-1l1-1v1m253 2l-4-2h2l2 2m54-2l-1 1-1-1 1-1 1 1m480-1l-1 2-1-1 1-1h1m305 2c0 1-1 2-2 1v-2l2-1v2m-7 0l-1 1-1-1 1-1 1 1m12 0c0 1-3 2-3 0-1-1 0-1 1-1l2 1m9 1h-2c-1-2-1-2 1-2 1 0 2 1 1 2m-1140 0l-3 2 2-3 1 1m280 0l-1 2h-1c-2 0-2 0 0-2l2-1v1m301 1l-1 1v-2c1-2 2-1 1 1m513 0c1 0 1 1 0 0l-1-1c0-1 1-1 1 1m-824 0v1l-1-1v-1l1 1m560 1c1 0 1 1 0 0l-1-1c0-1 1-1 1 1m-827-1l-2 2c-1 1-1 1 0 0 0-2 2-3 2-2m327 2l-1 1v-2c1-2 2-1 1 1m235 0l1 2h-2c0-2 0-3-1-2l-1-1c1-1 1-1 3 1m585 1c-2 2-3 1-2-1v-2l1 1 1 2m-1131 0v1l-3 1v-1c2-1 2-1 1-2v-1l2 2m27-1h-2v-1l2 1m257 0l-2 2h-1c-4-2-4-3 1-3 3 0 3 0 2 1m34 0l-2 1v-1l1-1 1 1m249 0l-2 2c-2 1-2 1 0-1l2-1m12 0v1l-1-1v-1l1 1m257 0l-1 1-1-1v-1l2 1m269 0l-1 1-1-1 1-1 1 1m50 1c1 0 1 1 0 0l-1-1c0-1 1-1 1 1m7-1l-1 1-1-1v-1l2 1m-1189 1l-1 1-1-1v-1l2 1m17 0l-1 1-1-1v-1l2 1m40-1l-1 2-1-1 1-1h1m802 1l-1 2-1-1 1-2 1 1m10 0l-1 1-1-1v-1l2 1m11 0h-2v-1l2 1m306 1l-1 1-1-2h1l1 1m-865 0l-1 1-1-1v-1l2 1m-323 2l3 2c2-1 6 3 4 4l-1-1-4-2-4-3c-1-3 0-3 2 0m319-1l-1 1-1-1v-1l2 1m808 1h-1l-3 1-4 2 3-2c4-3 5-3 5-1m45 2l1 2c-1 1-3-2-3-4v-2l1 2 1 2m-885-2l1 1-3-1v-1l2 1m281 1h-2c-1-1 0-2 1-2s2 1 1 2m331-1l-1 1-1-1 1-1 1 1m-604 0l-3 1 1-1h2m45 0l-1 2-1-1 1-1h1m806 0l-1 2-1-1 1-1h1m16 1l-1 1-1-1 1-1 1 1m21 0l-1 1-1-1v-1l2 1m-1136 0l-2 1h-1l3-1m803 1v1c-1 1-2 0-1-1h1m20 0l-1 1-1-1v-1l2 1m297-1l-2 1h-1l3-1m-1149 3l-1 1-1-2h1l1 1m856-1l-2 1 2-2v1m19-1l-1 2-1-1 1-1h1m-860 3h-1l1-2v2m572-2l-1 2-1-1 1-1h1m3 2l-1 1v-1l1-2v2m256 1l-2 2v-2-3c1 1 2 1 2 3m287-1c1 2 1 2-1 0l-1-2 2 2m-557 1v1l-1-1v-1l1 1m265 0l-2 1v-1h2m-822 2l-1 1-1-1v-1l2 1m-13 1v1h-1c0-2 1-2 1-1m9 0v1l-1-1v-1l1 1m1120 0c1 1 0 1 0 0-2 0-2-1-1-1l1 1M507 926l1 1v1c-2-1-9 6-9 8l-2 2v4-1l-1-1-9 20c-2 8-2 26 0 28l1 2c-1 1 0 6 4 12 1 3 2 4 3 3l2 1h-1l-2 1 2 3 1 1c0 3 7 10 13 15 8 7 17 11 24 11 2 0 4 0 3 1-2 0-1 2 1 2 6 1 25 0 30-1 11-2 26-11 26-15h1c2 1 16-16 16-20l2-4 3-10c1-8 2-21 1-22v-3c1-2 1-2 7 3l32 32a250 250 0 01-89 65l-7 2-6 2-5 1-8 2-10 2c-4 1-10 2-19 1-16 0-18 0-33-4-14-3-18-4-26-9l-11-5-7-3-8-5c-4-1-9-5-11-7l-9-7-9-7-11-9c-8-6-18-17-18-20 0-1 2-4 5-6l9-9a227 227 0 01113-58c6-2 12-2 11 0m-284 1c2 0 3 0 2 2s-2 3-3 2c-1 0-2 2-2 5l-2 2v-2l-2 2c-2 1-3 3-2 4l-1 1c-1-1-2 1-1 2 1 2 1 2-1 1-4-1-12 24-10 30v2l-1 5c0 5 3 19 4 18v2c-1 5 17 28 25 32l7 4c6 3 14 6 16 5h6c2 0 2 0 0 1-1 1 3 1 9 1 9 0 17-1 18-3l2-1 3-1h1l4-2 2-1c1 1 4-1 4-2 0-2 3-4 3-3l5-2c5-4 12-13 12-14v-1c4-2 11-21 9-24-1-2-1-2 1-1l1-1v-1c1-1 12 10 12 12l-4 4-15 14a139 139 0 01-36 27 161 161 0 01-49 24l-10 2-7 2a138 138 0 01-97-18l-10-6-12-7-6-4-14-11a7966 7966 0 00-28-29l6-7a495 495 0 0022-20c2 0 6-3 8-6 9-8 20-15 37-23l11-5 9-3 12-5c7-3 25-5 44-4l18 1m603 0v1l-1-1-1-2 2 2m340 0a104 104 0 0126 9l9 3 12 6 12 6 12 8 13 10 11 9 10 9 7 9 4 4-3 4-8 9-12 11c-2 3-8 8-14 11l-5 5-19 11-7 4-9 5-8 3c-5 3-12 5-34 10-12 3-15 3-25 3a152 152 0 01-37-6l-11-3-9-4a110 110 0 01-25-12l-9-5-9-7c-2 0-5-3-9-6-3-4-8-8-11-9l-6-6-10-9-8-8a281 281 0 0142-38l4-4v4l-1 6v16l1 3c1-1 1 0 0 0l3 11 2 3c0 6 19 29 23 28h1l3 3c3 1 4 2 5 1h1c-1 2 8 5 11 4l2 1 4 1h20l1-2 1-2 1 3h3c1 0 2-1 1-2h3c2 1 10-2 13-5l4-3c2 0 8-5 7-6l1-1c0 1 2 0 3-2 3-2 3-3 2-5v-2l1 2 2-1 2-3 3-5 2-5 1-2c2-2 4-11 3-13v-3c1-1 2-10 1-17a221 221 0 01-2-6l-1-3c0-5-6-18-13-25l-5-7h4l13 2m302-1l22 4 7 2 22 9a225 225 0 0152 35l8 6 4 4 7 7 6 8-6 5-6 7c0 1-8 9-18 16a413 413 0 00-23 17l-8 4-6 4-9 4c-6 4-19 9-28 11l-14 4a153 153 0 01-58-1c-4 0-8-2-10-3l-7-2c-3 0-15-5-17-7l-12-7c-11-5-20-11-20-13l3 1c6 3 15 5 25 5l10-1h6c6-1 13-4 13-5l1-1c2 2 25-17 24-21l1-1c1 0 4-4 8-12 2-6 4-16 3-17v-2l1-7c0-5 0-6-1-5v-1c1-1 0-11-2-12l-1-3c0-3-10-21-12-21l-1 3c1 3 0 3-1 0v-3c1-1 0-3-3-5-5-4-4-5 11-6h29m-655 2h-1c0-1 1-2 2-1l-1 1m27-1l-3 1v-1l2-1 1 1m281 1l-1 1-2-1h-2c-2 0-2 0-1-1 2-1 5-1 6 1m-579 2l-1 1-1-2h1l1 1m251-1v1h-1c0-2 1-2 1-1m38 2c0 2 0 2-1 1v-3c1-2 1-1 1 2m317-1h-1l1-2v2m-597 1c1 1 1 1-1 1l-2-1h3m865 0v1l-1-1v-1l1 1m-886 1v1l-1-1v-1l1 1m-19 1l-1 1v-1l1-1v1m308-1l-2 1h-1l3-1m604 2l2 2h-1l-3-3 2 1m-643 0l2 1h-4l-2 3c-2 3-2 3-1 5 1 1 2 2 1 4 0 3-2 3-2-1v-3l-1 1-1 2c-2 1-6 12-6 18l-2 5 1 3v1c-1 0 0 14 2 16 1 1 2 2 0 2v4c2 7 7 16 9 16l1 1c-1 1 3 6 5 5v1c-1 1-1 1 1 3 5 6 23 17 25 16l2 1 3 1 5 1h23l2-1c5 3 32-11 31-16v-1l1 1c0 2 8-7 12-14s7-14 7-18l1-4v-15c2-1 1-7-2-9h1c2 0 2 0 1-1l-1-2-1-3-3-11-4-8 18 9 9 5c6 3 16 10 23 17l10 7c5 4 24 22 24 24a224 224 0 01-77 59c-5 4-14 7-19 8l-8 2-6 2-12 2-17 3a200 200 0 01-66-14l-7-3c-6-2-18-10-32-19-14-10-13-9-29-23-9-8-12-11-14-15l-1-3 6-7 8-8 13-11a220 220 0 0171-39m314 0c1 1 0 1 0 0-2 0-2-1-1-1l1 1m321 3c-1 1-1 0-1-1 0-2 0-3 1-2v3m-1189-2l-1 1-2-1 2-1 1 1m927 0l-1 1c-1 1-2 0-1-1h2m-921 1v1h-3c0-2 0-2 3-1m891 0l-2 1v-1h2m-867 0l-2 2h-1l2-2h1m279 0l-1 2-1-1 1-1h1m337 1h-2v-1l2 1m-62 1l-1 1v-1l1-1v1m-291 1l-1 1v-1l1-1v1m20 0v1l-1-1v-1l1 1m22 0c1 1 0 1 0 0-2 0-2-1-1-1l1 1m258 0h-3l2-1c2 0 2 0 1 1m8 1l-1 1v-1l2-2-1 2m598-1l-1 1v-1l1-1v1m-1191 3c1 2 1 2-1 1h-1v-4l2 3m323 0l-1 4-1-1c1-3-1-2-2 0l-1 1c0-2 3-7 4-6l1 2m228-2l-2 1v-1l3-1-1 1m68 1l-1 1-1-1v-2l2 2m258 1c-2 2-3 1-2-1l2-1v2m19-2l-1 1-1-1 1-1 1 1m264 1h-1l1-2v2m-829 0l-1 1-1-1 1-1 1 1m243-1l-1 2-1-1 1-1h1m54 1h-3c-2 0-1-1 1-1l2 1m218 0l-1 1-1-1 1-1 1 1m336 0l-1 1-1-1v-1l2 1m-893 4c-1 1-2-1-1-3h1v3m19-1l-1 3v-5c1-1 1-1 1 2m295-1l-1 1-1-2 1-1 1 2m9 0c1 1 0 2-1 2-2 1-3 1-3-1 1 0 1-1 0 0l-1-1c0-2 5-2 5 0m243 0l-1 1v-1l2-2-1 2m-573 0l-1 2-1-1 1-2 1 1m15 0l1 1v1c0 2 0 2-1 1l-1-3v-1l1 1m29-1l-1 2-1-1 1-1h1m22 3c0-2 0-2 1-1v2c-2 2-3 1-3-2v-2l1 2 1 1m243-2h-1l-2-1h2l1 1m-289 1l-2 1 2-2v1m581 0h-2v-1l2 1m34 0l-1 1-1-1v-1l2 1m232 0l-1 1-1-1v-1l2 1m-1163 1v1l-1-1v-1l1 1m35 0h-2v-1l2 1m274 0l-1 1v-1l1-1v1m251 0v3c1 1 1 1 0 0-2 0-3-4-1-4l1 1m10 1c1 1 0 1-1 1-2 0-3 0-3-2h1l3 1m22 0c1 1 1 1 0 0-2-1-2-2-1-2l1 2m42 0c-1 0-2 1-1 2h-1l-2-1 4-2v1m219-1l-1 1c-1 0-2 0-1-1l1-1 1 1m57 0l-1 1-1-1 1-1 1 1m5 0h-2v-1l2 1m-893 2l-2 2-1-2c1-2 3-3 3 0m270-1c-1 1 0 2 1 2v1l-3 1 2-5v1m282 1l-1 1-1-2h1l1 1m37 0l-1 1v-2c1-2 2-1 1 1m572-2l-1 2-1-1 1-1h1m21 1l-1 1-1-1v-1l2 1m-625 1l-5 4v-1l2-3 2-1 1 1m49 0l-1 1v-1l1-1v1m220 1h-1l1-2v2m50-1l2 1 1 1c-1 0-6-1-5-2h2m17 1l-2-1c-1-1-1-1 0 0l2 1m21-2l-1 2-1-1 1-1h1m254 1l-1 1v-1l1-1v1m27 1v2c-1 1-1 0-1-2s0-3 1 0m-1155 2l-2-1c-1-2-1-2 1-1l1 2m272-1c-2 1-2 1-2-1h2v1m39 0h-1l-2-1h2l1 1m-375 3c-2 1-4-1-3-3l2 1 1 2m47-3v3h-1v-3l-1-1 2 1m270 0v1l-1-1v-1l1 1m554 1l-2 1 1-2c2-1 2-1 1 1m23-1l-1 1v-1l1-1v1m287 0c3 0 3 2 0 2-1 1-2 0-3-1-1-2-1-2 3-1m-1154 2l-1 1-1-2c1-1 2-1 2 1m262-1v1c-1 1-4 0-4-1h4m-275 1c1 1 0 1 0 0-2 0-2-1-1-1l1 1m24-1l-1 2-1-1 1-1h1m264 3h-1c-2-1-3-3-1-3l2 3m542-2l-1 1-1-1v-1l2 1m364 0l-1 1v-1l1-1v1m-1186 2v2h-1v-4l1 2m299-1h-2v-1l2 1m533 1c1 0 1 1 0 0l-1-1c0-1 1-1 1 1m310 0l-1 1-1-2h1l1 1m10-1c0 1-1 2-2 1v-1l2-1v1m-818 1v1l-1-1v-1l1 1m27 0h-2v-1l2 1m195 2l-1 2-1-2 1-2v-1l1 3m21-3l-1 2-1-1 1-1h1m41 1l1 2v1 2c1 1 1 1-1 1-1 0-2-1-2-3l2-3c1-1 1-1 0 0m272 1l-1 1-2-2c0-1 2-1 3 1m-916 1c1 2 1 2-1 1l-2-2c0-2 1-1 3 1m279-1l-1 1-1-1 1-1 1 1m37 1c-1 1-1 1 0 0l1-2-1 2m244-2l-1 2-1-1 1-1h1m19 0l-2 2c-1 1-1 1 0 0l2-2m16 1l1 1c0 1-3 2-4 1l-1 1h-1c-1-4-1-4 1-3h4m249 1l-2-1-1-1 3 2m-835 0l-1 1v-1l1-1v1m548 0l-1 1-1-1 1-1 1 1m79 0l-1 1-1-1 1-1 1 1m30 1l-4 1 1-1c1-1 3-2 4-1 1 0 1 1-1 1m171-1h-2v-1l2 1m14 0l-1 1-1-1v-1l2 1m-837 1l-1 1-2-1 1-1 2 1m819 1l-2 1c-1 0-2-1-1-2s3-1 3 1m39-1l-1 1-1-1v-1l2 1m282 2c-1 1-1 0-1-1s0-2 1-1v2m35-2l2 1-2 1c-3 0-4-1-3-2h3m15-1l-2 1c0 1-1 1 0 0l2-1m11 1c0 1-1 2-2 1l1-2 1 1m-1184 1l-1 1-1-1v-1l2 1m-4 2c1 0 1 1 0 0l-1-1c0-1 1-1 1 1m908-1l-1 1-1-1v-1l2 1m271 1l-2 1v-2c1-1 3-1 2 1m-1172 1l-1 2v-2l1-2v2m339-2l-1 2-1-1 1-1h1m286 0l-2 1c0 1-1 1 0 0l2-1m-580 2l-1 1v-1l1-1v1m510 0v1l-1-1v-1l1 1m340 1v3c-2-1-3-5-1-5l1 2m295-1l-1 1v-1l1-1v1m-668 2l-2-1c-1-1-1-1 0 0l2 1m5 3h-2l1-1 1-2c0-2 0-2 1-1l-1 4m115-4h-2c-1-1-1-1 1-1l1 1m178 0v1l-1-1v-1l1 1m63-1c0 1-3 2-4 1l2-1h2m25 0l-1 2-1-1 1-1h1m-857 4c-2 2-3 1-2-1 0-1 1-2 2-1v2m287 0l-1 1-1-2h-1l-1-1h3l1 2m287-2h-2v-1l2 1m5 1l-1 1-1-1 1-1 1 1m9 0l-2 1-1-1 2-1 1 1m537 0l-2 1v-1h2m20 0l-1 1-1-1v-1l2 1m-569 0l-2 1c0 1-1 1 0 0l2-1m289 1l-2 1 3-2c1 0 1 1-1 1m265 0h-2v-1l2 1m-929 4l-2-1c-2-2-1-3 1-2l1 3m-282-2v1h-1c0-2 1-2 1-1m6 2h-1v-2l1 2m291-1h-1l1-2v2m377 0l-2-1c-1-1-1-1 0 0l2 1m531 1h-1c-1-2 0-3 1-2v2m-623-2l-1 2-1-1 1-1h1m65 2c-1 1-1 1 0 0l1-2-1 2m215 0l-1 1-1-1 1-1 1 1m331 0h-3c0-1 1-2 2-1l1 1m-1181 1v1l-1-1-1-2 2 2m901-1v1l-1-1v-1l1 1m25 0l-1 1-2 1h-1l1-2a422 422 0 003 0m276 2h-2l-1-2 3 2m-573 0l-1 3v2l-1-4c0-2 0-3 1-2 2 0 2 0 1 1m482 0h-1c0-1 1-2 2-1l-1 1m75 1c2 2 2 2 0 1l-2-3c0-2 1-1 2 2m-896-2l-2 1v-1h2m365 1h-2v-1l2 1m175 1v2c-1 1-2 0-1-1l-1-1-1-1c0-2 1-1 3 1m-766 0l-1 1-1-1 1-1 1 1m1053 1l-1 1v-2c1-2 2-1 1 1m-482 2v2h-4l1-1 1-2c-1-2 1-2 2 1m213-1v1l-1-1v-2l1 2m-571 1h-1l1-2v2m93-2l-1 2-1-1 1-1h1m196 2c0 2 0 2-2 1v-3l2 2m6 0v1l-1-1v-2l1 2m84-1l-1 1v-1l1-1v1m265 1h-2v-1c2-1 2-1 2 1m18-2l-2 1c0 1-1 1 0 0l2-1m174 1l-1 1-1-1 1-1 1 1m101 0l-2 1-1-1 2-1 1 1m-854 1h-2v-1l2 1m24 0v1l-1-1v-1l1 1m173 0l1 1h-2l-2-1h3m641-1l-1 2-1-1 1-1h1m11 1c1 1 0 1 0 0-2 0-2-1-1-1l1 1m-390 1l-2 1v-1h2m27 0l-1 1-1-1 1-1 1 1m344 0v1l-1-1v-1l1 1m-1181 1h-3l2-1c2 0 2 0 1 1m255 0l-1 1c-1 0-2 0-1-1l1-1 1 1m86 1h-2l1-1c2-1 2-1 1 1m771 1v1h-5l-1 1 2-3h2l2 1m-474-1l1 1-3-1v-1l2 1m256 0l-1 1-2-1 1-1 2 1m-821 2l-2 2c-2 0-2 0-1-1 2-1 2-1 1-2v-1l2 2m190 3l-1-1-1-3h1l1 4m91-3l-2 1v-2c1-1 3-1 2 1m15-2l-1 2-1-1 1-1h1m457 1h-2v-1l2 1m267 0v3l-1-2c0-2 1-3 1-1m-1105 2v1l-2-2c0-2 1-1 2 1m557 2l-2-3h2v3m21-3v1l-1-1v-1l1 1m89 0l-1 1h-1c-1-2 0-2 1-2s2 0 1 1m252 1l-1 1-1-2 1-1 1 2m286-1l-1 1v-1l1-1v1m-1108 1l-2 1v-1l1-1 1 1m465 0l-1 1c-1 0-2 0-1-1l1-1 1 1m89 1c0 2-2 1-2 0-1-1 0-2 1-1l1 1m289-1l-1 1v-1l1-1v1m176 1l-1 1-1-2h1l1 1m85-1l-1 1-1-1 1-1 1 1m-832 1c-1 3-2 3-2 1l1-2 1 1m180 0l-1 1-1-1v-1l2 1m112 1l-1 1-1-2c1-1 2-1 2 1m254-1c1 1 1 1-1 1-1 1-2 0-2-1h3m-911 1l-1 1v-1l1-1v1m572 0l-1 1v-1h1m615 1l-2-1c-1-1-1-1 0 0l2 1m-1183 0l-1 1c-1 0-2 0-1-1l1-1 1 1m632 1c0 3-1 3-2 0v-2l2 2m186 1l1 1c0 2-3 1-4-1 0-2 1-4 2-2l1 2m274-2l-1 1-1-1 1-1 1 1m21 1c1 0 1 1 0 0l-1-1c0-1 1-1 1 1m90-1c0 2-4 4-5 3l1-1 2-1 1-2 1 1m-856 1l-1 1c-1 0-2 0-1-1l1-1 1 1m295 1l-3 1-2 1h-1s1-2 3-2c3-2 5-2 3 0m-656 0l-1 1v-1l1-1v1m300 1c1 0 1 1 0 0l-1-1c0-1 1-1 1 1m64-1v1l-1-1v-1l1 1m189-1l-1 2-1-1 1-1h1m640 3c0 2-4 4-5 3s1-3 3-3l2-1v1m-1176 0l-1 1-1-2h1l1 1m264 0l-1 1-1-1 1-1 1 1m355-2l-2 1c0 1-1 1 0 0l2-1m5 4v1l-2-1-1-1v-2l1 1 2 2m481-1l-3 1c-1 0-1-1 1-2l2-1v2m-568 0c1 1 1 1-1 1s-3-1-3-2c-1-1-1-1 0 0l4 1m11 0l-2-1c-1-1-1-1 0 0l2 1m292-1l-1 1-1-1 1-1 1 1m63 0l-2 1-1-1 2-1 1 1m-526 1h-2v-1l2 1m187 0l-1 1 1-2v1m244 0h-2v-1l2 1m15 0l-1 1-1-1 1-1 1 1m6 0l-1 1-1-1 1-1 1 1m93 1h-1l-2-1h2l1 1m-859-1l-2 1v-1h2m8 1l-1 1-1-1v-1l2 1m17 0v1l-1-1v-1l1 1m1027 2v1l-1-1-1-1v-1l2 2m-837 0c1 0 1 1 0 0l-1-1c0-1 1-1 1 1m9-1v1l-1-1v-1l1 1m79-1l-1 2-1-1 1-1h1m205 1c1 1 0 1 0 0-2 0-2-1-1-1l1 1m240 1h-1l-2-1h2l1 1m104-1l-1 1v-1l1-1v1m167 0l-1 1v5c1 2 1 3 2 2l2 1-1 1-2 1 1 1v1l4 8c6 11 12 18 15 18 1-1 1-1 0 0v2h2c1-1 1-1 2 1 0 2 2 3 3 4l2 1c-1 1-10-5-16-11l-12-11c-8-7-14-15-13-16l11-10 1 1m-1022 2h-1l1-2v2m556-1l-1 1-1-1 1-1 1 1m30-1l-1 2-1-1 1-1h1m257 2h-1l1-2v2m186-1l-1 1v-1l1-1v1m12 0l-1 1-1-1v-1l2 1m-1025 1h-1l-2-1h2l1 1m458 1l2 2c0 1-4-1-4-3l2 1m18 0l-1 2h-3l5-4-1 2m637 0h-2c-1 0 2-2 3-1l-1 1m-844-1l-1 2-1-1 1-1h1m4 1l-1 1-1-1v-1l2 1m293 0h-2v-1l2 1m479 0l-1 1-1-1v-1l2 1m81 1c0 2 0 2-1 1v-2c0-2 1-1 1 1m-1228 1l-1 1v-1l2-2-1 2m113-1v1l-2-1h2m176 3v1c-2 0-2 1-2 2l-2 2c-1 0-1-2 1-3l1-3c0-2 0-3 1-1l1 2m20-2c0 2-2 2-3 0s-1-2 1-1l2 1m912-1l-1 1-1-1v-1l2 1m-1213 2h-1l-2-2 2 1 1 1m83-1l-1 1v-1l1-1v1m505 1h-1l1-2v2m521 0h-1l-2-1h2l1 1m-1009 2l-1 1v-2l1-1v2m465 0l-2-1c-1-2-1-2 1-1l1 2m14-3l-1 2-1-1 1-1h1m76 2v1l-1-1v-2l1 2m480 1l-1 1-1-1 1-2 1 2m89 0h-2l1-1h2l-1 1m-861 6h-2l1-1v-3c-2-3-1-4 1 0 2 2 2 3 0 4m547-6l-1 1-1-1v-1l2 1m-922 1c1 2 0 2-2 0v-1l2 1m382 0l-1 1-1-1 1-1 1 1m762 2v2c-2-1-3-5-2-5l2 3m51-2l-1 1v-1l1-1v1m-1155 1l-1 1-1-1 1-1 1 1m80 0v1l-1-1v-1l1 1m196 0l-1 1-1-1v-1l2 1m9 3l-1 1v-1l-1-3h1l1 3m30-3l-1 1v-1l1-1v1m248 0c-1 3-2 3-2 1l1-2 1 1m619 0l-1 1v-1l1-1v1m-1136 2h-2l1-1c2-1 2-1 1 1m201-1v1l-1-1v-1l1 1m81 0c0 1-1 2-2 1v-1h2m26 3l-2-1-2-2 2 1 2 2m251-1c-1 1-1 0-1-1s0-2 1-1v2m218 0v2h-1v-4l1 2m6-2l-1 1-1-1 1-1 1 1m58 0l-2 2c-2 1-3 0-1-2h3m289 0c1 2 0 2-2 0l-1-1 3 1m-879 1v1l-1-1h1m618 0l-2 1v-1l3-1-1 1m179 1l-1 1-1-2h1l1 1m-1100-1l-1 2-1-1 1-1h1m41 1l-1 1-1-1v-1l2 1m291 1h-1l-2-1h2l1 1m484-1h-2v-1l2 1m28 1l-2 1 2-3v2m-556 1l-1 1v-2c0-2 1-1 1 1m349-1l-1 1-2-1c-1-1 0-1 1-1l2 1m234 0l-3 1h-2l2-1 3-1v1m309 0h-2v-1l2 1m6 0v1l2 1-3-1c-2 0-2 0-1-1l3-1-1 1m-822 2l-2-1c-1-1-1-1 0 0l2 1m459 0l-3 1-2-1 1-1h2l2 1m18 0c1 0 1 1 0 0l-1-1c0-1 1-1 1 1m66-1c0 2-2 2-4 1-1-2-1-2 1-2l3 1m-315 3c1 3 1 3 2 2h1l-1 2-5-6 1-1 2 3m492 0c-1 1-2-1-1-2h1v2m11-2l-1 1v-1l1-1v1m24 1l-1 1v-1l1-2v2m-1116-1l-1 2-1-1 1-1h1m54 1h-4l3-1 1 1m9 0h-1l-2-1h2l1 1m772 1l-2 2v-3c2-1 2 0 2 1m318-2l-1 2-1-1 1-1h1m-1164 1l-1 2-1-1 1-1h1m277 2h-1c0-1 1-2 2-1l-1 1m276-1l-1 1-2-1 1-1 2 1m348 1h-3v-1c2-1 3-1 3 1m-875 1h-1l1-2v2m284 0h-1c-2-1-3-2-1-2l2 2m53-1v3c-1 1-1 1-1-1 0-3 0-4 1-2m753 0l-1 1v-1l1-1v1m-1103 2l-1 1-1-2v-1l2 2m1085-1l-1 1v-1l1-1v1m8 1c1 0 1 1 0 0l-1-1c0-1 1-1 1 1m5-1v2c0 2 0 2-1 1-2-2-1-4 2-4l-1 1m75 1l-3 1v-1l2-1 1-1v2m-1194 2c-1 1-3-1-2-2h1l1 2m64-3l-2 2c-1 1-1 1 0 0 0-2 2-3 2-2m284 1v2l-2-1c-1-2 0-3 2-1m783 0l-2 1-1 1c-2 0-3-1-2-2l4-1c1 0 2 0 1 1m54 1c0 3-5 3-6 0h2c3 1 3 1 2-1-1-1-1-1 0 0l2 1m15 0c0 2-2 3-2 1l3-3-1 2m-1175 0v1l-2-1h2m306 0h-2v-1l2 1m791 0l-1 1v-1l1-1v1m41 3c2 0 2 0 1 3l-2 2-1 2c0 2-1 2-1 1-1-1 0-3 1-4 2-2 2-2 0-4l-3-4 2 2 3 2m-858-1h-1l1-2v2m801-1v1l-1-1v-1l1 1m107 0l-1 2-1-1c0-2 2-3 2-1m-1172 3l-2 1 1-2 1-2v3m288-2l-1 1v-1l1-1v1m279 0l-1 1-1-1 1-1 1 1m303 2c0 1-1 1-1-1-1-1 0-2 1-1v2m-922-2l-2 2c-1 1-1 1 0 0l2-2m93 2h-1v-1c0-1 1-1 1 1m220 0l-3 1c-1-1 2-3 3-2v1m271-1v1l-1-1v-1l1 1m15 0v2h-2c-1-2-1-3 1-3l1 1m17 0l-1 1c-2 0-3 0-2 1l-1 1v-3h4m38 0l-2 1c-2 0-2 0-1-1h3m210-1l-2 1v-1h2m49 1l-1 1-2-1 1-1 2 1m-884 1l-3 1v-1l2-1 1 1m7 1h-3c-1-2-1-2 1-1l2 1m22-1l-1 1-1-1 1-1 1 1m11 0l-2 1v-1h2m227 1h-3v-1h2c2-1 3-1 1 1m36-2l-2 1v-1h2m39 2l-2 1v-1c2-2 3-1 2 0m558-1v1l-1-1v-1l1 1m195 0l-1 1c-2 0-1-2 0-2l1 1m45 0c1 1 1 1-1 1l-2 1c0 2-3 4-4 3l5-6 2 1m15 0l-1 1v-1l1-1v1m13 2l-2 1 1-2 1-2v3m-1184 0l1 1h2c2 0 2 1 0 2h-1l-1-1c-2 1-3-2-2-3 1-2 2-1 1 1m305-1v1l-1-1v-1l1 1m581 0l-1 1-1-1v-1l2 1m241 0l-1 1-1-1v-1l2 1m40 0h-1l-2-1h2l1 1m10 0c1 1 1 1-1 1l-3-1h4m26 1l-1 1-1-2c1-1 2-1 2 1m-1175 0v1l-1-1v-1l1 1m611 2l-1 2v-5l1 3m469-2l-1 1-1-1v-1l2 1m-1117 1c0 1-3 2-4 1-1 0-1-1 1-1l3-1v1m344 0l-1 1v-1l1-1v1m255 1v1l-1-1v-2l1 2m11 1l-1 1 2-4-1 3m34-2v1l-1-1v-1l1 1m486 1l-2 1c-2 0-3-1-1-2l3 1m66 0l-2 1v-2c1-1 3-1 2 1m7-2l-2 2h-1c1-2 3-3 3-2m-1120 8l-1 3c0 1-1 2-2 1v-2l-2-7c0-2 1-1 3 1l2 4m229-5c-1 1-1 1 0 0l1-2-1 2m23-1l-1 1v-1l1-1v1m3 0v1l-1-1v-1l1 1m251 1l-1 1v-1l1-2v2m-554 0l-1 1-1-1v-1l2 1m4 0l-1 1v-1l1-1v1m13-1l-1 2-1-1 1-1h1m44 3h-7l2-1c2 1 3 0 3-1h1l1 2m195-1v3c-2-1-3-5-1-5l1 2m276-1l-1 1-1-1v-1l2 1m598 1h-1v-1c0-1 1-1 1 1m15-1c0 2-2 3-2 2v-1l1-1v-1l1 1m-1135 1l-1 1-1-1v-1l2 1m41 0h-2v-1l2 1m209 0l-2 1v-1h2m22 1l-1 1-1-1v-1l2 1m275 1c2 2 2 3 1 3l-1-2-5-1-5-1 10 1m38 0h-1c0-1 1-2 2-1l-1 1m231 0l-2-1c-1-1-1-1 0 0l2 1m9-1l-2 1v-1l1-1 1 1m18 0v1l-1-1v-1l1 1m-882 4l-3 1 1-2c2-3 3-2 2 1m13-3l-1 1-1-1v-1l2 1m877 2l-2-1c-1-2-1-2 1-1l1 2m299-2h-2c-1-1 0-1 1-1s2 0 1 1m-846 1l-1 1h-6c0-1 1-2 4-2l3 1m-327 0l-1 2-1-1 1-1h1m619 1v1l-1-1v-1l1 1m533 0l-1 1-1-1v-1l2 1m18 0l-1 1c-1 1-2 0-1-1 0-1 2-2 2 0m-336 1l-2 1c-2 0-2 0-1-1h3m283 1l-2 1v-1l2-2v2m41-1l-1 1-1-1v-1l2 1m-1143 0l-2 2-2 1 2-2 2-1m28 4l-1 1-1-1-1-1v-2l3 3m303-2l-1 1v-2c1-1 1-1 1 1m527-1v1l-1-1v-1l1 1m13 0l-1 1c-1 0-2 0-1-1l1-1 1 1m289 0l-2 1v-1h2m10 2l-1-2c-1-1-1-1 0 0l1 2m-1159-2l-1 2-1-1 1-1h1m315 1c1 1 0 1 0 0-2 0-2-1-1-1l1 1m234 0l-1 2-1-1 1-2 1 1m553 0h-1l-2-1h2l1 1m34 1c-1 1-1 1 0 0l1-2-1 2m-832 4c0 2-3-1-3-3-1-2-1-2 1 0l2 3m289-5l-2 1c0 1-1 1 0 0l2-1m236 1v1l-1-1v-1l1 1m290-1l-1 1h-2l2-1h1m-1124 2l-1 1c-1 0-2 0-1-1l1-1 1 1m1137 0h-1l-2-1h2l1 1m-867 3l-1-2c-1-1-1-1 0 0l1 2m296-2c2 1 1 2-2 1l-1-1h3m289 0l-1 1c-1-1-1 0-1 1h-1v-2h3m236 0h-2v-1l2 1m25 0l-1 1-1-1v-1l2 1m12 1l-1 1v-1l1-2v2m-308 1l-1 2h-1l-1-2c0-2 0-2 1-1l2 1m42 1c-1 1-2-1-1-2h1v2m244-2l-3 1 1-1h2m13 1c-2 3-3 4-3 2l3-4v2m35-2l-2 1v-1h2m-288 2l-1 2-1-1 1-2 1 1m247 0v1l-1-1v-1l1 1m-1136 0l-1 2-1-1 1-1h1m4 1l-3 2 2-3 1 1m24 1h-1l1-2v2m299 0v1l-2-1 1-2 1 2m278 1l-1 1-1-2c0-2 1-2 2 1m263-3l-1 2-1-1 1-1h1m-819 4l-2 1 1-2 2-2-1 3m1083-2h-2v-1l2 1m-557 1l-1 1v-1l1-1v1m-534 0l-1 2-1-1 1-1h1m15 1l-2 1v-1h2m1084 2h-1l-2-1h2l1 1m4-1v1c-1 1-2 0-1-1h1m-560 1h-2v-1l2 1m551 1l-1 1-1-1 1-1 1 1M206 1145c3 0 4 2 3 5l-1 1c-2 0-5 6-5 11l-2 6v6 8c0 11 0 12 3 14l1 1c-3 0-2 3 2 11 3 7 5 9 3 5l1-1v3c1 3 9 12 11 12s2 0 1 1v2l2-1c1-1 1-1 1 1-1 1 0 2 2 4l4 2 4 2c8 6 29 9 43 6 4 0 6-2 3-2l-1-1 2 1c2 1 6 0 5-1l1-1h3c2 0 2 0 1-1s-1-1 1-1c3 1 12-5 19-12l12-16 4-6 8 8 7 8-8 9a84 84 0 01-18 16l-22 17a234 234 0 01-75 32 153 153 0 01-78-10l-11-5-6-3-10-6c-7-3-23-14-31-21l-28-27-2-3 7-8 12-10 10-8a209 209 0 01100-48h22m302-1l-1 2-1-1 1-1h1m966 2a181 181 0 0144 15l8 3a327 327 0 0167 52l3 4-2 3-20 19-6 5-9 7-11 8-7 4-7 4a788 788 0 00-33 16c-7 3-10 4-27 7-18 3-54 1-63-3l-10-4-16-7-12-6-16-10-15-11c-2-1-6-3-8-6a15841 15841 0 00-27-27l7-7c7-8 8-8 11-2 0 2 1 3 2 3v1c0 2 5 8 6 7l1 1c-1 1 10 12 12 12l3 1c0 1 2 2 3 1l1 1c-1 1 9 6 13 6l4 1 4 1h11c10 0 13-1 13-3h6l6-3h1c1 0 9-4 8-5l1-1c2 2 16-12 14-13v-1c2 0 3-1 6-7 7-12 8-17 9-30 0-14-1-22-5-21v-1c2-1 2-5 0-5v-1l-2-4-2-4c0-2 23-2 34 0m-984 3a91 91 0 00-5 24l2 4v1c-2 0-2 1 0 7l2 8 1 2c0 4 0 5 1 4l1 1c-1 1 0 3 1 4 1 2 2 3 3 2v1c-1 2-1 2 1 5 1 2 3 3 4 2l1 1c-1 3 10 13 12 13 2-1 2 0 3 2l3 2h1c-1 1 4 3 8 3l2 1 6 3h30l4-2c6 0 19-8 26-15l8-9a84 84 0 0013-29l9 7 9 7 8 8 8 8 6 5-10 10a188 188 0 01-26 24l-9 7-7 4c-12 9-23 15-26 15l-10 4a122 122 0 01-60 12h-9l-19-3-6-2a72 72 0 01-29-11 160 160 0 01-48-30l-12-10-6-5-6-7c-8-6-8-8-4-11l7-6a95 95 0 0112-13l7-5 5-4a116 116 0 0121-15 179 179 0 0168-26l-1 2m8-2v1l-1-1v-1l1 1m31-1l-1 2-1-1 1-1h1m288 1l-1 1v-1l1-1v1m7-1l-4 4 1-2c1-2 3-3 3-2m10 0l-1 2-1-1 1-1h1m285 2l1 2-2-2-1-2 2 2m314-1l-2 1v-1h2m-263 1l10 3 11 4c9 3 18 7 23 11l8 4 6 3 9 6 7 5 7 5 19 17 14 14-3 2-4 5a374 374 0 01-65 49l-10 4c-6 4-16 8-21 9l-10 3c-4 1-23 3-35 3a125 125 0 01-52-11l-9-4-11-4c-3-1-11-6-18-12l-12-8c-3-1-8-6-12-10l-12-9-7-7-6-7-4-3 7-7a2226 2226 0 0023-21 273 273 0 0015-12l1 5 3 6v2c-3-2 3 12 8 19a60 60 0 0017 16l3 3 8 4 4 1 3 1 3 1h2c-2 2 22 3 24 1h3l2-1 3-1 2-1 1-2 1 1c-2 2 2 1 7-1 4-2 4-2 3-4-1-1-1-1 0 0 2 1 3 1 6-2l3-2-1-1h2c1 0 4-2 3-3l1-1c2 0 11-12 11-14-1 0-1-1 0 0 1 0 6-11 8-18 1-7 1-26-1-33l-3-7-1-2 6 1m-626 1l-2 1v-1h2m260 0l-1 1-2-1 1-1 2 1m325 1h-1l1-2v2m23 2c-1 1-2-1-1-3h1v3m7-3h-2v-1l2 1m-627 2l-2-1c-1-1-1-1 0 0l2 1m285 0l-2-1c-1-1-1-1 0 0l2 1m30-1l-1 1v-1l1-1v1m317 0l-1 1v-1l1-1v1m257 0h-2v-1l2 1m-1192 2l-1 1c-2 0-2-1-1-2l2 1m307-1l-1 1-1-1 1-1 1 1m255 1h-1c0-1 1-2 2-1l-1 1m356-2l-1 1h-2l2-1h1m294 3v1l-2-2v-1l2 2m-1230 1c-1 1-2-1-1-2h1v2m639-1h-1l1-2v2m307 1l-1 2-1-1 1-2c1-3 2-2 1 1m277-2l-2 2-3-1h1l2-1h2m-941 1l-1 1v-1l1-1v1m-246 1l-1 1-3-1h4m544 2l-3-1c-1-2-1-2 1-1l2 2m82-1h-1-2l-2-1 3-1 2 2m-620 0l-1 1-1-1v-1l2 1m242 1h-2v-1c2-1 2-1 2 1m303-2l-2 1c0 1-1 1 0 0l2-1m6 0l-1 2-1-1 1-1h1m362 1h-2v-1l2 1m255 3c0 3-1 3-1-1l1-2v3m-1210 2l-1-1-1-2h1l1 3m25-3c1 2 0 2-2 0l-1-1 3 1m552 0c1 2 1 2-1 2 0 1-1 1 0 0l-1-1-1-1h3m64 0v1l-1-1v-1l1 1m554 0l-1 1-1-1 1-1 1 1m-905 1l-1 1-1-1 1-1 1 1m264 5c-1 9 0 24 3 33 3 8 9 18 10 17l1 1c-1 1 2 5 4 5l1 1c0 2 9 9 10 8l1 1c0 1 1 2 3 2l5 3 6 2 3 1 2 1h1c0 3 22 3 32 1 8-3 13-5 12-6s-1-1 1-1c4 2 23-14 21-17l1-1c1 1 6-5 6-7h-1l-3 1c-1-1-1-1 2-2l4-3v-2c1 0 4-7 4-10l1-4 1-13v-12l4 2 5 3 4 3c7 3 13 7 22 14l13 9 15 15 12 11-6 6a320 320 0 00-17 18l-9 7-7 5-9 5a247 247 0 01-52 27 138 138 0 01-86 2 215 215 0 01-53-26l-8-4-4-4c-4-1-8-5-16-13-10-8-13-11-18-17l-5-6 7-7a196 196 0 0124-21 193 193 0 0135-25l3-2 8-3 8-3-1 5m120-5l-1 1-1-1v-1l2 1m242 0l-1 1-1-1v-1l2 1m313 1h2l-3 3-1-1-1-1c-1-1-1-2 1-2l2 1m-914 2l-1 1v-1l1-2v2m273 0v1l-1-1v-2l1 2m8-1h-2v-1l2 1m59 1l-1 1v-2c1-2 2-1 1 1m299 0c0 2-2 1-2 0-1-1 0-2 1-1l1 1m247-1c1 2-1 2-2 1v-2l2 1m-627 0l-1 2-1-1 1-1h1m296 1l-1 1-1-1 1-1 1 1m-857 2l-1 2v-3c0-2 1-1 1 1m275-1v1l-1-1v-1l1 1m19 2l-1 1-1-2c0-2 0-2 1-1l1 2m619-2l-2 1v-1h2m-610 4l-1 1v-3c2-3 2-2 1 2m261-3c0 2-2 4-4 5l1-2c2-2 2-2 1-3v-1l2 1m106 0l-1 1-1-1h2m179 0l-1 1-1-1 1-1 1 1m372 1l-2 1v-2c3-1 3-1 2 1m-941 0v1l-1-1v-1l1 1m364-1l-1 2-1-1 1-1h1m539 3l-1-1v-1l1 2m-272-1v1l-1-1 1-1v1m-617 3l-2-1c-1-1-1-1 0 0l2 1m69-2l-2 3-2 2 1-3 3-2m487 0l-1 2-1-1 1-1h1m66 1h-2l2-1v1m280 1h-1l1-2v2m-913 1v1c-2-1-3-3-1-3l1 2m4 0h-1c0-1 1-2 2-1l-1 1m372-1l-1 1-1-1v-1l2 1m286 0l-1 1-1-1v-1l2 1m-963 1h-3c-2 0-1-1 1-1l2 1m282 1h-1c0-1 1-2 2-1l-1 1m6-1v1l-1-1v-1l1 1m287 0l-2 1v-1l1-1 1 1m77 0l-1 1-1-1 1-1 1 1m32 0l-2 1v-1h2m243 0l-1 1v-1l1-1v1m-923 1v1l-1-1v-1l1 1m32 0l-2 1v-1h2m1173 0l-1 1-1-1v-1l2 1m-1184 0l-2 1v-1h2m574 2l-1 1-1-1 1-2 1 2m65 0l-2 1v-1-1l1-1 1 2m208 0l-1 1-1-2 1-1 1 2m-300 0l-1 1v-1l1-1v1m276 0v1l-1-1v-1l1 1m376 0l-1 2-1-1-1-1c-1-1 0-1 1-1l2 1m5 0l-1 2c-1 1-2-2-1-2h2m-909 1h-2v-1l2 1m259 1h-1l-2-1h2l1 1m353-1l-1 1-1-1 1-1 1 1m287 1h-1l1-2v2m-1216 0l-1 1-1-1v-1l2 1m1205 0h-2v-1l2 1m-920 4c-2 1-2-1-1-3h1v3m10-3l-1 1v-1l1-1v1m10 1l-1 1-1-2h1l1 1m4-1c1 1 0 1 0 0-2 0-2-1-1-1l1 1m4 0v1l-1-1v-1l1 1m254 0v1h-1c0-2 1-2 1-1m367 1h-1l1-2v2m-929 2h-2c-1 0 0-3 1-2l1 2m584 0v-1l1-1-1 2m-286 0h-1l-1-1 2 1m87-1l-1 1-1-1v-1l2 1m473 0l-1 1-1-1v-1l2 1m-468 1l-3 4v-5l3 1m201-1l-2 1v-1h2m75 1l-1 1h-2l2-1h1m256 0l-1 1h-2l2-1h1m32 1h-2v-1l2 1m-396 1l-2 1v-1l1-1 1 1m388-1l-2 1h-2l2-1h2m-867 3h-1l1-2v2m6-1l-1 1-1-1 1-1 1 1m218 1l-1 1-1-1 1-2 1 2m527-1l-1 1-1-1v-1l2 1m16 1v1l-1-2c0-2 1-1 1 1m16 0l1 1-3-1v-2l2 2m73 1v2l-1-2c-1-2 0-3 1-3v3m204-2l-2 2 2 1v1l-3-1-1-2 2-1 2-1v1m-1129 1v1l-1-1h1m284 1c1 1 1 1 0 0l-2-2 2 2m99-1l-1 1-1-1 1-1 1 1m838 1h-5v-1c1-1 4-1 5 1m-1228 0l-1 1-1-1v-1l2 1m279 0l-1 1-1-1 1-1 1 1m291 1h-1l-2-1c0-2 2-1 3 1m8-2l-1 2-1-1 1-1h1m79 1l-2 1v-1h2m179 2h-1l1-2h1l-1 2m304-2l1 4-1-1c-2-3-2-4-1-4l1 1m58 0l-1 1v-1l1-1v1m14 2l-1 2v-2l1-3v3m-848 0c1 2-1 3-3 1l-2-2 5 1m201-1h-2l-2-1h2l2 1m-263 2h-1c0-1 1-2 2-1l-1 1m64 1h-1c0-2 1-3 2-3l-1 3m9-2h-2c-1-1 0-1 1-1s2 0 1 1m183 0l1 1h2v1h-2c1 1 0 2-1 1l-1-1v-3l1 1m91 0l-1 1-1-1v-1l2 1m207 1l-1 1-1-2 1-1 1 2m68 0c0 2-1 3-2 2v-3c2-1 2-1 2 1m281 0l-1 1-1-2h1l1 1m-896 1h-1l1-2v2m330-1l-1 1-1-1v-1l2 1m38 0l-1 1v-1l1-1v1m-660 3l-1 2h-1c-2 0-1-3 1-4h2c1 1 0 2-1 2m76-1h-1c-3-2-4-2-2-2l3 2m302 1c1 1 0 2-1 2v-2l-1-1h-1v-1h1l2 2m259 0c0 2 0 2 1 1 2 0 2 0 1 1 0 2 0 2-4-1-3-2-3-2-1-2 1 1 2 0 2-1h1v2m-276-1l-1 1 1-2v1m200 0l-1 1-1-1v-1l2 1m259 0l-2 1v-1h2m12 1l-1 1c-2 0-2-1-1-2l2 1m-841 0l-1 1-2-1c-1-1 0-1 1-1l2 1m557 3l-1-1-1-2h1l1 3m263-3l-1 1-1-1v-1l2 1m399 0l-2 1v-1l1-1 1 1m-839 2c0 2-2 1-2 0l1-1 1 1m-302 0h-1c-2 0-3-1-1-1l2 1m207 3c-1 1-1 0-2-2 0-2 0-2 1 0l1 2m74-3v1l-1-1v-1l1 1m305 1v2l-1-2v-2l1 2m195-1v1l-1-1 1-1v1m330 0v1l-1-1v-1l1 1m33 0v1l-1-1v-1l1 1m-1229 4l-1-1-1-2h1l1 3m95-3l1 1h-2c-1-2-1-2 1-1m203 1l-3 2v-1l2-2 1-1v2m365-1v1l-1-1v-1l1 1m192 2v1c-2 1-5 0-5-3h1l4 2m-841-1v1h-1c0-2 1-2 1-1m8 1l-1 1h-2c-1 1-1 1 0 0 0-2 0-2-2-1l-1-1c1-1 6-1 6 1m544 0h2v1 2h-2c-2-2-3-3-2-1h-3c-1 0 4-4 6-4l-1 2m-571 2h-1c-1 0-2-1-1-2h1l1 2m322 0c1 1 1 1-1 1l-3-2c-1-2-1-2 1-1l3 2m49-2l-1 1-1-1v-1l2 1m281 0v1l-1-1v-1l1 1m11 1c1 1 1 1 0 0-2-1-2-2-1-2l1 2m7-1l-2 1c-2 1-2 1-1-1h3m556 0l-2 1 2-2v1m-1210 1l-2 1v-1l3-1-1 1m266 2l-1 4-1-1v-4c2-2 3-2 2 1m303-3l-2 1v-1h2m264 1l-2 1v-1l1-1 1 1m78 0l-1 1c-1 1-2 0-1-1 0-1 2-2 2 0m303 0v1l-1-1v-1l1 1m-1154 3c0 3-1 3-1-1l1-2v3m24-1h-1c-2-1-2 0-2 1 0 2 0 2-1 1-2-2-2-3 0-3 2-1 4 0 4 1m255-1l-2 3h-1c0-2 2-4 3-4v1m240 1l-1 1-1-2 1-1 1 2m82-1l-1 1v-1l1-1v1m446 1c1 1 1 1 0 0l-2-1c0-1 1-1 2 1m75-1l-1 1v-1l1-1v1m-906 1l-1 1v-1l1-1v1m15 0h-2v-1l2 1m296-1l-2 2c-1 1-1 1 0 0l2-2m42 1v1l-1-1v-1l1 1m226 1h-2l-1-1 3 1m6-2l-1 1h-2l2-1h1m251 3l-2 1 4-4-2 3m86 0l-2-1-2-2 2 1 2 2m-626 0h-1l1-2v2m42 1c-1 1-1 0-1-1s0-2 1-1v2m214-1l-1 1-2-1h1l1-1 1-1v2m94 2c0 2-2 3-2 0l-2-3h2c2 1 3 2 2 3m-917-2h-3v-1l3 1m85 1l-1 2v-2c2-2 2-2 1 0m253-1l-1 1v-1l1-1v1m4 1c0 2-2 3-2 1l3-3-1 2m278-1h-2v-1l2 1m17 0c1 1 1 1-1 1l-3-1h4m-309 1l-1 1v-1l1-1v1m224 2l-1 1c-1 0-2-1-1-2 0-2 0-2 1-1l1 2m78-1h-2c-3 0-2-2 0-1l2 1m15-1h-2v-1l2 1m5 0l-2 1v-1l1-1 1 1m250 1v1l-1-1v-2l1 2m10 1v1l-1-1-1-1h-1c0-2 3-1 3 1m258-2v1l-1-1v-1l1 1m29 0l-1 1-1-1 1-1 1 1m6 0l-2 3c-2 1-2 1-1-1l1-2 1-1 1 1m-1221 2l-2 1-2 1c-1 1-1 0-1-1l2-2h2l1 1m109 0c1 1 1 1 0 0l-2-1c0-1 1-1 2 1m225-1l-1 1v-1l1-1v1m224 0l-1 1-1-1v-1l2 1m308 0l-1 1-1-1 1-1 1 1m345 2l-1-2c-1-1-1-1 0 0l1 2m-902-2l-1 2-1-1 1-1h1m31 1h-2v-1l2 1m46 1c2 3 1 3-2 0l-1-2 3 2m212 0v3l-1-1-1-2-1-1c0-2 2-1 3 1m22 1c0 3 0 3-1 2v-4c2-2 2-1 1 2m266-1l-2-1c-1-1-1-1 0 0l2 1m34 0h-1l1-2v2m24-1c-1 3-2 4-2 2l2-3v1m205 1h-1l-2-1h2l1 1m-1143 3h1v-1l1-1 2 3v2l-1-1-1-1v1c1 2-1 1-4-2l-3-3 5 3m18-3v1l-1-1v-1l1 1m587 0h-2v-1l2 1m17 1h-1v-1c0-1 1-1 1 1m310-1l-1 1v-1l1-1v1m-560 2l-2-1c-1-1-1-1 0 0l2 1m497-1l-1 1v-1l1-1v1m348 2c0 2-2 1-2-1s0-2 1-1l1 2m-1181-2l-1 2-1-1 1-1h1m531 3l-3-2h2l1 2m16-2l-1 1-1-1v-1l2 1m278 3c-1 1-3-1-3-3h2l1 3m18-3h-1l-2-1h2l1 1m42-1l-5 5-1 1h-1-1l-1-1 2-1h2v-1l1-1 2-1 2-1m184 1l-2 1v-1l1-1 1 1m-543 1l-3 1 1-1h2m69 1c0 2-2 1-3-1h1l2 1m205 1c-2 2-3 1-2-1 0-1 1-2 2-1v2m38 0c0 2-2 1-2-1-1-2-1-2 1-1l1 2m257-2l-1 1-2-1 1-1 2 1m33 0c1 1 0 1 0 0-2 0-2-1-1-1l1 1m-1170 1l-1 1-1-1 1-1 1 1m14 0l-1 1v-1l1-1v1m47 2c1 2 0 3-2 0v-3l2 3m5-1l-1 2v-2c0-3 2-2 1 0m264 1c-2 1-3 1-2-1 0-2 1-2 2-1 2 1 2 2 0 2m789-2l-1 1-1-1v-1l2 1m47 0l-1 1-2-1c-1-1 0-1 1-1l2 1m36 0l-1 1-1-1v-1l2 1m-1177 1l-1 1v-1l1-1v1m267 0v1l-1-1v-1l1 1m46 0h-3v-1l3 1m22 0l-1 1v-1l1-1v1m504 1h-2l-2-1h2l2 1m346-1v1l-1-1v-1l1 1m-1171 1l-2 1-1-1 2-1 1 1m59 1v1l-2-1v-2l2 2m832 0c2 0 2 0 1 1-1 2-1 2 1 3l2 1 1 1h-3c-4-3-6-6-5-7h1c0 2 1 2 2 1m-646 0h-2v-1l2 1m360 0l-1 1-1-1v-1l2 1m291-1l-1 2-1-1 1-1h1m182 1l-1 1-1-1v-1l2 1m-1117 1l-1 1-1-1v-1l2 1m295 1l-2 1v-1c2-2 3-1 2 0m77 0c0 4 0 4-1 3v-1l-1-1v-1c2-3 3-2 2 0m240 0h-1l1-2v2m544-2l-1 2-1-1 1-1h1m-1139 3l-1 1-1-2h1l1 1m550-2l-1 2-1-1 1-1h1m281 3c-1 1-2-1-1-2h1v2m26-2l-1 1v-1l1-1v1m290-1l-1 2-1-1 1-1h1m-1151 2l-1 1-1-1 1-1 1 1m15 0v1l-1-1v-1l1 1m36 0l-1 1-1-1v-1l2 1m18-1l-1 1h-2l2-1h1m241 1l-1 1-2-1 2-1 1 1m275 2h-1c0-2 1-3 2-3l-1 3m42-2l-2 1v-1l1-1 1 1m542 2c-1 1-1 0-1-1s0-2 1-1v2m10-1l-2-1c-1-1-1-1 0 0l2 1m-1143 0h-2v-1l2 1m21-1l-1 2-1-1 1-1h1m230 1l-1 1-1-1 1-1 1 1m27 0l-2 1v-1h2m55-1l-1 2-1-1 1-1h1m269 1l-1 1-1-1 1-1 1 1m231 0h-2c-1-1-1-1 1-1l1 1m247 0l-1 2c-1 1-1 1 0 0l-1-2h-1 3m-1096 1h-2v-1l2 1m4 1l-1 1-1-2 1-1 1 2m3-1l-2 1 2-2v1m324 0l-1 1-1 1v1h-1v-1-2l1-1 2 1m230 3h-1l-2-3h2l1 3m48-2l-1 1h-3c-2 1-3 0 0-2 2-1 4-1 4 1m204-1l-1 1-1-1v-1l2 1m357 0l-1 1-1-1 1-1 1 1m-1200 2c1 3 0 3-1 2l-2-2h2c0-3 1-2 1 0m13 0h-1l1-2v2m45-1v1l-1-1v-1l1 1m506 0h-2v-1l2 1m12 1c0 1-4 2-4 0l1-1h2c2-1 2-1 1 1m38-1l-2 1c-2 0-2 0-1-1h3m237 1l-3 2h-1c0-2 2-4 4-3v1m75-1l-2 1v-1l1-1 1 1m209 0v3l-1-2c0-2 1-3 1-1m48 0l-1 1v-1l1-1v1m-1093 1l-2 1c-2 0-2 0-1-1h3m266 0c1 2-1 2-2 1v-2l2 1m777 1c0 2 0 2-1 1v-3l1 2m-1078 0l-1 1v-1l1-1v1m528-1l-1 2-1-1 1-1h1m580 1v1l-1-1v-1l1 1m-1130 1l-2 1v-1h2m38-1l-2 1c0 1-1 1 0 0l2-1m24 1l-2 1v-1h2m258 0l-1 1v-1l1-1v1m266 0l-2 1v-1l1-1 1 1m268 0l-1 1-3 1c-2 0-2 0-1-1 1-2 5-2 5-1m34 1c0 1-2 2-2 0l2-2v2m210-1l-1 1-1-1v-1l2 1m54 2c-2 0-2-1-1-2h1v2m12-2c-1 1 0 1 1 1 2 0 2 0 1 1-1 2-4 2-5 1h-1c-2-1-2-2 0-2l2-1 1-1 1 1m-1188 0l-2 2c-1 1-1 1 0 0l2-2m367 2c-1 1-1 1 0 0l1-2-1 2m196-1l-1 2c-2 1-2 1-1-1 0-2 2-3 2-1m23 2c-1 1-2-1-1-2h1v2m553-1v2l1 1-3-1c-1-3-1-4 1-4l1 2m-818 0l-2 1v-1h2m530-1l-2 1h-1l3-1m313 2h-1v-1h1v1m7 1l-3 1v-2c1-1 2-2 3-1v2m-1114-1h-2v-1l2 1m294 0v1l-1-1v-1l1 1m264 1c-1 1-1 1 0 0l1-2-1 2m12 1c0 1-2 0-2-2h1l1 2m273-1l-2-1c-1-1-1-1 0 0l2 1m221 0c1 2 1 2-1 0l-1-2 2 2m37 0l-1 1-1-1 1-2 1 2m23 0h-1l1-2v2m-1169 0v1l-1-1v-1l1 1m5 1c1 1 1 1 0 0l-2-2 2 2m9-1v1l-1-1v-1l1 1m583 0c0 2-2 2-2 0l1-1 1 1m249 0l-1 1v-1l1-1v1m8 0l-1 1c-1 1-2 0-2-1l2-1 1 1m-573 0l-1 2-1-1 1-1h1m352 1v1l-1-1v-1l1 1m-54 1l-2 1c-2 0-2 0 0-1l2-1v1m10 0l-2 1v-1h2m3 1l-2 1c-1 0-1-1 1-1 2-2 3-2 1 0m-581 1l-2-1h1l1 1m313-1v1h-1-2l-1-1h4m802-1l-1 2-1-1 1-1h1m-1060 3c1 1 1 1 0 0a161 161 0 00-2-2l2 2m226 0h-4c-1 1-1 1 0 0 1-2 4-2 4 0m585-1v1l-1-1v-1l1 1m17-1l-1 2-1-1 1-1h1m234 2l-1 1v-2c0-2 1-1 1 1m-1096 1h-2v-1l2 1m286 0l-3 2h-3l2-1 1-1 2-1 1 1m253-1l-1 2-1-1 1-1h1m22 1v1l-1-1v-1l1 1m8-1l-1 2-1-1 1-1h1m243 3c-2 2-3 2-1-1l2-1-1 2m-841-2l-1 2-1-1 1-1h1m867 1l-1 1v-1l1-1v1m246 2c1 1 1 1 0 0l-2-2v-1l2 3m40-1l-2-1c-1-1-1-1 0 0l2 1m-1143 0l-1 1c-1 0-2 0-1-1l1-1 1 1m38 0l-2 1v-1l3-1-1 1m550 1l-1 1-1-1 1-1 1 1m537 0h-4c-2-1-2-1 1-1s4 0 3 1m-1099 1l-1 3-2 2 1-3c1-1 1-2-1-2-1-1-1-1 1-1l2 1m820 1l-3 1 1-2c2-2 4-1 2 1m-852 0l-1 1-1-1v-1l2 1m35 0l-2 2v-1c3-2 3-3 2-1m528 0c1 2-1 2-2 1v-2l2 1m23 1c-2 2-2 2-1 0l2-2-1 2m-589 1l2 2-3-1-3-1-1-1c1-2 2-1 5 1m871-1v1h-1c0-2 1-2 1-1m275 1h-1l1-2v2m-562 0l-1 1-1-1 1-1 1 1m7 1h-2l1-1h2l-1 1m541 1v1l-1-1v-1l1 1m-1128 1v1l-1-1v-1l1 1m1161 0h-2v-1l2 1m-41 2l-1 1-1-1v-1l2 1m-1099 2l-2 1v-1h2"/></svg>