<svg xmlns="http://www.w3.org/2000/svg" baseProfile="tiny" version="1.2" viewBox="0 0 235 256"><defs/><path fill="#9BBACA" d="M0 0h235v256H0z"/><path fill="#005B86" fill-opacity=".501961" d="M19 86h177v119H19z"/><path fill="#FFF" fill-opacity=".501961" d="M0 204h234v51H0z"/><path fill="#D87678" fill-opacity=".501961" d="M19 58h108v78H19z"/><path fill="#F8F7F8" fill-opacity=".501961" d="M0 0h234v58H0z"/><path fill="#009FC3" fill-opacity=".501961" d="M84 122h112v82H84z"/><path fill="#FFF" fill-opacity=".501961" d="M198 53h36v150h-36z"/><path fill="#916672" fill-opacity=".501961" d="M70 58h126v33H70z"/><path fill="#FFF" fill-opacity=".501961" d="M0 40h17v163H0z"/><path fill="#005C9D" fill-opacity=".501961" d="M19 153h84v39H19z"/><path fill="#005890" fill-opacity=".501961" d="M117 99h79v50h-79z"/><path fill="#C49198" fill-opacity=".501961" d="M19 78h67v71H19z"/><path fill="#3E4246" fill-opacity=".501961" d="M14 15h92v7H14z"/><path fill="#FFF" fill-opacity=".501961" d="M0 234h234v21H0z"/><path fill="red" fill-opacity=".501961" d="M9 0h21v7H9z"/><path fill="#24D8E0" fill-opacity=".501961" d="M62 180h135v23H62z"/><path fill="#BE969E" fill-opacity=".501961" d="M70 61h66v52H70z"/><path fill="#005C97" fill-opacity=".501961" d="M68 139h76v27H68z"/><path fill="#636B70" fill-opacity=".501961" d="M8 31h101v6H8z"/><path fill="#005B93" fill-opacity=".501961" d="M164 84h32v31h-32z"/><path fill="#00699D" fill-opacity=".501961" d="M19 153h69v37H19z"/><path fill="#00CCD3" fill-opacity=".501961" d="M161 142h36v37h-36z"/><path fill="#D89094" fill-opacity=".501961" d="M19 136h30v17H19z"/><path fill="#E5F6FE" fill-opacity=".501961" d="M100 0h113v29H100z"/><path fill="#80B9D3" fill-opacity=".501961" d="M141 38h53v19h-53z"/><path fill="#A78792" fill-opacity=".501961" d="M25 58h77v73H25z"/><path fill="#005E95" fill-opacity=".501961" d="M98 125h76v20H98z"/><path fill="#FFF" fill-opacity=".501961" d="M69 242h165v13H69z"/><path fill-opacity=".501961" d="M102 58h94v1h-94z"/><path fill="#28DDEC" fill-opacity=".501961" d="M21 195h68v8H21z"/><path fill="#C38B90" fill-opacity=".501961" d="M115 86h32v18h-32z"/><path fill="#2DD1DA" fill-opacity=".501961" d="M120 162h42v23h-42z"/><path fill="#006A9F" fill-opacity=".501961" d="M58 147h65v24H58z"/><path fill="#94D8E0" fill-opacity=".501961" d="M144 179h48v6h-48z"/></svg>
