<svg xmlns="http://www.w3.org/2000/svg" baseProfile="tiny" version="1.2" viewBox="0 0 256 144"><defs/><path fill="#DAD1C2" d="M0 0h256v144H0z"/><path fill="#AF0000" fill-opacity=".501961" d="M125 45h23v58h-23z"/><path fill="#CD0000" fill-opacity=".501961" d="M125 44h22v55h-22z"/><path fill-opacity=".501961" d="M18 108h10v13H18z"/><path fill="#0A1013" fill-opacity=".501961" d="M77 24h12v14H77z"/><path fill-opacity=".501961" d="M60 87h7v14h-7z"/><path fill="none" stroke="#383D3C" stroke-opacity=".501961" d="M101 102q-16 10 7-32"/><path fill="none" stroke="#A8AB9F" stroke-opacity=".501961" d="M64 34q0 66-11 73"/><path fill="none" stroke="#4A4D49" stroke-opacity=".501961" d="M65 42q-24 6 36 17"/><path fill="none" stroke="#BFC4B6" stroke-opacity=".501961" d="M165 7Q52 107 125 130"/><path fill="none" stroke="#636761" stroke-opacity=".501961" d="M206 77q-109 6 20 0"/><path fill="none" stroke="#9EA296" stroke-opacity=".501961" d="M248 68q-127-35-67-2"/><path fill="none" stroke="#C3C6B7" stroke-opacity=".501961" d="M8 11Q145 69 19 1"/><path fill="none" stroke="#EDEEDB" stroke-opacity=".501961" d="M94 45q21-18-78 4"/><path fill="none" stroke="#BBBDB0" stroke-opacity=".501961" d="M99 57Q51 98 64 87"/><path fill="none" stroke="#079994" stroke-opacity=".501961" d="M126 99q-1-44-1-46"/><path fill="none" stroke="#93827B" stroke-opacity=".501961" d="M79 105q75-19 171-10"/><path fill="none" stroke="#7D7F76" stroke-opacity=".501961" d="M45 37q58 34 34 11"/><path fill="none" stroke="#D7DAC9" stroke-opacity=".501961" d="M6 128q156-54 62-24"/><path fill="none" stroke="#95998E" stroke-opacity=".501961" d="M66 3q80 80 30 31"/><path fill="none" stroke="#7B7F76" stroke-opacity=".501961" d="M117 56q-13-30-14 29"/><path fill="none" stroke="#424643" stroke-opacity=".501961" d="M101 56q7-21 6-4"/><path fill="none" stroke="#82847A" stroke-opacity=".501961" d="M217 86q-101-2-6 0"/><path fill="none" stroke="#8D9087" stroke-opacity=".501961" d="M59 116q7-16 46-10"/><path fill="none" stroke="#9D9F94" stroke-opacity=".501961" d="M29 43q130 25 45 49"/><path fill="none" stroke="#404541" stroke-opacity=".501961" d="M212 50q-10 7 15-12"/></svg>
