<svg xmlns="http://www.w3.org/2000/svg" viewBox="0 0 2048 1685">
  <defs/>
  <path fill-rule="evenodd" d="M1018 322.992c-5.225.439-14.45 1.101-20.5 1.47-6.05.37-13.445 1.092-16.434 1.605-2.988.513-7.051.933-9.027.933-1.977 0-4.569.683-5.762 1.518-1.192.835-2.529 1.437-2.972 1.336-1.205-.273-5.722 1.021-16.652 4.769-5.416 1.857-10.55 3.377-11.411 3.377-.86 0-8.579 3.414-17.153 7.587-8.574 4.173-17.614 8.552-20.089 9.73-2.475 1.178-6.975 4.459-10 7.289-3.025 2.831-7.3 6.062-9.5 7.179-4.164 2.115-8.014 5.78-10.974 10.447-.953 1.503-3.213 3.648-5.023 4.766-1.81 1.119-4.077 3.714-5.039 5.768-.963 2.054-3.823 6.434-6.357 9.734-2.534 3.3-5.169 7.012-5.857 8.25-.687 1.238-1.681 3.038-2.208 4-2.671 4.879-11.042 23.659-11.042 24.773 0 .704-2.025 6.022-4.501 11.817-2.475 5.795-5.14 13.602-5.921 17.348-1.577 7.564-3.57 27.296-3.474 34.396.035 2.521-.455 6.507-1.089 8.859-.664 2.466-.894 6.874-.545 10.416.333 3.378.753 11.558.933 18.179.237 8.735.781 12.917 1.983 15.242 1.582 3.06 1.566 3.281-.365 4.934-2.647 2.266-2.562 3.473.229 3.247 3.724-.302 4.901-.014 4.25 1.039-.34.55-.089 1 .558 1 .665 0 .958.83.675 1.914-.339 1.296.107 2.072 1.383 2.406 1.089.285 1.884 1.377 1.884 2.586 0 1.152.408 2.094.906 2.094.499 0 .69 1.013.426 2.25-.445 2.083-.374 2.12.95.506 1.318-1.608 1.436-1.53 1.506 1 .042 1.509.261 4.094.487 5.744.227 1.65.497 3.675.6 4.5.148 1.176.535 1.068 1.791-.5l1.603-2-.748 2c-1.538 4.114-1.726 5.5-.745 5.5.556 0 1.266-.667 1.579-1.483.929-2.421 3.645-.578 3.645 2.473 0 1.936.606 2.935 2 3.3 1.241.324 2 1.364 2 2.739 0 1.956.199 2.055 1.692.843.931-.754 1.404-.89 1.051-.3-.352.589.011 2.328.808 3.864S849 607.026 849 608c0 .974.652 3.028 1.449 4.564s1.223 3.157.948 3.603c-.276.445.229.53 1.122.188 1.378-.529 1.521-.086.952 2.946-.799 4.263 1.799 7.896 4.853 6.785 1.003-.365 1.791-.984 1.75-1.375-.041-.391-.028-1.048.027-1.461.056-.413.017-2.263-.086-4.112-.103-1.85.189-3.146.649-2.88.46.265 1.925-.861 3.256-2.502l2.42-2.983-3.237 1.674c-3.094 1.6-3.194 1.593-2.252-.136.542-.996 1.901-2.782 3.019-3.968 1.573-1.667 1.902-2.973 1.451-5.75-.529-3.261-.363-3.604 1.798-3.709 1.812-.088 1.946-.229.558-.587-1.003-.26-1.597-1.064-1.319-1.787.277-.723.222-1.596-.123-1.941-.97-.971-1.154-3.569-.252-3.569.444 0 .979-1.8 1.188-4 .273-2.86.001-4-.954-4-.734 0-1.038-.481-.675-1.068.363-.588 1.261-.838 1.995-.556 1.915.734 2.388-1.594.672-3.31-1.269-1.268-1.166-1.683.819-3.29 2.117-1.714 2.153-1.923.538-3.104-1.639-1.199-1.634-1.464.101-4.952 1.008-2.028 2.621-3.949 3.583-4.27.962-.322 1.75-1.169 1.75-1.883 0-.713.885-2.423 1.967-3.798 1.082-1.376 1.693-2.776 1.357-3.112-.336-.335.141-.898 1.058-1.25 1.295-.497 1.412-.95.521-2.024-.836-1.007-.843-1.383-.025-1.383.617 0 1.122-.869 1.122-1.932 0-1.062 1.391-2.922 3.091-4.133 2.323-1.654 2.98-2.784 2.643-4.547-.47-2.46 2.643-5.388 5.731-5.388.844 0 1.535-.477 1.535-1.059s-.45-.781-1-.441c-1.284.793-1.271-.125.035-2.566.815-1.522.708-1.934-.5-1.934-2.373 0-1.816-1.551 1.021-2.844 2.729-1.243 2.364-3.681-.407-2.722-1.216.421-1.139.177.292-.932 1.922-1.487 1.922-1.503 0-1.554-1.798-.049-1.776-.168.309-1.622 2.588-1.805 2.931-3.326.75-3.326-1.711 0-1.592-1.815.25-3.798 1.467-1.578 1.662-4.202.312-4.202-1.665 0-.683-4.132 1.225-5.154 1.699-.909 1.724-1.18.31-3.338-1.469-2.243-1.394-2.441 1.682-4.411 2.214-1.418 2.674-2.069 1.471-2.08-2.513-.024-2.156-1.462.75-3.017 2.847-1.524 3.279-3 .878-3-1.308 0-1.388-.283-.414-1.456.664-.801.947-1.879.628-2.395-.319-.517.092-1.197.914-1.513.822-.315 1.494-1.281 1.494-2.146 0-.866.914-2.554 2.031-3.753 1.117-1.199 1.896-2.868 1.731-3.708-.332-1.698 1.352-4.135 5.488-7.943 1.513-1.392 2.75-3.133 2.75-3.868 0-.735.403-1.087.895-.783.493.305 1.121-.034 1.396-.751.276-.718 2.296-1.843 4.49-2.5 2.639-.791 4.176-1.913 4.544-3.318.443-1.696 1.105-2.017 3.295-1.598 1.508.288 3.526.033 4.486-.566 1.276-.797 2.457-.766 4.391.115 2.496 1.137 2.605 1.078 1.93-1.048-.648-2.041-.554-2.119 1.005-.825 1.007.835 2 1.039 2.394.492.893-1.241 4.481-1.198 5.409.064.468.638.74.588.75-.138.009-.721 1.935-1.087 5.265-1 4.33.114 5.228-.154 5.125-1.526-.111-1.489.313-1.533 4.011-.42 4.173 1.256 6.614 1.106 6.614-.406 0-.452-1.013-.615-2.25-.362-1.284.264-.795-.21 1.137-1.102 2.652-1.225 3.698-1.305 4.826-.369 1.128.936 1.623.897 2.287-.177.7-1.133 1.121-1.144 2.424-.063 1.161.963 1.926 1.017 2.904.206.885-.735 2.38-.8 4.486-.196 1.737.498 4.803.752 6.814.565 2.011-.186 4.704.138 5.985.721 1.764.804 2.737.723 4.02-.336 1.313-1.084 1.787-1.117 2.113-.147.498 1.479 3.254 1.696 3.254.256 0-1.518 4.856-.177 11.236 3.102.955.49 2.305.876 3 .857 1.871-.053-3.439-2.888-5.486-2.93-.962-.019-1.75-.423-1.75-.896 0-1.062 5.042-.233 6.737 1.107.681.538 1.918.717 2.75.397.832-.319 1.513-.197 1.513.272 0 .468.901 1.087 2.001 1.375 1.101.288 1.75.115 1.441-.383-.927-1.501.874-1.016 4.058 1.093 3.718 2.462 6.479 2.568 6.563.25.045-1.234.355-1.02 1.052.726.748 1.875 1.191 2.147 1.825 1.122.468-.758 1.376-1.021 2.06-.598.685.423 1.623.15 2.131-.622.74-1.124 1.18-1.021 2.388.563 1.292 1.694 1.481 1.726 1.481.25 0-.93.477-1.691 1.059-1.691s.837.359.566.798c-.271.439-.08 1.451.426 2.25.672 1.063.922.61.934-1.691.016-3.376 2.037-4.935 3.935-3.037.884.884 1.389.806 2.106-.328.519-.821.95-1.099.959-.62.008.48.578.406 1.265-.165.688-.57 1.588-1.075 2-1.122.412-.047 1.088-.14 1.5-.206 2.796-.453 10.249-.263 10.249.262.001.352 1.576.824 3.501 1.049 1.925.225 3.5.049 3.5-.391 0-.439.886-.799 1.969-.799 1.402 0 1.79.465 1.348 1.616-.524 1.365-.295 1.443 1.466.5 2.417-1.293 3.532-1.436 2.872-.366-.255.413 2.081.823 5.191.911 3.11.089 6.104.297 6.654.463.55.165 2.081-.297 3.402-1.028 2.14-1.184 2.331-1.146 1.756.353-.51 1.33-.228 1.549 1.348 1.049 1.177-.373 1.994-.177 1.994.48 0 .73 1.204.887 3.5.456 2.065-.387 3.5-.255 3.5.323 0 1.101 7.911 2.416 9.315 1.549.497-.308 2.64-.644 4.763-.747 2.82-.136 3.6.124 2.899.969-1.462 1.761.057 2.58 1.713.924 1.956-1.956 3.396-1.839 2.609.212-.424 1.105-.253 1.426.51.954.632-.391 2.07-.218 3.194.384 1.591.851 2.388.75 3.592-.454 1.654-1.654 3.893-2.146 2.97-.653-.305.493.156 1.168 1.023 1.5 2.5.96 6.233.704 6.962-.476.368-.595 1.744-.811 3.059-.481 1.461.367 2.391.162 2.391-.526 0-.619.62-.888 1.378-.597.758.291 1.974.001 2.702-.643 1.097-.971 1.098-.874.008.567-.723.956-1.683 1.512-2.132 1.234-.45-.278-1.1-.048-1.446.511-.345.559-1.389 1.023-2.319 1.031-.93.009-2.362.44-3.183.959-1.214.767-1.252 1.182-.208 2.226s1.443 1.025 2.141-.104c.496-.803 1.57-1.114 2.548-.738.93.356 2.213.323 2.851-.076 1.915-1.196 4.66-1.34 4.66-.244 0 .563-.675 1.284-1.5 1.6-.825.317-1.5.955-1.5 1.418 0 .463 1.463.25 3.25-.474 3.098-1.254 10.608-3.093 8-1.959-2.568 1.117-1.218 2.621 1.808 2.015 2.706-.541 2.887-.44 1.571.875-1.775 1.776-5.304 1.963-5.855.31-.443-1.331-2.774-.243-2.774 1.295 0 .55.45.722 1 .382.55-.34 1 .254 1 1.319s.904 2.554 2.008 3.309c1.105.755 2.099 2.559 2.209 4.01.13 1.707.661 2.462 1.503 2.139.902-.346 1.093.047.621 1.276-.388 1.012-.278 1.526.255 1.196.515-.318 1.432.471 2.037 1.754.885 1.874.833 2.229-.266 1.808-1.51-.58-1.903 1.24-.461 2.131.498.308.672 1.455.386 2.549-.348 1.329.098 2.241 1.344 2.749 1.999.815 3.022 3.26 1.364 3.26-.55 0-1-.525-1-1.167 0-.641-.32-.846-.711-.455-.391.391.622 1.839 2.25 3.219 2.211 1.874 2.391 2.233.711 1.421-3.613-1.747-2.637.579 1.25 2.982 3.694 2.283 4.859 3.798 1.566 2.035-1.064-.569-2.189-1.035-2.5-1.035-1.122 0-.535 2.781.825 3.91.765.635 1.63 2.377 1.921 3.872.886 4.545 1.212 5.666 2.025 6.968.504.807.207 1.25-.84 1.25-1.13 0-.644.892 1.61 2.95 2.522 2.304 2.78 2.833 1.175 2.413-1.131-.295-2.359-.048-2.728.55-.374.605.019 1.087.887 1.087.857 0 1.559.436 1.559.969 0 .532-.581.745-1.292.473-2.504-.961-1.384 4.935 1.292 6.801l2.5 1.744-2.317.006c-1.863.006-2.193.4-1.682 2.011.35 1.102.746 3.034.88 4.292.134 1.259.58 2.832.991 3.496.41.665.468 1.658.128 2.208-.34.55-.093 1 .548 1s.907.675.59 1.5c-.316.825-.187 1.5.286 1.5.474 0 1.125.685 1.447 1.523.485 1.265.229 1.333-1.509.403-1.151-.616-1.914-.739-1.696-.273 1.995 4.247 3.319 7.408 4.334 10.347.975 2.821 1.856 4.976 3.068 7.5.792 1.65 2.303 6.825 3.358 11.5 1.054 4.675 2.449 10.3 3.099 12.5.65 2.2 1.617 7.15 2.147 11 .531 3.85 1.87 8.727 2.976 10.837 1.107 2.11 1.751 4.098 1.432 4.416-.319.319-.58 0-.58-.709 0-1.032-.299-1.041-1.5-.044-.825.685-1.468 1.977-1.43 2.872.055 1.272.236 1.205.828-.306 1.216-3.107 2.147-.209 1.102 3.434-.518 1.807-.704 3.671-.412 4.142.292.472.129.858-.361.858-1.222 0-.528 10.099.784 11.411.742.742 1.067.168 1.093-1.927.126-10.137.447-12.486 1.646-12.026.688.263 1.25.043 1.25-.489 0-.533-.45-.969-1-.969s-1-.436-1-.969c0-.532.637-.724 1.415-.425 1.121.43 1.327-.353.993-3.782-.231-2.378-.155-3.759.171-3.068.925 1.963 2.421.408 2.421-2.515 0-2.054.267-2.374 1.2-1.441 1.485 1.485 3.157 1.586 2.261.137-.361-.585.132-1.935 1.096-3 .964-1.065 1.403-1.937.976-1.937-.428 0-.22-.673.463-1.495.682-.822 1.004-2.397.715-3.501-.327-1.252-.129-1.762.528-1.356.685.423.835-.219.428-1.837-.379-1.51-.055-3.239.823-4.399 1.151-1.521 1.487-1.606 1.646-.412.11.825.462-1.2.782-4.5.502-5.174.842-5.955 2.472-5.674 1.617.279 1.801-.119 1.275-2.75-.338-1.692-.289-3.076.11-3.076.399 0 .766-1.913.817-4.25.051-2.338.796-5.609 1.657-7.27 2.299-4.437 4.792-23.663 4.342-33.48-1.091-23.801-6.031-53.051-9.384-55.564-.855-.641-1.545-3.329-1.736-6.76-.328-5.9-1.883-11.591-6.178-22.618-3.283-8.426-6.201-12.934-12.417-19.183-4.028-4.049-5.308-4.838-6.083-3.752-.764 1.072-.86.996-.431-.342 1.049-3.272-3.718-9.807-8.189-11.226-2.024-.643-2.174-.36-2.188 4.128-.009 2.649-.448 5.492-.977 6.317-.637.994-.752-.768-.342-5.225.575-6.252.45-6.863-1.774-8.707-1.465-1.215-3.167-1.758-4.392-1.401-2.832.824-3.147 1.315-1.497 2.335.922.57 1.719.46 2.205-.305.516-.81.766-.632.777.553.008.962.465 1.75 1.015 1.75.55 0 1 .54 1 1.2 0 .933-.267.933-1.2 0-2.284-2.284-2.747-1.17-2.307 5.55.296 4.506.127 6.251-.51 5.25-.727-1.145-.96-.79-.983 1.5-.057 5.573-1.571 5.484-1.805-.106-.162-3.862.105-5.327.883-4.846.707.437.966.007.709-1.18-.223-1.027-.899-1.77-1.502-1.65-.602.12-1.347-.437-1.654-1.238-.308-.801-.238-1.349.155-1.218 1.093.364 1.083-1.49-.024-4.262-.549-1.375-1.343-3.85-1.765-5.5-.421-1.65-1.065-3.9-1.43-5-.634-1.914-.607-1.919.635-.131.714 1.027 2.03 2.808 2.925 3.957 1.576 2.023 1.624 1.96 1.52-1.995-.091-3.504-.288-3.853-1.383-2.458-1.067 1.361-1.112 1.168-.273-1.18.664-1.858.666-2.599.006-2.191-.548.339-.997.23-.997-.243 0-.472-2.03-3.649-4.511-7.059-4.526-6.219-5.063-8.604-.778-3.45 1.742 2.095 2.132 2.274 1.636.75-.358-1.1-1.327-2.788-2.154-3.75-.827-.962-1.13-1.75-.674-1.75.456 0-.093-1.012-1.221-2.25-1.128-1.238-3.231-4.153-4.674-6.479-1.594-2.571-4.266-5.068-6.811-6.366-4.275-2.181-7.654-4.905-6.084-4.905.479 0 1.298.408 1.821.906 1.756 1.674 8.496 5.094 10.039 5.094.94 0 1.252.481.81 1.25-.396.688-.351.916.099.509.45-.408 1.534-.246 2.41.36.876.606-.883-1.234-3.908-4.09-3.025-2.855-7.033-5.866-8.906-6.689-1.874-.824-5.693-3.037-8.487-4.919-2.794-1.881-5.874-3.421-6.844-3.421-.969 0-1.763-.434-1.763-.965 0-1.348-3.89-3.284-7.422-3.696-1.63-.19-3.214-.716-3.521-1.169-.754-1.115-9.444-3.858-17.774-5.61-3.756-.791-8.032-1.894-9.503-2.453-1.47-.559-9.784-2.39-18.476-4.069-8.692-1.678-18.279-3.565-21.304-4.192-5.11-1.059-9.325-1.377-30.5-2.302-4.4-.192-12.275.009-17.5.448m38.386 8.031c3.913.994 8.127 2.123 9.364 2.509 1.44.449 2.25.285 2.25-.454 0-.636.906-.312 2.013.72 1.216 1.132 3.676 1.94 6.211 2.04 2.55.1 4.527.752 5.037 1.663.461.824 1.855 1.499 3.098 1.499 2.089 0 7.226 2.897 5.262 2.968-.483.018-4.308-1.072-8.5-2.422-4.191-1.349-10.096-3.125-13.121-3.945-14.066-3.816-23-6.806-23-7.696 0-.581.864-.513 2.136.168 1.175.629 5.338 1.956 9.25 2.95m-12.736.323c4.867 1.84 12.433 4.621 16.813 6.179 4.379 1.558 7.459 3.001 6.843 3.206-.616.206-2.845-.347-4.954-1.229-2.109-.881-5.675-2.014-7.923-2.518-2.249-.504-4.914-1.233-5.923-1.62-1.267-.486-1.611-.342-1.111.466.398.644.359 1.16-.086 1.148-1.234-.034-5.953-3.928-4.809-3.969.55-.019-1.25-1.118-4-2.443-7.071-3.406-5.155-3.116 5.15.78m39.85-1.261c3.585 1.413-3.553.909-8-.564l-4-1.325 5 .551c2.75.303 5.9.905 7 1.338m-56.326 3.25c.45.693 1.173.622 2.183-.216 1.224-1.016 1.994-.935 4.076.429 3.259 2.135 3.288 3.312.067 2.697-1.375-.263-2.5-.862-2.5-1.33 0-.469-.675-.593-1.5-.277-.825.317-1.5.902-1.5 1.301 0 .91 7.074 3.133 8.05 2.53 1.102-.681 7.015 1.618 6.462 2.512-.268.433.858 1.344 2.501 2.024 1.643.681 2.987 1.671 2.987 2.2 0 .529-.338.797-.75.596-5.278-2.572-12.024-5.333-16.57-6.784-2.101-.67-4.081-1.961-4.399-2.868-.318-.907-1.524-2.723-2.68-4.035l-2.101-2.385 2.5 1.285c1.375.707 2.803 1.752 3.174 2.321m76.108 1.002c1.77.736 6.485 2.135 10.477 3.11 3.992.975 7.518 2.191 7.834 2.703.682 1.104-3.332.299-9.313-1.869-2.321-.842-5.134-1.291-6.25-.999-1.117.292-2.03.149-2.03-.317 0-.467-2.138-1.503-4.75-2.303-3.874-1.186-4.237-1.473-1.968-1.558 1.53-.057 4.23.498 6 1.233M1039.5 336c.34.55.141 1-.441 1s-1.059-.45-1.059-1 .198-1 .441-1 .719.45 1.059 1m-29.168 5.11c3.943 1.711 7.618 3.552 8.168 4.093.55.54-.8.228-3-.694-2.2-.922-6.25-2.576-9-3.676-5.446-2.179-6.505-2.833-4.584-2.833.687 0 4.474 1.4 8.416 3.11m44.418 1.863c2.338 1.061 4.25 2.155 4.25 2.43 0 .459-6.673-1.557-11.5-3.473-1.806-.718-1.758-.799.5-.84 1.375-.026 4.412.822 6.75 1.883m73.641-.973c.675 0 2.1.666 3.168 1.48 1.643 1.253 1.212 1.239-2.809-.094-2.612-.866-4.75-1.805-4.75-2.087 0-.282.712-.24 1.582.094.87.334 2.134.607 2.809.607m-137.138 2.135c2.577 1.38 6.42 4.865 5.364 4.865-.95 0-9.617-5.042-9.617-5.595 0-.769 2.138-.402 4.253.73M1097.5 344c1.319.567 1.489.878.5.914-.825.031-2.175-.381-3-.914-1.828-1.181-.249-1.181 2.5 0m39 1c.34.55.141 1-.441 1s-1.059-.45-1.059-1 .198-1 .441-1 .719.45 1.059 1m-142.511 6.697c.732.79-3.93-.661-7.662-2.385-1.745-.807-3.403-2.067-3.685-2.802-.44-1.147 9.828 3.546 11.347 5.187m62.424-3.192c2.591 1.377 4.472 2.117 4.179 1.644-.99-1.601 4.683.126 6.552 1.995 2.244 2.244 1.693 2.34-2.115.371-2.041-1.055-2.983-1.154-3.253-.342-.377 1.131-9.14-3.336-10.335-5.268-.835-1.352-.187-1.143 4.972 1.6m88.899-.045c2.853 1.353 6.763 3.82 8.688 5.481 3.134 2.704 2.534 2.525-5.734-1.71-5.078-2.602-9.241-5.068-9.25-5.481-.025-1.143.685-.951 6.296 1.71m-140.695 3.161c2.46 1.442 4.267 2.829 4.014 3.082-.562.561-4.293-1.351-7.516-3.852-3.425-2.659-1.702-2.28 3.502.77m46.865 1.314c4.685 2.165 8.518 4.166 8.518 4.448 0 .578-16.647-6.697-17.673-7.722-1.348-1.348.852-.561 9.155 3.274m-25.956-1.128c-.307.308-1.114.001-1.793-.683-.98-.988-.865-1.102.56-.56.986.376 1.541.935 1.233 1.243m9.967-.818c.35.566-.051.734-.941.393-1.732-.665-2.049-1.382-.611-1.382.518 0 1.216.445 1.552.989m84.913 1.384c2.125.824 3.009.828 3.287.016.256-.746 2.319-.409 6.289 1.029 8.095 2.931 8.641 3.89.876 1.537-3.523-1.067-6.499-1.509-6.675-.991-.192.569-1.369.535-3-.084-1.475-.562-2.785-1.028-2.91-1.038-1.886-.144-4.273-1.298-4.273-2.066 0-.554.77-.669 1.75-.26.963.402 3.058 1.237 4.656 1.857m-11.698.595c2.314.597 4.478 1.524 4.809 2.059.882 1.428-.388 1.211-6.517-1.116-5.54-2.103-8.21-3.642-4.5-2.595 1.1.311 3.894 1.054 6.208 1.652m-79.182.839c-.307.308-1.114.001-1.793-.683-.98-.988-.865-1.102.56-.56.986.376 1.541.935 1.233 1.243m11.033-.252c1.83 1.467 1.798 1.487-.559.365-3.061-1.458-3.628-1.92-2.358-1.92.537 0 1.849.7 2.917 1.555m45.972.543c3.084 1.153 5.437 2.268 5.228 2.476-.374.374-10.872-3.368-11.676-4.162-.847-.838.984-.359 6.448 1.686M1138 353c1.333.862 1.333.969 0 .969-.825 0-2.175-.436-3-.969-1.333-.862-1.333-.969 0-.969.825 0 2.175.436 3 .969m-134.273 3c3.285 2.584 1.674 2.584-2.227 0-1.65-1.093-2.396-1.99-1.658-1.993.739-.004 2.487.893 3.885 1.993m70.273-1c1.828 1.181.249 1.181-2.5 0-1.319-.567-1.489-.878-.5-.914.825-.031 2.175.381 3 .914m-55.719 2.961c.43.386-.588.501-2.262.255s-3.301-.863-3.615-1.371c-.633-1.024 4.603-.03 5.877 1.116m88.219.97c7.304 2.319 13.477 4.977 11.684 5.03-.723.021-2.218-.444-3.321-1.034-1.103-.591-4.561-1.739-7.684-2.552-3.124-.813-6.107-1.905-6.629-2.427-1.27-1.268-.995-1.222 5.95.983m39.083 1.675c2.155 1.984 2.792 2.873 1.417 1.977-7.799-5.083-8.411-5.576-6.917-5.579.871-.002 3.346 1.619 5.5 3.602m-123.564 4.181c-1.085.42-11.308-3.538-13.579-5.256-1.067-.808 1.719-.02 6.191 1.75 4.472 1.771 7.797 3.348 7.388 3.506m69.191-2.659c2.041 1.03 4.374 1.872 5.185 1.872 1.982 0 6.995 1.943 6.442 2.496-.937.937-19.837-5.806-19.837-7.077 0-.77 3.796.482 8.21 2.709m68.793 12.375c1.575 1.898.17 1.958-1.924.083-.869-.778-6.529-3.902-12.579-6.944-6.05-3.041-11.9-6.226-13-7.076-1.1-.851 4.359 1.6 12.13 5.447 7.772 3.847 14.69 7.667 15.373 8.49m-8.561-14.596c.309.498-.34.671-1.441.383-2.335-.611-2.63-1.29-.56-1.29.793 0 1.693.408 2.001.907m-92.48 5.238c1.214.794 1.117.863-.462.325-8.203-2.795-10.569-3.773-11.065-4.575-.599-.97 8.906 2.534 11.527 4.25m40.728-2.501c-.495.495-5.69-1.392-5.69-2.067 0-.26 1.373.006 3.051.591 1.678.585 2.866 1.249 2.639 1.476M993 363.5c1.445.826 1.867 1.429 1 1.429-.825 0-2.625-.643-4-1.429-1.445-.826-1.867-1.429-1-1.429.825 0 2.625.643 4 1.429m119.021.125c2.234.894 3.884 1.803 3.666 2.021-.217.218-2.374-.482-4.791-1.554-5.354-2.376-4.515-2.723 1.125-.467m-141.495 1.182c-.307.308-1.114.001-1.793-.683-.98-.988-.865-1.102.56-.56.986.376 1.541.935 1.233 1.243m119.474.362c1.042.644.737.723-1 .258-1.375-.368-3.175-1.086-4-1.596-1.042-.644-.737-.723 1-.258 1.375.368 3.175 1.086 4 1.596m44.526-.362c-.307.308-1.114.001-1.793-.683-.98-.988-.865-1.102.56-.56.986.376 1.541.935 1.233 1.243m-98.797-.203c-.332.332-1.195.368-1.916.079-.798-.319-.561-.556.604-.604 1.054-.043 1.644.193 1.312.525m30.271.896c1.375.786 2.05 1.429 1.5 1.429-.55 0-2.125-.643-3.5-1.429s-2.05-1.429-1.5-1.429c.55 0 2.125.643 3.5 1.429m57-.5c.825.533 1.05.969.5.969s-1.675-.436-2.5-.969c-.825-.533-1.05-.969-.5-.969s1.675.436 2.5.969m-80.083 1.641c1.003.865-3.567.227-4.917-.687-1.095-.741-.691-.834 1.5-.344 1.65.369 3.188.833 3.417 1.031m-43.424.348c.35.566-.051.734-.941.393-1.732-.665-2.049-1.382-.611-1.382.518 0 1.216.445 1.552.989m120.236-.385c-.332.332-1.195.368-1.916.079-.798-.319-.561-.556.604-.604 1.054-.043 1.644.193 1.312.525m19.764.385c.35.566-.051.734-.941.393-1.732-.665-2.049-1.382-.611-1.382.518 0 1.216.445 1.552.989m-30.967 1.818c-.307.308-1.114.001-1.793-.683-.98-.988-.865-1.102.56-.56.986.376 1.541.935 1.233 1.243M990.5 369c1.319.567 1.489.878.5.914-.825.031-2.175-.381-3-.914-1.828-1.181-.249-1.181 2.5 0m183.083-.134c-.431.697-.513 1.537-.183 1.867.895.895 1.871-.421 1.387-1.871-.338-1.016-.574-1.016-1.204.004M1105.5 370c1.261.542 1.445.859.5.859-.825 0-2.4-.386-3.5-.859-1.261-.542-1.445-.859-.5-.859.825 0 2.4.386 3.5.859m9.561.641c2.619 1.048 3.662 1.912 2.888 2.391-.834.515-.55.96.91 1.423 1.168.371 2.555.407 3.083.081 1.057-.653 9.733 3.129 10.675 4.654.326.526-1.237.024-3.473-1.116-5.162-2.634-6.339-2.595-3.144.104 2.848 2.406 3.025 2.469-7-2.485-4.421-2.184-6.268-3.472-4.5-3.136 2.684.51 2.579.361-1-1.413-4.913-2.435-4.001-2.729 1.561-.503M882 370.406c0 .957-10.255 7.672-10.833 7.094-.74-.74 3.007-3.78 7.333-5.95 3.327-1.669 3.5-1.725 3.5-1.144m128.729.198c-.332.332-1.195.368-1.916.079-.798-.319-.561-.556.604-.604 1.054-.043 1.644.193 1.312.525m-37.494 4.562c4.821 2.291 8.613 4.32 8.425 4.507-.187.188-4.575-1.665-9.75-4.117-5.176-2.452-8.967-4.48-8.426-4.507.541-.027 4.929 1.826 9.751 4.117m43.494-3.562c-.332.332-1.195.368-1.916.079-.798-.319-.561-.556.604-.604 1.054-.043 1.644.193 1.312.525m61.797 1.203c-.307.308-1.114.001-1.793-.683-.98-.988-.865-1.102.56-.56.986.376 1.541.935 1.233 1.243m59.962 4.174c1.228 1.986-.225 1.231-9.114-4.74-1.031-.692.457-.138 3.305 1.231 2.849 1.37 5.463 2.949 5.809 3.509m32.766-3.225c.236-.7 1.142.128 2.045 1.867 1.53 2.948 1.388 4.377-.434 4.377-.441 0-.543-.675-.227-1.5.317-.825.108-1.5-.463-1.5-.571 0-2.008-1.462-3.194-3.25-1.87-2.821-1.89-2.952-.153-.994 1.351 1.522 2.139 1.847 2.426 1M1152 375.57c0 .275-.9.019-2-.57s-2-1.295-2-1.57c0-.275.9-.019 2 .57s2 1.295 2 1.57m28.071-2.07c0 .55.643 2.125 1.429 3.5s1.429 2.05 1.429 1.5c0-.55-.643-2.125-1.429-3.5s-1.429-2.05-1.429-1.5m-71.512 2.055c1.83 1.467 1.798 1.487-.559.365-3.061-1.458-3.628-1.92-2.358-1.92.537 0 1.849.7 2.917 1.555m-108.066.434c.35.566-.051.734-.941.393-1.732-.665-2.049-1.382-.611-1.382.518 0 1.216.445 1.552.989m8.757 1.663c1.513.77 2.75 1.619 2.75 1.887 0 .57-6.179-1.927-8.741-3.532-1.472-.923-1.352-.993.741-.428 1.375.371 3.737 1.304 5.25 2.073M1091 376.5c1.375.786 2.05 1.429 1.5 1.429-.55 0-2.125-.643-3.5-1.429s-2.05-1.429-1.5-1.429c.55 0 2.125.643 3.5 1.429m22.493 1.489c.35.566-.051.734-.941.393-1.732-.665-2.049-1.382-.611-1.382.518 0 1.216.445 1.552.989m-62.591 1.127c4.794 1.671 3.193 2.007-1.942.407-2.453-.764-3.74-1.419-2.859-1.456.88-.037 3.041.435 4.801 1.049M958.5 381c.34.55.168 1-.382 1s-1.278-.45-1.618-1c-.34-.55-.168-1 .382-1s1.278.45 1.618 1m212.5 2.5c1.866 1.925 2.907 3.5 2.315 3.5-.593 0-2.279-1.575-3.747-3.5s-2.51-3.5-2.315-3.5c.195 0 1.881 1.575 3.747 3.5m-9.872-.75c1.269 1.619 1.222 1.64-.628.283-1.1-.807-2.187-1.594-2.417-1.75-.229-.156.054-.283.628-.283s1.662.788 2.417 1.75m22.436-.457c.376.986.935 1.541 1.243 1.233.308-.307.001-1.114-.683-1.793-.988-.98-1.102-.865-.56.56m-219.835 2.312c-.7.699-3.729-.719-3.729-1.747 0-.511.938-.426 2.086.188 1.147.614 1.886 1.315 1.643 1.559M1176 384c0 .55-.198 1-.441 1s-.719-.45-1.059-1c-.34-.55-.141-1 .441-1s1.059.45 1.059 1m-36.884 5.216c1.737 3.247-1.609.916-3.586-2.497l-1.863-3.219 2.259 1.989c1.243 1.094 2.678 2.771 3.19 3.727m.012-3.466c1.243 1.586 1.208 1.621-.378.378-.963-.755-1.75-1.543-1.75-1.75 0-.823.821-.294 2.128 1.372m11.678 3.777c-.323.324-1.604-.9-2.847-2.719l-2.259-3.308 2.847 2.72c1.566 1.496 2.582 2.984 2.259 3.307m32.865-3.111c-.71 1.85.146 4.584 1.436 4.584 1.126 0 1.136-3.068.017-4.834-.681-1.074-.964-1.025-1.453.25m-5.671 2.143c0 1.473-1.191 1.916-2.264.843-.902-.901.339-3.473 1.369-2.837.492.304.895 1.201.895 1.994m-248.474.248c-.307.308-1.114.001-1.793-.683-.98-.988-.865-1.102.56-.56.986.376 1.541.935 1.233 1.243m239.249 2.2c2.726 4.061 5.046 5.418 3.177 1.859l-1.243-2.366 2.221 1.973c1.221 1.085 2.959 3.223 3.861 4.75.902 1.527 2.218 2.777 2.925 2.777.76 0 1.284 1.224 1.284 3 0 1.65.341 3 .757 3 .417 0 .594 2.053.395 4.561-.47 5.903-1.344 4.92-2.219-2.495-.382-3.242-1.199-6.496-1.814-7.231-.616-.734-2.057-2.46-3.203-3.835-1.583-1.9-1.938-2.046-1.477-.609.54 1.685.413 1.739-1.162.5-3.416-2.687-4.277-3.762-4.277-5.344 0-.878-1.125-2.024-2.5-2.547-2.841-1.08-3.374-2.315-.785-1.816.943.181 2.77 1.902 4.06 3.823m-99.412 1.302c4.262 5.267 2.887 5.156-1.863-.15-2.2-2.457-3.351-4.257-2.559-3.999.793.257 2.783 2.124 4.422 4.149m89.637-2.191c0 .55-.45.722-1 .382-.55-.34-1-1.068-1-1.618s.45-.722 1-.382c.55.34 1 1.068 1 1.618m-2.229 2.444c-.335.335-1.148-.442-1.807-1.726-1.145-2.233-1.118-2.26.61-.61.994.95 1.533 2.001 1.197 2.336m-26.342.009c1.729 1.73 2.158 3.91.576 2.932-1.119-.691-3.33-4.503-2.612-4.503.255 0 1.171.707 2.036 1.571m13.627.679c1.033 1.238 1.878 2.925 1.879 3.75.001 1.117-.393.989-1.54-.5-3.786-4.912-4.08-7.735-.339-3.25m19.264 4.25l.57 4-1.903-3.5c-1.047-1.925-1.922-4.384-1.945-5.464-.077-3.584 2.647.54 3.278 4.964M1183 394c0 .55-.198 1-.441 1s-.719-.45-1.059-1c-.34-.55-.141-1 .441-1s1.059.45 1.059 1m-3 3.118c0 .55-.45.722-1 .382-.55-.34-1-1.068-1-1.618s.45-.722 1-.382c.55.34 1 1.068 1 1.618M1170 399c0 1.1-.173 2-.383 2-.211 0-.619-.9-.907-2-.287-1.1-.115-2 .384-2 .498 0 .906.9.906 2m-258.507-.011c.35.566-.051.734-.941.393-1.732-.665-2.049-1.382-.611-1.382.518 0 1.216.445 1.552.989M1148.92 404c1.122 2.357 1.102 2.389-.365.559-.855-1.068-1.555-2.38-1.555-2.917 0-1.27.462-.703 1.92 2.358m32.763 29.188c-.319.797-.556.56-.604-.605-.043-1.054.193-1.644.525-1.312.332.332.368 1.195.079 1.917m13.046 3.416c-.332.332-1.195.368-1.916.079-.798-.319-.561-.556.604-.604 1.054-.043 1.644.193 1.312.525M1003.5 442c.34.55.141 1-.441 1s-1.059-.45-1.059-1 .198-1 .441-1 .719.45 1.059 1m179.862 2.5c-.317.825-.753 1.5-.969 1.5-.216 0-.393-.675-.393-1.5s.436-1.5.969-1.5c.532 0 .709.675.393 1.5m3.638 3.618c0 .55-.45.722-1 .382-.55-.34-1-1.068-1-1.618s.45-.722 1-.382c.55.34 1 1.068 1 1.618m-228.917.165c.23.156 1.317.943 2.417 1.75 1.85 1.357 1.897 1.336.628-.283-.755-.962-1.843-1.75-2.417-1.75-.574 0-.857.127-.628.283M1155.5 451c-.34.55-1.068 1-1.618 1s-.722-.45-.382-1c.34-.55 1.068-1 1.618-1s.722.45.382 1m28.143.69c.327-.327 1.249.059 2.047.858.799.798 2.294 1.452 3.322 1.452 1.029 0 2.191.52 2.584 1.156.516.834-.234.967-2.691.477-1.873-.373-3.547-1.093-3.72-1.599-.173-.507-1.006-.656-1.851-.332s-1.934-.039-2.42-.806c-1.399-2.21-1.058-3.26.61-1.876.838.696 1.792.997 2.119.67m12.496 1.366c1.856 1.617 1.933 1.838.361 1.034-3.392-1.735-5.054-3.059-3.861-3.075.627-.008 2.202.91 3.5 2.041m-3.139 5.913c0 .532-.675.709-1.5.393-.825-.317-1.5-.753-1.5-.969 0-.216.675-.393 1.5-.393s1.5.436 1.5.969m-5 3.173c0 .59-.712.799-1.582.465-.87-.334-1.77-.607-2-.607-.23 0-.418-.691-.418-1.535 0-1.225.404-1.319 2-.465 1.1.589 2 1.553 2 2.142m-5 .976c0 .55-.45.722-1 .382-.55-.34-1-1.068-1-1.618s.45-.722 1-.382c.55.34 1 1.068 1 1.618m11.441 1.414c1.068.807 1.518 1.454 1 1.436-.517-.017-1.815-.692-2.882-1.5-1.068-.807-1.518-1.454-1-1.436.517.017 1.815.692 2.882 1.5m13.126 1.577c.374.604-.501.325-1.944-.62-1.443-.946-2.623-1.908-2.623-2.139 0-.724 3.854 1.605 4.567 2.759M963 548.059c0 .582.45.781 1 .441s1-.816 1-1.059-.45-.441-1-.441-1 .477-1 1.059m12.537.88c-.319.517.329.871 1.441.788 1.112-.084 2.022-.507 2.022-.94 0-1.106-2.76-.984-3.463.152M965 554.5c0 .825.648 1.5 1.441 1.5 2.116 0 2.802-1.693.971-2.395-2.228-.855-2.412-.787-2.412.895m5.507-.511c-.351.568.054.733.954.388.86-.331 2.194-.079 2.963.56.826.686 1.634.778 1.976.225.318-.514-.43-1.205-1.661-1.535-3.058-.819-3.527-.779-4.232.362M984 554c-1.293.835-1.266.971.191.985.93.008 1.969-.435 2.309-.985.782-1.266-.542-1.266-2.5 0m-3 2.239c.825.896 2.85 1.887 4.5 2.201l3 .572-3-1.14c-1.65-.627-3.675-1.618-4.5-2.202-1.333-.943-1.333-.879 0 .569m7-.239c.825.533 1.95.969 2.5.969s.325-.436-.5-.969c-.825-.533-1.95-.969-2.5-.969s-.325.436.5.969m-15.5 2c-.34.55-.141 1 .441 1s1.059-.45 1.059-1-.198-1-.441-1-.719.45-1.059 1m20.313-.317c.721.289 1.584.253 1.916-.079.332-.332-.258-.568-1.312-.525-1.165.048-1.402.285-.604.604M869.5 569c-.782 1.266.542 1.266 2.5 0 1.293-.835 1.266-.971-.191-.985-.93-.008-1.969.435-2.309.985m-49.5 2.741c-1.894.736-3.927 3.348-3.968 5.098-.02.835 1.125.366 3.045-1.25 1.692-1.424 3.492-2.589 4-2.589s.923-.45.923-1c0-1.082-1.614-1.187-4-.259m141 21.8c-9.317 1.477-18.281 4.778-25.635 9.442-2.616 1.659-5.568 3.017-6.561 3.017-.992 0-1.804.441-1.804.981 0 1.263 7.842.348 14.86-1.734 4.157-1.233 5.776-1.331 7.211-.435 1.921 1.2 4.929.639 4.929-.919 0-.491-.675-.893-1.5-.893-2.873 0-1.632-3.758 1.615-4.89 3.957-1.38 4.486-1.006 5.238 3.699.911 5.694 2.984 7.006 12.303 7.783l8.091.674 2.626-3.865c1.511-2.224 2.627-5.253 2.627-7.133 0-4.497 2.087-4.208 6.088.842 2.818 3.56 3.089 4.377 2.014 6.098-1.551 2.484-1.284 2.738 3.509 3.321 6.213.756 9.796 1.627 11.139 2.709.901.726 1.25.551 1.25-.625 0-.898-.981-2.416-2.179-3.373-1.199-.957-3.786-3.26-5.75-5.117-11.15-10.544-20.26-12.722-40.071-9.582m149.413 4.811c-6.054 1.366-12.194 5.224-18.608 11.69-4.666 4.705-5.36 6.86-1.551 4.822 1.095-.586 3.268-.81 4.831-.497 1.562.312 4.319-.055 6.127-.816l3.288-1.384-2.75-.692c-3.774-.95-3.446-2.93.985-5.941l3.735-2.538 1.384 3.752c.76 2.064 1.362 4.481 1.336 5.371-.036 1.259 1.345 1.762 6.207 2.26 9.498.973 15.914-.632 17.068-4.27.331-1.041 1.579-2.149 2.774-2.461 2.882-.754 3.36-.104 1.38 1.876-2.138 2.137-2.054 3.445.192 3.012.997-.192 6.284.954 11.75 2.545 10.668 3.106 16.26 3.875 10.939 1.504-1.65-.735-4.35-2.553-6-4.04-12.722-11.463-29.983-17.149-43.087-14.193M971 600.059c0 .518-.45.941-1 .941s-1-.702-1-1.559.45-1.281 1-.941c.55.34 1 1.041 1 1.559m147.075 4.216c-.124 1.196-1.495.964-1.925-.325-.22-.66.14-1.02.8-.8.66.22 1.166.726 1.125 1.125M999.5 605c.34.55.141 1-.441 1s-1.059-.45-1.059-1 .198-1 .441-1 .719.45 1.059 1m106.313 7.683c.721.289 1.584.253 1.916-.079.332-.332-.258-.568-1.312-.525-1.165.048-1.402.285-.604.604m-250.146 15.984c-.367.366-.651 2.054-.632 3.75l.036 3.083 1.429-2.5c2.146-3.754 1.572-6.739-.833-4.333m248.907 58.065c1.576 2.499 2.847 6.183 3.106 9 .678 7.384 1.242 9.268 2.773 9.268 2.106 0 2.353-5.118.389-8.061-.94-1.409-1.999-3.718-2.354-5.132-.355-1.414-1.981-4.087-3.614-5.939l-2.968-3.368 2.668 4.232m-22.219 25.018c-3.153 1.772-14.309 11.25-13.241 11.25.318 0 1.992-.705 3.72-1.567 1.727-.862 4.159-1.707 5.403-1.878 9.821-1.349 10.553-1.675 11.039-4.917.715-4.784-1.731-5.805-6.921-2.888m-62.355.234c-2.475.395-6.173 1.46-8.218 2.367s-4.722 1.649-5.95 1.649c-1.367 0-1.864.351-1.282.907 1.246 1.189 8.618 3.174 7.985 2.149-1.22-1.973 3.65-4.301 10.073-4.817 5.938-.476 6.493-.692 4.857-1.888-1.016-.743-2.099-1.291-2.406-1.217-.308.073-2.584.456-5.059.85m-159.417 24.882c-.431.697-.513 1.537-.183 1.867.895.895 1.871-.421 1.387-1.871-.338-1.016-.574-1.016-1.204.004m104.96 19.757c-.721 3.842-2.39 7.397-4.043 8.612-2.767 2.033 2.721.426 5.89-1.725 4.197-2.848 5.639-2.443 11.36 3.19 1.788 1.761 3.25 2.773 3.25 2.25 0-.522.45-.95 1-.95s1 1.155 1 2.567c0 2.113.355 2.455 2 1.933 1.147-.364 2-.18 2 .433 0 .587-.45 1.067-1 1.067s-1 .45-1 1 .475 1 1.055 1 3.618 1.696 6.75 3.768 6.37 3.76 7.195 3.75c.825-.01 1.394.525 1.264 1.189-.133.684 1.384 1.494 3.5 1.868 2.055.363 6.309 1.507 9.454 2.542 6.871 2.262 8.839 2.393 6.223.415-1.067-.808-3.066-1.497-4.441-1.532-2.329-.059-2.377-.157-.697-1.431 1.349-1.023 1.475-1.498.5-1.889-.985-.395-.998-.541-.053-.601.688-.043 1.25-.515 1.25-1.048 0-.532-.675-.709-1.5-.393-1.162.446-1.5-.236-1.5-3.031 0-4.625 1.414-4.661 10.815-.279 1.775.828 2.509.765 3.149-.27.542-.876 1.484-1.071 2.685-.557 1.018.436 2.751.874 3.851.975 1.1.1 2.675.447 3.5.772 5.398 2.124 31.364-.528 48-4.903 5.225-1.373 12.2-3.091 15.5-3.816 3.3-.726 7.35-1.747 9-2.27 1.65-.523 3.521-.772 4.158-.552.637.219 1.452-.075 1.809-.654.358-.579.148-1.053-.467-1.053s-.889-.37-.61-.822c.28-.452-2.377-.79-5.903-.75-3.525.04-5.64.363-4.699.719 3.105 1.173-6.663 4.642-17.731 6.297-12.336 1.844-11.32 1.79-10.557.556.34-.55-.046-1-.858-1-.811 0-1.638.487-1.836 1.083-.387 1.159-9.032 1.513-10.767.441-.571-.353-1.039-.268-1.039.19 0 .457-1.774.831-3.941.831-2.269 0-3.436-.335-2.75-.79.663-.44-1.024-.787-3.809-.784-2.75.004-6.709.003-8.797-.002-2.088-.004-3.553-.402-3.256-.884.858-1.388-2.402-2.18-4.454-1.081-2.378 1.273-3.993 1.271-3.993-.004 0-.55 1.125-1 2.5-1s2.5-.509 2.5-1.131c0-.711-1.206-.946-3.25-.634-3.751.574-6.013-.001-5.197-1.32.311-.503 2.365-.915 4.565-.915s3.772-.369 3.494-.819c-.279-.451.815-.625 2.431-.388 1.615.237 2.671.861 2.346 1.387-.325.526-1.221.715-1.99.42-.77-.296-1.399-.05-1.399.545 0 1.095 3.701.8 7.5-.598 1.6-.589 1.7-.52.5.343-1.231.886-1.052 1.085 1 1.108 1.375.016 3.513.301 4.75.632 1.634.438 2.25.173 2.25-.966 0-1.655-5.475-3.648-10.05-3.658-1.403-.003-3.09-.546-3.75-1.206-.66-.66-1.2-.83-1.2-.378 0 .453-.761.205-1.692-.55-.931-.754-1.423-.922-1.095-.372.646 1.082-2.363 1.24-29.58 1.547-13.346.151-17.049-.095-17.735-1.178-.632-.998-.872-1.03-.883-.119-.037 3.044-13.418-.328-16.817-4.238-1.209-1.39-2.198-2.974-2.198-3.52 0-.545-.625-.992-1.389-.992-.804 0-1.674 1.525-2.068 3.623m67.186 7.981c-.332.332-1.195.368-1.916.079-.798-.319-.561-.556.604-.604 1.054-.043 1.644.193 1.312.525m-2.203 10.203c-.307.308-1.114.001-1.793-.683-.98-.988-.865-1.102.56-.56.986.376 1.541.935 1.233 1.243m-2.276 1.855c-.687.278-1.812.278-2.5 0-.687-.277-.125-.504 1.25-.504s1.938.227 1.25.504m-8.25 9.279c0 .518.445 1.216.989 1.552.566.35.734-.051.393-.941-.665-1.732-1.382-2.049-1.382-.611M857.232 797c0 1.925.206 2.712.457 1.75.252-.962.252-2.538 0-3.5-.251-.962-.457-.175-.457 1.75m-9.632 15.536c-2.48 3.045-6.773 9.284-9.541 13.866-6.452 10.682-20.41 24.912-37.893 38.633-13.305 10.441-17.326 12.852-62.166 37.266-20.945 11.403-41.092 22.934-44.526 25.484l-2.311 1.715 2.668 2.18c2.353 1.923 2.518 2.428 1.395 4.275-1.192 1.959-1.103 2.052 1.36 1.434 2.394-.601 2.569-.452 1.909 1.626-.605 1.908-.434 2.176 1.031 1.613 1.481-.568 1.558-.434.493.849-1.027 1.238-1.007 1.526.109 1.538.826.01.974.308.372.75-1.416 1.041-1.194 5.188.329 6.129.702.434 1.181 1.198 1.065 1.698-.258 1.109 1.047 4.432 2.45 6.238.569.732 1.061 2.757 1.095 4.5.05 2.6.455 3.157 2.251 3.097 1.788-.06 2.018.25 1.25 1.684-1.243 2.323-1.204 5.17.06 4.389.567-.351 1 .49 1 1.941 0 1.407.34 2.559.756 2.559.79 0 2.556 3.731 3.786 8 .396 1.375 1.561 3.694 2.589 5.154s1.869 3.078 1.869 3.595c0 .518.9 1.756 2 2.751 1.1.995 2 2.407 2 3.136 0 .729 1.196 1.626 2.658 1.993 2.273.57 2.433.832 1.105 1.802-1.795 1.313-.538 3.714 2.55 4.874.998.374 1.52 1.157 1.16 1.738-.784 1.27 2.219 7.957 3.574 7.957.524 0 .953.659.953 1.465 0 .805.895 1.943 1.988 2.529 1.094.585 2.267 2.173 2.607 3.528.34 1.355 1.02 2.216 1.512 1.912.491-.304.893.124.893.95 0 .827 1 2.203 2.223 3.059 1.222.856 1.645 1.557.94 1.557-.704 0-.998.457-.653 1.016.346.559 1.032.767 1.526.462.494-.306 1.472.362 2.172 1.483.7 1.122 1.892 2.039 2.649 2.039.876 0 1.189.715.862 1.965-.329 1.258.079 2.173 1.134 2.541.906.317 2.997 2.337 4.647 4.489 1.65 2.152 3.532 3.933 4.183 3.959 1.465.057 2.517 3.205 2.517 7.533 0 2.44.615 3.611 2.398 4.566 1.32.706 2.22 1.462 2.002 1.68-.624.625 3.812 4.94 4.65 4.522.413-.205.75.109.75.698 0 1.361 8.426 6.764 18.882 12.108 4.46 2.279 7.86 4.548 7.555 5.042-.305.493.162.897 1.038.897s2.815 1.237 4.309 2.75c1.804 1.827 3.519 2.637 5.107 2.412 1.764-.249 2.243.045 1.829 1.126-.358.933.022 1.418 1.051 1.338.886-.069 2.092.81 2.678 1.955.587 1.144 1.622 1.895 2.3 1.669.678-.226 1.944.3 2.813 1.17.87.869 2.336 1.594 3.259 1.612.924.017 2.577.71 3.674 1.54 1.913 1.445 1.925 1.631.297 4.468-2.017 3.514-1.594 3.667 2.357.854 2.67-1.901 3.124-1.958 4.655-.578 2.23 2.011 10.196 4.732 10.196 3.484 0-.532.563-.779 1.25-.55.688.229 1.25 1.054 1.25 1.833 0 .779 1.125 1.569 2.5 1.755 1.375.185 3.433 1.202 4.574 2.259s2.383 1.613 2.761 1.235c.377-.377 1.244.03 1.925.906.682.875 3.82 2.11 6.973 2.744 3.152.634 5.979 1.553 6.282 2.042.302.489 1.204.637 2.005.33.8-.307 3.454.613 5.896 2.044 2.442 1.431 5.335 2.602 6.429 2.602 1.093 0 2.157.506 2.363 1.125.207.619 1.608 1.125 3.115 1.125 1.709 0 3.14.746 3.801 1.982.748 1.397 1.375 1.669 2.121.923.747-.747 1.815-.466 3.614.949 1.516 1.192 3.401 1.797 4.636 1.487 1.145-.288 3.3.109 4.788.881 1.489.772 4.846 1.719 7.462 2.105 2.615.385 5.05 1.158 5.41 1.717.571.887 2.323 1.257 8.845 1.868.825.077 1.733.493 2.019.924.285.431 1.635.94 3 1.132 1.364.191 4.041 1.135 5.948 2.097 2.253 1.136 4.486 1.525 6.375 1.11 1.997-.439 2.694-.293 2.226.465-.493.797.075.816 2.042.068 1.962-.746 2.922-.715 3.432.109.398.645 3.493 1.194 7.082 1.257 3.507.062 6.707.577 7.111 1.145.459.644.74.522.75-.327.011-.96.773-1.169 2.599-.71 1.881.472 2.38.319 1.836-.562-.514-.832-.228-1.01.916-.571 1.149.441 1.675.106 1.699-1.08.027-1.281.4-1.081 1.465.781.786 1.375 1.445 2.107 1.465 1.628.019-.48.71-.313 1.535.372 2.803 2.326 1.617-.809-7.856-20.778-5.146-10.847-11.956-25.347-15.133-32.222-3.178-6.875-12.917-26.877-21.644-44.45-8.727-17.572-15.867-32.336-15.867-32.809 0-.472.52-.538 1.155-.146.634.393.909.307.609-.19-.3-.498-6.447-12.83-13.66-27.405-7.213-14.575-15.524-31.111-18.468-36.748-14.379-27.529-39.225-96.495-41.607-115.491-1.044-8.327-.464-16.363 1.347-18.65 1.221-1.543.937-5.992-.495-7.739-.568-.694-.54-2.138.073-3.75 1.739-4.574-1.443-3.114-6.354 2.914m12.479-.953c.048 1.165.285 1.402.604.605.289-.722.253-1.585-.079-1.917-.332-.332-.568.258-.525 1.312m-2.064 17c.009 1.055.472 2.592 1.031 3.417.741 1.095.834.691.344-1.5-.823-3.677-1.395-4.475-1.375-1.917m2.031 6.417c-.015.825 1.027 3.75 2.314 6.5 2.707 5.784 8.64 15.348 8.64 13.928 0-.53-1.149-2.654-2.553-4.72s-3.862-6.783-5.464-10.482c-1.601-3.699-2.923-6.051-2.937-5.226m280.973 31.954c-1.492 3.602-1.511 6.69-.149 24.036 1.891 24.082-.119 126.827-2.935 150.01-1.169 9.624-2.212 13.97-7.904 32.919-4.409 14.677-4.49 15.081-3.031 15.081.55 0 1-.848 1-1.885 0-2.761 3.173-12.126 3.946-11.648.364.224.704-1.097.756-2.937.052-1.839.478-4.029.946-4.866.483-.863.856 12.188.861 30.157.007 28.247.93 45.979 2.208 42.429.247-.687 1.087-1.25 1.866-1.25.779 0 1.417-.469 1.417-1.042 0-.573.457-1.586 1.016-2.25 4.09-4.865 6.062-6.71 7.186-6.723 1.036-.013 1.029-.186-.036-.861-1.723-1.092.956-2.346 5.584-2.614 2.377-.137 3.254.239 3.266 1.401.011 1.057 1.019.451 3.014-1.813 1.65-1.871 3.151-3.221 3.337-3 .186.221.777 1.221 1.314 2.221.912 1.699 1.136 1.651 3.397-.733 1.332-1.403 3.011-2.559 3.731-2.569.72-.009 1.089-.374.819-.809-.269-.436.486-.866 1.679-.956 1.717-.13 1.859.032.68.777-.818.517-1.032.947-.477.956.556.008 2.305-1.185 3.886-2.652 1.743-1.616 4.02-2.666 5.779-2.666 1.697 0 2.4-.311 1.693-.749-1.631-1.007 5.888-4.13 8.188-3.4 1.228.39 1.691.03 1.589-1.234-.11-1.355.517-1.739 2.605-1.596 1.513.104 2.75-.286 2.75-.866 0-.581.9-.82 1.999-.533 2.409.63 3.817-1.158 1.879-2.385-1.143-.725-1.122-.896.122-1.004.825-.072 2.284-.051 3.242.046 1.166.119 1.554-.315 1.171-1.311-.435-1.134-.038-1.35 1.664-.905 1.532.401 2.013.224 1.527-.561-.457-.74-.165-.938.825-.558.927.356 3.581-1.041 6.706-3.53 3.475-2.767 5.779-3.926 7.019-3.532 1.401.445 1.846.071 1.846-1.549 0-1.636.44-1.995 1.885-1.536 1.321.419 2.648-.309 4.436-2.433 1.402-1.667 2.847-3.031 3.21-3.031s1.967-.931 3.565-2.068c1.598-1.138 2.904-1.561 2.904-.941s.489.825 1.087.455c.598-.369.867-1.513.598-2.542-.405-1.551-.175-1.702 1.352-.884 2.636 1.41 3.78-.929 1.366-2.79-1.783-1.375-1.73-1.427.847-.83 1.618.376 2.75.219 2.75-.381 0-.56.9-1.019 2-1.019s2-.45 2-1-.787-1.007-1.75-1.015c-1.493-.013-1.529-.156-.25-.968.955-.607 1.621-.601 1.833.015.424 1.231 3.167 1.275 3.167.051 0-.504-.338-1.105-.75-1.336-.412-.23-.164-.273.553-.094.716.179 2.066-1.017 3-2.658.933-1.64 2.035-2.985 2.447-2.989 1.134-.009.9 1.444-.45 2.794-.66.66-.757 1.2-.216 1.2.542 0 1.844-1.463 2.894-3.25 2.474-4.21 4.036-5.75 5.834-5.75.8 0 1.702-.945 2.004-2.101.302-1.155.98-1.834 1.507-1.508.527.325 1.67-.495 2.541-1.824.87-1.328 2.536-2.718 3.701-3.088 1.495-.474 1.967-1.25 1.604-2.637-.329-1.258.087-2.188 1.159-2.587.919-.343 2.26-1.44 2.979-2.439.718-.999 2.071-1.816 3.006-1.816.934 0 2.277-1.307 2.984-2.904.707-1.597 2.842-4.554 4.744-6.571 1.903-2.017 3.459-4.013 3.459-4.436 0-.422 1.08-1.26 2.4-1.862 1.375-.626 2.336-1.869 2.25-2.91-.082-.999.399-1.709 1.07-1.577.671.132 1.7-.655 2.285-1.75.586-1.094 1.682-1.99 2.437-1.99.878 0 1.183-.718.848-2-.364-1.391-.031-2 1.093-2 1.494 0 1.76-.655 2.071-5.105.139-1.983 2.943-4.893 4.725-4.901 1.798-.009 5.313-5.915 5.353-8.994.024-1.827.646-2.588 2.312-2.828 2.637-.379 4.031-3.013 2.195-4.148-.888-.549-.931-.973-.146-1.458.609-.376 1.107-1.449 1.107-2.384 0-.936.938-2.286 2.084-3.002 1.149-.718 1.842-1.931 1.545-2.704-.297-.775.561-2.267 1.917-3.333 2.836-2.231 3.025-2.871.98-3.32-1.061-.232-1.201-.743-.5-1.823.866-1.333 1.096-1.333 2.068 0 .94 1.287 1.019 1.263.56-.175-.294-.922-.073-3.347.491-5.389.783-2.836.722-3.9-.258-4.506-.879-.543-.358-1.025 1.655-1.53 1.616-.406 3.492-1.291 4.169-1.968.973-.973.69-1.366-1.361-1.88-1.426-.358-3.184-1.243-3.907-1.966-2.229-2.23-21.051-10.029-39.943-16.552-9.9-3.418-23.85-8.92-31-12.226-7.15-3.305-15.904-7.357-19.452-9.003-3.549-1.647-8.66-3.864-11.357-4.927-9.42-3.713-45.292-20.141-57.691-26.421-6.875-3.482-16.325-7.577-21-9.1-4.675-1.523-11.051-4.207-14.17-5.964l-5.67-3.194-1.141 2.755m-81.206 21.729c.721.289 1.584.253 1.916-.079.332-.332-.258-.568-1.312-.525-1.165.048-1.402.285-.604.604m-119.378 42.211c1.533 2.481 25.58 22.798 32.673 27.606 16.699 11.319 32.732 23.189 38.068 28.186 3.121 2.923 6.046 5.312 6.5 5.309.898-.005-2.723-3.437-12.723-12.059-5.905-5.092-14.075-11.16-24.453-18.162-9.06-6.112-13.234-9.234-17.582-13.149-5.888-5.3-19.997-16.998-21.823-18.092-.973-.583-1.176-.472-.66.361m105.426 54.073c-1.299 1.081-2.005 1.981-1.569 2 .435.018 1.758-.867 2.938-1.967 2.768-2.579 1.717-2.604-1.369-.033m-25.42 8.59c2.247 1.67 4.432 1.818 6.559.443 1.248-.806 1.164-.984-.5-1.054-1.1-.046-3.35-.252-5-.458-2.819-.351-2.883-.287-1.059 1.069m13.079 6.257c-.378.377-2.849.707-5.493.732-4.706.046-4.912.182-9.858 6.5-2.779 3.55-6.021 7.579-7.204 8.954-1.184 1.375-6.767 9.475-12.407 18-37.736 57.039-39.023 59.16-34.947 57.596 1.153-.443 1.447-.189 1.032.893-.319.831-.144 1.511.388 1.511.533 0 .969.675.969 1.5s.477 1.5 1.059 1.5.8.419.484.931c-.317.512-.088 1.232.509 1.601.596.369.843 1.3.548 2.069-.296.77-.154 1.399.315 1.399.762 0 2.023 2.819 2.459 5.5.089.55 1.396 3.611 2.905 6.803 1.742 3.685 3.159 5.544 3.886 5.095.733-.453.869-.262.378.533-.742 1.199 2.184 8.226 3.707 8.902.413.184.75 1.013.75 1.843 0 .83.9 2.653 2 4.051 1.1 1.399 2 3.132 2 3.851 0 .72.84 1.897 1.866 2.615 1.026.719 1.901 1.662 1.945 2.097.044.434 1.032 2.009 2.197 3.5l2.116 2.71-.563-3.513c-1.825-11.391-14.059-43.173-19.687-51.141-3.401-4.817-2.392-6.962 9.276-19.727 3.711-4.06 7.501-9.01 8.423-11 .921-1.991 2.59-4.623 3.709-5.851l2.033-2.232 4.344 4.004c2.39 2.203 5.504 4.533 6.921 5.178 1.416.646 5.459 4.91 8.984 9.476l6.408 8.302-1.43 10.752c-2.873 21.603-4.781 63.051-2.52 54.752.45-1.65 1.252-4.35 1.784-6l.967-3 .707 4.036c.535 3.055 1.17 4.035 2.614 4.035 1.048 0 1.906-.353 1.906-.785 0-.432.436-.786.969-.786.532 0 .74.595.461 1.322-.547 1.425 3.441 3.678 6.51 3.678 2.201 0 3.049-1.874 3.092-6.832.028-3.264.178-3.475 1.36-1.918 1.411 1.859 3.608 2.366 3.608.833 0-.504-.531-1.093-1.18-1.31-.768-.256-.889-1.071-.347-2.333 1.189-2.767 1.207-4.717.06-6.44-.577-.867-.056-.696 1.234.405 2.078 1.773 2.233 1.783 2.233.143 0-1.155.516-1.564 1.5-1.186 1.731.664 2.047-.906.388-1.931-.611-.378-1.487-.08-1.945.662-.459.742-1.196.986-1.639.542-.442-.444.209-1.628 1.446-2.631 1.237-1.004 2.25-2.342 2.25-2.973 0-.632.45-.871 1-.531.55.34 1-.084 1-.941s-.467-1.559-1.038-1.559c-.624 0-.845-1.593-.555-4 .322-2.674.086-4.033-.713-4.1-.657-.055-.069-.46 1.306-.9l2.5-.801-2.5-.115c-1.995-.091-2.197-.31-1-1.084.904-.584 1.026-.975.307-.985-.768-.01-1.179-1.796-1.154-5.015.022-2.75.373-5 .782-5 1.432 0 .352-6.317-1.283-7.513-.909-.664-1.652-1.945-1.652-2.847 0-.902-.45-1.64-1-1.64-1.507 0-1.2-2.589.472-3.977 1.177-.977 1.793-.901 3.072.378.879.879 2.15 1.599 2.824 1.599.674 0 2.219 1.237 3.433 2.75 6.337 7.893 7.199 9.162 7.199 10.595 0 .855.563 1.915 1.25 2.355.688.44 2.57 3.613 4.184 7.05 1.613 3.438 3.328 6.25 3.809 6.25.481 0 .616.419.3.931-.317.512-.111 1.218.457 1.569.568.351.805 1.006.527 1.456-.278.449.165 1.373.984 2.053.819.68 1.489 2.113 1.489 3.185 0 2.062 2.389 5.084 3.3 4.173.296-.296 1.061.439 1.7 1.633s1.396 1.937 1.683 1.651c.467-.468-6.81-15.703-8.671-18.151-.418-.55-2.726-4.825-5.128-9.5-2.645-5.147-6.442-10.597-9.626-13.815-2.892-2.924-5.258-5.601-5.258-5.95 0-.349.54-.095 1.2.565 1.966 1.966 2.558 1.444 4.296-3.788.911-2.744 2.154-5.295 2.761-5.671.607-.375 3.273-.583 5.923-.462 5.961.272 6.109-.641 1.763-10.853-3.724-8.752-3.338-11.8.477-3.765 1.505 3.168 3.172 5.491 3.706 5.161.605-.374.619-1.038.038-1.761-.513-.639-1.268-2.736-1.676-4.661-.409-1.925-1.327-4.339-2.04-5.365-.714-1.025-1.038-2.541-.721-3.367.455-1.184.876-1 1.986.865 1.374 2.309 1.395 2.286.858-.954-.546-3.299 1.273-8.346 3.504-9.726.6-.37.35.759-.555 2.509-1.052 2.035-1.312 3.606-.721 4.36.509.648 1.243 2.505 1.632 4.126.547 2.282.913 2.621 1.622 1.5.504-.796.923-2.659.932-4.139.008-1.48.4-2.929.871-3.22.47-.291.653.53.405 1.824-.247 1.294.043 2.657.645 3.029.613.379 1.094-.009 1.094-.883 0-.857.45-1.559 1-1.559 1.812 0 1.068-1.57-5.257-11.097-12.786-19.257-19.303-26.249-31.97-34.296-6.623-4.208-10.281-5.766-11.253-4.793m3.576 2.845c4.786 2.333 18.895 12.597 21.993 15.998 3.543 3.89 6.505 8.38 7.374 11.179.662 2.128.54 2.236-1.368 1.215-1.771-.948-2.095-.839-2.095.702 0 1.003-.9 3.589-2 5.747-2.041 4.003-2.755 7.215-1 4.5 1.278-1.978 1.248-1.011-.088 2.822-.598 1.716-1.54 3.02-2.093 2.899-.553-.122-1.526.669-2.162 1.756-.636 1.087-1.788 2.482-2.56 3.098-.771.617-1.085 1.635-.698 2.262.432.699.184.94-.64.624-2.148-.824-2.122 10.785.044 19.297 1.016 3.992 1.626 7.48 1.355 7.75-1.041 1.041-8.958.429-9.807-.758-.492-.687-.829-2.6-.75-4.25.08-1.65-.539-4.342-1.374-5.982-.835-1.64-1.48-4.327-1.433-5.97.047-1.644-.393-3.565-.977-4.269-.584-.703-.727-1.279-.317-1.279s.301-.562-.241-1.25c-.543-.687-.988-1.925-.991-2.75-.017-5.755-1.544-16.051-2.64-17.807-.449-.719-.535-2.519-.192-4 .459-1.979.361-2.295-.369-1.193-.871 1.314-1.212 1.283-2.745-.25-1.639-1.639-1.642-1.75-.036-1.75 1.291 0 1.685-.802 1.598-3.25-.064-1.787-.322-2.463-.573-1.5-.685 2.619-2.008 2.111-2.607-1-.346-1.795-.032-3.032.904-3.561 2.075-1.175.657-2.787-1.919-2.183-1.204.283-2.835.094-3.625-.42-1.189-.774-1.211-1.204-.127-2.51.875-1.055.937-1.576.185-1.576-.617 0-1.122-.703-1.122-1.563 0-.931-.707-1.446-1.75-1.275-.962.159-2.361-.095-3.107-.562-1.048-.657-1.221-.31-.759 1.525.328 1.306.327 1.776-.003 1.045-.426-.944-1.462-.362-3.558 2l-2.958 3.33 2.303-4.341c1.266-2.387 3.096-4.765 4.067-5.285.971-.519 1.765-1.534 1.765-2.254 0-.721.788-1.986 1.75-2.813 2.101-1.805 5.588-3.163 4.786-1.865-.313.506-.111 1.202.448 1.548.559.345 1.052-.186 1.095-1.181.049-1.119.277-1.316.597-.517.422 1.052.805 1.053 2.065.008 1.339-1.111 1.452-.982.836.958-.746 2.351.002 2.795 2.28 1.352.946-.6 1.021-1.067.25-1.544-1.009-.623-1.584-2.566-.761-2.566.191 0 1.878.747 3.75 1.659m-13.586 3.357c.346.559 1.047.758 1.559.441 1.387-.857 1.129-1.457-.628-1.457-.857 0-1.276.457-.931 1.016M1320 1006c0 .55.45 1 1 1s1-.45 1-1-.45-1-1-1-1 .45-1 1m-291 1.5c0 .825.436 1.5.969 1.5.532 0 .709-.675.393-1.5-.317-.825-.753-1.5-.969-1.5-.216 0-.393.675-.393 1.5m-8 .5c0 .55.45 1 1 1s1-.45 1-1-.45-1-1-1-1 .45-1 1m1.73 7.526c-.311 2.325-2.357 3.74-2.13 1.474.055-.55.168-1.675.25-2.5.083-.825.615-1.5 1.184-1.5s.882 1.137.696 2.526m9.973 1.876c2.114 2.826 2.421 2.789 1.641-.196-.318-1.213-1.221-2.206-2.007-2.206-1.139 0-1.064.49.366 2.402m-13.703-.961c0 .243-.45.719-1 1.059-.55.34-1 .141-1-.441s.45-1.059 1-1.059 1 .198 1 .441m-3 3.559c0 .55-.45 1-1 1s-1-.45-1-1 .45-1 1-1 1 .45 1 1m60.345 26.543c-.326.849-.807 1.329-1.069 1.067-.262-.262-.18-.957.183-1.543.986-1.596 1.562-1.286.886.476m-16.345 2.898c0 .243-.45.719-1 1.059-.55.34-1 .141-1-.441s.45-1.059 1-1.059 1 .198 1 .441m182.729 31.163c-.332.332-1.195.368-1.916.079-.798-.319-.561-.556.604-.604 1.054-.043 1.644.193 1.312.525M1048 1118c0 .55-.198 1-.441 1s-.719-.45-1.059-1c-.34-.55-.141-1 .441-1s1.059.45 1.059 1"/>
</svg>
