<svg xmlns="http://www.w3.org/2000/svg" viewBox="0 0 1772 1772"><defs/><path fill-rule="evenodd" d="M934.039 258.189c-1.121 1.203-2.039 2.709-2.039 3.345 0 2.339-3.693 4.466-7.756 4.466-3.237 0-4.535.554-6.171 2.635-1.14 1.449-2.073 3.725-2.073 5.059v2.424l-12.25-.542c-6.737-.299-14.05-.606-16.25-.683-2.2-.078-11.221.204-20.046.625l-16.046.767-8.534-5.679c-8.329-5.544-8.739-5.694-17.147-6.287-9.223-.651-13.308.288-17.477 4.017-1.237 1.107-2.25 3.175-2.25 4.595s-.435 4.099-.967 5.953c-.537 1.873-.595 4.092-.129 4.994.46.892 1.15 4.908 1.532 8.924l.695 7.302-3.948 3.948c-2.66 2.66-4.834 3.948-6.665 3.948-1.494 0-5.306 1.598-8.471 3.552-5.874 3.625-14.168 6.377-19.547 6.484-1.65.033-4.575.915-6.5 1.961-3.269 1.774-5.202 2.727-10.697 5.268-3.075 1.422-3.774 3.799-1.307 4.444 1.563.409 2.037 1.434 2.155 4.658.272 7.464-.229 9.508-4.243 17.313-2.184 4.244-3.716 8.378-3.406 9.185.43 1.12.841 1.192 1.731.302.642-.642 2.009-1.167 3.039-1.167 1.678 0 1.803.551 1.208 5.314-.598 4.788-.404 5.623 1.964 8.437 1.495 1.776 3.798 3.258 5.342 3.436 2.568.296 2.697.561 2.396 4.912-.217 3.153.285 5.671 1.595 8.004 1.051 1.872 2.466 5.877 3.144 8.9 2.048 9.133 3.23 12.304 6.221 16.677 1.572 2.299 2.858 5.125 2.858 6.279 0 4.769 7.206 17.25 14.587 25.266 6.467 7.023 7.413 8.529 7.413 11.798 0 2.062.625 4.954 1.39 6.427 2.5 4.819 1.257 6.596-12.39 17.718-4.125 3.361-9.075 7.157-11 8.436-1.925 1.278-5.428 3.69-7.785 5.36-2.357 1.67-4.607 3.042-5 3.049-.629.011-6.998 4.855-18.215 13.854-5.861 4.702-6.467 4.803-24 3.985-23.234-1.083-43.255-3.797-50.5-6.844-3.934-1.654-7.122-2.294-15.5-3.11-14.455-1.408-18.428-1.97-20.5-2.902-2.004-.901-7.344-1.609-19.5-2.585-3.575-.287-7.85-1.134-9.5-1.883-1.65-.749-4.8-1.667-7-2.038-2.2-.372-6.784-1.985-10.187-3.583-3.403-1.599-6.778-2.9-7.5-2.891-.722.009-4.913-1.761-9.313-3.933-4.4-2.172-10.25-4.99-13-6.262-2.75-1.272-6.575-3.363-8.5-4.647-3.793-2.53-13.489-7.174-14.98-7.174-.506 0-2.92-1.35-5.365-3-2.445-1.65-5.055-3.014-5.8-3.032-1.888-.044-4.012-1.879-6.892-5.954-3.188-4.511-4.963-7.919-4.963-9.527 0-.706-1.253-3.692-2.784-6.635-1.532-2.944-3.383-7.377-4.114-9.852-.732-2.475-1.748-5.406-2.258-6.514-.948-2.055-1.474-6.685-2.669-23.486-.418-5.89-1.34-10.793-2.425-12.904-.962-1.872-1.75-3.984-1.75-4.694 0-2.32-4.431-6.391-7.623-7.003-2.731-.523-3.468-.146-5.869 3.001-2.358 3.092-3.328 3.605-6.877 3.635-5.1.044-7.844 1.509-11.106 5.931-3.584 4.859-3.281 6.848.552 3.623 1.692-1.424 3.443-2.589 3.891-2.589.448 0 1.477 1.688 2.286 3.75 1.706 4.35 1.415 18.019-.538 25.25-.808 2.99-1.13 11.076-.961 24.093.232 17.737.484 20.245 2.661 26.471 1.957 5.597 2.886 7.007 4.99 7.569 1.585.424 2.872.242 3.328-.471.409-.639.642-13.006.516-27.483-.185-21.364.045-26.849 1.221-29.123.797-1.541 1.239-3.013.981-3.27-.257-.258-.497-5.271-.533-11.141-.061-10.061 1.244-17.645 3.037-17.645 1.05 0 4.042 11.977 4.05 16.206.003 1.811.472 4.974 1.042 7.028.738 2.657.677 7.27-.213 16-1.811 17.771-1.445 24.772 1.706 32.657 3.113 7.787 4.068 9.109 6.581 9.109 1.645 0 1.878-.808 1.878-6.5 0-3.575.241-6.5.535-6.5 1.955 0 5.555 3.749 6.559 6.832.658 2.017 2.256 4.94 3.551 6.495 2.82 3.385 2.845 4.019.355 9.173-1.063 2.2-1.947 4.943-1.966 6.095-.019 1.152-1.003 2.952-2.188 4-1.184 1.048-3.835 5.521-5.892 9.94-4.852 10.428-15.861 26.345-18.27 26.413-.998.029-2.798-.46-4-1.086-3.529-1.838-16.881-12.032-20.755-15.846-1.964-1.934-5.114-4.906-7-6.604-4.579-4.124-10.089-13.553-10.277-17.587-.259-5.539 2.516-4.651 8.246 2.64 6.688 8.51 12.208 12.535 17.193 12.535 2.085 0 4.059-.434 4.387-.964.821-1.329-4.055-20.786-6.455-25.752-1.155-2.391-2.241-7.463-2.652-12.384-.443-5.311-1.38-9.497-2.585-11.537-2.67-4.526-2.998-27.912-.58-41.324.938-5.204 1.5-9.666 1.25-9.917-.251-.25-.456.147-.456.883 0 .735-.733 2.148-1.629 3.138-.896.99-2.104 3.725-2.685 6.078-1.388 5.628-1.26 37.558.183 45.529 2.261 12.493 2.842 18.735 1.861 19.997-.708.91-3.169 1.077-9.129.619l-8.16-.627-3.686 3.579c-3.73 3.623-6.755 9.361-6.755 12.815 0 2.24 3.533 10.037 6.633 14.635 1.211 1.798 6.177 7.261 11.035 12.14 7.94 7.975 9.539 9.106 15.832 11.203 3.85 1.282 8.688 3.417 10.75 4.743 3.4 2.187 3.75 2.823 3.75 6.813 0 3.589-.924 5.823-5.012 12.117-2.756 4.244-4.888 8.39-4.737 9.213.337 1.833 6.338 4.887 9.749 4.961 1.375.03 3.85.763 5.5 1.63 1.65.866 6.375 2.69 10.5 4.053 8.598 2.841 16.227 6.345 21.279 9.774 1.927 1.307 5.239 2.979 7.362 3.716 2.122.736 5.209 2.132 6.859 3.1 1.65.969 3.9 1.804 5 1.856 2.019.095 5.784 2.057 18.197 9.483 3.742 2.238 8.828 4.696 11.303 5.462 4.954 1.533 16.594 7.371 19.079 9.571.868.768 2.188 1.397 2.933 1.397 1.556 0 12.008 3.5 16.563 5.546 4.186 1.881 27.387 2.293 33.425.595 2.475-.697 6.525-1.621 9-2.054 2.475-.434 6.525-1.524 9-2.423 2.692-.978 7.614-1.641 12.25-1.649L672 616v3.97c0 2.183-.86 5.5-1.911 7.371-1.051 1.871-3.325 7.623-5.054 12.781-1.728 5.158-3.506 10.278-3.95 11.378-1.934 4.788-3.085 9.364-3.085 12.262 0 1.716-.45 3.398-1 3.738-.55.34-1 1.69-1 3s-.45 2.66-1 3c-.55.34-1 1.69-1 3s-.45 2.66-1 3c-.55.34-1 1.478-1 2.529 0 1.05-.9 3.513-2 5.471-1.1 1.958-2 4.134-2 4.834 0 .7-1.197 3.676-2.66 6.612-2.511 5.039-3.779 9.284-5.023 16.813-.296 1.793-.938 3.507-1.427 3.809-.49.303-.89 2.072-.89 3.932 0 1.86-.45 3.66-1 4-.55.34-1 1.69-1 3s-.402 2.631-.894 2.935c-.974.602-1.757 4.97-2.967 16.565-.784 7.499-1.069 8.606-3.825 14.818-.81 1.824-1.91 7.674-2.446 13-.536 5.325-1.367 11.482-1.847 13.682-1.827 8.379-5.073 18.931-6.49 21.094-.988 1.506-1.423 4.511-1.316 9.079.17 7.306-1.798 14.318-7.303 26.014-1.602 3.403-2.912 7.102-2.912 8.22 0 1.118-.9 3.635-2 5.593-1.1 1.958-2 4.421-2 5.471 0 1.051-.45 2.189-1 2.529-.55.34-1 1.498-1 2.573s-.412 2.736-.915 3.691c-1.477 2.8-5.085 15.593-5.085 18.028 0 1.229-.395 3.017-.877 3.972-1.575 3.117-3.123 8.822-3.123 11.51 0 2.507-.535 4.179-3.641 11.377-1.893 4.39-1.696 7.734.579 9.793 1.85 1.674 2.272 1.662 9.25-.276 4.022-1.117 11.362-2.535 16.312-3.151 5.355-.666 10.62-1.982 13-3.248C636.732 917.795 648.4 912 649.198 912c.494 0 2.761-.9 5.038-2s6.059-2 8.405-2c3.915 0 4.406.296 5.976 3.605 1.432 3.018 1.724 6.964 1.797 24.25.08 19.264-.051 20.846-1.968 23.645-1.13 1.65-4.487 7.95-7.46 14s-6.534 12.8-7.915 15c-3.576 5.702-7.071 12.636-7.071 14.031 0 .656-1.8 4.692-4 8.969-2.2 4.277-4 8.378-4 9.114 0 .736-.898 2.811-1.996 4.612-1.098 1.801-1.998 4.048-2 4.994-.002.945-.864 3.25-1.915 5.121-1.051 1.871-3.301 7.451-5 12.399-2.905 8.461-3.089 9.875-3.089 23.725 0 14.847 1.233 22.621 4.549 28.689.798 1.46 1.451 5.146 1.451 8.191 0 3.045.45 5.815 1 6.155.55.34 1 1.841 1 3.337 0 1.495.609 3.606 1.353 4.69 3.023 4.407 6.388 11.193 6.939 13.995.322 1.638 1.091 5.003 1.709 7.478.618 2.475 1.518 6.525 1.999 9 .481 2.475 1.353 6.412 1.937 8.75.585 2.338 1.474 5.938 1.977 8 1.859 7.628 3.173 11.099 5.5 14.528 1.312 1.934 2.714 4.551 3.116 5.816.401 1.265 2.832 4.574 5.402 7.353 5.884 6.365 7.753 9.359 8.575 13.739.87 4.639-1.735 6.334-11.012 7.168-14.475 1.3-17.668 2.13-20.134 5.238-5.416 6.827-4.905 6.589-13.185 6.13-4.222-.234-11.051-1.408-15.176-2.608-4.125-1.201-10.875-2.587-15-3.08-10.527-1.258-12.466-1.799-21.5-5.994-4.4-2.044-9.913-4.239-12.25-4.878-2.337-.639-6.01-1.671-8.161-2.293-5.164-1.493-7.82-.695-12.339 3.707-3.232 3.148-3.75 4.271-3.75 8.134 0 2.887.716 5.486 2.012 7.307 2.931 4.116 7.988 13.963 7.988 15.554 0 .753.9 2.971 2 4.929 1.1 1.958 2 4.171 2 4.916 0 3.334 5.749 11.374 14.933 20.883 5.197 5.381 8.483 7.728 15.75 11.25 5.051 2.448 10.312 4.451 11.691 4.451 1.379 0 2.786.45 3.126 1 .34.55 1.69 1 3 1s2.66.45 3 1c.34.55 1.656 1 2.924 1 3.221 0 7.576 3.689 7.576 6.418 0 2.569-1.912 4.47-7 6.959-1.925.942-4.85 2.566-6.5 3.611-5.703 3.608-13.037 6.882-22.5 10.043-5.225 1.745-9.928 3.577-10.45 4.071-.523.494-1.746.898-2.72.898-.973 0-3.245.808-5.05 1.796-1.804.988-5.305 2.39-7.78 3.114-2.475.725-5.4 1.683-6.5 2.129-1.991.807-3.936 1.271-12.5 2.985-2.475.495-5.968 1.194-7.762 1.553-1.794.36-3.509 1.052-3.809 1.538-.301.487-1.48.885-2.619.885-1.14 0-5.951 1.306-10.691 2.902-7.812 2.63-21.034 5.517-21.793 4.758-.168-.168-.571-1.633-.895-3.255-.465-2.325.168-4.052 2.99-8.153 1.968-2.862 3.579-6.088 3.579-7.169 0-1.081.45-2.243 1-2.583.55-.34 1-1.478 1-2.529 0-1.816 2.147-6.213 5.626-11.524 1.588-2.422 3.072-9.988 4.028-20.536.404-4.448.042-6.592-1.77-10.5-2.72-5.867-9.469-15.119-12.027-16.488-2.5-1.338-9.096-11.5-10.752-16.566-.745-2.279-3.532-7.004-6.193-10.5-2.662-3.496-4.856-7-4.876-7.786-.02-.786-.451-2.811-.959-4.5s-1.439-5.546-2.07-8.571c-.63-3.025-1.509-6.4-1.952-7.5-.443-1.1-1.312-3.259-1.93-4.797-.619-1.538-1.125-5.386-1.125-8.55 0-3.164-.372-6.181-.826-6.703-.454-.523-1.407-2.975-2.116-5.45-.709-2.475-2.109-6.3-3.11-8.5-2.282-5.016-3.013-9.434-3.61-21.816-.318-6.587-.095-10.272.678-11.203 1.499-1.807 9.836-4.175 17.795-5.055 4.083-.452 7.541-1.533 9.794-3.062 1.916-1.3 4.819-2.364 6.45-2.364 1.632 0 4.874-.862 7.206-1.916 2.331-1.054 6.039-2.467 8.239-3.14 2.2-.674 5.8-2.015 8-2.981 2.2-.967 5.575-2.334 7.5-3.038 1.925-.705 6.264-3.451 9.642-6.103 3.378-2.652 6.434-4.822 6.79-4.822 1.145 0 6.916-4.354 12.258-9.246 2.855-2.615 5.667-4.754 6.25-4.754.62 0 1.06-2.312 1.06-5.566 0-3.061.449-6.404.997-7.428 1.125-2.103 9.989-5.006 15.285-5.006 4.564 0 10.193-2.413 12.151-5.208 2.341-3.342 2.077-13.584-.433-16.792-2.124-2.715-2.839-12.364-1-13.5 2.274-1.406-.295-12.937-3.732-16.75-2.661-2.951-6.711-2.19-10.437 1.961-1.832 2.042-4.849 5.079-6.705 6.75-26.731 24.074-30.938 27.539-33.44 27.539-1.689 0-8.076 3.268-10.686 5.467-.825.695-8.552 4.728-17.171 8.962-15.153 7.442-16.013 7.731-26 8.737-9.626.969-18.597.773-35.048-.766-6.514-.61-6.956-.832-14.5-7.304-8.406-7.211-11.775-9.096-16.257-9.096-2.854 0-6.024-2.193-6.024-4.167 0-2.319 3.645-6.957 5.916-7.527 1.34-.336 4.334-1.892 6.655-3.459 2.32-1.566 4.853-2.847 5.628-2.847 3.089 0 11.944-5.398 18.909-11.528 4.045-3.56 7.813-6.472 8.373-6.473 1.859-.001 10.443-9.129 12.552-13.347 4.336-8.672 4.584-8.823 14.366-8.751 15.431.113 17.613-2.417 20.213-23.434.54-4.365.276-5.543-1.995-8.889-2.579-3.801-3.201-6.893-2.01-9.996 2.004-5.224 16.618 3.572 21.209 12.764 4.717 9.445 9.184 10.102 9.184 1.352 0-2.951-.308-5.673-.685-6.05-2.945-2.945-4.328-16.053-2.074-19.662.987-1.581.987-2.391 0-3.972-.683-1.093-1.241-2.448-1.241-3.011 0-.564-.847-2.932-1.882-5.264-1.035-2.331-2.46-5.814-3.168-7.739-.707-1.925-2.561-5.435-4.118-7.8-1.558-2.365-2.832-4.939-2.832-5.72 0-.78-.808-2.895-1.796-4.7-.988-1.804-2.401-5.165-3.14-7.468-.841-2.621-3.344-6.176-6.689-9.5-3.858-3.833-5.351-6.078-5.361-8.062-.033-6.371 9.794-1.228 17.369 9.09 4.659 6.348 9.617 15.831 9.617 18.396 0 4.288 2.292 9.764 4.086 9.764 1.84 0 1.88-.192 3.403-16.544.413-4.426.14-6.893-1.02-9.218-1.992-3.992-15.067-17.405-19.012-19.503-8.156-4.337-17.402-8.504-21.207-9.558-2.337-.647-6.163-1.708-8.5-2.357-2.337-.649-4.853-1.638-5.59-2.197-.784-.595-6.344-.907-13.419-.752-6.644.146-16.525-.05-21.958-.435-8.191-.581-9.827-.968-9.578-2.264.913-4.737 18.303-7.552 31.795-5.147 9.597 1.711 10.395 1.685 10.806-.347.231-1.141-1.174-3.289-3.761-5.75-4.006-3.811-4.34-3.928-11.196-3.928-4.076 0-10.623.933-15.469 2.204-7.684 2.015-8.537 2.067-9.994.611-2.187-2.188-1.067-5.058 3.262-8.36 3.393-2.588 3.984-2.697 11.909-2.203 7.18.448 8.566.27 9.971-1.283 1.267-1.4 1.391-2.253.552-3.82-2.113-3.947-1.376-5.02 3.67-5.344 3.42-.22 4.75-.725 4.75-1.805 0-1.899-8.433-2.599-13.5-1.12-1.925.561-4.809 1.295-6.41 1.63-2.033.425-8.002 5.754-19.823 17.696-9.302 9.398-17.655 18.259-18.561 19.691-3.924 6.2-7.65 10.103-9.646 10.103-2.479 0-4.805-4.1-6.525-11.5-2.434-10.479-3.573-12.825-9.721-20.031-4.757-5.574-7.701-8.045-11.851-9.943-3.037-1.389-5.846-2.523-6.243-2.519-.396.004-5.373-2.33-11.061-5.187-8.038-4.038-10.711-4.963-12-4.155-2.388 1.496-2.536 4.553-.334 6.917 2.195 2.356 4.175 5.823 4.175 7.312 0 1.637-5.186 6.165-9 7.857-2.136.948-6.943 1.635-12.333 1.762-7.445.175-9.159.535-10.913 2.289l-2.081 2.081 2.616 3.43c1.439 1.886 5.108 5.084 8.154 7.105 3.045 2.022 6.033 4.603 6.64 5.737.607 1.134 1.299 5.223 1.538 9.086.616 9.949-.541 11.447-9.339 12.083-10.108.731-12.775 1.551-17.102 5.254-3.995 3.419-8.18 10.777-8.18 14.381 0 1.089-.927 3.631-2.061 5.65-1.453 2.587-1.748 3.982-1 4.73 2.409 2.409.929 11.446-3.206 19.565-.953 1.872-1.733 3.963-1.733 4.648 0 .685-1.35 3.811-3 6.948-3.056 5.809-3.797 9.889-2 11 .55.34 1 2.365 1 4.5s.423 4.143.94 4.463c.516.319 2.614-1.229 4.66-3.441 2.915-3.15 4.445-4.022 7.061-4.022H288v10.048c0 8.002.407 10.892 2 14.188 1.141 2.362 2 6.186 2 8.905 0 4.905 1.143 8.496 4.098 12.868.932 1.38 2.239 4.53 2.904 6.999.908 3.37 3.286 6.753 9.528 13.553 4.575 4.984 10.265 10.384 12.644 12 2.379 1.617 5.107 3.901 6.06 5.077 1.796 2.213 13.582 8.362 16.029 8.362.763 0 2.383 1.058 3.598 2.352 1.87 1.991 2.105 3.028 1.526 6.75-.405 2.601-1.799 5.682-3.411 7.541-1.5 1.729-4.427 5.703-6.504 8.833-2.077 3.129-4.72 6.01-5.874 6.402-1.154.392-6.852.692-12.663.667-8.617-.037-11.383-.434-15-2.155-7.433-3.536-11.988-4.737-13.234-3.491-1.959 1.959-18.195 1.335-25.57-.983-10.829-3.403-12.699-3.916-14.264-3.916-.82 0-3.354-.9-5.631-2s-4.565-2-5.086-2c-.521 0-3.437-1.31-6.48-2.911-3.043-1.6-8.376-3.904-11.852-5.119-6.474-2.262-10.818-5.318-10.818-7.61 0-.71-1.269-2.769-2.82-4.575-1.552-1.807-5.237-6.815-8.19-11.129-5.744-8.39-9.353-11.663-15.089-13.682-5.039-1.773-8.686-.556-13.553 4.523-4.976 5.194-6.134 9.22-3.926 13.648.868 1.739 1.578 3.967 1.578 4.95 0 .983.45 2.065 1 2.405 1.303.805 1.283 5.103-.035 7.566-.802 1.499-2.113 1.934-5.826 1.934-3.714 0-5.279.52-6.965 2.314-2.654 2.826-2.848 8.292-.402 11.338 3.057 3.806 11.635 8.348 15.768 8.348 2.1 0 5.369.561 7.265 1.246l3.446 1.247-.541 7.158c-.491 6.491-.333 7.354 1.689 9.254 1.226 1.152 2.694 2.095 3.26 2.095.567 0 1.865.922 2.885 2.049 2.308 2.55 13.539 7.812 23.456 10.99 4.125 1.321 9.908 3.654 12.852 5.182 2.943 1.528 6.179 2.779 7.191 2.779 1.011 0 2.088.402 2.392.894.304.492 2.243 1.131 4.309 1.419 2.066.288 5.781 1.038 8.256 1.667 2.475.629 5.809 1.402 7.408 1.718 1.6.317 5.358 1.864 8.352 3.439 3.853 2.026 6.947 2.881 10.592 2.925 7.495.089 17.273 2.172 19.616 4.178 3.253 2.786 2.819 11.727-.937 19.285-1.632 3.286-2.982 7.123-3 8.525-.017 1.403-.437 2.978-.933 3.5-2.16 2.274-4.337 11.672-4.738 20.45-.239 5.225-.707 10.175-1.04 11-.766 1.899-2.283 10.136-2.947 16-.28 2.475-1.119 5.85-1.865 7.5-8.914 19.736-5.078 27.5 13.587 27.5 5.955 0 9.06-.512 12.141-2 4.663-2.253 11.009-2.633 12.526-.75 1.802 2.236 2.425 7.53 1.17 9.941-2.588 4.978-12.291 16.011-17.397 19.783-11.705 8.647-21.938 27.049-21.702 39.026.038 1.925.521 6.65 1.074 10.5 2.653 18.473 2.923 21.256 2.396 24.772-.311 2.075-.957 4.014-1.434 4.309-1.704 1.053-.811 2.43 3.223 4.977 3.337 2.107 5.767 2.692 13.159 3.171 9.939.644 12.749 2.136 12.749 6.771 0 3.139-2.684 5.862-8.204 8.325-4.028 1.797-4.983 1.834-15.296.594-6.05-.728-14.903-1.345-19.673-1.371-8.327-.046-8.792.071-11.666 2.945-4.883 4.882-3.984 6.287 15.839 24.754 3.575 3.33 8.975 7.417 12 9.081 3.025 1.664 5.948 3.733 6.495 4.599 1.09 1.724-.076 4.342-2.562 5.752-.788.447-4.669 2.607-8.624 4.8-3.954 2.194-8.806 4.896-10.78 6.005-1.974 1.109-4.054 2.016-4.622 2.016-2.168 0-14.772 6.6-23.261 12.18-6.863 4.512-9.706 5.82-12.643 5.82-4.21 0-5.003-1.054-5.003-6.648 0-8.038-4.991-9.987-9.218-3.599-3.199 4.835-8.23 6.247-22.249 6.247-9.583 0-12.102-.446-18.121-3.207-1.148-.526-3.398-.808-5-.625l-2.912.332-.5 15.5c-.494 15.318-.983 17.98-3.309 18.021-.655.012-5.689 2.262-11.186 5S140.747 1504 139.814 1504c-.933 0-1.974.45-2.314 1-.34.55-1.478 1-2.529 1-1.05 0-3.427.852-5.28 1.893-1.853 1.041-5.579 2.143-8.28 2.449-2.701.306-7.161.917-9.911 1.357l-5 .801.022 5.689c.013 3.129.271 5.937.575 6.241.303.303 4.343-.785 8.977-2.419 4.634-1.635 9.051-2.98 9.816-2.991.764-.011 1.889-.657 2.5-1.436 1.424-1.816 26.245-11.957 38.61-15.775 5.225-1.613 10.249-3.173 11.164-3.465 2.423-.775 3.485 2.024 4.263 11.243l.682 8.088-7.174 5.412c-15.914 12.006-27.886 18.94-41.072 23.788-2.95 1.084-9.188 3.363-13.863 5.064-13.231 4.814-13.775 5.092-14.363 7.341-1.18 4.511 3.068 6.08 7.363 2.72 1.375-1.076 3.261-1.966 4.191-1.978.93-.012 1.932-.413 2.228-.89.295-.478 2.684-1.154 5.309-1.503 2.652-.353 8.771-2.685 13.772-5.25 15.167-7.776 15.887-8.098 19.652-8.775 2.724-.491 4.075-.234 5.318 1.009 1.458 1.458 1.579 3.219.963 14.027l-.704 12.36h4.575c4.565 0 4.576-.008 4.886-3.75.17-2.062-.02-8.475-.423-14.25-.87-12.484.017-14.441 7.837-17.273 11.66-4.224 13.342-5.951 13.374-13.734.012-3.028.432-6.935.933-8.682.574-2.001.529-4.679-.12-7.238-.738-2.907-.698-5.385.142-8.721.911-3.62.896-5.74-.069-9.506-1.357-5.295-2.082-5.617-7.518-3.346-1.975.825-5.317 1.5-7.428 1.5-3.599 0-3.911-.244-5.014-3.925-.646-2.159-.901-4.64-.565-5.515.927-2.417 5.364-3.668 10.565-2.978 3.346.444 7.738-.119 15.475-1.984 5.942-1.432 11.212-2.351 11.712-2.042 1.478.914 1.05 2.995-1.206 5.862l-2.114 2.689 2.746 7.527 2.745 7.528-1.667 15.669c-1.188 11.159-1.585 22.361-1.381 38.918l.286 23.249 4.86.001 4.86.001-.55-12.25c-.496-11.03.149-23.517 1.914-37.054.548-4.202 1.111-5.11 4.501-7.25 2.131-1.345 4.118-2.446 4.415-2.446.297 0 2.443-1.224 4.77-2.719 6.39-4.107 12.859-7.281 14.84-7.281.975 0 2.05-.45 2.39-1 .34-.55 1.695-1 3.012-1 3.335 0 6.847-1.667 15.193-7.213 3.963-2.633 8.153-4.787 9.313-4.787 2.224 0 13.744-5.16 17.982-8.054 1.375-.939 5.65-2.713 9.5-3.942 3.85-1.229 7.781-2.633 8.736-3.119.955-.487 2.305-.893 3-.903.695-.01 6.663-2.71 13.262-6s12.76-5.982 13.691-5.982c.931 0 1.971-.45 2.311-1 .34-.55 1.379-1.014 2.309-1.031.93-.018 4.38-1.368 7.666-3 3.286-1.633 7.454-2.969 9.263-2.969 3.171 0 6.054-1.152 9.306-3.719.85-.67 6.7-3.839 13-7.042 6.301-3.203 13.36-7.042 15.686-8.531 2.327-1.49 5.276-2.708 6.554-2.708 1.279 0 4.325-1.24 6.77-2.756 2.445-1.515 5.571-3.237 6.946-3.826 1.375-.59 4.525-2.051 7-3.248 2.475-1.196 5.09-2.174 5.812-2.173.722.002 5.897-2.218 11.5-4.932 5.603-2.714 12.427-5.668 15.163-6.565 2.737-.896 5.437-1.99 6-2.431 2.155-1.686 10.652-6.07 11.81-6.094.668-.014 4.81-1.814 9.204-4 4.394-2.186 8.336-3.975 8.76-3.975.425 0 5.402-2.25 11.06-5s11.027-5 11.93-5c.904 0 1.921-.45 2.261-1 .34-.55 1.478-1 2.529-1 1.05 0 3.386-.806 5.191-1.791 1.804-.984 8.005-3.287 13.78-5.117 5.775-1.829 13.151-4.624 16.39-6.209 3.24-1.586 6.441-2.883 7.112-2.883.672 0 4.721-1.8 8.998-4 4.277-2.2 8.169-4 8.649-4 .48 0 2.78-.869 5.112-1.931 2.331-1.063 6.489-2.665 9.239-3.562 5.9-1.923 14.909-6.121 18.671-8.7 7.526-5.158 14.108-7.807 19.4-7.807 3.515 0 6.598-.691 8.929-2 1.958-1.1 4.11-2.006 4.78-2.013.671-.007 4.734-1.807 9.029-4S674.965 1320 676 1320c1.035 0 2.16-.45 2.5-1 .34-.55 1.948-1 3.573-1s3.736-.441 4.691-.981c.955-.54 6.686-2.599 12.736-4.575 6.05-1.977 12.35-4.205 14-4.952 11.377-5.147 23.961-6.773 31.807-4.109 2.62.889 7.152 1.617 10.073 1.617 6.003 0 8.62-1.901 8.62-6.262 0-1.852 1.227-3.608 4.25-6.079 5.059-4.136 19.431-11.692 25.75-13.539 2.475-.723 5.281-1.721 6.236-2.217.955-.497 3.523-.903 5.706-.903 4.101 0 14.188-4.198 21.558-8.972 2.2-1.425 5.8-3.203 8-3.952 2.2-.748 5.073-2.197 6.385-3.218 1.312-1.022 2.911-1.858 3.554-1.858.643 0 3.193-1.283 5.665-2.851 2.473-1.568 6.049-3.145 7.946-3.504 1.898-.358 5.664-1.775 8.369-3.148 2.706-1.374 5.717-2.497 6.691-2.497.975 0 2.05-.45 2.39-1 .34-.55 1.478-1 2.529-1 1.05 0 3.513-.9 5.471-2 1.958-1.1 4.045-2 4.637-2 .593 0 3.841-1.299 7.22-2.887 3.379-1.587 7.943-3.457 10.143-4.155 3.34-1.059 17.492-7.659 25-11.659 3.112-1.658 6.455-2.984 13.5-5.356 3.575-1.203 7.175-2.723 8-3.378 5.648-4.481 16.447-6.142 23.264-3.579 1.78.669 4.136 1.561 5.236 1.984 5.46 2.096 15.481 5.03 17.181 5.03 1.056 0 2.346.404 2.869.898.522.494 5 2.248 9.95 3.897 11.968 3.988 35.094 5.629 47.5 3.37 3.025-.55 7.484-1.332 9.909-1.736 2.426-.404 7.775-2.466 11.889-4.582 4.113-2.116 8.019-3.847 8.68-3.847.662 0 3.637-1.342 6.612-2.982 3.49-1.923 6.863-2.988 9.505-3 4.915-.022 7.957-2.706 7.056-6.228-.728-2.849-9.211-12.625-12.05-13.886-1.155-.514-3.451-1.798-5.101-2.854s-8.513-4.726-15.25-8.155c-9.882-5.029-12.25-6.646-12.25-8.365 0-2.502 1.763-4.527 3.95-4.536 1.602-.007 3.191-.752 11.335-5.314 2.632-1.474 5.643-2.68 6.691-2.68s2.184-.45 2.524-1c.34-.55 2.054-1.007 3.809-1.015 3.649-.016 10.994-2.383 14.059-4.53 1.142-.8 3.088-1.455 4.324-1.455 1.236 0 3.85-.9 5.808-2 1.958-1.1 4.019-2 4.579-2 .56 0 2.88-.9 5.157-2s4.736-2 5.465-2c.73 0 2.108-.373 3.063-.829 5.654-2.698 11.271-5.802 15.036-8.308 2.365-1.575 5.103-2.863 6.083-2.863.981 0 2.092-.308 2.469-.685 1.269-1.27 8.123-3.285 11.223-3.3 1.75-.009 8.179-2.6 14.925-6.015 6.518-3.3 12.963-6 14.323-6 3.366 0 13.138-3.638 22.065-8.213 4.064-2.083 8.213-3.787 9.22-3.787 1.008 0 4.489-1.35 7.736-3s6.712-3 7.701-3c.989 0 2.508-.617 3.376-1.37 3.918-3.401 11.173-6.577 21.079-9.229 1.375-.368 6.775-3.437 12-6.82 10.452-6.766 12.594-7.882 18.5-9.638 2.2-.654 4.781-1.583 5.736-2.066.955-.482 2.198-.877 2.761-.877.564 0 2.932-.843 5.264-1.873 2.331-1.031 6.159-2.401 8.506-3.045 2.347-.645 6.237-2.502 8.645-4.127 2.408-1.625 5.181-2.955 6.162-2.955 1.968 0 7.948-1.751 10.662-3.123.955-.482 2.616-.877 3.691-.877 1.075 0 2.233-.45 2.573-1 .34-.55 2.14-1 4-1 1.86 0 3.66-.45 4-1 .34-.55 1.539-1 2.664-1 1.125 0 3.911-1.249 6.191-2.775 2.28-1.526 5.945-3.305 8.145-3.955 2.2-.649 7.019-2.1 10.709-3.225 3.69-1.125 7.853-2.045 9.25-2.045H1406v54.011c0 51.339.096 54.22 1.941 58.25 1.067 2.331 2.08 5.364 2.25 6.739.267 2.16.989 2.61 5.309 3.312 14.788 2.403 15.981 2.269 26.24-2.96 9.445-4.815 14.26-8.944 14.26-12.229 0-.948.472-2.195 1.048-2.771.695-.695.853-6.743.469-17.95-.319-9.296-.799-37.804-1.068-63.351-.428-40.724-.296-46.854 1.074-49.742 1.755-3.697 12.158-11.309 15.457-11.309 1.15 0 3.101-.662 4.337-1.472 1.235-.809 4.989-2.348 8.342-3.419 6.562-2.096 13.043-5.034 17.841-8.088 5.861-3.73 8.843-5.021 11.595-5.021 1.533 0 3.065-.45 3.405-1 .34-.55 1.695-1 3.012-1 2.6 0 7.101-1.69 9.488-3.564 3.137-2.462 11.15-6.436 12.976-6.436 1.048 0 2.184-.45 2.524-1 .34-.55 2.14-1 4-1 1.86 0 3.66-.45 4-1 .34-.55 1.476-1 2.524-1 1.903 0 10.14-4.138 12.976-6.518.825-.693 3.075-1.577 5-1.966 1.925-.388 5.75-1.751 8.5-3.028 8.323-3.865 16.903-6.488 21.222-6.488 2.249 0 5.819-.874 7.933-1.942 2.115-1.069 6.641-2.892 10.058-4.052 3.417-1.16 9.666-3.886 13.888-6.058 4.221-2.171 8.274-3.948 9.007-3.948.732 0 2.934-.9 4.892-2 1.958-1.1 5.085-2 6.949-2 5.891 0 6.551-.666 6.551-6.607 0-2.966-.268-5.393-.596-5.393-.327 0-1.79.631-3.25 1.401-1.46.771-4.679 1.944-7.154 2.607-2.475.663-8.775 3.134-14 5.492s-11.277 4.849-13.449 5.537c-2.172.687-6.129 2.535-8.794 4.106-2.665 1.571-6.063 2.86-7.551 2.865-3.249.009-12.988 2.93-19.206 5.761-5.452 2.482-10.126 3.693-20 5.179-4.86.732-8.732 1.979-11 3.543-1.925 1.327-6.926 3.97-11.113 5.873-4.187 1.903-14.312 6.711-22.5 10.683-20.723 10.054-31.408 14.953-32.615 14.953-.567 0-7.746 3.189-15.954 7.087-8.209 3.897-15.576 6.836-16.371 6.531-1.836-.704-1.854-4.707-.042-9.044 1.261-3.019 2.251-3.636 9.688-6.044 4.556-1.475 9.886-3.485 11.845-4.468 1.959-.983 6.487-2.749 10.062-3.926 3.575-1.177 9.005-3.651 12.067-5.498 5.924-3.573 15.881-7.636 18.721-7.64.941-.002 4.373-1.811 7.626-4.02 3.253-2.21 8.428-4.748 11.5-5.641 3.072-.893 8.061-2.844 11.086-4.336 3.025-1.492 8.2-3.529 11.5-4.526 3.3-.998 7.35-2.636 9-3.641 1.65-1.004 3.912-1.828 5.027-1.83 1.116-.002 2.916-.625 4-1.385 3.635-2.544 24.41-10.641 33.645-13.112 5.025-1.345 10.754-3.515 12.732-4.823 1.978-1.307 5.396-2.995 7.596-3.751 2.2-.755 9.288-4.273 15.75-7.818 9.671-5.304 11.75-6.847 11.75-8.721 0-2.525-1.513-3.991-2.49-2.41-.345.559-1.281 1.016-2.08 1.016-.798 0-3.359.847-5.691 1.882-2.331 1.035-5.814 2.462-7.739 3.171-1.925.71-6.801 3.013-10.835 5.119-4.034 2.105-8.17 3.828-9.191 3.828-1.021 0-2.134.45-2.474 1-.34.55-1.879 1-3.421 1-1.541 0-6.302 1.8-10.579 4-4.277 2.2-9.115 4-10.752 4-1.637 0-4.612.85-6.612 1.888-2 1.039-5.661 2.444-8.136 3.123-2.475.679-10.8 4.29-18.5 8.023-7.7 3.734-15.701 7.027-17.781 7.319-2.079.292-5.186 1.232-6.903 2.089-1.718.857-3.928 1.558-4.911 1.558-.983 0-2.065.45-2.405 1-.34.55-1.376 1-2.302 1-1.656 0-20.821 9.342-26.698 13.014-4.597 2.872-8.711 4.986-9.702 4.986-.492 0-2.757.9-5.034 2-2.277 1.1-5.379 2-6.893 2-1.514 0-3.031.45-3.371 1-.34.55-1.478 1-2.529 1-1.05 0-3.513.9-5.471 2-6.69 3.758-12.12 2.113-13.37-4.049-.6-2.956-1.151-3.495-3.843-3.759-1.728-.169-5.175.618-7.66 1.75-6.174 2.813-17.172 2.841-22.627.058-11.097-5.661-15.087-.111-16.518 22.974-.323 5.211-1.126 10.576-1.785 11.923-1.112 2.275-6.531 5.4-19.697 11.362-2.475 1.121-5.281 2.421-6.236 2.889-.955.469-2.616.852-3.691.852-1.075 0-2.233.45-2.573 1-.34.55-1.478 1-2.529 1-1.05 0-3.386.808-5.191 1.796-1.804.988-5.305 2.399-7.78 3.136-2.475.736-7.2 2.579-10.5 4.095-3.3 1.516-8.25 3.505-11 4.421-2.75.915-8.15 3.176-12 5.025-3.85 1.849-9.925 4.354-13.5 5.566-3.575 1.213-7.175 2.757-8 3.431-.825.674-2.175 1.524-3 1.889-.825.365-2.85 1.525-4.5 2.579-1.65 1.054-3.742 1.949-4.648 1.989-.907.04-4.215 1.423-7.352 3.073-3.137 1.65-6.562 3-7.612 3-2.172 0-10.632 3.777-11.46 5.116-.3.486-1.532.898-2.737.915-1.205.018-4.88 1.368-8.166 3-3.286 1.633-6.345 2.969-6.798 2.969-.453 0-2.686.9-4.963 2s-4.642 2-5.256 2c-.614 0-3.245 1.35-5.847 3-2.602 1.65-5.771 3-7.042 3-2.304 0-5.426 1.407-11.119 5.012-4.552 2.881-8.359 4.606-15.5 7.022-3.575 1.209-6.928 2.597-7.45 3.082-.523.486-1.873.886-3 .888-1.128.002-3.523.902-5.324 2-1.801 1.098-4.618 1.996-6.261 1.996-1.643 0-4.894.862-7.226 1.916-2.331 1.054-6.039 2.466-8.239 3.138-2.2.673-4.9 1.559-6 1.971-1.1.411-4.025 1.34-6.5 2.065-2.475.724-5.976 2.126-7.78 3.114-1.805.988-4.189 1.796-5.299 1.796-1.11 0-3.88.9-6.157 2s-4.929 2-5.893 2c-.964 0-2.031.45-2.371 1-.34.55-1.69 1-3 1s-2.66.45-3 1c-.34.55-1.498 1-2.573 1s-2.736.429-3.691.953c-.955.524-4.5 1.886-7.879 3.027-3.378 1.141-10.538 4.312-15.91 7.047-5.372 2.735-10.167 4.973-10.656 4.973-.488 0-2.75.9-5.027 2s-4.865 2-5.752 2c-.887 0-2.039.384-2.562.853-.522.468-3.2 1.438-5.95 2.155-2.75.716-5.476 1.666-6.058 2.111-.583.444-4.441.937-8.575 1.095-7.474.284-7.547.262-13.191-3.996-5.2-3.924-5.676-4.61-5.676-8.185 0-6.058 1.314-8.151 8.496-13.533 3.67-2.75 7.423-5.719 8.339-6.598 3.108-2.984 13.66-15.162 14.545-16.786 1.229-2.257 7.859-9.116 8.812-9.116 1.25 0 12.943-9.152 13.268-10.385 1.653-6.266 5.327-16.791 6.807-19.499 1.571-2.875 1.787-5.058 1.436-14.5-.227-6.114-.908-12.916-1.513-15.116-.605-2.2-1.413-5.314-1.795-6.921-.381-1.607-1.976-4.822-3.544-7.145-1.568-2.323-2.851-4.743-2.851-5.377 0-.635-.9-3.016-2-5.293s-2-4.811-2-5.631c0-.82-.42-2.873-.932-4.562-.513-1.689-1.461-5.096-2.106-7.571-.646-2.475-2.026-6.23-3.068-8.345-1.042-2.114-1.894-4.483-1.894-5.263 0-.781-.391-2.201-.87-3.156-.478-.955-1.833-3.761-3.01-6.236-3.234-6.799-5.91-10.944-9.171-14.205-1.622-1.622-2.949-3.788-2.949-4.813s-.45-2.142-1-2.482c-.55-.34-1-1.519-1-2.621s-.645-4.113-1.433-6.691c-.789-2.578-1.632-6.816-1.875-9.416l-.441-4.728 3.064.336c1.686.184 4.884 1.862 7.108 3.728l4.043 3.392 10.59-.093c9.733-.086 10.905-.308 14.499-2.75 2.224-1.512 5.293-2.657 7.118-2.657 1.765 0 3.487-.45 3.827-1 .34-.55 1.626-1 2.859-1s2.668-.372 3.191-.826c.522-.454 2.975-1.406 5.45-2.114s5.4-1.653 6.5-2.099c1.974-.8 3.168-1.086 13-3.117 8.348-1.725 20.422-2.154 22.073-.784 1.62 1.345 3.116.379 9.177-5.929 3.794-3.948 4.067-6.093 1.112-8.726-3.403-3.032-5.206-8.267-5.994-17.405-.404-4.675-1.248-10.525-1.876-13-.628-2.475-1.539-7.425-2.025-11-1.116-8.217-2.273-13.308-4.32-19-.89-2.475-1.624-5.764-1.632-7.309-.014-2.648-6.466-17.225-10.043-22.691-2.787-4.26-7.983-18.337-7.977-21.615.003-1.713-.858-4.212-1.913-5.553-1.055-1.341-2.593-5.699-3.417-9.685-.825-3.986-2.212-8.333-3.083-9.662-.87-1.328-1.582-3.118-1.582-3.977s-1.532-4.588-3.404-8.285c-6.495-12.826-10.596-21.747-10.596-23.052 0-.721-1.261-3.192-2.803-5.491-1.541-2.299-3.876-7.468-5.188-11.487-1.312-4.019-2.75-7.533-3.197-7.809-.447-.276-.812-1.362-.812-2.413 0-1.05-.9-3.513-2-5.471-1.1-1.958-2-4.195-2-4.971 0-.775-1.35-4.011-3-7.192-1.65-3.18-3-6.561-3-7.512 0-2.224-1.927-6.667-4.21-9.71-1.215-1.618-1.79-4.155-1.79-7.892v-5.508l6.046.632c3.325.348 6.896 1.087 7.934 1.642 1.039.556 3.467 1.011 5.395 1.011 1.929 0 3.785.45 4.125 1 .34.55 1.478 1 2.529 1 1.05 0 3.513.9 5.471 2 1.958 1.1 4.153 2 4.877 2 .724 0 2.847.788 4.719 1.75 2.933 1.508 6.396 1.75 25.001 1.75 17.124 0 21.949-.292 23.297-1.411 1.05-.872 5.74-1.727 12.272-2.237 5.816-.454 11.939-1.506 13.607-2.338 1.669-.833 4.289-1.514 5.822-1.514 1.533 0 3.065-.45 3.405-1 .34-.55 2.59-1 5-1s4.66-.45 5-1c.34-.55 2.59-1 5-1s4.66-.45 5-1c.34-.55 1.478-1 2.529-1 1.05 0 3.513-.9 5.471-2 1.958-1.1 5.1-2 6.98-2 2.05 0 5.142-1.119 7.72-2.793 4.59-2.982 10.219-5.187 13.371-5.238 1.061-.018 4.618-1.368 7.904-3 3.286-1.633 6.46-2.969 7.053-2.969.594 0 3.53-1.231 6.526-2.736 4.801-2.411 13.343-5.251 20.946-6.962 1.375-.31 3.175-1.121 4-1.803 3.058-2.527 10.677-6.172 16.5-7.891 6.779-2.002 12.131-4.494 13.72-6.387.793-.945.513-1.877-1.073-3.565-1.89-2.011-2.147-3.441-2.147-11.935 0-8.57.22-9.768 1.965-10.702 3.198-1.712 37.529-1.185 43.367.665 5.529 1.752 15.542 1.132 20.127-1.247 1.523-.79 3.155-1.437 3.626-1.437.471 0 3.239-1.09 6.151-2.422 2.913-1.332 6.536-2.734 8.053-3.114 2.871-.721 6.008-4.175 5.11-5.627-.695-1.125-4.763-1.066-5.949.086-2.18 2.119-24.784 4.879-37.45 4.573-13.115-.316-34.274-3.069-37.866-4.927l-2.976-1.538.492-9.266c.477-8.986 1.958-32.257 2.556-40.154.164-2.175.955-4.248 1.794-4.703 2.654-1.439 8.39-3.703 12.5-4.933 2.2-.659 4.989-1.818 6.198-2.576 1.209-.757 5.24-2.522 8.959-3.922 3.718-1.399 7.524-3.235 8.457-4.08.933-.845 3.871-2.19 6.527-2.99 2.657-.799 6.556-2.595 8.665-3.991 2.108-1.395 4.809-2.397 6.002-2.226 1.926.275 1.579.893-3.119 5.535-2.908 2.873-7.251 6.094-9.652 7.156-4.01 1.773-7.175 5.148-5.964 6.358 1.027 1.028 9.991-1.54 11.716-3.355.984-1.036 2.15-1.884 2.591-1.884 1.15 0 8.693-7.428 15.234-15 6.3-7.295 15.886-21.891 15.886-24.189 0-.827.722-2.951 1.604-4.72 2.968-5.948-1.081-5.146-4.471.886-3.266 5.812-16.705 17.154-25.238 21.3-4.067 1.976-12.943 5.45-19.724 7.719-6.78 2.27-13.881 4.999-15.78 6.065-1.899 1.067-4.382 1.939-5.519 1.939-1.137 0-5.736 1.771-10.22 3.935-4.483 2.164-11.302 4.93-15.152 6.147-3.85 1.217-7.781 2.596-8.736 3.065-.955.469-2.404.853-3.22.853-.816 0-3.086.9-5.044 2-1.958 1.1-4.421 2-5.471 2-1.051 0-2.189.45-2.529 1-.34.55-1.69 1-3 1s-2.66.45-3 1c-.34.55-1.69 1-3 1s-2.66.45-3 1c-.34.55-2.195 1-4.122 1s-6.288 1.313-9.691 2.917c-5.972 2.815-7.739 3.256-19.687 4.911-3.025.42-7.075 1.488-9 2.375-1.925.887-5.3 1.859-7.5 2.161-5.374.736-14.682 2.288-22 3.667-17.008 3.205-24.885 4.06-45.5 4.938-12.375.527-25.012 1.213-28.083 1.525-3.413.347-7.689.02-11-.84-2.979-.774-9.242-1.726-13.917-2.114-12.777-1.062-21.06-3.257-32.687-8.663-3.403-1.582-6.628-2.877-7.167-2.877-1.104 0-13.837-6.587-16.146-8.353-2.916-2.23-5.996-3.647-7.927-3.647-1.075 0-2.233-.45-2.573-1-.34-.55-1.39-1-2.334-1-.945 0-4.405-1.336-7.691-2.969-3.286-1.632-6.585-2.982-7.33-3-.745-.017-3.22-1.283-5.5-2.814-6.997-4.697-24.788-12.906-31.645-14.6-3.575-.883-7.625-2.503-9-3.599-2.522-2.011-7.355-4.509-14.248-7.362-9.528-3.945-6.704-13.403 5.859-19.617 7.715-3.816 12.055-8.611 16.946-18.722 2.444-5.051 4.443-10.25 4.443-11.554 0-1.304 1.298-4.419 2.885-6.921 2.503-3.946 3.465-4.641 7.25-5.24 2.401-.379 6.043-1.795 8.094-3.146 2.05-1.351 4.118-2.456 4.594-2.456s2.736-1.889 5.021-4.197c3.044-3.075 4.158-5.015 4.162-7.25.004-1.679.7-4.383 1.547-6.008.848-1.625 1.802-6.35 2.12-10.5.499-6.494.266-8.211-1.67-12.322-1.237-2.628-4.106-6.378-6.376-8.334-3.718-3.205-4.523-3.491-8.127-2.888-10.503 1.755-9.876 1.836-11.75-1.524-.962-1.727-1.75-4.848-1.75-6.936s-.65-5.353-1.445-7.254c-2.257-5.403-22.778-25.491-33.011-32.315-4.926-3.285-10.054-6.984-11.396-8.222-1.342-1.238-2.792-2.25-3.223-2.25-1.486 0-3.925-3.149-3.925-5.069 0-1.059 1.462-3.614 3.25-5.678 3.332-3.847 6.138-8.239 5.569-8.715-3.194-2.672-8.038-3.184-9.819-1.038-1.854 2.234-3.928 1.819-5-1-.523-1.375-1.685-2.5-2.584-2.5-1.291 0-1.481-.576-.907-2.75.81-3.066.875-3.766.649-7-.199-2.838-1.514-2.857-4.119-.061m-109.976 12.258c4.761 1.935 7.848 4.301 14.73 11.291C849.351 292.461 851 294.871 851 299.58v3.65l-5.253-.656c-3.932-.491-5.755-.277-7.25.853-4.659 3.521-9.616 1.319-16.723-7.427-6.115-7.525-7.398-10.414-8.094-18.219-.471-5.288-.273-7.045.932-8.25 1.999-1.999 2.364-1.963 9.451.916m73.555 18.37c3.364 1.056 8.764 2.215 12 2.575 3.235.361 8.807 1.956 12.382 3.546 3.575 1.589 8.854 3.8 11.732 4.913 5.257 2.033 34.268 20.66 34.268 22.003 0 .394 3.159 3.851 7.02 7.682 5.56 5.515 7.98 8.941 11.63 16.464 5.352 11.03 7.223 19.511 7.297 33.075l.053 9.575-7 17.421c-3.85 9.582-7 17.794-7 18.249 0 1.784-13.714 18.447-18.954 23.03-7.052 6.168-25.037 15.25-36.046 18.202-4.675 1.253-15.025 3.036-23 3.961-7.975.925-14.861 1.904-15.302 2.176-.441.271-9.666.446-20.5.388-22.418-.119-28.833-1.468-36.5-7.672-2.309-1.869-6.184-4.315-8.611-5.436-9.746-4.501-20.749-15.376-25.937-25.637-1.159-2.292-3.406-6.117-4.993-8.5-1.587-2.383-3.867-6.991-5.067-10.242-1.2-3.25-3.108-7.212-4.241-8.802-3.459-4.858-5.917-12.843-6.846-22.24-.767-7.759-.637-9.557.976-13.5 1.024-2.501 2.14-6.928 2.481-9.837 1.145-9.776 3.847-13.42 5.08-6.85.347 1.849 1.966 5.7 3.599 8.559 2.709 4.743 3.249 5.172 6.157 4.889 2.289-.222 3.273-.873 3.489-2.309.165-1.1 1.453-5.266 2.862-9.257 2.738-7.757 2.601-7.652 11.103-8.586 5.179-.569 5.244-.126 1.265 8.649-1.641 3.621-3.257 8.97-3.59 11.888-.55 4.827-.235 6.04 3.488 13.437 4.069 8.085 15.9 22.369 18.528 22.369.689 0 2.277.888 3.529 1.974 3.075 2.667 12.309 6.026 16.565 6.026 2.327 0 5.016-1.107 8.213-3.38 2.613-1.859 6.641-4.332 8.95-5.494 2.382-1.2 5.48-3.978 7.165-6.427 1.633-2.373 3.678-4.903 4.546-5.624 3.795-3.149 7.817-22.157 5.771-27.275-1.171-2.929-11.219-9.67-16.859-11.309-8.237-2.395-16.394-11.375-11.899-13.099 1.706-.655 4.854.913 9.556 4.761 4.327 3.542 8.274 3.654 12.204.347 1.634-1.375 3.572-2.5 4.305-2.5.734 0 3.163 2.897 5.399 6.437 2.236 3.541 5.923 8.154 8.193 10.25 5.791 5.35 8.253 10.589 8.04 17.111-.209 6.401.129 7.068 3.278 6.466 4.117-.787 4.938-4.669 4.347-20.551-.37-9.963-1.018-15.345-2.165-18-1.038-2.401-1.319-4.354-.77-5.337.724-1.292 1.309-1.024 3.529 1.614 1.464 1.74 2.662 3.543 2.662 4.007 0 .464 1.35 1.141 3 1.503 1.65.362 3 1.073 3 1.579 0 1.509 3.205 1.046 5.188-.75 1.739-1.573 2.012-1.512 4.686 1.05 1.561 1.496 3.372 4.498 4.023 6.671 1.536 5.126 3.103 5.054 3.103-.143 0-4.885-3.565-22.93-5.395-27.308-.712-1.705-3.614-5.637-6.45-8.739-2.835-3.102-5.155-5.945-5.155-6.317 0-1.568-5.363-7.522-9.12-10.126l-4.056-2.811-20.493-.053c-19.305-.05-20.577-.169-21.955-2.053-1.915-2.618-2.749-6.085-1.959-8.144.561-1.463 2.225-1.581 14.858-1.053 9.81.409 16.124 1.19 20.343 2.514m-54.939 70.384c4.714 1.704 4.622 4.079-.179 4.62-1.65.186-3.775 1.035-4.721 1.888-1.766 1.589-19.292 4.71-20.894 3.72-1.496-.925-.991-8.18.686-9.858 1.956-1.956 19.988-2.222 25.108-.37m172.378 2.049c2.584 2.723 3.404 4.729 5.517 13.492 1.505 6.238 1.505 7.187.007 12.335-1.084 3.726-2.528 6.244-4.352 7.586-3.789 2.788-7.542 3.56-9.686 1.992-1.596-1.167-1.736-2.737-1.358-15.228.361-11.925.74-14.538 2.638-18.177 2.504-4.798 4.147-5.253 7.234-2m411.555 70.626c-1.503 1.661-1.521 1.945-.155 2.469 1.152.442 1.543 2.104 1.543 6.564 0 5.778-.19 6.21-5.832 13.282-3.208 4.02-8.472 11.134-11.698 15.809-7.396 10.716-22.313 27.825-24.962 28.628-1.105.335-2.683 1.188-3.508 1.897-.825.709-3.388 1.792-5.696 2.406-7.467 1.988-11.17 10.197-5.878 13.029 2.144 1.148 3.185.942 8.979-1.769 11.715-5.482 18.214-10.57 23.44-18.354 1.722-2.564 3.495-4.814 3.94-5 1.051-.438 12.327-17.028 14-20.596 3.213-6.857 3.955-7.841 7.094-9.418 4.214-2.117 6.121-1.405 6.121 2.284 0 4.07 1.223 3.597 3.342-1.293 1.479-3.414 1.625-4.937.794-8.25-.561-2.235-1.267-7.574-1.57-11.864-.302-4.29-1.019-8.677-1.593-9.75-1.351-2.526-6.104-2.567-8.361-.074M528.737 482c2.5 2.2 5.101 4 5.781 4 .681 0 1.809.69 2.509 1.533 1.7 2.048 29.693 16.038 38.353 19.168 3.784 1.367 10.838 3.081 15.677 3.808 5.527.83 10.405 2.239 13.12 3.788 3.146 1.795 6.484 2.636 12.261 3.088 4.365.342 9.315 1.043 11 1.558 4.368 1.336 12.68 2.774 22.924 3.966 4.874.567 9.374 1.443 10 1.946 3.016 2.422 25.828 4.345 37.138 3.13 16.724-1.797 26.561-1.99 27.12-.532.289.751-1.701 4.669-4.42 8.706-2.72 4.038-6.455 9.941-8.301 13.119-1.846 3.178-6.218 9.028-9.717 13-7.384 8.383-16.466 22.612-19.929 31.222-5.709 14.194-7.041 16.19-11.565 17.328-11.014 2.769-40.007 4.778-44.364 3.075-1.553-.608-5.694-1.473-9.202-1.923-3.652-.468-8.78-2.048-12-3.696-3.092-1.583-10.347-5.346-16.122-8.363-5.775-3.016-12.525-6.309-15-7.318-4.222-1.719-29.251-13.545-33.387-15.774-1.038-.559-3.513-1.951-5.5-3.092-16.331-9.377-21.878-11.84-42.519-18.881-9.997-3.41-10.093-3.849-3.579-16.374 11.334-21.797 12.567-24.117 15.724-29.581 2.33-4.033 3.407-7.388 3.853-12 .34-3.52.908-6.928 1.263-7.572 1.019-1.849 12.148-11.329 13.3-11.329.571 0 3.083 1.8 5.582 4m396.258 1.75c-.005 4.033-10.318 26.643-13.256 29.062-.877.722-3.175 4.598-5.106 8.613-1.932 4.016-4.893 8.825-6.581 10.688-1.687 1.863-3.868 4.287-4.847 5.387-.978 1.1-7.837 7.572-15.241 14.382-7.405 6.811-14.11 13.414-14.9 14.674-.789 1.261-2.425 2.743-3.634 3.294-1.21.551-4.363 3.848-7.007 7.326-5.392 7.093-12.273 13.789-14.192 13.81-1.454.016-.795-3.808 1.409-8.186.748-1.486 1.36-3.382 1.36-4.215 0-3.226 3.438-11.484 8.57-20.585 2.946-5.225 6.425-12.447 7.731-16.05 2.61-7.195 2.742-7.442 7.493-13.989 3.737-5.151 10.04-18.718 11.131-23.961.4-1.925 1.214-4.4 1.808-5.5.594-1.1 1.559-3.808 2.144-6.017 1.29-4.87 4.682-7.146 12.863-8.629 3.168-.574 8.91-1.62 12.76-2.323 3.85-.704 9.362-1.336 12.25-1.405L925 480l-.005 3.75m-95.283-.762c5.647.51 11.6 1.639 13.316 2.527 2.624 1.356 3.013 2.022 2.515 4.295-.7 3.19 2.889 24.8 4.425 26.652 1.92 2.313.039 4.414-4.569 5.105-2.433.365-4.67 1.062-4.97 1.548-.301.487-2.596.885-5.101.885-5.42 0-13.27 4.492-22.28 12.75-3.151 2.888-6.089 5.25-6.528 5.25-.44 0-.485-2.587-.099-5.75.385-3.163.648-6.425.585-7.25-.841-10.938 1.196-25.849 4.436-32.47 1.407-2.876 2.558-6.322 2.558-7.657 0-2.814 2.566-6.888 4.307-6.839.656.018 5.788.448 11.405.954M977 491.546c4.125 1.836 8.525 3.623 9.777 3.972 1.252.349 4.278 2.366 6.725 4.484 4.698 4.066 29.761 16.718 39.852 20.117 6.598 2.223 15.323 6.388 17.646 8.423.825.723 5.004 2.254 9.288 3.401 4.283 1.148 8.558 2.495 9.5 2.995 2.015 1.068 13.079 4.342 22.043 6.522 3.482.847 8.896 1.54 12.032 1.54 3.136 0 8.162.71 11.169 1.578 4.062 1.173 11.683 1.692 29.63 2.019 23.389.426 24.397.364 31.5-1.953 4.036-1.316 9.767-2.725 12.735-3.132 2.968-.407 7.654-1.786 10.412-3.064 2.759-1.278 7.98-2.615 11.603-2.971 3.624-.356 11.754-2.232 18.069-4.169 6.314-1.936 15.635-4.101 20.713-4.81 5.392-.753 10.6-2.114 12.52-3.27 9.058-5.459 13.536-7.407 18.188-7.91 2.804-.304 6.673-1.461 8.598-2.571 9.487-5.472 10.807-6.007 21.5-8.721 6.792-1.723 6.831-1.693 6.128 4.724-.347 3.163-1.302 15.2-2.123 26.75-.931 13.104-2.093 22.692-3.091 25.5-1.62 4.558-1.578 11.268.175 28.226.527 5.091.357 7.137-.697 8.416-2.528 3.067-11.274 8.003-18.892 10.66-4.125 1.439-10.2 3.749-13.5 5.134-3.3 1.384-7.426 2.527-9.169 2.54-3.968.03-15.006 2.795-18.331 4.592-6.594 3.564-19.382 7.672-32.28 10.369-7.821 1.636-16.47 3.668-19.22 4.517-6.121 1.889-22.456 4.107-44.583 6.053-25.146 2.212-31.527 1.326-63.417-8.806-6.05-1.922-14.375-4.493-18.5-5.713-4.125-1.219-10.2-3.255-13.5-4.522-3.3-1.267-9.375-3.014-13.5-3.881-4.125-.868-10.65-2.254-14.5-3.081-8.818-1.895-17.521-1.94-20.032-.105-1.665 1.218-1.747 1.71-.633 3.793 1.428 2.668 8.727 7.427 12.931 8.431 1.504.359 3.184.984 3.734 1.388.55.405 3.389.954 6.309 1.221 2.92.267 5.744.921 6.276 1.453s2.114 4.083 3.515 7.891c2.395 6.508 2.615 8.725 3.657 36.924 1.345 36.434 1.426 52.159.328 64-.966 10.426.423 21.747 3.022 24.618.937 1.035 2.82 1.882 4.186 1.882 2.447 0 2.474-.092 1.852-6.25-.348-3.437-.158-10.075.422-14.75.579-4.675 1.5-16.15 2.046-25.5.545-9.35 1.306-22.4 1.689-29 .415-7.126 1.259-12.987 2.08-14.43 1.312-2.309 1.448-2.339 2.718-.603.735 1.005 2.751 5.249 4.479 9.43 1.729 4.182 3.97 9.439 4.98 11.684 3.26 7.243 6.098 14.736 8.68 22.919 1.388 4.4 4.04 11.026 5.893 14.725 1.852 3.699 3.368 7.38 3.368 8.179 0 .8 2.059 5.874 4.575 11.275 2.516 5.402 6.533 15.516 8.925 22.476 2.393 6.961 5.004 13.936 5.802 15.5.798 1.565 4.223 10.72 7.611 20.345 3.388 9.625 6.801 19.3 7.584 21.5 2.148 6.035 9.363 38.611 10.313 46.563.565 4.73.488 7.261-.238 7.835-1.679 1.328-7.034 2.902-20.956 6.158-7.086 1.657-15.636 3.946-19 5.086-10.675 3.619-16.812 4.966-28.616 6.284-12.58 1.404-15.278.871-18.439-3.643-2.078-2.967-2.074-14.311.007-19.292 1.926-4.609 10.047-12.69 14.581-14.509 1.843-.74 4.829-2.613 6.636-4.163 1.806-1.551 3.918-2.819 4.693-2.819 1.842 0 4.535-3.894 4.476-6.473-.026-1.115-3.395-5.627-7.487-10.027-4.092-4.4-7.468-8.675-7.503-9.5-.035-.825-2.303-3.3-5.041-5.5-8.608-6.918-18.865-19.115-28.899-34.364-6.124-9.307-11.381-16.114-14.28-18.489-5.192-4.255-12.744-13.601-12.744-15.771 0-.792-1.987-4.8-4.416-8.908-2.429-4.107-4.905-9.319-5.502-11.581-.597-2.262-2.214-5.776-3.593-7.808-5.327-7.85-10.621-19.628-12.566-27.957-1.215-5.203-3.989-13.28-6.74-19.622-.835-1.925-2.1-8.225-2.811-14-.711-5.775-1.733-12.3-2.27-14.5-.537-2.2-1.456-13.675-2.041-25.5s-1.358-27.35-1.716-34.5c-.468-9.321-1.104-13.695-2.249-15.456-1.921-2.956-1.996-16.477-.218-39.544.702-9.114.904-22.599.513-34.363-.706-21.246-.649-21.477 5.062-20.467 1.676.296 6.422 2.04 10.547 3.876M867.8 489.2c2.305 2.305 1.303 15.564-1.413 18.694-.188.217-2.152-1.471-4.364-3.751-3.478-3.584-4.023-4.75-4.023-8.612 0-3.845.383-4.675 2.75-5.959 3.378-1.833 5.478-1.944 7.05-.372m-78.804 1.05c-.007 2.324-3.687 7.215-11.851 15.75-4.472 4.675-8.136 9.175-8.142 10-.006.825-.982 3.075-2.17 5-3.117 5.05-12.617 21.621-15.886 27.709-2.815 5.242-8.064 13.276-16.525 25.291-5.044 7.163-17.899 32.344-19.447 38.095-.54 2.004-1.952 4.877-3.138 6.385-3.715 4.723-21.363 39.193-23.333 45.576-.416 1.344-2.732 7.097-5.149 12.783-2.416 5.687-5.317 13.786-6.446 18-1.129 4.213-3.145 9.093-4.481 10.844-1.335 1.751-2.428 3.873-2.428 4.715 0 .842-2.402 5.71-5.337 10.817-2.935 5.107-7.773 13.911-10.75 19.564-5.914 11.231-9.329 16.122-10.469 14.992-1.286-1.275-.446-13.404 1.589-22.926 1.082-5.062 1.967-10.987 1.967-13.167 0-3.632 2.885-15.374 4.957-20.178.475-1.1 1.759-4.025 2.854-6.5 1.095-2.475 2.565-6.975 3.267-10 .725-3.127 2.709-7.405 4.599-9.914 1.867-2.48 3.323-5.605 3.323-7.133 0-1.495 2.025-7.725 4.5-13.844 2.475-6.12 4.5-11.98 4.5-13.022 0-2.093 7.615-17.218 13.385-26.587 2.032-3.3 3.962-7.125 4.289-8.5 1.391-5.86 12.097-25.816 16.363-30.5 1.001-1.1 3.237-4.7 4.967-8 1.73-3.3 4.85-8.25 6.932-11 2.082-2.75 5.842-8.15 8.354-12 6.629-10.159 10.555-14.327 16.325-17.334 7.049-3.674 14.815-10.094 16.362-13.527 1.851-4.109 10.531-12.468 18.586-17.9 7.44-5.017 8.439-5.43 8.433-3.489m619.587 12.616c-.431.697-.513 1.537-.183 1.867.895.895 1.871-.421 1.387-1.871-.338-1.016-.574-1.016-1.204.004M1406 507c0 .55.477 1 1.059 1s.781-.45.441-1-.816-1-1.059-1-.441.45-.441 1m-10.033 10.04c-2.321 2.771-7.078 7.079-10.572 9.573-9.03 6.443-14.395 12.799-14.395 17.053 0 2.731.506 3.576 2.621 4.38 3.181 1.209 7.519-.142 15.237-4.748 2.951-1.762 7.903-3.73 11.004-4.374 5.016-1.041 6.024-.961 9.138.733 3.367 1.831 3.492 2.102 3.282 7.123-.12 2.871.105 5.217.5 5.212 1.119-.012 5.222-7.677 5.186-9.69-.017-.991-1.032-2.937-2.256-4.325-4.031-4.57-6.911-5.977-12.235-5.977-2.792 0-5.617-.54-6.277-1.2-2.125-2.125-1.293-6.688 2.108-11.56 5.011-7.18 5.035-7.24 2.844-7.24-1.136 0-3.746 2.127-6.185 5.04m-540.995 16.385c1.196 3.148-4.383 17.194-17.608 44.33-9.107 18.686-13.557 26.521-18.314 32.245l-2.077 2.5-2.013-2.394c-1.884-2.239-1.974-3.335-1.408-17 .333-8.033 1.226-16.856 1.984-19.606.759-2.75 1.541-9.05 1.739-14 .23-5.741.947-10.116 1.982-12.083 1.921-3.651 11.778-9.702 22.13-13.585 9.285-3.482 12.38-3.575 13.585-.407M1410.5 555c-.34.55-.141 1 .441 1s1.059-.45 1.059-1-.198-1-.441-1-.719.45-1.059 1M981.919 739.184c1.278 2.924 4.068 9.148 6.202 13.832 2.133 4.684 3.879 9.056 3.879 9.715 0 2.088 10.993 19.424 16.954 26.736 3.154 3.868 7.446 9.958 9.539 13.533 2.092 3.575 5.476 8.533 7.52 11.019 2.044 2.485 5.338 7.054 7.32 10.153 1.982 3.098 5.727 7.365 8.321 9.481 2.594 2.116 8.727 7.743 13.629 12.505l8.912 8.659-2.301 3.113c-2.036 2.754-4.646 4.791-11.12 8.681-5.953 3.577-8.38 7.561-10.744 17.639-.742 3.163-1.658 5.75-2.035 5.75-1.38 0-3.881-3.639-6.34-9.222-1.386-3.146-3.927-7.767-5.647-10.267-1.72-2.5-4.041-7.35-5.158-10.778-1.117-3.428-3.156-8.483-4.531-11.233-1.376-2.75-3.18-7.025-4.011-9.5-.83-2.475-2.29-5.4-3.244-6.5-1.845-2.127-3.98-6.475-6.385-13-.811-2.2-3.51-8.95-5.999-15-2.872-6.98-5.102-14.445-6.103-20.425-.867-5.184-2.254-10.459-3.081-11.722-.828-1.263-2.008-4.672-2.624-7.575-.615-2.903-1.911-6.853-2.88-8.778-2.432-4.832-5.948-16.89-5.424-18.596.238-.772.654-2.108.925-2.967.737-2.339 1.852-1.144 4.426 4.747M655.453 795.75c1.917 15.811 2.717 22.143 3.191 25.25.294 1.925.883 10.925 1.309 20 .618 13.183 1.231 17.807 3.048 23 1.699 4.857 2.429 9.759 2.886 19.397l.613 12.897-4 2.537c-2.2 1.395-7.15 3.758-11 5.251-3.85 1.493-10.6 4.331-15 6.305-4.4 1.974-9.575 3.864-11.5 4.2-1.925.335-5.719 1.24-8.432 2.011-2.712.771-7.774 1.402-11.25 1.402-7.438 0-7.501-.163-4.431-11.52 1.038-3.839 2.165-8.555 2.504-10.48.339-1.925 2.43-5.892 4.647-8.816 6.035-7.959 9.209-17.448 10.934-32.684.843-7.451 1.852-11.402 3.959-15.5 1.555-3.025 3.128-7.191 3.495-9.257.656-3.695 2.403-5.826 12.178-14.855 3.899-3.602 5.107-5.496 7.411-11.625 1.656-4.404 6.72-12.263 7.902-12.263.528 0 1.22 2.138 1.536 4.75m41.767 66.525c5.705 2.636 9.4 3.605 15.859 4.16 9.558.82 19.374 2.726 25.797 5.009 2.406.856 6.681 1.565 9.5 1.576 2.818.011 10.974.672 18.124 1.47 7.15.797 17.275 1.9 22.5 2.45 10.474 1.103 46.39 2.845 86.5 4.196 14.3.481 29.087 1.139 32.86 1.46 4.708.401 10.668-.055 19-1.454 6.677-1.12 16.694-2.284 22.259-2.586 5.566-.302 11.641-1.181 13.5-1.953 1.86-.773 6.531-1.714 10.381-2.092 8.391-.823 16.214-2.908 23.014-6.133 2.758-1.308 6.644-2.378 8.636-2.378 3.162 0 4.364.802 9.485 6.33 3.226 3.482 7.37 8.862 9.21 11.956 3.24 5.448 3.358 6.027 3.723 18.262.207 6.949.803 15.181 1.322 18.294.52 3.112 1.503 10.158 2.185 15.658.804 6.496 2.266 12.453 4.17 17 8.142 19.443 10.323 24.248 12.39 27.295 1.238 1.824 3.434 7.004 4.879 11.511 1.445 4.507 3.688 9.769 4.985 11.694 2.897 4.3 10.977 28.097 12.606 37.126.936 5.19.928 7.682-.036 11.5-.677 2.681-1.471 6.899-1.765 9.374-.657 5.525-.673 5.556-7.366 13.685-8.038 9.763-13.173 14.525-18.594 17.245-4.705 2.361-13.262 8.271-18.344 12.671-1.375 1.19-4.975 4.156-8 6.59-6.786 5.46-12.786 13.222-13.618 17.615-.36 1.906.102 6.296 1.092 10.371l1.717 7.066-5.311 5.379c-4.719 4.778-5.772 5.378-9.441 5.378-2.859 0-4.686.615-5.939 2-.995 1.1-2.753 2.002-3.905 2.004-1.152.002-3.445.805-5.095 1.784-2.984 1.772-4.361 2.156-22.5 6.272-5.225 1.185-11.721 2.782-14.435 3.549-4.685 1.322-5.051 1.283-7.246-.779-2.599-2.442-3.347-2.063-4.907 2.487-1.044 3.046-1.444 3.24-10 4.831-5.073.943-9.307 1.283-9.828.789-1.413-1.341 1.284-14.479 3.496-17.029 1.056-1.218 1.92-2.768 1.92-3.445s1.767-4.771 3.927-9.097 4.236-9.216 4.615-10.866c1.018-4.436 7.377-17.551 10.183-21 3.731-4.587 13.299-19.567 15.01-23.5.838-1.925 2.599-7.55 3.915-12.5 1.315-4.95 3.073-10.737 3.907-12.861 2.096-5.339 2.813-16.184 1.53-23.126-.878-4.751-1.937-6.767-5.83-11.104-2.616-2.915-6.075-6.94-7.686-8.946-2.171-2.704-6.311-5.278-16-9.948-7.189-3.465-13.928-7.249-14.976-8.408-1.048-1.159-2.24-2.107-2.649-2.107-.41 0-3.023-1.533-5.808-3.407-2.785-1.874-7.443-4.19-10.351-5.147-2.908-.956-8.681-3.907-12.83-6.556-4.148-2.649-10.223-5.996-13.5-7.437-3.276-1.441-9.107-4.12-12.957-5.953-3.85-1.832-10.374-4.832-14.497-6.666-4.124-1.834-11.549-5.534-16.5-8.223-4.952-2.688-16.674-9.005-26.049-14.036-17.979-9.649-22.09-12.187-26.954-16.638-1.65-1.51-5.16-3.466-7.8-4.346-2.639-.881-6.559-2.499-8.71-3.596-5.121-2.612-10.574-2.64-11.955-.061-1.841 3.44-1.133 4.873 4.573 9.257 10.925 8.394 14.228 11.365 18.123 16.309 3.007 3.817 6.101 6.137 13.079 9.805 8.561 4.501 11.619 6.695 9.33 6.695-2.591 0-13.79-3.404-17.957-5.459-2.576-1.27-6.38-2.905-8.453-3.633-2.074-.729-5.871-3.06-8.438-5.181-5.954-4.92-10.33-6.727-16.292-6.727-5.424 0-6.829 1.172-7.679 6.407-.518 3.195-.181 3.952 3.108 6.964 2.029 1.859 6.7 4.612 10.38 6.118 3.68 1.507 9.841 4.223 13.691 6.036 3.85 1.812 8.575 3.601 10.5 3.974 10.696 2.076 22.94 5.166 34.113 8.612 7.043 2.171 14.683 3.889 17.3 3.889 4.658 0 10.587 2.22 10.587 3.964 0 .501-3.015 3.527-6.699 6.724-10.25 8.893-12.713 11.617-23.339 25.814-5.417 7.238-10.55 13.741-11.406 14.451-.856.711-1.556 1.809-1.556 2.442 0 .632-1.309 2.737-2.909 4.678-1.599 1.941-4.026 5.531-5.393 7.978s-5.022 8.274-8.122 12.949c-3.101 4.675-7.312 11.851-9.357 15.946-3.452 6.912-3.73 8.133-3.878 17-.093 5.615-.779 11.257-1.663 13.684-2.841 7.799-3.95 19.214-3.241 33.37.592 11.817 4.665 46.951 7.477 64.5 1.357 8.468 3.959 24.09 4.996 30 1.168 6.651-.373 45.36-1.865 46.865-.618.624-3.019 1.608-5.335 2.187-5.095 1.272-13.412-.664-23.004-5.357-3.413-1.67-8.906-4.22-12.206-5.667-3.3-1.448-7.35-3.924-9-5.503-1.65-1.579-6.06-4.087-9.799-5.574-3.74-1.487-8.015-3.887-9.5-5.334-3.641-3.547-12.289-10.579-14.445-11.746-3.14-1.699-11.764-12.739-12.754-16.326-1.197-4.334-.41-5.192 6.953-7.576 7.913-2.562 22.921-15.424 23.009-19.719.043-2.105.155-2.102-7.897-.204-7.39 1.742-8.609 1.178-10.054-4.655-.462-1.865-1.82-5.866-3.017-8.891-1.198-3.025-2.811-7.481-3.585-9.902-.774-2.421-3.685-9.043-6.468-14.715-5.32-10.838-5.721-12.267-4.639-16.506.526-2.058-.065-3.587-2.746-7.097-3.08-4.034-4.703-8.303-7.654-20.135-.529-2.12-1.556-5.045-2.282-6.5s-1.874-5.57-2.55-9.145c-.676-3.575-2.983-11.225-5.125-17-2.158-5.815-4.308-13.846-4.819-18-.895-7.267-.816-7.764 2.555-16 1.913-4.675 3.861-10.608 4.327-13.183 1.143-6.312 2.321-8.376 8.456-14.817 3.288-3.452 6.086-7.651 7.514-11.277 1.251-3.178 5.104-10.736 8.562-16.796 3.457-6.06 7.966-15.385 10.019-20.723 2.053-5.337 4.493-10.829 5.423-12.204 2.042-3.02 2.778-4.903 4.604-11.78 1.45-5.46 5.041-13.306 6.529-14.269.467-.301.927-5.926 1.022-12.5.136-9.407-.196-12.803-1.558-15.951-2.05-4.739-3.48-12.359-4.129-22-.259-3.85-.891-8.8-1.404-11-1.26-5.4-2.204-20.93-1.4-23.026.897-2.337 5.269-1.497 14.572 2.801m-291.134 46.521c6.252.583 10.078 1.554 14.07 3.574 7.456 3.773 21.233 15.713 22.882 19.832.726 1.814 3.19 7.348 5.474 12.298 7.279 15.77 6.911 13.392 5.54 35.804l-1.236 20.196-4.658 10.936c-5.032 11.815-9.646 17.849-19.371 25.332-10.453 8.042-31.708 15.252-45.467 15.422-7.214.089-22.708-1.918-29.671-3.844-6.366-1.761-13.649-5.664-13.649-7.316 0-.52-2.137-2.158-4.75-3.639-16.752-9.499-22.151-14.225-25.332-22.173-1.258-3.145-3.355-6.733-4.66-7.974-4.528-4.303-7.443-12.862-7.578-22.244-.067-4.675.182-10.525.553-13 .371-2.475.928-8.1 1.238-12.5.821-11.681 2.979-16.864 10.201-24.5 1.821-1.925 3.315-3.835 3.319-4.244.011-.946 7.987-6.756 9.274-6.756.583 0 .7 2.08.295 5.25-.368 2.888-.758 6.121-.865 7.185-.147 1.463.659 2.119 3.305 2.688 3.2.688 3.866.396 7.763-3.406 4.229-4.126 4.262-4.211 4.124-10.921-.101-4.881.337-7.488 1.572-9.373 1.923-2.935 11.843-7.905 14.072-7.05.797.307 6.242 1.044 12.098 1.64 8.804.896 11.187.836 13.76-.343 1.711-.785 3.786-1.694 4.611-2.021 1.519-.602 7.504-.305 23.086 1.147m1017.233 1.253c-3.399 1.649-7.337 4.372-8.75 6.051-2.448 2.91-2.569 3.621-2.569 15.132 0 11.276.163 12.293 2.448 15.289 2.548 3.34 10.049 7.479 13.555 7.479 1.113 0 2.806.457 3.761 1.016 2.756 1.612 17.331-3.822 18.863-7.034.651-1.365 2.577-5.358 4.279-8.872 4.383-9.054 4.379-16.7-.014-22.246-3.598-4.543-7.564-6.864-11.728-6.864-1.614 0-4.224-.672-5.8-1.494-4.139-2.159-7.079-1.836-14.045 1.543m-380.595 2.622c.248.745-.358.976-1.667.634-1.131-.296-2.057-.969-2.057-1.495 0-1.328 3.245-.577 3.724.861m397.264 4.741c5.856 3.07 6.56 3.776 7.231 7.245.409 2.114 1.251 5.462 1.872 7.44.998 3.184.857 4.015-1.231 7.238-1.778 2.742-3.1 3.681-5.36 3.805-6.487.358-9.926-.15-10.728-1.582-.561-1.004-1.737-1.315-3.577-.947-4.016.803-6.137-2.138-7.26-10.066-1.162-8.209-.552-10.848 3.251-14.048 4.044-3.402 8.007-3.173 15.802.915m-1082.893.392c-6.069 2.337-8.615 7.244-8.539 16.452.031 3.716.539 7.239 1.128 7.828 1.455 1.455 8.406 2.98 10.566 2.318 2.037-.625 2.201-2.512.604-6.93-1.438-3.977-.421-8.472 1.917-8.472 1.737 0 5.023 5.514 6.852 11.5 1.221 3.995 4.584 4.537 6.196.999.649-1.426 1.181-5.561 1.181-9.189 0-6.556-.029-6.625-4.857-11.453-5.451-5.451-7.656-5.898-15.048-3.053m37.945 4.648c-2.317 2.791-.573 5.016 7.202 9.186 7.651 4.103 7.745 4.124 11.237 2.541 1.936-.877 3.521-2.011 3.521-2.519 0-2.091-4.388-7.809-7.047-9.184-3.753-1.941-13.31-1.956-14.913-.024m-43.474 40.624c-2.352 2.065-3.709 4.285-4.128 6.75-.344 2.021-1.545 6.492-2.67 9.935-2.413 7.387-1.984 16.133.986 20.111 1.022 1.369 4.239 3.776 7.149 5.347 4.682 2.53 5.941 2.784 10.944 2.214 5.374-.612 6.06-1.031 13.903-8.482l8.25-7.838v-9.37c0-10.724-.299-11.205-11.269-18.111-5.201-3.274-6.455-3.632-12.716-3.632-6.33 0-7.256.273-10.449 3.076m1092.573 9.328c.077.603.213 4.021.302 7.596s.76 11.45 1.491 17.5c1.511 12.508.891 40.094-.98 43.589-.8 1.496-.968 6.738-.553 17.279.328 8.323.819 24.132 1.092 35.132.273 11 .766 26.3 1.097 34l.601 14-2.938 2.788c-5.451 5.171-15.375 4.444-21.809-1.598-2.775-2.607-3.608-4.379-4.552-9.69-1.555-8.743-2.077-73.804-.73-91 1.244-15.891 1.829-17 8.969-17 4.402 0 4.962-.275 6.461-3.174 1.823-3.525 3.394-13.577 3.828-24.498.315-7.92.004-8.284-7.103-8.314-3.767-.016-8.468-1.657-9.529-3.327-1.079-1.697-.963-10.488.167-12.599.829-1.549 2.451-1.78 12.5-1.78 7.622 0 11.594.372 11.686 1.096m-965.721 9.203c1.007.386 1.625 1.932 1.7 4.25.065 2.004.435 4.993.821 6.643.856 3.652-1.257 8.494-3.715 8.514-.948.007-2.624.238-3.724.513-3.244.81-4.306-.694-5.034-7.128-.662-5.849-.567-6.214 2.527-9.738 3.221-3.669 4.477-4.185 7.425-3.054M851.764 996c2.277 1.1 4.595 2 5.152 2 1.263 0 10.032 4.78 12.163 6.63.868.753 1.858 1.37 2.2 1.37.341 0 2.621 1.35 5.066 3s5.066 3 5.825 3c.76 0 4.069 1.336 7.355 2.969 3.286 1.632 6.506 2.982 7.154 3 .649.017 5.299 2.759 10.334 6.093 10.993 7.279 15.77 10.131 22.776 13.594 10.622 5.252 14.211 12.747 14.211 29.681v10.981l-3.782 5.091c-2.08 2.8-6.221 10.041-9.201 16.091-2.981 6.05-6.587 12.8-8.012 15-3.704 5.715-15.005 28.909-15.005 30.796 0 .872-.45 1.864-1 2.204-.55.34-1 1.407-1 2.371s-.9 3.616-2 5.893c-1.1 2.277-2 4.81-2 5.629s-.45 1.767-1 2.107c-.55.34-1 1.44-1 2.445 0 1.004-.672 3.115-1.494 4.691-1.96 3.758-1.964 16.939-.006 20.364 2.928 5.121 2.102 6.461-5.557 9.019-3.882 1.296-7.283 2.722-7.559 3.169-.276.447-1.263.82-2.193.83-.93.01-7.09 2.71-13.689 6S856.703 1216 855.724 1216c-1.594 0-12.135 4.811-18.724 8.545-4.174 2.366-11.301 5.455-12.586 5.455-.666 0-3.777 1.35-6.914 3-3.137 1.65-6.67 3.014-7.852 3.031-1.181.018-4.837 1.368-8.123 3-3.286 1.633-6.683 2.969-7.55 2.969-.866 0-2.002.404-2.525.898-.522.493-2.75 1.151-4.95 1.461-2.2.31-5.715.859-7.811 1.219-3.108.534-4.243.25-6.148-1.54-1.286-1.207-2.631-3.622-2.99-5.367-.927-4.499-2.472-14.07-3.499-21.671-.482-3.575-1.367-8.412-1.965-10.75-3.413-13.34-3.269-12.362-6.188-42.25-.564-5.775-1.245-16.973-1.515-24.884-.474-13.926-.403-14.593 2.235-21 1.498-3.639 3.063-9.091 3.477-12.116 1.494-10.909 3.437-16.17 9.115-24.68 1.534-2.299 2.789-4.597 2.789-5.106 0-.508 2.611-3.802 5.801-7.319 7.387-8.143 9.271-10.878 14.704-21.351 4.805-9.262 10.457-17.342 15.372-21.974 1.71-1.612 4.06-4.762 5.221-7 1.162-2.239 4.315-6.406 7.007-9.26 2.692-2.855 4.895-5.647 4.895-6.205 0-.558 2.362-2.827 5.25-5.043 4.526-3.474 5.948-4.032 10.312-4.046 3.046-.009 6.711.781 9.202 1.984m572.736 11.5c0 9.378-.13 10.019-2.088 10.298-1.148.164-2.665-.398-3.372-1.25-1.961-2.363-6.313-1.853-10.64 1.245-4.205 3.012-11.83 6.207-14.81 6.207-1.838 0-13.641 5.591-14.59 6.911-.275.383-4.038 1.71-8.362 2.95-4.324 1.24-10.849 3.756-14.5 5.592-3.651 1.836-10.913 4.759-16.138 6.495-5.225 1.737-11.525 4.387-14 5.889-2.475 1.503-6.75 3.555-9.5 4.561-5.267 1.928-9.79 3.894-23.188 10.079-5.785 2.671-9.013 3.619-11 3.23-2.194-.429-5.999 1.122-17.312 7.058-24.625 12.92-26.558 13.852-31.602 15.24-2.694.741-7.148 2.536-9.898 3.989-6.356 3.358-16.078 7.155-40.5 15.817-17.841 6.328-37.196 14.252-46 18.834-4.049 2.107-9.983 4.318-11.648 4.34-.632.008-5.357 2.002-10.5 4.431-9.278 4.382-27.346 11.907-37.785 15.737-2.989 1.096-7.251 2.921-9.472 4.054-8.1 4.132-9.355 4.123-13.429-.097-2.334-2.419-5.391-4.298-8.416-5.173-8.599-2.487-6.297-4.409 12.519-10.452 6.474-2.079 12.092-3.457 12.486-3.064 1.111 1.111-3.652 4.307-10.178 6.829-5.958 2.303-8.432 4.75-4.801 4.75 1.068 0 8.921-3.352 17.452-7.448 8.53-4.096 16.779-7.767 18.331-8.156 1.552-.39 9.598-3.981 17.881-7.981 8.283-3.999 17.535-7.939 20.56-8.755 8.19-2.209 17.298-5.654 19.017-7.191.834-.746 7.809-3.438 15.5-5.983 7.69-2.544 17.628-6.408 22.084-8.587 4.455-2.179 11.43-5.026 15.5-6.327 4.069-1.301 11.207-3.986 15.861-5.968 4.655-1.982 9.456-3.604 10.671-3.604 1.215 0 5.734-2.187 10.043-4.859 10.102-6.265 16.977-9.711 21.197-10.624 3.388-.733 9.261-3.711 12.207-6.19 2.834-2.385 14.283-6.528 20.454-7.403 3.319-.47 9.477-2.445 13.685-4.389 4.207-1.944 8.084-3.535 8.615-3.535.531 0 3.242-1.532 6.025-3.405 2.783-1.873 6.942-3.724 9.242-4.112 2.3-.389 6.232-2.006 8.736-3.595 2.505-1.588 5.072-2.888 5.704-2.888.632 0 1.964-.9 2.959-2 .995-1.1 2.378-2 3.072-2s4.337-1.633 8.095-3.63c7.477-3.971 22.859-9.807 30.166-11.445 2.549-.571 5.319-1.657 6.155-2.414.836-.757 5.119-3.016 9.516-5.021 4.398-2.005 9.796-4.491 11.996-5.525 7.445-3.499 8-2.907 8 8.535m-1235.303 31.988c4.316 2.933 14.803 18.505 14.803 21.981 0 1.321.448 3.578.994 5.017 1.205 3.168-1.594 9.406-6.217 13.857-2.855 2.748-3.189 2.82-10.115 2.168-12.231-1.152-22.662-4.603-22.662-7.499 0-1.405 3.503-3.012 6.566-3.012 2.638 0 9.211-3.356 10.667-5.447 1.195-1.715-.323-7.578-3.891-15.022-3.783-7.894-3.971-9.189-1.785-12.308 2.11-3.013 6.98-2.902 11.64.265m372.869 11.547c2.304 1.234 2.504 5.345.434 8.965-.786 1.375-1.445 4.011-1.465 5.858-.031 2.987.214 3.298 2.215 2.806 1.237-.304 4.612-.86 7.5-1.237 4.807-.627 5.25-.516 5.25 1.309 0 1.097-.881 3.114-1.958 4.483-1.713 2.178-2.968 2.559-10.04 3.043-13.772.944-16.596-.825-17.6-11.025-.503-5.108-.261-6.197 2.209-9.939 2.637-3.995 3.91-4.67 9.705-5.148.998-.083 2.686.316 3.75.885m-173.322 14.168c.743.616 1.256 3.404 1.256 6.822 0 5.583-.107 5.817-3.149 6.877-4.882 1.702-9.132 1.322-16.735-1.496-6.199-2.298-7.076-2.948-7.679-5.692-.907-4.13 1.89-6.39 8.839-7.142 2.873-.311 6.574-.732 8.224-.936 3.723-.461 7.591.195 9.244 1.567m147.411 6.86c1.674 2.296 3.322 9.577 4.538 20.053.501 4.32.319 4.789-2.836 7.307-1.855 1.479-6.633 3.788-10.619 5.13-8.03 2.704-15.938 6.151-18.238 7.949-.825.645-4.2 1.731-7.5 2.413-3.3.682-9.6 2.982-14 5.11s-9.35 4.184-11 4.568c-1.65.384-4.575 1.522-6.5 2.529-1.925 1.007-6.875 2.816-11 4.019-11.223 3.275-12.761 4.258-14.029 8.967-3.38 12.553 1.269 74.53 6.347 84.613.77 1.528 1.654 4.428 1.964 6.443 1.09 7.075 2.205 6.894-44.918 7.311-33.861.3-43.298.682-49.364 1.997-4.125.894-11.1 2.027-15.5 2.517-4.4.49-10.475 1.593-13.5 2.449-3.025.857-12.925 2.472-22 3.589-9.075 1.118-17.262 2.266-18.194 2.552-1.091.335-2.304-.41-3.406-2.091-1.619-2.471-1.615-2.811.072-6.3 1.783-3.689 6.096-19.152 7.444-26.688.393-2.2 1.28-5.042 1.97-6.316.691-1.274 1.164-4.424 1.053-7-.215-5.003.732-9.915 2.296-11.903.65-.827.284-2.077-1.138-3.885-2.803-3.563-2.65-5.467.903-11.242 1.65-2.681 3.016-6.175 3.035-7.765.02-1.589.679-4.014 1.465-5.389.975-1.705 1.44-5.752 1.465-12.73l.035-10.229-3.756-1.916c-5.376-2.743-10.19-3.876-23.764-5.595-8.69-1.1-13.765-2.318-18.48-4.437-3.575-1.606-10.55-4.155-15.5-5.663-4.95-1.509-10.758-3.618-12.907-4.687-2.15-1.069-6.2-2.612-9-3.429-2.801-.816-5.993-2.035-7.093-2.708-1.1-.673-4.25-2.045-7-3.049-6.222-2.27-11.506-6.116-11.482-8.358.01-.934 1.248-3.586 2.75-5.893 1.503-2.307 4.265-6.911 6.14-10.231 4.91-8.698 9.092-12.666 9.092-8.626 0 .797 1.463 2.535 3.25 3.862 3.968 2.947 21.08 11.225 33.359 16.14 7.582 3.035 9.504 3.457 11.79 2.587 5.26-2 10.355-1.199 18.844 2.962 4.489 2.2 8.943 4 9.9 4 .956 0 1.984.396 2.283.881.762 1.233 4.845 2.176 13.574 3.135 17.444 1.917 20.105 3.118 25.46 11.489 1.933 3.022 3.858 5.537 4.278 5.589 3.969.49 8.199.337 10.262-.373 3.315-1.139 12.059-11.952 14.218-17.583 2.914-7.599 6.928-8.324 10.782-1.948 1.375 2.275 4.17 6.277 6.211 8.894 3.251 4.168 4.398 4.901 9.255 5.909 5.134 1.066 5.832.979 9.425-1.171 9.718-5.815 14.11-9.454 15.476-12.822 3.812-9.397 5.243-12.059 6.741-12.534 2.508-.796 6.645 1.18 7.391 3.532.65 2.045 1.057 2.092 12.836 1.473 41.218-2.167 40.174-2.048 45.87-5.246 2.912-1.635 6.481-3.25 7.93-3.589 5.309-1.242 15.772-6.556 19.517-9.914 2.117-1.897 5.423-4.238 7.348-5.203 1.925-.964 4.4-2.561 5.5-3.548 1.862-1.672 5.764-2.907 7.939-2.515.517.094 1.739 1.267 2.716 2.607m-128.445 6.881c1.29 1.202 2.347 3.835 2.768 6.894.597 4.342.259 5.854-2.754 12.306-4.417 9.458-7.414 12.324-11.99 11.466-6.568-1.232-15.062-9.666-16.592-16.472-1.158-5.153.361-7.138 5.463-7.138 3.697 0 11.35-3.452 15.298-6.901 2.991-2.613 5.123-2.655 7.807-.155m-48.177 8.183c3.702 2.498 4.519 3.554 4.064 5.25-.313 1.168-.576 2.864-.583 3.769-.022 2.571-11.762 19.639-13.997 20.349-2.928.929-3.898-.044-7.053-7.074-3.133-6.984-2.977-9.428 1.015-15.887 2.517-4.072 8.535-9.534 10.506-9.534.778 0 3.5 1.407 6.048 3.127M946.5 1195.638c3.85 3.087 7.341 6.197 7.757 6.912.959 1.644-6.073 6.506-14.59 10.089-3.392 1.426-9.542 4.282-13.667 6.346-4.125 2.063-8.625 4.088-10 4.5-1.375.411-5.697 2.271-9.605 4.131-3.908 1.861-7.784 3.384-8.615 3.384-.831 0-2.654.9-4.053 2-1.398 1.1-3.068 2-3.71 2-.642 0-5.971 1.821-11.842 4.048-5.871 2.226-13.15 4.981-16.175 6.122-3.025 1.141-9.803 4.473-15.063 7.403-8.892 4.954-39.331 18.432-48.437 21.446-2.2.728-8.019 2.776-12.931 4.552-4.911 1.775-9.47 3.021-10.129 2.768-2.365-.908-3.322-15.51-1.382-21.076.813-2.332 2.146-3.438 5.75-4.77 2.581-.953 7.392-3.21 10.692-5.014 3.3-1.805 8.7-4.169 12-5.255 3.3-1.086 8.7-3.33 12-4.987 3.3-1.657 10.725-4.42 16.5-6.14 5.775-1.72 11.85-3.768 13.5-4.552 1.65-.784 8.175-3.046 14.5-5.027 6.325-1.981 14.2-4.669 17.5-5.974 17.001-6.723 22.2-8.554 24.264-8.549 2.964.007 5.646-1.56 11.66-6.814 5.137-4.486 21.585-13.103 25.076-13.136 1.1-.011 5.15 2.506 9 5.593m-483 58.126c6.238 11.295 13.078 20.692 16.98 23.328 4.037 2.726 11.978 12.352 13.506 16.37 1.655 4.355 1.184 8.28-1.927 16.051-1.618 4.04-3.247 9.065-3.619 11.166-1.216 6.861-7.331 19.931-10.889 23.273-2.601 2.443-2.413 2.468-19.551-2.583-12.738-3.755-16.711-5.964-18.057-10.041-1.484-4.499-.668-7.365 3.731-13.102 7.043-9.187 8.891-16.545 5.932-23.626-1.865-4.463-6.142-7.552-20.796-15.016-6.771-3.449-15.714-8.309-19.874-10.8-4.16-2.491-10.974-6.17-15.142-8.175-9.615-4.624-11.052-6.17-7.153-7.69 4.766-1.858 34.134-2.331 39.072-.63 3.675 1.266 5.228 1.245 13.042-.176 4.879-.887 9.986-2.349 11.35-3.25 6.559-4.33 8.737-3.534 13.395 4.901m-92.715 4.338l-.285 5.2 5.22 3.099c10.477 6.22 10.637 8.672.879 13.476-3.489 1.717-6.772 3.123-7.295 3.123-1.444 0-12.304 10.904-12.304 12.354 0 .698-.788 2.142-1.75 3.208-3.583 3.971-6.911 9.043-8.162 12.438-1.178 3.2-2.73 7.134-9.074 23-1.698 4.248-2.317 8.346-2.72 18-.287 6.875-.915 12.922-1.396 13.438-.748.803-11.011.843-21.398.083-1.65-.12-4.236-.287-5.747-.37-3.787-.208-10.149-6.201-11.53-10.861-1.649-5.564-4.543-26.853-4.594-33.79-.071-9.691 3.549-15.857 16.73-28.5.86-.825 2.84-2.85 4.399-4.5 1.56-1.65 5.365-5.025 8.456-7.5 5.331-4.268 8.198-8.573 12.398-18.616 2.315-5.537 10.281-7.831 28.673-8.257l9.784-.226-.284 5.201m34.254 22.741c1.903 1.013 6.048 3.263 9.211 5 13.146 7.218 17.023 9.157 18.309 9.157.746 0 3.176 1.73 5.399 3.845 4.898 4.66 5.238 8.069 1.493 14.963-2.637 4.854-7.94 10.192-10.124 10.192-1.816 0-5.057 3.786-5.81 6.789-.358 1.426-1.983 4.274-3.611 6.329-1.628 2.056-3.428 5.08-4 6.721-.576 1.652-2.796 4.146-4.973 5.587-2.163 1.431-3.933 3.01-3.933 3.508 0 .498-3.15 3.197-7 5.997s-7 5.587-7 6.193c0 .606 3.192 4.057 7.093 7.669 7.1 6.573 9.326 9.951 8.307 12.606-.299.78-3.08 2.471-6.181 3.759-5.097 2.117-14.711 6.855-34.719 17.109-20.468 10.49-21.795 10.951-22.991 7.983-.388-.963-.641-18.123-.561-38.135l.146-36.384 4.58-12.616c2.52-6.938 5.899-14.307 7.509-16.376 1.611-2.068 3.422-5.218 4.026-7 2.089-6.168 4.616-8.408 16.013-14.198 6.203-3.15 13.078-6.804 15.278-8.118 4.815-2.877 8.895-3.052 13.539-.58M699 1305.192c0 1.445-9.451 5.558-22.5 9.793-7.15 2.321-15.925 5.487-19.5 7.036-3.575 1.549-12.575 4.66-20 6.914-7.425 2.254-15.3 4.65-17.5 5.324-2.2.674-7.974 3.621-12.832 6.549-6.54 3.942-10.626 5.665-15.747 6.641-3.804.725-7.93 1.942-9.168 2.704-2.371 1.459-12.964 4.958-21.019 6.942-2.622.646-6.788 2.456-9.258 4.022-2.47 1.567-5.726 3.158-7.234 3.535-1.508.377-9.042 3.71-16.742 7.405-7.7 3.695-15.575 7.207-17.5 7.805-1.925.598-8 2.448-13.5 4.112l-10 3.026-3-3.38c-1.65-1.858-4.009-5.175-5.242-7.371l-2.242-3.992 2.579-2.579c1.418-1.418 4.677-3.301 7.242-4.184 2.565-.883 6.913-2.766 9.663-4.185 2.75-1.42 9.05-4.669 14-7.222 13.321-6.87 19.06-9.087 23.524-9.087 3.195 0 4.557-.615 6.74-3.042 2.534-2.816 3.253-3.047 9.736-3.127 3.85-.047 7.45-.404 8-.794 1.456-1.033 11.534-4.77 14.788-5.483 3.374-.74 18.362-9.218 21.558-12.196 2.471-2.302 7.987-4.062 15.118-4.822 2.455-.262 5.657-1.358 7.115-2.436 4.487-3.317 10.111-5.36 17.421-6.328 9.473-1.255 10.686-1.239 20.731.273 6.942 1.045 9.201 1.062 11.03.083 1.265-.677 4.536-1.618 7.269-2.091 6.041-1.045 26.47-.926 26.47.155m-260.198 48.929c.165 3.397-.12 6.597-.634 7.111-.581.581-3.825-.399-8.552-2.583-6.868-3.173-7.614-3.795-7.594-6.334.027-3.405 2.585-6.895 5.978-8.155 1.958-.727 3.368-.417 6.5 1.429 3.907 2.302 4.007 2.5 4.302 8.532m22.448 1.032c1.625.852 1.635 1.093.135 3.382-1.991 3.039-5.222 3.168-8.802.351-2.574-2.024-2.614-2.194-.946-4.037 1.782-1.97 5.498-1.852 9.613.304M333.675 1382c2.362 4.968 1.162 27.933-1.59 30.423-1.624 1.47-2.03 1.402-5.174-.864-1.876-1.352-5.496-3.413-8.043-4.581-2.548-1.168-5.856-3.399-7.35-4.959-2.225-2.323-2.594-3.396-2.038-5.926.373-1.7 1.453-3.654 2.399-4.342.947-.688 2.298-2.669 3.002-4.402 2.443-6.014 6.628-8.297 14.612-7.971 2.141.087 3.332.834 4.182 2.622m92.436 13.039c3.514 1.124 9.427 2.737 13.14 3.583 5.877 1.34 6.836 1.878 7.408 4.156.447 1.779.223 2.761-.698 3.068-2.53.844-28.448 14.372-30.979 16.17-4.264 3.03-17.984 9.984-19.699 9.984-.892 0-4.013 1.35-6.937 3-2.924 1.65-5.935 3-6.691 3-.757 0-3.084 1.159-5.173 2.577-2.088 1.417-6.088 3.477-8.889 4.578-2.801 1.1-6.443 2.615-8.093 3.364-1.65.75-7.5 3.234-13 5.521-11.75 4.884-15.427 6.501-25.5 11.215-4.125 1.931-12.675 5.618-19 8.193-6.325 2.575-13.408 5.552-15.739 6.617-2.332 1.064-4.447 1.935-4.701 1.935-.254 0-4.646 1.986-9.761 4.413-5.114 2.427-11.263 4.933-13.664 5.569-2.401.636-5.551 2.357-7 3.824-2.545 2.575-7.749 5.15-18.978 9.391-4.04 1.525-5.625 1.736-6.5.863-.678-.677-1.298-5.466-1.497-11.572-.328-10.038-.249-10.501 2.164-12.737 3.115-2.887 5.568-4.052 13.176-6.259 3.3-.958 6.884-2.199 7.963-2.758 1.08-.56 4.443-2.304 7.473-3.876 3.03-1.572 6.196-2.872 7.036-2.889.841-.017 3.328-1.14 5.528-2.495 2.2-1.355 4.78-2.466 5.732-2.469.953-.003 4.758-1.857 8.456-4.12 3.697-2.263 8.932-4.771 11.633-5.573 2.701-.802 7.965-3.034 11.697-4.959 6.196-3.196 7.121-3.408 10.634-2.433 2.116.588 6.773 1.066 10.348 1.063 6.357-.007 6.604-.107 11.25-4.581 4.013-3.865 4.75-5.159 4.75-8.334 0-4.825 1.487-6.122 12.58-10.965 13.019-5.684 38.555-18.351 42.138-20.902 1.7-1.211 3.471-2.203 3.936-2.205.465-.002 2.91-1.052 5.433-2.332 5.897-2.992 12.029-3.183 20.024-.625m-245.001 5.228c-7.431 3.75-8.718 4.817-11.269 9.346-3.817 6.779-5.841 14.921-5.841 23.502 0 7.451 1.029 10.46 4.407 12.885 4.494 3.226 7.062 4 13.273 4 3.548 0 7.392.503 8.541 1.118 3.016 1.614 20.489-4.322 25.6-8.697 8.412-7.2 12.277-21.795 8.587-32.421-1.95-5.614-3.656-7.529-8.825-9.899-8.087-3.71-9.798-4.101-17.88-4.084-7.641.017-8.778.308-16.593 4.25m22.841 6.702c9.452 6.065 11.3 11.541 7.424 21.999-3.023 8.154-6.64 11.032-13.867 11.032-7.949 0-13.336-3.348-16.473-10.236-1.477-3.242-1.543-4.507-.499-9.574 1.706-8.278 4.026-12.607 7.75-14.462 5.147-2.563 10.385-2.148 15.665 1.241"/></svg>