<svg xmlns="http://www.w3.org/2000/svg" viewBox="0 0 1280 852"><filter id="b"><feGaussianBlur stdDeviation="12" /></filter><path fill="#3f3c3a" d="M0 0h1280v850H0z"/><g filter="url(#b)" transform="matrix(5 0 0 5 2.5 2.5)" fill-opacity=".5"><ellipse fill="#ced9df" rx="1" ry="1" transform="rotate(-81.5 35.4 -41) scale(43.12857 111.26938)"/><ellipse fill="#180000" rx="1" ry="1" transform="rotate(176.3 24.5 64.7) scale(57.99698 79.27518)"/><ellipse rx="1" ry="1" transform="matrix(82.63476 .71226 -.42752 49.5997 228.2 164.3)"/><ellipse fill="#a3bec4" rx="1" ry="1" transform="matrix(6.34374 -.49573 2.44004 31.2247 179.1 40.5)"/><ellipse fill="#99b3c3" cx="5" cy="43" rx="10" ry="28"/><path fill="#570000" d="M14.2 11l2.7 56.1 6.3 11 100.3 35.4z"/><ellipse fill="#081508" rx="1" ry="1" transform="matrix(17.72208 -69.09518 15.02998 3.855 222 39.6)"/><ellipse fill="#7b8fb0" rx="1" ry="1" transform="rotate(119.6 22 105.2) scale(27.20312 5.4898)"/></g></svg>