<?xml version="1.0" standalone="no"?>
<svg xmlns="http://www.w3.org/2000/svg" version="1.2" baseProfile="tiny" width="256" height="150" viewBox="0 0 256 150">
<rect x="0" y="0" width="256" height="150" id="0" fill="rgb(91,71,53)" fill-opacity="1" />
<rect x="37" y="118" width="109" height="31" id="1" fill="rgb(218,141,86)" fill-opacity="0.501961" />
<rect x="181" y="64" width="74" height="70" id="2" fill="rgb(16,29,30)" fill-opacity="0.501961" />
<rect x="151" y="96" width="68" height="13" id="3" fill="rgb(251,147,86)" fill-opacity="0.501961" />
<rect x="0" y="46" width="44" height="39" id="4" fill="rgb(0,8,19)" fill-opacity="0.501961" />
<rect x="52" y="130" width="41" height="15" id="5" fill="rgb(0,0,11)" fill-opacity="0.501961" />
<rect x="49" y="77" width="98" height="11" id="6" fill="rgb(244,174,98)" fill-opacity="0.501961" />
<rect x="84" y="33" width="110" height="12" id="7" fill="rgb(192,135,98)" fill-opacity="0.501961" />
<rect x="92" y="143" width="56" height="6" id="8" fill="rgb(255,235,155)" fill-opacity="0.501961" />
<rect x="40" y="100" width="83" height="9" id="9" fill="rgb(217,149,88)" fill-opacity="0.501961" />
<rect x="141" y="45" width="53" height="53" id="10" fill="rgb(31,39,37)" fill-opacity="0.501961" />
<rect x="0" y="145" width="78" height="4" id="11" fill="rgb(255,182,90)" fill-opacity="0.501961" />
<rect x="0" y="0" width="62" height="29" id="12" fill="rgb(16,37,40)" fill-opacity="0.501961" />
<rect x="54" y="115" width="22" height="14" id="13" fill="rgb(250,204,167)" fill-opacity="0.501961" />
<rect x="182" y="127" width="21" height="22" id="14" fill="rgb(202,134,95)" fill-opacity="0.501961" />
<rect x="135" y="108" width="76" height="18" id="15" fill="rgb(26,32,30)" fill-opacity="0.501961" />
<rect x="0" y="126" width="83" height="3" id="16" fill="rgb(255,189,84)" fill-opacity="0.501961" />
<rect x="77" y="66" width="8" height="40" id="17" fill="rgb(0,12,20)" fill-opacity="0.501961" />
<rect x="1" y="97" width="44" height="3" id="18" fill="rgb(255,220,165)" fill-opacity="0.501961" />
<rect x="120" y="9" width="23" height="15" id="19" fill="rgb(225,138,92)" fill-opacity="0.501961" />
<rect x="43" y="51" width="74" height="15" id="20" fill="rgb(182,111,77)" fill-opacity="0.501961" />
<rect x="20" y="67" width="180" height="8" id="21" fill="rgb(0,24,27)" fill-opacity="0.501961" />
<rect x="169" y="11" width="8" height="12" id="22" fill="rgb(255,245,169)" fill-opacity="0.501961" />
<rect x="99" y="106" width="53" height="3" id="23" fill="rgb(255,181,68)" fill-opacity="0.501961" />
<rect x="0" y="109" width="56" height="11" id="24" fill="rgb(12,23,28)" fill-opacity="0.501961" />
<rect x="94" y="127" width="65" height="5" id="25" fill="rgb(255,165,78)" fill-opacity="0.501961" />
<rect x="243" y="51" width="7" height="12" id="26" fill="rgb(255,232,185)" fill-opacity="0.501961" />
<rect x="135" y="75" width="27" height="12" id="27" fill="rgb(206,115,64)" fill-opacity="0.501961" />
<rect x="1" y="88" width="62" height="8" id="28" fill="rgb(0,21,27)" fill-opacity="0.501961" />
<rect x="0" y="6" width="11" height="68" id="29" fill="rgb(0,28,31)" fill-opacity="0.501961" />
<rect x="17" y="130" width="53" height="10" id="30" fill="rgb(47,29,23)" fill-opacity="0.501961" />
<rect x="39" y="97" width="6" height="10" id="31" fill="rgb(255,255,246)" fill-opacity="0.501961" />
<rect x="155" y="131" width="25" height="16" id="32" fill="rgb(0,29,30)" fill-opacity="0.501961" />
<rect x="108" y="93" width="39" height="13" id="33" fill="rgb(20,36,33)" fill-opacity="0.501961" />
<rect x="172" y="0" width="27" height="10" id="34" fill="rgb(0,21,33)" fill-opacity="0.501961" />
<rect x="238" y="5" width="12" height="26" id="35" fill="rgb(0,29,36)" fill-opacity="0.501961" />
<rect x="24" y="0" width="90" height="4" id="36" fill="rgb(0,14,21)" fill-opacity="0.501961" />
<rect x="26" y="140" width="27" height="9" id="37" fill="rgb(249,153,73)" fill-opacity="0.501961" />
<rect x="43" y="10" width="62" height="12" id="38" fill="rgb(129,98,77)" fill-opacity="0.501961" />
<rect x="165" y="45" width="90" height="6" id="39" fill="rgb(0,25,32)" fill-opacity="0.501961" />
<rect x="82" y="64" width="91" height="2" id="40" fill="rgb(238,135,68)" fill-opacity="0.501961" />
<rect x="88" y="45" width="84" height="5" id="41" fill="rgb(0,24,33)" fill-opacity="0.501961" />
<rect x="3" y="95" width="17" height="14" id="42" fill="rgb(213,140,90)" fill-opacity="0.501961" />
<rect x="95" y="115" width="12" height="13" id="43" fill="rgb(45,17,25)" fill-opacity="0.501961" />
<rect x="224" y="7" width="6" height="15" id="44" fill="rgb(235,167,127)" fill-opacity="0.501961" />
<rect x="62" y="0" width="35" height="34" id="45" fill="rgb(40,48,45)" fill-opacity="0.501961" />
<rect x="205" y="91" width="4" height="14" id="46" fill="rgb(255,229,163)" fill-opacity="0.501961" />
<rect x="0" y="46" width="65" height="7" id="47" fill="rgb(0,24,29)" fill-opacity="0.501961" />
<rect x="223" y="66" width="32" height="71" id="48" fill="rgb(22,35,35)" fill-opacity="0.501961" />
<rect x="150" y="0" width="16" height="25" id="49" fill="rgb(14,32,35)" fill-opacity="0.501961" />
<rect x="93" y="127" width="39" height="18" id="50" fill="rgb(209,131,74)" fill-opacity="0.501961" />
<rect x="153" y="85" width="51" height="2" id="51" fill="rgb(229,109,75)" fill-opacity="0.501961" />
<rect x="121" y="120" width="11" height="10" id="52" fill="rgb(255,194,115)" fill-opacity="0.501961" />
<rect x="8" y="85" width="50" height="2" id="53" fill="rgb(255,156,73)" fill-opacity="0.501961" />
<rect x="64" y="131" width="28" height="15" id="54" fill="rgb(9,39,38)" fill-opacity="0.501961" />
<rect x="37" y="108" width="15" height="19" id="55" fill="rgb(59,52,48)" fill-opacity="0.501961" />
<rect x="149" y="99" width="43" height="7" id="56" fill="rgb(235,163,98)" fill-opacity="0.501961" />
<rect x="0" y="120" width="27" height="7" id="57" fill="rgb(213,115,78)" fill-opacity="0.501961" />
<rect x="101" y="5" width="23" height="4" id="58" fill="rgb(227,151,108)" fill-opacity="0.501961" />
<rect x="152" y="25" width="45" height="20" id="59" fill="rgb(115,94,78)" fill-opacity="0.501961" />
<rect x="149" y="50" width="6" height="14" id="60" fill="rgb(188,146,117)" fill-opacity="0.501961" />
<rect x="75" y="86" width="72" height="2" id="61" fill="rgb(255,166,55)" fill-opacity="0.501961" />
<rect x="0" y="65" width="77" height="1" id="62" fill="rgb(255,114,33)" fill-opacity="0.501961" />
<rect x="98" y="11" width="8" height="13" id="63" fill="rgb(231,143,94)" fill-opacity="0.501961" />
<rect x="19" y="106" width="74" height="2" id="64" fill="rgb(255,151,55)" fill-opacity="0.501961" />
<rect x="56" y="147" width="96" height="2" id="65" fill="rgb(255,188,80)" fill-opacity="0.501961" />
<rect x="244" y="132" width="5" height="17" id="66" fill="rgb(208,153,108)" fill-opacity="0.501961" />
<rect x="238" y="96" width="6" height="11" id="67" fill="rgb(241,115,86)" fill-opacity="0.501961" />
<rect x="84" y="0" width="160" height="3" id="68" fill="rgb(12,32,33)" fill-opacity="0.501961" />
<rect x="24" y="99" width="14" height="8" id="69" fill="rgb(0,12,21)" fill-opacity="0.501961" />
<rect x="53" y="68" width="7" height="13" id="70" fill="rgb(0,10,25)" fill-opacity="0.501961" />
<rect x="252" y="8" width="3" height="15" id="71" fill="rgb(255,167,102)" fill-opacity="0.501961" />
<rect x="197" y="67" width="7" height="40" id="72" fill="rgb(28,37,41)" fill-opacity="0.501961" />
<rect x="75" y="113" width="24" height="9" id="73" fill="rgb(135,45,42)" fill-opacity="0.501961" />
<rect x="71" y="11" width="8" height="13" id="74" fill="rgb(198,126,77)" fill-opacity="0.501961" />
<rect x="94" y="75" width="48" height="11" id="75" fill="rgb(182,147,93)" fill-opacity="0.501961" />
<rect x="94" y="48" width="6" height="15" id="76" fill="rgb(234,184,129)" fill-opacity="0.501961" />
<rect x="80" y="53" width="13" height="10" id="77" fill="rgb(34,37,39)" fill-opacity="0.501961" />
<rect x="62" y="76" width="9" height="11" id="78" fill="rgb(255,199,129)" fill-opacity="0.501961" />
<rect x="182" y="136" width="30" height="13" id="79" fill="rgb(174,126,90)" fill-opacity="0.501961" />
<rect x="197" y="27" width="58" height="3" id="80" fill="rgb(0,20,28)" fill-opacity="0.501961" />
<rect x="187" y="130" width="68" height="3" id="81" fill="rgb(0,17,25)" fill-opacity="0.501961" />
<rect x="11" y="6" width="24" height="2" id="82" fill="rgb(232,146,109)" fill-opacity="0.501961" />
<rect x="140" y="88" width="58" height="6" id="83" fill="rgb(0,27,29)" fill-opacity="0.501961" />
<rect x="166" y="126" width="14" height="5" id="84" fill="rgb(232,131,81)" fill-opacity="0.501961" />
<rect x="190" y="94" width="5" height="12" id="85" fill="rgb(241,168,111)" fill-opacity="0.501961" />
<rect x="216" y="106" width="17" height="43" id="86" fill="rgb(48,45,38)" fill-opacity="0.501961" />
<rect x="0" y="139" width="16" height="1" id="87" fill="rgb(255,255,215)" fill-opacity="0.501961" />
<rect x="160" y="5" width="11" height="5" id="88" fill="rgb(194,147,120)" fill-opacity="0.501961" />
<rect x="57" y="96" width="6" height="11" id="89" fill="rgb(3,9,22)" fill-opacity="0.501961" />
<rect x="216" y="96" width="6" height="11" id="90" fill="rgb(198,110,70)" fill-opacity="0.501961" />
</svg>