<svg xmlns="http://www.w3.org/2000/svg" width="256" height="150" baseProfile="tiny" version="1.2" viewBox="0 0 256 150"><rect id="0" width="256" height="150" x="0" y="0" fill="#5B4735" fill-opacity="1"/><rect id="1" width="109" height="31" x="37" y="118" fill="#DA8D56" fill-opacity=".502"/><rect id="2" width="74" height="70" x="181" y="64" fill="#101D1E" fill-opacity=".502"/><rect id="3" width="68" height="13" x="151" y="96" fill="#FB9356" fill-opacity=".502"/><rect id="4" width="44" height="39" x="0" y="46" fill="#000813" fill-opacity=".502"/><rect id="5" width="41" height="15" x="52" y="130" fill="#00000B" fill-opacity=".502"/><rect id="6" width="98" height="11" x="49" y="77" fill="#F4AE62" fill-opacity=".502"/><rect id="7" width="110" height="12" x="84" y="33" fill="#C08762" fill-opacity=".502"/><rect id="8" width="56" height="6" x="92" y="143" fill="#FFEB9B" fill-opacity=".502"/><rect id="9" width="83" height="9" x="40" y="100" fill="#D99558" fill-opacity=".502"/><rect id="10" width="53" height="53" x="141" y="45" fill="#1F2725" fill-opacity=".502"/><rect id="11" width="78" height="4" x="0" y="145" fill="#FFB65A" fill-opacity=".502"/><rect id="12" width="62" height="29" x="0" y="0" fill="#102528" fill-opacity=".502"/><rect id="13" width="22" height="14" x="54" y="115" fill="#FACCA7" fill-opacity=".502"/><rect id="14" width="21" height="22" x="182" y="127" fill="#CA865F" fill-opacity=".502"/><rect id="15" width="76" height="18" x="135" y="108" fill="#1A201E" fill-opacity=".502"/><rect id="16" width="83" height="3" x="0" y="126" fill="#FFBD54" fill-opacity=".502"/><rect id="17" width="8" height="40" x="77" y="66" fill="#000C14" fill-opacity=".502"/><rect id="18" width="44" height="3" x="1" y="97" fill="#FFDCA5" fill-opacity=".502"/><rect id="19" width="23" height="15" x="120" y="9" fill="#E18A5C" fill-opacity=".502"/><rect id="20" width="74" height="15" x="43" y="51" fill="#B66F4D" fill-opacity=".502"/><rect id="21" width="180" height="8" x="20" y="67" fill="#00181B" fill-opacity=".502"/><rect id="22" width="8" height="12" x="169" y="11" fill="#FFF5A9" fill-opacity=".502"/><rect id="23" width="53" height="3" x="99" y="106" fill="#FFB544" fill-opacity=".502"/><rect id="24" width="56" height="11" x="0" y="109" fill="#0C171C" fill-opacity=".502"/><rect id="25" width="65" height="5" x="94" y="127" fill="#FFA54E" fill-opacity=".502"/><rect id="26" width="7" height="12" x="243" y="51" fill="#FFE8B9" fill-opacity=".502"/><rect id="27" width="27" height="12" x="135" y="75" fill="#CE7340" fill-opacity=".502"/><rect id="28" width="62" height="8" x="1" y="88" fill="#00151B" fill-opacity=".502"/><rect id="29" width="11" height="68" x="0" y="6" fill="#001C1F" fill-opacity=".502"/><rect id="30" width="53" height="10" x="17" y="130" fill="#2F1D17" fill-opacity=".502"/><rect id="31" width="6" height="10" x="39" y="97" fill="#FFFFF6" fill-opacity=".502"/><rect id="32" width="25" height="16" x="155" y="131" fill="#001D1E" fill-opacity=".502"/><rect id="33" width="39" height="13" x="108" y="93" fill="#142421" fill-opacity=".502"/><rect id="34" width="27" height="10" x="172" y="0" fill="#001521" fill-opacity=".502"/><rect id="35" width="12" height="26" x="238" y="5" fill="#001D24" fill-opacity=".502"/><rect id="36" width="90" height="4" x="24" y="0" fill="#000E15" fill-opacity=".502"/><rect id="37" width="27" height="9" x="26" y="140" fill="#F99949" fill-opacity=".502"/><rect id="38" width="62" height="12" x="43" y="10" fill="#81624D" fill-opacity=".502"/><rect id="39" width="90" height="6" x="165" y="45" fill="#001920" fill-opacity=".502"/><rect id="40" width="91" height="2" x="82" y="64" fill="#EE8744" fill-opacity=".502"/><rect id="41" width="84" height="5" x="88" y="45" fill="#001821" fill-opacity=".502"/><rect id="42" width="17" height="14" x="3" y="95" fill="#D58C5A" fill-opacity=".502"/><rect id="43" width="12" height="13" x="95" y="115" fill="#2D1119" fill-opacity=".502"/><rect id="44" width="6" height="15" x="224" y="7" fill="#EBA77F" fill-opacity=".502"/><rect id="45" width="35" height="34" x="62" y="0" fill="#28302D" fill-opacity=".502"/><rect id="46" width="4" height="14" x="205" y="91" fill="#FFE5A3" fill-opacity=".502"/><rect id="47" width="65" height="7" x="0" y="46" fill="#00181D" fill-opacity=".502"/><rect id="48" width="32" height="71" x="223" y="66" fill="#162323" fill-opacity=".502"/><rect id="49" width="16" height="25" x="150" y="0" fill="#0E2023" fill-opacity=".502"/><rect id="50" width="39" height="18" x="93" y="127" fill="#D1834A" fill-opacity=".502"/><rect id="51" width="51" height="2" x="153" y="85" fill="#E56D4B" fill-opacity=".502"/><rect id="52" width="11" height="10" x="121" y="120" fill="#FFC273" fill-opacity=".502"/><rect id="53" width="50" height="2" x="8" y="85" fill="#FF9C49" fill-opacity=".502"/><rect id="54" width="28" height="15" x="64" y="131" fill="#092726" fill-opacity=".502"/><rect id="55" width="15" height="19" x="37" y="108" fill="#3B3430" fill-opacity=".502"/><rect id="56" width="43" height="7" x="149" y="99" fill="#EBA362" fill-opacity=".502"/><rect id="57" width="27" height="7" x="0" y="120" fill="#D5734E" fill-opacity=".502"/><rect id="58" width="23" height="4" x="101" y="5" fill="#E3976C" fill-opacity=".502"/><rect id="59" width="45" height="20" x="152" y="25" fill="#735E4E" fill-opacity=".502"/><rect id="60" width="6" height="14" x="149" y="50" fill="#BC9275" fill-opacity=".502"/><rect id="61" width="72" height="2" x="75" y="86" fill="#FFA637" fill-opacity=".502"/><rect id="62" width="77" height="1" x="0" y="65" fill="#FF7221" fill-opacity=".502"/><rect id="63" width="8" height="13" x="98" y="11" fill="#E78F5E" fill-opacity=".502"/><rect id="64" width="74" height="2" x="19" y="106" fill="#FF9737" fill-opacity=".502"/><rect id="65" width="96" height="2" x="56" y="147" fill="#FFBC50" fill-opacity=".502"/><rect id="66" width="5" height="17" x="244" y="132" fill="#D0996C" fill-opacity=".502"/><rect id="67" width="6" height="11" x="238" y="96" fill="#F17356" fill-opacity=".502"/><rect id="68" width="160" height="3" x="84" y="0" fill="#0C2021" fill-opacity=".502"/><rect id="69" width="14" height="8" x="24" y="99" fill="#000C15" fill-opacity=".502"/><rect id="70" width="7" height="13" x="53" y="68" fill="#000A19" fill-opacity=".502"/><rect id="71" width="3" height="15" x="252" y="8" fill="#FFA766" fill-opacity=".502"/><rect id="72" width="7" height="40" x="197" y="67" fill="#1C2529" fill-opacity=".502"/><rect id="73" width="24" height="9" x="75" y="113" fill="#872D2A" fill-opacity=".502"/><rect id="74" width="8" height="13" x="71" y="11" fill="#C67E4D" fill-opacity=".502"/><rect id="75" width="48" height="11" x="94" y="75" fill="#B6935D" fill-opacity=".502"/><rect id="76" width="6" height="15" x="94" y="48" fill="#EAB881" fill-opacity=".502"/><rect id="77" width="13" height="10" x="80" y="53" fill="#222527" fill-opacity=".502"/><rect id="78" width="9" height="11" x="62" y="76" fill="#FFC781" fill-opacity=".502"/><rect id="79" width="30" height="13" x="182" y="136" fill="#AE7E5A" fill-opacity=".502"/><rect id="80" width="58" height="3" x="197" y="27" fill="#00141C" fill-opacity=".502"/><rect id="81" width="68" height="3" x="187" y="130" fill="#001119" fill-opacity=".502"/><rect id="82" width="24" height="2" x="11" y="6" fill="#E8926D" fill-opacity=".502"/><rect id="83" width="58" height="6" x="140" y="88" fill="#001B1D" fill-opacity=".502"/><rect id="84" width="14" height="5" x="166" y="126" fill="#E88351" fill-opacity=".502"/><rect id="85" width="5" height="12" x="190" y="94" fill="#F1A86F" fill-opacity=".502"/><rect id="86" width="17" height="43" x="216" y="106" fill="#302D26" fill-opacity=".502"/><rect id="87" width="16" height="1" x="0" y="139" fill="#FFFFD7" fill-opacity=".502"/><rect id="88" width="11" height="5" x="160" y="5" fill="#C29378" fill-opacity=".502"/><rect id="89" width="6" height="11" x="57" y="96" fill="#030916" fill-opacity=".502"/><rect id="90" width="6" height="11" x="216" y="96" fill="#C66E46" fill-opacity=".502"/></svg>