
<svg xmlns="http://www.w3.org/2000/svg" xmlns:xlink="http://www.w3.org/1999/xlink" width="7680" height="768" viewBox="0 0 7680 768">
  <defs>
    <clipPath id="clip-path">
      <rect id="長方形_1072" data-name="長方形 1072" width="7680" height="768" transform="translate(-3166)" fill="#fff" stroke="#707070" stroke-width="1"/>
    </clipPath>
  </defs>
  <g id="mv--landscape" transform="translate(3166)">
    <g id="マスクグループ_1" data-name="マスクグループ 1" clip-path="url(#clip-path)">
      <g id="グループ_464" data-name="グループ 464" transform="translate(-22.922)">
        <g id="グループ_297" data-name="グループ 297" transform="translate(177.921 131.162)">
          <g id="グループ_286" data-name="グループ 286" transform="translate(0 2.097)">
            <path id="パス_1889" data-name="パス 1889" d="M252.145,316.1c0,.662.007,1.275.015,1.85.042,3.733.149,4.076.149,7.126,0,2.856.3,6.83-3.028,8.033-4.238,1.529-7.49,2.166-14.278,3.155-1.155.169-3.093.413-4.081.478a1.944,1.944,0,0,1-2.293-1.912v-78.4s3.531-2.749,9.524-9.825a76.74,76.74,0,0,0,8.59-12.1c3.954.725,10.3,1.947,10.826,2.079.605.152.535,1.673.095,2.318-.956,1.4-2.687,1.93-5.69,3.289v48.537c.139,13.887.162,16.055.167,18.615Zm60.1-94.565H334.77c6.382-7.219,8.563-9.569,14.781-16.793,9.569,7.39,12.428,9.741,21.663,17.8a2.432,2.432,0,0,1,.839,1.342,1.082,1.082,0,0,1-1.006,1.006h-59.7ZM285.261,224.9H265.914a50.241,50.241,0,0,0-9.407.839L255.5,220.2a41.127,41.127,0,0,0,10.413,1.342h20.114Z" transform="translate(-210.323 -181.401)" fill="#030000"/>
            <path id="パス_1890" data-name="パス 1890" d="M239.583,267.418c-5.152,5.856-9.4,9.741-17.3,15.953l-1.008-.839c5.543-8.9,7.893-13.941,12.261-25.361,10.074-26.2,14.947-44,17.131-61.8,16.459,3.359,31.912,7.781,32.422,8.038s.74,1.434-.384,2.358a17.173,17.173,0,0,1-7.017,3.374c-10.075,22.335-15.114,31.242-20.49,38.794A233.453,233.453,0,0,1,239.583,267.418Z" transform="translate(-221.277 -195.37)" fill="#030000"/>
            <path id="パス_1891" data-name="パス 1891" d="M269.812,234.3a201.917,201.917,0,0,0,3.359-38.122c10.919,1.345,30.948,4.86,31.994,5.114s1.143,1.867.324,2.627a17.756,17.756,0,0,1-6.4,3.7c-3.02,15.62-3.581,18.284-5.595,26.68l-.839,3.359c-4.365,17.467-8.563,29.225-14.778,41.653l-1.848,3.359c-9.741,17.465-23.513,33.924-37.955,44.84v-3.865c14.275-23.344,25.189-53.4,31.237-85.987Z" transform="translate(-196.253 -194.165)" fill="#030000"/>
            <g id="グループ_285" data-name="グループ 285" transform="translate(48.032 69.695)">
              <path id="パス_1892" data-name="パス 1892" d="M324.2,242.172c1.178,0,1.848-.339,1.848-1.008,0-.505-.334-1.008-1.006-1.678-8.732-7.223-11.588-9.407-20.49-16.125l-13.937,15.453H257.231c-.478.884-1.133,2.191-1.9,3.359Z" transform="translate(-218.564 -223.36)" fill="#030000"/>
              <rect id="長方形_419" data-name="長方形 419" width="24.35" height="51.699" transform="translate(44.17 25.544)" fill="#030000"/>
              <path id="パス_1893" data-name="パス 1893" d="M352.754,264.939c-8.566-7.724-11.25-10.074-20.321-17.3-6.215,7.054-8.229,9.235-14.611,16.626H251.486c-3.359,0-5.543-.334-10.919-1.511l1.008,5.71a44.646,44.646,0,0,1,9.91-.839H352.251a1.354,1.354,0,0,0,1.509-1.175C353.76,266.117,353.426,265.611,352.754,264.939Z" transform="translate(-240.567 -187.181)" fill="#030000"/>
            </g>
          </g>
          <g id="グループ_289" data-name="グループ 289" transform="translate(170.971 0.754)">
            <path id="パス_1894" data-name="パス 1894" d="M331.63,234.363A10.357,10.357,0,0,0,337.172,230a15.343,15.343,0,0,0,2.687-7.9,9.865,9.865,0,0,0-4.365-7.893c-3.025-2.348-6.218-3.693-18.14-7.557l-.505.672c3.528,5.543,4.873,8.735,5.545,14.106,1.845,11.588,1.845,11.588,4.7,12.933a8.706,8.706,0,0,0,2.331.279A11.059,11.059,0,0,0,331.63,234.363Z" transform="translate(-249.846 -177.218)" fill="#030000"/>
            <path id="パス_1895" data-name="パス 1895" d="M314.81,210.613H299.953l-1.657,3.362H316.34Z" transform="translate(-277.49 -171.316)" fill="#030000"/>
            <path id="パス_1896" data-name="パス 1896" d="M312.66,234.692H300.816l-.1,3.359H312.66Z" transform="translate(-273.877 -135.438)" fill="#030000"/>
            <path id="パス_1897" data-name="パス 1897" d="M332.321,209.307H302.209a52.075,52.075,0,0,1-10.246-1.342l.839,5.712a41.672,41.672,0,0,1,9.407-1.011h30.111Zm50.774,0H357.467l-.095,3.359H383Zm25.052,3.359h38.829c1.511,0,2.184-.334,2.184-1.006,0-.336-.167-.672-.839-1.342-8.735-6.718-11.422-8.735-20.49-14.947-5.876,5.879-7.724,7.724-13.267,13.937h-6.225Z" transform="translate(-286.926 -194.026)" fill="#030000"/>
            <path id="パス_1898" data-name="パス 1898" d="M331.19,210.112v-6.549c3.466-1.2,4.773-2.6,5.441-3.747.5-.852.862-2.166-.334-2.336-3.309-.468-12.268-1.379-28.956-2.649.169,7.557.336,11.755.336,12.261v6.379l-.336,7.726c.152,3.357.722,4.081,5.869,4.31.515.022,7.487-.007,8.882-.07,7.5-.321,8.956-1.267,9.1-4.24V210.112Z" transform="translate(-264.013 -194.831)" fill="#030000"/>
            <path id="パス_1899" data-name="パス 1899" d="M351.593,203.563c3.466-1.2,4.773-2.6,5.443-3.747.5-.852.859-2.166-.336-2.336-3.309-.468-12.266-1.379-28.954-2.649.167,7.557.334,11.755.334,12.261,0,1.173-.085,6.379-.085,6.379l-.169,7.56c0,3.19,1.342,3.693,9.572,3.693,11.085,0,14.275-.839,14.275-4.2-.167-3.359-.167-5.037-.167-7.054C351.506,213.471,351.593,205.155,351.593,203.563Z" transform="translate(-233.609 -194.831)" fill="#030000"/>
            <path id="パス_1900" data-name="パス 1900" d="M318.744,277.3c1.175-10.075,1.342-14.442,1.678-26.872V247.07c.336-13.6.336-22.335.5-26.364l4.113-3.361a212.152,212.152,0,0,0-23.174-11.25c.5,13.939.67,19.815.67,23.511,0,42.659-.336,52.4-2.184,66-2.014,15.45-4.7,26.2-10.411,39.633l.839.839c9.741-8.73,12.009-14.611,17.383-24.013a82.443,82.443,0,0,0,10.244-31.406Z" transform="translate(-289.94 -178.048)" fill="#030000"/>
            <path id="パス_1901" data-name="パス 1901" d="M310.867,222.551h-8.879l.1,3.359h8.784Z" transform="translate(-271.989 -153.528)" fill="#030000"/>
            <path id="パス_1902" data-name="パス 1902" d="M344.228,233.041c6.153-3.7,8.2-4.975,20.291-14.549,6.215-.5,8.735-1.342,8.735-3.187s-1.322-2.4-8.11-4.407c-2.687-.67-11.207-3.322-16.412-5-1.848,8.9-6.7,21.023-11.038,27.335C336.29,235.534,340.72,235.15,344.228,233.041Z" transform="translate(-219.183 -178.341)" fill="#030000"/>
            <path id="パス_1903" data-name="パス 1903" d="M336.091,220.743a50.872,50.872,0,0,0,4.537,14.275l1.509,3.359c6.048,11.755,13.1,19.815,22.507,26.033,6.379,4.365,6.379,4.365,7.557,4.365,1.006,0,1.342-.505,1.848-2.353,2.684-10.58,4.7-13.939,10.747-17.632v-1.345c-11.755-1.008-19.649-3.526-29.22-9.069l-5.209-3.359c-5.54-4.2-7.891-7.052-11.755-14.275Z" transform="translate(-221.175 -156.222)" fill="#030000"/>
            <path id="パス_1904" data-name="パス 1904" d="M315.637,284.8a138.016,138.016,0,0,0,12.261-7.39c1.691-1.255,1.691-1.16,2.854-2.014a87.509,87.509,0,0,0,19.818-20.321l2.184-3.359a150.825,150.825,0,0,0,7.893-14.275l1.511-3.359a80.577,80.577,0,0,0,5.456-16.342c4.367-1.178,6.718-2.52,6.718-4.2,0-1.848-3.192-2.689-15.114-4.029l-13.434-1.681c0,12.428-.418,15-3.61,26.252l-1.008,3.359a140.278,140.278,0,0,1-5.373,14.275l-1.509,3.359c-5.881,11.586-11.255,19.315-18.645,26.7Z" transform="translate(-251.652 -175.467)" fill="#030000"/>
            <path id="パス_1905" data-name="パス 1905" d="M333.837,255.175c2.786-1.838,5.458-5.824,5.458-9.517,0-5.61-10.48-9.415-14.514-10.172-2.6-.488-3.546.685-3.546.685,2.072,3.65,2.408,4.462,1.977,9-.667,7.044.227,9.933,2.009,10.954C325.682,256.395,327.654,259.253,333.837,255.175Z" transform="translate(-243.311 -134.432)" fill="#030000"/>
            <path id="パス_1906" data-name="パス 1906" d="M358.657,250.125a12.443,12.443,0,0,0,4.845-.077,2.037,2.037,0,0,0,1.31-2.331c-1.3-.794-4.268-2.58-6.691-4.173A71.258,71.258,0,0,1,348.56,235c-1.511,6.048-5.69,13.279-10.894,21.172C337.666,256.173,344.83,256.637,358.657,250.125Z" transform="translate(-218.829 -134.978)" fill="#030000"/>
            <path id="パス_1907" data-name="パス 1907" d="M356.822,269.856c1.511,3.859,1.678,4.2,2.184,4.87a5.847,5.847,0,0,0,3.865,2.014c5.373,0,11.417-8.4,11.417-15.953a7.491,7.491,0,0,0-1.173-4.7c-1.345-2.014-4.365-4.2-7.557-5.543-5.8-2.652-9.641-3.668-21.7-5.635l-5.346-.747S352.537,260.792,356.822,269.856Z" transform="translate(-217.562 -121.332)" fill="#030000"/>
            <path id="パス_1908" data-name="パス 1908" d="M349.13,248.5v-5.712a77.121,77.121,0,0,1-8.894,3.1c-1.233.376-5.032,1.392-7.475,1.86-7.286,1.4-8.11,1.036-16.27,1.544a82.383,82.383,0,0,0,5.949,20.963c.941,1.995,2.209,4.113,3.107,4.544.757.364,1.375.386,1.531-.254.51-2.1.829-4.592,1.394-7.231A176.14,176.14,0,0,0,349.13,248.5Z" transform="translate(-250.379 -123.38)" fill="#030000"/>
            <path id="パス_1909" data-name="パス 1909" d="M336.924,268.728v9.308c0,2.014-.284,3.414-1.626,3.414-6.76,0-10.615.294-10.615.294,7.851,3.406,7.716,5.179,8.21,13.924.167,4.37.339,4.7,3.359,4.7,5.71,0,10.747-1.006,14.106-2.854,4.537-2.517,5.879-5.376,5.879-13.267-.167-6.887-.167-9.407-.167-15.956V237.227c4.365-1.178,5.047-2.243,5.047-3.588,0-1.848-3.872-2.246-13.292-3.155-2.848-.276-6.031-.481-11.74-.986a173.642,173.642,0,0,1,.839,17.8v21.426Z" transform="translate(-238.173 -143.177)" fill="#030000"/>
            <g id="グループ_287" data-name="グループ 287" transform="translate(66 64.322)">
              <path id="パス_1910" data-name="パス 1910" d="M348.584,235.947H373.13c.839,0,1.509-.336,1.509-1.008a1.815,1.815,0,0,0-.839-1.173c-7.39-5.881-9.91-7.729-17.8-13.1-4.7,5.04-6.215,6.718-10.749,11.925h-2.936Z" transform="translate(-277.903 -220.663)" fill="#030000"/>
              <path id="パス_1911" data-name="パス 1911" d="M331.02,228.81h18.61l-1.514-3.359H333.251Z" transform="translate(-294.731 -213.528)" fill="#030000"/>
              <path id="パス_1912" data-name="パス 1912" d="M335.97,225.916l-10.117.139a42.492,42.492,0,0,1-9.407-1.008l.672,5.373a31.774,31.774,0,0,1,8.735-1.006l8.523-.139Z" transform="translate(-316.446 -214.131)" fill="#030000"/>
            </g>
            <g id="グループ_288" data-name="グループ 288" transform="translate(67.85 48.199)">
              <path id="パス_1913" data-name="パス 1913" d="M341.3,218.832l-10.565.139-6.245,0a22.345,22.345,0,0,1-7.3-1l.5,5.037a38.3,38.3,0,0,1,8.4-.672l14.128-.139Z" transform="translate(-317.189 -208.559)" fill="#030000"/>
              <path id="パス_1914" data-name="パス 1914" d="M335.039,227.96h45.233c1.178,0,1.681-.167,1.681-.672s-.336-.839-1.008-1.511c-6.382-5.207-8.4-6.885-14.778-11.588-4.365,4.367-5.712,5.71-10.077,10.413H336.57Z" transform="translate(-290.593 -214.188)" fill="#030000"/>
            </g>
            <path id="パス_1915" data-name="パス 1915" d="M340.359,281.213V223.288c3.865-2.181,4.87-3.19,4.87-4.534,0-.839-.5-1.511-1.678-2.517-5.864-4.6-11.11-7.953-12.955-8.4a10.968,10.968,0,0,0-3.982-.04c-3.506,3.068-4.606,3.294-8.257,7.261l1.345,3.361v88.841c0,1.511-1.173,2.52-3.023,2.52h-.67c-9.377,0-11.481-.1-16.8-.1l-.167.777c13.1,5.037,14.614,6.885,14.947,16.959,0,5.209.334,5.543,4.2,5.543,15.62,0,22.335-4.7,22.335-15.787v-3.19c-.164-9.278-.167-9.4-.167-28.112Z" transform="translate(-276.374 -175.762)" fill="#030000"/>
          </g>
          <g id="グループ_291" data-name="グループ 291" transform="translate(348.821 1.257)">
            <g id="グループ_290" data-name="グループ 290" transform="translate(40.081 25.826)">
              <path id="パス_1916" data-name="パス 1916" d="M462.794,205.661v82.914l.167,25.356c0,7.057-1.006,10.416-4.365,13.942-3.864,4.029-9.91,6.716-17.634,7.893a82.328,82.328,0,0,1-9.574.839c-2.687,0-2.854-.167-3.359-5.037-.5-5.71-4.2-10.413-10.075-13.267-5.712-2.689-13.406-4.878-26.957-8.4V308.69h44.5c2.351,0,3.023-.373,3.023-2.388l-.57-100.9Z" transform="translate(-357.297 -205.405)" fill="#030000"/>
              <path id="パス_1917" data-name="パス 1917" d="M403.727,265.474H377.463v3.359h26.518Zm0-51.555H381.544l-1.4,3.356h24.733Z" transform="translate(-377.463 -192.719)" fill="#030000"/>
            </g>
            <path id="パス_1918" data-name="パス 1918" d="M528.44,215.018c1.345,0,2.353-.505,2.353-1.345,0-.5-.339-1.173-1.345-2.014-9.743-7.388-12.764-9.574-22.5-16.626-6.718,7.052-8.735,9.4-15.114,16.626H373.124a49.068,49.068,0,0,1-11.758-1.511l.842,5.71a72.217,72.217,0,0,1,10.916-.839Z" transform="translate(-361.366 -195.033)" fill="#030000"/>
            <path id="パス_1919" data-name="パス 1919" d="M394.774,225.015l1.178-3.357a239.4,239.4,0,0,0-26.369-12.933c.672,17.3.839,18.643.839,28.381,0,8.05-.525,53.856-.525,54.172a2.052,2.052,0,0,0,2.42,2.019c1.043-.067,3.088-.326,4.305-.505,7.164-1.043,10.592-1.716,15.067-3.329,3.513-1.267,3.192-5.461,3.192-8.476C394.881,279.376,394.774,225.015,394.774,225.015Z" transform="translate(-349.123 -174.632)" fill="#030000"/>
            <path id="パス_1920" data-name="パス 1920" d="M391.432,288.192a2.054,2.054,0,0,0,2.423,2.019c1.043-.067,3.085-.326,4.305-.505,7.161-1.043,10.592-1.716,15.065-3.329,3.516-1.267,3.195-5.461,3.195-8.476,0-1.35-.5-24.641-.5-48.585,4.2-2.353,5.371-3.192,5.371-4.7,0-1.175-.672-2.014-2.351-3.526a206.363,206.363,0,0,0-16.793-12.43c-5.373,5.712-7.054,7.39-12.094,13.1l1.511,3.357S391.432,287.9,391.432,288.192Z" transform="translate(-318.623 -174.733)" fill="#030000"/>
          </g>
          <g id="グループ_292" data-name="グループ 292" transform="translate(515.043 4.019)">
            <path id="パス_1921" data-name="パス 1921" d="M469.99,235.608h70.815c1.511,0,2.351-.5,2.351-1.175,0-.506-.5-1.011-1.34-2.017-10.08-8.732-13.269-11.25-23.849-19.479-7.557,8.229-9.91,10.916-17.637,19.312H469.863Z" transform="translate(-365.928 -171.118)" fill="#030000"/>
            <path id="パス_1922" data-name="パス 1922" d="M450.583,263.814a45.4,45.4,0,0,1-12.594-1.509l1.006,6.046a46.48,46.48,0,0,1,11.588-1.178h115.05c1.511,0,2.351-.334,2.351-1.173,0-.336-.339-.842-1.011-1.681-10.074-8.735-13.095-11.419-23.51-19.818-7.557,8.229-9.741,10.749-17.3,19.312Z" transform="translate(-413.42 -124.086)" fill="#030000"/>
            <path id="パス_1923" data-name="パス 1923" d="M502.287,221.5H440.044a43.117,43.117,0,0,1-11.922-1.345l.839,5.71a42.258,42.258,0,0,1,11.083-1.006h62.242Z" transform="translate(-428.122 -160.366)" fill="#030000"/>
            <path id="パス_1924" data-name="パス 1924" d="M457.454,330.007V224.528a256.02,256.02,0,0,0-1.511-28.386c1.053.095,2,.194,2.978.291,13.964,1.155,28.822,2.463,32.995,2.931,1.372.157.951,1.7.383,2.677-.767,1.315-2.263,2.921-6.233,4.29,0,1.825-.177,123.676-.177,123.676Z" transform="translate(-386.669 -196.142)" fill="#030000"/>
          </g>
          <g id="グループ_294" data-name="グループ 294" transform="translate(698.511 0.618)">
            <path id="パス_1925" data-name="パス 1925" d="M514.674,231.155l.125-3.359V209.25l22.166-2.933v85.631c0,13.73.117,29.765.117,32.529,0,2.794.3,6.678-2.958,7.853-4.146,1.494-7.323,2.119-13.959,3.085-1.13.164-3.025.4-3.991.466a1.9,1.9,0,0,1-2.243-1.867c0-.294.119-5.613.117-12.034,0-2.893.752-47.5.752-47.5l-.125-43.328" transform="translate(-483.738 -177.58)" fill="#030000"/>
            <g id="グループ_293" data-name="グループ 293" transform="translate(81.271 23.008)">
              <path id="パス_1926" data-name="パス 1926" d="M534.443,313.984m45.873,3.227H554.084l-.192,3.359h26.232Zm-1.051-113.2-20.941.012-2.391,3.359,24.193-.012Z" transform="translate(-534.443 -204.016)" fill="#030000"/>
            </g>
            <path id="パス_1927" data-name="パス 1927" d="M503.923,224l-.167-1.678a179.456,179.456,0,0,0,32.918-14.442c9.908-5.543,13.267-7.726,19.312-13.1,16.459,11.588,22.671,16.793,22.671,18.64,0,1.011-1.006,1.683-2.348,1.683-.672,0-3.7-.505-6.215-.844-8.732,3.025-13.872,4.773-26.113,6.4C524.809,223.2,516.35,223.662,503.923,224Z" transform="translate(-498.895 -194.776)" fill="#030000"/>
            <path id="パス_1928" data-name="パス 1928" d="M530.188,261.463c-.383.443-.757.876-1.126,1.3-9.8,11.26-14.434,15.274-26.252,22.719l-1.006-.839a201.493,201.493,0,0,0,19.365-37.691c4.143-10.5,5.916-15.381,8.608-27.517.095-.423.189-.854.286-1.3Z" transform="translate(-501.804 -159.971)" fill="#030000"/>
            <path id="パス_1929" data-name="パス 1929" d="M523.795,220.919c.209.082.416.164.622.244,16.053,6.322,24.4,13.456,24.4,21.085,0,7.052-7.726,15.62-14.106,15.62-2.856,0-4.031-1.85-4.37-6.382C529.53,237.293,523.795,220.919,523.795,220.919Z" transform="translate(-469.038 -155.823)" fill="#030000"/>
            <path id="パス_1930" data-name="パス 1930" d="M523.18,225.739h24.355c1.006,0,1.678-.339,1.678-.839a3.548,3.548,0,0,0-.839-1.85c-5.876-5.879-7.726-7.557-13.939-13.1-4.365,5.373-5.879,7.052-10.413,12.428h-.842Z" transform="translate(-469.954 -172.164)" fill="#030000"/>
            <path id="パス_1931" data-name="パス 1931" d="M529.755,215.847h-16.8a30.183,30.183,0,0,1-9.069-1.511l1.175,5.876a31.147,31.147,0,0,1,8.06-1.006h16.5Z" transform="translate(-498.694 -165.632)" fill="#030000"/>
            <path id="パス_1932" data-name="パス 1932" d="M534.641,322.628c0,3.217-.13,16.29-.164,18.847,0,.092.017.157.02.244-.025,1.437-.042,2.336-.042,2.455a2.03,2.03,0,0,0,2.4,1.994c1.031-.065,3.053-.321,4.258-.5,7.084-1.031,10.476-1.7,14.9-3.292,3.476-1.255,3.16-5.4,3.16-8.384,0-1.741-.035-3.2-.072-4.781l-.067-3.359c-.005-.374-.03-109.836-.03-109.836l2.181-3.359a299.807,299.807,0,0,0-26.87-14.444c.5,12.428.672,28.553.672,46.354,0,33.739-.1,57.706-.289,78.054l-.052,0" transform="translate(-453.37 -189.652)" fill="#030000"/>
            <path id="パス_1933" data-name="パス 1933" d="M555.666,343.554a2.045,2.045,0,0,0,2.413,2.009c1.038-.065,3.073-.324,4.288-.5,7.134-1.038,10.55-1.708,15.007-3.317,3.5-1.262,3.18-5.441,3.18-8.441,0-2.8-.575-48.067-.717-113.524,4.7-2.854,5.879-4.031,5.879-5.712,0-1.006-.672-2.012-2.353-3.19-7.221-5.373-9.4-7.052-16.959-12.258-4.87,5.879-6.382,7.724-11.588,13.434l1.006,3.359S555.666,343.237,555.666,343.554Z" transform="translate(-422.819 -189.047)" fill="#030000"/>
          </g>
          <g id="グループ_296" data-name="グループ 296" transform="translate(877.616)">
            <path id="パス_1934" data-name="パス 1934" d="M669.7,199.384H589.887l-1.912,3.359H670.72Z" transform="translate(-552.515 -187.293)" fill="#030000"/>
            <path id="パス_1935" data-name="パス 1935" d="M610.85,286.058a225.307,225.307,0,0,0,2.014-22.843l.172-3.359c0-2.854,0-3.19.334-24.014l.167-3.359c.169-15.62.169-15.62.339-22.5l1.678-3.359c-9.661-4.644-18.65-8.468-27.711-12.091.839,13.772,1.175,24.183,1.175,42.659,0,64.152-3.192,87.832-15.284,115.374l1.344,1.006c20.321-19.479,30.734-38.455,35.268-64.152Z" transform="translate(-573.734 -194.528)" fill="#030000"/>
            <path id="パス_1936" data-name="パス 1936" d="M624.486,235.34v2.017c.167,3.187,1.34,3.86,7.557,3.86,13.267,0,15.954-.839,16.29-5.2-.336-13.1-.336-13.605-.336-22.5,3.7-1.85,5.2-3.025,5.2-4.537,0-.839-.67-1.511-2.181-2.687-6.887-4.87-9.069-6.382-16.793-11.419-5.543,5.71-5.543,5.71-10.919,11.252l1.178,3.359V235.34Z" transform="translate(-499.869 -194.026)" fill="#030000"/>
            <path id="パス_1937" data-name="パス 1937" d="M596.387,259.357h22.5s.125-37.5.125-38.941c3.132-1.081,4.313-2.348,4.918-3.386.451-.769.782-1.989-.3-2.111-3.479-.393-16.379-1.524-27.905-2.47.316,2.734.657,9.96.66,11.13v35.779Z" transform="translate(-540.965 -167.827)" fill="#030000"/>
            <path id="パス_1938" data-name="パス 1938" d="M634.466,259.205V222.43c.027-.528.07-1.081.07-2.049,3.078-1.063,4.24-2.308,4.833-3.327.443-.757.77-1.957-.3-2.077-1.783-.2-6.1-.6-11.409-1.066-.588-.085-1.225-.159-1.932-.222-.182-.007-.334,0-.5.007-4.29-.374-9.041-.774-13.58-1.148.306,2.639.632,9.5.647,10.839v35.816Z" transform="translate(-517.239 -167.675)" fill="#030000"/>
            <path id="パス_1939" data-name="パス 1939" d="M616.709,266.435V234.223H594.373v34.125Z" transform="translate(-542.982 -135.383)" fill="#030000"/>
            <path id="パス_1940" data-name="パス 1940" d="M631.548,234.322A65.145,65.145,0,0,1,620.669,249.9c-.665.662-2.169,1.275-2.55,1.658,0,0,6.287,3.262,6.693,3.187,9.2-1.723,12.443-2.433,23.7-6.613h.672c6.716,0,8.9-.505,8.9-2.351,0-1.972-.645-2.338-22.868-11.952a6.335,6.335,0,0,0-2.632-.695C631.889,233.278,631.732,233.938,631.548,234.322Z" transform="translate(-507.6 -137.028)" fill="#030000"/>
            <path id="パス_1941" data-name="パス 1941" d="M585.109,248.6c5.54,22.671,6.212,25.022,6.718,26.7.672,1.34,1.173,1.845,2.184,1.845,1.519,0,1.758-1.3,4.029-7.052,22.059-6.75,36.053-13.162,57.755-23.934C656.188,245.967,602.917,250.942,585.109,248.6Z" transform="translate(-556.785 -117.603)" fill="#030000"/>
            <path id="パス_1942" data-name="パス 1942" d="M609.212,232.635q.123.7.246,1.382c2.318,12.6,5.359,20.281,11.843,29.519l2.186,2.859a89.363,89.363,0,0,0,34.93,25.861c3.359,1.345,4.87,1.848,5.879,1.848,1.178,0,1.681-.672,2.184-2.687a40.14,40.14,0,0,1,4.87-11.588c3.192-5.543,5.207-7.39,10.413-10.077v-1.345c-16.459-1.006-24.878-1.843-35.774-6.213-16.272-6.524-19.146-10.413-19.146-10.413-6.808-5.54-10.032-9.442-14.181-17.609-.251-.5-.505-1.006-.764-1.536Z" transform="translate(-520.872 -137.749)" fill="#030000"/>
            <path id="パス_1943" data-name="パス 1943" d="M642.275,242.584h64.658c1.009,0,1.848-.5,1.848-1.175,0-.336-.336-.842-1.009-1.509-8.732-6.384-11.419-8.229-19.818-13.942-5.373,5.712-6.885,7.39-12.089,13.269H589.589l-.764,3.356h50.763" transform="translate(-551.249 -147.697)" fill="#030000"/>
            <g id="グループ_295" data-name="グループ 295" transform="translate(37.193 52.061)">
              <path id="パス_1944" data-name="パス 1944" d="M619.21,220.764H604.293l-.127,3.359H619.21Z" transform="translate(-565.585 -207.497)" fill="#030000"/>
              <path id="パス_1945" data-name="パス 1945" d="M621.933,232.062h33.655c.839,0,1.512-.5,1.512-1.006,0-.334-.339-.672-.839-1.345a200.238,200.238,0,0,0-18.979-14.275c-5.207,5.712-6.716,7.39-11.755,13.267H622.06Z" transform="translate(-539.111 -215.436)" fill="#030000"/>
              <path id="パス_1946" data-name="パス 1946" d="M602.7,220.764h-13.77l-.255,3.359h14.152Z" transform="translate(-588.671 -207.497)" fill="#030000"/>
            </g>
            <path id="パス_1947" data-name="パス 1947" d="M670.617,209.771H588.383l-.51,3.359h82.744Z" transform="translate(-552.667 -171.816)" fill="#030000"/>
          </g>
        </g>
        <g id="グループ_311" data-name="グループ 311" transform="translate(192.163 321.148)">
          <g id="グループ_302" data-name="グループ 302" transform="translate(670.029)">
            <g id="グループ_298" data-name="グループ 298" transform="translate(253.203)">
              <path id="パス_1948" data-name="パス 1948" d="M638.621,290.5V270.828a47.047,47.047,0,0,0-40.848,40.851h19.676A27.628,27.628,0,0,1,638.621,290.5Z" transform="translate(-597.773 -270.828)" fill="#030000"/>
              <path id="パス_1949" data-name="パス 1949" d="M618.809,313.039v19.676a47.049,47.049,0,0,0,40.851-40.851H639.981A27.628,27.628,0,0,1,618.809,313.039Z" transform="translate(-566.429 -239.484)" fill="#030000"/>
              <path id="パス_1950" data-name="パス 1950" d="M639.981,311.679H659.66a47.049,47.049,0,0,0-40.851-40.851V290.5A27.631,27.631,0,0,1,639.981,311.679Z" transform="translate(-566.429 -270.828)" fill="#030000"/>
              <path id="パス_1951" data-name="パス 1951" d="M617.451,291.864H597.773a47.047,47.047,0,0,0,40.848,40.851V313.039A27.621,27.621,0,0,1,617.451,291.864Z" transform="translate(-597.773 -239.484)" fill="#030000"/>
            </g>
            <g id="グループ_299" data-name="グループ 299" transform="translate(170.816 1.053)">
              <rect id="長方形_420" data-name="長方形 420" width="19.534" height="60.816" transform="translate(27.585 29.91)" fill="#030000"/>
              <rect id="長方形_421" data-name="長方形 421" width="74.704" height="18.389" fill="#030000"/>
            </g>
            <g id="グループ_300" data-name="グループ 300" transform="translate(82.362 1.015)">
              <path id="パス_1952" data-name="パス 1952" d="M562.307,327.854l21.22-56.619H564.5L529.162,362H549.6l5.928-16.014h29.1L577.8,327.854Z" transform="translate(-529.162 -271.236)" fill="#030000"/>
              <path id="パス_1953" data-name="パス 1953" d="M591.341,355.819l-31.319-80.434L550.2,301.632l20.258,54.187Z" transform="translate(-497.816 -265.053)" fill="#030000"/>
            </g>
            <g id="グループ_301" data-name="グループ 301">
              <path id="パス_1954" data-name="パス 1954" d="M528.911,306.609c-7.1-1.663-10.739-3.807-10.739-8.063,0-4.761,4.076-8.165,10.739-9.33V270.828c-16.309,1.529-31.354,10.6-31.354,28.862,0,7.794,2.562,14.019,7.711,18.463h23.643Z" transform="translate(-493.892 -270.828)" fill="#030000"/>
              <path id="パス_1955" data-name="パス 1955" d="M533.4,296.168l.789.486,9.3-16.063-.764-.458a63.664,63.664,0,0,0-27.945-9.283v18.336A48.433,48.433,0,0,1,533.4,296.168Z" transform="translate(-468.23 -270.795)" fill="#030000"/>
              <path id="パス_1956" data-name="パス 1956" d="M544.247,306.263c0-6.623-2.236-12.206-6.621-16.429H514.78v10.722c6.392,1.783,8.787,4.031,8.787,7.614,0,4.584-3.79,7.453-8.787,8.84v18.615C536.321,332.841,544.247,318.638,544.247,306.263Z" transform="translate(-468.23 -242.509)" fill="#030000"/>
              <path id="パス_1957" data-name="パス 1957" d="M507.061,297.6l-.782-.628L496.085,312.79l.63.508c8.411,6.785,21.063,11.023,34.389,11.7V306.807A46.232,46.232,0,0,1,507.061,297.6Z" transform="translate(-496.085 -231.878)" fill="#030000"/>
            </g>
          </g>
          <g id="グループ_310" data-name="グループ 310">
            <g id="グループ_303" data-name="グループ 303" transform="translate(0 0.996)">
              <rect id="長方形_422" data-name="長方形 422" width="19.532" height="90.764" fill="#030000"/>
              <path id="パス_1958" data-name="パス 1958" d="M295.887,327.3,268.2,294.512h-24.63L270.561,327.3Z" transform="translate(-202.296 -236.535)" fill="#030000"/>
              <path id="パス_1959" data-name="パス 1959" d="M302.744,271.228H280.668l-19.711,28.116-21-.008-.017,18.22h29.647Z" transform="translate(-207.71 -271.228)" fill="#030000"/>
            </g>
            <g id="グループ_304" data-name="グループ 304" transform="translate(541.074 1.015)">
              <path id="パス_1960" data-name="パス 1960" d="M477.441,327.854l21.22-56.619H479.637L444.3,362h20.44l5.928-16.014h29.1l-6.826-18.132Z" transform="translate(-444.295 -271.236)" fill="#030000"/>
              <path id="パス_1961" data-name="パス 1961" d="M506.474,355.819l-31.319-80.434-9.821,26.248,20.258,54.187Z" transform="translate(-412.949 -265.053)" fill="#030000"/>
            </g>
            <g id="グループ_305" data-name="グループ 305" transform="translate(98.361 1.015)">
              <path id="パス_1962" data-name="パス 1962" d="M299.644,327.854l21.22-56.619H301.841L266.5,362h20.44l5.928-16.014h29.1l-6.826-18.132Z" transform="translate(-266.499 -271.236)" fill="#030000"/>
              <path id="パス_1963" data-name="パス 1963" d="M328.677,355.819l-31.319-80.434-9.821,26.248,20.258,54.187Z" transform="translate(-235.152 -265.053)" fill="#030000"/>
            </g>
            <g id="グループ_306" data-name="グループ 306" transform="translate(197.829)">
              <path id="パス_1964" data-name="パス 1964" d="M339.272,306.609c-7.1-1.663-10.737-3.807-10.737-8.063,0-4.761,4.074-8.165,10.737-9.33V270.828c-16.31,1.529-31.354,10.6-31.354,28.862,0,7.794,2.562,14.019,7.712,18.463h23.642Z" transform="translate(-304.253 -270.828)" fill="#030000"/>
              <path id="パス_1965" data-name="パス 1965" d="M343.76,296.168l.789.486,9.3-16.063-.762-.458a63.685,63.685,0,0,0-27.945-9.283v18.336A48.431,48.431,0,0,1,343.76,296.168Z" transform="translate(-278.589 -270.795)" fill="#030000"/>
              <path id="パス_1966" data-name="パス 1966" d="M354.606,306.263c0-6.623-2.234-12.206-6.618-16.429H325.142v10.722c6.389,1.783,8.785,4.031,8.785,7.614,0,4.584-3.79,7.453-8.785,8.84v18.615C346.683,332.841,354.606,318.638,354.606,306.263Z" transform="translate(-278.589 -242.509)" fill="#030000"/>
              <path id="パス_1967" data-name="パス 1967" d="M317.422,297.6l-.779-.628-10.2,15.821.63.508c8.411,6.785,21.063,11.023,34.389,11.7V306.807A46.231,46.231,0,0,1,317.422,297.6Z" transform="translate(-306.446 -231.878)" fill="#030000"/>
            </g>
            <rect id="長方形_423" data-name="長方形 423" width="19.536" height="90.765" transform="translate(387.885 1.015)" fill="#030000"/>
            <g id="グループ_307" data-name="グループ 307" transform="translate(288.009 1.015)">
              <rect id="長方形_424" data-name="長方形 424" width="19.536" height="90.765" fill="#030000"/>
              <path id="パス_1968" data-name="パス 1968" d="M383.927,271.236v35.84H355.621V325.4h28.307V362h19.536V271.236Z" transform="translate(-323.356 -271.235)" fill="#030000"/>
            </g>
            <g id="グループ_309" data-name="グループ 309" transform="translate(420.579 1.015)">
              <path id="パス_1969" data-name="パス 1969" d="M439.992,340.455l-23.764-69.22H395.9L426.639,362H449.45l14.857-39.388-17.675-.017Z" transform="translate(-395.904 -271.236)" fill="#030000"/>
              <g id="グループ_308" data-name="グループ 308" transform="translate(54.456)">
                <path id="パス_1970" data-name="パス 1970" d="M473.222,271.236H453.216L436.478,315.16l9.432,26.867Z" transform="translate(-389.904 -271.235)" fill="#030000"/>
                <path id="パス_1971" data-name="パス 1971" d="M437.972,271.236h-20.2L448.624,362h19.69Z" transform="translate(-417.774 -271.236)" fill="#030000"/>
              </g>
            </g>
          </g>
        </g>
        <g id="グループ_342" data-name="グループ 342" transform="translate(188.92 576.776)">
          <g id="グループ_317" data-name="グループ 317" transform="translate(818.326 0)">
            <g id="グループ_312" data-name="グループ 312" transform="translate(81.836 0.515)">
              <rect id="長方形_425" data-name="長方形 425" width="8.514" height="39.562" fill="#030000"/>
              <path id="パス_1972" data-name="パス 1972" d="M617.234,398.137l-12.067-14.292H594.432L606.2,398.137Z" transform="translate(-576.439 -358.575)" fill="#030000"/>
              <path id="パス_1973" data-name="パス 1973" d="M619.115,373.7h-9.622L600.9,385.952l-8.046,0-.007,7.942h11.815Z" transform="translate(-578.799 -373.697)" fill="#030000"/>
            </g>
            <g id="グループ_313" data-name="グループ 313" transform="translate(123.998 0.5)">
              <path id="パス_1974" data-name="パス 1974" d="M614.161,373.691H604.138l11.949,18.778,4.559-7.834Z" transform="translate(-604.138 -373.691)" fill="#030000"/>
              <path id="パス_1975" data-name="パス 1975" d="M624.119,373.691l-13.843,23.762-.011.214v15.6h8.513V397.693l15.058-24Z" transform="translate(-595.009 -373.69)" fill="#030000"/>
            </g>
            <g id="グループ_314" data-name="グループ 314" transform="translate(35.025)">
              <path id="パス_1976" data-name="パス 1976" d="M586.212,382.065V373.49A20.505,20.505,0,0,0,568.406,391.3h8.576A12.047,12.047,0,0,1,586.212,382.065Z" transform="translate(-568.406 -373.49)" fill="#030000"/>
              <path id="パス_1977" data-name="パス 1977" d="M577.575,391.889v8.576a20.507,20.507,0,0,0,17.806-17.806H586.8A12.04,12.04,0,0,1,577.575,391.889Z" transform="translate(-554.744 -359.828)" fill="#030000"/>
              <path id="パス_1978" data-name="パス 1978" d="M586.8,391.3h8.578a20.508,20.508,0,0,0-17.806-17.806v8.576A12.04,12.04,0,0,1,586.8,391.3Z" transform="translate(-554.744 -373.49)" fill="#030000"/>
              <path id="パス_1979" data-name="パス 1979" d="M576.982,382.659h-8.576a20.5,20.5,0,0,0,17.806,17.806v-8.576A12.046,12.046,0,0,1,576.982,382.659Z" transform="translate(-568.406 -359.828)" fill="#030000"/>
            </g>
            <g id="グループ_315" data-name="グループ 315" transform="translate(162.644)">
              <path id="パス_1980" data-name="パス 1980" d="M637.465,382.065V373.49A20.51,20.51,0,0,0,619.659,391.3h8.578A12.044,12.044,0,0,1,637.465,382.065Z" transform="translate(-619.659 -373.49)" fill="#030000"/>
              <path id="パス_1981" data-name="パス 1981" d="M628.829,391.889v8.576a20.51,20.51,0,0,0,17.806-17.806h-8.578A12.047,12.047,0,0,1,628.829,391.889Z" transform="translate(-605.996 -359.828)" fill="#030000"/>
              <path id="パス_1982" data-name="パス 1982" d="M638.057,391.3h8.578a20.51,20.51,0,0,0-17.806-17.806v8.576A12.047,12.047,0,0,1,638.057,391.3Z" transform="translate(-605.996 -373.49)" fill="#030000"/>
              <path id="パス_1983" data-name="パス 1983" d="M628.237,382.659h-8.578a20.51,20.51,0,0,0,17.806,17.806v-8.576A12.044,12.044,0,0,1,628.237,382.659Z" transform="translate(-619.659 -359.828)" fill="#030000"/>
            </g>
            <g id="グループ_316" data-name="グループ 316" transform="translate(0 0.531)">
              <rect id="長方形_426" data-name="長方形 426" width="8.514" height="26.509" transform="translate(12.024 13.037)" fill="#030000"/>
              <rect id="長方形_427" data-name="長方形 427" width="32.562" height="8.015" fill="#030000"/>
            </g>
          </g>
          <g id="グループ_321" data-name="グループ 321" transform="translate(437.53 0.5)">
            <g id="グループ_318" data-name="グループ 318" transform="translate(45.906)">
              <rect id="長方形_428" data-name="長方形 428" width="0.002" height="8.723" transform="translate(8.513 7.903)" fill="#030000"/>
              <path id="パス_1984" data-name="パス 1984" d="M428.359,390.317v-8.723h0v-7.9h-8.515v39.577h8.513V397.833h0v-7.516Z" transform="translate(-419.846 -373.691)" fill="#030000"/>
              <path id="パス_1985" data-name="パス 1985" d="M428.4,381.594c4.044,0,6.008,1.4,6.008,4.293,0,2.981-1.965,4.43-6.008,4.43h-3.117v7.355s2.973-.032,6.315-.032a11.724,11.724,0,0,0,11.546-11.753c0-7.751-5.324-12.2-14.606-12.2h-3.254v7.9Z" transform="translate(-411.743 -373.691)" fill="#030000"/>
              <path id="パス_1986" data-name="パス 1986" d="M433.591,395.913h10.674l-8.6-10.575h-10.3Z" transform="translate(-411.614 -356.336)" fill="#030000"/>
              <path id="パス_1987" data-name="パス 1987" d="M425.284,385.22v.294h.215Z" transform="translate(-411.743 -356.512)" fill="#030000"/>
            </g>
            <g id="グループ_319" data-name="グループ 319" transform="translate(81.929 0.031)">
              <rect id="長方形_429" data-name="長方形 429" width="8.514" height="26.509" transform="translate(12.024 13.037)" fill="#030000"/>
              <rect id="長方形_430" data-name="長方形 430" width="32.562" height="8.015" fill="#030000"/>
            </g>
            <g id="グループ_320" data-name="グループ 320" transform="translate(0 0.014)">
              <path id="パス_1988" data-name="パス 1988" d="M415.857,398.376l9.25-24.679h-8.292l-15.4,39.563h8.91l2.584-6.98h12.684l-2.975-7.9Z" transform="translate(-401.409 -373.697)" fill="#030000"/>
              <path id="パス_1989" data-name="パス 1989" d="M428.512,410.565l-13.651-35.06-4.281,11.441,8.83,23.619Z" transform="translate(-387.746 -371.002)" fill="#030000"/>
            </g>
          </g>
          <g id="グループ_325" data-name="グループ 325" transform="translate(0 0.5)">
            <g id="グループ_322" data-name="グループ 322" transform="translate(81.403)">
              <rect id="長方形_431" data-name="長方形 431" width="8.512" height="39.577" fill="#030000"/>
              <rect id="長方形_432" data-name="長方形 432" width="16.008" height="7.876" transform="translate(13.538)" fill="#030000"/>
              <rect id="長方形_433" data-name="長方形 433" width="13.297" height="7.876" transform="translate(13.538 15.684)" fill="#030000"/>
              <rect id="長方形_434" data-name="長方形 434" width="16.23" height="7.876" transform="translate(13.538 31.701)" fill="#030000"/>
            </g>
            <g id="グループ_323" data-name="グループ 323" transform="translate(0 0.031)">
              <rect id="長方形_435" data-name="長方形 435" width="8.514" height="26.509" transform="translate(12.024 13.037)" fill="#030000"/>
              <rect id="長方形_436" data-name="長方形 436" width="32.562" height="8.015" fill="#030000"/>
            </g>
            <g id="グループ_324" data-name="グループ 324" transform="translate(38.232 0.014)">
              <rect id="長方形_437" data-name="長方形 437" width="8.516" height="39.563" fill="#030000"/>
              <path id="パス_1990" data-name="パス 1990" d="M259.035,373.7v15.622H246.7v7.987h12.338v15.954h8.516V373.7Z" transform="translate(-232.633 -373.697)" fill="#030000"/>
            </g>
          </g>
          <g id="グループ_333" data-name="グループ 333" transform="translate(127.822 0)">
            <g id="グループ_326" data-name="グループ 326" transform="translate(134.88)">
              <path id="パス_1991" data-name="パス 1991" d="M349,382.065V373.49A20.505,20.505,0,0,0,331.2,391.3h8.578A12.04,12.04,0,0,1,349,382.065Z" transform="translate(-331.197 -373.49)" fill="#030000"/>
              <path id="パス_1992" data-name="パス 1992" d="M340.366,391.889v8.576a20.505,20.505,0,0,0,17.806-17.806H349.6A12.047,12.047,0,0,1,340.366,391.889Z" transform="translate(-317.535 -359.828)" fill="#030000"/>
              <path id="パス_1993" data-name="パス 1993" d="M349.6,391.3h8.576a20.505,20.505,0,0,0-17.806-17.806v8.576A12.047,12.047,0,0,1,349.6,391.3Z" transform="translate(-317.535 -373.49)" fill="#030000"/>
              <path id="パス_1994" data-name="パス 1994" d="M339.775,382.659H331.2A20.505,20.505,0,0,0,349,400.465v-8.576A12.04,12.04,0,0,1,339.775,382.659Z" transform="translate(-331.197 -359.828)" fill="#030000"/>
            </g>
            <g id="グループ_327" data-name="グループ 327" transform="translate(268.477 0.5)">
              <path id="パス_1995" data-name="パス 1995" d="M393.364,374.365v-.674h-8.513v39.577h8.513v-38.9Z" transform="translate(-384.851 -373.691)" fill="#030000"/>
              <rect id="長方形_438" data-name="長方形 438" width="15.481" height="8.014" transform="translate(13.539 31.563)" fill="#030000"/>
            </g>
            <g id="グループ_328" data-name="グループ 328" transform="translate(80.539 0.531)">
              <rect id="長方形_439" data-name="長方形 439" width="8.514" height="26.509" transform="translate(12.024 13.037)" fill="#030000"/>
              <rect id="長方形_440" data-name="長方形 440" width="32.562" height="8.015" fill="#030000"/>
            </g>
            <g id="グループ_329" data-name="グループ 329" transform="translate(41.491 0.514)">
              <path id="パス_1996" data-name="パス 1996" d="M308.139,398.376l9.249-24.679H309.1l-15.4,39.563h8.91l2.584-6.98h12.684l-2.975-7.9Z" transform="translate(-293.691 -373.697)" fill="#030000"/>
              <path id="パス_1997" data-name="パス 1997" d="M320.794,410.565l-13.651-35.06-4.281,11.441,8.83,23.619Z" transform="translate(-280.028 -371.002)" fill="#030000"/>
            </g>
            <g id="グループ_330" data-name="グループ 330" transform="translate(222.155 0.514)">
              <path id="パス_1998" data-name="パス 1998" d="M380.695,398.376l9.25-24.679h-8.292l-15.4,39.563h8.91l2.584-6.98h12.684l-2.975-7.9Z" transform="translate(-366.248 -373.697)" fill="#030000"/>
              <path id="パス_1999" data-name="パス 1999" d="M393.35,410.565,379.7,375.505l-4.281,11.441,8.83,23.619Z" transform="translate(-352.584 -371.002)" fill="#030000"/>
            </g>
            <rect id="長方形_441" data-name="長方形 441" width="8.516" height="39.563" transform="translate(119.809 0.514)" fill="#030000"/>
            <g id="グループ_331" data-name="グループ 331" transform="translate(0 0.5)">
              <path id="パス_2000" data-name="パス 2000" d="M296.387,373.691h-8.541v16.951l8.541,11.152Z" transform="translate(-260.91 -373.691)" fill="#030000"/>
              <path id="パス_2001" data-name="パス 2001" d="M277.028,406.389h8.513l.018-16.943-8.531-11.139Z" transform="translate(-277.028 -366.812)" fill="#030000"/>
              <path id="パス_2002" data-name="パス 2002" d="M284.743,373.691h-7.714v3.35l27.745,36.227H312.5v-3.329Z" transform="translate(-277.028 -373.691)" fill="#030000"/>
            </g>
            <g id="グループ_332" data-name="グループ 332" transform="translate(181.456 0.5)">
              <path id="パス_2003" data-name="パス 2003" d="M369.261,373.691H360.72v16.951l8.541,11.152Z" transform="translate(-333.784 -373.691)" fill="#030000"/>
              <path id="パス_2004" data-name="パス 2004" d="M349.9,406.389h8.513l.018-16.943L349.9,378.308Z" transform="translate(-349.902 -366.812)" fill="#030000"/>
              <path id="パス_2005" data-name="パス 2005" d="M357.616,373.691H349.9v3.35l27.745,36.227h7.731v-3.329Z" transform="translate(-349.902 -373.691)" fill="#030000"/>
            </g>
          </g>
          <g id="グループ_341" data-name="グループ 341" transform="translate(563.916 0)">
            <g id="グループ_339" data-name="グループ 339">
              <g id="グループ_334" data-name="グループ 334" transform="translate(199.52 0.5)">
                <rect id="長方形_442" data-name="長方形 442" width="0.002" height="8.723" transform="translate(8.513 7.903)" fill="#030000"/>
                <path id="パス_2006" data-name="パス 2006" d="M540.809,390.317v-8.723h0v-7.9H532.3v39.577h8.513V397.833h0v-7.516Z" transform="translate(-532.296 -373.691)" fill="#030000"/>
                <path id="パス_2007" data-name="パス 2007" d="M540.849,381.594c4.046,0,6.011,1.4,6.011,4.293,0,2.981-1.965,4.43-6.011,4.43h-3.115v7.355s2.973-.032,6.312-.032a11.724,11.724,0,0,0,11.549-11.753c0-7.751-5.324-12.2-14.606-12.2h-3.254v7.9Z" transform="translate(-524.192 -373.691)" fill="#030000"/>
                <path id="パス_2008" data-name="パス 2008" d="M546.041,395.913h10.674l-8.6-10.575h-10.3Z" transform="translate(-524.064 -356.336)" fill="#030000"/>
                <path id="パス_2009" data-name="パス 2009" d="M537.734,385.22v.294h.216Z" transform="translate(-524.193 -356.512)" fill="#030000"/>
              </g>
              <g id="グループ_335" data-name="グループ 335" transform="translate(43.885 0.5)">
                <rect id="長方形_443" data-name="長方形 443" width="8.512" height="39.577" fill="#030000"/>
                <rect id="長方形_444" data-name="長方形 444" width="16.008" height="7.876" transform="translate(13.538)" fill="#030000"/>
                <rect id="長方形_445" data-name="長方形 445" width="13.297" height="7.876" transform="translate(13.538 15.684)" fill="#030000"/>
                <rect id="長方形_446" data-name="長方形 446" width="16.23" height="7.876" transform="translate(13.538 31.701)" fill="#030000"/>
              </g>
              <g id="グループ_336" data-name="グループ 336" transform="translate(162.115 0.5)">
                <rect id="長方形_447" data-name="長方形 447" width="8.512" height="39.577" fill="#030000"/>
                <rect id="長方形_448" data-name="長方形 448" width="16.008" height="7.876" transform="translate(13.538)" fill="#030000"/>
                <rect id="長方形_449" data-name="長方形 449" width="13.297" height="7.876" transform="translate(13.538 15.684)" fill="#030000"/>
                <rect id="長方形_450" data-name="長方形 450" width="16.23" height="7.876" transform="translate(13.538 31.701)" fill="#030000"/>
              </g>
              <g id="グループ_337" data-name="グループ 337" transform="translate(123.39 0.531)">
                <rect id="長方形_451" data-name="長方形 451" width="8.514" height="26.509" transform="translate(12.024 13.037)" fill="#030000"/>
                <rect id="長方形_452" data-name="長方形 452" width="32.562" height="8.015" fill="#030000"/>
              </g>
              <g id="グループ_338" data-name="グループ 338">
                <path id="パス_2010" data-name="パス 2010" d="M452.167,391.3h8.578a12.04,12.04,0,0,1,9.228-9.23V373.49A20.508,20.508,0,0,0,452.167,391.3Z" transform="translate(-452.167 -373.49)" fill="#030000"/>
                <path id="パス_2011" data-name="パス 2011" d="M461.336,390.155v8.576a20.505,20.505,0,0,0,15.445-10.493l-7.251-4.415A12.046,12.046,0,0,1,461.336,390.155Z" transform="translate(-438.505 -358.094)" fill="#030000"/>
                <path id="パス_2012" data-name="パス 2012" d="M461.336,373.49v8.576a12.043,12.043,0,0,1,8.195,6.33l7.251-4.412A20.505,20.505,0,0,0,461.336,373.49Z" transform="translate(-438.505 -373.49)" fill="#030000"/>
                <path id="パス_2013" data-name="パス 2013" d="M460.745,382.659h-8.578a20.507,20.507,0,0,0,17.806,17.806v-8.576A12.04,12.04,0,0,1,460.745,382.659Z" transform="translate(-452.167 -359.828)" fill="#030000"/>
              </g>
            </g>
            <g id="グループ_340" data-name="グループ 340" transform="translate(81.933 0.5)">
              <path id="パス_2014" data-name="パス 2014" d="M504.43,373.691h-8.541v16.951l8.541,11.152Z" transform="translate(-468.954 -373.691)" fill="#030000"/>
              <path id="パス_2015" data-name="パス 2015" d="M485.072,406.389h8.513l.018-16.943-8.531-11.139Z" transform="translate(-485.072 -366.812)" fill="#030000"/>
              <path id="パス_2016" data-name="パス 2016" d="M492.786,373.691h-7.714v3.35l27.745,36.227h7.731v-3.329Z" transform="translate(-485.072 -373.691)" fill="#030000"/>
            </g>
          </g>
          <path id="パス_2017" data-name="パス 2017" d="M558.337,385.373l-3.957,16.842h-6.546l3.962-16.842Z" transform="translate(254.293 -355.784)" fill="#030000"/>
        </g>
        <g id="グループ_364" data-name="グループ 364" transform="translate(193.202 446.308)">
          <g id="グループ_344" data-name="グループ 344" transform="translate(0 1.006)">
            <g id="グループ_343" data-name="グループ 343">
              <path id="パス_2018" data-name="パス 2018" d="M241.98,414.264a3.4,3.4,0,0,1-.772,2.256c-.964.819-3.954,1.332-8.3,1.332-4.629,0-5.4-.513-5.5-3.588.772-19.372,1.158-39.875,1.158-67.857,0-9.636-.1-13.941-.675-24.91a129.813,129.813,0,0,1,15.819,8.1h53.057c2.8-3.381,3.762-4.407,6.753-7.585a119.13,119.13,0,0,1,10.032,7.585c1.061.822,1.447,1.437,1.447,2.154,0,1.23-.964,2.256-3.665,4v29.728c0,.615.192,31.366.192,34.34.1,6.252.1,7.072.483,13.633,0,1.845-.386,2.562-1.447,3.177-1.158.717-4.437,1.23-8.2,1.23-3.568,0-4.34-.408-4.631-2.358v-4.407H241.98Zm0-5.227h55.756V331.646H241.98Zm33.57-42.131h3.279a103.9,103.9,0,0,1,6.753-8.406,119.088,119.088,0,0,1,8.874,8.613c.386.51.58.819.58,1.125,0,.411-.483.72-1.158.72H275.551v26.548h4.34a47.832,47.832,0,0,1,4.246-5.433c-2.024,0-2.413-.615-2.7-4.305a33.1,33.1,0,0,0-4.051-14.556l.483-.411c6.076,2.052,9.066,3.486,11.671,5.331,2.7,1.845,3.668,3.282,3.668,5.229,0,3.075-1.544,5.433-4.728,7.278a77.526,77.526,0,0,1,7.622,7.276,1.68,1.68,0,0,1,.481,1.026c0,.411-.383.615-1.058.615H249.794a20.819,20.819,0,0,0-5.306.513l-.386-3.282a23.088,23.088,0,0,0,5.6.72h12.251V368.959h-9.355a19.556,19.556,0,0,0-4.92.51l-.483-3.177a21.412,21.412,0,0,0,5.5.615h9.26V346.2H251.627a35.453,35.453,0,0,0-5.5.513l-.483-3.279a24.752,24.752,0,0,0,5.884.717h26.434c2.99-3.894,3.954-5.022,7.233-8.815a95.767,95.767,0,0,1,10.612,9.225q.579.616.578.921c0,.411-.483.717-1.061.717H275.551Z" transform="translate(-227.414 -321.497)" fill="#030000"/>
              <path id="パス_2019" data-name="パス 2019" d="M332.215,410.268c4.051-4.92,5.4-6.457,9.357-11.275,6.462,5.022,8.391,6.561,14.467,11.686a1.441,1.441,0,0,1,.58.924c0,.408-.483.717-1.255.717H273.08a37.262,37.262,0,0,0-6.656.615l-.772-3.588a28.177,28.177,0,0,0,7.428.921h38.49a330.941,330.941,0,0,0,10.224-41.1,199.881,199.881,0,0,0,2.991-20.809c10.323,3.078,15.533,4.818,18.812,6.15,1.35.513,1.93,1.128,1.93,1.95,0,1.23-1.255,1.947-4.437,2.358A504.331,504.331,0,0,1,316.3,410.268Zm-1.544-67.14c3.76-4.716,5.015-6.15,8.68-10.866,6.175,4.614,8.105,6.15,14.181,11.173a2.134,2.134,0,0,1,.483.924.871.871,0,0,1-.869.819H277.228a32.428,32.428,0,0,0-6.464.615l-.675-3.69a28.184,28.184,0,0,0,7.139,1.026h24.79V330.212a60.965,60.965,0,0,0-.675-8.1c12.54.819,15.435,1.023,17.365,1.536,1.253.411,2.024,1.026,2.024,1.947,0,1.026-.964,1.845-3.954,2.973v14.556ZM282.34,349.38c13.7,14.557,22.477,29.419,22.477,38.132,0,6.765-6.464,15.582-11.479,15.582a2.869,2.869,0,0,1-2.7-1.848c-.483-1.125-.578-1.843-.966-10.351-.675-16.812-2.991-28.7-8.005-41.207Z" transform="translate(-170.44 -320.576)" fill="#030000"/>
              <path id="パス_2020" data-name="パス 2020" d="M322.356,376.645c-.1-8.2-.1-8.2-.578-10.968,6.076.1,13.117.717,14.855,1.23.867.207,1.252.615,1.252,1.128,0,.717-.289.819-3.374,2.46v6.15h3.374c1.835-2.151,3.859-4.509,6.078-6.969a104.654,104.654,0,0,1,8.683,7.789c.386.309.483.513.483.717a.471.471,0,0,1-.483.513H334.512v4.2a50.771,50.771,0,0,1,10.224,3.588c3.279,1.743,4.823,3.69,4.823,6.357,0,4.3-3.859,9.43-7.139,9.43a2.5,2.5,0,0,1-2.313-1.641c-.291-.615-.291-.615-1.449-6.663a20.557,20.557,0,0,0-4.243-9.634c0,3.177.192,12.913.481,29.213a1.17,1.17,0,0,1,.1.513c0,1.332-.481,1.947-1.447,2.256a45.2,45.2,0,0,1-8.008.613c-2.988,0-3.568-.306-3.665-2.253,0-2.562,0-2.562.291-7.893.289-7.176.289-7.176.289-8s-.1-1.434-.1-2.562a61.083,61.083,0,0,1-17.363,11.686l-.483-.615c7.042-8.1,11.865-16.708,15.916-28.6H313.1a49.022,49.022,0,0,0-6.753.411l-.578-3.279a29.524,29.524,0,0,0,7.233.819Zm23.055-21.937c3.474,2.769,3.474,2.769,8.971,7.38.1-2.973.1-3.588.1-4,0-17.017-.194-24.5-.675-30.034,6.27,3.075,8.1,4.1,13.889,7.278,8.588-5.64,13.12-9.738,15.724-13.839,5.017,3.384,5.017,3.384,12.734,8.815,1.641,1.128,2.507,2.052,2.507,2.769,0,.615-.769,1.128-1.83,1.128a31.765,31.765,0,0,1-4.148-.513,142.8,142.8,0,0,1-24.987,4.92l-.289,19.066h12.251c3.474-4,4.534-5.229,7.911-9.225,5.306,4.2,6.85,5.433,11.867,9.942.192.309.384.513.384.717,0,.309-.384.617-.867.617H388.532v25.522c0,11.686.1,19.066.386,27.37-.1,1.743-.58,2.562-2.027,2.868a43.072,43.072,0,0,1-8.586.717c-2.8,0-3.474-.511-3.474-2.562.291-6.867.386-10.558.386-14.863V359.733H367.4c-.289,19.783-2.122,29.008-7.619,38.54A51.639,51.639,0,0,1,340.2,417.237l-.578-.717c5.981-6.867,9.26-13.224,11.768-23.065,1.833-6.97,2.7-16.093,2.99-29.213h-40.9a49.642,49.642,0,0,0-6.947.411l-.769-3.384a30.272,30.272,0,0,0,7.716.924h16.2a83.44,83.44,0,0,0,4.44-22.552h-19.1a36.193,36.193,0,0,0-6.561.511l-.578-3.381a29.328,29.328,0,0,0,7.139.822h6.753v-2.871a73.767,73.767,0,0,0-.677-11.79c13.12.822,14.472,1.026,16.11,1.641.966.411,1.447.819,1.447,1.437,0,.819-1.158,1.536-3.762,2.562v9.021h2.316c2.8-3.384,3.665-4.41,6.367-7.281,3.954,3.18,5.112,4.305,9.069,7.893.386.309.675.615.675.822a.739.739,0,0,1-.675.615H335.379a125.617,125.617,0,0,1,12.637,5.431c1.352.72,1.833,1.128,1.833,1.848,0,1.126-1.061,1.536-3.954,1.741-3.86,4.41-5.787,6.459-12.828,13.533h5.69Zm-31.929-14.556c9.549,4.2,14.181,8.406,14.181,12.918,0,4-4.051,8.1-8.008,8.1-2.316,0-3.279-1.026-3.279-3.588v-1.332A34.911,34.911,0,0,0,313,340.665Z" transform="translate(-112.541 -321.497)" fill="#030000"/>
              <path id="パス_2021" data-name="パス 2021" d="M394.316,386.588a20.14,20.14,0,0,0,8.1,8c4.245,2.562,8.394,4,14.952,4.92a74.759,74.759,0,0,0,12.251,1.026c1.158,0,2.9-.1,5.5-.2v.921c-3.088,1.947-4.437,3.177-5.789,5.124a25.977,25.977,0,0,0-3.182,7.074c-.966,3.075-1.158,3.384-2.51,3.384a16.85,16.85,0,0,1-4.34-1.128,41.5,41.5,0,0,1-22.091-17.838,39.617,39.617,0,0,1-4.534-11.173c-2.313,10.558-7.331,17.836-16.2,23.476-7.525,4.816-17.846,7.687-31.157,8.61l-.194-1.026c12.445-4.614,19.967-9.43,26.143-16.81a31.85,31.85,0,0,0,7.233-14.352H353.9a42.458,42.458,0,0,0-6.367.513l-.578-3.282a33.051,33.051,0,0,0,6.945.72h24.985a59.367,59.367,0,0,0,.966-9.225c0-.819-.1-2.052-.194-3.588,15.821,1.026,18.329,1.434,18.329,3.075,0,1.128-1.252,1.947-3.954,2.664-.386,3.486-.58,4.716-.966,7.074h16.69c3.857-4.716,3.857-4.716,7.908-9.636,5.212,4.1,6.85,5.331,11.962,9.534.58.615.772,1.023.772,1.332,0,.513-.481.819-1.252.819Zm0-33.622h10.515c3.376-3.792,4.437-4.92,7.814-8.713,4.726,3.69,6.173,4.818,10.8,8.817.483.51.675.819.675,1.125,0,.618-.483.822-1.544.822H394.316v12.709h17.557c2.99-4,4.051-5.227,7.331-9.225a133.836,133.836,0,0,1,11.77,9.225c.481.513.772.924.772,1.233,0,.51-.58.819-1.352.819H352.355a42,42,0,0,0-6.464.717l-.578-3.69a32.759,32.759,0,0,0,6.945.921h27.975V355.017H359.877a35.19,35.19,0,0,0-6.462.615l-.483-3.486a37.754,37.754,0,0,0,7.042.819h20.259V341.385H355.248a35.361,35.361,0,0,0-6.561.615l-.578-3.486a36.28,36.28,0,0,0,7.233.819h15.338c-.675-.921-.675-.921-1.544-4.407a23.226,23.226,0,0,0-6.847-11.686l.483-.615c8.2,1.332,11.573,2.256,15.627,4.407,3.376,1.641,4.92,3.792,4.92,6.561a7.109,7.109,0,0,1-2.9,5.739h11.287A98.993,98.993,0,0,0,397.5,321.5c18.715,5.229,18.715,5.229,18.715,6.561,0,1.128-.964,1.638-4.726,2.049-3.185,2.256-4.631,3.282-7.814,5.229-3.86,2.46-4.823,3.075-6.175,4h13.409c3.088-3.894,4.054-5.022,7.236-8.712,4.823,3.486,6.367,4.716,11.19,8.61.58.615.869,1.026.869,1.332,0,.513-.58.822-1.352.822H394.316Z" transform="translate(-52.034 -321.497)" fill="#030000"/>
              <path id="パス_2022" data-name="パス 2022" d="M392.459,374.7a61.823,61.823,0,0,1-9.549,6.15l-.483-.717a117.514,117.514,0,0,0,17.751-35.672c13.409,4.92,15.047,5.739,15.047,7.074,0,1.023-.867,1.434-4.051,2.151a84.989,84.989,0,0,1-7.716,10.558c4.148.717,5.112,1.128,5.112,2.256,0,.819-.772,1.332-3.474,2.253v18.658c0,5.226,0,13.326.1,19.168v6.357c0,4-1.544,4.816-8.585,4.816-3.665,0-4.726-.717-4.726-3.279v-.408c.289-8,.578-21.733.578-24.6ZM383.3,350.609a80.969,80.969,0,0,0,10.418-15.685,70.249,70.249,0,0,0,5.5-13.222c3.279,1.332,5.789,2.358,7.525,2.871,8.488,3.177,9.455,3.69,9.455,5.022,0,1.23-1.544,1.743-4.92,1.845-9.84,10.66-15.532,14.761-27.4,19.885Zm69.165-15.172a7.351,7.351,0,0,1-2.6,4.716c2.6,2.151,3.571,2.973,7.042,6.252.388.411.483.615.483.924s-.483.615-1.061.615H436.739v18.349c0,14.041,0,14.041.578,46.331,0,1.641-.1,2.358-.578,2.973-.869,1.332-3.762,2.151-8.1,2.151-3.857,0-5.015-.819-5.015-3.279v-.513c.675-21.628.675-21.628.772-51.047l-1.255.411c-2.219,13.222-3.665,19.168-6.367,26.548a67.813,67.813,0,0,1-10.129,19.066l-.772-.411a134.035,134.035,0,0,0,3.957-23.371,227.74,227.74,0,0,0,1.638-23.986c0-.819,0-2.151-.095-4,10.61,1.947,10.61,1.947,13.023,2.46l-.1-11.686h-7.331c-1.447,0-2.7.1-5.5.306l-.578-3.177a26.12,26.12,0,0,0,6.367.819h7.042c0-14.248,0-14.656-.675-22.756,10.61.924,10.61.924,12.251,1.23,2.99.513,3.954,1.026,3.954,2.052,0,.921-.866,1.638-2.99,2.254v17.221h4.437c1.641-2.253,2.607-3.381,3.668-4.611-1.544-.411-1.835-.819-1.93-3.384-.289-5.433-.58-6.765-2.413-10.864l.386-.615c3.279,1.23,4.726,1.743,6.947,2.766,2.41,1.23,3.279,2.052,4.34,4.2h4.245c3.376-3.792,4.435-5.022,7.716-8.919a130.839,130.839,0,0,1,11.19,9.228c.481.51.675.819.675,1.023,0,.411-.483.717-.964.717ZM467.51,379c0,12.711,0,12.711.192,26.551-.289,5.431-1.35,7.687-4.821,9.634a22.011,22.011,0,0,1-9.84,2.46c-2.027,0-2.6-.51-2.6-2.46-.289-5.74-2.413-7.789-12.251-11.584l.1-.921c5.595.513,7.425.717,14.758.921,1.35,0,1.735-.306,1.735-1.536v-45.41H449.47a18.647,18.647,0,0,0-4.051.411l-.578-3.282a13.326,13.326,0,0,0,4.629.822h8.971c3.282-3.795,4.343-4.923,7.525-8.715a134.211,134.211,0,0,1,10.418,8.919c.483.513.675.819.675,1.026,0,.51-.578.819-1.35.819h-8.2Zm-28.844-21.526c8.008,10.456,13.506,22.243,13.506,29.113,0,5.329-4.92,11.584-8.971,11.584-1.638,0-2.508-1.335-2.508-3.693,0-.613.1-1.74.194-2.97.095-1.026.095-2.256.095-3.384a152.716,152.716,0,0,0-2.8-30.238Z" transform="translate(3.555 -321.19)" fill="#030000"/>
              <path id="パス_2023" data-name="パス 2023" d="M499.035,337.16c2.51-3.177,3.282-4.2,5.886-7.176,4.726,3.792,6.173,4.92,10.513,8.817,1.063.921,1.447,1.536,1.447,2.151,0,1.332-1.447,1.743-5.4,1.845-2.991,2.151-4.051,2.871-6.367,4.305,1.544,1.128,2.507,1.743,4.823,3.486,1.158.819,1.641,1.434,1.641,1.947,0,.819-.483,1.23-2.893,2.766,0,6.255,0,6.255.192,17.632,0,1.437-.289,2.154-.964,2.664-1.158.822-4.246,1.335-7.619,1.335-3.668,0-4.631-.513-4.92-2.667v-1.845H482.83v12.814h12.734c2.6-3.075,3.376-4,6.175-6.97,4.243,3.075,5.5,4,9.549,7.174,1.158.924,1.541,1.437,1.541,2.154,0,1.128-.964,2.049-3.182,2.973,0,10.455,0,12.711.289,21.628v.819q0,2.308-1.158,3.075c-1.061.822-3.954,1.335-7.908,1.335h-1.735c-2.415,0-3.282-.924-3.282-3.384v-4.305H482.83v4.2c-.095,1.434-.386,2.151-1.061,2.562-1.061.822-4.148,1.23-8.394,1.23-3.085,0-3.954-.819-3.954-3.483v-.72c.386-9.021.483-13.735.483-43.973,0-7.689-.1-10.968-.291-16.4h-1.158c-3.182,0-5.4-2.664-5.4-6.459a11.24,11.24,0,0,0,.1-1.126c-1.255,1.126-2.024,1.536-2.993,1.536-1.447,0-2.024-.717-2.7-2.871-1.641-5.022-4.726-10.456-7.333-12.811a61.584,61.584,0,0,1-6.75,9.225c11.865,1.332,13.12,1.536,13.12,2.766,0,.819-.58,1.332-2.413,2.154v8.815c1.93-2.052,2.316-2.46,4.34-4.512,3.282,2.667,4.245,3.486,7.525,6.048,1.061.924,1.447,1.539,1.447,2.052,0,.819-.289,1.023-2.99,2.562v6.663c.1,10.249.1,10.558.291,16.708a4.755,4.755,0,0,1-.483,2.769c-.772,1.023-3.474,1.638-7.33,1.638-3.668,0-4.44-.411-4.631-2.871V383.9h-9.069v15.889c4.148-.615,5.981-.924,9.26-1.641a35.475,35.475,0,0,0-4.437-9.327l.483-.513c11.382,4.509,17.654,9.943,17.654,15.274,0,4.818-4.343,10.456-8.008,10.456-1.544,0-2.121-.819-2.6-3.279a67.871,67.871,0,0,0-2.027-9.021,150.986,150.986,0,0,1-20.931,12.4c-.194,2.871-.772,4.305-1.833,4.305-.483,0-.869-.408-1.255-1.332a139.768,139.768,0,0,1-4.437-15.787h2.024c1.255,0,2.6,0,3.86-.1V353.253c-2.316,1.743-3.568,2.562-7.042,4.818l-.578-.717a106.2,106.2,0,0,0,10.515-20.4c2.6-6.663,3.665-10.251,4.34-15.376,15.241,4.2,16.977,4.816,16.977,6.148,0,.924-.964,1.335-3.859,1.743l-.289.513a55.53,55.53,0,0,1,7.236,1.128c3.085.615,5.69,1.743,6.947,3.075,1.058,1.026,1.447,2.154,1.447,4.2a8.157,8.157,0,0,1-.291,2.049c.483-.306.869-.615,1.158-.819,2.8-1.947,3.957-4.305,3.957-7.893,0-.306,0-1.332-.1-2.256l.483-.2a25.276,25.276,0,0,1,3.665,7.893h6.27v-6.354a42.309,42.309,0,0,0-.58-7.791c17.171,1.536,17.846,1.743,17.846,3.279,0,.924-.769,1.539-3.762,2.667v8.2ZM442.413,346.8a30,30,0,0,0-.194-4.818c-3.088,3.588-4.823,5.331-7.428,7.891a84.06,84.06,0,0,1,7.622,4.512Zm9.838,21.013V356.43h-9.069v11.379Zm-9.069,2.049v11.994h9.069V369.859Zm51.707-19.168c2.024-1.947,2.7-2.562,4.051-4a53.482,53.482,0,0,0,1.447-7.483h-24.31a21,21,0,0,1,.386,3.792,15.91,15.91,0,0,1-.289,2.769c2.219,1.332,4.146,2.562,7.716,4.92Zm.483,19.681V352.74H482.83v17.632Zm.481,37.313v-20.4H482.83v20.4Z" transform="translate(64.473 -321.373)" fill="#030000"/>
            </g>
          </g>
          <g id="グループ_345" data-name="グループ 345" transform="translate(603.234 2.339)">
            <path id="パス_2024" data-name="パス 2024" d="M526.026,365.228c-6.427-.229-11.85-1.382-16.115-3.429-3.807-1.875-6.118-3.618-7.632-5.772h7.186l0,1.143c.144,1.367.884,1.608,2.39,1.608,2.851,0,5.01-.416,5.777-1.12a2.165,2.165,0,0,0,.535-1.566v-.416c-.174-5.236-.177-5.438-.177-14.661,1.6-.886,2.166-1.345,2.166-2.067,0-.523-.383-.941-1.148-1.586-2.45-1.8-3.212-2.316-5.8-3.987a.226.226,0,0,0-.281.027c-1.656,1.6-2.179,2.121-3.747,3.857h-7.8v-5.924H524.2c.5,0,.871-.274.871-.637,0-.179-.115-.364-.376-.7-3.14-2.57-4.153-3.349-7.5-5.857a.228.228,0,0,0-.3.022c-2.241,2.3-2.933,3.045-5.147,5.548H501.377v-3.474c1.442-.525,2.224-.971,2.224-1.741,0-1.2-1.13-1.417-10.978-2.156a.2.2,0,0,0-.182.072.221.221,0,0,0-.057.189,40.16,40.16,0,0,1,.466,7.109H475.815a19.826,19.826,0,0,1-4.342-.463.23.23,0,0,0-.209.065.22.22,0,0,0-.057.212l.468,1.99a.22.22,0,0,0,.261.169,17.346,17.346,0,0,1,3.879-.346h17.034v5.924h-6.623a54.394,54.394,0,0,0-8.874-3.849.22.22,0,0,0-.217.037.226.226,0,0,0-.082.207c.286,2.184.349,3.491.349,12.375,0,1.77-.1,4.3-.3,9.323l-.055,1.392c.067,1.825.777,2.151,2.744,2.151,1.521,0,4.223-.115,5.221-.864a1.955,1.955,0,0,0,.74-1.646v-.358h3.05a41.52,41.52,0,0,1-6.367,8.217,54.019,54.019,0,0,1-12.647,9.965.231.231,0,0,0-.1.274l.234.645a.233.233,0,0,0,.274.142,55.191,55.191,0,0,0,11.626-4.228,38.831,38.831,0,0,0,11.133-7.5l-.05,2.963c-.057,1.571-.117,2.868-.174,3.865-.06,2.863-.06,2.863-.177,4.928.067,1.833.675,2.034,3.035,2.034,2.973,0,4.654-.249,5.458-.8.483-.346.68-.889.68-1.887l-.351-10.592-.2-6.726a50.011,50.011,0,0,0,3.591,6.569,28.7,28.7,0,0,0,8.434,8.2c2.463,1.566,5.856,3.312,6.793,3.312.74,0,.991-.448,1.158-1.175a11.944,11.944,0,0,1,1.556-4.263,7.925,7.925,0,0,1,3.429-3.663.227.227,0,0,0,.112-.194v-.645A.228.228,0,0,0,526.026,365.228Zm-33.177-18.035V354.4h-7.094v-7.211Zm-7.094-1.623v-6.686h7.094v6.686Zm23.71,1.623V354.4h-8.088v-7.211Zm-8.088-1.623v-6.686h8.088v6.686Z" transform="translate(-469.677 -321.577)" fill="#030000"/>
            <path id="パス_2025" data-name="パス 2025" d="M548.633,331.312a.307.307,0,0,0-.05-.047l-.381-.274c-3.225-2.311-4.313-3.09-7.582-5.289a.222.222,0,0,0-.291.032l-.849.894c-1.581,1.666-2.383,2.51-4.348,4.475H524.863v-5c1.7-.628,2.515-1.086,2.515-1.912,0-.994-1.646-1.434-6.534-1.748-.727-.035-1.643-.11-2.8-.2-.782-.062-1.661-.134-2.634-.2a.188.188,0,0,0-.182.07.22.22,0,0,0-.06.184,30.442,30.442,0,0,1,.349,5.237V331.1h-17.56a17.785,17.785,0,0,1-3.879-.4.223.223,0,0,0-.2.062.233.233,0,0,0-.06.207l.411,1.93a.226.226,0,0,0,.222.182l.042,0a15.09,15.09,0,0,1,3.526-.346H548.1a.762.762,0,0,0,.812-.695A1.177,1.177,0,0,0,548.633,331.312Z" transform="translate(-433.722 -322.032)" fill="#030000"/>
            <path id="パス_2026" data-name="パス 2026" d="M526.149,344.974h5.63v1.778c.077,1.068.767,1.265,2.1,1.265a21.889,21.889,0,0,0,6.041-.6,1.316,1.316,0,0,0,.916-1.452c-.177-6.317-.177-6.317-.177-8.361v-3.366a20.647,20.647,0,0,0,1.84-.956,1.328,1.328,0,0,0,.5-.944c0-.373-.209-.652-.625-1.066-2.771-1.885-3.655-2.475-6.556-4.39a.233.233,0,0,0-.286.03c-1.865,1.868-2.445,2.448-4.151,4.323H511.7a104.091,104.091,0,0,0-9.562-4.372.223.223,0,0,0-.219.027.226.226,0,0,0-.095.2c.251,3.277.351,6.078.351,9.987,0,4.3,0,5.319-.177,8.543,0,1.372.453,1.748,2.1,1.748.411,0,.847-.007,1.29-.022a.282.282,0,0,0-.04.065,42.333,42.333,0,0,1-3.728,7.866,54.137,54.137,0,0,1-8.337,10.958.229.229,0,0,0-.017.289l.291.408a.233.233,0,0,0,.274.077A44.213,44.213,0,0,0,505,360.726a67.726,67.726,0,0,0,8.334-7.8,9.654,9.654,0,0,0,2.219-.306.988.988,0,0,0,.593-.789c0-.573-.568-.916-1.185-1.2a90.642,90.642,0,0,0-9.161-3.292,20.659,20.659,0,0,0,3.86-.438c.862-.229,1.4-.56,1.4-1.5v-.418h6.509v15.279c0,.331-.055.476-.588.476-2.465-.06-6.287-.3-10.224-.642a.235.235,0,0,0-.247.2l-.057.468a.227.227,0,0,0,.149.242c5.007,1.768,5.478,2.047,6.486,2.831a4.777,4.777,0,0,1,1.731,3.919c0,1.511.386,1.925,1.805,1.925a14.369,14.369,0,0,0,7.38-2.087c1.636-1.091,2.144-2.062,2.268-4.343v-2.171c-.117-4.913-.117-4.913-.117-7.308Zm5.63-12.111v10.488H511.052V332.863Z" transform="translate(-434.597 -314.854)" fill="#030000"/>
            <path id="パス_2027" data-name="パス 2027" d="M521.881,341.331c-3.249-2.246-7.091-3.792-14.171-5.707a.226.226,0,0,0-.244.085l-.291.411a.226.226,0,0,0,.02.289,43.8,43.8,0,0,1,6,7.4,32.78,32.78,0,0,1,3.548,6.631c.8,2.034,1.437,3.068,2.669,3.068,2.408,0,5.259-3.864,5.259-7.131A5.678,5.678,0,0,0,521.881,341.331Z" transform="translate(-413.87 -301.793)" fill="#030000"/>
          </g>
          <g id="グループ_346" data-name="グループ 346" transform="translate(607.198 63.069)">
            <path id="パス_2028" data-name="パス 2028" d="M505.787,355.645c-2.186-1.887-2.866-2.46-5.122-4.243a.229.229,0,0,0-.311.03c-1.511,1.733-1.982,2.276-3.369,3.974H490.82v-6.22c.971-.346,1.609-.71,1.609-1.295,0-.69-.994-.974-4.086-1.175-.762-.037-1.922-.115-3.357-.219a.2.2,0,0,0-.182.072.228.228,0,0,0-.06.184,21.274,21.274,0,0,1,.182,3.11v5.543H474.637a9.334,9.334,0,0,1-2.861-.356.228.228,0,0,0-.284.261l.257,1.35a.225.225,0,0,0,.222.184l.047,0a11.983,11.983,0,0,1,2.62-.251h30.891c.326,0,.555-.169.555-.411a.673.673,0,0,0-.214-.438Z" transform="translate(-470.942 -346.315)" fill="#030000"/>
            <path id="パス_2029" data-name="パス 2029" d="M487.67,354.066a43.3,43.3,0,0,0-7.39-2.43.227.227,0,0,0-.286.207,29.375,29.375,0,0,1-2.572,9.308,45.36,45.36,0,0,1-6.105,10.575.228.228,0,0,0,.005.284l.182.219a.224.224,0,0,0,.174.082.23.23,0,0,0,.119-.035,32.959,32.959,0,0,0,7.567-6.026,40.37,40.37,0,0,0,6.855-10.393c1.282-.2,1.317-.212,1.574-.359a.755.755,0,0,0,.433-.687C488.226,354.442,487.944,354.235,487.67,354.066Z" transform="translate(-471.269 -338.665)" fill="#030000"/>
            <path id="パス_2030" data-name="パス 2030" d="M479.734,351.791a.226.226,0,0,0-.274.035l-.222.219a.23.23,0,0,0-.027.286,55.818,55.818,0,0,1,3.929,6.875,45.2,45.2,0,0,1,3.635,10.251c.381,1.564.6,2.109,1.5,2.109,1.91,0,4.171-3.349,4.171-6.18,0-1.516-.809-3.083-2.794-5.406A37.4,37.4,0,0,0,479.734,351.791Z" transform="translate(-459.493 -338.469)" fill="#030000"/>
            <path id="パス_2031" data-name="パス 2031" d="M517.836,366.344a27.733,27.733,0,0,1-6.88-4.781,16.769,16.769,0,0,1-3.974-5.961h13.493c.339,0,.593-.192.593-.446a.566.566,0,0,0-.167-.349l-.092-.115c-2.057-1.833-2.679-2.375-4.724-3.954a.228.228,0,0,0-.309.03c-1.365,1.546-1.805,2.059-3.147,3.648H506.5V349c.911-.351,1.384-.583,1.384-1.143,0-.754,0-.754-7.032-1.432a.256.256,0,0,0-.184.067.225.225,0,0,0-.062.189,24.471,24.471,0,0,1,.289,4.133v3.605H490.461a11.178,11.178,0,0,1-2.684-.356.225.225,0,0,0-.279.254l.219,1.352a.224.224,0,0,0,.1.152.242.242,0,0,0,.179.032,10.45,10.45,0,0,1,2.468-.249h8.319a37.327,37.327,0,0,1-3.984,7.5,45.822,45.822,0,0,1-8.977,10.508.228.228,0,0,0-.042.291l.182.291a.229.229,0,0,0,.279.09,34.222,34.222,0,0,0,7.9-4.372,27,27,0,0,0,6.86-6.89l-.1,7.766v.356h-3.971a7.6,7.6,0,0,1-1.987-.246.242.242,0,0,0-.207.047.23.23,0,0,0-.075.2l.144,1.17a.237.237,0,0,0,.095.157.224.224,0,0,0,.182.035,6.645,6.645,0,0,1,1.848-.177h3.934c-.035,2.911-.04,3.015-.217,7.258,0,1.108.633,1.213,2.308,1.213,2.891,0,3.8-.06,3.8-1.322a.6.6,0,0,0-.037-.194c-.035-1.863-.035-1.93-.1-6.955h6.633c.353,0,.63-.2.63-.446a.95.95,0,0,0-.294-.57c-1.681-1.534-2.233-1.975-4.064-3.441a.255.255,0,0,0-.172-.047.226.226,0,0,0-.152.09c-.9,1.2-1.3,1.708-2.047,2.634l-.473.6h-.08l-.087-13.244a31.292,31.292,0,0,0,1.379,4.173,24.821,24.821,0,0,0,6.153,9.026c1.375,1.295,3.177,2.836,3.952,2.836.453,0,.615-.251.8-.817.137-.443.628-1.643.974-2.413a4.612,4.612,0,0,1,2.069-2.206.227.227,0,0,0,.107-.194v-.294a.227.227,0,0,0-.159-.217A25.724,25.724,0,0,1,517.836,366.344Z" transform="translate(-449.703 -346.422)" fill="#030000"/>
            <path id="パス_2032" data-name="パス 2032" d="M536.477,368.851a22.647,22.647,0,0,1-4.161-1.484,24.212,24.212,0,0,1-6.835-4.88,18.141,18.141,0,0,1-3.986-6.262h13.68a.5.5,0,0,0,.52-.446.724.724,0,0,0-.256-.5,57.532,57.532,0,0,0-4.614-3.919.23.23,0,0,0-.309.027c-1.9,2.119-1.932,2.154-3.289,3.648h-6.173v-5.9c.956-.388,1.35-.62,1.35-1.14a.7.7,0,0,0-.528-.677c-.553-.276-.994-.346-6.472-.827a.225.225,0,0,0-.244.252,35.545,35.545,0,0,1,.254,4.905v3.386H504.869a8.467,8.467,0,0,1-2.388-.284.235.235,0,0,0-.209.05.225.225,0,0,0-.072.2l.182,1.24a.241.241,0,0,0,.095.154.233.233,0,0,0,.177.035,10.1,10.1,0,0,1,2.216-.214h8.845a34.756,34.756,0,0,1-4.034,8.16,49.327,49.327,0,0,1-9.126,11.128.22.22,0,0,0-.027.3l.217.294a.229.229,0,0,0,.274.072A31.8,31.8,0,0,0,508.7,371.8a35.532,35.532,0,0,0,6.713-6.735l-.032,5.5c-.072,4.838-.144,7.771-.219,8.984,0,1.228.583,1.287,2.418,1.287,2.682,0,3.7-.134,3.7-1.549-.025-.864-.052-2.652-.092-5.356l-.052-3.583-.06-11.287a27.36,27.36,0,0,0,7.159,13.237c1.459,1.459,3.486,3.025,4.176,3.025.59,0,.7-.3.914-1.048a13.734,13.734,0,0,1,1.041-2.47,4.192,4.192,0,0,1,2.171-2.243.228.228,0,0,0,.117-.2v-.291A.226.226,0,0,0,536.477,368.851Z" transform="translate(-427.746 -346.314)" fill="#030000"/>
          </g>
          <path id="パス_2033" data-name="パス 2033" d="M518.556,421.724V321.093h2.059V421.724Z" transform="translate(206.386 -321.093)" fill="#030000"/>
          <path id="パス_2034" data-name="パス 2034" d="M467.28,421.724V321.093h2.059V421.724Z" transform="translate(129.985 -321.093)" fill="#030000"/>
          <g id="グループ_363" data-name="グループ 363" transform="translate(736.19 5.441)">
            <g id="グループ_347" data-name="グループ 347" transform="translate(0 0.08)">
              <path id="パス_2035" data-name="パス 2035" d="M529,324.507c-3.538,1.648-5.754,4.669-5.754,7.876a2.377,2.377,0,0,0,1.038,2.216,5.73,5.73,0,0,0,2.923.754c2.547,0,3.725-.944,3.772-3.065.095-3.112.142-3.728.565-5.047a3.375,3.375,0,0,1,2.634-2.709v-1.21A14.333,14.333,0,0,0,529,324.507Z" transform="translate(-522.818 -323.292)" fill="#030000"/>
              <path id="パス_2036" data-name="パス 2036" d="M527.365,349.614a33.566,33.566,0,0,1,7.169-5.094c6.7-3.536,6.7-3.536,8.441-4.953a8.794,8.794,0,0,0,3.4-7.214c0-5.6-4.28-8.924-11.534-9.044V324.6a3.613,3.613,0,0,1,1.723.916,8.252,8.252,0,0,1,2.077,5.944,11.744,11.744,0,0,1-.944,4.621,15.034,15.034,0,0,1-4.2,4.905c-5.187,4.432-7.121,6.506-8.912,9.477-.212.366-.408.73-.593,1.1h1.865A10.938,10.938,0,0,1,527.365,349.614Z" transform="translate(-521.705 -323.31)" fill="#030000"/>
              <path id="パス_2037" data-name="パス 2037" d="M546.653,333a8.489,8.489,0,0,1-1.225,3.633c-1.038,1.7-2.453,2.263-5.423,2.263H526.28l0-.007h-1.72a25.264,25.264,0,0,0-1.492,6.28h23.344l1.887-11.837Z" transform="translate(-523.073 -308.869)" fill="#030000"/>
            </g>
            <g id="グループ_348" data-name="グループ 348" transform="translate(56.09 0.08)">
              <path id="パス_2038" data-name="パス 2038" d="M551.523,324.507c-3.538,1.648-5.755,4.669-5.755,7.876a2.377,2.377,0,0,0,1.038,2.216,5.737,5.737,0,0,0,2.923.754c2.547,0,3.725-.944,3.772-3.065.095-3.112.142-3.725.568-5.047a3.37,3.37,0,0,1,2.632-2.709v-1.21A14.344,14.344,0,0,0,551.523,324.507Z" transform="translate(-545.346 -323.292)" fill="#030000"/>
              <path id="パス_2039" data-name="パス 2039" d="M549.893,349.614a33.607,33.607,0,0,1,7.166-5.094c6.7-3.536,6.7-3.536,8.444-4.953a8.792,8.792,0,0,0,3.394-7.214c0-5.6-4.28-8.924-11.534-9.044V324.6a3.621,3.621,0,0,1,1.726.916,8.262,8.262,0,0,1,2.074,5.944,11.7,11.7,0,0,1-.944,4.621,15.017,15.017,0,0,1-4.2,4.905c-5.189,4.432-7.121,6.506-8.914,9.477-.212.366-.406.73-.593,1.1h1.868A10.924,10.924,0,0,1,549.893,349.614Z" transform="translate(-544.233 -323.31)" fill="#030000"/>
              <path id="パス_2040" data-name="パス 2040" d="M569.179,333a8.516,8.516,0,0,1-1.228,3.633c-1.038,1.7-2.453,2.263-5.423,2.263H548.806l0-.007h-1.72a25.252,25.252,0,0,0-1.489,6.28h23.344l1.885-11.837Z" transform="translate(-545.599 -308.869)" fill="#030000"/>
            </g>
            <g id="グループ_349" data-name="グループ 349" transform="translate(121.076 0.08)">
              <path id="パス_2041" data-name="パス 2041" d="M577.622,324.507c-3.536,1.648-5.755,4.669-5.755,7.876a2.377,2.377,0,0,0,1.038,2.216,5.738,5.738,0,0,0,2.923.754c2.547,0,3.728-.944,3.775-3.065.092-3.112.14-3.725.565-5.047a3.373,3.373,0,0,1,2.632-2.709v-1.21A14.344,14.344,0,0,0,577.622,324.507Z" transform="translate(-571.445 -323.292)" fill="#030000"/>
              <path id="パス_2042" data-name="パス 2042" d="M575.992,349.614a33.566,33.566,0,0,1,7.169-5.094c6.7-3.536,6.7-3.536,8.441-4.953A8.792,8.792,0,0,0,595,332.354c0-5.6-4.28-8.924-11.531-9.044V324.6a3.625,3.625,0,0,1,1.723.916,8.262,8.262,0,0,1,2.074,5.944,11.742,11.742,0,0,1-.941,4.621,15.035,15.035,0,0,1-4.2,4.905c-5.187,4.432-7.121,6.506-8.914,9.477-.209.366-.406.73-.593,1.1h1.867A10.941,10.941,0,0,1,575.992,349.614Z" transform="translate(-570.332 -323.31)" fill="#030000"/>
              <path id="パス_2043" data-name="パス 2043" d="M595.278,333a8.486,8.486,0,0,1-1.228,3.633c-1.036,1.7-2.45,2.263-5.423,2.263H574.905l0-.007h-1.721a25.258,25.258,0,0,0-1.489,6.28h23.344l1.887-11.837Z" transform="translate(-571.698 -308.869)" fill="#030000"/>
            </g>
            <g id="グループ_350" data-name="グループ 350" transform="translate(27.758 0.109)">
              <path id="パス_2044" data-name="パス 2044" d="M543.464,355.484c-1.086-2.784-1.509-6.79-1.509-13.678,0-6.222.376-10.092,1.225-12.873.777-2.485,1.848-3.9,3.277-4.325v-1.282c-7.664.53-12.236,7.346-12.236,18.481a34.538,34.538,0,0,0,1.13,8.583,14.951,14.951,0,0,0,2.971,5.849,11.437,11.437,0,0,0,8.135,4.1v-1.282C545.185,358.669,544.183,357.5,543.464,355.484Z" transform="translate(-534.221 -323.316)" fill="#030000"/>
              <path id="パス_2045" data-name="パス 2045" d="M552.247,341.813c0-11.215-4.594-18.047-12.4-18.491v1.245c1.352.331,2.413,1.521,3.2,3.618,1.038,2.781,1.464,6.7,1.464,13.628,0,6.367-.331,10.139-1.227,12.923q-1.2,3.795-3.439,4.37v1.245C547.611,359.905,552.247,353.072,552.247,341.813Z" transform="translate(-525.838 -323.322)" fill="#030000"/>
            </g>
            <g id="グループ_351" data-name="グループ 351" transform="translate(182.689 55.875)">
              <path id="パス_2046" data-name="パス 2046" d="M605.687,377.879c-1.086-2.781-1.512-6.79-1.512-13.675,0-6.225.379-10.092,1.228-12.876.777-2.482,1.845-3.9,3.277-4.325v-1.282c-7.667.53-12.238,7.348-12.238,18.483a34.57,34.57,0,0,0,1.133,8.583,14.957,14.957,0,0,0,2.971,5.846,11.431,11.431,0,0,0,8.135,4.1V381.45C607.408,381.064,606.407,379.891,605.687,377.879Z" transform="translate(-596.442 -345.713)" fill="#030000"/>
              <path id="パス_2047" data-name="パス 2047" d="M614.467,364.209c0-11.217-4.594-18.048-12.4-18.491v1.243c1.35.334,2.413,1.521,3.2,3.618,1.038,2.784,1.462,6.7,1.462,13.63,0,6.367-.329,10.139-1.225,12.921q-1.206,3.795-3.439,4.37v1.247C609.83,382.3,614.467,375.466,614.467,364.209Z" transform="translate(-588.058 -345.718)" fill="#030000"/>
            </g>
            <path id="パス_2048" data-name="パス 2048" d="M610.156,361.181v-37.9h2.059v37.9Z" transform="translate(-393.32 -323.278)" fill="#030000"/>
            <path id="パス_2049" data-name="パス 2049" d="M633.936,361.181v-37.9H636v37.9Z" transform="translate(-357.888 -323.278)" fill="#030000"/>
            <rect id="長方形_453" data-name="長方形 453" width="6.344" height="6.344" transform="translate(151.898 29.995)" fill="#030000"/>
            <g id="グループ_352" data-name="グループ 352" transform="translate(85.447 0.067)">
              <path id="パス_2050" data-name="パス 2050" d="M557.442,324.323l0,2.669.72,0a18.667,18.667,0,0,1,2.719.124l.005-3.314C559.908,323.934,558.087,324.211,557.442,324.323Z" transform="translate(-557.313 -322.56)" fill="#030000"/>
              <path id="パス_2051" data-name="パス 2051" d="M571.585,357.637c-.944-.66-1.367-2.074-1.367-4.669V334.01c0-3.725.139-7.545.423-10.7-3.165.4-5.8.754-7.906,1.051v3.959c.022.383.03.827.03,1.357v23.3c0,2.689-.423,4.056-1.509,4.716-.8.518-1.556.66-3.867.66v1.275h18.062v-1.275C573.046,358.344,572.339,358.2,571.585,357.637Z" transform="translate(-557.389 -323.305)" fill="#030000"/>
            </g>
            <g id="グループ_353" data-name="グループ 353" transform="translate(221.752 10.276)">
              <path id="パス_2052" data-name="パス 2052" d="M621.7,327.594h-2.617l-3.111,10.66L616.4,340l2.5-8.3,3.678,13.653h2.311l.71-2.679Z" transform="translate(-606.401 -327.123)" fill="#030000"/>
              <path id="パス_2053" data-name="パス 2053" d="M618.661,331.72a11.789,11.789,0,0,1-.329-2.169,1.317,1.317,0,0,1,.471-1.133,3.233,3.233,0,0,1,1.626-.376V327.4h-8.3v.613c1.414.214,1.862.827,2.547,3.561l3.583,14.053h2.263l.854-2.839Z" transform="translate(-612.13 -327.405)" fill="#030000"/>
              <path id="パス_2054" data-name="パス 2054" d="M619.7,327.4v.638a5.879,5.879,0,0,1,1.345.212,1.571,1.571,0,0,1,1.2,1.673,7.593,7.593,0,0,1-.331,2.077l-1.611,6.377.463,1.885,2.044-7.719c.849-3.255,1.556-4.2,3.324-4.5V327.4Z" transform="translate(-600.857 -327.405)" fill="#030000"/>
            </g>
            <g id="グループ_354" data-name="グループ 354" transform="translate(258.77 9.97)">
              <path id="パス_2055" data-name="パス 2055" d="M633.247,342.08a1.481,1.481,0,0,1-1.061-.471c-.827-.944-1.275-2.9-1.275-5.59,0-3.75.874-5.894,2.405-5.894a1.578,1.578,0,0,1,1.008.356l-.02-.725a4.574,4.574,0,0,0-1.7-.316,5.482,5.482,0,0,0-2.971.8c-1.673,1.061-2.642,3.349-2.642,6.295,0,2.288.59,4.009,1.723,5.072a4.73,4.73,0,0,0,3.371,1.248,5.8,5.8,0,0,0,2.428-.518c.047-.022.085-.042.127-.065l-.027-1.013A1.673,1.673,0,0,1,633.247,342.08Z" transform="translate(-626.997 -324.065)" fill="#030000"/>
              <path id="パス_2056" data-name="パス 2056" d="M635.728,344.944c-.378-.306-.5-1.038-.5-2.876V332.21c0-1.743.047-2.876.164-4.928l-5.682.306v.565c1.651-.022,1.887.284,1.887,2.405v3.018l.316,11.631.06.727,4.811-.214v-.588C636.082,345.108,635.918,345.085,635.728,344.944Z" transform="translate(-622.947 -327.282)" fill="#030000"/>
            </g>
            <g id="グループ_355" data-name="グループ 355" transform="translate(245.678 15.383)">
              <path id="パス_2057" data-name="パス 2057" d="M623.254,331.922h.027v-.316C623.271,331.713,623.264,331.808,623.254,331.922Z" transform="translate(-619.482 -326.253)" fill="#030000"/>
              <path id="パス_2058" data-name="パス 2058" d="M632.986,339.13a4.372,4.372,0,0,1-3.747,2.734,3.2,3.2,0,0,1-3.02-2.122,9.135,9.135,0,0,1-.73-3.939s.04-.891.05-1a25.477,25.477,0,0,1,.373-2.609,3.074,3.074,0,0,1,1.34-2.146v-.59a5.524,5.524,0,0,0-3.508,1.417,6.924,6.924,0,0,0-2,5.187,7.838,7.838,0,0,0,1.18,4.387,6.432,6.432,0,0,0,5.4,2.405,5.491,5.491,0,0,0,5.329-3.277Z" transform="translate(-621.739 -329.451)" fill="#030000"/>
              <path id="パス_2059" data-name="パス 2059" d="M626.286,331.281a10.4,10.4,0,0,1,.518,3.845H623.8v.682h6.708a9.341,9.341,0,0,0-.448-3.16,4.812,4.812,0,0,0-4.547-3.192v.717A2.417,2.417,0,0,1,626.286,331.281Z" transform="translate(-618.67 -329.456)" fill="#030000"/>
            </g>
            <path id="パス_2060" data-name="パス 2060" d="M610.156,383.47v-37.9h2.059v37.9Z" transform="translate(-393.32 -290.068)" fill="#030000"/>
            <path id="パス_2061" data-name="パス 2061" d="M633.936,383.47v-37.9H636v37.9Z" transform="translate(-357.888 -290.068)" fill="#030000"/>
            <rect id="長方形_454" data-name="長方形 454" width="6.344" height="6.344" transform="translate(151.898 86.267)" fill="#030000"/>
            <g id="グループ_356" data-name="グループ 356" transform="translate(163.722 56.341)">
              <path id="パス_2062" data-name="パス 2062" d="M588.881,346.922l-.005,2.672h.722a19.027,19.027,0,0,1,2.719.125l.005-3.314C591.344,346.533,589.523,346.812,588.881,346.922Z" transform="translate(-588.749 -345.161)" fill="#030000"/>
              <path id="パス_2063" data-name="パス 2063" d="M603.021,380.235c-.944-.66-1.367-2.074-1.367-4.669V356.61c0-3.725.142-7.545.423-10.7-3.165.393-5.8.754-7.906,1.048v3.959c.025.384.03.827.03,1.357v23.3c0,2.689-.423,4.056-1.509,4.716-.8.52-1.556.662-3.867.662v1.272h18.062v-1.272C604.482,380.944,603.775,380.8,603.021,380.235Z" transform="translate(-588.825 -345.905)" fill="#030000"/>
            </g>
            <g id="グループ_357" data-name="グループ 357" transform="translate(221.547 65.753)">
              <path id="パス_2064" data-name="パス 2064" d="M623.659,362.466,618.8,349.685h-6.554v.637a4.6,4.6,0,0,1,1.394.207,3.3,3.3,0,0,1,1.753,1.155l.065.137.04.127v-.022l5.871,15.231h1.414l4.676-12.1v-2.408Z" transform="translate(-611.751 -349.685)" fill="#030000"/>
              <path id="パス_2065" data-name="パス 2065" d="M614.829,360.729a6.9,6.9,0,0,1-.518,3.16c-.4.8-.921,1.061-2.263,1.13v.66h6.506v-.66c-1.32-.095-1.838-.329-2.238-1.13a6.96,6.96,0,0,1-.521-3.16v-6.693l-.966-2.916Z" transform="translate(-612.048 -347.547)" fill="#030000"/>
              <path id="パス_2066" data-name="パス 2066" d="M624.163,364.7V352.867c0-1.295.117-1.838.448-2.144.281-.284.613-.354,1.768-.4v-.637h-6.066v1.927l0-.018V364.7c0,2.146-.281,2.453-2.38,2.478v.635h8.605v-.635C624.444,367.157,624.163,366.874,624.163,364.7Z" transform="translate(-603.272 -349.685)" fill="#030000"/>
            </g>
            <g id="グループ_358" data-name="グループ 358" transform="translate(245.123 70.85)">
              <path id="パス_2067" data-name="パス 2067" d="M625.5,358.424c0-3.85.513-5.637,1.805-6.053v-.638a6.255,6.255,0,0,0-4.021,1.738,7.821,7.821,0,0,0,0,9.905,6.226,6.226,0,0,0,4.021,1.76V364.5C626.013,364.078,625.5,362.273,625.5,358.424Z" transform="translate(-621.516 -351.73)" fill="#030000"/>
              <path id="パス_2068" data-name="パス 2068" d="M630.154,358.425a7.292,7.292,0,0,0-1.768-4.953,6.278,6.278,0,0,0-4.011-1.741v.637c1.282.416,1.8,2.206,1.8,6.078,0,3.852-.513,5.64-1.8,6.056v.637a6.225,6.225,0,0,0,4.011-1.763A7.206,7.206,0,0,0,630.154,358.425Z" transform="translate(-617.256 -351.732)" fill="#030000"/>
            </g>
            <g id="グループ_359" data-name="グループ 359" transform="translate(258.481 70.823)">
              <path id="パス_2069" data-name="パス 2069" d="M636.451,361.885V356.32a5.522,5.522,0,0,0-.543-2.878,3.509,3.509,0,0,0-3.324-1.721,4.834,4.834,0,0,0-2.978.9v.906a2.261,2.261,0,0,1,1.469-.558c1.225,0,1.743,1.061,1.743,3.513v5.4c0,2.027-.212,2.286-1.838,2.311v.588h7.333V364.2C636.663,364.171,636.451,363.912,636.451,361.885Z" transform="translate(-622.821 -351.721)" fill="#030000"/>
              <path id="パス_2070" data-name="パス 2070" d="M632.337,353.251l-.032-1.511-5.4.354v.613c.9.025,1.083.047,1.342.237.378.259.473.707.473,2.169v6.745c0,2.027-.212,2.286-1.84,2.311v.588h7.333v-.588c-1.651-.025-1.862-.284-1.862-2.311v-3.272h-.015Z" transform="translate(-626.881 -351.693)" fill="#030000"/>
            </g>
            <g id="グループ_360" data-name="グループ 360" transform="translate(86.39 56.847)">
              <path id="パス_2071" data-name="パス 2071" d="M569.867,363.989l-12.1-17.881h5.047l12.1,17.881Z" transform="translate(-557.768 -346.108)" fill="#030000"/>
              <path id="パス_2072" data-name="パス 2072" d="M574.914,353.282l-12.1,17.878h-5.047l12.1-17.878Z" transform="translate(-557.768 -335.419)" fill="#030000"/>
            </g>
            <g id="グループ_361" data-name="グループ 361" transform="translate(164.103 0.04)">
              <path id="パス_2073" data-name="パス 2073" d="M596.692,337.749c-.047-2.273-.095-2.368-.426-2.841-.471-.757-1.514-1.135-2.936-1.135-2.7,0-4.353,1.277-4.353,3.454,0,2.273,1.419,4.4,4.021,5.869a17.381,17.381,0,0,0,7.589,1.76V343.64C598.126,343.3,596.737,341.237,596.692,337.749Z" transform="translate(-588.978 -307.682)" fill="#030000"/>
              <path id="パス_2074" data-name="パス 2074" d="M594.669,324.485c-3.362,1.464-5.349,4.069-5.349,6.955,0,1.753,1.422,2.747,4.024,2.747,1.7,0,2.839-.473,3.359-1.419.239-.476.284-.615.284-2.368a11.785,11.785,0,0,1,.807-3.882,3.262,3.262,0,0,1,2.286-1.965V323.3A14.659,14.659,0,0,0,594.669,324.485Z" transform="translate(-588.469 -323.29)" fill="#030000"/>
              <path id="パス_2075" data-name="パス 2075" d="M609.616,350.756a7.969,7.969,0,0,0-3.879-7.288c-2.131-1.372-4.355-2.037-8.14-2.321v-.331c7.052-.662,11.073-3.879,11.073-8.9,0-5.271-4.064-8.429-10.894-8.625v1.248q3.361.717,3.369,7.091c0,2.794-.615,4.973-1.8,6.344-1.325,1.561-3.264,2.273-6.576,2.365h-.712v1.422l.852.047c6.534.139,8.947,2.46,8.947,8.66,0,5.237-1.365,8.157-4.079,8.73v1.243c3.678-.149,6.825-1.086,8.907-2.779A8.51,8.51,0,0,0,609.616,350.756Z" transform="translate(-584.39 -323.294)" fill="#030000"/>
            </g>
            <g id="グループ_362" data-name="グループ 362" transform="translate(121.078 56.403)">
              <path id="パス_2076" data-name="パス 2076" d="M580.454,364.325a6.822,6.822,0,0,1-1.23-4.355c0-1.7-.095-2.082-.426-2.555a3.5,3.5,0,0,0-3.03-1.183c-2.649,0-4.069,1.183-4.069,3.314,0,4.228,4.746,7.313,11.217,7.49V365.8A4.316,4.316,0,0,1,580.454,364.325Z" transform="translate(-571.699 -330.579)" fill="#030000"/>
              <path id="パス_2077" data-name="パス 2077" d="M574.436,363.821l.9-11.265h18.13l1.041-6.626h-20.59l-1.609,20.259,1.75.52c2.084-3.22,4.875-4.97,7.906-4.97l.047.005v-1.96C579.227,360.2,577,361.4,574.436,363.821Z" transform="translate(-570.793 -345.93)" fill="#030000"/>
              <path id="パス_2078" data-name="パス 2078" d="M589.15,362.17c0-6.628-4.45-10.747-11.6-10.747-.219,0-.423.017-.637.025v2.4c2.961.9,4.614,4.1,4.614,9.223a17.32,17.32,0,0,1-1.375,7.336,4.4,4.4,0,0,1-3.24,2.535v1.255C584.447,373.753,589.15,369.182,589.15,362.17Z" transform="translate(-563.924 -337.745)" fill="#030000"/>
            </g>
          </g>
        </g>
      </g>
    </g>
  </g>
</svg>
