
<svg xmlns="http://www.w3.org/2000/svg" xmlns:xlink="http://www.w3.org/1999/xlink" width="1333" height="1334" viewBox="0 0 1333 1334">
  <defs>
    <clipPath id="clip-path">
      <rect id="長方形_1073" data-name="長方形 1073" width="1333" height="1334" transform="translate(845.637 791.536)" fill="#dc000c"/>
    </clipPath>
  </defs>
  <g id="mv--portrait" transform="translate(-845.637 -791.536)">
    <g id="マスクグループ_2" data-name="マスクグループ 2" clip-path="url(#clip-path)">
      <g id="グループ_465" data-name="グループ 465" transform="translate(-0.018)">
        <g id="グループ_385" data-name="グループ 385" transform="translate(1197.079 1052.521)">
          <path id="パス_2079" data-name="パス 2079" d="M134.728,293.784c0,.575.007,1.108.014,1.6.035,3.245.13,3.541.13,6.193,0,2.483.261,5.932-2.631,6.98-3.682,1.326-6.507,1.88-12.4,2.74-1.005.148-2.687.36-3.548.416a1.693,1.693,0,0,1-1.993-1.661V241.946a65.064,65.064,0,0,0,8.274-8.538,66.625,66.625,0,0,0,7.466-10.514c3.435.628,8.944,1.693,9.4,1.806.529.13.466,1.453.085,2.014-.832,1.22-2.335,1.679-4.945,2.857v42.171c.123,12.065.141,13.949.145,16.171Zm52.212-82.158h19.574c5.544-6.274,7.442-8.316,12.841-14.591,8.313,6.419,10.8,8.464,18.819,15.469a2.1,2.1,0,0,1,.73,1.164.938.938,0,0,1-.875.875H186.164Zm-23.44,2.917H146.691a43.471,43.471,0,0,0-8.172.73l-.875-4.814a35.8,35.8,0,0,0,9.046,1.167h17.476Z" transform="translate(-98.394 -176.756)" fill="#030000"/>
          <path id="パス_2080" data-name="パス 2080" d="M125.691,253.88a100.281,100.281,0,0,1-15.028,13.861l-.875-.73c4.814-7.734,6.856-12.111,10.651-22.032,8.754-22.762,12.986-38.228,14.883-53.693,14.3,2.917,27.725,6.761,28.169,6.98s.642,1.248-.335,2.049a14.971,14.971,0,0,1-6.094,2.934c-8.754,19.4-13.13,27.139-17.8,33.7A203.339,203.339,0,0,1,125.691,253.88Z" transform="translate(-109.788 -191.285)" fill="#030000"/>
          <path id="パス_2081" data-name="パス 2081" d="M147.666,224.9a175.363,175.363,0,0,0,2.92-33.121c9.484,1.167,26.885,4.222,27.8,4.444s.991,1.622.282,2.282a15.429,15.429,0,0,1-5.562,3.213c-2.624,13.571-3.111,15.885-4.86,23.182l-.73,2.917c-3.791,15.176-7.442,25.39-12.841,36.189l-1.6,2.917C144.6,282.1,132.638,296.4,120.089,305.882v-3.358c12.4-20.279,21.888-46.4,27.143-74.706Z" transform="translate(-83.759 -190.032)" fill="#030000"/>
          <g id="グループ_384" data-name="グループ 384" transform="translate(41.73 60.549)">
            <path id="パス_2082" data-name="パス 2082" d="M190.508,224.8c1.023,0,1.6-.293,1.6-.875,0-.437-.289-.878-.875-1.46-7.586-6.274-10.069-8.172-17.8-14.009L161.33,221.88h-29c-.416.769-.984,1.9-1.647,2.917Z" transform="translate(-98.732 -208.453)" fill="#030000"/>
            <rect id="長方形_474" data-name="長方形 474" width="21.156" height="44.916" transform="translate(38.375 22.194)" fill="#030000"/>
            <path id="パス_2083" data-name="パス 2083" d="M219.088,238.375c-7.442-6.712-9.776-8.754-17.655-15.028-5.4,6.13-7.149,8.024-12.693,14.443H131.1a38.829,38.829,0,0,1-9.484-1.312l.878,4.962a38.739,38.739,0,0,1,8.605-.73h87.547a1.177,1.177,0,0,0,1.312-1.023Q219.963,239.253,219.088,238.375Z" transform="translate(-121.62 -170.818)" fill="#030000"/>
          </g>
        </g>
        <g id="グループ_388" data-name="グループ 388" transform="translate(1356.804 1051.354)">
          <path id="パス_2084" data-name="パス 2084" d="M184.423,222.279a9.009,9.009,0,0,0,4.814-3.791,13.315,13.315,0,0,0,2.335-6.86,8.577,8.577,0,0,0-3.795-6.86c-2.627-2.039-5.4-3.209-15.758-6.563l-.437.582c3.061,4.818,4.232,7.59,4.814,12.256,1.6,10.069,1.6,10.069,4.084,11.237a7.5,7.5,0,0,0,2.024.243A9.63,9.63,0,0,0,184.423,222.279Z" transform="translate(-113.368 -172.632)" fill="#030000"/>
          <path id="パス_2085" data-name="パス 2085" d="M174.549,200.634H161.641l-1.44,2.921h15.677Z" transform="translate(-142.125 -166.493)" fill="#030000"/>
          <path id="パス_2086" data-name="パス 2086" d="M172.061,215.4h-10.29l-.083,2.918h10.373Z" transform="translate(-138.367 -129.172)" fill="#030000"/>
          <path id="パス_2087" data-name="パス 2087" d="M191.377,203.393H165.219a45.131,45.131,0,0,1-8.9-1.164l.73,4.959a36.426,36.426,0,0,1,8.172-.875h26.159Zm44.114,0H213.226l-.081,2.92H235.41Zm21.768,2.92H290.99c1.315,0,1.9-.293,1.9-.875,0-.293-.148-.585-.73-1.167-7.59-5.837-9.925-7.586-17.8-12.986-5.107,5.107-6.712,6.712-11.526,12.108h-5.407Z" transform="translate(-151.94 -190.118)" fill="#030000"/>
          <path id="パス_2088" data-name="パス 2088" d="M186.47,204.229V198.54c3.008-1.04,4.144-2.257,4.726-3.255.43-.741.748-1.883-.289-2.031-2.878-.406-10.658-1.2-25.157-2.3.145,6.564.289,10.214.289,10.651v5.544l-.289,6.712c.131,2.917.624,3.544,5.1,3.745.448.018,6.507-.007,7.717-.06,6.518-.282,7.784-1.1,7.907-3.686v-9.632Z" transform="translate(-128.104 -190.954)" fill="#030000"/>
          <path id="パス_2089" data-name="パス 2089" d="M198.985,198.54c3.012-1.04,4.148-2.257,4.73-3.255.43-.741.748-1.883-.293-2.031-2.874-.406-10.658-1.2-25.157-2.3.148,6.564.293,10.214.293,10.651,0,1.019-.074,5.544-.074,5.544l-.148,6.567c0,2.769,1.167,3.209,8.316,3.209,9.632,0,12.4-.73,12.4-3.647-.148-2.92-.148-4.377-.148-6.13C198.908,207.149,198.985,199.923,198.985,198.54Z" transform="translate(-96.481 -190.954)" fill="#030000"/>
          <path id="パス_2090" data-name="パス 2090" d="M180.1,259.728a213.263,213.263,0,0,0,1.457-23.348v-2.917c.293-11.819.293-19.4.437-22.907l3.576-2.92a184.474,184.474,0,0,0-20.138-9.773c.437,12.111.585,17.218.585,20.424,0,37.064-.293,45.528-1.9,57.343-1.753,13.427-4.088,22.762-9.046,34.436l.73.73c8.461-7.586,10.432-12.7,15.1-20.865a71.694,71.694,0,0,0,8.9-27.287Z" transform="translate(-155.076 -173.496)" fill="#030000"/>
          <path id="パス_2091" data-name="パス 2091" d="M170.18,207.957h-7.714l.083,2.918h7.631Z" transform="translate(-136.403 -147.99)" fill="#030000"/>
          <path id="パス_2092" data-name="パス 2092" d="M190.114,221.326c5.343-3.213,7.121-4.324,17.627-12.64,5.4-.437,7.586-1.167,7.586-2.772s-1.146-2.084-7.043-3.827c-2.335-.582-9.738-2.885-14.259-4.345-1.6,7.734-5.823,18.266-9.59,23.75C183.216,223.492,187.064,223.156,190.114,221.326Z" transform="translate(-81.473 -173.802)" fill="#030000"/>
          <path id="パス_2093" data-name="パス 2093" d="M183.384,206.848a44.227,44.227,0,0,0,3.943,12.4l1.312,2.92c5.252,10.21,11.381,17.215,19.553,22.614,5.541,3.795,5.541,3.795,6.564,3.795.878,0,1.167-.437,1.6-2.042,2.335-9.194,4.088-12.111,9.339-15.321v-1.167c-10.214-.875-17.07-3.065-25.386-7.879l-4.525-2.92c-4.814-3.647-6.856-6.126-10.214-12.4Z" transform="translate(-83.546 -150.792)" fill="#030000"/>
          <path id="パス_2094" data-name="パス 2094" d="M170.838,265.8a118.983,118.983,0,0,0,10.655-6.419c1.467-1.09,1.467-1.009,2.479-1.749a76.051,76.051,0,0,0,17.215-17.659l1.9-2.917a129.9,129.9,0,0,0,6.856-12.4l1.316-2.92a70.068,70.068,0,0,0,4.74-14.2c3.791-1.023,5.837-2.187,5.837-3.647,0-1.6-2.772-2.335-13.13-3.5l-11.674-1.457c0,10.8-.363,13.028-3.135,22.8l-.875,2.92a122.186,122.186,0,0,1-4.67,12.4l-1.312,2.917c-5.11,10.069-9.777,16.784-16.2,23.2Z" transform="translate(-115.248 -170.81)" fill="#030000"/>
          <path id="パス_2095" data-name="パス 2095" d="M185.219,233.026c2.423-1.594,4.744-5.058,4.744-8.267,0-4.874-9.106-8.179-12.608-8.838-2.261-.423-3.082.6-3.082.6,1.8,3.171,2.091,3.876,1.718,7.823-.582,6.119.2,8.63,1.746,9.516C178.134,234.088,179.848,236.571,185.219,233.026Z" transform="translate(-106.57 -128.127)" fill="#030000"/>
          <path id="パス_2096" data-name="パス 2096" d="M202.587,228.732a10.772,10.772,0,0,0,4.211-.067,1.764,1.764,0,0,0,1.136-2.024c-1.129-.691-3.707-2.243-5.812-3.626a62.162,62.162,0,0,1-8.306-7.421c-1.316,5.255-4.941,11.533-9.466,18.393C184.35,233.987,190.575,234.389,202.587,228.732Z" transform="translate(-81.105 -128.692)" fill="#030000"/>
          <path id="パス_2097" data-name="パス 2097" d="M200.775,243.536c1.316,3.354,1.46,3.647,1.9,4.232a5.082,5.082,0,0,0,3.358,1.749c4.67,0,9.921-7.3,9.921-13.861a6.532,6.532,0,0,0-1.019-4.088,15.758,15.758,0,0,0-6.567-4.814c-5.04-2.307-8.376-3.188-18.848-4.9l-4.645-.649S197.054,235.661,200.775,243.536Z" transform="translate(-79.786 -114.499)" fill="#030000"/>
          <path id="パス_2098" data-name="パス 2098" d="M199.718,225.33v-4.962a67.653,67.653,0,0,1-7.727,2.691c-1.069.324-4.37,1.206-6.493,1.615-6.331,1.213-7.047.9-14.136,1.34a71.643,71.643,0,0,0,5.167,18.213c.818,1.732,1.919,3.573,2.7,3.95.659.314,1.2.335,1.33-.222.444-1.827.719-3.989,1.21-6.281A152.755,152.755,0,0,0,199.718,225.33Z" transform="translate(-113.924 -116.629)" fill="#030000"/>
          <path id="パス_2099" data-name="パス 2099" d="M187.021,246.3v8.087c0,1.749-.247,2.966-1.411,2.966-5.872,0-9.223.254-9.223.254,6.821,2.959,6.7,4.5,7.131,12.1.145,3.795.293,4.088,2.917,4.088,4.962,0,9.339-.875,12.259-2.479,3.939-2.19,5.1-4.67,5.1-11.526-.145-5.985-.145-8.175-.145-13.864V218.933c3.795-1.023,4.387-1.95,4.387-3.118,0-1.6-3.365-1.95-11.55-2.74-2.472-.24-5.237-.416-10.2-.857a150.542,150.542,0,0,1,.73,15.469V246.3Z" transform="translate(-101.226 -137.223)" fill="#030000"/>
          <g id="グループ_386" data-name="グループ 386" transform="translate(57.34 55.883)">
            <path id="パス_2100" data-name="パス 2100" d="M192.65,220.074h21.323c.73,0,1.312-.289,1.312-.875a1.582,1.582,0,0,0-.73-1.019c-6.419-5.107-8.609-6.712-15.465-11.381-4.084,4.377-5.4,5.837-9.336,10.358H187.2Z" transform="translate(-131.24 -206.799)" fill="#030000"/>
            <path id="パス_2101" data-name="パス 2101" d="M180.274,212.654h16.168l-1.315-2.918H182.212Z" transform="translate(-148.745 -199.377)" fill="#030000"/>
            <path id="パス_2102" data-name="パス 2102" d="M188.3,210.243l-8.789.12a36.842,36.842,0,0,1-8.175-.875l.585,4.669a27.582,27.582,0,0,1,7.59-.878l7.4-.12Z" transform="translate(-171.334 -200.004)" fill="#030000"/>
          </g>
          <g id="グループ_387" data-name="グループ 387" transform="translate(58.948 41.874)">
            <path id="パス_2103" data-name="パス 2103" d="M192.74,205.9l-9.18.12h-5.428a19.407,19.407,0,0,1-6.341-.875l.437,4.377a33.4,33.4,0,0,1,7.294-.582l12.277-.12Z" transform="translate(-171.79 -196.972)" fill="#030000"/>
            <path id="パス_2104" data-name="パス 2104" d="M182.739,214.794h39.3c1.023,0,1.46-.145,1.46-.585s-.293-.73-.878-1.312c-5.544-4.525-7.293-5.982-12.838-10.069-3.795,3.795-4.962,4.962-8.754,9.046H184.069Z" transform="translate(-144.123 -202.827)" fill="#030000"/>
          </g>
          <path id="パス_2105" data-name="パス 2105" d="M196.554,262.731V212.406c3.358-1.894,4.232-2.768,4.232-3.936,0-.73-.437-1.315-1.457-2.19-5.1-3.992-9.653-6.909-11.258-7.293a9.5,9.5,0,0,0-3.456-.035c-3.047,2.663-4.006,2.864-7.177,6.306l1.171,2.92v77.185c0,1.316-1.023,2.19-2.628,2.19H175.4c-8.147,0-9.974-.092-14.594-.092l-.145.674c11.381,4.377,12.7,5.982,12.986,14.735,0,4.525.289,4.818,3.647,4.818,13.571,0,19.408-4.088,19.408-13.716V291.2c-.145-8.059-.148-8.168-.148-24.424Z" transform="translate(-140.964 -171.117)" fill="#030000"/>
        </g>
        <g id="グループ_390" data-name="グループ 390" transform="translate(1195.654 1195.341)">
          <g id="グループ_389" data-name="グループ 389" transform="translate(34.821 22.441)">
            <path id="パス_2106" data-name="パス 2106" d="M189.935,238.365V310.4l.145,22.032c0,6.13-.875,9.046-3.791,12.111-3.358,3.5-8.609,5.833-15.321,6.856a71.587,71.587,0,0,1-8.32.73c-2.331,0-2.479-.145-2.917-4.377-.437-4.959-3.647-9.046-8.754-11.526-4.962-2.338-11.646-4.236-23.418-7.293v-1.058h38.654c2.046,0,2.628-.324,2.628-2.074l-.494-87.657Z" transform="translate(-98.279 -238.143)" fill="#030000"/>
            <path id="パス_2107" data-name="パス 2107" d="M142.076,288.159H119.257v2.917H142.3Zm0-44.795H122.8l-1.217,2.92h21.489Z" transform="translate(-119.257 -224.95)" fill="#030000"/>
          </g>
          <path id="パス_2108" data-name="パス 2108" d="M254.535,249.143c1.171,0,2.046-.437,2.046-1.167,0-.434-.3-1.019-1.171-1.749-8.461-6.419-11.088-8.316-19.549-14.446-5.837,6.13-7.59,8.172-13.13,14.446H119.6a42.672,42.672,0,0,1-10.214-1.312l.73,4.959a62.664,62.664,0,0,1,9.484-.73Z" transform="translate(-109.384 -231.78)" fill="#030000"/>
          <path id="パス_2109" data-name="パス 2109" d="M136.308,254.332l1.023-2.92a208.661,208.661,0,0,0-22.907-11.233c.582,15.028.726,16.2.726,24.656,0,6.994-.455,46.791-.455,47.066a1.78,1.78,0,0,0,2.1,1.753c.906-.056,2.68-.282,3.742-.437,6.221-.906,9.2-1.492,13.088-2.892,3.051-1.1,2.776-4.747,2.776-7.364C136.4,301.56,136.308,254.332,136.308,254.332Z" transform="translate(-96.649 -210.557)" fill="#030000"/>
          <path id="パス_2110" data-name="パス 2110" d="M128.182,309.239a1.784,1.784,0,0,0,2.1,1.753c.906-.06,2.68-.282,3.742-.437,6.221-.906,9.2-1.492,13.088-2.9,3.051-1.1,2.776-4.744,2.776-7.361,0-1.174-.437-21.412-.437-42.213,3.647-2.042,4.67-2.772,4.67-4.088,0-1.019-.585-1.749-2.046-3.061a179.057,179.057,0,0,0-14.591-10.8c-4.666,4.962-6.126,6.422-10.506,11.381l1.316,2.92S128.182,308.981,128.182,309.239Z" transform="translate(-64.924 -210.663)" fill="#030000"/>
        </g>
        <g id="グループ_391" data-name="グループ 391" transform="translate(1353.911 1200.885)">
          <path id="パス_2111" data-name="パス 2111" d="M179.969,263.348h61.523c1.315,0,2.046-.434,2.046-1.019,0-.437-.437-.878-1.167-1.753-8.757-7.586-11.526-9.773-20.72-16.922-6.563,7.149-8.609,9.484-15.321,16.777H179.86Z" transform="translate(-89.558 -207.32)" fill="#030000"/>
          <path id="パス_2112" data-name="パス 2112" d="M171.249,279.793a39.367,39.367,0,0,1-10.94-1.312l.875,5.252a40.474,40.474,0,0,1,10.066-1.023H271.2c1.316,0,2.042-.289,2.042-1.019,0-.289-.293-.73-.875-1.46-8.754-7.586-11.381-9.921-20.428-17.215-6.567,7.149-8.464,9.336-15.028,16.777Z" transform="translate(-138.961 -158.395)" fill="#030000"/>
          <path id="パス_2113" data-name="パス 2113" d="M218.692,249.247H164.614a37.4,37.4,0,0,1-10.358-1.167l.73,4.962a36.643,36.643,0,0,1,9.628-.878h54.077Z" transform="translate(-154.256 -196.136)" fill="#030000"/>
          <path id="パス_2114" data-name="パス 2114" d="M172.633,349.654V258.015a222.05,222.05,0,0,0-1.312-24.663c.913.081,1.739.169,2.589.254,12.129,1,25.041,2.137,28.666,2.546,1.192.134.825,1.478.331,2.324-.667,1.143-1.968,2.539-5.414,3.728,0,1.587-.155,107.449-.155,107.449Z" transform="translate(-111.135 -233.352)" fill="#030000"/>
        </g>
        <g id="グループ_393" data-name="グループ 393" transform="translate(1521.786 1194.787)">
          <path id="パス_2115" data-name="パス 2115" d="M209.938,260.279l.109-2.917V241.248L229.3,238.7v74.4c0,11.928.1,25.862.1,28.261,0,2.427.257,5.8-2.571,6.824-3.6,1.3-6.362,1.841-12.129,2.68-.98.141-2.628.349-3.463.406a1.654,1.654,0,0,1-1.95-1.626c0-.254.1-4.874.1-10.454,0-2.515.652-41.268.652-41.268l-.109-37.642" transform="translate(-183.06 -213.735)" fill="#030000"/>
          <g id="グループ_392" data-name="グループ 392" transform="translate(70.611 19.99)">
            <path id="パス_2116" data-name="パス 2116" d="M221.876,332.83m39.854,2.8H238.939l-.166,2.917h22.79Zm-.913-98.343-18.191.007-2.077,2.92,21.017-.011Z" transform="translate(-221.876 -237.291)" fill="#030000"/>
          </g>
          <path id="パス_2117" data-name="パス 2117" d="M203.2,257.009l-.145-1.46A156.127,156.127,0,0,0,231.652,243c8.609-4.818,11.526-6.715,16.777-11.381,14.3,10.066,19.7,14.591,19.7,16.192,0,.878-.875,1.464-2.042,1.464-.582,0-3.209-.441-5.4-.734A95.012,95.012,0,0,1,238,254.1,280.264,280.264,0,0,1,203.2,257.009Z" transform="translate(-198.828 -231.623)" fill="#030000"/>
          <path id="パス_2118" data-name="パス 2118" d="M226.515,283.593q-.5.577-.977,1.129c-8.51,9.78-12.542,13.268-22.808,19.736l-.875-.73a174.937,174.937,0,0,0,16.827-32.743,128.932,128.932,0,0,0,7.477-23.909c.081-.367.166-.741.25-1.125Z" transform="translate(-201.855 -195.418)" fill="#030000"/>
          <path id="パス_2119" data-name="パス 2119" d="M215.344,247.658c.183.07.363.145.543.215,13.945,5.491,21.2,11.688,21.2,18.318,0,6.126-6.715,13.568-12.256,13.568-2.483,0-3.5-1.6-3.795-5.544C220.327,261.885,215.344,247.658,215.344,247.658Z" transform="translate(-167.77 -191.105)" fill="#030000"/>
          <path id="パス_2120" data-name="パス 2120" d="M214.967,254.647h21.161c.875,0,1.457-.293,1.457-.73a3.075,3.075,0,0,0-.73-1.6c-5.107-5.107-6.712-6.567-12.108-11.381-3.795,4.67-5.107,6.13-9.05,10.8h-.73Z" transform="translate(-168.723 -208.103)" fill="#030000"/>
          <path id="パス_2121" data-name="パス 2121" d="M225.608,244.936H211.014a26.242,26.242,0,0,1-7.879-1.316l1.023,5.107a27.163,27.163,0,0,1,7-.875H225.5Z" transform="translate(-198.621 -201.308)" fill="#030000"/>
          <path id="パス_2122" data-name="パス 2122" d="M222.083,341.823c0,2.793-.113,14.15-.145,16.372,0,.081.014.138.018.215-.021,1.249-.035,2.028-.035,2.13A1.765,1.765,0,0,0,224,362.275c.9-.056,2.652-.282,3.7-.434,6.154-.9,9.1-1.474,12.944-2.86,3.019-1.09,2.744-4.694,2.744-7.283,0-1.513-.028-2.779-.06-4.155l-.06-2.917c0-.324-.025-95.426-.025-95.426l1.894-2.917a260.092,260.092,0,0,0-23.344-12.552c.437,10.8.585,24.808.585,40.273,0,29.312-.085,50.134-.254,67.811l-.042.007" transform="translate(-151.472 -226.294)" fill="#030000"/>
          <path id="パス_2123" data-name="パス 2123" d="M235.112,359.9a1.777,1.777,0,0,0,2.095,1.746c.9-.06,2.67-.282,3.724-.437,6.2-.9,9.166-1.485,13.039-2.881,3.04-1.1,2.762-4.726,2.762-7.332,0-2.43-.5-41.762-.621-98.632,4.088-2.479,5.107-3.5,5.107-4.959,0-.875-.585-1.749-2.042-2.772-6.278-4.67-8.172-6.13-14.739-10.651-4.229,5.107-5.544,6.712-10.066,11.674l.875,2.917S235.112,359.625,235.112,359.9Z" transform="translate(-119.692 -225.665)" fill="#030000"/>
        </g>
        <g id="グループ_395" data-name="グループ 395" transform="translate(1684.308 1194.248)">
          <path id="パス_2124" data-name="パス 2124" d="M327.674,234.449H258.332l-1.661,2.92h71.888Z" transform="translate(-225.864 -223.942)" fill="#030000"/>
          <path id="パス_2125" data-name="パス 2125" d="M280.182,310.994a197.018,197.018,0,0,0,1.749-19.846l.148-2.92c0-2.479,0-2.772.293-20.865l.144-2.917c.145-13.568.145-13.568.293-19.549l1.46-2.92c-8.4-4.035-16.206-7.357-24.078-10.506.73,11.967,1.019,21.009,1.019,37.064,0,55.735-2.769,76.307-13.275,100.237l1.167.875c17.655-16.922,26.7-33.41,30.641-55.735Z" transform="translate(-247.936 -231.47)" fill="#030000"/>
          <path id="パス_2126" data-name="パス 2126" d="M279.366,266.84v1.753c.148,2.772,1.167,3.354,6.567,3.354,11.526,0,13.86-.726,14.153-4.521-.293-11.381-.293-11.818-.293-19.549,3.213-1.608,4.522-2.628,4.522-3.943,0-.73-.582-1.312-1.894-2.335-5.985-4.229-7.879-5.544-14.591-9.921-4.814,4.962-4.814,4.962-9.487,9.776l1.023,2.92V266.84Z" transform="translate(-171.102 -230.947)" fill="#030000"/>
          <path id="パス_2127" data-name="パス 2127" d="M262,283.218H281.55s.109-32.581.109-33.833c2.719-.938,3.746-2.042,4.271-2.941.391-.67.681-1.728-.261-1.834-3.022-.342-14.231-1.323-24.243-2.148.275,2.377.571,8.655.571,9.671v31.086Z" transform="translate(-213.849 -203.695)" fill="#030000"/>
          <path id="パス_2128" data-name="パス 2128" d="M291.017,283.059v-31.95c.025-.458.06-.938.06-1.781,2.677-.924,3.686-2.007,4.2-2.892.384-.656.667-1.7-.258-1.8-1.548-.176-5.294-.522-9.914-.928-.508-.074-1.061-.138-1.679-.191-.155-.007-.289,0-.434.007-3.728-.324-7.854-.674-11.8-1,.268,2.293.55,8.256.564,9.417v31.117Z" transform="translate(-189.171 -203.536)" fill="#030000"/>
          <path id="パス_2129" data-name="パス 2129" d="M280,283.805V255.819H260.6v29.648Z" transform="translate(-215.948 -169.945)" fill="#030000"/>
          <path id="パス_2130" data-name="パス 2130" d="M286.83,256.188a56.578,56.578,0,0,1-9.452,13.536c-.578.578-1.883,1.107-2.218,1.442,0,0,5.463,2.832,5.816,2.769a96.222,96.222,0,0,0,20.594-5.745h.585c5.833,0,7.734-.437,7.734-2.042,0-1.714-.561-2.031-19.867-10.387a5.606,5.606,0,0,0-2.289-.6C287.127,255.282,286.989,255.853,286.83,256.188Z" transform="translate(-179.145 -171.656)" fill="#030000"/>
          <path id="パス_2131" data-name="パス 2131" d="M254.913,265.262c4.814,19.7,5.4,21.739,5.837,23.2.582,1.164,1.019,1.6,1.9,1.6,1.319,0,1.527-1.136,3.5-6.13,19.165-5.865,31.322-11.434,50.18-20.794C316.668,262.973,270.385,267.3,254.913,265.262Z" transform="translate(-230.306 -151.45)" fill="#030000"/>
          <path id="パス_2132" data-name="パス 2132" d="M269.7,254.845c.071.406.145.8.215,1.2,2.014,10.951,4.656,17.62,10.288,25.647l1.9,2.483a77.686,77.686,0,0,0,30.349,22.47c2.92,1.167,4.232,1.6,5.107,1.6,1.023,0,1.464-.582,1.9-2.331a34.957,34.957,0,0,1,4.232-10.069c2.772-4.814,4.525-6.419,9.05-8.754v-1.167c-14.3-.875-21.616-1.6-31.082-5.4-14.139-5.668-16.633-9.046-16.633-9.046-5.914-4.814-8.718-8.2-12.319-15.3q-.328-.645-.667-1.333Z" transform="translate(-192.949 -172.405)" fill="#030000"/>
          <path id="パス_2133" data-name="パス 2133" d="M303.63,265.2h56.176c.875,0,1.6-.437,1.6-1.023q0-.439-.878-1.312c-7.583-5.544-9.918-7.149-17.215-12.111-4.67,4.962-5.982,6.422-10.507,11.529H257.855l-.663,2.917h44.1" transform="translate(-224.547 -182.755)" fill="#030000"/>
          <g id="グループ_394" data-name="グループ 394" transform="translate(32.312 45.232)">
            <path id="パス_2134" data-name="パス 2134" d="M279.672,247.563h-12.96l-.111,2.918h13.071Z" transform="translate(-233.083 -236.036)" fill="#030000"/>
            <path id="パス_2135" data-name="パス 2135" d="M277.5,258.741h29.238c.73,0,1.316-.437,1.316-.875,0-.293-.293-.586-.73-1.167a174.272,174.272,0,0,0-16.488-12.4c-4.525,4.962-5.837,6.422-10.214,11.526h-3.008Z" transform="translate(-205.544 -244.295)" fill="#030000"/>
            <path id="パス_2136" data-name="パス 2136" d="M269.282,247.563H257.319l-.221,2.918h12.3Z" transform="translate(-257.098 -236.036)" fill="#030000"/>
          </g>
          <path id="パス_2137" data-name="パス 2137" d="M328.5,240.82H257.051l-.443,2.918H328.5Z" transform="translate(-226.023 -207.844)" fill="#030000"/>
        </g>
        <g id="グループ_400" data-name="グループ 400" transform="translate(1211.43 1508.054)">
          <g id="グループ_396" data-name="グループ 396" transform="translate(245.177)">
            <path id="パス_2138" data-name="パス 2138" d="M222.928,339.5V320.446A45.557,45.557,0,0,0,183.374,360H202.43A26.749,26.749,0,0,1,222.928,339.5Z" transform="translate(-183.374 -320.446)" fill="#030000"/>
            <path id="パス_2139" data-name="パス 2139" d="M197.755,355.329v19.052a45.561,45.561,0,0,0,39.557-39.554H218.257A26.753,26.753,0,0,1,197.755,355.329Z" transform="translate(-147.035 -284.107)" fill="#030000"/>
            <path id="パス_2140" data-name="パス 2140" d="M218.257,360h19.056a45.56,45.56,0,0,0-39.557-39.554V339.5A26.753,26.753,0,0,1,218.257,360Z" transform="translate(-147.035 -320.446)" fill="#030000"/>
            <path id="パス_2141" data-name="パス 2141" d="M202.43,334.827H183.374a45.557,45.557,0,0,0,39.554,39.554V355.329A26.749,26.749,0,0,1,202.43,334.827Z" transform="translate(-183.374 -284.107)" fill="#030000"/>
          </g>
          <g id="グループ_397" data-name="グループ 397" transform="translate(165.402 1.018)">
            <rect id="長方形_475" data-name="長方形 475" width="18.915" height="58.889" transform="translate(26.711 28.962)" fill="#030000"/>
            <rect id="長方形_476" data-name="長方形 476" width="72.336" height="17.806" fill="#030000"/>
          </g>
          <g id="グループ_398" data-name="グループ 398" transform="translate(79.752 0.982)">
            <path id="パス_2142" data-name="パス 2142" d="M168.564,375.548l20.548-54.824H170.691L136.47,408.613h19.792L162,393.106h28.177l-6.61-17.558Z" transform="translate(-136.47 -320.724)" fill="#030000"/>
            <path id="パス_2143" data-name="パス 2143" d="M190.688,401.446l-30.326-77.885-9.51,25.416,19.616,52.469Z" transform="translate(-100.128 -313.557)" fill="#030000"/>
          </g>
          <g id="グループ_399" data-name="グループ 399">
            <path id="パス_2144" data-name="パス 2144" d="M145.222,355.09c-6.87-1.608-10.4-3.686-10.4-7.8,0-4.61,3.947-7.907,10.4-9.036v-17.8c-15.79,1.478-30.359,10.27-30.359,27.947,0,7.547,2.483,13.575,7.47,17.878h22.889Z" transform="translate(-111.315 -320.446)" fill="#030000"/>
            <path id="パス_2145" data-name="パス 2145" d="M144.664,344.976l.765.469,9.008-15.553-.741-.444a61.681,61.681,0,0,0-27.058-8.986v17.754A46.872,46.872,0,0,1,144.664,344.976Z" transform="translate(-81.561 -320.408)" fill="#030000"/>
            <path id="パス_2146" data-name="パス 2146" d="M155.167,349.349a21.284,21.284,0,0,0-6.408-15.91h-22.12v10.383c6.186,1.725,8.507,3.9,8.507,7.371,0,4.44-3.671,7.216-8.507,8.56v18.026C147.5,375.084,155.167,361.329,155.167,349.349Z" transform="translate(-81.561 -287.615)" fill="#030000"/>
            <path id="パス_2147" data-name="パス 2147" d="M124.483,338.924l-.755-.607-9.872,15.321.61.49c8.144,6.57,20.4,10.672,33.3,11.325V347.84A44.764,44.764,0,0,1,124.483,338.924Z" transform="translate(-113.857 -275.289)" fill="#030000"/>
          </g>
        </g>
        <g id="グループ_408" data-name="グループ 408" transform="translate(1210.346 1398.601)">
          <g id="グループ_401" data-name="グループ 401" transform="translate(0 0.963)">
            <rect id="長方形_477" data-name="長方形 477" width="18.913" height="87.887" fill="#030000"/>
            <path id="パス_2148" data-name="パス 2148" d="M175.538,337.351,148.732,305.6H124.883l26.132,31.749Z" transform="translate(-84.912 -249.464)" fill="#030000"/>
            <path id="パス_2149" data-name="パス 2149" d="M183.211,289.685H161.836L142.75,316.91l-20.335-.008-.016,17.643h28.708Z" transform="translate(-91.19 -289.685)" fill="#030000"/>
          </g>
          <g id="グループ_402" data-name="グループ 402" transform="translate(523.923 0.982)">
            <path id="パス_2150" data-name="パス 2150" d="M294.2,344.515l20.547-54.824h-18.42L262.1,377.579h19.792l5.74-15.507h28.177L309.2,344.515Z" transform="translate(-262.102 -289.69)" fill="#030000"/>
            <path id="パス_2151" data-name="パス 2151" d="M316.32,370.412l-30.326-77.885-9.51,25.416L296.1,370.412Z" transform="translate(-225.76 -282.523)" fill="#030000"/>
          </g>
          <g id="グループ_403" data-name="グループ 403" transform="translate(95.243 0.982)">
            <path id="パス_2152" data-name="パス 2152" d="M172.649,344.515,193.2,289.69H174.776l-34.222,87.888h19.792l5.74-15.507h28.177l-6.609-17.557Z" transform="translate(-140.555 -289.69)" fill="#030000"/>
            <path id="パス_2153" data-name="パス 2153" d="M194.773,370.412l-30.326-77.885-9.51,25.416,19.616,52.469Z" transform="translate(-104.213 -282.523)" fill="#030000"/>
          </g>
          <g id="グループ_404" data-name="グループ 404" transform="translate(191.559 0)">
            <path id="パス_2154" data-name="パス 2154" d="M199.229,324.056c-6.87-1.608-10.4-3.686-10.4-7.8,0-4.61,3.947-7.907,10.4-9.036v-17.8c-15.79,1.478-30.359,10.27-30.359,27.947,0,7.547,2.483,13.575,7.47,17.878h22.889Z" transform="translate(-165.322 -289.412)" fill="#030000"/>
            <path id="パス_2155" data-name="パス 2155" d="M198.671,313.942l.765.469,9.008-15.553-.741-.444a61.681,61.681,0,0,0-27.058-8.986v17.754A46.87,46.87,0,0,1,198.671,313.942Z" transform="translate(-135.568 -289.374)" fill="#030000"/>
            <path id="パス_2156" data-name="パス 2156" d="M209.174,318.315a21.283,21.283,0,0,0-6.408-15.91h-22.12v10.383c6.186,1.725,8.507,3.9,8.507,7.371,0,4.44-3.671,7.216-8.507,8.56v18.026C201.5,344.05,209.174,330.3,209.174,318.315Z" transform="translate(-135.568 -256.581)" fill="#030000"/>
            <path id="パス_2157" data-name="パス 2157" d="M178.49,307.89l-.755-.607L167.864,322.6l.61.49c8.143,6.571,20.4,10.672,33.3,11.325V316.806A44.764,44.764,0,0,1,178.49,307.89Z" transform="translate(-167.864 -244.255)" fill="#030000"/>
          </g>
          <rect id="長方形_478" data-name="長方形 478" width="18.917" height="87.888" transform="translate(375.59 0.982)" fill="#030000"/>
          <g id="グループ_405" data-name="グループ 405" transform="translate(278.88 0.982)">
            <rect id="長方形_479" data-name="長方形 479" width="18.917" height="87.888" fill="#030000"/>
            <path id="パス_2158" data-name="パス 2158" d="M228.891,289.69v34.7H201.481v17.743h27.409v35.442h18.917V289.69Z" transform="translate(-170.239 -289.69)" fill="#030000"/>
          </g>
          <g id="グループ_407" data-name="グループ 407" transform="translate(407.248 0.982)">
            <path id="パス_2159" data-name="パス 2159" d="M271.71,356.716,248.7,289.69H229.02l29.761,87.888h22.088l14.386-38.14-17.115-.017Z" transform="translate(-229.02 -289.69)" fill="#030000"/>
            <g id="グループ_406" data-name="グループ 406" transform="translate(52.73)">
              <path id="パス_2160" data-name="パス 2160" d="M292.337,289.69H272.965l-16.207,42.532,9.132,26.015Z" transform="translate(-211.66 -289.69)" fill="#030000"/>
              <path id="パス_2161" data-name="パス 2161" d="M263.529,289.69H243.971l29.873,87.888h19.065Z" transform="translate(-243.971 -289.69)" fill="#030000"/>
            </g>
          </g>
        </g>
        <g id="グループ_410" data-name="グループ 410" transform="translate(1207.021 1661.493)">
          <g id="グループ_409" data-name="グループ 409">
            <path id="パス_2162" data-name="パス 2162" d="M128.185,463.166a3.61,3.61,0,0,1-.825,2.409c-1.03.878-4.229,1.425-8.87,1.425-4.952,0-5.777-.547-5.883-3.834.825-20.72,1.238-42.647,1.238-72.572,0-10.305-.1-14.912-.719-26.642a139.346,139.346,0,0,1,16.918,8.662h56.74c2.994-3.619,4.024-4.715,7.223-8.112a127.085,127.085,0,0,1,10.729,8.112c1.136.878,1.548,1.534,1.548,2.3,0,1.315-1.033,2.412-3.922,4.274v31.791c0,.656.208,33.544.208,36.725.1,6.687.1,7.565.515,14.58,0,1.971-.413,2.74-1.548,3.4-1.238.769-4.744,1.316-8.768,1.316-3.816,0-4.641-.437-4.952-2.518v-4.715H128.185Zm0-5.594h59.632V374.808H128.185Zm35.9-45.056h3.506a111.839,111.839,0,0,1,7.223-8.99,127.8,127.8,0,0,1,9.491,9.208c.413.55.621.878.621,1.206,0,.441-.518.769-1.238.769h-19.6V443.1h4.641a51.11,51.11,0,0,1,4.539-5.809c-2.166,0-2.578-.656-2.888-4.606a35.38,35.38,0,0,0-4.331-15.564l.515-.441c6.5,2.194,9.7,3.728,12.482,5.7,2.889,1.972,3.922,3.506,3.922,5.59,0,3.287-1.651,5.809-5.054,7.784a82.982,82.982,0,0,1,8.147,7.784,1.781,1.781,0,0,1,.518,1.093c0,.441-.413.659-1.136.659h-48.9a22.344,22.344,0,0,0-5.675.547l-.413-3.506a24.762,24.762,0,0,0,5.985.765h13.1V414.711H139.535a21.019,21.019,0,0,0-5.262.547l-.515-3.4a22.973,22.973,0,0,0,5.879.656h9.907V390.372H138.5a37.871,37.871,0,0,0-5.883.55l-.515-3.509a26.381,26.381,0,0,0,6.292.769h28.268c3.2-4.165,4.232-5.371,7.738-9.427a102.677,102.677,0,0,1,11.349,9.865c.413.441.617.769.617.988,0,.437-.515.765-1.132.765H164.089Z" transform="translate(-112.607 -363.952)" fill="#030000"/>
            <path id="パス_2163" data-name="パス 2163" d="M212.662,458.7c4.334-5.262,5.777-6.906,10.009-12.058,6.913,5.371,8.976,7.015,15.472,12.5a1.547,1.547,0,0,1,.621.988c0,.437-.515.769-1.34.769h-88a40.042,40.042,0,0,0-7.117.656l-.825-3.837a30.051,30.051,0,0,0,7.942.987h41.166a354.1,354.1,0,0,0,10.933-43.959,214.7,214.7,0,0,0,3.2-22.255c11.039,3.291,16.611,5.153,20.117,6.578,1.446.547,2.063,1.206,2.063,2.081,0,1.319-1.34,2.084-4.744,2.525a539.786,539.786,0,0,1-26.515,55.03Zm-1.651-71.8c4.024-5.043,5.364-6.578,9.286-11.621,6.6,4.934,8.665,6.578,15.166,11.949a2.269,2.269,0,0,1,.515.988.932.932,0,0,1-.928.874H153.858a34.658,34.658,0,0,0-6.913.66l-.72-3.946a30.186,30.186,0,0,0,7.632,1.1h26.515V373.077a65.533,65.533,0,0,0-.723-8.658c13.413.875,16.506,1.093,18.569,1.643,1.344.437,2.166,1.1,2.166,2.081,0,1.1-1.03,1.975-4.229,3.181v15.567Zm-51.686,6.687c14.651,15.568,24.039,31.463,24.039,40.781,0,7.234-6.913,16.661-12.277,16.661a3.064,3.064,0,0,1-2.888-1.972c-.515-1.206-.617-1.975-1.033-11.074-.719-17.976-3.2-30.694-8.56-44.068Z" transform="translate(-39.652 -362.772)" fill="#030000"/>
            <path id="パス_2164" data-name="パス 2164" d="M189.905,422.932c-.1-8.768-.1-8.768-.617-11.73,6.5.109,14.03.769,15.885,1.315.931.219,1.34.66,1.34,1.206,0,.769-.307.878-3.608,2.631v6.578h3.608c1.961-2.3,4.13-4.825,6.5-7.456a111.788,111.788,0,0,1,9.286,8.334c.413.328.515.547.515.765a.5.5,0,0,1-.515.55H202.905v4.493a54.166,54.166,0,0,1,10.933,3.837c3.509,1.862,5.16,3.947,5.16,6.8,0,4.606-4.126,10.087-7.636,10.087a2.688,2.688,0,0,1-2.476-1.753c-.307-.66-.307-.66-1.545-7.128a22.007,22.007,0,0,0-4.543-10.306c0,3.4.208,13.815.518,31.244a1.261,1.261,0,0,1,.1.547c0,1.425-.515,2.084-1.548,2.412a48.178,48.178,0,0,1-8.563.659c-3.2,0-3.816-.331-3.918-2.412,0-2.74,0-2.74.31-8.443.307-7.671.307-7.671.307-8.549s-.1-1.534-.1-2.74a65.285,65.285,0,0,1-18.569,12.5l-.518-.656c7.533-8.662,12.69-17.871,17.024-30.585H180a52.383,52.383,0,0,0-7.223.437l-.617-3.506a31.673,31.673,0,0,0,7.738.875Zm24.656-23.461c3.714,2.963,3.714,2.963,9.593,7.893.106-3.178.106-3.837.106-4.274,0-18.2-.208-26.2-.723-32.119,6.7,3.287,8.665,4.384,14.855,7.784,9.184-6.031,14.033-10.415,16.816-14.8,5.364,3.619,5.364,3.619,13.621,9.431,1.753,1.2,2.68,2.19,2.68,2.959,0,.656-.825,1.206-1.961,1.206a33.779,33.779,0,0,1-4.433-.55c-9.286,2.631-14.651,3.728-26.723,5.262l-.307,20.392h13.1c3.714-4.274,4.849-5.594,8.461-9.868,5.675,4.5,7.325,5.812,12.69,10.633.2.328.413.55.413.769,0,.328-.413.659-.928.659H260.679V432.14c0,12.5.1,20.392.413,29.269-.106,1.866-.621,2.74-2.169,3.072a46.214,46.214,0,0,1-9.18.765c-2.991,0-3.714-.547-3.714-2.74.31-7.346.413-11.289.413-15.9V404.846h-8.355c-.31,21.154-2.271,31.022-8.151,41.218a55.244,55.244,0,0,1-20.942,20.279l-.621-.769c6.4-7.343,9.9-14.139,12.587-24.663,1.957-7.456,2.889-17.211,3.2-31.244h-43.74a53.421,53.421,0,0,0-7.428.437l-.825-3.615a32.456,32.456,0,0,0,8.253.988h17.331a89.266,89.266,0,0,0,4.747-24.12H182.065a38.6,38.6,0,0,0-7.015.547l-.621-3.615a31.435,31.435,0,0,0,7.636.878h7.223v-3.072a79.065,79.065,0,0,0-.723-12.605c14.03.875,15.476,1.1,17.229,1.753,1.03.437,1.548.878,1.548,1.534,0,.878-1.238,1.643-4.024,2.74v9.65h2.476c2.991-3.619,3.918-4.716,6.807-7.784,4.232,3.4,5.47,4.6,9.7,8.44.413.328.723.656.723.878a.789.789,0,0,1-.723.656H203.833a135.346,135.346,0,0,1,13.515,5.809c1.443.769,1.961,1.206,1.961,1.975,0,1.206-1.136,1.644-4.232,1.862-4.126,4.715-6.19,6.909-13.719,14.474h6.087ZM180.415,383.9c10.214,4.5,15.165,8.993,15.165,13.815,0,4.275-4.335,8.658-8.563,8.658-2.476,0-3.509-1.093-3.509-3.834v-1.428a37.339,37.339,0,0,0-3.608-16.661Z" transform="translate(34.484 -363.952)" fill="#030000"/>
            <path id="パス_2165" data-name="パス 2165" d="M254.094,433.565a21.568,21.568,0,0,0,8.669,8.553c4.539,2.74,8.972,4.274,15.987,5.262a80.136,80.136,0,0,0,13.106,1.093c1.234,0,3.093-.109,5.879-.219v.987c-3.3,2.084-4.747,3.4-6.19,5.481a27.873,27.873,0,0,0-3.407,7.565c-1.03,3.287-1.234,3.618-2.68,3.618a18.053,18.053,0,0,1-4.641-1.206,44.38,44.38,0,0,1-23.626-19.077,42.379,42.379,0,0,1-4.849-11.949c-2.476,11.293-7.84,19.077-17.331,25.1-8.048,5.153-19.087,8.221-33.322,9.209l-.208-1.1c13.31-4.931,21.355-10.083,27.957-17.977a34.054,34.054,0,0,0,7.738-15.349H210.869a45.385,45.385,0,0,0-6.81.547l-.617-3.506a35.664,35.664,0,0,0,7.428.769h26.719a63.482,63.482,0,0,0,1.033-9.868c0-.878-.1-2.194-.208-3.837,16.918,1.1,19.6,1.534,19.6,3.29,0,1.2-1.34,2.081-4.229,2.85-.413,3.728-.621,5.04-1.033,7.565H270.6c4.126-5.043,4.126-5.043,8.457-10.306,5.572,4.384,7.325,5.7,12.8,10.193.617.659.825,1.1.825,1.425,0,.55-.518.878-1.344.878Zm0-35.956h11.247c3.611-4.056,4.744-5.262,8.355-9.318,5.054,3.946,6.6,5.153,11.558,9.427.515.547.719.878.719,1.206,0,.659-.515.878-1.651.878H254.094V413.4h18.777c3.2-4.275,4.335-5.59,7.84-9.868A142.494,142.494,0,0,1,293.3,413.4c.515.547.825.987.825,1.315,0,.547-.617.878-1.442.878H209.218a45.163,45.163,0,0,0-6.913.765l-.617-3.947a34.93,34.93,0,0,0,7.428.988h29.918V399.8H217.266a37.79,37.79,0,0,0-6.913.656l-.515-3.728a40.231,40.231,0,0,0,7.53.878h21.665V385.223H212.315a37.959,37.959,0,0,0-7.019.656l-.617-3.728a38.683,38.683,0,0,0,7.738.878h16.4c-.723-.987-.723-.987-1.651-4.715a24.855,24.855,0,0,0-7.325-12.5l.515-.659c8.771,1.428,12.379,2.412,16.714,4.715,3.611,1.753,5.262,4.056,5.262,7.015a7.609,7.609,0,0,1-3.1,6.14h12.072a106.186,106.186,0,0,0,6.19-19.077c20.015,5.594,20.015,5.594,20.015,7.018,0,1.206-1.033,1.753-5.058,2.19-3.4,2.412-4.952,3.509-8.355,5.594-4.126,2.631-5.16,3.287-6.6,4.274h14.34c3.3-4.165,4.331-5.371,7.738-9.318,5.156,3.728,6.807,5.043,11.967,9.209.617.656.928,1.1.928,1.425,0,.547-.617.878-1.442.878H254.094Z" transform="translate(111.962 -363.952)" fill="#030000"/>
            <path id="パス_2166" data-name="パス 2166" d="M240.379,420.785a66.174,66.174,0,0,1-10.214,6.578l-.515-.769a125.731,125.731,0,0,0,18.982-38.15c14.34,5.262,16.093,6.14,16.093,7.565,0,1.1-.928,1.534-4.331,2.3-3.922,5.918-5.47,8.112-8.256,11.289,4.437.769,5.47,1.206,5.47,2.412,0,.878-.825,1.425-3.714,2.412v19.951c0,5.59,0,14.252.1,20.5v6.8c0,4.275-1.65,5.153-9.18,5.153-3.922,0-5.057-.769-5.057-3.509v-.437c.31-8.553.621-23.242.621-26.311Zm-9.8-25.764a86.487,86.487,0,0,0,11.141-16.77,75.1,75.1,0,0,0,5.879-14.143c3.509,1.425,6.19,2.522,8.048,3.068,9.078,3.4,10.112,3.946,10.112,5.371,0,1.315-1.651,1.866-5.262,1.975-10.524,11.4-16.611,15.786-29.3,21.267ZM304.546,378.8a7.872,7.872,0,0,1-2.783,5.043c2.783,2.3,3.816,3.178,7.53,6.687.413.437.515.656.515.987s-.515.656-1.132.656H287.73v19.623c0,15.017,0,15.017.621,49.549,0,1.756-.1,2.522-.621,3.181-.928,1.425-4.021,2.3-8.665,2.3-4.126,0-5.364-.878-5.364-3.509v-.547c.723-23.133.723-23.133.825-54.6l-1.34.437c-2.374,14.143-3.922,20.5-6.81,28.395A72.614,72.614,0,0,1,255.544,457.4l-.825-.441a143.567,143.567,0,0,0,4.229-24.995,243.663,243.663,0,0,0,1.753-25.651c0-.878,0-2.3-.1-4.275,11.349,2.081,11.349,2.081,13.928,2.631l-.1-12.5h-7.84c-1.548,0-2.888.109-5.883.331l-.617-3.4a28,28,0,0,0,6.807.875h7.533c0-15.236,0-15.673-.723-24.335,11.349.988,11.349.988,13.1,1.316,3.2.547,4.232,1.1,4.232,2.194,0,.984-.931,1.753-3.2,2.409v18.417h4.747c1.756-2.409,2.786-3.615,3.922-4.93-1.651-.441-1.961-.878-2.063-3.619-.31-5.809-.621-7.237-2.582-11.621l.413-.656c3.509,1.316,5.058,1.862,7.431,2.959,2.578,1.315,3.506,2.194,4.641,4.493h4.539c3.612-4.056,4.744-5.371,8.253-9.537a139.274,139.274,0,0,1,11.967,9.868c.515.547.723.875.723,1.093,0,.441-.515.769-1.033.769Zm16.1,46.59c0,13.593,0,13.593.2,28.395-.31,5.809-1.443,8.221-5.156,10.306a23.528,23.528,0,0,1-10.524,2.631c-2.166,0-2.786-.55-2.786-2.631-.31-6.14-2.578-8.334-13.1-12.39l.1-.987c5.985.55,7.946.769,15.786.987,1.442,0,1.855-.328,1.855-1.644V401.489h-5.671a20.07,20.07,0,0,0-4.334.437l-.617-3.506a14.277,14.277,0,0,0,4.952.875h9.593c3.509-4.056,4.641-5.262,8.048-9.318a143.785,143.785,0,0,1,11.141,9.54c.515.547.72.875.72,1.1,0,.547-.617.875-1.443.875h-8.768Zm-30.849-23.02c8.563,11.18,14.446,23.789,14.446,31.132,0,5.7-5.262,12.39-9.6,12.39-1.753,0-2.68-1.425-2.68-3.947,0-.66.1-1.866.2-3.181.1-1.093.1-2.409.1-3.615a163.254,163.254,0,0,0-2.991-32.341Z" transform="translate(183.144 -363.558)" fill="#030000"/>
            <path id="パス_2167" data-name="パス 2167" d="M341.506,380.676c2.684-3.4,3.506-4.493,6.292-7.674,5.058,4.056,6.6,5.262,11.244,9.431,1.139.984,1.548,1.644,1.548,2.3,0,1.425-1.548,1.866-5.773,1.975-3.2,2.3-4.334,3.068-6.81,4.6,1.65,1.206,2.68,1.866,5.156,3.728,1.238.878,1.756,1.534,1.756,2.084,0,.875-.518,1.315-3.1,2.959,0,6.687,0,6.687.208,18.855,0,1.534-.31,2.3-1.033,2.85-1.238.878-4.539,1.425-8.151,1.425-3.918,0-4.952-.547-5.262-2.85v-1.971H324.175v13.7h13.617c2.786-3.287,3.612-4.274,6.6-7.456,4.539,3.29,5.879,4.278,10.214,7.674,1.238.987,1.651,1.538,1.651,2.3,0,1.206-1.033,2.194-3.4,3.178,0,11.184,0,13.6.307,23.133v.878q0,2.465-1.238,3.287c-1.132.878-4.229,1.425-8.457,1.425h-1.859c-2.578,0-3.506-.987-3.506-3.615v-4.606H324.175v4.493c-.1,1.538-.416,2.3-1.136,2.74-1.136.878-4.437,1.316-8.976,1.316-3.3,0-4.229-.875-4.229-3.724v-.769c.413-9.646.515-14.689.515-47.031,0-8.221-.1-11.73-.31-17.539H308.8c-3.4,0-5.777-2.85-5.777-6.906,0-.109.1-.66.1-1.206-1.34,1.206-2.166,1.643-3.2,1.643-1.548,0-2.165-.765-2.888-3.068-1.753-5.372-5.054-11.184-7.84-13.7a65.9,65.9,0,0,1-7.219,9.865c12.69,1.425,14.03,1.644,14.03,2.959,0,.878-.617,1.425-2.578,2.3v9.427c2.063-2.194,2.476-2.631,4.641-4.825,3.506,2.853,4.539,3.728,8.048,6.468,1.132.987,1.545,1.647,1.545,2.194,0,.878-.307,1.1-3.2,2.74V412.8c.106,10.961.106,11.29.314,17.867,0,1.534-.106,2.412-.518,2.959-.825,1.1-3.714,1.756-7.84,1.756-3.922,0-4.747-.441-4.952-3.072v-1.644h-9.7v16.992c4.437-.659,6.4-.988,9.9-1.753a37.9,37.9,0,0,0-4.744-9.977l.515-.547c12.175,4.821,18.879,10.634,18.879,16.333,0,5.153-4.641,11.184-8.563,11.184-1.651,0-2.268-.878-2.786-3.509a72.411,72.411,0,0,0-2.166-9.65,161.721,161.721,0,0,1-22.385,13.268c-.208,3.068-.829,4.6-1.961,4.6-.518,0-.931-.437-1.34-1.425a149.436,149.436,0,0,1-4.747-16.883h2.166c1.34,0,2.786,0,4.126-.109V397.887c-2.476,1.866-3.816,2.74-7.53,5.153l-.621-.765a113.346,113.346,0,0,0,11.247-21.817c2.786-7.124,3.918-10.961,4.641-16.442,16.3,4.493,18.156,5.149,18.156,6.578,0,.984-1.03,1.425-4.126,1.862l-.307.547a59.879,59.879,0,0,1,7.734,1.206c3.3.66,6.087,1.866,7.431,3.291,1.132,1.1,1.545,2.3,1.545,4.493a8.6,8.6,0,0,1-.31,2.194c.518-.328.931-.659,1.238-.878,2.994-2.081,4.232-4.6,4.232-8.44,0-.328,0-1.425-.1-2.412l.515-.219a26.894,26.894,0,0,1,3.918,8.44h6.708v-6.8a45.059,45.059,0,0,0-.621-8.33c18.364,1.643,19.087,1.862,19.087,3.506,0,.987-.825,1.647-4.024,2.853v8.768Zm-60.56,10.306a32.575,32.575,0,0,0-.2-5.153c-3.3,3.837-5.16,5.7-7.946,8.44a89.057,89.057,0,0,1,8.151,4.825Zm10.524,22.473V401.287h-9.7v12.168Zm-9.7,2.194v12.824h9.7V415.648Zm55.3-20.5c2.166-2.081,2.888-2.74,4.334-4.275a57.018,57.018,0,0,0,1.545-8h-26a22.541,22.541,0,0,1,.413,4.056,16.988,16.988,0,0,1-.31,2.959c2.373,1.425,4.437,2.74,8.253,5.262Zm.515,21.048V397.34H324.175v18.855Zm.518,39.9V434.284H324.175V456.1Z" transform="translate(261.146 -363.793)" fill="#030000"/>
          </g>
        </g>
        <g id="グループ_442" data-name="グループ 442" transform="translate(1608.435 1790.555)">
          <g id="グループ_416" data-name="グループ 416" transform="translate(0 65.455)">
            <g id="グループ_411" data-name="グループ 411" transform="translate(42.109 0.267)">
              <rect id="長方形_480" data-name="長方形 480" width="4.381" height="20.357" fill="#030000"/>
              <path id="パス_2168" data-name="パス 2168" d="M252.72,430.221l-6.209-7.354h-5.524l6.053,7.354Z" transform="translate(-231.73 -409.865)" fill="#030000"/>
              <path id="パス_2169" data-name="パス 2169" d="M253.928,419.181h-4.951l-4.421,6.306-4.14,0,0,4.086h6.079Z" transform="translate(-233.184 -419.181)" fill="#030000"/>
            </g>
            <g id="グループ_412" data-name="グループ 412" transform="translate(63.803 0.259)">
              <path id="パス_2170" data-name="パス 2170" d="M249.671,419.179h-5.157l6.148,9.662,2.346-4.031Z" transform="translate(-244.514 -419.178)" fill="#030000"/>
              <path id="パス_2171" data-name="パス 2171" d="M253.868,419.178l-7.123,12.227-.005.11v8.028h4.38v-8.014l7.748-12.35Z" transform="translate(-238.889 -419.178)" fill="#030000"/>
            </g>
            <g id="グループ_413" data-name="グループ 413" transform="translate(18.022)">
              <path id="パス_2172" data-name="パス 2172" d="M240.7,423.521v-4.415a10.553,10.553,0,0,0-9.163,9.163h4.412A6.2,6.2,0,0,1,240.7,423.521Z" transform="translate(-231.533 -419.105)" fill="#030000"/>
              <path id="パス_2173" data-name="パス 2173" d="M234.864,427.187V431.6a10.554,10.554,0,0,0,9.163-9.163h-4.416A6.193,6.193,0,0,1,234.864,427.187Z" transform="translate(-223.116 -410.688)" fill="#030000"/>
              <path id="パス_2174" data-name="パス 2174" d="M239.611,428.268h4.416a10.557,10.557,0,0,0-9.163-9.163v4.415A6.194,6.194,0,0,1,239.611,428.268Z" transform="translate(-223.116 -419.105)" fill="#030000"/>
              <path id="パス_2175" data-name="パス 2175" d="M235.945,422.436h-4.412A10.55,10.55,0,0,0,240.7,431.6v-4.412A6.2,6.2,0,0,1,235.945,422.436Z" transform="translate(-231.533 -410.688)" fill="#030000"/>
            </g>
            <g id="グループ_414" data-name="グループ 414" transform="translate(83.688)">
              <path id="パス_2176" data-name="パス 2176" d="M259.315,423.521v-4.415a10.557,10.557,0,0,0-9.163,9.163h4.412A6.2,6.2,0,0,1,259.315,423.521Z" transform="translate(-250.152 -419.105)" fill="#030000"/>
              <path id="パス_2177" data-name="パス 2177" d="M253.483,427.187V431.6a10.554,10.554,0,0,0,9.163-9.163h-4.412A6.2,6.2,0,0,1,253.483,427.187Z" transform="translate(-241.735 -410.688)" fill="#030000"/>
              <path id="パス_2178" data-name="パス 2178" d="M258.234,428.268h4.412a10.557,10.557,0,0,0-9.163-9.163v4.415A6.2,6.2,0,0,1,258.234,428.268Z" transform="translate(-241.735 -419.105)" fill="#030000"/>
              <path id="パス_2179" data-name="パス 2179" d="M254.564,422.436h-4.412a10.554,10.554,0,0,0,9.163,9.163v-4.412A6.2,6.2,0,0,1,254.564,422.436Z" transform="translate(-250.152 -410.688)" fill="#030000"/>
            </g>
            <g id="グループ_415" data-name="グループ 415" transform="translate(0 0.275)">
              <rect id="長方形_481" data-name="長方形 481" width="4.381" height="13.64" transform="translate(6.187 6.708)" fill="#030000"/>
              <rect id="長方形_482" data-name="長方形 482" width="16.755" height="4.124" fill="#030000"/>
            </g>
          </g>
          <g id="グループ_420" data-name="グループ 420" transform="translate(0 0.259)">
            <g id="グループ_417" data-name="グループ 417" transform="translate(41.886)">
              <rect id="長方形_483" data-name="長方形 483" width="4.38" height="20.364" fill="#030000"/>
              <rect id="長方形_484" data-name="長方形 484" width="8.237" height="4.053" transform="translate(6.966)" fill="#030000"/>
              <rect id="長方形_485" data-name="長方形 485" width="6.842" height="4.053" transform="translate(6.966 8.07)" fill="#030000"/>
              <rect id="長方形_486" data-name="長方形 486" width="8.351" height="4.053" transform="translate(6.966 16.312)" fill="#030000"/>
            </g>
            <g id="グループ_418" data-name="グループ 418" transform="translate(0 0.016)">
              <rect id="長方形_487" data-name="長方形 487" width="4.381" height="13.64" transform="translate(6.187 6.708)" fill="#030000"/>
              <rect id="長方形_488" data-name="長方形 488" width="16.755" height="4.124" fill="#030000"/>
            </g>
            <g id="グループ_419" data-name="グループ 419" transform="translate(19.672 0.007)">
              <rect id="長方形_489" data-name="長方形 489" width="4.382" height="20.357" fill="#030000"/>
              <path id="パス_2180" data-name="パス 2180" d="M240.4,400.622v8.038h-6.349v4.11H240.4v8.209h4.382V400.622Z" transform="translate(-226.816 -400.621)" fill="#030000"/>
            </g>
          </g>
          <g id="グループ_428" data-name="グループ 428" transform="translate(65.771)">
            <g id="グループ_421" data-name="グループ 421" transform="translate(69.403)">
              <path id="パス_2181" data-name="パス 2181" d="M273.909,404.962v-4.416a10.553,10.553,0,0,0-9.159,9.163h4.412A6.193,6.193,0,0,1,273.909,404.962Z" transform="translate(-264.75 -400.546)" fill="#030000"/>
              <path id="パス_2182" data-name="パス 2182" d="M268.081,408.628v4.412a10.553,10.553,0,0,0,9.163-9.163h-4.416A6.2,6.2,0,0,1,268.081,408.628Z" transform="translate(-256.333 -392.129)" fill="#030000"/>
              <path id="パス_2183" data-name="パス 2183" d="M272.828,409.709h4.416a10.557,10.557,0,0,0-9.163-9.163v4.416A6.194,6.194,0,0,1,272.828,409.709Z" transform="translate(-256.333 -400.546)" fill="#030000"/>
              <path id="パス_2184" data-name="パス 2184" d="M269.162,403.877H264.75a10.55,10.55,0,0,0,9.159,9.163v-4.412A6.2,6.2,0,0,1,269.162,403.877Z" transform="translate(-264.75 -392.129)" fill="#030000"/>
            </g>
            <g id="グループ_422" data-name="グループ 422" transform="translate(138.144 0.259)">
              <path id="パス_2185" data-name="パス 2185" d="M288.621,400.966v-.347h-4.381v20.364h4.38V400.966Z" transform="translate(-284.241 -400.619)" fill="#030000"/>
              <rect id="長方形_490" data-name="長方形 490" width="7.966" height="4.124" transform="translate(6.966 16.241)" fill="#030000"/>
            </g>
            <g id="グループ_423" data-name="グループ 423" transform="translate(41.441 0.275)">
              <rect id="長方形_491" data-name="長方形 491" width="4.381" height="13.64" transform="translate(6.187 6.708)" fill="#030000"/>
              <rect id="長方形_492" data-name="長方形 492" width="16.755" height="4.124" fill="#030000"/>
            </g>
            <g id="グループ_424" data-name="グループ 424" transform="translate(21.349 0.266)">
              <path id="パス_2186" data-name="パス 2186" d="M258.559,413.32l4.759-12.7h-4.267l-7.927,20.357h4.584l1.33-3.592h6.526l-1.531-4.067Z" transform="translate(-251.125 -400.622)" fill="#030000"/>
              <path id="パス_2187" data-name="パス 2187" d="M263.683,419.319l-7.024-18.04-2.2,5.887L259,419.319Z" transform="translate(-242.707 -398.961)" fill="#030000"/>
            </g>
            <g id="グループ_425" data-name="グループ 425" transform="translate(114.31 0.266)">
              <path id="パス_2188" data-name="パス 2188" d="M284.917,413.32l4.759-12.7h-4.267l-7.927,20.357h4.584l1.329-3.592h6.527l-1.531-4.067Z" transform="translate(-277.483 -400.622)" fill="#030000"/>
              <path id="パス_2189" data-name="パス 2189" d="M290.041,419.319l-7.024-18.04-2.2,5.887,4.543,12.153Z" transform="translate(-269.065 -398.961)" fill="#030000"/>
            </g>
            <rect id="長方形_493" data-name="長方形 493" width="4.382" height="20.357" transform="translate(61.648 0.266)" fill="#030000"/>
            <g id="グループ_426" data-name="グループ 426" transform="translate(0 0.259)">
              <path id="パス_2190" data-name="パス 2190" d="M253.4,400.619H249v8.722l4.395,5.738Z" transform="translate(-235.142 -400.619)" fill="#030000"/>
              <path id="パス_2191" data-name="パス 2191" d="M245.072,416.746h4.38l.009-8.718-4.39-5.732Z" transform="translate(-245.072 -396.382)" fill="#030000"/>
              <path id="パス_2192" data-name="パス 2192" d="M249.041,400.619h-3.969v1.724l14.276,18.64h3.978v-1.713Z" transform="translate(-245.072 -400.619)" fill="#030000"/>
            </g>
            <g id="グループ_427" data-name="グループ 427" transform="translate(93.368 0.259)">
              <path id="パス_2193" data-name="パス 2193" d="M279.869,400.619h-4.395v8.722l4.395,5.738Z" transform="translate(-261.615 -400.619)" fill="#030000"/>
              <path id="パス_2194" data-name="パス 2194" d="M271.545,416.746h4.38l.009-8.718-4.39-5.732Z" transform="translate(-271.545 -396.382)" fill="#030000"/>
              <path id="パス_2195" data-name="パス 2195" d="M275.514,400.619h-3.969v1.724l14.276,18.64H289.8v-1.713Z" transform="translate(-271.545 -400.619)" fill="#030000"/>
            </g>
          </g>
          <g id="グループ_441" data-name="グループ 441" transform="translate(0.662 32.842)">
            <g id="グループ_432" data-name="グループ 432" transform="translate(0 0.274)">
              <g id="グループ_429" data-name="グループ 429" transform="translate(23.621)">
                <rect id="長方形_494" data-name="長方形 494" width="0.001" height="4.488" transform="translate(4.38 4.067)" fill="#030000"/>
                <path id="パス_2196" data-name="パス 2196" d="M237.689,418.491V414h0v-4.066h-4.381V430.3h4.38v-7.942h0v-3.867Z" transform="translate(-233.308 -409.936)" fill="#030000"/>
                <path id="パス_2197" data-name="パス 2197" d="M236.889,414c2.081,0,3.09.723,3.09,2.208,0,1.534-1.009,2.278-3.09,2.278h-1.6v3.784s1.531-.014,3.248-.014a6.034,6.034,0,0,0,5.943-6.049c0-3.989-2.74-6.274-7.516-6.274h-1.675V414Z" transform="translate(-228.316 -409.935)" fill="#030000"/>
                <path id="パス_2198" data-name="パス 2198" d="M239.545,419.608h5.492l-4.424-5.441h-5.3Z" transform="translate(-228.237 -399.244)" fill="#030000"/>
                <path id="パス_2199" data-name="パス 2199" d="M235.284,414.124v.151h.111Z" transform="translate(-228.316 -399.352)" fill="#030000"/>
              </g>
              <g id="グループ_430" data-name="グループ 430" transform="translate(42.156 0.016)">
                <rect id="長方形_495" data-name="長方形 495" width="4.381" height="13.64" transform="translate(6.187 6.708)" fill="#030000"/>
                <rect id="長方形_496" data-name="長方形 496" width="16.755" height="4.124" fill="#030000"/>
              </g>
              <g id="グループ_431" data-name="グループ 431" transform="translate(0 0.007)">
                <path id="パス_2200" data-name="パス 2200" d="M234.045,422.636l4.759-12.7h-4.267l-7.927,20.357H231.2l1.33-3.592h6.526l-1.531-4.067Z" transform="translate(-226.611 -409.938)" fill="#030000"/>
                <path id="パス_2201" data-name="パス 2201" d="M239.169,428.635l-7.024-18.04-2.2,5.887,4.543,12.153Z" transform="translate(-218.193 -408.278)" fill="#030000"/>
              </g>
            </g>
            <g id="グループ_440" data-name="グループ 440" transform="translate(70.626)">
              <g id="グループ_438" data-name="グループ 438">
                <g id="グループ_433" data-name="グループ 433" transform="translate(102.664 0.257)">
                  <rect id="長方形_497" data-name="長方形 497" width="0.001" height="4.488" transform="translate(4.38 4.067)" fill="#030000"/>
                  <path id="パス_2202" data-name="パス 2202" d="M280.126,418.486V414h0v-4.067h-4.381V430.3h4.38v-7.942h0v-3.867Z" transform="translate(-275.745 -409.931)" fill="#030000"/>
                  <path id="パス_2203" data-name="パス 2203" d="M279.322,414c2.081,0,3.093.723,3.093,2.208,0,1.534-1.012,2.282-3.093,2.282h-1.6v3.784s1.531-.018,3.248-.018a6.034,6.034,0,0,0,5.943-6.048c0-3.985-2.74-6.274-7.516-6.274h-1.675V414Z" transform="translate(-270.752 -409.931)" fill="#030000"/>
                  <path id="パス_2204" data-name="パス 2204" d="M281.982,419.6h5.492l-4.425-5.441h-5.3Z" transform="translate(-270.674 -399.239)" fill="#030000"/>
                  <path id="パス_2205" data-name="パス 2205" d="M277.721,414.12v.151h.111Z" transform="translate(-270.753 -399.347)" fill="#030000"/>
                </g>
                <g id="グループ_434" data-name="グループ 434" transform="translate(22.582 0.258)">
                  <rect id="長方形_498" data-name="長方形 498" width="4.38" height="20.364" fill="#030000"/>
                  <rect id="長方形_499" data-name="長方形 499" width="8.237" height="4.053" transform="translate(6.966)" fill="#030000"/>
                  <rect id="長方形_500" data-name="長方形 500" width="6.842" height="4.053" transform="translate(6.966 8.07)" fill="#030000"/>
                  <rect id="長方形_501" data-name="長方形 501" width="8.351" height="4.053" transform="translate(6.966 16.312)" fill="#030000"/>
                </g>
                <g id="グループ_435" data-name="グループ 435" transform="translate(83.417 0.258)">
                  <rect id="長方形_502" data-name="長方形 502" width="4.38" height="20.364" fill="#030000"/>
                  <rect id="長方形_503" data-name="長方形 503" width="8.237" height="4.053" transform="translate(6.966)" fill="#030000"/>
                  <rect id="長方形_504" data-name="長方形 504" width="6.842" height="4.053" transform="translate(6.966 8.07)" fill="#030000"/>
                  <rect id="長方形_505" data-name="長方形 505" width="8.351" height="4.053" transform="translate(6.966 16.312)" fill="#030000"/>
                </g>
                <g id="グループ_436" data-name="グループ 436" transform="translate(63.491 0.274)">
                  <rect id="長方形_506" data-name="長方形 506" width="4.381" height="13.64" transform="translate(6.187 6.708)" fill="#030000"/>
                  <rect id="長方形_507" data-name="長方形 507" width="16.755" height="4.124" fill="#030000"/>
                </g>
                <g id="グループ_437" data-name="グループ 437">
                  <path id="パス_2206" data-name="パス 2206" d="M246.636,419.021h4.416a6.192,6.192,0,0,1,4.747-4.751v-4.412A10.557,10.557,0,0,0,246.636,419.021Z" transform="translate(-246.636 -409.858)" fill="#030000"/>
                  <path id="パス_2207" data-name="パス 2207" d="M249.967,416.871v4.412a10.567,10.567,0,0,0,7.95-5.4l-3.731-2.271A6.2,6.2,0,0,1,249.967,416.871Z" transform="translate(-238.219 -400.372)" fill="#030000"/>
                  <path id="パス_2208" data-name="パス 2208" d="M249.967,409.858v4.412a6.2,6.2,0,0,1,4.218,3.259l3.731-2.271A10.567,10.567,0,0,0,249.967,409.858Z" transform="translate(-238.219 -409.858)" fill="#030000"/>
                  <path id="パス_2209" data-name="パス 2209" d="M251.052,413.189h-4.416a10.557,10.557,0,0,0,9.163,9.163V417.94A6.193,6.193,0,0,1,251.052,413.189Z" transform="translate(-246.636 -401.441)" fill="#030000"/>
                </g>
              </g>
              <g id="グループ_439" data-name="グループ 439" transform="translate(42.16 0.258)">
                <path id="パス_2210" data-name="パス 2210" d="M266.914,409.931H262.52v8.722l4.395,5.738Z" transform="translate(-248.66 -409.931)" fill="#030000"/>
                <path id="パス_2211" data-name="パス 2211" d="M258.59,426.058h4.38l.009-8.718-4.39-5.731Z" transform="translate(-258.59 -405.693)" fill="#030000"/>
                <path id="パス_2212" data-name="パス 2212" d="M262.559,409.931H258.59v1.724l14.276,18.64h3.978v-1.713Z" transform="translate(-258.59 -409.931)" fill="#030000"/>
              </g>
            </g>
            <path id="パス_2213" data-name="パス 2213" d="M286.793,414.175l-2.035,8.665H281.39l2.038-8.665Z" transform="translate(-88.192 -398.95)" fill="#030000"/>
          </g>
        </g>
        <g id="グループ_462" data-name="グループ 462" transform="translate(1210.481 1785.751)">
          <g id="グループ_443" data-name="グループ 443" transform="translate(5.521 2.164)">
            <path id="パス_2214" data-name="パス 2214" d="M167.283,439.677a37.722,37.722,0,0,1-14.908-3.171c-3.52-1.735-5.661-3.347-7.061-5.34h6.648l0,1.058c.134,1.263.818,1.485,2.211,1.485,2.638,0,4.634-.384,5.343-1.033a2,2,0,0,0,.5-1.45v-.384c-.162-4.846-.162-5.033-.162-13.564,1.474-.822,2-1.245,2-1.912,0-.483-.353-.871-1.058-1.467-2.268-1.661-2.973-2.144-5.371-3.689a.208.208,0,0,0-.257.025c-1.531,1.478-2.014,1.964-3.467,3.569h-7.219v-5.481H165.6c.462,0,.808-.254.808-.589,0-.166-.106-.335-.349-.649-2.906-2.377-3.841-3.1-6.934-5.421a.219.219,0,0,0-.279.021c-2.074,2.13-2.712,2.818-4.761,5.135h-9.6V403.6c1.333-.487,2.056-.9,2.056-1.608,0-1.107-1.044-1.312-10.154-2a.2.2,0,0,0-.173.067.23.23,0,0,0-.053.176,36.85,36.85,0,0,1,.43,6.578H120.83a18.246,18.246,0,0,1-4.017-.43.209.209,0,0,0-.19.06.212.212,0,0,0-.056.194l.434,1.841a.2.2,0,0,0,.243.159,16.052,16.052,0,0,1,3.587-.321h15.758V413.8h-6.126a50.352,50.352,0,0,0-8.207-3.562.215.215,0,0,0-.2.035.208.208,0,0,0-.074.19c.265,2.021.321,3.231.321,11.448,0,1.64-.092,3.975-.272,8.627l-.053,1.287c.064,1.689.719,1.989,2.539,1.989,1.407,0,3.908-.1,4.832-.8a1.814,1.814,0,0,0,.684-1.524v-.332h2.821a38.4,38.4,0,0,1-5.89,7.6,49.925,49.925,0,0,1-11.7,9.223.209.209,0,0,0-.092.254l.215.592a.216.216,0,0,0,.254.134,51.3,51.3,0,0,0,10.753-3.911,35.948,35.948,0,0,0,10.3-6.944l-.046,2.74c-.053,1.453-.109,2.652-.162,3.576-.056,2.649-.056,2.649-.162,4.56.063,1.7.624,1.88,2.807,1.88,2.751,0,4.306-.229,5.047-.744.448-.317.631-.822.631-1.746l-.324-9.8-.187-6.221a45.916,45.916,0,0,0,3.319,6.073,26.592,26.592,0,0,0,7.8,7.586c2.275,1.446,5.417,3.061,6.281,3.061.684,0,.917-.413,1.072-1.086a11.065,11.065,0,0,1,1.439-3.943,7.324,7.324,0,0,1,3.174-3.389.211.211,0,0,0,.1-.18v-.6A.216.216,0,0,0,167.283,439.677Zm-30.694-16.685v6.673h-6.56v-6.673Zm-6.56-1.5v-6.183h6.56v6.183Zm21.934,1.5v6.673h-7.48v-6.673Zm-7.48-1.5v-6.183h7.48v6.183Z" transform="translate(-115.153 -399.293)" fill="#030000"/>
            <path id="パス_2215" data-name="パス 2215" d="M181.635,408.383l-.046-.046-.353-.25c-2.984-2.137-3.989-2.86-7.015-4.9a.209.209,0,0,0-.268.032l-.786.825c-1.46,1.541-2.2,2.324-4.021,4.144h-9.5v-4.624c1.576-.582,2.328-1.009,2.328-1.771,0-.92-1.524-1.329-6.045-1.619-.674-.032-1.52-.1-2.592-.187-.723-.06-1.534-.127-2.437-.19a.175.175,0,0,0-.169.063.206.206,0,0,0-.053.173,28.292,28.292,0,0,1,.321,4.842v3.312H134.753a16.308,16.308,0,0,1-3.587-.377.212.212,0,0,0-.247.25l.381,1.785a.211.211,0,0,0,.2.169l.042,0a13.759,13.759,0,0,1,3.259-.321h46.336a.7.7,0,0,0,.751-.646A1.077,1.077,0,0,0,181.635,408.383Z" transform="translate(-75.326 -399.798)" fill="#030000"/>
            <path id="パス_2216" data-name="パス 2216" d="M161,419.713H166.2v1.647c.071.987.709,1.167,1.943,1.167a20.216,20.216,0,0,0,5.587-.55,1.214,1.214,0,0,0,.846-1.344c-.162-5.844-.162-5.844-.162-7.734v-3.114a17.9,17.9,0,0,0,1.7-.885,1.235,1.235,0,0,0,.462-.871c0-.346-.194-.607-.578-.988-2.564-1.742-3.382-2.289-6.066-4.059a.213.213,0,0,0-.264.025c-1.725,1.728-2.264,2.264-3.841,4H147.625c-3.576-1.813-4.747-2.349-8.845-4.045a.213.213,0,0,0-.2.025.2.2,0,0,0-.085.187c.233,3.033.325,5.625.325,9.24,0,3.975,0,4.92-.166,7.9,0,1.27.42,1.619,1.943,1.619.377,0,.783-.007,1.192-.021a.345.345,0,0,0-.035.06,39.3,39.3,0,0,1-3.449,7.276,50.015,50.015,0,0,1-7.713,10.14.212.212,0,0,0-.018.264l.272.381a.218.218,0,0,0,.254.071,40.833,40.833,0,0,0,10.33-5.819,62.319,62.319,0,0,0,7.713-7.22,8.948,8.948,0,0,0,2.049-.282.916.916,0,0,0,.55-.73c0-.533-.526-.85-1.1-1.111a82.755,82.755,0,0,0-8.475-3.044,19.2,19.2,0,0,0,3.569-.406c.8-.215,1.294-.522,1.294-1.393v-.388h6.02v14.136c0,.307-.049.441-.543.441-2.278-.056-5.816-.279-9.459-.6a.215.215,0,0,0-.226.183l-.056.434a.208.208,0,0,0,.141.222c4.631,1.636,5.068,1.894,6,2.621a4.412,4.412,0,0,1,1.6,3.625c0,1.4.36,1.777,1.672,1.777a13.286,13.286,0,0,0,6.828-1.929c1.513-1.009,1.982-1.908,2.1-4.017V434.6c-.106-4.546-.106-4.546-.106-6.765Zm5.209-11.2v9.7H147.029v-9.7Z" transform="translate(-76.295 -391.846)" fill="#030000"/>
            <path id="パス_2217" data-name="パス 2217" d="M153.265,413.957c-3.008-2.077-6.563-3.509-13.113-5.28a.21.21,0,0,0-.226.081l-.268.377a.208.208,0,0,0,.018.268,40.551,40.551,0,0,1,5.551,6.846,30.363,30.363,0,0,1,3.284,6.133c.744,1.883,1.33,2.839,2.469,2.839,2.229,0,4.864-3.576,4.864-6.6A5.261,5.261,0,0,0,153.265,413.957Z" transform="translate(-53.336 -377.379)" fill="#030000"/>
          </g>
          <g id="グループ_444" data-name="グループ 444" transform="translate(9.187 58.348)">
            <path id="パス_2218" data-name="パス 2218" d="M148.065,424.242c-2.021-1.749-2.649-2.278-4.737-3.925a.217.217,0,0,0-.289.025c-1.4,1.6-1.834,2.109-3.114,3.679h-5.7v-5.756c.9-.318,1.485-.653,1.485-1.2,0-.638-.917-.9-3.781-1.086-.7-.035-1.778-.106-3.1-.2a.181.181,0,0,0-.166.067.208.208,0,0,0-.056.173,19.542,19.542,0,0,1,.166,2.874v5.128h-9.519a8.729,8.729,0,0,1-2.645-.328.2.2,0,0,0-.2.046.211.211,0,0,0-.064.194l.236,1.252a.217.217,0,0,0,.088.134.236.236,0,0,0,.116.035l.042,0a11.085,11.085,0,0,1,2.423-.233h28.582c.3,0,.511-.155.511-.377a.616.616,0,0,0-.2-.409Z" transform="translate(-115.829 -415.608)" fill="#030000"/>
            <path id="パス_2219" data-name="パス 2219" d="M131.369,421.383a40.342,40.342,0,0,0-6.839-2.247.206.206,0,0,0-.176.032.21.21,0,0,0-.088.159,27.15,27.15,0,0,1-2.381,8.609,41.72,41.72,0,0,1-5.65,9.787.207.207,0,0,0,.007.261l.169.2a.2.2,0,0,0,.159.074.219.219,0,0,0,.113-.032,30.656,30.656,0,0,0,7-5.572,37.507,37.507,0,0,0,6.341-9.618c1.185-.187,1.217-.194,1.457-.332a.7.7,0,0,0,.4-.635C131.881,421.732,131.623,421.542,131.369,421.383Z" transform="translate(-116.193 -407.135)" fill="#030000"/>
            <path id="パス_2220" data-name="パス 2220" d="M121.876,419.244a.209.209,0,0,0-.254.032l-.2.2a.213.213,0,0,0-.028.264,50.915,50.915,0,0,1,3.636,6.359,41.844,41.844,0,0,1,3.365,9.484c.353,1.446.55,1.95,1.386,1.95,1.763,0,3.855-3.1,3.855-5.717,0-1.4-.748-2.853-2.582-5A34.538,34.538,0,0,0,121.876,419.244Z" transform="translate(-103.147 -406.918)" fill="#030000"/>
            <path id="パス_2221" data-name="パス 2221" d="M155.339,434.163a25.784,25.784,0,0,1-6.366-4.423,15.547,15.547,0,0,1-3.675-5.516h12.482c.314,0,.547-.18.547-.413a.533.533,0,0,0-.152-.324l-.085-.106c-1.9-1.693-2.479-2.2-4.373-3.658a.2.2,0,0,0-.282.028c-1.266,1.432-1.672,1.9-2.913,3.375H144.85v-5.015c.843-.324,1.28-.539,1.28-1.058,0-.7,0-.7-6.5-1.326a.249.249,0,0,0-.173.064.207.207,0,0,0-.056.176,22.928,22.928,0,0,1,.268,3.823v3.336h-9.653a10.357,10.357,0,0,1-2.483-.331.212.212,0,0,0-.261.236l.2,1.248a.206.206,0,0,0,.092.141.2.2,0,0,0,.166.032,9.666,9.666,0,0,1,2.282-.229h7.7a34.556,34.556,0,0,1-3.686,6.937,42.421,42.421,0,0,1-8.3,9.72.21.21,0,0,0-.042.268l.169.272a.209.209,0,0,0,.257.081,31.643,31.643,0,0,0,7.308-4.045,24.923,24.923,0,0,0,6.345-6.373l-.092,7.184v.332H135.99a7.072,7.072,0,0,1-1.837-.229.219.219,0,0,0-.19.042.208.208,0,0,0-.071.187l.134,1.079a.2.2,0,0,0,.088.145.215.215,0,0,0,.166.035,6.179,6.179,0,0,1,1.711-.166h3.64c-.032,2.695-.035,2.793-.2,6.715,0,1.026.585,1.122,2.137,1.122,2.673,0,3.52-.053,3.52-1.22a.564.564,0,0,0-.035-.18c-.032-1.725-.035-1.788-.1-6.436h6.137c.328,0,.585-.18.585-.413a.891.891,0,0,0-.272-.526c-1.559-1.421-2.067-1.827-3.763-3.185a.226.226,0,0,0-.155-.042.215.215,0,0,0-.145.081c-.829,1.107-1.206,1.58-1.89,2.441l-.441.55h-.07l-.081-12.256a28.814,28.814,0,0,0,1.277,3.862,22.916,22.916,0,0,0,5.692,8.352c1.27,1.2,2.938,2.624,3.654,2.624.42,0,.568-.233.744-.758.127-.409.578-1.52.9-2.229a4.252,4.252,0,0,1,1.915-2.042.215.215,0,0,0,.1-.18V435.7a.211.211,0,0,0-.148-.2A23.894,23.894,0,0,1,155.339,434.163Z" transform="translate(-92.303 -415.728)" fill="#030000"/>
            <path id="パス_2222" data-name="パス 2222" d="M168.575,436.458a21.054,21.054,0,0,1-3.848-1.372,22.365,22.365,0,0,1-6.324-4.514,16.785,16.785,0,0,1-3.689-5.795h12.658a.464.464,0,0,0,.48-.413.676.676,0,0,0-.236-.458,53.977,53.977,0,0,0-4.271-3.625.212.212,0,0,0-.286.025c-1.76,1.961-1.788,1.993-3.044,3.375h-5.71v-5.456c.885-.36,1.248-.575,1.248-1.055a.645.645,0,0,0-.487-.628c-.511-.254-.921-.321-5.989-.765a.213.213,0,0,0-.226.233,32.968,32.968,0,0,1,.236,4.539v3.132h-9.755a7.912,7.912,0,0,1-2.211-.261.215.215,0,0,0-.194.046.218.218,0,0,0-.067.187l.169,1.15a.223.223,0,0,0,.088.141.2.2,0,0,0,.162.032,9.343,9.343,0,0,1,2.053-.2h8.182a32.207,32.207,0,0,1-3.731,7.551,45.644,45.644,0,0,1-8.443,10.291.212.212,0,0,0-.028.282l.2.268a.2.2,0,0,0,.25.067,29.426,29.426,0,0,0,7.107-4.045,32.8,32.8,0,0,0,6.211-6.232l-.032,5.082c-.067,4.476-.134,7.191-.2,8.316,0,1.132.536,1.189,2.236,1.189,2.479,0,3.418-.123,3.418-1.432-.021-.8-.046-2.455-.085-4.959l-.049-3.312-.056-10.443a25.691,25.691,0,0,0,1.1,3.661,25.005,25.005,0,0,0,5.52,8.584c1.351,1.351,3.227,2.8,3.865,2.8.547,0,.649-.279.843-.97a12.82,12.82,0,0,1,.963-2.285,3.9,3.9,0,0,1,2.01-2.077.207.207,0,0,0,.109-.183v-.268A.215.215,0,0,0,168.575,436.458Z" transform="translate(-67.982 -415.607)" fill="#030000"/>
          </g>
          <path id="パス_2223" data-name="パス 2223" d="M147.08,492.283v-93.1h1.9v93.1Z" transform="translate(-28.958 -399.184)" fill="#030000"/>
          <path id="パス_2224" data-name="パス 2224" d="M113.588,492.283v-93.1h1.9v93.1Z" transform="translate(-113.588 -399.184)" fill="#030000"/>
          <g id="グループ_461" data-name="グループ 461" transform="translate(128.526 5.036)">
            <g id="グループ_445" data-name="グループ 445" transform="translate(0 0.07)">
              <path id="パス_2225" data-name="パス 2225" d="M155.467,401.737c-3.273,1.527-5.326,4.321-5.326,7.287a2.192,2.192,0,0,0,.963,2.049,5.274,5.274,0,0,0,2.705.7c2.356,0,3.446-.871,3.488-2.836.088-2.878.131-3.446.525-4.666a3.115,3.115,0,0,1,2.434-2.508V400.64A13.322,13.322,0,0,0,155.467,401.737Z" transform="translate(-149.749 -400.612)" fill="#030000"/>
              <path id="パス_2226" data-name="パス 2226" d="M153.754,424.967a31.249,31.249,0,0,1,6.63-4.712c6.2-3.273,6.2-3.273,7.808-4.581A8.127,8.127,0,0,0,171.335,409c0-5.185-3.961-8.256-10.669-8.369v1.192a3.367,3.367,0,0,1,1.594.85,7.641,7.641,0,0,1,1.919,5.5,10.845,10.845,0,0,1-.871,4.274,13.925,13.925,0,0,1-3.883,4.536c-4.8,4.1-6.588,6.024-8.246,8.771-.2.335-.377.674-.55,1.012h1.728A10.2,10.2,0,0,1,153.754,424.967Z" transform="translate(-148.516 -400.632)" fill="#030000"/>
              <path id="パス_2227" data-name="パス 2227" d="M171.844,406.963a7.84,7.84,0,0,1-1.132,3.361c-.959,1.569-2.268,2.091-5.019,2.091H153l0-.007h-1.591a23.3,23.3,0,0,0-1.379,5.812h21.595l1.746-10.951Z" transform="translate(-150.03 -384.634)" fill="#030000"/>
            </g>
            <g id="グループ_446" data-name="グループ 446" transform="translate(51.891 0.07)">
              <path id="パス_2228" data-name="パス 2228" d="M170.176,401.737c-3.269,1.527-5.322,4.321-5.322,7.287a2.2,2.2,0,0,0,.959,2.049,5.293,5.293,0,0,0,2.705.7c2.356,0,3.449-.871,3.492-2.836.088-2.878.131-3.446.522-4.666a3.123,3.123,0,0,1,2.437-2.508V400.64A13.341,13.341,0,0,0,170.176,401.737Z" transform="translate(-164.463 -400.612)" fill="#030000"/>
              <path id="パス_2229" data-name="パス 2229" d="M168.463,424.967a31.278,31.278,0,0,1,6.634-4.712c6.193-3.273,6.193-3.273,7.808-4.581A8.137,8.137,0,0,0,186.048,409c0-5.185-3.961-8.256-10.672-8.369v1.192a3.362,3.362,0,0,1,1.6.85,7.641,7.641,0,0,1,1.919,5.5,10.907,10.907,0,0,1-.871,4.274,13.925,13.925,0,0,1-3.883,4.536c-4.8,4.1-6.588,6.024-8.246,8.771-.2.339-.377.674-.55,1.012h1.728A10.179,10.179,0,0,1,168.463,424.967Z" transform="translate(-163.229 -400.632)" fill="#030000"/>
              <path id="パス_2230" data-name="パス 2230" d="M186.557,406.963a7.888,7.888,0,0,1-1.132,3.361c-.963,1.569-2.271,2.091-5.019,2.091h-12.7l0-.007h-1.591a23.3,23.3,0,0,0-1.379,5.812h21.595l1.746-10.951Z" transform="translate(-164.743 -384.634)" fill="#030000"/>
            </g>
            <g id="グループ_447" data-name="グループ 447" transform="translate(112.013 0.07)">
              <path id="パス_2231" data-name="パス 2231" d="M187.227,401.737c-3.273,1.527-5.326,4.321-5.326,7.287a2.2,2.2,0,0,0,.959,2.049,5.293,5.293,0,0,0,2.705.7c2.356,0,3.449-.871,3.492-2.836.088-2.878.131-3.446.525-4.666a3.115,3.115,0,0,1,2.434-2.508V400.64A13.305,13.305,0,0,0,187.227,401.737Z" transform="translate(-181.51 -400.612)" fill="#030000"/>
              <path id="パス_2232" data-name="パス 2232" d="M185.51,424.967a31.28,31.28,0,0,1,6.634-4.712c6.193-3.273,6.193-3.273,7.809-4.581A8.137,8.137,0,0,0,203.1,409c0-5.185-3.961-8.256-10.669-8.369v1.192a3.367,3.367,0,0,1,1.594.85,7.641,7.641,0,0,1,1.919,5.5,10.907,10.907,0,0,1-.871,4.274,13.925,13.925,0,0,1-3.883,4.536c-4.8,4.1-6.588,6.024-8.246,8.771-.2.339-.377.674-.55,1.012h1.728A10.181,10.181,0,0,1,185.51,424.967Z" transform="translate(-180.276 -400.632)" fill="#030000"/>
              <path id="パス_2233" data-name="パス 2233" d="M203.6,406.963a7.888,7.888,0,0,1-1.132,3.361c-.963,1.569-2.271,2.091-5.019,2.091h-12.7l0-.007h-1.591a23.3,23.3,0,0,0-1.379,5.812h21.595l1.746-10.951Z" transform="translate(-181.79 -384.634)" fill="#030000"/>
            </g>
            <g id="グループ_448" data-name="グループ 448" transform="translate(25.679 0.102)">
              <path id="パス_2234" data-name="パス 2234" d="M165.864,430.4c-1.005-2.575-1.4-6.285-1.4-12.654,0-5.759.349-9.336,1.132-11.91.72-2.3,1.711-3.6,3.033-4v-1.185c-7.093.49-11.321,6.8-11.321,17.1a31.914,31.914,0,0,0,1.047,7.943,13.8,13.8,0,0,0,2.747,5.407,10.577,10.577,0,0,0,7.526,3.795V433.7C167.454,433.341,166.53,432.254,165.864,430.4Z" transform="translate(-157.311 -400.636)" fill="#030000"/>
              <path id="パス_2235" data-name="パス 2235" d="M172.459,417.746c0-10.376-4.253-16.7-11.473-17.105v1.15c1.249.307,2.232,1.407,2.963,3.347.959,2.575,1.354,6.2,1.354,12.609,0,5.89-.307,9.381-1.136,11.956q-1.116,3.507-3.181,4.042V434.9C168.167,434.485,172.459,428.161,172.459,417.746Z" transform="translate(-148.025 -400.641)" fill="#030000"/>
            </g>
            <g id="グループ_449" data-name="グループ 449" transform="translate(169.014 51.69)">
              <path id="パス_2236" data-name="パス 2236" d="M206.5,445.02c-1.005-2.571-1.4-6.281-1.4-12.651,0-5.759.349-9.336,1.136-11.91.716-2.3,1.707-3.608,3.03-4v-1.185c-7.092.49-11.321,6.8-11.321,17.1A32.029,32.029,0,0,0,199,440.308a13.816,13.816,0,0,0,2.747,5.41,10.578,10.578,0,0,0,7.526,3.8v-1.189C208.1,447.969,207.171,446.882,206.5,445.02Z" transform="translate(-197.952 -415.26)" fill="#030000"/>
              <path id="パス_2237" data-name="パス 2237" d="M213.1,432.377c0-10.376-4.25-16.7-11.473-17.109v1.153c1.252.307,2.233,1.407,2.963,3.347.963,2.574,1.354,6.193,1.354,12.608,0,5.89-.307,9.378-1.136,11.953-.741,2.342-1.806,3.693-3.181,4.045v1.153C208.808,449.115,213.1,442.792,213.1,432.377Z" transform="translate(-188.666 -415.268)" fill="#030000"/>
            </g>
            <path id="パス_2238" data-name="パス 2238" d="M206.909,435.676V400.612h1.9v35.064Z" transform="translate(-6.305 -400.612)" fill="#030000"/>
            <path id="パス_2239" data-name="パス 2239" d="M222.441,435.676V400.612h1.9v35.064Z" transform="translate(32.942 -400.612)" fill="#030000"/>
            <rect id="長方形_508" data-name="長方形 508" width="5.869" height="5.869" transform="translate(140.528 27.748)" fill="#030000"/>
            <g id="グループ_450" data-name="グループ 450" transform="translate(79.051 0.06)">
              <path id="パス_2240" data-name="パス 2240" d="M172.481,401.436l0,2.469h.667a17.646,17.646,0,0,1,2.515.116l.007-3.065C174.762,401.076,173.077,401.33,172.481,401.436Z" transform="translate(-172.361 -399.803)" fill="#030000"/>
              <path id="パス_2241" data-name="パス 2241" d="M185.574,432.392c-.871-.61-1.263-1.919-1.263-4.32V410.536c0-3.449.13-6.983.391-9.907-2.927.367-5.364.7-7.315.973v3.661c.021.356.028.765.028,1.256v21.553c0,2.49-.392,3.753-1.4,4.366-.741.48-1.439.61-3.576.61v1.178h16.71v-1.178C186.929,433.048,186.273,432.917,185.574,432.392Z" transform="translate(-172.444 -400.629)" fill="#030000"/>
            </g>
            <g id="グループ_451" data-name="グループ 451" transform="translate(205.154 9.505)">
              <path id="パス_2242" data-name="パス 2242" d="M216.01,403.431h-2.421l-2.878,9.862.4,1.614,2.308-7.681,3.4,12.631h2.138l.657-2.479Z" transform="translate(-201.853 -402.994)" fill="#030000"/>
              <path id="パス_2243" data-name="パス 2243" d="M214.241,407.3a10.805,10.805,0,0,1-.307-2.007,1.223,1.223,0,0,1,.437-1.047,3.019,3.019,0,0,1,1.506-.349v-.589H208.2v.568c1.308.2,1.721.765,2.356,3.294l3.315,13h2.095l.786-2.627Z" transform="translate(-208.199 -403.307)" fill="#030000"/>
              <path id="パス_2244" data-name="パス 2244" d="M213.141,403.307v.589a5.46,5.46,0,0,1,1.241.2,1.452,1.452,0,0,1,1.115,1.548,7.005,7.005,0,0,1-.307,1.919l-1.488,5.9.427,1.746,1.89-7.142c.786-3.012,1.439-3.883,3.075-4.169v-.589Z" transform="translate(-195.711 -403.307)" fill="#030000"/>
            </g>
            <g id="グループ_452" data-name="グループ 452" transform="translate(239.403 9.223)">
              <path id="パス_2245" data-name="パス 2245" d="M223.69,416.329a1.377,1.377,0,0,1-.984-.434c-.762-.875-1.178-2.684-1.178-5.17,0-3.47.808-5.453,2.225-5.453a1.456,1.456,0,0,1,.931.328l-.018-.67a4.233,4.233,0,0,0-1.566-.293,5.075,5.075,0,0,0-2.751.741c-1.548.984-2.441,3.1-2.441,5.826a6.218,6.218,0,0,0,1.591,4.691,4.386,4.386,0,0,0,3.121,1.157,5.427,5.427,0,0,0,2.247-.48c.042-.021.074-.042.116-.063l-.025-.935A1.551,1.551,0,0,1,223.69,416.329Z" transform="translate(-217.91 -399.664)" fill="#030000"/>
              <path id="パス_2246" data-name="パス 2246" d="M225.247,419.567c-.349-.286-.458-.959-.458-2.663v-9.117c0-1.615.042-2.663.152-4.56l-5.255.282v.526c1.527-.021,1.746.261,1.746,2.225v2.79l.293,10.76.053.67,4.451-.194v-.547C225.575,419.719,225.42,419.7,225.247,419.567Z" transform="translate(-213.425 -403.227)" fill="#030000"/>
            </g>
            <g id="グループ_453" data-name="グループ 453" transform="translate(227.288 14.231)">
              <path id="パス_2247" data-name="パス 2247" d="M215.465,406.344h.021v-.293C215.479,406.153,215.472,406.238,215.465,406.344Z" transform="translate(-211.973 -401.099)" fill="#030000"/>
              <path id="パス_2248" data-name="パス 2248" d="M224.883,413.6a4.05,4.05,0,0,1-3.47,2.529,2.96,2.96,0,0,1-2.793-1.964,8.442,8.442,0,0,1-.674-3.643s.035-.822.042-.924a23.731,23.731,0,0,1,.349-2.412,2.853,2.853,0,0,1,1.238-1.989v-.543a5.113,5.113,0,0,0-3.245,1.312,6.4,6.4,0,0,0-1.855,4.8,7.284,7.284,0,0,0,1.09,4.059,5.957,5.957,0,0,0,5,2.225,5.085,5.085,0,0,0,4.931-3.033Z" transform="translate(-214.475 -404.642)" fill="#030000"/>
              <path id="パス_2249" data-name="パス 2249" d="M218.123,406.336a9.59,9.59,0,0,1,.48,3.555H215.82v.631h6.207a8.64,8.64,0,0,0-.413-2.92,4.448,4.448,0,0,0-4.208-2.955v.663A2.246,2.246,0,0,1,218.123,406.336Z" transform="translate(-211.076 -404.647)" fill="#030000"/>
            </g>
            <path id="パス_2250" data-name="パス 2250" d="M206.909,450.238V415.17h1.9v35.068Z" transform="translate(-6.305 -363.826)" fill="#030000"/>
            <path id="パス_2251" data-name="パス 2251" d="M222.441,450.238V415.17h1.9v35.068Z" transform="translate(32.942 -363.826)" fill="#030000"/>
            <rect id="長方形_509" data-name="長方形 509" width="5.869" height="5.869" transform="translate(140.528 79.809)" fill="#030000"/>
            <g id="グループ_454" data-name="グループ 454" transform="translate(151.468 52.123)">
              <path id="パス_2252" data-name="パス 2252" d="M193.014,416.2l0,2.469.667,0a17.167,17.167,0,0,1,2.515.113l.007-3.065C195.3,415.837,193.61,416.094,193.014,416.2Z" transform="translate(-192.894 -414.567)" fill="#030000"/>
              <path id="パス_2253" data-name="パス 2253" d="M206.107,447.15c-.871-.61-1.263-1.919-1.263-4.317V425.294c0-3.449.13-6.983.391-9.9-2.927.363-5.364.695-7.315.97v3.664c.021.353.028.762.028,1.256v21.553c0,2.486-.391,3.753-1.4,4.363-.741.48-1.439.61-3.576.61v1.178h16.71v-1.178C207.462,447.806,206.806,447.676,206.107,447.15Z" transform="translate(-192.977 -415.391)" fill="#030000"/>
            </g>
            <g id="グループ_455" data-name="グループ 455" transform="translate(204.963 60.831)">
              <path id="パス_2254" data-name="パス 2254" d="M218.831,429.682l-4.493-11.822h-6.063v.589a4.234,4.234,0,0,1,1.291.19,3.05,3.05,0,0,1,1.622,1.072l.056.124.039.116v-.021l5.435,14.093h1.308l4.324-11.2V420.6Z" transform="translate(-207.817 -417.86)" fill="#030000"/>
              <path id="パス_2255" data-name="パス 2255" d="M210.72,427.685a6.362,6.362,0,0,1-.48,2.924c-.37.744-.854.984-2.095,1.047v.61h6.02v-.61c-1.22-.088-1.7-.3-2.07-1.047a6.413,6.413,0,0,1-.483-2.924V421.5l-.892-2.7Z" transform="translate(-208.145 -415.492)" fill="#030000"/>
              <path id="パス_2256" data-name="パス 2256" d="M217.751,431.756V420.805c0-1.2.109-1.7.416-1.986.261-.261.564-.328,1.633-.37v-.589h-5.611v1.781l.007-.014v12.129c0,1.986-.261,2.268-2.2,2.289v.589h7.964v-.589C218.012,434.024,217.751,433.763,217.751,431.756Z" transform="translate(-198.424 -417.86)" fill="#030000"/>
            </g>
            <g id="グループ_456" data-name="グループ 456" transform="translate(226.773 65.547)">
              <path id="パス_2257" data-name="パス 2257" d="M218.018,425.39c0-3.562.473-5.216,1.668-5.6V419.2a5.8,5.8,0,0,0-3.721,1.612,7.226,7.226,0,0,0,0,9.159,5.752,5.752,0,0,0,3.721,1.633v-.593C218.491,430.621,218.018,428.949,218.018,425.39Z" transform="translate(-214.329 -419.197)" fill="#030000"/>
              <path id="パス_2258" data-name="パス 2258" d="M221.544,425.39a6.749,6.749,0,0,0-1.636-4.581,5.784,5.784,0,0,0-3.71-1.612v.589c1.185.384,1.658,2.042,1.658,5.625,0,3.562-.473,5.216-1.658,5.6v.589a5.755,5.755,0,0,0,3.71-1.633A6.663,6.663,0,0,0,221.544,425.39Z" transform="translate(-209.609 -419.197)" fill="#030000"/>
            </g>
            <g id="グループ_457" data-name="グループ 457" transform="translate(239.135 65.522)">
              <path id="パス_2259" data-name="パス 2259" d="M225.947,428.593v-5.149a5.116,5.116,0,0,0-.5-2.663,3.248,3.248,0,0,0-3.079-1.591,4.487,4.487,0,0,0-2.754.832v.839a2.1,2.1,0,0,1,1.361-.518c1.132,0,1.612.984,1.612,3.252v5c0,1.876-.194,2.116-1.7,2.137v.543h6.782v-.543C226.141,430.709,225.947,430.469,225.947,428.593Z" transform="translate(-213.339 -419.19)" fill="#030000"/>
              <path id="パス_2260" data-name="パス 2260" d="M222.881,420.6l-.032-1.4-4.994.328v.568c.829.021,1,.042,1.241.215.349.243.437.656.437,2.01v6.239c0,1.876-.2,2.116-1.7,2.137v.543h6.782V430.7c-1.527-.021-1.721-.261-1.721-2.137v-3.026h-.014Z" transform="translate(-217.834 -419.16)" fill="#030000"/>
            </g>
            <g id="グループ_458" data-name="グループ 458" transform="translate(79.922 52.592)">
              <path id="パス_2261" data-name="パス 2261" d="M183.885,432.065l-11.194-16.541h4.67l11.194,16.541Z" transform="translate(-172.691 -415.524)" fill="#030000"/>
              <path id="パス_2262" data-name="パス 2262" d="M188.555,420.209,177.361,436.75h-4.67l11.194-16.541Z" transform="translate(-172.691 -403.686)" fill="#030000"/>
            </g>
            <g id="グループ_459" data-name="グループ 459" transform="translate(151.821 0.035)">
              <path id="パス_2263" data-name="パス 2263" d="M200.212,411.145c-.042-2.1-.088-2.19-.391-2.628a3.041,3.041,0,0,0-2.716-1.051c-2.5,0-4.028,1.182-4.028,3.2,0,2.1,1.312,4.073,3.721,5.431a16.094,16.094,0,0,0,7.018,1.626v-1.125C201.538,416.276,200.254,414.372,200.212,411.145Z" transform="translate(-193.077 -383.328)" fill="#030000"/>
              <path id="パス_2264" data-name="パス 2264" d="M198.248,401.721c-3.111,1.358-4.948,3.767-4.948,6.437,0,1.619,1.315,2.543,3.721,2.543,1.58,0,2.628-.441,3.111-1.315.219-.437.261-.568.261-2.19a10.925,10.925,0,0,1,.748-3.59,3.012,3.012,0,0,1,2.113-1.816v-1.164A13.581,13.581,0,0,0,198.248,401.721Z" transform="translate(-192.514 -400.617)" fill="#030000"/>
              <path id="パス_2265" data-name="パス 2265" d="M211.333,426.029a7.375,7.375,0,0,0-3.59-6.743c-1.971-1.27-4.028-1.883-7.53-2.148v-.307c6.525-.61,10.245-3.587,10.245-8.232,0-4.874-3.76-7.794-10.08-7.978v1.153c2.074.441,3.118,2.635,3.118,6.563,0,2.582-.571,4.6-1.665,5.869-1.227,1.442-3.019,2.1-6.087,2.186h-.656v1.316l.786.042c6.045.13,8.278,2.278,8.278,8.013,0,4.846-1.263,7.547-3.774,8.076v1.15c3.4-.138,6.313-1,8.242-2.568A7.888,7.888,0,0,0,211.333,426.029Z" transform="translate(-187.995 -400.622)" fill="#030000"/>
            </g>
            <g id="グループ_460" data-name="グループ 460" transform="translate(112.013 52.18)">
              <path id="パス_2266" data-name="パス 2266" d="M189.891,429.621a6.3,6.3,0,0,1-1.136-4.028c0-1.576-.092-1.926-.395-2.363a3.231,3.231,0,0,0-2.8-1.093c-2.451,0-3.767,1.093-3.767,3.065,0,3.911,4.391,6.764,10.38,6.93v-1.146A4.012,4.012,0,0,1,189.891,429.621Z" transform="translate(-181.79 -398.401)" fill="#030000"/>
              <path id="パス_2267" data-name="パス 2267" d="M184.156,431.959l.832-10.422h16.774l.963-6.13H183.676l-1.488,18.742,1.619.483c1.929-2.98,4.511-4.6,7.315-4.6l.042,0v-1.809A12.418,12.418,0,0,0,184.156,431.959Z" transform="translate(-180.784 -415.407)" fill="#030000"/>
              <path id="パス_2268" data-name="パス 2268" d="M196.517,428.937c0-6.13-4.116-9.942-10.729-9.942-.2,0-.392.018-.589.025v2.218c2.74.836,4.267,3.788,4.267,8.531a16.046,16.046,0,0,1-1.27,6.786,4.083,4.083,0,0,1-3,2.345v1.16C192.164,439.652,196.517,435.427,196.517,428.937Z" transform="translate(-173.176 -406.341)" fill="#030000"/>
            </g>
          </g>
        </g>
      </g>
    </g>
  </g>
</svg>
