<svg width="2296" height="1292" xmlns="http://www.w3.org/2000/svg"><path d="M0 646v646h2296V0H0v646m1087.5-468.575c91.478 9.119 170.649 31.137 249.5 69.387 47.17 22.882 87.989 48.618 133.525 84.188 25.475 19.899 64.395 56.839 87.531 83.077 43.693 49.552 78.181 100.371 106.494 156.923 42.373 84.636 65.47 167.685 74.672 268.5 1.716 18.803 1.708 91.334-.013 110-4.088 44.355-8.465 73.01-16.689 109.271-2.537 11.185-3.328 14.32-7.501 29.729-6.888 25.432-19.067 60.378-29.972 86-6.726 15.803-18.096 39.784-18.616 39.264-.229-.229 11-29.448 13.552-35.264.483-1.1 1.404-3.8 2.047-6 .643-2.2 2.072-5.929 3.176-8.287 1.105-2.358 1.785-5.141 1.512-6.185-.274-1.044.054-2.11.727-2.368.694-.267 1.3-2.566 1.401-5.315.179-4.903 1.707-10.947 3.267-12.926.469-.595 1.066-3.97 1.328-7.5.669-9.034 2.533-21.051 3.632-23.419 1.141-2.457 2.907-22.243 2.918-32.691.005-4.23.459-7.969 1.009-8.309 1.165-.72 1.349-5.816.25-6.92-.412-.414-.75-3.398-.75-6.63 0-6.808-2.165-10.303-4.95-7.992-1.049.871-1.55.924-1.55.164 0-.617-.702-1.122-1.559-1.122s-1.281-.45-.941-1c.34-.55 1.581-1 2.759-1 2.837 0 1.038-1.724-2.259-2.165-2.168-.291-2.541-.906-2.81-4.639-.171-2.368-.878-4.523-1.572-4.789-1.548-.594-2.131-13.407-.61-13.407.622 0 .562-.716-.157-1.868-.685-1.096-.838-2.644-.371-3.75.724-1.712.864-1.656 1.558.618l.763 2.5.205-2.5c.344-4.177-.144-8.483-.996-8.799-.957-.356-.263-7.294 1.211-12.118.887-2.903.77-3.616-.78-4.75-1.58-1.155-1.605-1.333-.191-1.333 1.343 0 1.578-.934 1.323-5.25-.171-2.888.113-7.95.631-11.25s.915-7.013.88-8.25c-.034-1.237.383-2.25.927-2.25a.982.982 0 00.989-.969c0-.532-.632-.726-1.404-.429-1.934.742-3.055-13.274-2.194-27.422.361-5.941.232-12.011-.29-13.68-.517-1.65-.979-2.437-1.026-1.75-.047.688-1.061 1.25-2.253 1.25-1.191 0-1.869-.297-1.506-.66.363-.363-.286-1.323-1.442-2.133-1.753-1.228-2.242-1.247-2.939-.119-.461.745-1.199.968-1.642.496-.442-.472-.241-1.059.446-1.304 1.958-.7 1.466-3.664-.848-5.109-1.328-.829-1.919-1.996-1.611-3.176.268-1.026-.163-2.795-.958-3.93-.796-1.136-1.083-2.072-.64-2.08.444-.009.144-.435-.667-.948-.81-.512-1.71-.609-2-.214-.289.395-1.763 1.261-3.276 1.926-1.513.664-2.75 1.893-2.75 2.73 0 .836-.45 1.521-1 1.521s-1-.675-1-1.5c0-.833-.889-1.5-2-1.5-1.798 0-2-.667-2-6.592 0-5.078.459-7.177 2-9.135 3.069-3.901 2.543-6.536-.873-4.373-1.728 1.095-5.127-1.638-5.127-4.122 0-2.596-4.447-2.281-6.677.473-1.124 1.387-2.671 2.13-4.033 1.936-1.71-.244-2.537.468-3.658 3.152-.797 1.908-2.391 3.767-3.541 4.132-1.15.365-2.091 1.299-2.091 2.076 0 3.211-3.187 9.318-4.583 8.783-.779-.299-1.417-.046-1.417.563s.45 1.107 1 1.107 1 .45 1 1-1.013.999-2.25.997c-2.167-.004-2.261-.382-2.556-10.25-.168-5.636-.672-10.617-1.121-11.068-.449-.452-1.984.26-3.411 1.583-1.934 1.792-2.306 2.694-1.461 3.539 1.143 1.143 1.11 1.166-3.693 2.665-1.621.505-4.995-4.87-4.033-6.426.307-.496-.499-2.042-1.791-3.436-2.579-2.783-2.614-8.31-.059-9.29 2.417-.928 1.471-2.376-1.125-1.725-2.013.505-2.5.256-2.5-1.281 0-1.049-.481-2.389-1.069-2.977-.588-.588-1.201-1.916-1.362-2.95-.302-1.946-1.957-2.158-6.569-.844-2.238.638-2.322.569-.802-.662 1.233-.998 1.775-3.228 1.977-8.125.154-3.712.683-6.75 1.176-6.75.493 0 .691-2.475.441-5.5-.251-3.025-.082-5.5.376-5.5 1.43 0 .908-4.692-.668-6-.825-.685-1.5-1.902-1.5-2.706 0-2.85-2.505-.589-2.814 2.54-.214 2.174.181 3.37 1.25 3.78.86.33 1.564 1.166 1.564 1.859 0 .923-1.064 1.064-4 .527-2.622-.479-4-.364-4 .334 0 .68-.435.631-1.2-.134-1.752-1.752-2.74-1.483-3.854 1.05-.856 1.949-.91 1.848-.399-.75 1.087-5.524.446-14.928-1.097-16.11-.798-.611-1.45-1.8-1.45-2.643 0-1.988 2.436-2.911 3.878-1.469.829.829 1.122.809 1.122-.078 0-.66-.477-1.2-1.059-1.2s-.741-.562-.353-1.25c.564-1 .436-1-.641 0-1.53 1.42-2.947 1.637-2.947.451 0-.44 1.555-1.362 3.457-2.049 2.98-1.078 3.344-1.553 2.643-3.451-.447-1.211-.615-2.763-.373-3.451.263-.747-.42-1.25-1.699-1.25-2.006 0-1.964-.154.666-2.468 1.543-1.358 2.244-2.483 1.556-2.5-.687-.018-1.25.445-1.25 1.027 0 .582-.417.801-.926.487-.518-.32-.585-1.78-.151-3.309.859-3.035-.836-9.347-2.409-8.972-.543.129-1.138-.553-1.324-1.515-.205-1.068.277-1.75 1.237-1.75.865 0 1.573-.45 1.573-1s-.679-1-1.508-1c-1.237 0-1.293-.346-.311-1.918.898-1.439.917-2.501.076-4.25-1.081-2.248-1.124-2.215-1.189.918-.111 5.315-3.585 3.467-4.23-2.25-.447-3.963-2.735-3.853-4.747.227-1.581 3.206-3.551 4.635-2.456 1.781.327-.851-.116-1.755-1.031-2.107-.882-.338-1.604-1.392-1.604-2.341 0-.95-.284-2.011-.631-2.358-.989-.989-4.369 1.203-4.369 2.833 0 .806-.727 1.465-1.617 1.465-1.106 0-1.456.611-1.11 1.935.292 1.119-.08 2.161-.884 2.469-.764.293-1.389.097-1.389-.435 0-.533-.45-.969-1-.969s-1 .675-1 1.5-.675 1.5-1.5 1.5-1.507.788-1.515 1.75c-.028 3.201-1.308 4.218-3.39 2.696-1.501-1.098-1.647-1.679-.706-2.813.953-1.148.661-1.842-1.486-3.531-1.47-1.156-3.431-2.102-4.358-2.102-1.988 0-6.623 4.971-6.244 6.698.347 1.583-3.467 3.652-4.287 2.325-.708-1.145 1.156-5.023 2.414-5.023 1.291 0 2.263-3.209 1.272-4.2-.476-.476-1.627-.573-2.558-.216-1.315.505-1.437.958-.545 2.033.946 1.139.422 1.383-2.975 1.383-4.185 0-4.999.723-3.029 2.693.79.79.756 1.72-.121 3.36-1.078 2.014-1.317 2.082-2.142.607-1.281-2.288-2.463-2.077-3.319.59-.654 2.036-.77 2.071-1.215.37-.271-1.034.025-2.2.657-2.591s1.267-1.814 1.411-3.162c.144-1.348.549-2.917.9-3.486.58-.938-.079-5.381-.799-5.381-1.481 0-3.332 1.406-2.859 2.172.327.529-.238.819-1.256.645-1.381-.237-1.932.395-2.172 2.493-.253 2.208-.771 2.744-2.416 2.5-1.94-.287-2.076-.874-1.863-8.025l.23-7.715-3.063.215c-2.23.157-3.063.716-3.064 2.059-.001 1.017-.922 2.084-2.056 2.38-1.338.35-1.997 1.277-1.89 2.657.091 1.165.116 3.637.055 5.491-.094 2.869-.334 3.188-1.6 2.137-.819-.68-1.192-1.747-.828-2.372.363-.625-.317-.28-1.511.768-1.195 1.048-2.172 2.627-2.172 3.509 0 .883-.9 2.167-2 2.854-1.1.687-2 1.92-2 2.74 0 .821-.585 1.492-1.3 1.492-.715 0-1.836.536-2.49 1.19-.655.655-3.22 1.217-5.7 1.25-5.23.07-5.657-1.021-2.264-5.786 1.235-1.735 2.248-3.219 2.25-3.299.002-.08-.839-1.077-1.869-2.215-1.845-2.038-1.833-2.089.756-3.269 2.455-1.118 2.522-1.318 1.008-2.992-1.956-2.161-2.772-9.839-1.059-9.965.642-.047-.182-.498-1.832-1.002-2.627-.803-3.279-.575-5.245 1.836-1.235 1.513-2.247 3.27-2.25 3.904-.003.634-1.355 1.623-3.005 2.198s-3 1.692-3 2.481c0 .79-.902 1.672-2.005 1.96-1.394.365-1.927 1.236-1.75 2.863.192 1.761-.302 2.419-1.995 2.662-1.237.178-2.25.981-2.25 1.786 0 1.827-4.007 3.437-5.942 2.386-.843-.457-2.401-.154-3.75.73-1.269.832-2.308 1.123-2.308.647s-2.277-.865-5.059-.865c-3.849 0-5.67.545-7.615 2.277-1.99 1.773-2.863 2.022-3.941 1.127-1.518-1.259-1.904-4.904-.52-4.904.476 0 .697-2.025.491-4.5-.262-3.14.006-4.509.884-4.53.693-.017.445-.505-.551-1.084-2.597-1.511-4.486-.436-4.929 2.805l-.384 2.809-1.027-2.43c-.985-2.332-1.137-2.202-3.794 3.228-2.353 4.809-3.037 5.515-4.557 4.701-2.391-1.28-4.26 1.005-3.827 4.679.241 2.04-.15 2.878-1.46 3.134-1.471.288-1.674-.111-1.141-2.236.57-2.269.207-2.771-2.96-4.095-1.986-.829-3.677-2.064-3.758-2.744a60.85 60.85 0 01-.25-3.208c-.148-2.85-5.417-4.612-6.737-2.252-.53.948-1.584 1.723-2.341 1.723-.758 0-1.583.787-1.835 1.75-.251.962-.509.288-.573-1.5-.073-2.047-.629-3.25-1.502-3.25-.762 0-2.664-.663-4.226-1.474-1.843-.956-3.183-1.131-3.814-.5-2.315 2.315-5.182.99-7.089-3.276-1.044-2.337-1.995-4.835-2.111-5.55-.116-.715-.737-1.933-1.38-2.707-1.324-1.596-2.047-1.189-7.566 4.257-3.841 3.79-4.428 3.956-4.428 1.25 0-1.171.667-2 1.608-2 1.181 0 1.455-.614 1.03-2.307-.763-3.039 3.349-14.676 6.769-19.161 1.482-1.942 2.392-3.532 2.021-3.532-.37 0-.124-.662.547-1.47.672-.809 1.289-3.718 1.373-6.464.124-4.068.569-5.216 2.403-6.199 2.024-1.084 2.1-1.374.75-2.865-2.083-2.302-1.987-6.821.141-6.641 2.879.244 2.484-1.856-.704-3.738-2.807-1.659-3.025-2.151-2.45-5.55.466-2.759.218-4.072-.953-5.044-.871-.723-1.685-1.137-1.809-.922-3.115 5.414-3.506 7.466-1.546 8.12 2.645.881-.218 3.552-4.496 4.193-3.357.504-4.609 1.185-5.013 2.731-.296 1.133-1.103 1.872-1.792 1.642-2.055-.685-2.18-2.742-.212-3.47 1.008-.372 2.058-.941 2.333-1.263.275-.322 1.813-1.03 3.419-1.573 3.554-1.202 4.157-4.603 1.593-8.987-.965-1.65-2.046-4.237-2.403-5.75-.608-2.586-2.609-3.927-2.609-1.75 0 .55-.45 1-1 1s-1-.675-1-1.5-.45-1.5-1-1.5-1 .664-1 1.476c0 2.716-3.421 7.107-5.246 6.735-1.211-.247-1.571.103-1.173 1.14.754 1.963-2.666 3.853-4.635 2.56-1.22-.801-1.143-1.18.495-2.43 1.556-1.187 1.63-1.481.373-1.481-.863 0-2.129-.675-2.814-1.5-1.56-1.88-3-1.933-3-.111 0 .764-.885 2.452-1.967 3.75l-1.966 2.361-.034-2.25c-.018-1.237.417-2.25.967-2.25s1-1.575 1-3.5-.352-3.5-.782-3.5c-.43 0-.876-1.144-.992-2.542-.143-1.721.241-2.448 1.187-2.25.768.161 2.327-.774 3.463-2.078 1.746-2.002 1.877-2.7.845-4.5-1.159-2.022-1.237-1.962-1.539 1.181-.194 2.016-.78 3.148-1.5 2.895-.65-.229-1.066-1.518-.925-2.865.145-1.381-.635-3.406-1.789-4.645-1.125-1.208-1.578-2.196-1.007-2.196.571 0 1.039-1.35 1.039-3 0-2-.5-3-1.5-3-.833 0-1.5-.889-1.5-2 0-1.275-.667-2-1.839-2-1.417 0-1.798-.689-1.661-3 .098-1.65-.199-3-.661-3-.461 0-.839.42-.839.934 0 .513-1.237 1.076-2.75 1.25-1.969.226-2.75.879-2.75 2.3 0 2.286-3.141 3.284-4.856 1.542-.861-.873-.71-1.481.606-2.454.963-.711 1.75-1.805 1.75-2.432s.563-1.155 1.25-1.173c.688-.019.237-.878-1-1.911-2.12-1.768-3.163-6.056-1.474-6.056.427 0 .603-1.822.391-4.05-.275-2.878.124-4.614 1.378-6 1.595-1.762 1.338-2.412-.816-2.061-.424.068-.487-1.007-.139-2.39.379-1.51-.042-3.933-1.055-6.067-1.388-2.923-1.942-3.339-3.133-2.351-.82.681-1.191 2.01-.856 3.065.375 1.179.018 2.084-.971 2.464-.86.33-1.346.951-1.081 1.381.46.743-3.559 2.277-4.224 1.612-.765-.765 1.075-3.603 2.337-3.603 2.844 0 1.267-2.644-2.357-3.953-2.062-.745-4.282-2.073-4.933-2.951-.947-1.278-1.435-1.347-2.45-.346-.697.688-2.039 1.25-2.984 1.25-.944 0-1.893.531-2.11 1.18-.241.723-1.134.895-2.305.446-1.615-.62-1.684-.882-.44-1.687 1.233-.799 1.084-1.254-.914-2.803-1.605-1.245-2.009-2.083-1.234-2.562.634-.392.889-1.138.567-1.659-.322-.521-1.026-.675-1.564-.343-.538.333-1.683.335-2.544.005-1.264-.486-1.327-.886-.329-2.089 1.041-1.255.812-1.488-1.464-1.488-1.683 0-3.862-1.162-5.786-3.086-2.711-2.711-3.384-2.951-5.535-1.971-2.583 1.177-5.78-.236-4.655-2.056.301-.488-.128-.887-.955-.887s-2.753-1.075-4.28-2.389c-2.442-2.099-2.914-2.202-3.904-.847-1.668 2.281-3.545.667-2.481-2.133 1.223-3.217.165-4.367-4.394-4.777-3.491-.313-4.025-.067-4.65 2.146-.389 1.375-.751 1.938-.806 1.25-.055-.687-.789-1.25-1.631-1.25-2.094 0-2.965-2.697-1.458-4.513 1.047-1.262.765-1.487-1.857-1.487-2.406 0-2.957.35-2.485 1.58.355.925-.547.511-2.177-1-1.531-1.419-3.506-2.625-4.388-2.68-.886-.055-.485-.458.896-.9 1.509-.483 1.839-.84.833-.9-.916-.055-1.895-.662-2.174-1.35-.383-.944-.793-.883-1.677.25-1.005 1.288-1.091 1.252-.608-.25.31-.962.072-1.75-.528-1.75-.72 0-.667-.511.154-1.5.685-.825 1.891-1.5 2.681-1.5.791 0 1.159-.45.819-1-.849-1.373-2.104-1.253-3.712.355-1.617 1.617-7.656 2.668-8.401 1.462-.626-1.013-2.387-.097-2.387 1.242 0 .518.81.941 1.8.941 1.702 0 4.2 1.755 4.2 2.95-.001 1.105-14.564.498-16.66-.695-2.043-1.163-2.176-2.182-.878-6.755.156-.55.228-1.316.161-1.702-.068-.386 1.648-2.515 3.812-4.731 2.164-2.217 3.648-4.317 3.298-4.668-.351-.35-1.337.062-2.191.916-.855.855-2.451 1.839-3.548 2.187-1.097.348-1.994 1.052-1.994 1.565 0 .513-.675.933-1.5.933s-1.5-.873-1.5-1.941c0-2.664-2.054-3.715-3.212-1.644-.748 1.335-1.251 1.446-2.369.518-2.009-1.668-1.759-3.476.628-4.541l2.048-.913-2.148-2.306c-1.182-1.268-1.99-2.44-1.798-2.604.193-.164 1.376-.832 2.629-1.484 1.253-.652 2.009-1.62 1.681-2.151-.328-.532-1.064-.678-1.635-.325-.654.404-.803-.101-.401-1.368.499-1.571.087-2.147-1.887-2.643-1.388-.348-2.414-1.188-2.28-1.866.144-.727-1.089-1.36-3.006-1.545-3.416-.33-4.498 1.282-1.5 2.234.967.308 1.812 1.637 1.888 2.973.107 1.86-.469 2.538-2.5 2.949-1.651.334-3.053-.005-3.748-.905-.611-.791-1.511-1.453-2-1.471-1.827-.069-5.521-3.946-4.828-5.067.505-.817.976-.69 1.603.43.488.873 1.551 1.332 2.361 1.021 1.792-.687 1.967-3.337.224-3.386-.687-.02-.125-.668 1.25-1.44 1.375-.772 3.513-1.157 4.75-.856 1.28.312 2.25.083 2.25-.529 0-.593-.639-.832-1.42-.532-.935.358-1.534-.252-1.75-1.782-.243-1.713-1.079-2.412-3.171-2.651-2.442-.28-2.753-.046-2.21 1.666.875 2.756-.86 3.508-4.969 2.153-3.252-1.074-4.01-2.042-3.515-4.494.111-.55-.168-.631-.619-.179-.451.451-.826 1.537-.833 2.413-.023 2.828-2.034 2.373-3.203-.725-.974-2.578-1.686-3.03-4.973-3.159-2.633-.103-3.04-.274-1.299-.546 2.736-.427 5.429-3.74 4.397-5.41-.393-.636-1.41-.336-2.68.791-1.556 1.379-2.157 1.501-2.503.509-.251-.718-1.241-2.068-2.201-3-.959-.932-2.373-3.156-3.142-4.944-1.448-3.368-2.35-3.963-3.409-2.25-.955 1.545-3.5 1.181-3.5-.5 0-1.504 1.345-1.855 6-1.566 1.999.124 2.199-.051 1-.874-.825-.566-1.05-1.043-.5-1.06.55-.017.391-.417-.353-.888-1.055-.668-1.103-1.326-.217-2.981.936-1.749.745-2.652-1.085-5.127-1.222-1.652-2.811-3.004-3.533-3.004s-1.312-.408-1.312-.906c0-.499.9-.671 2-.384 1.391.364 2 .031 2-1.093 0-1.12-.897-1.617-2.919-1.617-3.821 0-8.693-2.854-10.084-5.907-.953-2.09-.903-2.26.359-1.213 2.48 2.058 2.658-.33.25-3.35-3.017-3.783-5.015-2.613-4.324 2.533.372 2.778.112 3.955-.966 4.369-1.015.39-1.301 1.425-.918 3.317.331 1.637-.068 3.764-.984 5.251-1.306 2.121-1.475 2.187-1.118.432.304-1.49-.308-2.392-2.189-3.224-1.436-.636-3.06-2.18-3.609-3.432-.601-1.37-1.993-2.365-3.498-2.5-1.375-.123-1.919.033-1.208.347.991.439 1.021.897.127 1.974-1.53 1.844-4.919 1.805-4.919-.057 0-1.552-7.536-4.337-8.669-3.204-.361.36-.153 1.758.461 3.106.913 2.004.781 2.864-.723 4.722-1.576 1.945-2.071 2.079-3.454.931-1.398-1.16-1.615-1.062-1.615.724 0 1.134-.45 2.341-1 2.681-.55.34-1 .19-1-.334 0-1.512-3.225-2.342-4.417-1.137-.779.788-.592 1.373.667 2.083 2.352 1.327 2.217 2.888-.25 2.888-1.1 0-2-.45-2-1s-.421-1-.937-1c-.515 0-1.077 1.462-1.25 3.25-.254 2.64-.751 3.255-2.647 3.275-2.452.026-4.708 2.789-3.661 4.483.337.546.305 1.49-.071 2.099-.486.786-.906.747-1.452-.136-.9-1.456-5.982-.506-5.982 1.119 0 .579-.716 1.769-1.591 2.644-1.33 1.33-1.73 1.364-2.445.207-.997-1.612-1.993-.899-2.401 1.717-.243 1.558-1.195 1.831-6.175 1.768-3.239-.041-5.101.105-4.138.323 2.146.488 2.232 1.606.25 3.251-.825.685-1.5 1.851-1.5 2.591 0 .837-.621 1.108-1.64.717-1.43-.549-1.451-.769-.163-1.719.813-.599 1.289-1.651 1.057-2.339-.587-1.744-3.306-1.561-4.677.314-.803 1.099-3.061 1.62-7.585 1.75l-6.441.186-.275 3.5c-.151 1.925-.486 4.063-.744 4.75-.697 1.856-2.532 1.514-2.532-.473 0-1.415-.277-1.326-1.557.5-1.705 2.434-4.381 2.885-6.219 1.047-.902-.902-1.638-.759-3.153.612-1.917 1.734-1.996 1.709-2.632-.824-.361-1.436-.945-2.618-1.297-2.626-.353-.007-1.655-.285-2.892-.616-2.046-.548-2.25-.257-2.25 3.213 0 3.866 1.349 3.816 2.287-.083.272-1.13.531-.368.597 1.75.097 3.122-.219 3.75-1.884 3.75-1.289 0-2-.667-2-1.875 0-1.295-.955-2.066-3.086-2.492-1.892-.379-2.908-1.104-2.625-1.875.254-.692.967-1.146 1.586-1.008.619.137 1.125-.367 1.125-1.121 0-1.09-.957-1.192-4.682-.496-3.955.739-5.002.584-6.75-.998-1.137-1.03-3.305-2.165-4.818-2.523-3.309-.782-3.656-2.606-.5-2.627 1.237-.009 2.925-.467 3.75-1.019 1.309-.875 1.279-1.133-.238-2.027-.955-.564-2.238-1.96-2.85-3.103-.695-1.299-.725-1.839-.081-1.44.567.35 1.313.179 1.659-.38.345-.559-.074-1.016-.931-1.016-1.987 0-1.971-.731.064-2.765 1.496-1.497 1.477-1.68-.25-2.359-1.721-.676-1.728-.741-.092-.806 2.778-.109 3.117-2.734.68-5.268l-2.213-2.302.474 2.68c.388 2.196.034 2.79-1.959 3.29-2.831.711-6.263-.164-6.263-1.596 0-1.728-2.081.215-3.185 2.973-1.002 2.506-1.132 2.321-2.335-3.347-.701-3.3-1.049-7.19-.773-8.645.464-2.451.182-2.699-3.853-3.397-4.645-.804-4.544-.925 1.617-1.963 3.228-.543 3.649-.848 2.25-1.631-.947-.53-1.721-2.102-1.721-3.493 0-2.291-.284-2.468-3.001-1.871-2.098.461-3.159.248-3.526-.71-.289-.752-1.423-1.436-2.521-1.519-1.097-.082-1.737.267-1.422.777.315.51.099 1.495-.479 2.189-.578.695-1.937 2.388-3.018 3.763l-1.966 2.5-.049-2.5c-.027-1.383-.377-2.021-.783-1.427-.404.59-1.635 1.43-2.735 1.866-1.275.506-1.547.963-.75 1.261.712.266 1.25 2.177 1.25 4.442 0 2.396-.397 3.73-1 3.358-.55-.34-1.002-1.829-1.005-3.309l-.005-2.691-2.45 3c-1.463 1.792-2.23 3.733-1.905 4.82.374 1.252-.079 1.983-1.453 2.343-1.098.287-2.233 1.426-2.522 2.53-.289 1.105-1.006 1.711-1.593 1.349-.664-.411-1.127.588-1.227 2.649l-.16 3.309-.4-3.204c-.22-1.762.114-4.163.741-5.335 1.374-2.568.251-4.199-1.157-1.682-.543.97-1.409 1.502-1.925 1.183-1.571-.971-1.052-4.349.98-6.381 1.631-1.631 1.723-2.189.608-3.713-1.119-1.531-1.549-1.595-2.943-.438-.898.745-1.939 1.048-2.314.673s-1.379.792-2.229 2.594c-.899 1.903-2.385 3.363-3.544 3.483-1.556.16-1.611.091-.247-.311 1.946-.573 2.124-1.231.869-3.211-1.416-2.233-4.896.559-4.337 3.48.275 1.442-.025 2.362-.772 2.362-.724 0-.967.671-.594 1.641.346.902.378 2.432.071 3.4-.482 1.518-.971 1.602-3.585.616-2.715-1.025-3.212-.897-4.821 1.236-1.953 2.588-2.775 2.002-2.657-1.893.044-1.438.607-2.394 1.326-2.25.688.137 1.25-.425 1.25-1.25 0-2.429-1.8-1.742-5.548 2.117-2.349 2.419-3.323 4.213-2.942 5.416.314.989.123 2.076-.426 2.415-.548.339-.759 1.236-.468 1.994.306.798-.301 1.641-1.444 2.003-1.085.345-2.251 1.736-2.592 3.091-.484 1.929-1.265 2.464-3.599 2.464-1.64 0-2.981-.45-2.981-1s.9-1 2-1c1.333 0 2-.667 2-2 0-1.111.667-2 1.5-2 .825 0 1.5-.45 1.5-1s-.638-1-1.417-1-1.62-.562-1.869-1.25c-.261-.721-.997-.089-1.741 1.494-.709 1.51-2.793 3.632-4.631 4.717-1.838 1.084-3.342 2.469-3.342 3.077 0 .608-1.013 1.006-2.25.885s-3.123.152-4.19.608c-1.259.538-2.078.415-2.333-.351-.736-2.208-2.227-1.19-2.297 1.57-.063 2.437-.168 2.522-.93.75-.473-1.1-.891-3.687-.93-5.75-.038-2.062-.517-3.75-1.064-3.75-1.025 0-.861-3.479.216-4.555.334-.334 1.545-.105 2.692.509 1.842.986 2.086.839 2.086-1.251 0-1.804-.78-2.607-3.279-3.374-4.006-1.229-8.003.191-7.26 2.581.271.875.061 2.265-.469 3.09-.585.912-.967 1.031-.977.302-.008-.66-1.14-2.413-2.515-3.897-3.02-3.258-3.063-3.874-.5-7.132 1.1-1.399 2-3.424 2-4.501 0-1.081.848-2.181 1.893-2.454 1.916-.501 3.107-4.056 3.107-9.276 0-1.49.303-3.012.674-3.383.963-.963 1.048-5.713.112-6.291-.432-.267-.786-1.359-.786-2.427 0-2.166-1.557-2.626-2.338-.691-.297.738-.536.522-.583-.525-.045-1.017.989-2.18 2.421-2.725 3.242-1.233 3.2-1.857-.082-1.229-1.42.271-2.818 1.109-3.107 1.861-.718 1.871-6.311 1.806-6.311-.073 0-.793.441-1.713.98-2.046 1.361-.842-1.001-4.442-2.529-3.856-.656.252-1.894-.243-2.751-1.099-1.747-1.748-6.252-2.092-7.204-.551-.343.554.081 1.277.941 1.607 2.007.77 2.028 2.386.032 2.386-.843 0-1.79.672-2.105 1.494-.316.822-.976 1.246-1.469.941-.492-.304-.895.07-.895.832 0 .761-1.162 2.475-2.581 3.809l-2.582 2.424.69-2.75c.379-1.512.281-2.75-.219-2.75-1.748 0-3.308 2.424-3.308 5.141 0 1.508-.45 3.019-1 3.359-.55.34-1-.084-1-.941 0-1.703-1.736-2.012-3.834-.683-1.066.676-1.003.973.314 1.478.906.347 1.348 1.116.982 1.707-.365.591-1.238.855-1.939.586-.742-.284-1.222.21-1.149 1.182.077 1.021-.558 1.616-1.632 1.531-.972-.078-2.514 1.139-3.447 2.718-3.406 5.766-6.295 4.298-7.329-3.725-.604-4.679-.227-6.632 1.119-5.8.503.311.971-.362 1.04-1.494.174-2.866.303-3.397 1.144-4.719.405-.638.463-1.875.127-2.75-.343-.893-.099-1.59.556-1.59.641 0 .917-.403.613-.895-.305-.493.119-1.153.941-1.469 3.01-1.155.595-7.665-2.827-7.621-.723.01-.623.367.257.924 1.164.737 1.197 1.195.177 2.425-1.487 1.791-4.464.992-3.702-.993.289-.754-.087-1.371-.835-1.371-.749 0-1.621-.675-1.938-1.5-.316-.825-1.219-1.5-2.007-1.5-1.028 0-1.389-1.126-1.281-3.994.092-2.446.635-3.997 1.4-4 .688-.003 1.25-.504 1.25-1.113s-.675-.848-1.5-.531c-1.02.391-1.5-.054-1.5-1.393 0-2.189-1.551-2.665-2.341-.719-.385.95-.749.901-1.517-.202-1.393-2.002-.513-3.034 2.667-3.127 1.48-.043 2.129-.306 1.441-.583-.687-.278-1.25-1.555-1.25-2.838 0-1.283-.534-2.511-1.187-2.729-.766-.255-.416-1.168.984-2.568l2.173-2.173-2.558-.641c-1.471-.37-3.003-1.758-3.604-3.266-.576-1.443-1.239-2.108-1.475-1.479s-1.334.907-2.439.618c-1.715-.449-1.966-.102-1.703 2.356.267 2.493-.063 2.925-2.445 3.199-2.188.252-2.696-.057-2.471-1.5.156-.999.541-2.267.856-2.817.996-1.739-.279-13.982-1.652-15.859-1.067-1.459-1.708-1.589-3.397-.685-1.145.613-2.082 1.549-2.082 2.079 0 .531-.689.965-1.531.965-.843 0-1.816.788-2.163 1.75-1.45 4.02-4.513 7.25-6.874 7.25-2.246 0-2.432-.376-2.432-4.917 0-2.997-.488-5.113-1.25-5.421-.747-.301-.545-.536.5-.583 1.091-.049 1.75-.877 1.75-2.196 0-1.624.465-1.995 2-1.593 2.167.567 2.796-.8.75-1.631-.941-.381-.879-.769.25-1.568.825-.583 1.05-1.074.5-1.091-.55-.017-.438-.388.25-.824 1.626-1.033 1.982-9.432.421-9.952-1.306-.436-1.627-3.224-.371-3.224.44 0 1.286.486 1.88 1.08.774.774.865-.1.32-3.08-.961-5.255-2.819-7.41-3.649-4.233-.748 2.859-2.691 2.852-4.62-.017-.832-1.238-1.869-1.905-2.305-1.483-.436.421-.26 1.299.391 1.95 1.557 1.557 1.516 3.122-.067 2.528-2.061-.772-5.062.77-5.352 2.751-.15 1.02-.976 2.248-1.835 2.729-.86.481-1.563 1.451-1.563 2.156 0 .704-1.163 1.904-2.585 2.665-1.422.761-3.287 2.749-4.144 4.419-.857 1.669-2.843 4.358-4.414 5.975-1.572 1.617-2.857 3.304-2.857 3.75 0 .445-.9.81-2 .81-1.66 0-2-.667-2-3.917 0-2.222.541-4.115 1.25-4.375.952-.349.973-.753.088-1.696-1.438-1.53-6.983.106-6.563 1.937.151.66-.156.934-.681.609-.526-.325-1.238-.133-1.584.426-.345.559-1.735 1.016-3.088 1.016-2.095 0-2.371.355-1.86 2.391.689 2.747-1.308 4.591-2.693 2.487-.744-1.13-1.162-1.045-2.321.472-.778 1.018-1.882 1.562-2.452 1.209-.571-.352-1.31.446-1.644 1.775-.333 1.328-1.647 2.89-2.92 3.47-2.6 1.184-5.532 6.348-5.532 9.743 0 1.231-.675 2.498-1.5 2.815-.825.316-1.5 1.264-1.5 2.107 0 .842-.439 1.531-.975 1.531-.544 0-.717-1.291-.39-2.923.455-2.278.118-3.214-1.525-4.241-2.754-1.719-2.662-2.481.39-3.247 1.375-.345 2.5-1.069 2.5-1.608 0-.54.625-.981 1.389-.981s2.295-1.912 3.401-4.25c1.823-3.848 1.857-4.285.361-4.616-.908-.201-1.925-.799-2.259-1.329-.446-.706-.396-9.16.068-11.506.022-.111 1.94.649 4.261 1.689 3.046 1.363 4.578 1.594 5.5.828 1.724-1.43 1.622-2.115-.721-4.816-2.541-2.93-2.513-3.633.175-4.335 1.37-.359 2.608.024 3.347 1.034.954 1.305 1.327 1.354 2.002.262.523-.847.323-1.512-.54-1.8-.754-.251-2.429-1.515-3.723-2.809-1.293-1.293-2.781-2.352-3.306-2.352-1.122 0-1.303-3.679-.205-4.167 1.622-.721 4.014-7.615 3.527-10.164-.794-4.156-2.11-4.131-2.79.053-.883 5.428-2.228 8.278-3.907 8.278-2.409 0-2.78-1.822-.608-2.985 2.112-1.13 2.974-7.015 1.028-7.015-.55 0-1 .675-1 1.5s-.685 1.5-1.521 1.5c-.837 0-2.034 1.125-2.661 2.5-.626 1.375-1.742 2.5-2.479 2.5-.766 0-1.339 1.083-1.339 2.531 0 1.393-.675 2.791-1.5 3.107-.825.317-1.5 1.203-1.5 1.969s-.661 1.393-1.469 1.393c-.86 0-1.242.59-.921 1.426.321.837-.517 2.122-2.032 3.115-1.764 1.156-2.578 2.581-2.578 4.515 0 1.554-.487 3.127-1.083 3.495-.595.368-1.896 2.532-2.89 4.809-2.835 6.493-7.143 10.19-9.328 8.006-.348-.349.252-1.759 1.334-3.135 1.082-1.375 1.967-3.115 1.967-3.866 0-.751.563-1.401 1.25-1.444.937-.059.922-.21-.061-.604-1.044-.417-1-.868.216-2.212.84-.928 1.77-4.124 2.066-7.101.526-5.287 2.512-9.544 2.544-5.454.012 1.531.207 1.647.908.541.49-.775.693-1.929.449-2.563-.243-.635.472-1.982 1.589-2.993 1.561-1.413 1.77-2.154.903-3.199-.853-1.028-1.463-1.083-2.497-.226-.821.682-1.367.736-1.367.135 0-.55.675-1.56 1.5-2.245 1.036-.86 1.5-.898 1.5-.122 0 .617.948 1.122 2.107 1.122 1.517 0 1.936-.446 1.496-1.593-.336-.876-.883-2.676-1.216-4-.332-1.324-1.09-2.407-1.684-2.407-.594 0-.065-.946 1.176-2.102 1.341-1.249 2.012-2.739 1.655-3.67-.331-.863-.024-1.952.682-2.422.965-.641.601-1.415-1.466-3.117-1.513-1.245-2.75-3.203-2.75-4.352 0-4.241-1.29-8.337-2.625-8.337-.756 0-1.382.563-1.39 1.25-.011.833-.339.75-.985-.25-.788-1.219-.972-1.09-.985.691-.017 2.425-2.17 4.344-2.789 2.486-.854-2.56-2.275-.978-2.055 2.288.128 1.905-.09 3.788-.486 4.183-1.64 1.64-2.705-1.72-2.843-8.968-.081-4.24-.362-7.493-.626-7.23-.263.264-1.287.047-2.275-.482-2.58-1.38-5.21-.104-4.599 2.232.421 1.609.064 1.858-2.169 1.517-1.47-.224-2.11-.219-1.423.011 1.787.598 1.551 1.689-.832 3.846-1.956 1.77-2.141 1.78-3.05.155-1.369-2.447-3.814-2.237-3.158.271.425 1.624.031 2-2.093 2-1.932 0-2.617-.513-2.617-1.96 0-1.431 1.117-2.294 4.145-3.202 2.28-.683 3.525-1.448 2.768-1.7-2.291-.764-4.041-2.941-2.921-3.633 1.309-.809 1.315-6.505.008-6.505-.55 0-1 .615-1 1.367s-2.294 3.424-5.098 5.937c-2.804 2.513-4.816 5.026-4.471 5.584.351.568-1.148 1.546-3.402 2.221-2.216.664-4.029 1.535-4.029 1.936 0 .4-1.35.926-3 1.168-1.65.242-3 .33-3 .196 0-1.625 1.595-3.409 3.048-3.409 1.009 0 2.112-.45 2.452-1 .352-.57-.512-1-2.008-1-2.172 0-2.517-.347-1.992-2 .378-1.192.18-2-.492-2-.619 0-.889.383-.6.851.289.468-1.259 1.44-3.441 2.16-4.677 1.543-5.242 2.83-.967 2.202 1.801-.264 3 .005 3 .674 0 .612-.675 1.113-1.5 1.113s-2.4.9-3.5 2-3.013 2.052-4.25 2.116c-1.712.088-1.829.226-.488.576 2.427.633 1.154 2.308-1.754 2.308-1.524 0-2.609-.743-3.032-2.075-.362-1.142-.955-1.779-1.317-1.417-.363.362-.475.734-.25.825.225.092-2.813 3.408-6.75 7.369S624 382.43 624 383.074c0 .816-.499.757-1.644-.194-1.451-1.204-1.568-1.124-.996.68.373 1.174.039 2.874-.784 3.992-1.335 1.814-1.48 1.828-2.112.198-1.015-2.619-2.464-2.109-2.464.867 0 2.251-.349 2.55-2.5 2.138-1.902-.363-2.5-.056-2.5 1.285 0 .969-1.575 2.692-3.5 3.827-1.925 1.136-3.5 2.767-3.5 3.624 0 .857-1.125 1.986-2.5 2.509-1.375.523-2.5 1.412-2.5 1.975 0 .564-.9 1.025-2 1.025s-2 .62-2 1.378c0 .757-.675 1.937-1.5 2.622-1.036.86-1.5.898-1.5.122 0-.617-1.125-1.122-2.5-1.122-1.457 0-2.5.575-2.5 1.378 0 .757-.675 1.937-1.5 2.622-.825.685-1.5 2.059-1.5 3.055s-.899 2.096-1.998 2.444c-1.098.349-2.296 1.824-2.661 3.279-.707 2.816-8.37 11.222-10.231 11.222-.61 0-1.11.643-1.11 1.429 0 2.186-8.273 10.214-10.121 9.82-1.234-.263-1.509.234-1.155 2.085.255 1.338-.097 2.779-.784 3.203-.808.499-.997.364-.535-.382.418-.678.09-1.155-.796-1.155-.83 0-1.869.643-2.309 1.429-.44.786-1.247 1.573-1.793 1.75-.546.177-.876.833-.732 1.458.143.626-.872 1.422-2.257 1.769-1.385.348-2.518 1.299-2.518 2.113 0 .815-.48 1.481-1.067 1.481-.602 0-.799-.847-.451-1.943.544-1.715.054-1.98-4.164-2.25-4.177-.268-4.9-.65-5.731-3.027-.741-2.116-.573-3.138.756-4.606 1.49-1.647 1.521-2.042.242-3.104-.807-.669-1.605-2.421-1.776-3.893-.213-1.848-.971-2.771-2.446-2.982-1.633-.233-2.482-1.53-3.599-5.5-.885-3.145-1.081-5.342-.497-5.567.53-.204 1.289.154 1.687.797.524.848 1.082.737 2.027-.402 1.507-1.816 1.163-2.409-1.543-2.66-4.993-.464-6.267.073-5.671 2.387.477 1.851.328 2.046-.844 1.097-.782-.634-2.994-1.07-4.915-.97-2.606.137-3.582.683-3.847 2.153-.195 1.084-.788 2.42-1.317 2.97-.624.648-.728.384-.296-.75.991-2.604-1.864-2.212-3.061.421-.555 1.219-2.739 2.761-4.987 3.519-2.2.742-4.582 2.128-5.293 3.079-.711.952-1.611 1.737-2 1.745-.837.017-5.316 3.694-10.032 8.236-1.856 1.788-3.548 3.25-3.76 3.25-.385 0-17.024 15.862-18.915 18.031-.55.631-2.603 2.841-4.563 4.912-1.96 2.07-5.276 5.855-7.37 8.411-2.095 2.555-4.332 4.646-4.972 4.646-.64 0-2.015 1.463-3.055 3.25-1.04 1.788-4.536 5.841-7.769 9.009-3.233 3.167-5.602 6.205-5.266 6.75.337.545-.089.991-.946.991-.948 0-1.562.882-1.567 2.25-.005 1.397-.921 2.673-2.417 3.367-2.055.952-2.335.879-1.898-.5.443-1.401.368-1.417-.567-.117-.594.825-1.086 2.273-1.095 3.219-.01 1.114-.543 1.516-1.515 1.143-1.025-.394-1.5.057-1.5 1.424 0 1.1-.675 2.259-1.5 2.576-.825.316-1.536 1.827-1.579 3.357-.043 1.529-.314 2.193-.602 1.475-.62-1.548-8.319 6.348-8.319 8.531 0 .766-.45 1.115-1 .775-.55-.34-1-.133-1 .461 0 .965-1.24 3.012-7.239 11.949-.956 1.424-2.049 3.265-2.427 4.09-.378.825-.99 1.725-1.36 2-.369.275-1.807 2.525-3.196 5-3.969 7.074-11.088 19.457-11.45 19.917-.18.229-.572.172-.871-.126-.836-.837 14.76-30.309 26.348-49.791 18.757-31.536 48.578-73.34 68.144-95.526 1.953-2.215 6.026-6.94 9.051-10.5 25.3-29.779 66.66-68.39 104-97.087 50.262-38.629 111.021-73.182 170.074-96.721 71.824-28.63 143.688-44.679 226.426-50.566 13.914-.99 90.035.333 105 1.825M688.5 339c-.34.55-.141 1 .441 1s1.059-.45 1.059-1-.198-1-.441-1-.719.45-1.059 1m7.5 12c0 .55.477 1 1.059 1s.781-.45.441-1-.816-1-1.059-1-.441.45-.441 1m16 4c0 .55.477 1 1.059 1s.781-.45.441-1-.816-1-1.059-1-.441.45-.441 1m-3 13.441c0 .793-.45 1.719-1 2.059-.55.34-1-.309-1-1.441 0-1.132.45-2.059 1-2.059s1 .648 1 1.441M747 372c0 .55.45 1 1 1s1-.45 1-1-.45-1-1-1-1 .45-1 1m-8 2c0 .55.45 1 1 1s1-.45 1-1-.45-1-1-1-1 .45-1 1m.79 17.977c-.477 3.247.463 5.603 1.884 4.724.751-.464.877-2.614.407-6.951-.219-2.027-1.907-.386-2.291 2.227M615 393c0 .55-.45 1-1 1s-1-.45-1-1 .45-1 1-1 1 .45 1 1m-20 8.5c0 .825.177 1.5.393 1.5.216 0 .652-.675.969-1.5.316-.825.139-1.5-.393-1.5-.533 0-.969.675-.969 1.5m-4 9.941c0 .243-.45.719-1 1.059-.55.34-1 .141-1-.441s.45-1.059 1-1.059 1 .198 1 .441M736 421c0 .55.477 1 1.059 1s.781-.45.441-1-.816-1-1.059-1-.441.45-.441 1m-12 4.441c0 .793-.45 1.719-1 2.059-.55.34-1-.309-1-1.441 0-1.132.45-2.059 1-2.059s1 .648 1 1.441m65.63-.411c.683.683 1.848.704 3.45.064 2.274-.909 2.212-.971-1.03-1.031-2.368-.043-3.127.26-2.42.967M757 428c0 1.111-.667 2-1.5 2-1.808 0-1.933-1.167-.3-2.8 1.614-1.614 1.8-1.531 1.8.8m-55.678 2.342c-1.859 1.063-2.751.219-1.958-1.849.506-1.317.857-1.368 2.021-.294 1.21 1.118 1.201 1.42-.063 2.143m89.693-1.592c.009.413.452 1.425.985 2.25.784 1.213.972 1.069.985-.75.008-1.238-.435-2.25-.985-2.25s-.993.337-.985.75M720 441.5c0 .825-.177 1.5-.393 1.5-.216 0-.652-.675-.969-1.5-.316-.825-.139-1.5.393-1.5.533 0 .969.675.969 1.5m96 .5c0 .55-.477 1-1.059 1s-.781-.45-.441-1 .816-1 1.059-1 .441.45.441 1m-276.5 5.769c-1.945 1.422-1.681 4.231.397 4.231 1.092 0 2.222-.384 2.512-.853.787-1.274-1.753-4.224-2.909-3.378M879.5 471c-.34.55.11 1 1 1s1.34-.45 1-1c-.34-.55-.79-1-1-1-.21 0-.66.45-1 1m-53.182 1.651c1.003 1.003-2.536 3.282-5.151 3.317-3.001.041-2.348-2.181.907-3.091 3.395-.948 3.515-.955 4.244-.226M880 474.917c0 1.228.646 2.083 1.573 2.083.932 0 1.442-.68 1.25-1.667-.486-2.509-2.823-2.853-2.823-.416m-7.459 7.016c-.81 1.311-4.541 1.423-4.541.137 0-.512 1.013-1.093 2.25-1.29 2.736-.437 3.147-.231 2.291 1.153M1136 485c0 1.867.267 2.133 1.2 1.2.933-.933.933-1.467 0-2.4-.933-.933-1.2-.667-1.2 1.2m-1.417 5.866c-.431.697-.513 1.537-.183 1.867.895.895 1.871-.421 1.387-1.871-.338-1.016-.574-1.016-1.204.004M1105.5 504c-.34.55-.168 1 .382 1s1.278-.45 1.618-1c.34-.55.168-1-.382-1s-1.278.45-1.618 1m-270.264 5.994c-1.184 1.104-2.93 2.006-3.881 2.006-1.383 0-1.153-.601 1.151-3.007 1.923-2.006 3.214-2.673 3.882-2.005.668.668.285 1.668-1.152 3.006M974 508c0 .55-.45 1-1 1s-1-.45-1-1 .45-1 1-1 1 .45 1 1m168 3.5c0 .825-.402 1.5-.893 1.5s-1.152-.675-1.469-1.5c-.35-.914-.001-1.5.893-1.5.808 0 1.469.675 1.469 1.5m-8 .5c0 .55-.787.993-1.75.985-1.496-.013-1.532-.157-.25-.985 1.887-1.22 2-1.22 2 0m19.526.807c-.307.308-1.114.001-1.793-.683-.98-.988-.865-1.102.56-.56.986.376 1.541.935 1.233 1.243m-166.334.268c.197.591.785 1.075 1.308 1.075s1.111-.484 1.308-1.075c.197-.591-.391-1.075-1.308-1.075s-1.505.484-1.308 1.075m-3.509 2.113c-.319.797-.556.56-.604-.605-.043-1.054.193-1.644.525-1.312.332.332.368 1.195.079 1.917m209.86-.257c-.683 1.105.894 2.299 1.818 1.375.95-.951.773-2.306-.302-2.306-.518 0-1.2.419-1.516.931M883.5 517c-.351.567.49 1 1.941 1 1.407 0 2.559-.45 2.559-1s-.873-1-1.941-1-2.219.45-2.559 1m224 0c-.34.55-1.041 1-1.559 1s-.941-.45-.941-1 .702-1 1.559-1 1.281.45.941 1m52.5.816c0 1.022 4.109 2.408 4.873 1.644.636-.636.002-1.096-2.623-1.903-1.241-.382-2.25-.265-2.25.259M931.5 519c-.34.55-.141 1 .441 1s1.059-.45 1.059-1-.198-1-.441-1-.719.45-1.059 1m128.5 6.759c0 .418.9 1.322 2 2.009 1.643 1.026 2 .999 2-.153 0-.77-.712-1.674-1.582-2.008-2.054-.788-2.418-.766-2.418.152m-184 1.074c0 1.302-1.189 2.168-2.156 1.571-1.034-.639-.142-2.404 1.215-2.404.518 0 .941.375.941.833m74 .167c0 .55-.675 1-1.5 1s-1.5-.45-1.5-1 .675-1 1.5-1 1.5.45 1.5 1m-24 .441c0 1.055-1.919 1.499-2.49.575-.345-.559.074-1.016.931-1.016.857 0 1.559.198 1.559.441M1156.29 529c-.579 2.214-1.804 2.595-2.859.888-.378-.611-.067-1.504.691-1.984 2.153-1.364 2.734-1.07 2.168 1.096m-267.04.496c-1.497 1.7-1.652 4.504-.25 4.504.55 0 1-.81 1-1.8s.54-2.34 1.2-3c.66-.66.772-1.183.25-1.162-.522.021-1.512.677-2.2 1.458M1148 530c0 1.1-.45 2-1 2s-1-.9-1-2 .45-2 1-2 1 .9 1 2m25.25.662c-1.366.552-1.742 3.338-.45 3.338 1.035 0 3.2-2.165 3.2-3.2 0-.875-.822-.916-2.75-.138M884 532.941c0 1.068-.45 2.219-1 2.559-.55.34-1 .178-1-.359 0-.538-.273-1.689-.607-2.559-.398-1.038-.055-1.582 1-1.582.924 0 1.607.825 1.607 1.941m122.565 4.954c-.305.493.096 1.145.89 1.449.963.37 1.258.072.887-.895-.645-1.68-1.011-1.794-1.777-.554M1016 539c0 .55.477 1 1.059 1s.781-.45.441-1-.816-1-1.059-1-.441.45-.441 1m-108 2c0 .55-.45 1-1 1s-1-.45-1-1 .45-1 1-1 1 .45 1 1m141.494.75a40.71 40.71 0 00-1.235 3.541c-.724 2.525-2.755 1.517-2.779-1.379-.028-3.366.347-3.912 2.686-3.912 1.558 0 1.876.418 1.328 1.75m9.491.5c-.012 1.757-.217 1.932-.934.798-.506-.799-.697-1.811-.426-2.25.867-1.404 1.375-.861 1.36 1.452m117.586 3.179c1.829 1.829 1.809 2.571-.071 2.571-.825 0-1.5-.188-1.5-.418 0-.23-.273-1.13-.607-2-.755-1.969.29-2.042 2.178-.153M1183 547c0 .55-.477 1-1.059 1s-.781-.45-.441-1 .816-1 1.059-1 .441.45.441 1m-14.906 7.724c-.898 1.544-1.037 1.428-1.064-.892-.016-1.468.308-3.493.72-4.5.626-1.53.802-1.383 1.064.892.173 1.499-.151 3.524-.72 4.5m4.906-4.106c0 .825-.45 1.222-1 .882-.55-.34-1-1.293-1-2.118s.45-1.222 1-.882c.55.34 1 1.293 1 2.118m6.393.964c.334.87.607 2.241.607 3.046 0 1.195-.438 1.135-2.375-.326-2.406-1.815-2.479-4.302-.125-4.302.707 0 1.559.712 1.893 1.582m8.107.418c-.34.55-.141 1 .441 1s1.059-.45 1.059-1-.198-1-.441-1-.719.45-1.059 1m-165 2c-.34.55-1.068 1-1.618 1s-.722-.45-.382-1c.34-.55 1.068-1 1.618-1s.722.45.382 1m190.189 6.101c-.996.586-2.458.818-3.25.514-2.81-1.079-1.389 1.239 1.561 2.545 1.65.731 3 1.668 3 2.084 0 .416.675.756 1.5.756.933 0 1.5-.944 1.5-2.5 0-1.375.024-2.837.053-3.25.085-1.216-2.409-1.301-4.364-.149M1184.5 561c-.34.55-1.041 1-1.559 1s-.941-.45-.941-1 .702-1 1.559-1 1.281.45.941 1m-4.5 1c0 .55-1.237.993-2.75.985-2.143-.012-2.419-.23-1.25-.985 1.957-1.264 4-1.264 4 0m12.992 2.026c-1.986 1.255-6.992 1.237-6.992-.026 0-.55 1.35-1 3-1 1.667 0 3-.533 3-1.2 0-.911.299-.901 1.242.042.988.988.938 1.433-.25 2.184M1238 588c0 .55.45 1 1 1s1-.45 1-1-.45-1-1-1-1 .45-1 1m-6 1c0 .55-.45 1-1 1s-1-.45-1-1 .45-1 1-1 1 .45 1 1m26 .465c0 1.563 3.007 3.577 5.184 3.472.724-.035.256-.488-1.039-1.007-1.507-.604-2.148-1.48-1.781-2.436.348-.907-.004-1.494-.895-1.494-.808 0-1.469.659-1.469 1.465m61.985 65.285c-.036 1.725-1.846 3.454-2.922 2.789-.879-.543-.876-1.059.011-2.128 1.254-1.512 2.936-1.893 2.911-.661m13.09 15.525c-.124 1.196-1.495.964-1.925-.325-.22-.66.14-1.02.8-.8.66.22 1.166.726 1.125 1.125m32.925 22.3c0 1.631 6.193 1.358 6.742-.297.275-.826-.753-1.179-3.168-1.088-2.122.079-3.574.642-3.574 1.385m-22.177 8.754c.225 1.16-.154 1.481-1.25 1.061-1.849-.71-2.162-3.753-.323-3.14.688.228 1.395 1.164 1.573 2.079m-2.216 8.253c-.334.87-.607 1.77-.607 2 0 .23-.679.418-1.508.418-1.259 0-1.302-.332-.26-2 1.482-2.373 3.244-2.684 2.375-.418m39.792 5.668c-.396.688-.351.916.099.509.45-.408 1.432-.232 2.183.391 1.079.895 1.233.789.735-.509-.75-1.954-2.023-2.119-3.017-.391m-4.32 47.333c.048 1.165.285 1.402.604.605.289-.722.253-1.585-.079-1.917-.332-.332-.568.258-.525 1.312m-7.093 1.167c-.038 2.105-1.333 5.25-2.162 5.25-.518 0-.683-.419-.367-.931.317-.512.096-1.227-.489-1.589-.741-.458-.708-1.088.106-2.069 1.255-1.512 2.935-1.893 2.912-.661M1502 767c0 .55.477 1 1.059 1s.781-.45.441-1-.816-1-1.059-1-.441.45-.441 1m27.244 2.664c-1.576.636-.618 2.336 1.315 2.336.793 0 1.441-.675 1.441-1.5 0-1.542-.573-1.716-2.756-.836m-82.547 1.729c-.409 1.041-.508 2.129-.221 2.417.913.912 1.715-.583 1.333-2.482-.35-1.74-.404-1.737-1.112.065M1514 775.5c0 .825-.45 1.5-1 1.5s-1-.675-1-1.5.45-1.5 1-1.5 1 .675 1 1.5m46.725.5c.15 1.987-.79 2.602-2.05 1.342-.362-.362-.156-1.262.456-2 1.421-1.712 1.415-1.715 1.594.658m17.241 1c.263 0-.522.701-1.745 1.558-2.507 1.755-3.749 1.357-4.479-1.438-.447-1.708-.169-1.816 2.622-1.016 1.718.493 3.338.896 3.602.896M1420 782.118c0 .55-.45.722-1 .382-.55-.34-1-1.068-1-1.618s.45-.722 1-.382c.55.34 1 1.068 1 1.618m10 2.323c0 .243-.45.719-1 1.059-.55.34-1 .141-1-.441s.45-1.059 1-1.059 1 .198 1 .441M1588 801c0 1.264-2.043 1.264-4 0-1.169-.755-.893-.973 1.25-.985 1.513-.008 2.75.435 2.75.985m-6 14c0 .55-.45 1-1 1s-1-.45-1-1 .45-1 1-1 1 .45 1 1m18.667.667c-.367.366-.667 1.131-.667 1.7 0 .626.466.567 1.183-.15.651-.651.951-1.416.667-1.7-.284-.285-.817-.217-1.183.15m-.417 47.995c-.687.278-1.812.278-2.5 0-.687-.277-.125-.504 1.25-.504s1.938.227 1.25.504m8.433 13.526c-.319.797-.556.56-.604-.605-.043-1.054.193-1.644.525-1.312.332.332.368 1.195.079 1.917M1656 878.5c0 .825-.73 1.5-1.622 1.5-1.329 0-1.398-.271-.378-1.5.685-.825 1.415-1.5 1.622-1.5.208 0 .378.675.378 1.5m7.079 11.083c.048 1.165.285 1.402.604.605.289-.722.253-1.585-.079-1.917-.332-.332-.568.258-.525 1.312m15.367-.496c-.369.598-.171 1.588.441 2.2.817.817 1.113.528 1.113-1.087 0-2.415-.519-2.787-1.554-1.113M1669 903c0 1.1-.423 2-.941 2-1.342 0-2.288-1.82-1.559-3 1.045-1.691 2.5-1.109 2.5 1m23.195 9.5c.02 1.65.244 2.204.498 1.231.254-.973.237-2.323-.037-3-.274-.677-.481.119-.461 1.769m-9.36 5.623c-1.944 1.232-2.835 1.066-2.835-.529 0-.933.702-1.223 2.085-.862 1.584.415 1.764.748.75 1.391M1697.5 1047c.34.55.141 1-.441 1s-1.059-.45-1.059-1 .198-1 .441-1 .719.45 1.059 1" fill-rule="evenodd"/></svg>