<svg xmlns="http://www.w3.org/2000/svg" width="256" height="62" baseProfile="tiny" version="1.2" viewBox="0 0 256 62"><rect id="0" width="256" height="62" x="0" y="0" fill="#717264" fill-opacity="1"/><polygon id="1" fill="#BBD1B7" fill-opacity=".502" points="41 0 240 10 77 42"/><polygon id="2" fill="#241918" fill-opacity=".502" points="0 0 0 62 83 62"/><polygon id="3" fill="#3E3322" fill-opacity=".502" points="121 34 256 53 254 71 119 52"/><polygon id="4" fill="#8C7D71" fill-opacity=".502" points="14 57 10 16 52 35"/><polygon id="5" fill="#AFBCB2" fill-opacity=".502" points="146 11 83 51 65 22 128 -17"/><polygon id="6" fill="#E8D171" fill-opacity=".502" points="230 20 218 25 210 6 222 1"/><polygon id="7" fill="#00295A" fill-opacity=".502" points="34 22 18 -14 0 6"/><polygon id="8" fill="#49986B" fill-opacity=".502" points="238 9 188 -18 140 12"/><polygon id="9" fill="#000" fill-opacity=".502" points="17 60 0 27 -10 75"/><polygon id="10" fill="#937C6B" fill-opacity=".502" points="164 54 149 23 232 0"/><polygon id="11" fill="#001B45" fill-opacity=".502" points="186 35 187 55 175 56 174 36"/><polygon id="12" fill="#4C4B36" fill-opacity=".502" points="152 31 151 62 120 61 121 30"/><polygon id="13" fill="#3C2F11" fill-opacity=".502" points="237 62 254 22 256 62"/><polygon id="14" fill="#D84020" fill-opacity=".502" points="86 67 89 44 99 45 96 68"/><polygon id="15" fill="#B7B24C" fill-opacity=".502" points="129 55 131 47 145 51 142 59"/><polygon id="16" fill="#B9B6A2" fill-opacity=".502" points="115 50 73 14 122 11"/><polygon id="17" fill="#9EB9A5" fill-opacity=".502" points="196 14 159 0 201 35"/><polygon id="18" fill="#151813" fill-opacity=".502" points="0 52 65 55 64 63 0 60"/><polygon id="19" fill="#7C8675" fill-opacity=".502" points="29 0 78 41 82 0"/><polygon id="20" fill="#519A9C" fill-opacity=".502" points="129 14 130 0 89 0"/><polygon id="21" fill="#58C3EC" fill-opacity=".502" points="87 41 77 47 86 62"/><polygon id="22" fill="#9AABB8" fill-opacity=".502" points="15 36 30 32 22 48"/><polygon id="23" fill="#015941" fill-opacity=".502" points="185 0 216 0 201 11"/><polygon id="24" fill="#C7B79D" fill-opacity=".502" points="238 55 233 20 235 20 240 55"/><polygon id="25" fill="#001623" fill-opacity=".502" points="0 22 0 0 14 0"/><polygon id="26" fill="#645757" fill-opacity=".502" points="110 53 99 55 95 30 106 28"/><polygon id="27" fill="#AE8253" fill-opacity=".502" points="172 51 158 54 155 36 169 33"/><polygon id="28" fill="#5F4842" fill-opacity=".502" points="64 27 60 44 32 38 36 21"/><polygon id="29" fill="#CCB19F" fill-opacity=".502" points="66 27 96 41 95 10"/><polygon id="30" fill="#D0BA8F" fill-opacity=".502" points="145 21 145 0 107 21"/><polygon id="31" fill="#B6DDC3" fill-opacity=".502" points="103 28 95 0 130 29"/><polygon id="32" fill="#A29C8F" fill-opacity=".502" points="190 62 187 31 198 19"/><polygon id="33" fill="#5A4243" fill-opacity=".502" points="226 47 219 53 201 30 208 24"/><polygon id="34" fill="#2C3139" fill-opacity=".502" points="125 31 126 65 119 66 118 32"/><polyline id="35" fill="none" stroke="#584534" stroke-opacity=".502" stroke-width="1" points="162 61 80 61 208 61 223 20"/><polygon id="36" fill="#74A28C" fill-opacity=".502" points="159 0 207 10 144 25"/><polygon id="37" fill="#BC9F3F" fill-opacity=".502" points="133 55 131 55 138 22 140 22"/><polygon id="38" fill="#8B7251" fill-opacity=".502" points="123 61 75 60 76 57 124 58"/><polygon id="39" fill="#B5ACA4" fill-opacity=".502" points="109 37 115 36 116 59 110 60"/><polygon id="40" fill="#949184" fill-opacity=".502" points="233 0 228 52 220 0"/><polyline id="41" fill="none" stroke="#2180A6" stroke-opacity=".502" stroke-width="1" points="171 0 132 0 111 0 145 0"/><polygon id="42" fill="#55676C" fill-opacity=".502" points="144 18 182 27 147 27"/><polygon id="43" fill="#556F70" fill-opacity=".502" points="23 0 19 15 67 0"/><polygon id="44" fill="#745342" fill-opacity=".502" points="217 34 214 19 188 0"/><polyline id="45" fill="none" stroke="#3E1F11" stroke-opacity=".502" stroke-width="1" points="253 61 179 61 232 61 157 55"/><polygon id="46" fill="#CFB9A3" fill-opacity=".502" points="70 51 72 38 75 39 73 52"/><polygon id="47" fill="#AD9FA5" fill-opacity=".502" points="197 39 208 41 205 52"/><polygon id="48" fill="#73B481" fill-opacity=".502" points="118 10 108 24 105 -21"/><polygon id="49" fill="#886C63" fill-opacity=".502" points="236 0 256 24 217 39"/><path id="50" fill="none" stroke="#EEB6A5" stroke-opacity=".502" stroke-width="1" d="M93 38 Q 92 58 88 29"/><polygon id="51" fill="#E6FFFF" fill-opacity=".502" points="81 27 82 14 84 15 83 28"/><polygon id="52" fill="#D2B85D" fill-opacity=".502" points="223 20 225 6 198 12"/><polygon id="53" fill="#807471" fill-opacity=".502" points="52 38 147 33 177 23"/><polygon id="54" fill="#3D3928" fill-opacity=".502" points="54 33 45 62 73 62"/><polygon id="55" fill="#574342" fill-opacity=".502" points="213 38 213 41 186 36 187 33"/><polygon id="56" fill="#958E7B" fill-opacity=".502" points="42 27 47 0 57 33"/><polygon id="57" fill="#685374" fill-opacity=".502" points="87 2 90 2 90 19 87 19"/><polygon id="58" fill="#402A2B" fill-opacity=".502" points="15 29 9 15 0 33"/><polygon id="59" fill="#454431" fill-opacity=".502" points="140 39 190 65 185 74 135 48"/><polygon id="60" fill="#AC8D6B" fill-opacity=".502" points="34 53 29 41 32 40 37 52"/><polygon id="61" fill="#49798E" fill-opacity=".502" points="224 0 256 0 254 8"/><polygon id="62" fill="#654D4A" fill-opacity=".502" points="215 38 202 41 211 7"/><path id="63" fill="none" stroke="#370006" stroke-opacity=".502" stroke-width="1" d="M201 61 Q 206 34 200 61"/><polygon id="64" fill="#142330" fill-opacity=".502" points="100 48 103 44 109 49 106 53"/><polygon id="65" fill="#7B6664" fill-opacity=".502" points="80 62 76 0 75 62"/><polygon id="66" fill="#C6C8AB" fill-opacity=".502" points="102 34 63 27 79 22"/><polyline id="67" fill="none" stroke="#5D5158" stroke-opacity=".502" stroke-width="1" points="175 18 164 29 158 2 171 61"/><polygon id="68" fill="#796347" fill-opacity=".502" points="59 46 89 59 65 54"/><polygon id="69" fill="#675841" fill-opacity=".502" points="132 57 218 56 219 59 133 60"/><path id="70" fill="none" stroke="#6A626C" stroke-opacity=".502" stroke-width="1" d="M174 8 Q 171 45 171 53"/><polygon id="71" fill="#AA9C96" fill-opacity=".502" points="163 43 167 40 174 50 170 53"/><polygon id="72" fill="#78B47B" fill-opacity=".502" points="171 13 185 0 154 0"/><polygon id="73" fill="#8AA297" fill-opacity=".502" points="213 32 226 18 229 21 216 34"/><polygon id="74" fill="#292615" fill-opacity=".502" points="23 71 24 46 28 47 27 72"/><polygon id="75" fill="#7FD3EF" fill-opacity=".502" points="86 34 88 39 80 42 78 38"/><polygon id="76" fill="#1F1C33" fill-opacity=".502" points="234 18 243 9 243 10 235 19"/><polygon id="77" fill="#BFBC94" fill-opacity=".502" points="192 31 196 20 204 22 200 34"/><polygon id="78" fill="#5E4E70" fill-opacity=".502" points="76 15 81 16 80 21 75 20"/><polygon id="79" fill="#967D65" fill-opacity=".502" points="216 35 245 41 256 36"/><polygon id="80" fill="#3E605F" fill-opacity=".502" points="151 13 154 0 142 0"/><polygon id="81" fill="#96642C" fill-opacity=".502" points="153 23 164 49 160 50 149 24"/><polygon id="82" fill="#F3D9AC" fill-opacity=".502" points="141 14 143 18 132 23 130 19"/><polyline id="83" fill="none" stroke="#626063" stroke-opacity=".502" stroke-width="1" points="157 34 160 14 164 35 157 0"/><polygon id="84" fill="#2D3021" fill-opacity=".502" points="36 57 35 42 41 41 42 56"/><polygon id="85" fill="#94F3E6" fill-opacity=".502" points="158 12 159 19 155 20 154 13"/><path id="86" fill="none" stroke="#9A8F82" stroke-opacity=".502" stroke-width="1" d="M231 49 Q 237 53 209 36"/><polygon id="87" fill="#2D81AF" fill-opacity=".502" points="53 29 80 15 68 25"/><polygon id="88" fill="#F1B5A3" fill-opacity=".502" points="92 39 86 44 93 26"/><polygon id="89" fill="#325F88" fill-opacity=".502" points="38 18 17 0 9 7"/><polygon id="90" fill="#25344D" fill-opacity=".502" points="130 48 137 25 120 47"/><polygon id="91" fill="#656060" fill-opacity=".502" points="57 12 40 51 67 0"/><polygon id="92" fill="#798482" fill-opacity=".502" points="251 51 228 52 227 48 250 47"/><path id="93" fill="none" stroke="#7C5D61" stroke-opacity=".502" stroke-width="1" d="M45 34 Q 86 15 26 27"/><polygon id="94" fill="#482E34" fill-opacity=".502" points="194 68 195 45 203 46 202 69"/><polygon id="95" fill="#28535E" fill-opacity=".502" points="212 44 220 51 215 57 207 50"/><polygon id="96" fill="#624D42" fill-opacity=".502" points="256 24 256 10 236 10"/><polygon id="97" fill="#F9D86E" fill-opacity=".502" points="226 19 214 22 213 19 225 16"/><polygon id="98" fill="#CB9F49" fill-opacity=".502" points="117 11 123 12 122 19 116 18"/><polygon id="99" fill="#2F394A" fill-opacity=".502" points="186 62 166 19 181 41"/><polygon id="100" fill="#978E71" fill-opacity=".502" points="237 29 233 19 246 13 251 23"/><polygon id="101" fill="#442F28" fill-opacity=".502" points="244 33 245 29 263 34 262 38"/><polygon id="102" fill="#756B6E" fill-opacity=".502" points="148 35 192 7 144 43"/><polygon id="103" fill="#91A986" fill-opacity=".502" points="74 15 40 14 43 0"/><polygon id="104" fill="#655154" fill-opacity=".502" points="192 29 198 4 198 14"/><polygon id="105" fill="#64514F" fill-opacity=".502" points="67 32 73 62 56 16"/><polygon id="106" fill="#8D8F94" fill-opacity=".502" points="194 38 199 42 196 47 190 43"/><polygon id="107" fill="#293D55" fill-opacity=".502" points="188 34 189 50 178 51 177 35"/><polygon id="108" fill="#AB7A6F" fill-opacity=".502" points="83 43 101 46 98 40"/><polygon id="109" fill="#908781" fill-opacity=".502" points="166 30 139 0 167 42"/><polygon id="110" fill="#403C3C" fill-opacity=".502" points="107 52 107 51 134 55"/><polygon id="111" fill="#050C16" fill-opacity=".502" points="10 36 -14 51 10 62"/><polygon id="112" fill="#261305" fill-opacity=".502" points="250 51 255 50 256 61 251 62"/><polygon id="113" fill="#6C5D4C" fill-opacity=".502" points="230 57 222 61 210 37 218 33"/><polygon id="114" fill="#39302F" fill-opacity=".502" points="41 16 38 53 43 32"/><polygon id="115" fill="#E0FCE7" fill-opacity=".502" points="81 11 84 24 88 14"/><polygon id="116" fill="#8E664B" fill-opacity=".502" points="169 32 116 32 175 36"/><polygon id="117" fill="#B5B775" fill-opacity=".502" points="61 21 77 4 79 6 64 23"/><polygon id="118" fill="#BDA247" fill-opacity=".502" points="134 25 141 18 145 22 138 29"/><polygon id="119" fill="#8B7C61" fill-opacity=".502" points="110 50 87 62 107 62"/><polygon id="120" fill="#776542" fill-opacity=".502" points="165 47 149 53 159 62"/><path id="121" fill="none" stroke="#9EA899" stroke-opacity=".502" stroke-width="1" d="M85 36 Q 73 20 75 6"/><polygon id="122" fill="#8D6E67" fill-opacity=".502" points="32 32 30 28 48 21 50 25"/><path id="123" fill="none" stroke="#D0BDA1" stroke-opacity=".502" stroke-width="1" d="M95 44 Q 73 26 77 15"/><polygon id="124" fill="#4F4750" fill-opacity=".502" points="41 20 22 0 29 31"/><line id="125" x1="190" x2="191" y1="54" y2="22" fill="none" stroke="#C0BAB0" stroke-opacity=".502" stroke-width="1"/><polygon id="126" fill="#F6FFEF" fill-opacity=".502" points="100 11 105 19 103 20 98 12"/><polygon id="127" fill="#876746" fill-opacity=".502" points="15 15 11 49 23 21"/><polygon id="128" fill="#212B31" fill-opacity=".502" points="148 51 140 31 136 42"/><polyline id="129" fill="none" stroke="#56616F" stroke-opacity=".502" stroke-width="1" points="113 0 82 0 106 0 114 0"/><path id="130" fill="none" stroke="#383F4D" stroke-opacity=".502" stroke-width="1" d="M1 31 Q 29 36 21 34"/><polygon id="131" fill="#77A6B7" fill-opacity=".502" points="37 3 32 13 35 16"/><polygon id="132" fill="#7A7679" fill-opacity=".502" points="81 34 83 27 86 28 83 35"/><polygon id="133" fill="#93A7A7" fill-opacity=".502" points="20 53 19 46 22 45 23 52"/><polygon id="134" fill="#5E9CAD" fill-opacity=".502" points="112 14 113 0 137 0"/><polygon id="135" fill="#148B8F" fill-opacity=".502" points="230 6 232 12 229 13 227 7"/><polygon id="136" fill="#DEFFBA" fill-opacity=".502" points="85 5 83 10 81 9 83 4"/><polygon id="137" fill="#B8BC65" fill-opacity=".502" points="129 52 130 49 139 52 138 55"/><path id="138" fill="none" stroke="#7A8A95" stroke-opacity=".502" stroke-width="1" d="M98 26 Q 100 5 99 44"/><polyline id="139" fill="none" stroke="#343B48" stroke-opacity=".502" stroke-width="1" points="240 0 255 0 246 0 229 33"/><path id="140" fill="none" stroke="#615E52" stroke-opacity=".502" stroke-width="1" d="M33 34 Q 84 49 69 33"/><polygon id="141" fill="#FF9A13" fill-opacity=".502" points="63 22 70 16 71 17 64 23"/><polygon id="142" fill="#4B5955" fill-opacity=".502" points="66 3 36 0 37 -1 67 1"/><polygon id="143" fill="#F5FF8C" fill-opacity=".502" points="68 23 72 25 70 30 66 29"/><polygon id="144" fill="#0B163D" fill-opacity=".502" points="248 42 249 44 242 45 241 43"/><polygon id="145" fill="#745329" fill-opacity=".502" points="11 51 13 36 15 37 13 52"/><polyline id="146" fill="none" stroke="#666150" stroke-opacity=".502" stroke-width="1" points="98 61 127 61 149 39 154 18"/><line id="147" x1="165" x2="139" y1="15" y2="0" fill="none" stroke="#655753" stroke-opacity=".502" stroke-width="1"/><polygon id="148" fill="#575665" fill-opacity=".502" points="196 24 193 21 170 41"/><polygon id="149" fill="#3B97C4" fill-opacity=".502" points="60 24 60 19 64 0"/><polygon id="150" fill="#879A75" fill-opacity=".502" points="66 3 113 4 82 0"/><polygon id="151" fill="#135F48" fill-opacity=".502" points="173 0 193 1 223 0"/><polygon id="152" fill="#6AE5FF" fill-opacity=".502" points="81 51 80 48 85 45 87 48"/><polygon id="153" fill="#AEBCB4" fill-opacity=".502" points="146 26 147 32 144 33 143 27"/><line id="154" x1="143" x2="141" y1="52" y2="46" fill="none" stroke="#DAFF56" stroke-opacity=".502" stroke-width="1"/><polygon id="155" fill="#699E90" fill-opacity=".502" points="134 30 122 29 123 22 135 23"/><polygon id="156" fill="#5E4F45" fill-opacity=".502" points="106 52 131 53 152 62"/><line id="157" x1="242" x2="242" y1="0" y2="9" fill="none" stroke="#170519" stroke-opacity=".502" stroke-width="1"/><polyline id="158" fill="none" stroke="#57534E" stroke-opacity=".502" stroke-width="1" points="125 44 123 30 141 30 117 34"/><path id="159" fill="none" stroke="#936F69" stroke-opacity=".502" stroke-width="1" d="M89 13 Q 92 28 88 43"/><polygon id="160" fill="#9A9783" fill-opacity=".502" points="245 4 248 5 245 22 242 21"/><polygon id="161" fill="#5A545D" fill-opacity=".502" points="72 29 73 29 78 46 77 46"/><polygon id="162" fill="#B3A3A5" fill-opacity=".502" points="110 22 103 37 99 35 106 20"/><path id="163" fill="none" stroke="#8C928D" stroke-opacity=".502" stroke-width="1" d="M53 23 Q 51 24 57 3"/><polygon id="164" fill="#1D2932" fill-opacity=".502" points="14 50 17 49 20 61 17 62"/><line id="165" x1="108" x2="94" y1="61" y2="41" fill="none" stroke="#593D34" stroke-opacity=".502" stroke-width="1"/><polygon id="166" fill="#CC0C00" fill-opacity=".502" points="91 53 93 57 91 58 89 55"/><polygon id="167" fill="#C28E7F" fill-opacity=".502" points="29 24 32 23 33 24 30 26"/><path id="168" fill="none" stroke="#315A59" stroke-opacity=".502" stroke-width="1" d="M152 42 Q 141 26 151 40"/><polygon id="169" fill="#1D5278" fill-opacity=".502" points="8 13 6 14 3 0 5 0"/><polyline id="170" fill="none" stroke="#8D7C68" stroke-opacity=".502" stroke-width="1" points="220 1 224 13 225 0 255 28"/><polygon id="171" fill="#1E3029" fill-opacity=".502" points="55 56 56 35 59 36 58 57"/><polygon id="172" fill="#88696B" fill-opacity=".502" points="74 8 63 4 78 17"/><line id="173" x1="28" x2="38" y1="61" y2="35" fill="none" stroke="#9A774D" stroke-opacity=".502" stroke-width="1"/><line id="174" x1="237" x2="236" y1="12" y2="16" fill="none" stroke="#DBE9ED" stroke-opacity=".502" stroke-width="1"/><path id="175" fill="none" stroke="#8D7767" stroke-opacity=".502" stroke-width="1" d="M170 34 Q 230 38 213 18"/><line id="176" x1="85" x2="96" y1="45" y2="13" fill="none" stroke="#B48D69" stroke-opacity=".502" stroke-width="1"/><polygon id="177" fill="#151C21" fill-opacity=".502" points="175 52 161 62 161 59"/><line id="178" x1="85" x2="93" y1="14" y2="44" fill="none" stroke="#DAE8DA" stroke-opacity=".502" stroke-width="1"/><polygon id="179" fill="#BB8383" fill-opacity=".502" points="194 23 180 15 175 25"/><polygon id="180" fill="#A4AF63" fill-opacity=".502" points="205 16 227 0 203 9"/><polygon id="181" fill="#998E8F" fill-opacity=".502" points="169 34 171 35 168 54 166 53"/><polygon id="182" fill="#C2A08F" fill-opacity=".502" points="79 31 63 38 62 36 78 29"/><polygon id="183" fill="#5E626E" fill-opacity=".502" points="25 33 26 25 0 32"/><polygon id="184" fill="#84C4B1" fill-opacity=".502" points="184 15 189 8 196 13 191 21"/><polygon id="185" fill="#87A895" fill-opacity=".502" points="92 2 130 4 129 15"/><polygon id="186" fill="#06A7F7" fill-opacity=".502" points="72 19 73 23 69 24 68 20"/><polygon id="187" fill="#5F3E42" fill-opacity=".502" points="205 28 209 13 214 15 210 30"/><path id="188" fill="none" stroke="#6B787A" stroke-opacity=".502" stroke-width="1" d="M26 37 Q 22 61 17 43"/><path id="189" fill="none" stroke="#885B51" stroke-opacity=".502" stroke-width="1" d="M246 11 Q 222 6 216 42"/><polygon id="190" fill="#D5F0E1" fill-opacity=".502" points="101 27 102 12 104 13 103 28"/><polygon id="191" fill="#8B8782" fill-opacity=".502" points="105 42 107 42 112 61 110 61"/><polygon id="192" fill="#39323B" fill-opacity=".502" points="39 12 28 25 23 17"/><polygon id="193" fill="#213244" fill-opacity=".502" points="118 47 120 35 132 37 129 49"/><polygon id="194" fill="#B8D9B7" fill-opacity=".502" points="103 6 120 29 118 31 100 8"/><polygon id="195" fill="#9A926D" fill-opacity=".502" points="218 52 224 57 223 59 217 54"/><polygon id="196" fill="#697471" fill-opacity=".502" points="191 60 190 60 194 42 195 42"/><line id="197" x1="235" x2="223" y1="37" y2="20" fill="none" stroke="#374044" stroke-opacity=".502" stroke-width="1"/><path id="198" fill="none" stroke="#D3DCCC" stroke-opacity=".502" stroke-width="1" d="M92 34 Q 88 36 87 20"/><polygon id="199" fill="#907343" fill-opacity=".502" points="165 36 147 43 145 39 163 31"/><polygon id="200" fill="#B3AC9B" fill-opacity=".502" points="117 55 116 58 105 56 106 53"/><line id="201" x1="111" x2="93" y1="30" y2="32" fill="none" stroke="#635F60" stroke-opacity=".502" stroke-width="1"/><polygon id="202" fill="#92403D" fill-opacity=".502" points="219 34 227 23 229 25 221 35"/><polygon id="203" fill="#93EBFF" fill-opacity=".502" points="87 54 85 55 84 51 86 50"/><polygon id="204" fill="#989685" fill-opacity=".502" points="199 25 209 44 193 21"/><polygon id="205" fill="#ECD46B" fill-opacity=".502" points="211 12 216 9 222 17 217 20"/><polygon id="206" fill="#979380" fill-opacity=".502" points="234 41 211 23 213 20 236 39"/><polyline id="207" fill="none" stroke="#454E50" stroke-opacity=".502" stroke-width="1" points="126 36 144 34 123 42 138 49"/><polygon id="208" fill="#9EEA8C" fill-opacity=".502" points="102 8 109 5 111 11 104 14"/><polygon id="209" fill="#6F9ACC" fill-opacity=".502" points="128 19 119 0 119 8"/><line id="210" x1="169" x2="167" y1="47" y2="17" fill="none" stroke="#7B565D" stroke-opacity=".502" stroke-width="1"/><line id="211" x1="148" x2="154" y1="0" y2="21" fill="none" stroke="#3C3C48" stroke-opacity=".502" stroke-width="1"/><polygon id="212" fill="#AD795C" fill-opacity=".502" points="65 19 62 18 61 0"/><polygon id="213" fill="#5B4B3C" fill-opacity=".502" points="257 34 249 38 244 30 251 25"/><polygon id="214" fill="#223041" fill-opacity=".502" points="14 37 0 26 0 31"/><polygon id="215" fill="#212F33" fill-opacity=".502" points="120 55 119 49 128 48 129 54"/><polygon id="216" fill="#3C452E" fill-opacity=".502" points="24 5 28 0 12 0"/><polygon id="217" fill="#332A37" fill-opacity=".502" points="234 30 233 34 230 33 231 29"/><polygon id="218" fill="#9E9789" fill-opacity=".502" points="126 8 139 0 145 9"/><polygon id="219" fill="#6B4117" fill-opacity=".502" points="11 19 6 15 -18 37"/><polygon id="220" fill="#8AC5C0" fill-opacity=".502" points="161 26 154 21 160 20"/><line id="221" x1="67" x2="74" y1="10" y2="16" fill="none" stroke="#38CCD5" stroke-opacity=".502" stroke-width="1"/><polygon id="222" fill="#B2BDCB" fill-opacity=".502" points="18 38 27 37 28 38 18 39"/><polygon id="223" fill="#E5E7C7" fill-opacity=".502" points="235 30 234 26 235 25 236 30"/><polygon id="224" fill="#4C402A" fill-opacity=".502" points="224 43 232 40 233 41 224 44"/><polygon id="225" fill="#84655E" fill-opacity=".502" points="60 7 45 44 54 30"/><polygon id="226" fill="#0BA592" fill-opacity=".502" points="150 24 147 26 145 23 148 21"/><line id="227" x1="198" x2="191" y1="12" y2="2" fill="none" stroke="#300020" stroke-opacity=".502" stroke-width="1"/><polygon id="228" fill="#23271F" fill-opacity=".502" points="44 50 56 49 57 57 45 58"/><polygon id="229" fill="#AB8881" fill-opacity=".502" points="154 24 149 25 147 17 151 16"/><path id="230" fill="none" stroke="#6E6B63" stroke-opacity=".502" stroke-width="1" d="M63 1 Q 43 54 53 34"/><polygon id="231" fill="#B7BFAC" fill-opacity=".502" points="196 25 187 34 187 33 195 25"/><line id="232" x1="48" x2="49" y1="17" y2="41" fill="none" stroke="#887666" stroke-opacity=".502" stroke-width="1"/><polygon id="233" fill="#807A7A" fill-opacity=".502" points="35 22 33 18 38 15 40 19"/><path id="234" fill="none" stroke="#BA6048" stroke-opacity=".502" stroke-width="1" d="M143 2 Q 151 16 143 1"/><polygon id="235" fill="#162128" fill-opacity=".502" points="150 43 152 49 145 52 143 46"/><polygon id="236" fill="#2C333B" fill-opacity=".502" points="261 6 263 7 248 17 246 16"/><polygon id="237" fill="#779EA8" fill-opacity=".502" points="250 4 255 3 256 8 251 9"/><polygon id="238" fill="#64580B" fill-opacity=".502" points="241 59 242 52 251 53 250 60"/><polygon id="239" fill="#A19A81" fill-opacity=".502" points="205 58 204 58 205 45 206 46"/><line id="240" x1="27" x2="30" y1="9" y2="13" fill="none" stroke="#74CCFA" stroke-opacity=".502" stroke-width="1"/><line id="241" x1="195" x2="191" y1="33" y2="49" fill="none" stroke="#875E51" stroke-opacity=".502" stroke-width="1"/><polygon id="242" fill="#B1A698" fill-opacity=".502" points="230 43 231 50 228 51 227 44"/><polygon id="243" fill="#27281C" fill-opacity=".502" points="234 53 232 55 228 51 230 49"/><polygon id="244" fill="#321B25" fill-opacity=".502" points="204 51 197 57 194 54 201 48"/><polygon id="245" fill="#D2634F" fill-opacity=".502" points="94 32 95 50 97 38"/><polygon id="246" fill="#956832" fill-opacity=".502" points="165 48 159 49 158 31 164 30"/><line id="247" x1="246" x2="240" y1="0" y2="14" fill="none" stroke="#2A1C2D" stroke-opacity=".502" stroke-width="1"/><polygon id="248" fill="#8B6B79" fill-opacity=".502" points="84 27 88 13 89 13 85 28"/><polygon id="249" fill="#B9AEB3" fill-opacity=".502" points="175 33 174 29 178 30"/><line id="250" x1="200" x2="155" y1="57" y2="55" fill="none" stroke="#57513F" stroke-opacity=".502" stroke-width="1"/><polygon id="251" fill="#19160D" fill-opacity=".502" points="45 65 32 56 34 53 47 63"/><polygon id="252" fill="#ECB29E" fill-opacity=".502" points="214 33 213 31 216 30 217 31"/><polygon id="253" fill="#209795" fill-opacity=".502" points="221 26 224 21 225 22 222 27"/><polygon id="254" fill="#848D9A" fill-opacity=".502" points="28 37 20 28 21 26 29 35"/><line id="255" x1="25" x2="7" y1="31" y2="28" fill="none" stroke="#23293D" stroke-opacity=".502" stroke-width="1"/><polygon id="256" fill="#79AC7F" fill-opacity=".502" points="160 -4 177 5 171 15 154 4"/><polygon id="257" fill="#77684D" fill-opacity=".502" points="105 58 131 61 72 62"/><polygon id="258" fill="#AFA646" fill-opacity=".502" points="132 56 134 42 133 36"/><polygon id="259" fill="#424244" fill-opacity=".502" points="156 51 154 51 149 28 151 28"/><path id="260" fill="none" stroke="#685E61" stroke-opacity=".502" stroke-width="1" d="M236 38 Q 249 9 226 28"/><line id="261" x1="241" x2="235" y1="32" y2="54" fill="none" stroke="#A69F9A" stroke-opacity=".502" stroke-width="1"/><polygon id="262" fill="#535C59" fill-opacity=".502" points="221 62 198 24 210 40"/><polygon id="263" fill="#343838" fill-opacity=".502" points="125 30 120 33 119 32 124 29"/><line id="264" x1="240" x2="239" y1="5" y2="20" fill="none" stroke="#8B7A6F" stroke-opacity=".502" stroke-width="1"/><polygon id="265" fill="#D2C6B8" fill-opacity=".502" points="132 13 144 8 146 12 134 17"/><polygon id="266" fill="#061018" fill-opacity=".502" points="0 0 2 0 0 22"/><polygon id="267" fill="#4A4F51" fill-opacity=".502" points="181 57 185 38 189 39 185 58"/><line id="268" x1="33" x2="37" y1="15" y2="61" fill="none" stroke="#493F35" stroke-opacity=".502" stroke-width="1"/><polygon id="269" fill="#9C9283" fill-opacity=".502" points="94 35 95 30 119 33 118 38"/><polyline id="270" fill="none" stroke="#565650" stroke-opacity=".502" stroke-width="1" points="162 61 148 46 135 23 132 42"/><line id="271" x1="80" x2="87" y1="44" y2="43" fill="none" stroke="#294E5C" stroke-opacity=".502" stroke-width="1"/><polygon id="272" fill="#494F41" fill-opacity=".502" points="96 60 95 59 104 38 105 38"/><line id="273" x1="125" x2="122" y1="35" y2="61" fill="none" stroke="#6A5E44" stroke-opacity=".502" stroke-width="1"/><line id="274" x1="80" x2="56" y1="13" y2="6" fill="none" stroke="#4785AE" stroke-opacity=".502" stroke-width="1"/><polygon id="275" fill="#827F4C" fill-opacity=".502" points="42 41 43 36 51 37 50 42"/><line id="276" x1="175" x2="165" y1="16" y2="38" fill="none" stroke="#693E4A" stroke-opacity=".502" stroke-width="1"/><polygon id="277" fill="#1A2E47" fill-opacity=".502" points="150 28 154 25 154 25 151 29"/><polyline id="278" fill="none" stroke="#4E391B" stroke-opacity=".502" stroke-width="1" points="201 61 255 59 184 61 255 60"/><polygon id="279" fill="#E9FBB5" fill-opacity=".502" points="69 26 71 29 68 32 66 30"/><line id="280" x1="255" x2="247" y1="12" y2="48" fill="none" stroke="#5B514B" stroke-opacity=".502" stroke-width="1"/><polygon id="281" fill="#4E9381" fill-opacity=".502" points="149 7 156 -13 141 0"/><polygon id="282" fill="#5ABFDF" fill-opacity=".502" points="79 54 81 44 86 56"/><polyline id="283" fill="none" stroke="#47322C" stroke-opacity=".502" stroke-width="1" points="61 61 78 61 44 60 67 60"/><polygon id="284" fill="#BCDAA7" fill-opacity=".502" points="78 23 77 24 68 13 69 12"/><polygon id="285" fill="#665546" fill-opacity=".502" points="264 23 264 24 237 34 236 33"/><polygon id="286" fill="#8D9D9A" fill-opacity=".502" points="233 6 235 0 218 7"/><line id="287" x1="237" x2="195" y1="47" y2="46" fill="none" stroke="#6B5D59" stroke-opacity=".502" stroke-width="1"/><path id="288" fill="none" stroke="#E4FFE6" stroke-opacity=".502" stroke-width="1" d="M157 15 Q 156 27 156 18"/><path id="289" fill="none" stroke="#857D77" stroke-opacity=".502" stroke-width="1" d="M48 23 Q 69 16 52 23"/><polygon id="290" fill="#474A51" fill-opacity=".502" points="61 29 58 31 60 49"/><path id="291" fill="none" stroke="#4E4146" stroke-opacity=".502" stroke-width="1" d="M28 36 Q 82 19 52 37"/><polygon id="292" fill="#6F6A4D" fill-opacity=".502" points="206 58 166 61 198 56"/><polygon id="293" fill="#3A283F" fill-opacity=".502" points="165 29 170 26 173 29"/><path id="294" fill="none" stroke="#CCB9A0" stroke-opacity=".502" stroke-width="1" d="M189 31 Q 213 13 177 22"/><path id="295" fill="none" stroke="#D5BA99" stroke-opacity=".502" stroke-width="1" d="M118 16 Q 55 28 80 22"/><line id="296" x1="171" x2="173" y1="46" y2="32" fill="none" stroke="#A29290" stroke-opacity=".502" stroke-width="1"/><polygon id="297" fill="#BDBEB2" fill-opacity=".502" points="202 31 201 33 193 29 195 26"/><polygon id="298" fill="#4F646D" fill-opacity=".502" points="231 15 234 13 242 24 240 26"/><polygon id="299" fill="#2A4844" fill-opacity=".502" points="14 7 18 11 10 19 6 15"/><polygon id="300" fill="#398E63" fill-opacity=".502" points="211 6 210 8 196 7 197 5"/><polygon id="301" fill="#9C9F9B" fill-opacity=".502" points="19 45 15 42 20 35 24 38"/><line id="302" x1="240" x2="237" y1="19" y2="8" fill="none" stroke="#572427" stroke-opacity=".502" stroke-width="1"/><line id="303" x1="147" x2="158" y1="16" y2="16" fill="none" stroke="#A1D2D7" stroke-opacity=".502" stroke-width="1"/><polygon id="304" fill="#4088BB" fill-opacity=".502" points="20 8 22 8 22 16 20 16"/><polygon id="305" fill="#4D4952" fill-opacity=".502" points="46 21 47 18 52 20 51 22"/><polygon id="306" fill="#B6AB36" fill-opacity=".502" points="134 39 136 40 134 51 132 50"/><line id="307" x1="109" x2="106" y1="42" y2="30" fill="none" stroke="#67444F" stroke-opacity=".502" stroke-width="1"/><polygon id="308" fill="#E5B660" fill-opacity=".502" points="254 24 256 31 256 26"/><polyline id="309" fill="none" stroke="#646B60" stroke-opacity=".502" stroke-width="1" points="161 0 161 23 154 21 155 21"/><polygon id="310" fill="#DDCE7F" fill-opacity=".502" points="94 12 97 22 94 24 90 13"/><polygon id="311" fill="#609C89" fill-opacity=".502" points="121 3 113 0 113 15"/><polygon id="312" fill="#BBBDBF" fill-opacity=".502" points="105 16 122 22 119 31 102 26"/><polygon id="313" fill="#416B7B" fill-opacity=".502" points="234 0 256 3 210 -31"/><polygon id="314" fill="#CD3114" fill-opacity=".502" points="93 54 89 55 88 48 91 47"/><polygon id="315" fill="#6E5335" fill-opacity=".502" points="18 15 17 23 7 22 8 14"/><line id="316" x1="229" x2="226" y1="57" y2="45" fill="none" stroke="#979485" stroke-opacity=".502" stroke-width="1"/><polygon id="317" fill="#A77A59" fill-opacity=".502" points="230 24 240 17 241 19 231 26"/><line id="318" x1="90" x2="100" y1="13" y2="2" fill="none" stroke="#8F6F75" stroke-opacity=".502" stroke-width="1"/><polygon id="319" fill="#589545" fill-opacity=".502" points="207 8 225 0 212 1"/><polyline id="320" fill="none" stroke="#7E7261" stroke-opacity=".502" stroke-width="1" points="185 28 195 25 181 35 168 0"/><polygon id="321" fill="#B9B897" fill-opacity=".502" points="238 13 227 14 226 13 238 12"/><polygon id="322" fill="#8C738E" fill-opacity=".502" points="91 14 92 27 91 27 90 14"/><polygon id="323" fill="#99C3B4" fill-opacity=".502" points="170 21 163 22 162 16 169 15"/><line id="324" x1="162" x2="170" y1="8" y2="26" fill="none" stroke="#6D575F" stroke-opacity=".502" stroke-width="1"/><polyline id="325" fill="none" stroke="#5F666C" stroke-opacity=".502" stroke-width="1" points="221 0 238 0 227 17 223 12"/><line id="326" x1="195" x2="192" y1="45" y2="38" fill="none" stroke="#69351E" stroke-opacity=".502" stroke-width="1"/><line id="327" x1="80" x2="77" y1="30" y2="0" fill="none" stroke="#A6A798" stroke-opacity=".502" stroke-width="1"/><line id="328" x1="140" x2="120" y1="46" y2="39" fill="none" stroke="#373944" stroke-opacity=".502" stroke-width="1"/><polygon id="329" fill="#2B8CA9" fill-opacity=".502" points="75 12 71 15 70 14 75 12"/><line id="330" x1="163" x2="170" y1="11" y2="15" fill="none" stroke="#90FBCB" stroke-opacity=".502" stroke-width="1"/><polygon id="331" fill="#7ABC8A" fill-opacity=".502" points="160 1 176 5 174 11 158 6"/><path id="332" fill="none" stroke="#473A3C" stroke-opacity=".502" stroke-width="1" d="M71 50 Q 70 23 58 41"/><polygon id="333" fill="#96ADB5" fill-opacity=".502" points="194 40 202 45 208 42"/><polygon id="334" fill="#8C8F6D" fill-opacity=".502" points="57 4 50 0 30 7"/><line id="335" x1="173" x2="162" y1="38" y2="20" fill="none" stroke="#5B474D" stroke-opacity=".502" stroke-width="1"/><line id="336" x1="80" x2="81" y1="0" y2="25" fill="none" stroke="#68445E" stroke-opacity=".502" stroke-width="1"/><polygon id="337" fill="#718CAE" fill-opacity=".502" points="91 12 96 11 97 13 92 14"/><polygon id="338" fill="#B7BE77" fill-opacity=".502" points="71 11 68 0 69 14"/><polygon id="339" fill="#987066" fill-opacity=".502" points="187 16 178 29 174 27 183 14"/><line id="340" x1="41" x2="30" y1="35" y2="36" fill="none" stroke="#122B41" stroke-opacity=".502" stroke-width="1"/><path id="341" fill="none" stroke="#564C48" stroke-opacity=".502" stroke-width="1" d="M52 28 Q 49 55 60 33"/><path id="342" fill="none" stroke="#69625C" stroke-opacity=".502" stroke-width="1" d="M47 50 Q 58 40 25 41"/><line id="343" x1="59" x2="72" y1="60" y2="29" fill="none" stroke="#67594E" stroke-opacity=".502" stroke-width="1"/><polygon id="344" fill="#CDD6D7" fill-opacity=".502" points="81 22 83 23 82 30 80 29"/><polygon id="345" fill="#B88458" fill-opacity=".502" points="92 50 107 55 107 57 92 52"/><polygon id="346" fill="#3D2E1C" fill-opacity=".502" points="31 61 27 62 26 48 30 47"/><polygon id="347" fill="#917C5D" fill-opacity=".502" points="165 0 172 14 169 4"/><line id="348" x1="146" x2="171" y1="33" y2="32" fill="none" stroke="#AC8B78" stroke-opacity=".502" stroke-width="1"/><polygon id="349" fill="#3695BB" fill-opacity=".502" points="124 3 115 0 136 0"/><line id="350" x1="228" x2="228" y1="35" y2="30" fill="none" stroke="#C5D7CE" stroke-opacity=".502" stroke-width="1"/><line id="351" x1="74" x2="76" y1="61" y2="43" fill="none" stroke="#383634" stroke-opacity=".502" stroke-width="1"/><path id="352" fill="none" stroke="#C53627" stroke-opacity=".502" stroke-width="1" d="M94 57 Q 94 46 93 45"/></svg>