<?xml version="1.0" standalone="no"?>
<svg xmlns="http://www.w3.org/2000/svg" version="1.2" baseProfile="tiny" width="256" height="62" viewBox="0 0 256 62">
<rect x="0" y="0" width="256" height="62" id="0" fill="rgb(113,114,100)" fill-opacity="1" />
<polygon points="41,0 240,10 77,42" id="1" fill="rgb(187,209,183)" fill-opacity="0.501961" />
<polygon points="0,0 0,62 83,62" id="2" fill="rgb(36,25,24)" fill-opacity="0.501961" />
<polygon points="121,34 256,53 254,71 119,52" id="3" fill="rgb(62,51,34)" fill-opacity="0.501961"/>
<polygon points="14,57 10,16 52,35" id="4" fill="rgb(140,125,113)" fill-opacity="0.501961" />
<polygon points="146,11 83,51 65,22 128,-17" id="5" fill="rgb(175,188,178)" fill-opacity="0.501961"/>
<polygon points="230,20 218,25 210,6 222,1" id="6" fill="rgb(232,209,113)" fill-opacity="0.501961"/>
<polygon points="34,22 18,-14 0,6" id="7" fill="rgb(0,41,90)" fill-opacity="0.501961" />
<polygon points="238,9 188,-18 140,12" id="8" fill="rgb(73,152,107)" fill-opacity="0.501961" />
<polygon points="17,60 0,27 -10,75" id="9" fill="rgb(0,0,0)" fill-opacity="0.501961" />
<polygon points="164,54 149,23 232,0" id="10" fill="rgb(147,124,107)" fill-opacity="0.501961" />
<polygon points="186,35 187,55 175,56 174,36" id="11" fill="rgb(0,27,69)" fill-opacity="0.501961"/>
<polygon points="152,31 151,62 120,61 121,30" id="12" fill="rgb(76,75,54)" fill-opacity="0.501961"/>
<polygon points="237,62 254,22 256,62" id="13" fill="rgb(60,47,17)" fill-opacity="0.501961" />
<polygon points="86,67 89,44 99,45 96,68" id="14" fill="rgb(216,64,32)" fill-opacity="0.501961"/>
<polygon points="129,55 131,47 145,51 142,59" id="15" fill="rgb(183,178,76)" fill-opacity="0.501961"/>
<polygon points="115,50 73,14 122,11" id="16" fill="rgb(185,182,162)" fill-opacity="0.501961" />
<polygon points="196,14 159,0 201,35" id="17" fill="rgb(158,185,165)" fill-opacity="0.501961" />
<polygon points="0,52 65,55 64,63 0,60" id="18" fill="rgb(21,24,19)" fill-opacity="0.501961"/>
<polygon points="29,0 78,41 82,0" id="19" fill="rgb(124,134,117)" fill-opacity="0.501961" />
<polygon points="129,14 130,0 89,0" id="20" fill="rgb(81,154,156)" fill-opacity="0.501961" />
<polygon points="87,41 77,47 86,62" id="21" fill="rgb(88,195,236)" fill-opacity="0.501961" />
<polygon points="15,36 30,32 22,48" id="22" fill="rgb(154,171,184)" fill-opacity="0.501961" />
<polygon points="185,0 216,0 201,11" id="23" fill="rgb(1,89,65)" fill-opacity="0.501961" />
<polygon points="238,55 233,20 235,20 240,55" id="24" fill="rgb(199,183,157)" fill-opacity="0.501961"/>
<polygon points="0,22 0,0 14,0" id="25" fill="rgb(0,22,35)" fill-opacity="0.501961" />
<polygon points="110,53 99,55 95,30 106,28" id="26" fill="rgb(100,87,87)" fill-opacity="0.501961"/>
<polygon points="172,51 158,54 155,36 169,33" id="27" fill="rgb(174,130,83)" fill-opacity="0.501961"/>
<polygon points="64,27 60,44 32,38 36,21" id="28" fill="rgb(95,72,66)" fill-opacity="0.501961"/>
<polygon points="66,27 96,41 95,10" id="29" fill="rgb(204,177,159)" fill-opacity="0.501961" />
<polygon points="145,21 145,0 107,21" id="30" fill="rgb(208,186,143)" fill-opacity="0.501961" />
<polygon points="103,28 95,0 130,29" id="31" fill="rgb(182,221,195)" fill-opacity="0.501961" />
<polygon points="190,62 187,31 198,19" id="32" fill="rgb(162,156,143)" fill-opacity="0.501961" />
<polygon points="226,47 219,53 201,30 208,24" id="33" fill="rgb(90,66,67)" fill-opacity="0.501961"/>
<polygon points="125,31 126,65 119,66 118,32" id="34" fill="rgb(44,49,57)" fill-opacity="0.501961"/>
<polyline points="162,61 80,61 208,61 223,20" id="35" stroke="rgb(88,69,52)" stroke-width="1" fill="none" stroke-opacity="0.501961" />
<polygon points="159,0 207,10 144,25" id="36" fill="rgb(116,162,140)" fill-opacity="0.501961" />
<polygon points="133,55 131,55 138,22 140,22" id="37" fill="rgb(188,159,63)" fill-opacity="0.501961"/>
<polygon points="123,61 75,60 76,57 124,58" id="38" fill="rgb(139,114,81)" fill-opacity="0.501961"/>
<polygon points="109,37 115,36 116,59 110,60" id="39" fill="rgb(181,172,164)" fill-opacity="0.501961"/>
<polygon points="233,0 228,52 220,0" id="40" fill="rgb(148,145,132)" fill-opacity="0.501961" />
<polyline points="171,0 132,0 111,0 145,0" id="41" stroke="rgb(33,128,166)" stroke-width="1" fill="none" stroke-opacity="0.501961" />
<polygon points="144,18 182,27 147,27" id="42" fill="rgb(85,103,108)" fill-opacity="0.501961" />
<polygon points="23,0 19,15 67,0" id="43" fill="rgb(85,111,112)" fill-opacity="0.501961" />
<polygon points="217,34 214,19 188,0" id="44" fill="rgb(116,83,66)" fill-opacity="0.501961" />
<polyline points="253,61 179,61 232,61 157,55" id="45" stroke="rgb(62,31,17)" stroke-width="1" fill="none" stroke-opacity="0.501961" />
<polygon points="70,51 72,38 75,39 73,52" id="46" fill="rgb(207,185,163)" fill-opacity="0.501961"/>
<polygon points="197,39 208,41 205,52" id="47" fill="rgb(173,159,165)" fill-opacity="0.501961" />
<polygon points="118,10 108,24 105,-21" id="48" fill="rgb(115,180,129)" fill-opacity="0.501961" />
<polygon points="236,0 256,24 217,39" id="49" fill="rgb(136,108,99)" fill-opacity="0.501961" />
<path d="M93 38 Q 92 58 88 29" id="50" stroke="rgb(238,182,165)" stroke-width="1" fill="none" stroke-opacity="0.501961" />
<polygon points="81,27 82,14 84,15 83,28" id="51" fill="rgb(230,255,255)" fill-opacity="0.501961"/>
<polygon points="223,20 225,6 198,12" id="52" fill="rgb(210,184,93)" fill-opacity="0.501961" />
<polygon points="52,38 147,33 177,23" id="53" fill="rgb(128,116,113)" fill-opacity="0.501961" />
<polygon points="54,33 45,62 73,62" id="54" fill="rgb(61,57,40)" fill-opacity="0.501961" />
<polygon points="213,38 213,41 186,36 187,33" id="55" fill="rgb(87,67,66)" fill-opacity="0.501961"/>
<polygon points="42,27 47,0 57,33" id="56" fill="rgb(149,142,123)" fill-opacity="0.501961" />
<polygon points="87,2 90,2 90,19 87,19" id="57" fill="rgb(104,83,116)" fill-opacity="0.501961"/>
<polygon points="15,29 9,15 0,33" id="58" fill="rgb(64,42,43)" fill-opacity="0.501961" />
<polygon points="140,39 190,65 185,74 135,48" id="59" fill="rgb(69,68,49)" fill-opacity="0.501961"/>
<polygon points="34,53 29,41 32,40 37,52" id="60" fill="rgb(172,141,107)" fill-opacity="0.501961"/>
<polygon points="224,0 256,0 254,8" id="61" fill="rgb(73,121,142)" fill-opacity="0.501961" />
<polygon points="215,38 202,41 211,7" id="62" fill="rgb(101,77,74)" fill-opacity="0.501961" />
<path d="M201 61 Q 206 34 200 61" id="63" stroke="rgb(55,0,6)" stroke-width="1" fill="none" stroke-opacity="0.501961" />
<polygon points="100,48 103,44 109,49 106,53" id="64" fill="rgb(20,35,48)" fill-opacity="0.501961"/>
<polygon points="80,62 76,0 75,62" id="65" fill="rgb(123,102,100)" fill-opacity="0.501961" />
<polygon points="102,34 63,27 79,22" id="66" fill="rgb(198,200,171)" fill-opacity="0.501961" />
<polyline points="175,18 164,29 158,2 171,61" id="67" stroke="rgb(93,81,88)" stroke-width="1" fill="none" stroke-opacity="0.501961" />
<polygon points="59,46 89,59 65,54" id="68" fill="rgb(121,99,71)" fill-opacity="0.501961" />
<polygon points="132,57 218,56 219,59 133,60" id="69" fill="rgb(103,88,65)" fill-opacity="0.501961"/>
<path d="M174 8 Q 171 45 171 53" id="70" stroke="rgb(106,98,108)" stroke-width="1" fill="none" stroke-opacity="0.501961" />
<polygon points="163,43 167,40 174,50 170,53" id="71" fill="rgb(170,156,150)" fill-opacity="0.501961"/>
<polygon points="171,13 185,0 154,0" id="72" fill="rgb(120,180,123)" fill-opacity="0.501961" />
<polygon points="213,32 226,18 229,21 216,34" id="73" fill="rgb(138,162,151)" fill-opacity="0.501961"/>
<polygon points="23,71 24,46 28,47 27,72" id="74" fill="rgb(41,38,21)" fill-opacity="0.501961"/>
<polygon points="86,34 88,39 80,42 78,38" id="75" fill="rgb(127,211,239)" fill-opacity="0.501961"/>
<polygon points="234,18 243,9 243,10 235,19" id="76" fill="rgb(31,28,51)" fill-opacity="0.501961"/>
<polygon points="192,31 196,20 204,22 200,34" id="77" fill="rgb(191,188,148)" fill-opacity="0.501961"/>
<polygon points="76,15 81,16 80,21 75,20" id="78" fill="rgb(94,78,112)" fill-opacity="0.501961"/>
<polygon points="216,35 245,41 256,36" id="79" fill="rgb(150,125,101)" fill-opacity="0.501961" />
<polygon points="151,13 154,0 142,0" id="80" fill="rgb(62,96,95)" fill-opacity="0.501961" />
<polygon points="153,23 164,49 160,50 149,24" id="81" fill="rgb(150,100,44)" fill-opacity="0.501961"/>
<polygon points="141,14 143,18 132,23 130,19" id="82" fill="rgb(243,217,172)" fill-opacity="0.501961"/>
<polyline points="157,34 160,14 164,35 157,0" id="83" stroke="rgb(98,96,99)" stroke-width="1" fill="none" stroke-opacity="0.501961" />
<polygon points="36,57 35,42 41,41 42,56" id="84" fill="rgb(45,48,33)" fill-opacity="0.501961"/>
<polygon points="158,12 159,19 155,20 154,13" id="85" fill="rgb(148,243,230)" fill-opacity="0.501961"/>
<path d="M231 49 Q 237 53 209 36" id="86" stroke="rgb(154,143,130)" stroke-width="1" fill="none" stroke-opacity="0.501961" />
<polygon points="53,29 80,15 68,25" id="87" fill="rgb(45,129,175)" fill-opacity="0.501961" />
<polygon points="92,39 86,44 93,26" id="88" fill="rgb(241,181,163)" fill-opacity="0.501961" />
<polygon points="38,18 17,0 9,7" id="89" fill="rgb(50,95,136)" fill-opacity="0.501961" />
<polygon points="130,48 137,25 120,47" id="90" fill="rgb(37,52,77)" fill-opacity="0.501961" />
<polygon points="57,12 40,51 67,0" id="91" fill="rgb(101,96,96)" fill-opacity="0.501961" />
<polygon points="251,51 228,52 227,48 250,47" id="92" fill="rgb(121,132,130)" fill-opacity="0.501961"/>
<path d="M45 34 Q 86 15 26 27" id="93" stroke="rgb(124,93,97)" stroke-width="1" fill="none" stroke-opacity="0.501961" />
<polygon points="194,68 195,45 203,46 202,69" id="94" fill="rgb(72,46,52)" fill-opacity="0.501961"/>
<polygon points="212,44 220,51 215,57 207,50" id="95" fill="rgb(40,83,94)" fill-opacity="0.501961"/>
<polygon points="256,24 256,10 236,10" id="96" fill="rgb(98,77,66)" fill-opacity="0.501961" />
<polygon points="226,19 214,22 213,19 225,16" id="97" fill="rgb(249,216,110)" fill-opacity="0.501961"/>
<polygon points="117,11 123,12 122,19 116,18" id="98" fill="rgb(203,159,73)" fill-opacity="0.501961"/>
<polygon points="186,62 166,19 181,41" id="99" fill="rgb(47,57,74)" fill-opacity="0.501961" />
<polygon points="237,29 233,19 246,13 251,23" id="100" fill="rgb(151,142,113)" fill-opacity="0.501961"/>
<polygon points="244,33 245,29 263,34 262,38" id="101" fill="rgb(68,47,40)" fill-opacity="0.501961"/>
<polygon points="148,35 192,7 144,43" id="102" fill="rgb(117,107,110)" fill-opacity="0.501961" />
<polygon points="74,15 40,14 43,0" id="103" fill="rgb(145,169,134)" fill-opacity="0.501961" />
<polygon points="192,29 198,4 198,14" id="104" fill="rgb(101,81,84)" fill-opacity="0.501961" />
<polygon points="67,32 73,62 56,16" id="105" fill="rgb(100,81,79)" fill-opacity="0.501961" />
<polygon points="194,38 199,42 196,47 190,43" id="106" fill="rgb(141,143,148)" fill-opacity="0.501961"/>
<polygon points="188,34 189,50 178,51 177,35" id="107" fill="rgb(41,61,85)" fill-opacity="0.501961"/>
<polygon points="83,43 101,46 98,40" id="108" fill="rgb(171,122,111)" fill-opacity="0.501961" />
<polygon points="166,30 139,0 167,42" id="109" fill="rgb(144,135,129)" fill-opacity="0.501961" />
<polygon points="107,52 107,51 134,55" id="110" fill="rgb(64,60,60)" fill-opacity="0.501961" />
<polygon points="10,36 -14,51 10,62" id="111" fill="rgb(5,12,22)" fill-opacity="0.501961" />
<polygon points="250,51 255,50 256,61 251,62" id="112" fill="rgb(38,19,5)" fill-opacity="0.501961"/>
<polygon points="230,57 222,61 210,37 218,33" id="113" fill="rgb(108,93,76)" fill-opacity="0.501961"/>
<polygon points="41,16 38,53 43,32" id="114" fill="rgb(57,48,47)" fill-opacity="0.501961" />
<polygon points="81,11 84,24 88,14" id="115" fill="rgb(224,252,231)" fill-opacity="0.501961" />
<polygon points="169,32 116,32 175,36" id="116" fill="rgb(142,102,75)" fill-opacity="0.501961" />
<polygon points="61,21 77,4 79,6 64,23" id="117" fill="rgb(181,183,117)" fill-opacity="0.501961"/>
<polygon points="134,25 141,18 145,22 138,29" id="118" fill="rgb(189,162,71)" fill-opacity="0.501961"/>
<polygon points="110,50 87,62 107,62" id="119" fill="rgb(139,124,97)" fill-opacity="0.501961" />
<polygon points="165,47 149,53 159,62" id="120" fill="rgb(119,101,66)" fill-opacity="0.501961" />
<path d="M85 36 Q 73 20 75 6" id="121" stroke="rgb(158,168,153)" stroke-width="1" fill="none" stroke-opacity="0.501961" />
<polygon points="32,32 30,28 48,21 50,25" id="122" fill="rgb(141,110,103)" fill-opacity="0.501961"/>
<path d="M95 44 Q 73 26 77 15" id="123" stroke="rgb(208,189,161)" stroke-width="1" fill="none" stroke-opacity="0.501961" />
<polygon points="41,20 22,0 29,31" id="124" fill="rgb(79,71,80)" fill-opacity="0.501961" />
<line x1="190" y1="54" x2="191" y2="22" id="125" stroke="rgb(192,186,176)" stroke-width="1" fill="none" stroke-opacity="0.501961" />
<polygon points="100,11 105,19 103,20 98,12" id="126" fill="rgb(246,255,239)" fill-opacity="0.501961"/>
<polygon points="15,15 11,49 23,21" id="127" fill="rgb(135,103,70)" fill-opacity="0.501961" />
<polygon points="148,51 140,31 136,42" id="128" fill="rgb(33,43,49)" fill-opacity="0.501961" />
<polyline points="113,0 82,0 106,0 114,0" id="129" stroke="rgb(86,97,111)" stroke-width="1" fill="none" stroke-opacity="0.501961" />
<path d="M1 31 Q 29 36 21 34" id="130" stroke="rgb(56,63,77)" stroke-width="1" fill="none" stroke-opacity="0.501961" />
<polygon points="37,3 32,13 35,16" id="131" fill="rgb(119,166,183)" fill-opacity="0.501961" />
<polygon points="81,34 83,27 86,28 83,35" id="132" fill="rgb(122,118,121)" fill-opacity="0.501961"/>
<polygon points="20,53 19,46 22,45 23,52" id="133" fill="rgb(147,167,167)" fill-opacity="0.501961"/>
<polygon points="112,14 113,0 137,0" id="134" fill="rgb(94,156,173)" fill-opacity="0.501961" />
<polygon points="230,6 232,12 229,13 227,7" id="135" fill="rgb(20,139,143)" fill-opacity="0.501961"/>
<polygon points="85,5 83,10 81,9 83,4" id="136" fill="rgb(222,255,186)" fill-opacity="0.501961"/>
<polygon points="129,52 130,49 139,52 138,55" id="137" fill="rgb(184,188,101)" fill-opacity="0.501961"/>
<path d="M98 26 Q 100 5 99 44" id="138" stroke="rgb(122,138,149)" stroke-width="1" fill="none" stroke-opacity="0.501961" />
<polyline points="240,0 255,0 246,0 229,33" id="139" stroke="rgb(52,59,72)" stroke-width="1" fill="none" stroke-opacity="0.501961" />
<path d="M33 34 Q 84 49 69 33" id="140" stroke="rgb(97,94,82)" stroke-width="1" fill="none" stroke-opacity="0.501961" />
<polygon points="63,22 70,16 71,17 64,23" id="141" fill="rgb(255,154,19)" fill-opacity="0.501961"/>
<polygon points="66,3 36,0 37,-1 67,1" id="142" fill="rgb(75,89,85)" fill-opacity="0.501961"/>
<polygon points="68,23 72,25 70,30 66,29" id="143" fill="rgb(245,255,140)" fill-opacity="0.501961"/>
<polygon points="248,42 249,44 242,45 241,43" id="144" fill="rgb(11,22,61)" fill-opacity="0.501961"/>
<polygon points="11,51 13,36 15,37 13,52" id="145" fill="rgb(116,83,41)" fill-opacity="0.501961"/>
<polyline points="98,61 127,61 149,39 154,18" id="146" stroke="rgb(102,97,80)" stroke-width="1" fill="none" stroke-opacity="0.501961" />
<line x1="165" y1="15" x2="139" y2="0" id="147" stroke="rgb(101,87,83)" stroke-width="1" fill="none" stroke-opacity="0.501961" />
<polygon points="196,24 193,21 170,41" id="148" fill="rgb(87,86,101)" fill-opacity="0.501961" />
<polygon points="60,24 60,19 64,0" id="149" fill="rgb(59,151,196)" fill-opacity="0.501961" />
<polygon points="66,3 113,4 82,0" id="150" fill="rgb(135,154,117)" fill-opacity="0.501961" />
<polygon points="173,0 193,1 223,0" id="151" fill="rgb(19,95,72)" fill-opacity="0.501961" />
<polygon points="81,51 80,48 85,45 87,48" id="152" fill="rgb(106,229,255)" fill-opacity="0.501961"/>
<polygon points="146,26 147,32 144,33 143,27" id="153" fill="rgb(174,188,180)" fill-opacity="0.501961"/>
<line x1="143" y1="52" x2="141" y2="46" id="154" stroke="rgb(218,255,86)" stroke-width="1" fill="none" stroke-opacity="0.501961" />
<polygon points="134,30 122,29 123,22 135,23" id="155" fill="rgb(105,158,144)" fill-opacity="0.501961"/>
<polygon points="106,52 131,53 152,62" id="156" fill="rgb(94,79,69)" fill-opacity="0.501961" />
<line x1="242" y1="0" x2="242" y2="9" id="157" stroke="rgb(23,5,25)" stroke-width="1" fill="none" stroke-opacity="0.501961" />
<polyline points="125,44 123,30 141,30 117,34" id="158" stroke="rgb(87,83,78)" stroke-width="1" fill="none" stroke-opacity="0.501961" />
<path d="M89 13 Q 92 28 88 43" id="159" stroke="rgb(147,111,105)" stroke-width="1" fill="none" stroke-opacity="0.501961" />
<polygon points="245,4 248,5 245,22 242,21" id="160" fill="rgb(154,151,131)" fill-opacity="0.501961"/>
<polygon points="72,29 73,29 78,46 77,46" id="161" fill="rgb(90,84,93)" fill-opacity="0.501961"/>
<polygon points="110,22 103,37 99,35 106,20" id="162" fill="rgb(179,163,165)" fill-opacity="0.501961"/>
<path d="M53 23 Q 51 24 57 3" id="163" stroke="rgb(140,146,141)" stroke-width="1" fill="none" stroke-opacity="0.501961" />
<polygon points="14,50 17,49 20,61 17,62" id="164" fill="rgb(29,41,50)" fill-opacity="0.501961"/>
<line x1="108" y1="61" x2="94" y2="41" id="165" stroke="rgb(89,61,52)" stroke-width="1" fill="none" stroke-opacity="0.501961" />
<polygon points="91,53 93,57 91,58 89,55" id="166" fill="rgb(204,12,0)" fill-opacity="0.501961"/>
<polygon points="29,24 32,23 33,24 30,26" id="167" fill="rgb(194,142,127)" fill-opacity="0.501961"/>
<path d="M152 42 Q 141 26 151 40" id="168" stroke="rgb(49,90,89)" stroke-width="1" fill="none" stroke-opacity="0.501961" />
<polygon points="8,13 6,14 3,0 5,0" id="169" fill="rgb(29,82,120)" fill-opacity="0.501961"/>
<polyline points="220,1 224,13 225,0 255,28" id="170" stroke="rgb(141,124,104)" stroke-width="1" fill="none" stroke-opacity="0.501961" />
<polygon points="55,56 56,35 59,36 58,57" id="171" fill="rgb(30,48,41)" fill-opacity="0.501961"/>
<polygon points="74,8 63,4 78,17" id="172" fill="rgb(136,105,107)" fill-opacity="0.501961" />
<line x1="28" y1="61" x2="38" y2="35" id="173" stroke="rgb(154,119,77)" stroke-width="1" fill="none" stroke-opacity="0.501961" />
<line x1="237" y1="12" x2="236" y2="16" id="174" stroke="rgb(219,233,237)" stroke-width="1" fill="none" stroke-opacity="0.501961" />
<path d="M170 34 Q 230 38 213 18" id="175" stroke="rgb(141,119,103)" stroke-width="1" fill="none" stroke-opacity="0.501961" />
<line x1="85" y1="45" x2="96" y2="13" id="176" stroke="rgb(180,141,105)" stroke-width="1" fill="none" stroke-opacity="0.501961" />
<polygon points="175,52 161,62 161,59" id="177" fill="rgb(21,28,33)" fill-opacity="0.501961" />
<line x1="85" y1="14" x2="93" y2="44" id="178" stroke="rgb(218,232,218)" stroke-width="1" fill="none" stroke-opacity="0.501961" />
<polygon points="194,23 180,15 175,25" id="179" fill="rgb(187,131,131)" fill-opacity="0.501961" />
<polygon points="205,16 227,0 203,9" id="180" fill="rgb(164,175,99)" fill-opacity="0.501961" />
<polygon points="169,34 171,35 168,54 166,53" id="181" fill="rgb(153,142,143)" fill-opacity="0.501961"/>
<polygon points="79,31 63,38 62,36 78,29" id="182" fill="rgb(194,160,143)" fill-opacity="0.501961"/>
<polygon points="25,33 26,25 0,32" id="183" fill="rgb(94,98,110)" fill-opacity="0.501961" />
<polygon points="184,15 189,8 196,13 191,21" id="184" fill="rgb(132,196,177)" fill-opacity="0.501961"/>
<polygon points="92,2 130,4 129,15" id="185" fill="rgb(135,168,149)" fill-opacity="0.501961" />
<polygon points="72,19 73,23 69,24 68,20" id="186" fill="rgb(6,167,247)" fill-opacity="0.501961"/>
<polygon points="205,28 209,13 214,15 210,30" id="187" fill="rgb(95,62,66)" fill-opacity="0.501961"/>
<path d="M26 37 Q 22 61 17 43" id="188" stroke="rgb(107,120,122)" stroke-width="1" fill="none" stroke-opacity="0.501961" />
<path d="M246 11 Q 222 6 216 42" id="189" stroke="rgb(136,91,81)" stroke-width="1" fill="none" stroke-opacity="0.501961" />
<polygon points="101,27 102,12 104,13 103,28" id="190" fill="rgb(213,240,225)" fill-opacity="0.501961"/>
<polygon points="105,42 107,42 112,61 110,61" id="191" fill="rgb(139,135,130)" fill-opacity="0.501961"/>
<polygon points="39,12 28,25 23,17" id="192" fill="rgb(57,50,59)" fill-opacity="0.501961" />
<polygon points="118,47 120,35 132,37 129,49" id="193" fill="rgb(33,50,68)" fill-opacity="0.501961"/>
<polygon points="103,6 120,29 118,31 100,8" id="194" fill="rgb(184,217,183)" fill-opacity="0.501961"/>
<polygon points="218,52 224,57 223,59 217,54" id="195" fill="rgb(154,146,109)" fill-opacity="0.501961"/>
<polygon points="191,60 190,60 194,42 195,42" id="196" fill="rgb(105,116,113)" fill-opacity="0.501961"/>
<line x1="235" y1="37" x2="223" y2="20" id="197" stroke="rgb(55,64,68)" stroke-width="1" fill="none" stroke-opacity="0.501961" />
<path d="M92 34 Q 88 36 87 20" id="198" stroke="rgb(211,220,204)" stroke-width="1" fill="none" stroke-opacity="0.501961" />
<polygon points="165,36 147,43 145,39 163,31" id="199" fill="rgb(144,115,67)" fill-opacity="0.501961"/>
<polygon points="117,55 116,58 105,56 106,53" id="200" fill="rgb(179,172,155)" fill-opacity="0.501961"/>
<line x1="111" y1="30" x2="93" y2="32" id="201" stroke="rgb(99,95,96)" stroke-width="1" fill="none" stroke-opacity="0.501961" />
<polygon points="219,34 227,23 229,25 221,35" id="202" fill="rgb(146,64,61)" fill-opacity="0.501961"/>
<polygon points="87,54 85,55 84,51 86,50" id="203" fill="rgb(147,235,255)" fill-opacity="0.501961"/>
<polygon points="199,25 209,44 193,21" id="204" fill="rgb(152,150,133)" fill-opacity="0.501961" />
<polygon points="211,12 216,9 222,17 217,20" id="205" fill="rgb(236,212,107)" fill-opacity="0.501961"/>
<polygon points="234,41 211,23 213,20 236,39" id="206" fill="rgb(151,147,128)" fill-opacity="0.501961"/>
<polyline points="126,36 144,34 123,42 138,49" id="207" stroke="rgb(69,78,80)" stroke-width="1" fill="none" stroke-opacity="0.501961" />
<polygon points="102,8 109,5 111,11 104,14" id="208" fill="rgb(158,234,140)" fill-opacity="0.501961"/>
<polygon points="128,19 119,0 119,8" id="209" fill="rgb(111,154,204)" fill-opacity="0.501961" />
<line x1="169" y1="47" x2="167" y2="17" id="210" stroke="rgb(123,86,93)" stroke-width="1" fill="none" stroke-opacity="0.501961" />
<line x1="148" y1="0" x2="154" y2="21" id="211" stroke="rgb(60,60,72)" stroke-width="1" fill="none" stroke-opacity="0.501961" />
<polygon points="65,19 62,18 61,0" id="212" fill="rgb(173,121,92)" fill-opacity="0.501961" />
<polygon points="257,34 249,38 244,30 251,25" id="213" fill="rgb(91,75,60)" fill-opacity="0.501961"/>
<polygon points="14,37 0,26 0,31" id="214" fill="rgb(34,48,65)" fill-opacity="0.501961" />
<polygon points="120,55 119,49 128,48 129,54" id="215" fill="rgb(33,47,51)" fill-opacity="0.501961"/>
<polygon points="24,5 28,0 12,0" id="216" fill="rgb(60,69,46)" fill-opacity="0.501961" />
<polygon points="234,30 233,34 230,33 231,29" id="217" fill="rgb(51,42,55)" fill-opacity="0.501961"/>
<polygon points="126,8 139,0 145,9" id="218" fill="rgb(158,151,137)" fill-opacity="0.501961" />
<polygon points="11,19 6,15 -18,37" id="219" fill="rgb(107,65,23)" fill-opacity="0.501961" />
<polygon points="161,26 154,21 160,20" id="220" fill="rgb(138,197,192)" fill-opacity="0.501961" />
<line x1="67" y1="10" x2="74" y2="16" id="221" stroke="rgb(56,204,213)" stroke-width="1" fill="none" stroke-opacity="0.501961" />
<polygon points="18,38 27,37 28,38 18,39" id="222" fill="rgb(178,189,203)" fill-opacity="0.501961"/>
<polygon points="235,30 234,26 235,25 236,30" id="223" fill="rgb(229,231,199)" fill-opacity="0.501961"/>
<polygon points="224,43 232,40 233,41 224,44" id="224" fill="rgb(76,64,42)" fill-opacity="0.501961"/>
<polygon points="60,7 45,44 54,30" id="225" fill="rgb(132,101,94)" fill-opacity="0.501961" />
<polygon points="150,24 147,26 145,23 148,21" id="226" fill="rgb(11,165,146)" fill-opacity="0.501961"/>
<line x1="198" y1="12" x2="191" y2="2" id="227" stroke="rgb(48,0,32)" stroke-width="1" fill="none" stroke-opacity="0.501961" />
<polygon points="44,50 56,49 57,57 45,58" id="228" fill="rgb(35,39,31)" fill-opacity="0.501961"/>
<polygon points="154,24 149,25 147,17 151,16" id="229" fill="rgb(171,136,129)" fill-opacity="0.501961"/>
<path d="M63 1 Q 43 54 53 34" id="230" stroke="rgb(110,107,99)" stroke-width="1" fill="none" stroke-opacity="0.501961" />
<polygon points="196,25 187,34 187,33 195,25" id="231" fill="rgb(183,191,172)" fill-opacity="0.501961"/>
<line x1="48" y1="17" x2="49" y2="41" id="232" stroke="rgb(136,118,102)" stroke-width="1" fill="none" stroke-opacity="0.501961" />
<polygon points="35,22 33,18 38,15 40,19" id="233" fill="rgb(128,122,122)" fill-opacity="0.501961"/>
<path d="M143 2 Q 151 16 143 1" id="234" stroke="rgb(186,96,72)" stroke-width="1" fill="none" stroke-opacity="0.501961" />
<polygon points="150,43 152,49 145,52 143,46" id="235" fill="rgb(22,33,40)" fill-opacity="0.501961"/>
<polygon points="261,6 263,7 248,17 246,16" id="236" fill="rgb(44,51,59)" fill-opacity="0.501961"/>
<polygon points="250,4 255,3 256,8 251,9" id="237" fill="rgb(119,158,168)" fill-opacity="0.501961"/>
<polygon points="241,59 242,52 251,53 250,60" id="238" fill="rgb(100,88,11)" fill-opacity="0.501961"/>
<polygon points="205,58 204,58 205,45 206,46" id="239" fill="rgb(161,154,129)" fill-opacity="0.501961"/>
<line x1="27" y1="9" x2="30" y2="13" id="240" stroke="rgb(116,204,250)" stroke-width="1" fill="none" stroke-opacity="0.501961" />
<line x1="195" y1="33" x2="191" y2="49" id="241" stroke="rgb(135,94,81)" stroke-width="1" fill="none" stroke-opacity="0.501961" />
<polygon points="230,43 231,50 228,51 227,44" id="242" fill="rgb(177,166,152)" fill-opacity="0.501961"/>
<polygon points="234,53 232,55 228,51 230,49" id="243" fill="rgb(39,40,28)" fill-opacity="0.501961"/>
<polygon points="204,51 197,57 194,54 201,48" id="244" fill="rgb(50,27,37)" fill-opacity="0.501961"/>
<polygon points="94,32 95,50 97,38" id="245" fill="rgb(210,99,79)" fill-opacity="0.501961" />
<polygon points="165,48 159,49 158,31 164,30" id="246" fill="rgb(149,104,50)" fill-opacity="0.501961"/>
<line x1="246" y1="0" x2="240" y2="14" id="247" stroke="rgb(42,28,45)" stroke-width="1" fill="none" stroke-opacity="0.501961" />
<polygon points="84,27 88,13 89,13 85,28" id="248" fill="rgb(139,107,121)" fill-opacity="0.501961"/>
<polygon points="175,33 174,29 178,30" id="249" fill="rgb(185,174,179)" fill-opacity="0.501961" />
<line x1="200" y1="57" x2="155" y2="55" id="250" stroke="rgb(87,81,63)" stroke-width="1" fill="none" stroke-opacity="0.501961" />
<polygon points="45,65 32,56 34,53 47,63" id="251" fill="rgb(25,22,13)" fill-opacity="0.501961"/>
<polygon points="214,33 213,31 216,30 217,31" id="252" fill="rgb(236,178,158)" fill-opacity="0.501961"/>
<polygon points="221,26 224,21 225,22 222,27" id="253" fill="rgb(32,151,149)" fill-opacity="0.501961"/>
<polygon points="28,37 20,28 21,26 29,35" id="254" fill="rgb(132,141,154)" fill-opacity="0.501961"/>
<line x1="25" y1="31" x2="7" y2="28" id="255" stroke="rgb(35,41,61)" stroke-width="1" fill="none" stroke-opacity="0.501961" />
<polygon points="160,-4 177,5 171,15 154,4" id="256" fill="rgb(121,172,127)" fill-opacity="0.501961"/>
<polygon points="105,58 131,61 72,62" id="257" fill="rgb(119,104,77)" fill-opacity="0.501961" />
<polygon points="132,56 134,42 133,36" id="258" fill="rgb(175,166,70)" fill-opacity="0.501961" />
<polygon points="156,51 154,51 149,28 151,28" id="259" fill="rgb(66,66,68)" fill-opacity="0.501961"/>
<path d="M236 38 Q 249 9 226 28" id="260" stroke="rgb(104,94,97)" stroke-width="1" fill="none" stroke-opacity="0.501961" />
<line x1="241" y1="32" x2="235" y2="54" id="261" stroke="rgb(166,159,154)" stroke-width="1" fill="none" stroke-opacity="0.501961" />
<polygon points="221,62 198,24 210,40" id="262" fill="rgb(83,92,89)" fill-opacity="0.501961" />
<polygon points="125,30 120,33 119,32 124,29" id="263" fill="rgb(52,56,56)" fill-opacity="0.501961"/>
<line x1="240" y1="5" x2="239" y2="20" id="264" stroke="rgb(139,122,111)" stroke-width="1" fill="none" stroke-opacity="0.501961" />
<polygon points="132,13 144,8 146,12 134,17" id="265" fill="rgb(210,198,184)" fill-opacity="0.501961"/>
<polygon points="0,0 2,0 0,22" id="266" fill="rgb(6,16,24)" fill-opacity="0.501961" />
<polygon points="181,57 185,38 189,39 185,58" id="267" fill="rgb(74,79,81)" fill-opacity="0.501961"/>
<line x1="33" y1="15" x2="37" y2="61" id="268" stroke="rgb(73,63,53)" stroke-width="1" fill="none" stroke-opacity="0.501961" />
<polygon points="94,35 95,30 119,33 118,38" id="269" fill="rgb(156,146,131)" fill-opacity="0.501961"/>
<polyline points="162,61 148,46 135,23 132,42" id="270" stroke="rgb(86,86,80)" stroke-width="1" fill="none" stroke-opacity="0.501961" />
<line x1="80" y1="44" x2="87" y2="43" id="271" stroke="rgb(41,78,92)" stroke-width="1" fill="none" stroke-opacity="0.501961" />
<polygon points="96,60 95,59 104,38 105,38" id="272" fill="rgb(73,79,65)" fill-opacity="0.501961"/>
<line x1="125" y1="35" x2="122" y2="61" id="273" stroke="rgb(106,94,68)" stroke-width="1" fill="none" stroke-opacity="0.501961" />
<line x1="80" y1="13" x2="56" y2="6" id="274" stroke="rgb(71,133,174)" stroke-width="1" fill="none" stroke-opacity="0.501961" />
<polygon points="42,41 43,36 51,37 50,42" id="275" fill="rgb(130,127,76)" fill-opacity="0.501961"/>
<line x1="175" y1="16" x2="165" y2="38" id="276" stroke="rgb(105,62,74)" stroke-width="1" fill="none" stroke-opacity="0.501961" />
<polygon points="150,28 154,25 154,25 151,29" id="277" fill="rgb(26,46,71)" fill-opacity="0.501961"/>
<polyline points="201,61 255,59 184,61 255,60" id="278" stroke="rgb(78,57,27)" stroke-width="1" fill="none" stroke-opacity="0.501961" />
<polygon points="69,26 71,29 68,32 66,30" id="279" fill="rgb(233,251,181)" fill-opacity="0.501961"/>
<line x1="255" y1="12" x2="247" y2="48" id="280" stroke="rgb(91,81,75)" stroke-width="1" fill="none" stroke-opacity="0.501961" />
<polygon points="149,7 156,-13 141,0" id="281" fill="rgb(78,147,129)" fill-opacity="0.501961" />
<polygon points="79,54 81,44 86,56" id="282" fill="rgb(90,191,223)" fill-opacity="0.501961" />
<polyline points="61,61 78,61 44,60 67,60" id="283" stroke="rgb(71,50,44)" stroke-width="1" fill="none" stroke-opacity="0.501961" />
<polygon points="78,23 77,24 68,13 69,12" id="284" fill="rgb(188,218,167)" fill-opacity="0.501961"/>
<polygon points="264,23 264,24 237,34 236,33" id="285" fill="rgb(102,85,70)" fill-opacity="0.501961"/>
<polygon points="233,6 235,0 218,7" id="286" fill="rgb(141,157,154)" fill-opacity="0.501961" />
<line x1="237" y1="47" x2="195" y2="46" id="287" stroke="rgb(107,93,89)" stroke-width="1" fill="none" stroke-opacity="0.501961" />
<path d="M157 15 Q 156 27 156 18" id="288" stroke="rgb(228,255,230)" stroke-width="1" fill="none" stroke-opacity="0.501961" />
<path d="M48 23 Q 69 16 52 23" id="289" stroke="rgb(133,125,119)" stroke-width="1" fill="none" stroke-opacity="0.501961" />
<polygon points="61,29 58,31 60,49" id="290" fill="rgb(71,74,81)" fill-opacity="0.501961" />
<path d="M28 36 Q 82 19 52 37" id="291" stroke="rgb(78,65,70)" stroke-width="1" fill="none" stroke-opacity="0.501961" />
<polygon points="206,58 166,61 198,56" id="292" fill="rgb(111,106,77)" fill-opacity="0.501961" />
<polygon points="165,29 170,26 173,29" id="293" fill="rgb(58,40,63)" fill-opacity="0.501961" />
<path d="M189 31 Q 213 13 177 22" id="294" stroke="rgb(204,185,160)" stroke-width="1" fill="none" stroke-opacity="0.501961" />
<path d="M118 16 Q 55 28 80 22" id="295" stroke="rgb(213,186,153)" stroke-width="1" fill="none" stroke-opacity="0.501961" />
<line x1="171" y1="46" x2="173" y2="32" id="296" stroke="rgb(162,146,144)" stroke-width="1" fill="none" stroke-opacity="0.501961" />
<polygon points="202,31 201,33 193,29 195,26" id="297" fill="rgb(189,190,178)" fill-opacity="0.501961"/>
<polygon points="231,15 234,13 242,24 240,26" id="298" fill="rgb(79,100,109)" fill-opacity="0.501961"/>
<polygon points="14,7 18,11 10,19 6,15" id="299" fill="rgb(42,72,68)" fill-opacity="0.501961"/>
<polygon points="211,6 210,8 196,7 197,5" id="300" fill="rgb(57,142,99)" fill-opacity="0.501961"/>
<polygon points="19,45 15,42 20,35 24,38" id="301" fill="rgb(156,159,155)" fill-opacity="0.501961"/>
<line x1="240" y1="19" x2="237" y2="8" id="302" stroke="rgb(87,36,39)" stroke-width="1" fill="none" stroke-opacity="0.501961" />
<line x1="147" y1="16" x2="158" y2="16" id="303" stroke="rgb(161,210,215)" stroke-width="1" fill="none" stroke-opacity="0.501961" />
<polygon points="20,8 22,8 22,16 20,16" id="304" fill="rgb(64,136,187)" fill-opacity="0.501961"/>
<polygon points="46,21 47,18 52,20 51,22" id="305" fill="rgb(77,73,82)" fill-opacity="0.501961"/>
<polygon points="134,39 136,40 134,51 132,50" id="306" fill="rgb(182,171,54)" fill-opacity="0.501961"/>
<line x1="109" y1="42" x2="106" y2="30" id="307" stroke="rgb(103,68,79)" stroke-width="1" fill="none" stroke-opacity="0.501961" />
<polygon points="254,24 256,31 256,26" id="308" fill="rgb(229,182,96)" fill-opacity="0.501961" />
<polyline points="161,0 161,23 154,21 155,21" id="309" stroke="rgb(100,107,96)" stroke-width="1" fill="none" stroke-opacity="0.501961" />
<polygon points="94,12 97,22 94,24 90,13" id="310" fill="rgb(221,206,127)" fill-opacity="0.501961"/>
<polygon points="121,3 113,0 113,15" id="311" fill="rgb(96,156,137)" fill-opacity="0.501961" />
<polygon points="105,16 122,22 119,31 102,26" id="312" fill="rgb(187,189,191)" fill-opacity="0.501961"/>
<polygon points="234,0 256,3 210,-31" id="313" fill="rgb(65,107,123)" fill-opacity="0.501961" />
<polygon points="93,54 89,55 88,48 91,47" id="314" fill="rgb(205,49,20)" fill-opacity="0.501961"/>
<polygon points="18,15 17,23 7,22 8,14" id="315" fill="rgb(110,83,53)" fill-opacity="0.501961"/>
<line x1="229" y1="57" x2="226" y2="45" id="316" stroke="rgb(151,148,133)" stroke-width="1" fill="none" stroke-opacity="0.501961" />
<polygon points="230,24 240,17 241,19 231,26" id="317" fill="rgb(167,122,89)" fill-opacity="0.501961"/>
<line x1="90" y1="13" x2="100" y2="2" id="318" stroke="rgb(143,111,117)" stroke-width="1" fill="none" stroke-opacity="0.501961" />
<polygon points="207,8 225,0 212,1" id="319" fill="rgb(88,149,69)" fill-opacity="0.501961" />
<polyline points="185,28 195,25 181,35 168,0" id="320" stroke="rgb(126,114,97)" stroke-width="1" fill="none" stroke-opacity="0.501961" />
<polygon points="238,13 227,14 226,13 238,12" id="321" fill="rgb(185,184,151)" fill-opacity="0.501961"/>
<polygon points="91,14 92,27 91,27 90,14" id="322" fill="rgb(140,115,142)" fill-opacity="0.501961"/>
<polygon points="170,21 163,22 162,16 169,15" id="323" fill="rgb(153,195,180)" fill-opacity="0.501961"/>
<line x1="162" y1="8" x2="170" y2="26" id="324" stroke="rgb(109,87,95)" stroke-width="1" fill="none" stroke-opacity="0.501961" />
<polyline points="221,0 238,0 227,17 223,12" id="325" stroke="rgb(95,102,108)" stroke-width="1" fill="none" stroke-opacity="0.501961" />
<line x1="195" y1="45" x2="192" y2="38" id="326" stroke="rgb(105,53,30)" stroke-width="1" fill="none" stroke-opacity="0.501961" />
<line x1="80" y1="30" x2="77" y2="0" id="327" stroke="rgb(166,167,152)" stroke-width="1" fill="none" stroke-opacity="0.501961" />
<line x1="140" y1="46" x2="120" y2="39" id="328" stroke="rgb(55,57,68)" stroke-width="1" fill="none" stroke-opacity="0.501961" />
<polygon points="75,12 71,15 70,14 75,12" id="329" fill="rgb(43,140,169)" fill-opacity="0.501961"/>
<line x1="163" y1="11" x2="170" y2="15" id="330" stroke="rgb(144,251,203)" stroke-width="1" fill="none" stroke-opacity="0.501961" />
<polygon points="160,1 176,5 174,11 158,6" id="331" fill="rgb(122,188,138)" fill-opacity="0.501961"/>
<path d="M71 50 Q 70 23 58 41" id="332" stroke="rgb(71,58,60)" stroke-width="1" fill="none" stroke-opacity="0.501961" />
<polygon points="194,40 202,45 208,42" id="333" fill="rgb(150,173,181)" fill-opacity="0.501961" />
<polygon points="57,4 50,0 30,7" id="334" fill="rgb(140,143,109)" fill-opacity="0.501961" />
<line x1="173" y1="38" x2="162" y2="20" id="335" stroke="rgb(91,71,77)" stroke-width="1" fill="none" stroke-opacity="0.501961" />
<line x1="80" y1="0" x2="81" y2="25" id="336" stroke="rgb(104,68,94)" stroke-width="1" fill="none" stroke-opacity="0.501961" />
<polygon points="91,12 96,11 97,13 92,14" id="337" fill="rgb(113,140,174)" fill-opacity="0.501961"/>
<polygon points="71,11 68,0 69,14" id="338" fill="rgb(183,190,119)" fill-opacity="0.501961" />
<polygon points="187,16 178,29 174,27 183,14" id="339" fill="rgb(152,112,102)" fill-opacity="0.501961"/>
<line x1="41" y1="35" x2="30" y2="36" id="340" stroke="rgb(18,43,65)" stroke-width="1" fill="none" stroke-opacity="0.501961" />
<path d="M52 28 Q 49 55 60 33" id="341" stroke="rgb(86,76,72)" stroke-width="1" fill="none" stroke-opacity="0.501961" />
<path d="M47 50 Q 58 40 25 41" id="342" stroke="rgb(105,98,92)" stroke-width="1" fill="none" stroke-opacity="0.501961" />
<line x1="59" y1="60" x2="72" y2="29" id="343" stroke="rgb(103,89,78)" stroke-width="1" fill="none" stroke-opacity="0.501961" />
<polygon points="81,22 83,23 82,30 80,29" id="344" fill="rgb(205,214,215)" fill-opacity="0.501961"/>
<polygon points="92,50 107,55 107,57 92,52" id="345" fill="rgb(184,132,88)" fill-opacity="0.501961"/>
<polygon points="31,61 27,62 26,48 30,47" id="346" fill="rgb(61,46,28)" fill-opacity="0.501961"/>
<polygon points="165,0 172,14 169,4" id="347" fill="rgb(145,124,93)" fill-opacity="0.501961" />
<line x1="146" y1="33" x2="171" y2="32" id="348" stroke="rgb(172,139,120)" stroke-width="1" fill="none" stroke-opacity="0.501961" />
<polygon points="124,3 115,0 136,0" id="349" fill="rgb(54,149,187)" fill-opacity="0.501961" />
<line x1="228" y1="35" x2="228" y2="30" id="350" stroke="rgb(197,215,206)" stroke-width="1" fill="none" stroke-opacity="0.501961" />
<line x1="74" y1="61" x2="76" y2="43" id="351" stroke="rgb(56,54,52)" stroke-width="1" fill="none" stroke-opacity="0.501961" />
<path d="M94 57 Q 94 46 93 45" id="352" stroke="rgb(197,54,39)" stroke-width="1" fill="none" stroke-opacity="0.501961" />
</svg>