<svg id="svg" version="1.1" width="2200" height="1355" xmlns="http://www.w3.org/2000/svg"><path d="M825.942 183.472 C 821.307 185.992,821.029 188.173,823.118 205.572 C 824.170 214.332,827.065 238.375,829.552 259.000 C 832.038 279.625,834.733 302.125,835.541 309.000 C 836.349 315.875,837.236 323.173,837.512 325.218 C 840.914 350.444,852.000 445.611,852.000 449.586 L 852.000 454.856 846.250 455.451 C 816.085 458.573,791.018 463.370,772.371 469.589 C 729.827 483.780,693.651 511.584,678.664 541.611 C 665.136 568.715,667.640 587.861,687.450 608.797 C 702.235 624.423,737.321 645.852,799.694 677.349 C 810.174 682.642,827.013 692.180,836.771 698.351 L 841.042 701.052 840.771 720.728 L 840.500 740.405 820.000 740.532 C 790.456 740.714,791.271 740.638,788.455 743.455 C 786.040 745.869,786.000 746.186,786.000 763.020 C 786.000 772.844,786.439 780.951,787.030 782.055 C 789.332 786.357,792.771 787.000,813.456 787.000 L 833.011 787.000 832.756 870.250 L 832.500 953.500 827.500 954.101 C 824.750 954.432,819.699 955.016,816.275 955.398 L 810.050 956.094 804.275 947.102 C 791.618 927.397,785.799 918.361,768.142 891.000 C 758.026 875.325,736.006 841.125,719.208 815.000 C 702.409 788.875,685.389 762.466,681.386 756.314 C 669.636 738.258,670.241 738.233,642.500 757.898 L 629.501 767.114 625.500 762.741 C 623.300 760.336,618.792 755.361,615.482 751.684 C 610.177 745.793,609.036 745.000,605.866 745.000 C 601.349 745.000,606.517 741.062,555.524 783.358 L 535.548 799.926 529.315 793.097 C 525.887 789.341,517.612 781.600,510.926 775.896 C 504.240 770.191,498.371 764.476,497.885 763.197 C 496.343 759.142,496.912 746.174,498.983 738.167 C 501.411 728.776,503.665 723.344,512.333 706.000 C 520.905 688.845,522.871 680.431,521.064 668.625 C 518.888 654.409,512.901 643.432,502.173 633.989 L 496.332 628.848 497.587 624.174 C 498.502 620.761,500.476 617.775,504.901 613.110 C 516.124 601.276,517.548 591.270,510.679 572.500 C 507.225 563.060,507.020 561.824,507.010 550.424 C 507.001 539.026,507.132 538.224,509.356 536.135 C 513.064 532.652,517.066 523.762,517.702 517.596 C 518.270 512.096,518.436 511.840,524.547 507.037 C 535.155 498.701,538.602 492.274,537.780 482.366 C 537.430 478.144,536.706 476.302,534.482 473.981 C 531.322 470.683,523.922 467.561,516.698 466.477 C 514.101 466.088,511.812 465.484,511.613 465.135 C 511.414 464.786,511.888 458.650,512.667 451.500 C 513.447 444.337,514.150 427.051,514.233 413.000 C 514.370 389.900,514.131 385.837,511.693 369.836 C 505.515 329.285,501.903 316.146,492.639 300.520 C 482.173 282.869,466.385 271.466,449.000 269.000 C 438.894 267.567,432.216 268.921,416.888 275.510 C 383.608 289.818,362.160 296.499,335.000 301.019 C 297.840 307.203,285.640 311.551,273.668 322.875 C 266.719 329.448,262.000 339.950,258.334 357.000 C 256.867 363.824,256.526 369.641,256.608 386.500 C 256.716 408.921,257.347 413.997,267.466 473.893 L 270.912 494.285 267.396 498.393 C 265.462 500.652,262.462 505.378,260.730 508.897 C 257.817 514.814,257.550 516.228,257.166 527.773 C 256.784 539.249,256.588 540.295,254.741 540.778 C 249.690 542.099,234.756 550.276,227.500 555.693 C 218.096 562.714,207.327 573.879,201.980 582.153 C 190.619 599.730,185.682 629.853,190.887 649.837 C 197.910 676.798,213.582 689.071,253.183 698.620 C 261.607 700.651,268.819 702.584,269.209 702.915 C 269.598 703.246,268.636 708.013,267.070 713.509 C 265.504 719.004,261.205 734.300,257.517 747.500 C 246.857 785.651,244.688 793.388,233.966 831.500 C 228.396 851.300,222.564 872.225,221.006 878.000 C 219.449 883.775,214.296 902.225,209.556 919.000 C 204.816 935.775,198.006 960.075,194.424 973.000 C 190.842 985.925,185.235 1005.950,181.965 1017.500 C 178.695 1029.050,172.379 1051.550,167.928 1067.500 C 163.478 1083.450,158.845 1099.875,157.632 1104.000 L 155.427 1111.500 112.618 1112.000 L 69.809 1112.500 67.527 1115.362 C 63.348 1120.606,66.942 1125.199,75.851 1126.001 C 80.218 1126.394,81.412 1126.849,81.112 1128.005 C 79.970 1132.397,79.923 1140.237,81.018 1143.554 C 82.680 1148.592,89.301 1155.612,95.217 1158.610 C 97.855 1159.947,103.906 1161.965,108.663 1163.095 C 118.478 1165.426,132.624 1165.393,157.147 1162.983 C 176.850 1161.047,189.573 1162.429,206.887 1168.386 C 214.056 1170.853,221.931 1173.761,224.386 1174.847 C 226.842 1175.933,233.148 1177.815,238.400 1179.028 C 256.159 1183.132,274.084 1180.502,282.508 1172.557 C 285.632 1169.611,286.000 1168.713,286.000 1164.036 C 286.000 1160.885,285.316 1157.651,284.278 1155.893 C 282.183 1152.347,274.657 1146.987,262.000 1140.026 C 253.347 1135.268,245.000 1128.779,245.000 1126.810 C 245.000 1126.378,312.235 1126.017,394.411 1126.007 L 543.822 1125.987 544.381 1129.744 C 544.688 1131.810,545.872 1142.725,547.011 1154.000 C 548.150 1165.275,549.472 1178.312,549.949 1182.971 C 550.727 1190.572,551.108 1191.675,553.658 1193.716 L 556.500 1195.990 596.327 1195.995 L 636.154 1196.000 638.870 1193.250 C 641.539 1190.549,641.636 1189.994,644.366 1162.000 C 645.895 1146.325,647.396 1131.813,647.701 1129.750 L 648.256 1126.000 789.055 1126.000 L 929.855 1126.000 931.927 1123.365 C 934.589 1119.982,934.536 1118.735,931.589 1115.306 L 929.177 1112.500 905.540 1112.000 C 882.529 1111.513,881.990 1111.455,885.202 1109.803 C 887.016 1108.870,896.150 1104.334,905.500 1099.723 C 932.900 1086.210,960.981 1067.623,992.234 1042.313 L 1004.969 1032.000 1093.956 1032.000 L 1182.944 1032.000 1185.202 1037.250 C 1186.444 1040.138,1189.589 1045.313,1192.190 1048.750 L 1196.920 1055.000 1175.710 1055.015 C 1154.056 1055.030,1150.944 1055.500,1148.701 1059.095 C 1147.268 1061.392,1148.647 1065.723,1151.382 1067.515 C 1153.476 1068.887,1172.408 1069.053,1324.616 1069.038 C 1418.602 1069.029,1635.703 1069.017,1807.061 1069.011 L 2118.623 1069.000 2120.811 1066.961 C 2123.722 1064.250,2123.577 1060.891,2120.421 1057.924 C 2117.854 1055.510,2117.736 1055.499,2092.845 1055.201 L 2067.847 1054.901 2047.047 1012.701 C 2035.608 989.490,2016.689 951.150,2005.006 927.500 C 1993.322 903.850,1976.900 870.550,1968.511 853.500 C 1945.334 806.393,1922.039 759.183,1892.026 698.500 C 1877.065 668.250,1864.445 642.539,1863.980 641.364 C 1863.239 639.488,1864.252 638.395,1872.318 632.374 C 1899.655 611.966,1920.958 589.941,1926.577 576.277 C 1929.376 569.470,1929.605 565.070,1927.383 560.773 C 1925.861 557.830,1925.876 557.567,1927.633 556.337 C 1932.746 552.756,1943.278 542.642,1949.331 535.500 C 1958.110 525.142,1963.115 514.840,1963.776 505.766 L 1964.267 499.031 1960.361 495.125 C 1952.296 487.060,1938.496 486.881,1914.000 494.522 C 1886.309 503.161,1837.965 537.593,1807.930 570.071 C 1787.607 592.047,1784.573 596.573,1786.835 601.538 C 1788.072 604.252,1789.477 602.932,1766.239 620.871 C 1758.945 626.502,1750.465 633.446,1747.395 636.304 L 1741.814 641.500 1741.925 657.000 C 1742.070 677.117,1742.835 684.619,1745.229 689.387 C 1746.842 692.599,1764.577 743.520,1801.519 851.000 C 1807.913 869.604,1823.153 913.713,1825.346 919.961 C 1826.207 922.414,1826.726 924.608,1826.498 924.835 C 1826.271 925.062,1821.375 923.145,1815.617 920.576 C 1784.624 906.743,1755.633 901.060,1722.500 902.323 C 1693.175 903.441,1668.740 909.250,1642.749 921.281 C 1637.937 923.509,1633.793 925.126,1633.541 924.874 C 1632.809 924.142,1618.133 857.594,1618.554 856.913 C 1618.763 856.574,1624.237 856.036,1630.717 855.716 C 1642.571 855.132,1651.364 852.961,1660.059 848.473 C 1664.726 846.063,1676.453 834.609,1679.398 829.583 C 1682.312 824.611,1685.658 813.446,1686.466 806.000 C 1687.251 798.755,1684.811 785.149,1681.557 778.635 C 1677.444 770.399,1665.049 758.485,1648.088 746.463 C 1638.949 739.985,1634.000 733.693,1634.000 728.551 C 1634.000 726.869,1634.911 722.345,1636.023 718.497 C 1641.459 699.700,1635.663 680.333,1620.299 665.961 C 1614.875 660.887,1610.957 658.408,1600.517 653.446 C 1593.358 650.043,1585.878 646.684,1583.895 645.981 L 1580.289 644.703 1579.600 630.101 C 1578.083 598.002,1573.131 576.750,1562.844 558.201 C 1550.813 536.507,1540.243 523.229,1526.387 512.403 C 1523.629 510.249,1523.195 509.202,1522.591 503.236 C 1521.007 487.599,1515.967 475.853,1507.622 468.350 C 1495.308 457.279,1479.289 453.288,1451.100 454.268 C 1438.096 454.721,1433.586 455.314,1424.000 457.833 C 1388.931 467.049,1364.407 486.183,1352.472 513.637 C 1349.382 520.744,1348.479 521.865,1341.798 526.884 C 1331.196 534.849,1316.383 550.181,1309.570 560.242 C 1306.314 565.050,1303.548 568.875,1303.423 568.742 C 1303.298 568.609,1300.668 563.550,1297.578 557.500 C 1283.532 529.997,1260.790 506.197,1234.779 491.780 C 1230.533 489.426,1227.045 487.163,1227.029 486.750 C 1227.013 486.337,1255.096 486.000,1289.435 486.000 C 1326.545 486.000,1352.886 485.614,1354.374 485.048 C 1358.796 483.367,1359.335 480.827,1359.395 461.418 C 1359.457 440.801,1358.886 438.854,1352.252 437.068 C 1349.868 436.426,1318.258 436.053,1265.570 436.046 C 1211.595 436.039,1182.425 435.688,1182.024 435.040 C 1181.686 434.492,1180.370 426.046,1179.100 416.272 C 1177.829 406.497,1174.573 381.850,1171.862 361.500 C 1169.152 341.150,1166.513 321.125,1165.998 317.000 C 1164.931 308.448,1160.017 270.729,1153.688 222.500 C 1151.126 202.983,1148.781 188.587,1147.948 187.266 C 1144.471 181.753,1152.131 181.997,983.730 182.040 C 853.078 182.074,828.095 182.300,825.942 183.472 M1134.353 202.250 C 1135.027 207.884,1137.646 227.931,1146.468 295.000 C 1149.542 318.375,1152.923 344.250,1153.980 352.500 C 1156.993 376.016,1163.914 428.102,1164.577 432.250 L 1165.176 436.000 1016.557 436.000 C 898.520 436.000,867.863 435.743,867.578 434.750 C 867.380 434.063,866.230 424.950,865.022 414.500 C 863.814 404.050,861.519 384.700,859.923 371.500 C 858.327 358.300,856.341 341.875,855.510 335.000 C 847.057 265.072,840.859 214.168,840.048 208.000 C 839.506 203.875,839.048 199.713,839.031 198.750 C 839.002 197.091,846.672 197.000,986.362 197.000 L 1133.725 197.000 1134.353 202.250 M861.263 211.116 C 859.247 211.698,857.451 213.161,856.504 214.993 C 854.876 218.140,854.542 214.675,864.555 298.500 C 865.935 310.050,867.944 326.925,869.019 336.000 C 870.094 345.075,871.420 355.875,871.964 360.000 C 872.509 364.125,874.114 377.625,875.530 390.000 C 876.946 402.375,878.761 413.987,879.562 415.805 C 882.423 422.289,875.069 421.951,1013.019 421.943 C 1148.682 421.934,1143.613 422.137,1146.135 416.603 C 1147.359 413.917,1147.298 413.283,1142.438 378.000 C 1141.037 367.825,1139.261 354.550,1138.493 348.500 C 1137.724 342.450,1133.440 310.275,1128.971 277.000 C 1122.690 230.227,1120.467 216.072,1119.173 214.612 C 1114.961 209.859,1118.888 209.994,987.782 210.090 C 914.564 210.144,863.185 210.560,861.263 211.116 M1105.000 226.988 C 1105.000 227.531,1106.622 239.793,1108.604 254.238 C 1110.586 268.682,1112.412 282.300,1112.662 284.500 C 1113.434 291.297,1127.940 400.332,1128.460 403.250 L 1128.950 406.000 1012.020 406.000 L 895.091 406.000 894.541 402.750 C 894.239 400.962,891.508 378.575,888.474 353.000 C 885.439 327.425,881.858 297.500,880.516 286.500 C 879.175 275.500,877.143 258.400,876.002 248.500 C 874.861 238.600,873.711 229.488,873.445 228.250 L 872.962 226.000 988.981 226.000 C 1064.682 226.000,1105.000 226.343,1105.000 226.988 M401.298 341.422 C 445.265 346.158,469.208 346.696,482.000 343.235 C 486.125 342.119,489.613 341.311,489.752 341.438 C 490.144 341.800,493.705 362.213,495.693 375.500 C 498.315 393.018,498.019 430.577,495.045 457.830 C 493.825 469.011,493.010 478.344,493.235 478.568 C 493.460 478.793,499.376 479.647,506.383 480.467 C 513.389 481.287,519.544 482.218,520.061 482.538 C 522.105 483.801,520.860 488.149,517.336 492.050 C 512.244 497.686,510.849 498.270,507.035 496.367 C 494.220 489.975,467.704 489.511,451.492 495.395 C 438.624 500.066,431.842 505.477,410.000 528.496 C 397.488 541.683,389.169 543.337,372.221 536.011 C 365.473 533.094,359.495 526.485,354.412 516.323 C 350.544 508.587,350.501 508.378,350.599 497.500 C 350.703 485.857,352.607 475.040,356.496 463.983 C 358.883 457.198,364.036 446.516,377.932 419.544 C 391.024 394.131,392.669 387.478,390.455 368.899 C 389.198 358.356,386.580 349.343,383.025 343.317 L 381.067 340.000 384.582 340.000 C 386.514 340.000,394.037 340.640,401.298 341.422 M440.184 398.055 C 433.344 400.799,419.818 414.011,415.818 421.856 C 412.578 428.212,414.289 433.859,420.066 435.873 C 424.767 437.512,428.837 435.545,430.952 430.613 C 433.320 425.087,436.976 420.902,445.089 414.429 C 448.811 411.459,452.125 408.183,452.453 407.147 C 453.386 404.207,451.378 400.247,448.093 398.548 C 444.720 396.804,443.496 396.728,440.184 398.055 M460.500 441.208 C 457.211 443.094,456.065 445.270,456.032 449.694 C 455.985 455.818,459.141 459.128,465.559 459.687 C 469.707 460.049,470.981 459.722,473.500 457.654 C 476.130 455.493,476.500 454.551,476.500 450.008 C 476.500 445.571,476.097 444.480,473.694 442.413 C 470.596 439.748,464.083 439.153,460.500 441.208 M1343.000 461.000 L 1343.000 471.000 1111.000 471.000 C 983.400 471.000,879.000 470.820,879.000 470.599 C 879.000 470.378,883.767 469.633,889.594 468.942 L 900.187 467.687 899.594 464.718 C 899.267 463.086,899.000 459.781,899.000 457.375 L 899.000 453.000 883.441 453.000 C 873.323 453.000,868.098 452.650,868.500 452.000 C 868.909 451.338,949.177 451.000,1106.059 451.000 L 1343.000 451.000 1343.000 461.000 M1476.267 469.455 C 1486.771 471.327,1495.473 476.111,1499.683 482.325 C 1502.486 486.464,1506.689 497.644,1505.783 498.550 C 1505.599 498.735,1500.960 497.354,1495.474 495.481 C 1489.988 493.609,1481.450 491.357,1476.500 490.477 C 1465.803 488.575,1441.578 488.332,1430.258 490.012 C 1413.998 492.426,1394.508 497.977,1379.750 504.396 C 1374.336 506.751,1374.996 504.876,1382.250 497.296 C 1395.464 483.489,1415.370 473.395,1436.000 470.039 C 1440.125 469.369,1444.175 468.688,1445.000 468.526 C 1449.427 467.659,1469.545 468.256,1476.267 469.455 M836.000 473.789 C 828.677 479.430,819.070 489.349,813.676 496.841 C 795.634 521.899,791.208 545.806,801.041 565.081 C 803.675 570.243,812.134 578.741,819.523 583.647 C 824.648 587.049,839.661 592.959,843.250 592.987 C 845.396 593.003,845.404 593.609,843.384 603.000 C 842.132 608.823,841.664 618.603,841.291 646.750 C 841.027 666.688,840.492 683.000,840.102 683.000 C 839.711 683.000,837.391 681.734,834.946 680.186 C 828.113 675.862,818.984 670.965,787.500 654.734 C 771.550 646.511,755.350 637.964,751.500 635.739 C 738.936 628.479,714.641 612.748,708.261 607.742 C 695.331 597.594,687.633 586.353,686.427 575.856 C 684.649 560.385,696.576 537.049,715.309 519.347 C 723.117 511.970,740.899 499.606,753.000 493.140 C 764.915 486.775,791.006 478.512,810.000 475.089 C 832.014 471.122,830.955 471.285,835.500 471.183 L 839.500 471.094 836.000 473.789 M893.079 485.786 C 912.836 485.943,928.992 486.393,928.983 486.786 C 928.974 487.179,925.936 489.141,922.233 491.147 C 891.689 507.689,866.408 536.389,852.332 570.500 L 849.031 578.500 844.925 578.302 C 835.510 577.847,819.508 566.836,814.773 557.555 C 811.558 551.253,811.186 538.991,813.950 530.391 C 819.311 513.706,831.983 496.117,846.402 485.347 L 852.305 480.938 854.732 483.219 C 857.153 485.495,857.245 485.501,893.079 485.786 M1186.199 490.814 C 1217.183 497.861,1241.416 511.938,1262.390 535.071 C 1274.780 548.738,1283.649 563.660,1289.883 581.325 L 1292.997 590.151 1289.549 600.825 C 1287.652 606.696,1285.179 615.170,1284.053 619.657 C 1278.853 640.369,1275.324 672.968,1276.491 689.523 L 1277.127 698.546 1268.313 709.579 C 1249.839 732.708,1249.366 733.512,1251.447 738.254 C 1252.179 739.922,1246.846 739.996,1143.924 739.754 L 1035.631 739.500 1035.385 736.500 C 1035.250 734.850,1034.892 728.100,1034.590 721.500 C 1034.288 714.900,1033.748 707.813,1033.389 705.750 L 1032.738 702.000 1082.744 702.000 C 1110.247 702.000,1134.174 701.715,1135.914 701.367 C 1137.654 701.019,1138.912 700.236,1138.709 699.626 C 1138.506 699.017,1138.938 697.919,1139.670 697.188 C 1141.496 695.361,1141.338 693.640,1139.089 690.861 L 1137.178 688.500 1083.532 688.000 L 1029.886 687.500 1026.539 677.500 C 1024.699 672.000,1022.920 666.825,1022.585 666.000 C 1022.047 664.671,1035.042 664.529,1136.601 664.758 C 1215.474 664.936,1252.460 664.684,1255.188 663.949 C 1262.174 662.068,1262.214 661.770,1261.730 614.100 C 1261.332 574.876,1261.181 572.047,1259.086 564.578 C 1256.355 554.836,1254.169 550.418,1247.806 541.781 C 1239.942 531.105,1227.041 522.439,1213.000 518.398 C 1206.831 516.623,1200.104 516.512,1081.000 516.222 C 955.696 515.917,955.485 515.920,946.000 518.064 C 930.169 521.643,916.830 530.289,907.470 543.041 C 899.965 553.265,895.021 568.223,895.007 580.750 C 895.003 584.188,894.663 586.992,894.250 586.983 C 893.171 586.957,877.011 584.279,873.750 583.585 C 872.237 583.263,869.875 582.766,868.500 582.481 C 867.125 582.195,866.004 581.408,866.009 580.731 C 866.026 578.508,876.718 557.307,881.086 550.834 C 904.251 516.511,939.892 494.478,981.000 489.067 C 984.575 488.596,1030.025 488.300,1082.000 488.410 C 1175.482 488.606,1176.604 488.632,1186.199 490.814 M305.002 501.538 C 312.043 505.075,314.282 513.307,312.201 528.000 C 311.352 533.995,311.035 542.363,311.341 550.682 L 311.827 563.865 308.832 564.909 C 307.185 565.483,303.632 566.245,300.937 566.603 C 294.161 567.502,286.233 563.652,281.457 557.143 C 279.583 554.589,278.038 552.184,278.025 551.797 C 277.981 550.558,285.318 549.011,291.265 549.006 C 296.432 549.001,297.417 548.645,300.765 545.575 C 304.319 542.315,304.498 541.849,304.463 535.960 C 304.429 530.268,304.166 529.537,301.197 526.885 C 298.857 524.794,296.941 524.001,294.234 524.004 C 289.487 524.008,284.105 527.262,282.704 530.974 C 281.893 533.122,280.756 534.011,278.207 534.489 C 276.331 534.841,274.557 534.891,274.266 534.600 C 273.409 533.742,273.933 521.963,275.006 517.978 C 277.175 509.924,286.040 501.431,293.799 499.975 C 297.931 499.199,301.277 499.666,305.002 501.538 M1946.411 503.604 C 1951.509 505.561,1936.747 528.556,1923.149 539.841 C 1913.842 547.564,1910.880 548.987,1902.003 550.000 C 1882.604 552.212,1857.012 562.038,1825.000 579.565 L 1816.500 584.219 1820.500 579.973 C 1839.459 559.848,1859.613 543.060,1884.163 526.943 C 1899.603 516.807,1913.734 509.950,1926.000 506.642 C 1938.070 503.387,1943.672 502.553,1946.411 503.604 M1207.455 534.530 C 1210.686 535.372,1215.618 537.210,1218.415 538.614 C 1223.971 541.405,1232.000 547.583,1232.000 549.067 C 1232.000 549.640,1172.556 550.000,1077.797 550.000 L 923.594 550.000 927.437 546.065 C 929.550 543.901,933.864 540.752,937.024 539.068 C 948.526 532.937,942.936 533.174,1078.040 533.083 C 1185.897 533.011,1202.326 533.194,1207.455 534.530 M460.508 542.002 C 465.850 543.101,473.208 544.005,476.860 544.011 C 480.512 544.017,485.188 544.301,487.250 544.642 L 491.000 545.262 491.000 552.549 C 491.000 562.801,491.116 562.657,483.221 562.211 C 471.212 561.533,458.430 556.951,451.450 550.822 C 448.299 548.055,442.036 538.757,442.009 536.806 C 442.004 536.425,443.979 536.988,446.398 538.058 C 448.817 539.128,455.166 540.903,460.508 542.002 M262.000 556.055 C 262.000 557.878,269.747 568.609,273.100 571.431 C 279.352 576.691,289.969 581.253,297.176 581.775 C 303.501 582.233,303.808 582.370,303.006 584.379 C 302.540 585.546,299.198 593.675,295.580 602.444 C 291.961 611.214,289.003 618.864,289.006 619.444 C 289.010 620.025,289.598 621.625,290.315 623.000 C 291.479 625.235,290.703 628.792,283.007 656.500 C 275.474 683.620,274.139 687.538,272.345 687.800 C 269.363 688.237,249.625 683.515,239.344 679.905 C 219.565 672.962,211.862 665.405,206.848 648.026 C 202.533 633.073,205.584 609.261,213.834 593.500 C 217.837 585.853,228.111 574.345,237.141 567.393 C 248.075 558.976,262.000 552.625,262.000 556.055 M1242.118 567.220 C 1242.766 568.432,1243.516 572.479,1243.783 576.212 L 1244.269 583.000 1077.990 583.000 L 911.711 583.000 912.297 576.717 C 912.620 573.262,913.349 569.211,913.918 567.716 L 914.952 564.997 1077.945 565.006 L 1240.938 565.015 1242.118 567.220 M1911.698 568.472 C 1910.861 573.633,1905.976 580.106,1892.557 593.839 C 1881.236 605.426,1865.874 618.208,1849.897 629.337 C 1837.158 638.209,1790.097 662.201,1772.000 669.049 C 1765.125 671.651,1759.450 673.716,1759.389 673.640 C 1759.328 673.563,1759.001 667.650,1758.663 660.500 L 1758.049 647.500 1767.275 639.894 C 1802.176 611.120,1836.106 589.382,1864.500 577.605 C 1886.768 568.369,1897.425 565.180,1906.381 565.071 L 1912.262 565.000 1911.698 568.472 M878.960 600.455 C 886.913 601.855,893.775 603.000,894.210 603.000 C 894.644 603.000,895.000 615.739,895.000 631.309 C 895.000 653.704,895.286 660.009,896.370 661.492 C 898.513 664.422,905.539 664.824,956.233 664.916 L 1002.966 665.000 1005.615 670.228 C 1012.538 683.889,1016.831 703.270,1017.691 724.750 L 1018.301 740.000 966.390 740.000 L 914.478 740.000 905.989 731.397 C 895.765 721.035,881.200 709.141,867.846 700.250 L 858.000 693.695 858.020 655.097 C 858.037 620.760,858.566 609.382,860.592 599.711 C 861.012 597.706,861.644 597.060,862.838 597.415 C 863.752 597.687,871.007 599.055,878.960 600.455 M1244.083 598.412 C 1244.313 598.639,1244.356 602.914,1244.179 607.912 L 1243.858 617.000 1114.067 617.000 L 984.275 617.000 980.388 613.906 C 975.612 610.104,967.314 605.274,960.000 602.038 C 956.975 600.699,954.072 599.243,953.550 598.802 C 953.028 598.361,1018.090 598.000,1098.133 598.000 C 1178.177 598.000,1243.854 598.185,1244.083 598.412 M317.957 600.977 C 318.962 601.515,321.168 604.409,322.861 607.408 C 327.524 615.669,339.015 622.828,349.078 623.741 C 353.873 624.176,355.017 624.663,356.131 626.744 C 358.298 630.793,366.713 637.733,373.518 641.084 C 379.343 643.951,380.553 644.183,388.183 643.891 C 394.626 643.644,397.232 643.965,399.750 645.312 C 401.538 646.269,403.000 647.428,403.000 647.888 C 403.000 648.348,401.609 650.474,399.908 652.612 C 398.208 654.751,394.321 660.550,391.271 665.500 C 388.221 670.450,384.165 676.868,382.258 679.762 L 378.790 685.023 375.145 681.867 C 373.140 680.131,364.525 672.107,356.000 664.036 C 347.475 655.965,337.125 646.245,333.000 642.436 C 328.875 638.627,321.395 631.544,316.379 626.697 L 307.257 617.884 310.847 608.942 C 312.821 604.024,314.817 600.000,315.284 600.000 C 315.750 600.000,316.953 600.440,317.957 600.977 M925.500 607.509 C 934.195 609.029,950.924 614.013,954.000 616.000 C 954.993 616.642,948.155 616.975,933.750 616.985 L 912.000 617.000 912.000 610.981 C 912.000 605.261,912.112 604.986,914.250 605.449 C 915.487 605.717,920.550 606.644,925.500 607.509 M1304.260 631.252 C 1311.491 645.003,1325.920 658.659,1343.634 668.518 C 1348.592 671.278,1348.790 671.556,1349.383 676.603 C 1349.721 679.478,1350.217 682.431,1350.485 683.165 C 1350.783 683.982,1348.997 685.664,1345.883 687.500 C 1339.226 691.424,1329.566 701.801,1326.220 708.624 C 1324.244 712.653,1323.168 713.872,1322.031 713.370 C 1319.371 712.197,1314.110 711.757,1310.607 712.414 C 1305.740 713.327,1298.749 719.962,1291.860 730.208 C 1288.567 735.105,1285.251 739.350,1284.490 739.642 C 1283.728 739.935,1280.395 738.729,1277.083 736.963 C 1271.831 734.164,1271.216 733.539,1272.280 732.080 C 1272.951 731.159,1278.213 724.384,1283.973 717.023 L 1294.446 703.640 1294.147 686.558 C 1293.982 677.162,1294.345 664.756,1294.954 658.988 C 1296.264 646.568,1299.946 625.999,1300.858 626.002 C 1301.211 626.004,1302.742 628.366,1304.260 631.252 M983.688 638.143 C 986.695 641.089,990.051 644.737,991.146 646.250 L 993.136 649.000 952.568 649.000 L 912.000 649.000 912.000 641.057 L 912.000 633.115 916.250 632.807 C 918.587 632.638,933.487 632.564,949.360 632.643 L 978.221 632.786 983.688 638.143 M1244.375 634.328 C 1244.306 635.248,1244.194 638.925,1244.125 642.500 L 1244.000 649.000 1128.216 649.000 L 1012.431 649.000 1010.577 645.750 C 1009.558 643.962,1007.006 640.418,1004.906 637.873 C 1002.806 635.328,1001.256 633.078,1001.461 632.873 C 1001.666 632.668,1056.433 632.535,1123.167 632.578 C 1235.922 632.650,1244.491 632.774,1244.375 634.328 M345.873 676.973 C 362.578 692.663,377.397 705.820,378.803 706.212 C 382.325 707.192,387.161 704.706,389.457 700.734 C 390.486 698.955,394.197 693.000,397.705 687.500 C 401.213 682.000,406.080 674.350,408.520 670.500 C 412.145 664.781,412.971 663.958,413.035 666.000 C 413.078 667.375,414.115 680.538,415.340 695.250 C 416.565 709.962,417.518 722.000,417.459 722.000 C 417.399 722.000,412.884 720.453,407.425 718.562 C 395.114 714.297,375.989 708.914,361.500 705.635 C 348.642 702.725,309.501 694.636,299.792 692.882 C 296.102 692.215,292.635 691.393,292.088 691.054 C 291.478 690.677,293.852 680.465,298.206 664.733 L 305.321 639.027 310.411 643.736 C 313.210 646.327,329.168 661.283,345.873 676.973 M497.619 651.541 C 503.152 659.371,505.319 665.780,505.357 674.423 C 505.396 683.188,504.448 686.101,496.062 703.000 C 492.378 710.425,488.384 718.975,487.187 722.000 C 483.957 730.162,481.000 742.664,481.000 748.160 C 481.000 750.822,480.771 753.000,480.491 753.000 C 480.212 753.000,475.599 750.452,470.241 747.337 C 464.884 744.222,454.950 739.084,448.166 735.919 C 441.382 732.755,435.666 729.999,435.462 729.795 C 435.259 729.592,433.908 715.492,432.460 698.463 C 428.648 653.604,428.277 648.582,428.719 647.750 C 428.939 647.337,430.921 647.000,433.124 647.000 C 435.327 647.000,439.291 646.070,441.933 644.934 C 446.608 642.922,446.892 642.913,452.618 644.590 C 456.187 645.636,462.039 646.329,467.500 646.353 C 475.117 646.386,477.345 645.998,482.000 643.826 L 487.500 641.261 490.500 643.485 C 492.150 644.709,495.354 648.334,497.619 651.541 M1867.512 685.250 C 1877.340 705.188,1896.823 744.675,1910.807 773.000 C 1957.346 867.270,2000.045 953.836,2028.380 1011.368 C 2039.721 1034.396,2049.000 1053.641,2049.000 1054.137 C 2049.000 1054.652,2039.114 1054.922,2025.866 1054.768 L 2002.732 1054.500 1978.031 999.000 C 1964.446 968.475,1944.418 923.475,1933.526 899.000 C 1922.633 874.525,1912.702 852.250,1911.455 849.500 C 1910.209 846.750,1902.800 830.100,1894.990 812.500 C 1887.181 794.900,1879.983 778.700,1878.996 776.500 C 1876.951 771.944,1870.191 756.711,1867.235 750.000 C 1866.145 747.525,1856.853 726.653,1846.587 703.618 C 1836.321 680.584,1828.057 661.329,1828.224 660.829 C 1828.496 660.012,1847.698 649.158,1849.070 649.047 C 1849.384 649.021,1857.683 665.313,1867.512 685.250 M1813.955 671.750 C 1814.658 673.263,1820.527 686.425,1826.999 701.000 C 1833.470 715.575,1840.393 731.020,1842.383 735.323 C 1844.372 739.626,1846.000 743.319,1846.000 743.530 C 1846.000 743.741,1848.207 748.771,1850.905 754.707 C 1856.209 766.375,1874.403 807.231,1890.003 842.500 C 1895.355 854.600,1913.562 895.550,1930.463 933.500 C 1947.365 971.450,1961.993 1004.300,1962.970 1006.500 C 1963.947 1008.700,1969.079 1020.178,1974.373 1032.007 C 1979.668 1043.836,1984.000 1053.830,1984.000 1054.216 C 1984.000 1054.602,1930.675 1054.921,1865.500 1054.925 L 1747.000 1054.932 1746.787 1049.716 C 1746.154 1034.210,1747.879 1018.488,1752.025 1001.969 C 1755.446 988.339,1756.539 985.576,1763.251 973.591 C 1770.313 960.983,1777.359 951.859,1787.683 941.958 C 1800.565 929.604,1800.256 929.698,1810.802 934.878 C 1815.586 937.227,1822.745 940.986,1826.712 943.231 L 1833.924 947.313 1836.840 955.407 C 1838.444 959.858,1843.472 974.525,1848.013 988.000 C 1853.110 1003.125,1857.025 1013.170,1858.245 1014.250 C 1860.831 1016.540,1867.138 1016.518,1869.989 1014.210 C 1872.913 1011.842,1872.819 1007.446,1869.651 998.500 C 1868.287 994.650,1862.453 977.775,1856.685 961.000 C 1846.273 930.717,1834.569 896.769,1816.347 844.000 C 1811.124 828.875,1801.980 802.325,1796.026 785.000 C 1775.556 725.434,1764.188 692.497,1763.579 690.989 C 1763.113 689.834,1765.033 688.677,1771.735 686.075 C 1786.257 680.436,1799.180 674.944,1805.000 671.938 C 1811.875 668.386,1812.389 668.375,1813.955 671.750 M938.768 674.327 C 933.725 675.912,926.442 682.213,923.906 687.185 C 919.670 695.487,920.441 707.598,925.691 715.242 C 931.427 723.594,943.395 728.249,953.314 725.986 C 967.903 722.658,977.386 708.113,974.046 694.190 C 970.190 678.120,954.609 669.347,938.768 674.327 M1202.230 673.921 C 1194.214 675.967,1186.334 684.370,1184.157 693.193 C 1182.633 699.375,1182.695 701.609,1184.567 707.913 C 1186.480 714.356,1192.318 721.007,1198.823 724.156 C 1208.442 728.813,1221.536 726.398,1229.422 718.512 C 1241.522 706.411,1238.471 685.221,1223.352 676.360 C 1218.449 673.487,1208.454 672.333,1202.230 673.921 M1309.270 673.703 C 1306.446 674.249,1303.000 678.566,1303.000 681.558 C 1303.000 682.817,1304.165 685.231,1305.589 686.923 C 1312.152 694.723,1324.743 686.862,1319.970 677.945 C 1318.960 676.057,1313.873 672.868,1312.300 673.136 C 1311.860 673.211,1310.496 673.466,1309.270 673.703 M954.506 692.252 C 956.235 693.739,957.308 695.877,957.667 698.550 C 958.717 706.386,950.239 712.243,943.151 708.578 C 937.305 705.555,936.120 698.387,940.589 693.077 C 942.750 690.508,943.897 690.000,947.533 690.000 C 950.609 690.000,952.657 690.661,954.506 692.252 M1217.077 692.923 C 1223.492 699.338,1218.740 710.000,1209.466 710.000 C 1205.305 710.000,1200.000 704.128,1200.000 699.523 C 1200.000 694.177,1204.386 690.000,1210.000 690.000 C 1213.258 690.000,1214.784 690.631,1217.077 692.923 M1140.000 694.000 C 1140.000 694.550,1139.550 695.000,1139.000 695.000 C 1138.450 695.000,1138.000 694.550,1138.000 694.000 C 1138.000 693.450,1138.450 693.000,1139.000 693.000 C 1139.550 693.000,1140.000 693.450,1140.000 694.000 M1396.447 703.088 C 1401.295 707.344,1408.203 721.302,1407.752 725.930 C 1407.275 730.821,1403.021 733.330,1398.034 731.660 C 1395.148 730.694,1393.955 729.303,1390.914 723.355 C 1388.905 719.425,1386.078 714.657,1384.631 712.760 C 1383.055 710.694,1382.000 708.027,1382.000 706.107 C 1382.000 703.449,1382.554 702.663,1385.250 701.491 C 1390.167 699.354,1392.588 699.699,1396.447 703.088 M337.500 716.458 C 371.554 723.656,399.597 731.471,414.169 737.824 C 419.725 740.246,418.769 734.943,423.041 787.000 C 424.688 807.075,427.562 841.500,429.427 863.500 C 431.995 893.801,432.536 903.778,431.658 904.647 C 430.534 905.761,426.665 908.503,386.500 936.654 C 376.050 943.979,366.825 950.445,366.000 951.024 C 307.530 992.037,294.614 1001.000,293.981 1001.000 C 293.561 1001.000,292.957 999.964,292.639 998.699 C 291.593 994.531,289.000 976.078,289.000 972.802 C 289.000 971.037,296.033 945.946,304.629 917.046 C 313.225 888.146,320.826 862.475,321.520 860.000 C 323.067 854.481,346.115 776.581,349.479 765.500 C 357.350 739.576,360.000 730.300,360.000 728.673 C 360.000 725.634,354.572 721.000,351.011 721.000 C 344.453 721.000,343.953 721.786,338.603 740.500 C 336.717 747.100,333.146 759.250,330.669 767.500 C 328.192 775.750,323.395 791.950,320.009 803.500 C 316.623 815.050,312.354 829.450,310.522 835.500 C 308.690 841.550,305.078 853.700,302.494 862.500 C 292.737 895.731,284.039 924.658,282.498 929.000 C 279.859 936.434,273.176 959.176,271.152 967.609 C 270.110 971.949,266.324 985.175,262.737 997.000 C 256.173 1018.641,244.141 1058.970,236.780 1084.000 C 234.597 1091.425,231.667 1102.450,230.270 1108.500 C 228.873 1114.550,227.651 1119.602,227.556 1119.726 C 227.244 1120.131,173.891 1113.225,173.380 1112.713 C 172.881 1112.215,174.649 1105.667,192.474 1042.000 C 220.407 942.231,232.526 898.990,236.475 885.000 C 238.882 876.475,243.859 858.700,247.536 845.500 C 251.213 832.300,258.403 806.650,263.514 788.500 C 268.626 770.350,275.828 744.700,279.520 731.500 C 283.212 718.300,286.392 707.228,286.586 706.895 C 286.951 706.269,307.988 710.220,337.500 716.458 M878.787 728.412 C 883.579 732.419,888.357 736.666,889.405 737.849 L 891.310 740.000 874.655 740.000 L 858.000 740.000 858.000 726.463 L 858.000 712.925 864.037 717.025 C 867.357 719.280,873.995 724.404,878.787 728.412 M1313.905 768.999 C 1315.193 775.224,1318.351 784.093,1320.689 788.051 C 1322.140 790.507,1322.102 791.197,1320.185 797.105 C 1319.043 800.622,1317.823 806.200,1317.474 809.500 C 1316.664 817.143,1318.607 811.403,1289.035 893.500 C 1259.094 976.620,1254.000 991.190,1254.000 993.701 C 1254.000 1000.464,1263.472 1003.619,1268.545 998.545 C 1269.895 997.195,1271.000 995.600,1271.000 995.000 C 1271.000 992.265,1279.497 971.268,1281.385 969.338 C 1282.548 968.148,1291.150 961.890,1300.500 955.430 C 1309.850 948.970,1320.349 941.704,1323.831 939.283 C 1386.393 895.781,1401.725 885.603,1405.972 884.753 C 1411.712 883.604,1429.452 884.560,1440.225 886.598 C 1450.347 888.513,1459.087 892.930,1469.353 901.318 C 1473.514 904.718,1476.937 907.725,1476.958 908.000 C 1476.993 908.439,1467.197 914.174,1453.034 922.008 C 1450.540 923.388,1442.875 927.710,1436.000 931.615 C 1429.125 935.519,1419.675 940.830,1415.000 943.417 C 1410.325 946.005,1402.675 950.398,1398.000 953.180 C 1385.896 960.383,1379.341 964.161,1354.500 978.255 C 1342.400 985.120,1308.317 1004.521,1278.760 1021.368 C 1249.203 1038.216,1223.999 1052.000,1222.752 1052.000 C 1219.578 1052.000,1208.795 1044.731,1205.437 1040.328 C 1202.200 1036.085,1198.058 1026.536,1198.024 1023.239 C 1197.991 1020.163,1195.787 1025.509,1271.711 844.500 C 1284.091 814.985,1285.242 809.525,1284.821 782.292 L 1284.570 766.084 1290.095 759.792 C 1296.841 752.111,1304.491 742.119,1308.506 735.749 L 1311.500 730.998 1312.134 747.249 C 1312.482 756.187,1313.279 765.975,1313.905 768.999 M450.877 753.475 C 467.429 761.892,482.933 771.969,495.991 782.799 C 506.960 791.895,523.006 807.780,522.965 809.500 C 522.940 810.530,447.905 873.238,447.355 872.688 C 446.854 872.188,437.000 755.227,437.000 749.790 C 437.000 748.256,437.257 747.000,437.571 747.000 C 437.886 747.000,443.873 749.914,450.877 753.475 M671.130 769.764 C 674.226 774.569,686.316 793.350,697.996 811.500 C 709.677 829.650,720.690 846.750,722.471 849.500 C 724.251 852.250,730.777 862.375,736.973 872.000 C 743.168 881.625,751.221 894.089,754.868 899.698 C 758.516 905.307,765.197 915.657,769.716 922.698 C 774.235 929.739,782.864 943.150,788.892 952.500 C 794.920 961.850,806.298 979.516,814.176 991.757 C 822.054 1003.999,830.525 1017.152,833.000 1020.988 C 851.173 1049.149,852.300 1051.131,850.885 1052.455 C 848.127 1055.034,805.936 1081.145,805.038 1080.827 C 804.291 1080.562,762.880 1030.682,723.138 982.178 C 713.265 970.127,708.559 964.409,678.643 928.114 C 664.972 911.527,652.964 897.516,651.959 896.978 C 649.551 895.689,644.370 895.732,641.886 897.061 C 640.796 897.644,625.638 910.748,608.202 926.180 C 590.766 941.612,571.587 958.572,565.582 963.869 C 559.578 969.166,548.319 979.125,540.564 986.000 C 532.808 992.875,518.596 1005.455,508.981 1013.956 C 499.367 1022.458,485.875 1034.403,479.000 1040.502 C 472.125 1046.601,458.400 1058.749,448.500 1067.497 C 426.199 1087.204,414.657 1097.459,409.668 1102.000 C 404.962 1106.283,404.260 1106.550,395.500 1107.393 C 386.986 1108.213,375.272 1106.187,367.228 1102.504 C 359.834 1099.119,346.890 1090.400,339.746 1083.993 C 324.699 1070.498,308.702 1046.215,300.376 1024.227 C 297.541 1016.743,297.592 1017.344,299.750 1016.757 C 300.713 1016.495,318.150 1004.603,338.500 990.330 C 358.850 976.057,377.975 962.649,381.000 960.535 C 384.025 958.421,392.350 952.559,399.500 947.509 C 415.996 935.857,416.957 935.183,456.500 907.476 C 502.910 874.958,554.266 838.913,569.000 828.517 C 575.875 823.665,584.200 817.821,587.500 815.528 C 618.113 794.259,661.790 763.504,662.964 762.389 C 663.770 761.625,664.670 761.007,664.964 761.014 C 665.259 761.022,668.033 764.960,671.130 769.764 M610.306 769.409 L 615.968 775.818 584.292 798.051 L 552.616 820.285 549.323 816.392 C 547.512 814.252,546.050 812.275,546.075 812.000 C 546.107 811.656,603.512 763.610,604.572 763.039 C 604.612 763.018,607.193 765.884,610.306 769.409 M882.388 812.297 C 884.654 814.563,884.693 815.004,885.257 844.439 C 885.641 864.539,885.481 875.045,884.767 876.613 C 883.146 880.170,877.902 881.522,873.615 879.488 C 871.712 878.585,869.860 877.093,869.500 876.173 C 869.140 875.253,868.594 860.968,868.287 844.430 L 867.727 814.360 870.499 812.180 C 874.208 809.262,879.404 809.313,882.388 812.297 M535.932 825.904 C 537.069 827.502,538.000 829.236,538.000 829.758 C 538.000 830.280,534.962 832.765,531.250 835.282 C 527.538 837.798,520.450 842.728,515.500 846.238 C 491.053 863.569,455.228 888.672,451.721 890.929 L 449.500 892.358 451.500 890.343 C 452.600 889.235,460.925 882.239,470.000 874.796 C 479.075 867.354,496.850 852.665,509.500 842.154 C 522.150 831.644,532.807 823.034,533.182 823.022 C 533.557 823.010,534.794 824.307,535.932 825.904 M373.812 854.210 C 369.240 857.625,361.337 864.498,356.250 869.483 C 345.984 879.542,344.978 882.069,349.455 886.545 C 351.263 888.353,352.989 889.000,356.010 889.000 C 359.692 889.000,360.744 888.374,366.305 882.868 C 369.712 879.495,377.000 873.162,382.500 868.795 C 395.765 858.262,397.320 855.411,392.455 850.545 C 387.970 846.061,383.558 846.928,373.812 854.210 M1606.068 878.801 C 1606.966 883.036,1610.121 897.224,1613.079 910.332 C 1617.872 931.564,1618.284 934.262,1616.858 935.059 C 1611.947 937.808,1601.493 946.404,1594.500 953.445 C 1574.447 973.636,1556.111 1010.910,1549.035 1045.868 L 1547.288 1054.500 1523.098 1054.768 L 1498.909 1055.036 1492.479 1050.448 C 1474.143 1037.363,1457.675 1022.624,1449.450 1011.935 C 1439.558 999.079,1431.139 982.393,1426.515 966.479 L 1423.907 957.500 1426.095 956.000 C 1428.322 954.473,1459.961 936.340,1474.500 928.258 C 1478.900 925.812,1484.619 922.468,1487.208 920.828 L 1491.917 917.845 1499.606 919.556 C 1512.464 922.416,1525.316 920.518,1534.044 914.469 C 1537.694 911.940,1539.918 908.369,1543.842 898.739 C 1544.944 896.034,1545.082 895.994,1550.733 896.739 C 1567.306 898.925,1582.276 896.493,1591.147 890.173 C 1595.122 887.341,1601.702 877.380,1602.680 872.715 C 1603.508 868.766,1604.206 870.021,1606.068 878.801 M400.500 877.946 C 392.118 879.956,380.757 888.599,363.250 906.282 C 351.190 918.464,350.000 919.989,350.000 923.260 C 350.000 927.783,353.660 931.000,358.805 931.000 C 362.017 931.000,363.678 929.676,376.920 916.555 C 392.850 900.772,397.447 896.835,403.500 893.788 C 409.027 891.006,412.000 888.065,412.000 885.381 C 412.000 882.695,408.331 878.356,405.500 877.694 C 404.400 877.437,402.150 877.550,400.500 877.946 M662.123 933.626 C 670.580 943.871,678.606 953.658,679.958 955.376 C 681.310 957.094,685.626 962.325,689.550 967.000 C 693.473 971.675,698.700 977.975,701.165 981.000 C 703.629 984.025,719.925 1003.825,737.377 1025.000 L 769.109 1063.500 764.304 1065.612 C 761.662 1066.773,758.526 1068.029,757.336 1068.402 C 755.008 1069.131,756.640 1070.988,706.903 1011.000 C 696.187 998.075,677.526 975.575,665.435 961.000 C 637.286 927.068,636.002 925.471,635.992 924.397 C 635.983 923.463,645.031 915.106,646.123 915.038 C 646.466 915.017,653.666 923.382,662.123 933.626 M1131.000 918.358 C 1148.554 921.548,1154.405 923.236,1154.797 925.222 C 1155.580 929.188,1138.178 956.680,1129.840 964.649 C 1117.047 976.877,1091.635 986.930,1076.687 985.677 C 1066.105 984.790,1050.704 976.686,1041.853 967.347 C 1036.362 961.554,1024.183 943.616,1020.729 936.234 C 1017.967 930.333,1017.831 929.597,1019.299 928.524 C 1022.804 925.960,1043.690 919.652,1055.766 917.508 C 1066.998 915.515,1071.331 915.277,1092.500 915.486 C 1113.431 915.693,1118.354 916.060,1131.000 918.358 M1751.144 918.058 C 1760.374 919.001,1776.108 921.953,1780.129 923.496 C 1781.206 923.909,1779.187 926.543,1772.851 932.988 C 1761.648 944.384,1754.510 954.075,1746.494 968.768 C 1739.515 981.561,1738.361 984.551,1734.632 999.500 C 1730.931 1014.339,1729.611 1024.924,1729.553 1040.245 L 1729.500 1053.990 1666.500 1054.035 C 1586.802 1054.092,1565.668 1054.001,1565.269 1053.602 C 1564.504 1052.837,1572.349 1024.873,1575.649 1016.601 C 1580.047 1005.574,1588.615 989.004,1594.831 979.500 C 1601.064 969.972,1616.684 954.587,1627.000 947.816 C 1652.760 930.908,1679.004 921.758,1713.500 917.656 C 1720.322 916.845,1741.483 917.071,1751.144 918.058 M1181.853 934.043 C 1190.410 938.044,1209.000 949.624,1209.000 950.953 C 1209.000 951.331,1207.182 955.884,1204.959 961.071 C 1202.737 966.257,1198.403 976.575,1195.329 984.000 C 1184.288 1010.668,1181.748 1016.508,1180.975 1017.000 C 1179.947 1017.656,1019.136 1017.469,1018.478 1016.811 C 1018.201 1016.534,1018.580 1014.775,1019.322 1012.904 C 1023.659 1001.950,1015.711 995.109,1000.052 996.316 C 991.957 996.941,977.085 1000.339,966.593 1003.961 C 958.797 1006.652,958.374 1006.590,956.421 1002.474 C 955.500 1000.535,953.014 997.722,950.895 996.224 C 948.776 994.726,947.033 993.039,947.021 992.476 C 947.010 991.912,948.965 988.004,951.366 983.791 C 962.620 964.043,973.109 954.035,999.208 938.146 L 1002.915 935.889 1006.090 942.195 C 1010.658 951.267,1024.162 970.878,1029.964 976.866 C 1036.717 983.835,1051.128 993.109,1060.649 996.612 C 1067.799 999.242,1069.616 999.495,1081.000 999.441 C 1092.267 999.388,1094.437 999.070,1103.000 996.224 C 1121.075 990.215,1136.376 981.054,1145.426 970.823 C 1152.374 962.969,1163.070 946.596,1167.030 937.751 C 1168.939 933.489,1171.109 930.002,1171.853 930.001 C 1172.597 930.000,1177.097 931.819,1181.853 934.043 M646.600 963.000 C 678.011 1000.859,709.332 1038.590,729.757 1063.172 C 739.203 1074.541,747.788 1084.115,748.834 1084.447 C 750.387 1084.940,750.824 1086.298,751.223 1091.869 C 751.659 1097.969,752.907 1101.653,757.785 1111.250 C 757.995 1111.662,733.596 1112.000,703.564 1112.000 L 648.962 1112.000 649.465 1109.750 C 650.637 1104.506,655.123 1053.626,654.597 1051.531 C 654.270 1050.226,652.552 1048.541,650.610 1047.619 C 647.602 1046.192,641.076 1046.000,595.549 1046.000 C 539.617 1046.000,538.771 1046.078,537.443 1051.372 C 537.120 1052.656,538.174 1066.710,539.784 1082.603 C 541.393 1098.497,542.622 1111.616,542.514 1111.758 C 542.406 1111.900,515.412 1111.900,482.528 1111.758 L 422.739 1111.500 438.619 1097.534 C 447.354 1089.852,454.725 1083.326,455.000 1083.032 C 455.537 1082.457,477.179 1063.469,482.961 1058.500 C 484.881 1056.850,489.163 1052.991,492.476 1049.925 C 495.789 1046.858,507.950 1036.066,519.500 1025.941 C 531.050 1015.817,542.300 1005.906,544.500 1003.918 C 546.700 1001.930,553.028 996.298,558.561 991.402 C 564.095 986.506,579.620 972.763,593.061 960.863 C 621.560 935.630,622.298 935.003,623.142 935.285 C 623.495 935.403,634.051 947.875,646.600 963.000 M1411.941 975.250 C 1421.823 1003.884,1439.073 1028.103,1463.250 1047.288 C 1467.513 1050.670,1471.000 1053.789,1471.000 1054.219 C 1471.000 1054.648,1421.838 1054.986,1361.750 1054.968 C 1267.348 1054.941,1252.754 1054.744,1254.368 1053.522 C 1255.395 1052.744,1263.945 1047.695,1273.368 1042.303 L 1290.500 1032.500 1347.839 1032.000 L 1405.178 1031.500 1407.139 1029.078 C 1409.729 1025.878,1409.159 1022.188,1405.677 1019.599 C 1403.053 1017.648,1401.465 1017.489,1383.177 1017.345 C 1372.355 1017.260,1362.699 1017.147,1361.719 1017.095 C 1360.098 1017.008,1359.964 1015.908,1360.219 1004.796 L 1360.500 992.591 1383.500 979.387 C 1396.150 972.125,1407.006 966.142,1407.625 966.092 C 1408.243 966.041,1410.186 970.163,1411.941 975.250 M833.000 979.059 C 833.000 984.527,832.663 988.981,832.250 988.958 C 831.420 988.911,819.837 970.830,820.324 970.342 C 820.889 969.777,831.492 968.349,832.250 968.735 C 832.663 968.946,833.000 973.591,833.000 979.059 M940.265 1007.865 C 942.732 1010.332,939.994 1012.257,926.000 1017.893 C 909.499 1024.538,891.277 1032.900,877.563 1040.119 L 868.179 1045.060 866.265 1042.280 C 865.213 1040.751,863.330 1037.803,862.081 1035.729 L 859.811 1031.958 868.533 1027.928 C 900.658 1013.087,923.741 1005.814,935.921 1006.695 C 937.803 1006.831,939.758 1007.358,940.265 1007.865 M281.997 1021.500 C 293.263 1055.511,316.778 1088.244,342.354 1105.519 L 351.208 1111.500 325.174 1111.766 C 310.856 1111.913,287.248 1111.913,272.712 1111.766 L 246.282 1111.500 248.509 1104.000 C 256.019 1078.699,261.647 1059.641,265.488 1046.500 C 271.689 1025.284,276.020 1010.749,276.661 1009.000 C 277.304 1007.249,277.178 1006.954,281.997 1021.500 M1000.152 1013.750 C 993.908 1022.403,957.254 1051.055,931.840 1067.148 C 913.734 1078.614,907.371 1082.161,890.155 1090.383 C 849.360 1109.868,821.794 1114.171,815.517 1102.033 C 812.742 1096.666,813.386 1095.566,822.750 1089.665 C 827.563 1086.633,832.850 1083.839,834.500 1083.456 C 836.150 1083.074,840.650 1080.620,844.500 1078.004 C 863.692 1064.962,902.081 1044.846,926.500 1035.038 C 930.900 1033.270,936.975 1030.783,940.000 1029.511 C 956.256 1022.672,992.877 1011.401,999.818 1011.100 L 1002.136 1011.000 1000.152 1013.750 M637.519 1064.750 C 636.338 1073.515,633.243 1103.936,627.421 1164.000 C 626.542 1173.075,625.647 1180.678,625.433 1180.895 C 625.008 1181.326,566.851 1181.197,566.452 1180.765 C 566.318 1180.619,565.459 1172.625,564.544 1163.000 C 561.907 1135.261,557.061 1087.207,556.074 1079.000 C 555.578 1074.875,554.930 1069.138,554.633 1066.250 L 554.094 1061.000 596.059 1061.000 L 638.024 1061.000 637.519 1064.750 M788.750 1087.096 C 799.076 1099.588,799.227 1100.848,790.750 1103.825 C 779.703 1107.705,772.422 1106.012,769.578 1098.903 C 767.514 1093.746,767.569 1086.538,769.699 1082.932 C 771.204 1080.385,776.745 1077.093,779.500 1077.109 C 780.050 1077.112,784.212 1081.606,788.750 1087.096 M1014.371 1082.192 C 1010.434 1083.246,1008.000 1085.969,1008.000 1089.319 C 1008.000 1093.056,1025.621 1172.424,1027.039 1175.073 C 1029.729 1180.099,1029.527 1180.081,1077.344 1179.780 C 1120.695 1179.508,1122.003 1179.443,1123.983 1177.462 C 1125.539 1175.905,1127.800 1167.529,1133.563 1141.962 C 1144.871 1091.793,1145.087 1090.717,1144.433 1087.716 C 1143.135 1081.761,1144.923 1081.923,1078.081 1081.702 C 1044.463 1081.591,1015.793 1081.812,1014.371 1082.192 M1917.393 1095.425 C 1911.672 1096.796,1911.847 1096.697,1890.757 1110.445 C 1873.625 1121.613,1860.570 1130.076,1847.963 1138.188 C 1839.427 1143.680,1839.423 1143.681,1829.638 1144.265 C 1821.219 1144.767,1818.848 1145.331,1812.676 1148.300 C 1800.274 1154.265,1780.711 1170.317,1779.380 1175.621 C 1778.953 1177.324,1779.224 1179.290,1780.096 1180.814 C 1781.679 1183.581,1831.914 1219.425,1836.399 1220.989 C 1837.994 1221.545,1840.319 1222.000,1841.566 1222.000 C 1848.387 1222.000,1873.361 1203.945,1879.657 1194.461 C 1882.948 1189.504,1883.364 1188.113,1883.903 1180.238 L 1884.500 1171.509 1903.000 1157.224 C 1913.175 1149.366,1926.450 1139.165,1932.500 1134.554 C 1946.577 1123.825,1947.707 1122.720,1948.857 1118.555 C 1951.039 1110.652,1945.878 1102.448,1935.698 1097.642 C 1929.082 1094.519,1923.828 1093.882,1917.393 1095.425 M1126.597 1097.750 C 1126.301 1098.713,1122.895 1113.675,1119.027 1131.000 C 1115.160 1148.325,1111.786 1163.063,1111.529 1163.750 C 1111.168 1164.717,1103.155 1165.000,1076.099 1165.000 C 1043.663 1165.000,1041.097 1164.873,1040.618 1163.250 C 1040.334 1162.287,1039.206 1157.450,1038.111 1152.500 C 1037.016 1147.550,1034.706 1137.200,1032.978 1129.500 C 1028.678 1110.346,1026.000 1097.802,1026.000 1096.821 C 1026.000 1096.369,1048.755 1096.000,1076.567 1096.000 C 1124.265 1096.000,1127.104 1096.099,1126.597 1097.750 M1625.000 1100.083 C 1606.730 1101.472,1589.610 1103.990,1574.585 1107.497 C 1548.593 1113.563,1538.711 1119.829,1535.413 1132.331 C 1532.914 1141.804,1537.040 1150.932,1546.709 1157.321 C 1572.253 1174.199,1663.314 1181.123,1732.000 1171.411 C 1747.470 1169.223,1768.322 1163.903,1776.243 1160.122 C 1796.048 1150.670,1799.146 1130.284,1782.567 1118.498 C 1775.714 1113.625,1769.291 1111.202,1753.382 1107.489 C 1738.041 1103.909,1722.482 1101.663,1701.605 1100.017 C 1686.868 1098.855,1640.628 1098.895,1625.000 1100.083 M1928.410 1110.398 C 1930.250 1111.167,1932.096 1112.346,1932.511 1113.018 C 1933.329 1114.341,1933.107 1114.536,1915.453 1128.000 C 1882.178 1153.377,1870.766 1162.554,1869.564 1164.898 C 1868.830 1166.329,1867.924 1171.325,1867.549 1176.000 C 1867.132 1181.207,1866.216 1185.529,1865.184 1187.156 C 1862.347 1191.630,1843.909 1206.000,1841.006 1206.000 C 1839.662 1206.000,1833.028 1201.704,1833.012 1200.823 C 1833.006 1200.451,1835.478 1198.729,1838.506 1196.997 C 1845.307 1193.105,1846.759 1190.807,1844.548 1187.433 C 1842.208 1183.862,1838.804 1184.362,1830.296 1189.527 L 1822.839 1194.055 1818.930 1191.180 L 1815.021 1188.305 1821.010 1183.654 C 1827.264 1178.797,1828.109 1176.883,1825.345 1173.829 C 1822.763 1170.976,1819.668 1171.629,1812.489 1176.544 C 1805.568 1181.283,1803.693 1181.528,1800.594 1178.103 C 1799.003 1176.346,1799.344 1175.945,1807.788 1169.658 C 1820.286 1160.352,1823.558 1159.049,1834.500 1159.020 C 1841.129 1159.003,1844.356 1158.536,1846.747 1157.248 C 1848.533 1156.287,1864.828 1145.825,1882.958 1134.000 C 1925.262 1106.408,1922.408 1107.890,1928.410 1110.398 M1693.289 1116.038 C 1744.241 1119.112,1777.000 1127.483,1777.000 1137.429 C 1777.000 1144.800,1757.184 1151.828,1724.682 1155.985 C 1650.193 1165.511,1551.000 1154.827,1551.000 1137.278 C 1551.000 1122.896,1624.672 1111.899,1693.289 1116.038 M193.945 1131.504 C 213.440 1133.977,229.744 1136.000,230.175 1136.000 C 230.607 1136.000,233.845 1138.588,237.370 1141.750 C 240.895 1144.912,246.413 1148.850,249.632 1150.500 C 256.711 1154.129,269.000 1161.771,269.000 1162.544 C 269.000 1164.206,261.253 1165.994,254.282 1165.942 C 245.355 1165.876,238.572 1164.164,221.000 1157.541 C 203.578 1150.975,198.038 1149.464,186.000 1147.994 C 175.200 1146.676,153.573 1147.180,143.500 1148.985 C 135.308 1150.453,118.050 1150.164,111.465 1148.449 C 103.780 1146.447,100.022 1144.202,97.699 1140.224 C 95.879 1137.107,95.878 1136.916,97.663 1133.318 C 100.513 1127.577,102.830 1127.162,132.500 1127.080 C 157.611 1127.010,159.712 1127.161,193.945 1131.504 M1611.070 1130.369 C 1609.322 1133.636,1610.028 1136.159,1613.189 1137.933 C 1618.878 1141.126,1625.644 1134.579,1621.448 1129.942 C 1618.821 1127.040,1612.717 1127.291,1611.070 1130.369 M1697.073 1130.635 C 1694.540 1133.854,1694.441 1136.190,1696.750 1138.255 C 1698.952 1140.224,1700.809 1140.598,1704.079 1139.731 C 1709.370 1138.329,1709.633 1130.952,1704.462 1128.985 C 1700.535 1127.493,1699.333 1127.761,1697.073 1130.635 M1668.452 1132.433 C 1667.216 1134.319,1667.105 1135.328,1667.958 1136.921 C 1670.372 1141.431,1679.000 1140.393,1679.000 1135.593 C 1679.000 1130.061,1671.482 1127.809,1668.452 1132.433 M1653.496 1143.004 C 1649.672 1147.230,1655.896 1152.735,1661.574 1150.148 C 1664.251 1148.929,1664.956 1144.356,1662.800 1142.200 C 1660.897 1140.297,1655.527 1140.761,1653.496 1143.004 M1331.000 1143.723 C 1330.175 1144.035,1322.075 1148.207,1313.000 1152.995 C 1303.925 1157.783,1290.875 1164.644,1284.000 1168.240 C 1277.125 1171.837,1258.900 1181.371,1243.500 1189.428 C 1228.100 1197.484,1214.487 1205.209,1213.250 1206.594 C 1210.359 1209.829,1210.416 1212.739,1213.556 1222.168 C 1215.264 1227.298,1216.896 1230.357,1218.475 1231.391 C 1221.795 1233.567,1321.473 1253.347,1325.677 1252.665 C 1328.689 1252.176,1342.873 1242.328,1378.500 1215.987 C 1383.450 1212.327,1397.297 1202.236,1409.271 1193.561 C 1421.245 1184.887,1431.494 1176.946,1432.046 1175.914 C 1432.598 1174.882,1433.457 1170.796,1433.955 1166.833 C 1434.989 1158.595,1433.886 1155.180,1429.554 1153.207 C 1428.126 1152.556,1411.105 1150.446,1391.729 1148.518 C 1372.353 1146.589,1352.095 1144.559,1346.711 1144.006 C 1336.054 1142.911,1333.287 1142.861,1331.000 1143.723 M1373.750 1161.671 C 1389.838 1163.226,1403.000 1164.750,1403.000 1165.058 C 1403.000 1165.366,1400.412 1167.417,1397.250 1169.616 C 1394.088 1171.814,1387.900 1176.124,1383.500 1179.192 C 1379.100 1182.261,1362.935 1193.521,1347.577 1204.215 L 1319.654 1223.659 1291.577 1217.894 C 1250.126 1209.383,1243.675 1208.009,1243.267 1207.600 C 1243.063 1207.396,1249.557 1203.745,1257.698 1199.486 C 1274.449 1190.722,1291.127 1181.953,1318.000 1167.779 C 1334.247 1159.209,1336.987 1158.071,1340.500 1158.433 C 1342.700 1158.659,1357.662 1160.116,1373.750 1161.671 M373.000 1172.704 C 360.852 1173.129,332.147 1175.816,321.000 1177.571 C 306.285 1179.888,285.569 1185.580,278.882 1189.143 C 257.085 1200.761,260.285 1224.822,284.855 1234.057 C 293.103 1237.156,318.597 1242.647,333.000 1244.425 C 373.671 1249.447,433.439 1249.013,472.000 1243.415 C 484.919 1241.540,506.079 1236.667,513.293 1233.906 C 538.287 1224.342,540.230 1199.312,516.844 1188.170 C 493.146 1176.879,434.355 1170.558,373.000 1172.704 M713.500 1201.276 C 696.450 1208.648,681.104 1215.404,679.398 1216.289 C 674.358 1218.904,672.987 1221.984,672.792 1231.129 C 672.628 1238.867,672.756 1239.394,675.357 1241.631 C 678.763 1244.561,674.712 1243.757,725.000 1251.477 C 748.375 1255.066,770.200 1258.453,773.500 1259.005 C 800.213 1263.473,832.407 1268.220,836.637 1268.316 C 839.831 1268.388,842.444 1267.878,843.546 1266.966 C 846.090 1264.862,879.712 1225.514,882.588 1221.275 C 884.466 1218.508,885.000 1216.409,885.000 1211.795 C 885.000 1202.613,883.015 1200.334,874.250 1199.451 C 852.816 1197.292,760.917 1188.908,753.670 1188.450 L 744.500 1187.872 713.500 1201.276 M453.000 1190.944 C 490.087 1194.877,514.028 1201.451,516.461 1208.369 C 517.638 1211.716,516.514 1213.782,512.115 1216.359 C 482.677 1233.604,355.153 1236.980,300.191 1221.970 C 286.109 1218.124,278.512 1212.648,280.947 1208.098 C 284.775 1200.947,311.469 1193.942,346.000 1191.027 C 352.875 1190.447,360.300 1189.803,362.500 1189.596 C 370.874 1188.807,442.979 1189.881,453.000 1190.944 M805.459 1208.007 C 834.587 1210.753,858.656 1213.000,858.946 1213.000 C 859.235 1213.000,853.507 1218.977,846.216 1226.283 L 832.960 1239.566 771.969 1229.938 C 738.423 1224.643,710.747 1220.080,710.466 1219.800 C 710.185 1219.519,712.103 1218.471,714.728 1217.471 C 717.352 1216.471,725.800 1212.830,733.500 1209.380 C 741.200 1205.931,748.625 1203.087,750.000 1203.061 C 751.375 1203.036,776.332 1205.262,805.459 1208.007 M334.388 1205.980 C 330.106 1207.710,330.915 1213.257,335.716 1215.082 C 339.358 1216.467,343.000 1213.932,343.000 1210.012 C 343.000 1205.744,339.281 1204.003,334.388 1205.980 M352.853 1212.670 C 351.947 1212.910,350.957 1214.056,350.654 1215.215 C 349.350 1220.202,354.929 1223.587,359.507 1220.587 C 365.200 1216.857,360.069 1210.753,352.853 1212.670 " stroke="none" fill="black" fill-rule="evenodd"/></svg>