<svg xmlns="http://www.w3.org/2000/svg" viewBox="0 0 1080 1080"><path fill-rule="evenodd" d="M496 53.999c-6.614.589-14.347 2.041-26 4.882-12.429 3.031-39.068 11.677-43.985 14.276-1.917 1.014-4.625 1.843-6.018 1.843-2.767 0-20.925 10.408-27.914 16-2.406 1.925-7.88 6.763-12.165 10.75-4.285 3.987-8.22 7.25-8.743 7.25-.523 0-2.809 2.813-5.079 6.25-6.333 9.59-8.328 12.509-11.78 17.236-1.752 2.397-3.942 5.856-4.867 7.687-.926 1.83-2.496 4.227-3.49 5.327-.994 1.1-2.984 5.139-4.423 8.976-1.439 3.836-4.165 9.744-6.058 13.129-3.785 6.768-16.242 43.523-18.775 55.395-.88 4.125-2.327 12-3.214 17.5-.888 5.5-2.036 11.887-2.552 14.193-.515 2.306-.937 5.562-.937 7.235 0 1.674-.529 5.021-1.176 7.439-1.144 4.277-1.303 4.411-5.886 4.954-2.591.307-7.139.307-10.107.001-4.384-.452-6.047-.161-8.864 1.557-1.907 1.162-4.395 2.115-5.53 2.117-5.516.01-18.463 20.263-22.057 34.504-4.47 17.709.026 40.774 9.502 48.747 7.975 6.711 20.372 9.409 29.731 6.471 2.688-.844 6.247-1.769 7.91-2.056 2.926-.504 3.077-.339 4.74 5.158.945 3.124 1.897 7.03 2.116 8.68 1.177 8.87 11.962 31.815 18.201 38.72 1.853 2.051 3.635 4.79 3.961 6.086.644 2.568 12.653 13.906 20.224 19.094 5.517 3.782 11.568 9.037 18.672 16.217 4.569 4.618 11.025 9.081 23.313 16.12 2.338 1.339 4.25 2.87 4.25 3.404 0 .533 2.587 2.095 5.75 3.47 3.162 1.375 8 3.569 10.75 4.877 2.75 1.307 6.35 2.697 8 3.088 1.65.39 5.025 1.715 7.5 2.942 2.475 1.228 7.725 2.961 11.666 3.85 3.942.89 8.442 2.128 10 2.752 1.559.624 6.434 1.788 10.834 2.586 4.4.797 10.025 1.838 12.5 2.313 2.475.474 6.47.889 8.879.921l4.379.06-.657 4.947c-.876 6.605-4.403 20.255-5.524 21.376-.527.527-4.287.208-9.141-.776-9.007-1.825-14.882-1.39-17.243 1.276-2.259 2.552-4.693 10.71-4.693 15.731 0 2.466 1.125 7.704 2.5 11.639 1.375 3.936 2.491 7.64 2.481 8.231-.017.936-3.878 5.382-20.91 24.076-2.004 2.2-6.064 6.925-9.021 10.5-2.958 3.575-10.6 12.575-16.982 20-6.383 7.425-12.272 14.471-13.087 15.658-.814 1.187-6.099 8.277-11.743 15.756-5.644 7.478-11.556 16.407-13.136 19.842-1.581 3.434-6.07 12.994-9.976 21.244-3.905 8.25-8.28 18.825-9.721 23.5-1.441 4.675-3.957 12.325-5.59 17-5.291 15.15-5.445 16.071-3.015 18.039 1.217.985 4.882 2.015 8.582 2.411 4.09.439 6.655 1.204 6.995 2.089.294.768 1.027 8.049 1.627 16.179 1.663 22.536 5.795 34.991 15.751 47.484 2.819 3.537 2.93 4.052 2.499 11.5-.307 5.285-1.226 9.529-2.853 13.169-1.321 2.954-2.401 6.028-2.401 6.83 0 .803 1.853 2.188 4.119 3.078l4.119 1.618-.71 16.051c-1.348 30.496-1.473 28.668 2.105 30.764 2.255 1.321 5.761 1.944 12.5 2.221 6.133.252 10.748 1.004 13.367 2.18 3.311 1.485 7.361 1.849 23.5 2.106 10.725.172 20.4.328 21.5.347 1.1.019 5.483-.261 9.74-.623 6.571-.559 7.833-.417 8.354.942.989 2.576-3.487 22.864-5.54 25.115-2.917 3.198-3.476 6.376-1.506 8.553 2.328 2.572 1.34 10.637-1.55 12.661-2.1 1.471-2.715 5.725-.982 6.796 1.151.711.368 2.49-1.096 2.49-.528 0-2.385-2.02-4.126-4.49-3.535-5.015-9.966-9.765-12.108-8.943-2.248.863-4.298 8.223-2.91 10.446 1.005 1.609.768 1.928-1.852 2.504-4.317.948-12.717-.352-17.811-2.757-3.549-1.675-4.748-1.845-6.281-.887-1.043.651-6.719 1.631-12.614 2.178-19.799 1.835-26.142 2.875-33.449 5.481-3.998 1.426-10.402 3.577-14.232 4.78-4.856 1.526-8.033 3.264-10.5 5.745-6.294 6.331-9.714 11.351-11.997 17.613-1.828 5.014-2.721 6.239-4.888 6.709-1.459.315-12.274 1.278-24.035 2.14-11.76.861-24.599 2.181-28.53 2.933-3.932.752-13.434 1.895-21.118 2.539-16.94 1.421-18.724 1.744-18.208 3.296 1.138 3.428 13.674 3.227 41.739-.67 5.775-.802 14.55-1.728 19.5-2.057 9.229-.615 24.441-2.188 30.28-3.132 2.97-.48 3.41-.217 4.667 2.791 1.919 4.594 3.908 6.052 12.553 9.205 9.491 3.462 19.736 4.728 43 5.314 28.242.711 33.797.631 43-.62 4.675-.636 14.8-1.577 22.5-2.092 14.786-.988 20.055-1.48 33-3.082 4.4-.545 9.35-.915 11-.823 6.449.36 29.393-2.155 36.626-4.015 9.395-2.416 35.985-2.698 44.834-.477 3.003.754 8.468 1.371 12.143 1.371 3.676 0 10.219.731 14.54 1.625 5.186 1.073 10.429 1.449 15.423 1.107 4.423-.302 8.341-.084 9.431.526 1.026.575 6.622 1.149 12.434 1.277 5.813.128 13.719.912 17.569 1.743 3.85.831 9.212 1.322 11.915 1.093 2.703-.23 6.303.034 8 .586 1.697.552 5.56 1.045 8.585 1.097 9.8.167 38.504-1.915 41.357-2.999 1.525-.58 4.038-1.055 5.584-1.055 1.545 0 5.354-1.125 8.463-2.5 3.109-1.375 6.254-2.5 6.988-2.5.734 0 2.457-1.121 3.827-2.492 2.189-2.189 3.968-2.65 14.655-3.797 6.691-.718 12.718-.953 13.395-.523.769.488.22.787-1.46.797-3.294.018-4.242 1.337-2.843 3.951 1.455 2.719 7.005 4.106 11.735 2.933 2.089-.519 17.725-1.192 34.746-1.497 26.112-.467 31.111-.331 32 .874 2.666 3.615 5.438 4.024 22.473 3.324 9.119-.375 17.48-.861 18.58-1.081 2.404-.479 12.739-1.201 29-2.026 6.6-.334 14.025-.776 16.5-.98 2.475-.205 9.9-.678 16.5-1.052 11.414-.645 12.093-.575 13.905 1.445 2.659 2.965 7.605 2.806 10.56-.339 2.21-2.352 2.239-2.576.651-5-1.129-1.724-2.566-2.537-4.484-2.537-3.514 0-32.951 1.831-39.382 2.449-4.439.427-4.75.304-4.75-1.874 0-4.458-2.188-5.076-17.904-5.06-14.199.015-26.284.728-40.596 2.396-9.189 1.071-17.397.652-26-1.327-8.308-1.912-46.601-2.248-71-.624-22.508 1.499-21.558 1.582-20.877-1.825.455-2.274-.04-3.493-2.395-5.902-1.633-1.67-3.266-4.543-3.63-6.385-.363-1.841-1.209-4.041-1.88-4.888-5.805-7.339-32.001-17.476-49.218-19.045-5.5-.502-11.687-1.177-13.748-1.501l-3.749-.589.624-5.307c.588-5.006.466-5.411-2.147-7.123-3.335-2.185-18.957-3.186-24.754-1.585-3.469.958-3.728.879-3.758-1.141-.046-3.18-2.259-5.577-5.803-6.286-3.997-.799-4.564-1.625-6.096-8.883-.696-3.3-1.954-7.663-2.795-9.695-.84-2.032-1.292-4.928-1.004-6.436.457-2.391-.946-9.828-2.713-14.378-.494-1.273.947-1.552 9.178-1.78 13.537-.375 32.957-2.143 35.925-3.272 1.358-.516 4.449-.939 6.868-.939 5.902 0 14.938-3.506 17.531-6.802 1.627-2.068 1.959-3.472 1.463-6.187-.352-1.931-.807-5.311-1.011-7.511-.204-2.2-.782-7.375-1.283-11.5-1.392-11.445-.873-25.623 1.015-27.746 3.125-3.514 4.016-9.203 2.784-17.769-1.387-9.64-1.497-12.222-.658-15.485.353-1.375.922-4.975 1.264-8 .341-3.025 1.4-7.525 2.352-10 5.867-15.244 9.389-32.3 9.89-47.89.115-3.582.478-4.056 4.582-5.985 2.451-1.152 4.976-3.066 5.612-4.254 1.833-3.424-.632-9.17-6.089-14.197-3.971-3.658-5.133-5.64-7.474-12.753-2.861-8.691-6.815-14.698-13.587-20.642-2.258-1.982-5.51-6.905-8.453-12.794-2.63-5.266-5.958-10.566-7.395-11.779-3.38-2.853-11.071-13.604-11.071-15.476 0-2.321-6.04-14.502-8.543-17.23-5.235-5.704-13.942-18.992-17.672-26.968-3.591-7.679-5.195-9.709-16.049-20.303l-12.06-11.772-.209-5.228c-.208-5.229-4.278-17.985-7.122-22.326-1.788-2.729-5.83-4.04-13.326-4.324-3.014-.115-5.814-.741-6.222-1.393-2.33-3.728-9.315-31.895-8.461-34.12.614-1.599 3.771-3.171 7.94-3.954 10.747-2.02 24.951-7.405 45.284-17.167 11.506-5.524 19.796-11.085 23.45-15.73 1.174-1.493 2.706-2.715 3.404-2.715 1.781 0 16.441-11.665 20.888-16.621 2.034-2.267 3.698-4.749 3.698-5.515 0-1.849 3.214-7.784 8.877-16.392 2.543-3.865 5.375-8.59 6.294-10.5 3.524-7.321 14.976-39.171 16.244-45.175 2.667-12.634 3.703-14.949 7.376-16.483 7.221-3.017 12.381-9.75 15.186-19.814 3.427-12.295 3.808-18.642 1.57-26.135-.799-2.676-1.708-6.495-2.021-8.488-.851-5.423-9.261-17.512-13.654-19.629-3.432-1.653-3.694-2.129-4.816-8.748-.654-3.85-1.874-9.779-2.713-13.176-.839-3.396-1.246-7.055-.905-8.13.663-2.086-2.354-16.706-4.476-21.694-.701-1.65-1.427-4.75-1.612-6.889-.185-2.14-1.415-6.19-2.732-9-3.422-7.301-7.341-17.59-8.081-21.22-.349-1.71-2.187-5.52-4.085-8.466-1.899-2.947-3.452-6.525-3.452-7.951 0-1.427-1.575-5.791-3.5-9.699-1.925-3.907-3.5-7.564-3.5-8.126 0-1.278-8.624-14.039-11.071-16.383-.996-.953-3.263-3.878-5.038-6.5-1.775-2.621-5.998-7.466-9.384-10.766-13.441-13.101-29.383-27.85-31.146-28.815-1.599-.875-9.888-7.212-11.361-8.685-1.344-1.344-28.168-15-29.464-15-.629 0-3.369-1.107-6.09-2.461-4.593-2.285-19.743-6.753-27.157-8.01-13.374-2.266-50.644-3.101-68.289-1.53m39 11.152c3.575.575 10.596 1.223 15.602 1.44 5.006.216 11.025 1.072 13.376 1.901 2.35.829 5.279 1.508 6.507 1.508 1.228 0 4.659 1.289 7.624 2.864s6.516 3.197 7.891 3.604c8.599 2.544 25.145 11.297 32.668 17.282 3.629 2.888 6.984 5.25 7.455 5.25 2.322 0 33.459 29.793 39.62 37.91 2.333 3.074 5.483 7.397 7 9.606 1.516 2.209 3.939 5.584 5.383 7.5 1.445 1.916 3.16 5.149 3.812 7.185.651 2.035 2.306 5.353 3.676 7.373 1.371 2.019 2.843 5.546 3.271 7.838.428 2.292 2.429 6.618 4.447 9.614 2.017 2.996 3.668 6.196 3.668 7.111 0 .916 1.121 4.072 2.49 7.014 1.37 2.942 2.495 6.158 2.5 7.147.006.989.867 3.573 1.915 5.741 1.048 2.169 2.202 6.085 2.565 8.702s1.793 8.809 3.177 13.759c1.385 4.95 2.843 12.389 3.241 16.532.398 4.142 1.139 8.192 1.645 9 .943 1.502 2.181 9.175 3.062 18.968.272 3.025.891 6.4 1.375 7.5 2.241 5.093 2.847 23.924 1.094 34-.574 3.3-1.485 9.6-2.024 14-3.293 26.887-5.852 40.712-7.92 42.78-.616.616-1.12 2.046-1.12 3.178 0 1.132-1.158 4.234-2.574 6.893-1.415 2.659-2.329 5.08-2.029 5.379.299.299-.313 1.747-1.36 3.218-1.047 1.471-2.208 3.884-2.579 5.363-.371 1.479-1.07 2.689-1.554 2.689-.483 0-2.077 1.912-3.541 4.25-1.464 2.337-3.018 4.485-3.452 4.772-1.283.847-5.384 7.237-6.724 10.478-.683 1.65-2.842 4.042-4.799 5.315-2.337 1.52-4.415 4.186-6.054 7.766-1.673 3.655-3.926 6.515-6.841 8.685-10.41 7.745-21.027 15.283-23.893 16.963-10.526 6.168-33.318 14.79-44.1 16.682-2.2.386-6.25 1.445-9 2.354-4.97 1.643-18.618 4.142-32 5.861-3.85.495-9.925 1.573-13.5 2.397-8.417 1.94-42.068 2.926-51.5 1.509-3.85-.579-10.15-1.528-14-2.109-3.85-.581-9.7-1.704-13-2.494-3.3-.791-6.9-1.631-8-1.866-5.766-1.234-16.762-4.565-22.5-6.815-3.575-1.402-9.65-3.551-13.5-4.775-3.85-1.224-8.421-3.285-10.157-4.58-1.737-1.294-8.037-4.925-14-8.067-6.579-3.467-12.623-7.506-15.371-10.27C376.73 444.775 365.088 435 363.849 435c-2.047 0-18.399-15.285-20.116-18.804-.971-1.992-2.817-4.763-4.102-6.159-3.758-4.083-9.42-13.286-10.174-16.537-.382-1.65-1.248-3.9-1.924-5-.677-1.1-1.812-3.775-2.523-5.944-.711-2.169-2.129-4.841-3.151-5.938-1.023-1.097-1.862-3.373-1.866-5.057-.007-3.443-1.94-6.724-6.809-11.556l-3.316-3.291-9.329.656c-6.518.458-11.116.239-15.257-.727-7.936-1.851-9.904-3.037-12.328-7.426-1.128-2.045-2.665-4.842-3.415-6.217-1.559-2.858-3.539-14.888-3.539-21.498 0-2.454.621-6.158 1.38-8.232.759-2.073 1.951-5.667 2.649-7.985.697-2.319 2.326-5.21 3.62-6.425 1.293-1.215 2.351-2.804 2.351-3.531 0-2.078 7.167-9.479 8.634-8.916.724.278 2.903-.157 4.841-.967 4.317-1.804 14.888-1.215 21.653 1.206 5.035 1.801 7.611 1.382 8.468-1.379.302-.975.967-2.554 1.477-3.509.51-.955.943-3.655.962-6 .037-4.421 1.63-15.741 4.401-31.264.883-4.95 2.113-11.925 2.733-15.5.619-3.575 1.714-7.85 2.432-9.5.718-1.65 2.653-7.275 4.299-12.5 4.822-15.308 6.198-19.403 7.088-21.098.462-.88 2.458-5.508 4.436-10.286 1.977-4.778 4.724-10.474 6.102-12.657 1.379-2.184 3.655-6.331 5.059-9.215 1.403-2.884 3.984-7.331 5.733-9.882 1.75-2.55 5.657-8.54 8.682-13.311 4.857-7.66 14.358-17.998 23.176-25.217 11.681-9.562 14.406-11.588 18.111-13.467 2.317-1.175 4.438-2.481 4.713-2.903 1.015-1.557 20.81-10.873 27.543-12.963 3.826-1.187 9.207-2.984 11.957-3.994 8.724-3.202 30.859-7.899 39-8.276 9.486-.439 31.018.376 37.5 1.42m-14 27.831c-7.121 1.252-21.157 8.241-23.75 11.826-2.281 3.154-2.962 6.192-1.388 6.192.475 0 2.612-1.391 4.75-3.09 5.113-4.064 9.211-5.709 18.888-7.579 8.433-1.63 20.384-1.313 29.366.777 10.105 2.352 19.924 6.071 23.159 8.772 3.106 2.593 3.404 3.316 3.404 8.282 0 11.241-8.276 21.813-26.724 34.137-12.941 8.645-18.82 11.262-32.34 14.395-3.471.805-13.266-1.641-14.298-3.569-1.973-3.685.215-4.517 13.636-5.183 7.053-.35 15.068-1.144 17.811-1.766 2.742-.621 6.295-1.391 7.895-1.712 3.256-.651 9.591-6.447 9.591-8.775 0-.831-1.345-2.643-2.99-4.027-3.776-3.178-10.548-4.094-25.403-3.437-9.839.435-11.792.837-17.107 3.524-3.3 1.668-6.857 3.982-7.905 5.142-2.604 2.883-4.438 2.654-8.241-1.032-5.654-5.481-16.322-4.98-15.187.713.183.917 3.708 3.585 7.833 5.928 7.511 4.267 9.168 6.388 7.013 8.984-1.711 2.062.252 5.009 5.255 7.89 8.082 4.655 19.377 5.647 31.831 2.796 11.186-2.561 38.643-19.952 45.493-28.814 1.6-2.069 4.096-4.908 5.548-6.309 3.8-3.666 7.741-12.114 8.308-17.809.269-2.7.769-5.639 1.111-6.532 1.927-5.02-5.159-13.317-13.447-15.747-12.869-3.772-41.043-5.922-52.112-3.977m12.5 52.851c5.508.988 3.365 1.932-7.112 3.132-10.959 1.256-15.388 1.301-15.388.156 0-.886 3.805-2.636 7.5-3.449 3.181-.7 10.648-.62 15 .161m-9.855 63.007c-1.762 1.947-1.743 2.05.658 3.623 1.605 1.051 6.629 1.991 14.334 2.679 14.637 1.309 18.568 2.656 24.618 8.435 8.02 7.662 11.134 16.274 10.065 27.842-.546 5.921-1.237 7.794-4.791 13-5.313 7.781-7.695 8.676-21.029 7.907-16.12-.929-21.751 2.904-14.284 9.724 4.694 4.288 8.816 5.309 18.815 4.661 5.946-.385 10.214-1.274 13.571-2.824 6.861-3.17 17.518-14.131 19.337-19.887.782-2.475 1.822-5.035 2.312-5.688 1.379-1.839.622-14.139-1.281-20.812-2.413-8.46-5.625-14.122-9.306-16.406-1.74-1.079-4.739-3.594-6.664-5.589-6.455-6.689-10.429-7.842-28.521-8.281-15.029-.364-16.133-.264-17.834 1.616m-45.292 18.643c-7 8.06-8.238 10.68-7.346 15.553.408 2.233 1.562 4.66 2.564 5.392 2.826 2.067 12.255 2.713 15.452 1.06 6.139-3.175 8.594-16.309 4.396-23.521-1.712-2.942-2.638-3.513-6.115-3.769-3.868-.286-4.371.011-8.951 5.285m118.465 7.767c-3.757 5.268-6.044 12.793-4.786 15.75 1.411 3.316 5.222 6.005 9.498 6.699 2.706.439 4.369-.028 7.513-2.109 4.974-3.291 6.305-6.531 5.467-13.308-.843-6.814-4.56-10.282-11.019-10.282-3.771 0-4.666.436-6.673 3.25m139.971 59.049c1.766 2.914 3.227 6.401 3.246 7.75.019 1.348.598 5.151 1.286 8.451 2.681 12.865-2.716 29.964-8.359 26.477-1.164-.72-1.159-2.042.034-8.663 2.527-14.034 2.719-25.638.541-32.817-1.744-5.752-1.83-6.497-.748-6.497.434 0 2.234 2.384 4 5.299M559.822 411.511c-.251.251-6.501.485-13.889.519-12.883.06-18.081.692-27.933 3.399-4.095 1.125-4.751 1.755-7.288 7.005-3.989 8.256-3.21 8.898 9.716 8.004 9.944-.688 29.402-1.272 41.072-1.233 7.94.026 7.869.029 16.389-.542 9.364-.628 10.616-2.125 7.671-9.173-2.279-5.455-6.654-7.504-15.664-7.334-4.182.078-8.057-.138-8.611-.48-.553-.342-1.212-.416-1.463-.165m-28.372 9.411c-1.483 1.44-8.45 2.475-8.45 1.256 0-.962 2.53-1.65 7.45-2.028 1.209-.093 1.589.201 1 .772m11.55-.123c0 .44-1.575.616-3.5.391-1.925-.225-3.5-.585-3.5-.799 0-.215 1.575-.391 3.5-.391s3.5.36 3.5.799m10.729-.195c-.332.332-1.195.368-1.916.079-.798-.319-.561-.556.604-.604 1.054-.043 1.644.193 1.312.525m26.596 95.843c1.114.844 2.138 3.46 2.629 6.718.442 2.934 1.396 8.575 2.12 12.536 1.124 6.15 1.105 7.61-.129 10-2.097 4.061-9.428 10.946-18.838 17.688-9.195 6.59-8.387 6.575-17.785.338-2.299-1.525-6.799-3.946-10-5.381-3.202-1.435-8.747-3.941-12.322-5.569-5.126-2.335-21.718-8.115-29.75-10.364-.687-.193-1.25-1.377-1.25-2.632 0-3.2 2.664-16.768 3.964-20.185 1.019-2.682 1.322-2.806 5.308-2.164 5.533.89 34.601 2.537 36.081 2.044.631-.21 4.297-.616 8.147-.902 21.109-1.572 24.616-1.952 25.094-2.726.801-1.296 4.687-.951 6.731.599m-103.788 24.567c1.845.702 2.479 1.502 2.058 2.598-.727 1.896 2.045 10.538 3.722 11.605 1.721 1.094 6.227.948 8.945-.29 1.876-.855 3.82-.562 9.547 1.439 3.955 1.382 7.191 2.305 7.191 2.053 0-.253 1.782.449 3.96 1.561 2.178 1.111 4.541 2.02 5.25 2.02.71.001 6.849 2.704 13.644 6.009 9.614 4.676 12.219 6.359 11.745 7.592-1.793 4.673-1.739 6.254.247 7.317 2.823 1.51 6.269 1.35 10.691-.498 3.475-1.452 4.084-1.444 7.506.099 3.477 1.568 3.893 1.569 6.267.014 2.103-1.378 2.452-2.227 2.016-4.908-.457-2.82-.024-3.677 3.324-6.576 2.118-1.833 7.838-7.11 12.711-11.727 4.874-4.617 10.581-9.272 12.682-10.344 2.102-1.072 4.103-2.406 4.448-2.964.345-.558 1.927-1.014 3.517-1.014 2.658 0 3.023.461 4.556 5.75.916 3.163 2.064 6.784 2.551 8.047 1.785 4.632 1.021 7.667-2.865 11.382-5.641 5.392-7.392 6.043-12.547 4.664-2.417-.646-5.15-.886-6.073-.531-1.911.733-3.609 4.553-2.877 6.475 1.771 4.655 14.132 5.123 21.486.813 2.525-1.48 5.135-3.345 5.799-4.145 2.281-2.749 4.521-1.433 14.123 8.295 11.592 11.744 15.235 17.169 14.322 21.325-.43 1.961.395 6.25 2.517 13.08 1.736 5.589 4.265 14.028 5.62 18.753 2.467 8.604 10.021 28.331 13.519 35.302 2.347 4.679 2.362 6.79.048 6.79-2.992 0-5.438 3.187-20.857 27.177-1.654 2.573-6.75 12.164-11.326 21.315-7.866 15.731-8.409 16.538-9.974 14.823-.91-.998-7.588-11.715-14.839-23.815-13.869-23.143-21.029-32.863-27.757-37.68-3.411-2.442-4.484-2.752-6.664-1.923-2.873 1.093-3.752 2.993-3.961 8.566-.077 2.051-.734 3.955-1.46 4.233-.726.279-3.458 4.563-6.072 9.521-2.935 5.565-5.581 9.328-6.918 9.837-2.647 1.006-3.743 2.591-2.375 3.436 1.96 1.211.985 5.397-2.255 9.683-6.837 9.044-11.814 17.003-12.37 19.781-.496 2.48-.141 3.108 2.542 4.495 3.066 1.585 3.093 1.663 1.583 4.582-.844 1.633-1.89 2.969-2.323 2.969-1.632 0-6.092-5.717-8.971-11.5-3.436-6.903-7.19-15.178-7.19-15.849 0-.252-1.558-3.215-3.462-6.583-1.903-3.368-5.277-10.214-7.496-15.214-2.219-4.999-6.007-11.854-8.419-15.234-2.412-3.379-4.555-7.03-4.764-8.112-.567-2.946-5.356-4.298-8.677-2.449-3.357 1.87-16.646 21.487-22.653 33.441-6.363 12.662-12.873 23-14.483 23-1.207 0-6.128-8.529-9.833-17.043-1.887-4.337-7.003-24.53-10.122-39.957-1.001-4.95-2.703-11.004-3.782-13.454-2.079-4.721-2.029-5.065 2.372-16.046 2.886-7.201 7.303-20.939 7.31-22.735.005-1.229 2.212-8.429 4.905-16 6.305-17.728 6.354-17.903 5.604-20.265-1.125-3.543-3.292-2.146-5.043 3.25-.938 2.888-5.438 14.264-10 25.282-4.563 11.017-10.624 25.867-13.469 33-2.846 7.132-8.92 20.843-13.499 30.468-9.223 19.389-10.04 21.542-8.53 22.475 1.814 1.121 1.157 4.76-3.35 18.57-2.416 7.4-4.558 14.355-4.761 15.455-.335 1.817-1.42 2.058-11.859 2.633-6.319.349-14.751.972-18.739 1.385-6.507.674-7.25.573-7.25-.987 0-.956 2.18-7.204 4.845-13.885 2.664-6.68 4.898-13.761 4.963-15.735.159-4.798 1.168-7.254 8.999-21.911 3.674-6.875 7.434-14.815 8.356-17.645 2.358-7.236 3.887-9.933 11.041-19.476 3.463-4.62 8.321-11.256 10.796-14.746 4.031-5.685 8.703-11.464 22.312-27.597 2.304-2.731 5.988-7.25 8.188-10.043 2.2-2.793 6.025-7.276 8.5-9.961 2.475-2.686 6.739-7.318 9.476-10.294 6.941-7.546 7.9-7.921 11.088-4.343 3.488 3.915 7.585 5.483 12.576 4.813 4.448-.597 8.79-4.113 13.538-10.965 1.674-2.415 3.728-4.074 5.478-4.424 5.766-1.153 6.217-5.04.904-7.788-4.697-2.429-7.663-1.076-12.73 5.807-2.458 3.339-5.335 6.678-6.393 7.419-2.973 2.082-6.01-.89-10.384-10.165-4.199-8.904-4.889-16.108-2.065-21.568 1.335-2.583 2.134-3.024 5.473-3.024 2.15 0 5.109.456 6.576 1.014m191.934 103.814c5.158 12.285 5.057 12.115 11.175 18.704 3.585 3.861 6.95 8.97 9.529 14.468 3.039 6.478 5.715 10.284 11.248 16 6.424 6.637 7.564 8.412 9.908 15.423 1.765 5.281 4.005 9.533 6.718 12.75 2.238 2.654 3.791 5.276 3.451 5.827-.364.589-6.304 1-14.451 1h-13.832l-.662-2.636c-.703-2.801-4.897-27.642-6.012-35.609-.643-4.597-2.863-10.158-10.249-25.673-1.942-4.08-5.087-11.28-6.988-16-1.902-4.72-4.323-9.985-5.382-11.7-2.453-3.975-2.457-5.174-.009-2.959 1.053.953 3.553 5.635 5.556 10.405M426.422 678.75c1.221 5.774 2.232 15.346 1.659 15.7-.718.443-8.955-.991-9.643-1.679-.266-.266.877-3.515 2.539-7.22 1.663-3.706 3.023-7.37 3.023-8.144 0-2.502 1.823-1.491 2.422 1.343m246.528 13.48c1.456 4.555.992 5.439-2.914 5.55-3.398.097-3.477-.103-1.948-4.881.599-1.869 1.288-4.037 1.533-4.816.612-1.95 1.89-.357 3.329 4.147m-90.701 4.571c2.259 3.412 2.379 4.062 1.175 6.359-1.221 2.331-1.081 2.913 1.573 6.521 3.403 4.628 13.135 23.52 12.462 24.193-.55.551-.335.828-4.18-5.374-1.704-2.75-3.779-6.658-4.61-8.684-1.511-3.683-7.665-8.699-11.333-9.237-1.01-.148-1.758-.572-1.662-.941 1.438-5.542 1.337-6.704-.843-9.653l-2.306-3.118 2.488-1.911c3.499-2.689 4.386-2.463 7.236 1.845m-85.217 5.259c.624 1.166.421 2.729-.626 4.829-1.31 2.625-1.847 2.945-3.478 2.073-2.132-1.142-2.479-4.382-.911-8.506.86-2.263 1.252-2.477 2.554-1.397.846.702 1.953 2.052 2.461 3.001m-78.848 12.44c.296 3.746.134 4.021-2.543 4.327-2.065.236-2.708-.042-2.315-1 .299-.73 1.099-3.029 1.777-5.109 1.456-4.466 2.641-3.78 3.081 1.782m259.494 4.75c.582 3.438.885 6.445.674 6.683-.704.792-2.392-1.545-2.894-4.006-1.522-7.469-1.557-8.927-.21-8.927.902 0 1.733 2.136 2.43 6.25m-103.953 3.48c-2.949 2.948-3.29 2.345-2.084-3.686l.641-3.206 2.084 2.084 2.083 2.083-2.724 2.725m-64.33 8.52c6.314 13.55 7.58 16.75 6.627 16.75-.523 0-1.469-.967-2.101-2.148-.633-1.182-3.799-4.996-7.036-8.475-3.237-3.48-5.885-6.767-5.885-7.305 0-2.111 2.393-6.072 3.669-6.072.741 0 2.868 3.263 4.726 7.25m-96.579 1.5c2.368 4.785 5.248 13.002 9.199 26.25 8.446 28.317 16.257 48.87 21.73 57.176 3.047 4.624 8.303 7.24 13.011 6.476 4.82-.782 6.665-2.762 9.772-10.488 1.474-3.665 3.578-8.914 4.676-11.664 3.271-8.192 7.579-16.641 11.556-22.666 9.827-14.887 13.5-19.834 14.724-19.834 1.401 0 9.696 8.741 12.336 13 .852 1.375 2.304 3.4 3.227 4.5 1.903 2.269 6.097 9.921 14.403 26.278C535.557 817.744 539.671 822 546.998 822c3.557 0 8.002-4.071 8.002-7.328 0-1.119 1.334-5.441 2.964-9.603 1.63-4.163 4.409-11.394 6.176-16.069 1.766-4.675 4.041-9.706 5.054-11.181 1.014-1.474 2.956-5.637 4.317-9.252 2.735-7.267 6.446-13.55 7.989-13.528 1.301.018 7.505 8.812 15.494 21.961 3.509 5.775 9.16 14.1 12.558 18.5 7.016 9.084 18.723 20.5 21.023 20.5 2.309 0 6.685-5.326 8.805-10.719 6.844-17.403 15.655-36.019 19.817-41.868 2.518-3.539 2.756-4.423 1.77-6.586-.921-2.022-.789-3.225.698-6.322 1.009-2.103 2.641-4.315 3.627-4.915 2.451-1.491 4.968 1.928 7.121 9.672 1.82 6.546 5.635 12.108 9.828 14.328 4.818 2.552 5.883 5.464 7.226 19.749.988 10.504 1.697 13.989 3.312 16.265 1.992 2.807 5.221 16.297 5.221 21.81 0 4.449-4.498 12.867-8.166 15.281-2.431 1.601-5.499 2.355-11.334 2.787-11.027.816-24.923 2.369-31.5 3.521-3.025.529-9.325 1.192-14 1.472-4.675.28-11.425.744-15 1.031-17.059 1.368-49.607 2.039-79.5 1.639-8.8-.118-22.975.084-31.5.448-10.328.442-18.003.264-23-.534-4.125-.658-13.575-1.383-21-1.611-36.031-1.107-45.308-1.5-55.277-2.34-5.927-.499-11.44-1.458-12.25-2.13-1.66-1.378-1.99-8.488-.567-12.23 1.13-2.974 2.058-15.056 2.552-33.251.209-7.701.629-15.126.933-16.5 1.149-5.191 3.36-24.85 3.43-30.497.013-1.1 1.147-6.05 2.519-11 4.462-16.093 5.303-17.16 8.476-10.75m29.542 9.5c1.923 3.987 6.017 11.255 9.096 16.151l5.6 8.9-2.049 1.909c-1.127 1.05-1.788 2.332-1.468 2.85.867 1.402-1.131 1.136-2.322-.31-.566-.687-3.02-5.075-5.453-9.75-2.432-4.675-5.897-11.097-7.7-14.271-2.659-4.683-3.154-6.427-2.624-9.25 1.002-5.339 3.069-4.213 6.92 3.771m270.671-.142c.608 2.259.842 6.197.519 8.75-.322 2.553-.846 6.667-1.164 9.142-1.495 11.645-7.912 31-10.278 31-.469 0-.918-3.19-.999-7.088-.085-4.132-1.002-9.631-2.198-13.183-1.129-3.352-2.26-9.275-2.512-13.162-.253-3.887-.661-8.784-.908-10.883-.371-3.16.003-4.236 2.177-6.25 2.156-1.999 3.667-2.434 8.441-2.434h5.816l1.106 4.108m-121.345 3.642c2.636 5.78 2.63 5.944-.116 2.944-1.412-1.543-2.568-3.68-2.568-4.75 0-2.897.777-2.375 2.684 1.806m52.459 10.285c-2.149 5.163-4.386 9.546-4.971 9.741-.586.195-2.431-1.587-4.101-3.961-1.669-2.373-3.433-4.793-3.918-5.378-1.108-1.334-3.153-5.126-3.153-5.846 0-.507 5.42-3.591 6.311-3.591.226 0-.069 1.798-.655 3.995-2.249 8.427 3.573 7.6 10.059-1.427 1.994-2.776 3.785-4.568 3.98-3.983.195.585-1.403 5.288-3.552 10.45m-255.296-1.447c1.036.326 1.197 1.868.693 6.668-1.079 10.288-3.423 22.1-5.627 28.356-1.32 3.747-2.04 8.16-1.981 12.138.05 3.438-.251 6.248-.67 6.246-.779-.004-4.741-8.687-4.788-10.496-.015-.55-.29-1.45-.611-2-1.261-2.157-4.838-15.385-5.425-20.06-.341-2.717-.692-8.517-.779-12.888-.154-7.684-.076-7.972 2.341-8.651 2.394-.673 14.036-.198 16.847.687M559 758.471c0 .26-1.111 2.983-2.468 6.053-2.236 5.055-2.66 5.478-4.5 4.493-2.87-1.536-2.554-2.898 1.671-7.225 3.326-3.406 5.297-4.641 5.297-3.321m71.744 14.962c4.726 5.909 6.245 10.577 4.377 13.445-.493.758-1.392 1.073-1.996.699-3.516-2.173-14.125-23.108-14.125-27.872 0-1.732.743-1.137 3.5 2.798 1.925 2.748 5.635 7.667 8.244 10.93m-170.789 18.778l2.455 3.1-2.565 4.595c-3.223 5.773-5.652 6.013-8.194.808-2.259-4.622-1.62-7.676 2.066-9.873 3.63-2.163 3.401-2.213 6.238 1.37M695.057 869.5c-.028 10.983-.664 13.363-3.777 14.145-5.348 1.342-11.371-3.529-6.339-5.126 1.13-.359 2.348-1.823 2.707-3.254.958-3.816-2.838-6.694-7.625-5.782-1.938.37-8.923.846-15.523 1.059-11.035.357-11.719.276-8.5-1.001 1.925-.764 5.828-1.423 8.674-1.465 12.659-.186 20.916-4.557 16.929-8.962-1.458-1.611-3.03-1.798-12.882-1.529-8.281.226-10.173.073-7.221-.582 2.2-.488 6.41-.914 9.356-.945 5.738-.062 15.989-2.385 20.118-4.559l2.526-1.33.789 5.666c.434 3.116.78 9.265.768 13.665m-297.588-7.186c-.727 3.874 1.273 6.22 4.445 5.213 1.195-.379 4.558.425 8.298 1.985 3.458 1.442 8.313 3.327 10.788 4.188 6.449 2.244 7.549 3.745 2 2.728-2.475-.454-8.376-.828-13.113-.831-9.86-.007-13.887 1.704-13.887 5.9 0 3.18 3.765 5.148 11.564 6.045 3.265.375 6.611 1.025 7.436 1.443 1.78.903 17.597 3.828 24 4.439 2.475.236 7.65.941 11.5 1.567 10.142 1.647 35.331.98 55.5-1.47 26.952-3.274 46.632-2.397 43.05 1.919-.594.715-2.985 1.587-5.315 1.936-4.057.609-37.002 2.062-43.235 1.906-1.65-.041-20.55-.354-42-.697-41.697-.665-58.756-1.386-62.063-2.622-3.678-1.375-4.483-6.989-2.957-20.63 1.215-10.864 2.588-16.333 4.1-16.333.281 0 .231 1.491-.111 3.314m66.962-.78l3.931.625-4.181 1.871c-2.3 1.03-4.181 2.344-4.181 2.921 0 1.47-4.278 1.305-10.346-.397-2.835-.795-7.112-1.95-9.505-2.566-2.393-.616-4.15-1.321-3.904-1.566.246-.246 4.679-.727 9.851-1.068 5.172-.341 9.527-.721 9.678-.844.285-.233 2.055-.024 8.657 1.024m78.969 2.406c6.545.522 13.07.758 14.5.523 5.699-.936 23.1-1.256 23.1-.425 0 2.027-8.813 2.895-31 3.055-12.925.093-25.075.109-27 .035-5.538-.214-18-3.225-18-4.35 0-1.086 16.518-.586 38.4 1.162m59.929 25.956c6.809 1.652 5.298 2.185-5.363 1.891-9.315-.256-10.482-.491-10.804-2.174-.333-1.741.133-1.839 5.988-1.267 3.493.342 8.073 1.039 10.179 1.55M613 904.937c4.125-.056 9.234-.256 11.352-.445l3.853-.342-.674 4.492c-.472 3.149-.251 5.144.74 6.675 1.704 2.632 2.947 10.967 2.124 14.246-.802 3.196-3.047 3.711-10.55 2.419-19.291-3.321-34.727-4.319-47.158-3.047-7.329.749-8.832-.076-8.084-4.435.189-1.1.644-6.127 1.012-11.171l.669-9.171 19.608.441c10.784.243 22.983.395 27.108.338m-65.907 5.813c.715 13.524.37 23.519-.827 23.978-.739.284-12.014-.439-25.055-1.606S493.501 931 488.612 931h-8.887l.686-8.75c.498-6.344 1.138-9.094 2.329-10 1.11-.845 6.037-1.283 15.201-1.351 21.996-.163 44.353-.86 44.892-1.398 1.22-1.221 4.175-.355 4.26 1.249M592 937.534c4.675.326 14.977 1.126 22.894 1.779 13.979 1.153 14.454 1.267 16.472 3.973 3.067 4.112 1.34 5.861-12.064 12.214-1.161.55-3.691 2.262-5.622 3.804l-3.512 2.805-7.919-1.502c-4.356-.827-14.31-1.819-22.119-2.205-7.809-.387-14.472-1.147-14.807-1.689-.335-.542-.941-3.962-1.345-7.599-.545-4.902-.383-7.18.625-8.802 1.602-2.574 7.817-4.169 14.397-3.694 2.475.178 8.325.591 13 .916m-90.268 2.8c.485.3 5.356.817 10.825 1.15 22.718 1.38 33.926 3.429 34.688 6.343.499 1.909-.875 13.765-1.761 15.199-.285.461-2.873 1.307-5.751 1.88-16.269 3.238-21.362 4.133-32.394 5.697l-12.16 1.724-7.62-3.765-7.619-3.765.28-12.121c.26-11.27.431-12.196 2.435-13.193 2.092-1.041 17.098-.372 19.077.851m132.253 18.416c-.024 5.758-.987 6.6-6.901 6.032-5.914-.568-7.369-1.541-4.714-3.149 1.028-.623 3.728-2.362 6-3.865 2.271-1.502 4.467-2.74 4.88-2.75.413-.01.743 1.67.735 3.732m41.941 2.127c2.777.776 3.431 2.008 2.145 4.04-.827 1.308-6.265 1.498-21.321.742-2.652-.133-2.095-2.408 1-4.087 2.849-1.546 13.653-1.959 18.176-.695m-408.009 31.502c-.229.209-3.792.683-7.917 1.054s-10.425 1.061-14 1.533c-3.575.473-12.35 1.206-19.5 1.629-7.15.424-13.225.828-13.5.899-.275.071-4.325.458-9 .86-7.955.683-14.532 1.486-54.75 6.68-48.781 6.301-55.769 7.699-53.868 10.776 1.081 1.748 7.116 2.486 10.783 1.319 3.603-1.148 15.154-2.914 40.335-6.169 8.8-1.137 19.15-2.702 23-3.477 3.85-.775 11.95-1.692 18-2.037 6.05-.345 12.125-.816 13.5-1.047 5.051-.85 29.027-2.557 30.238-2.153.687.229-6.623 1.656-16.244 3.171-9.622 1.515-19.069 3.15-20.994 3.634-1.925.483-8.675 1.566-15 2.406-17.839 2.37-35.671 6.025-37.731 7.735-1.014.842-1.033 1.387-.088 2.526 1.447 1.744 4.31 1.454 21.819-2.21 6.875-1.438 15.425-2.989 19-3.446 6.116-.782 24.365-3.942 35.5-6.146 2.75-.544 11.3-1.387 19-1.872 7.7-.485 17.6-1.571 22-2.414 18.108-3.467 30.519-5.162 45.282-6.182 7.84-.542 8.444-.435 11.327 1.99 3.668 3.086 3.93 3.106 7.197.536 3.164-2.489 4.258-5.59 2.654-7.522-1.767-2.13-14.725-1.773-39.708 1.095-4.372.501-5.687.256-7.884-1.473-2.272-1.786-8.185-2.847-9.451-1.695M809 1011c0 .55-.702 1-1.559 1s-1.281-.45-.941-1c.34-.55 1.041-1 1.559-1s.941.45.941 1m102.451 1.678c-2.916.956-28.082 3.029-28.77 2.37-.45-.432 5.175-1.33 12.5-1.995 7.326-.665 13.769-1.338 14.319-1.496 1.332-.383 3.223.704 1.951 1.121"/></svg>