<svg xmlns="http://www.w3.org/2000/svg" viewBox="0 0 1000 1000"><g fill="none" fill-rule="evenodd"><path fill="#E81F4B" d="M0 1000h1000V0H0z"/><path fill="#FFF" d="M852.0939 553.95h-116.698c-26.308 0-47.817 21.509-47.817 47.816v167.893c0 22.575 15.821 41.507 36.885 46.572v58.305l69.059-56.971h58.66c26.308 0 47.817-21.509 47.817-47.817V601.766c-.089-26.307-21.597-47.816-47.906-47.816m-587.579 0h-116.698c-26.308 0-47.817 21.509-47.817 47.816v167.893c0 26.309 21.509 47.817 47.817 47.817h58.66l69.059 56.971v-58.216c21.065-4.976 36.885-23.997 36.885-46.572V601.766c0-26.307-21.509-47.816-47.906-47.816"/><path fill="#121212" d="M780.4581 314.865c8.443-18.931 6.31-41.685-7.644-58.927-66.926-82.924-166.381-130.474-272.859-130.474-104.966 0-203.621 46.484-270.547 127.542-14.043 17.064-16.443 39.817-8.266 58.838-28.531 48.171-44.884 104.254-44.884 164.248v77.858h59.815v-77.947c0-47.284 12.621-91.723 34.486-130.119 17.242.799 34.663-6.132 46.483-20.531 45.24-54.839 111.899-86.213 182.824-86.213 71.992 0 139.185 32.174 184.513 88.257 11.199 13.954 27.641 21.154 44.262 21.154.712 0 1.422-.089 2.045-.089 21.064 37.773 33.151 81.324 33.151 127.541v77.858h59.815v-77.858c0-58.66-15.82-113.587-43.194-161.138"/></g></svg>