<svg xmlns="http://www.w3.org/2000/svg" viewBox="0 0 436 515"><defs/><path d="M407.23125 276.36875c9.0875 10.90625 15.75313 20.44688 19.99375 28.62813 4.24063 8.17813 6.66562 13.93437 7.27188 17.26875.60625 3.33125.90937 8.63437.90937 15.90312 0 8.48125-3.48437 16.50938-10.45 24.08438-6.96875 7.57187-14.0875 11.35938-21.35625 11.35938v26.35625c0 35.14062-9.54375 63.1625-28.62812 84.06562-19.08438 20.90313-45.59063 31.35313-79.52188 31.35313-40.59375 0-74.675-16.20625-102.24062-48.62188s-41.35313-71.04062-41.35313-115.875c0-21.8125 4.09063-40.89688 12.26875-57.25625s17.41875-30.29375 27.71875-41.80625 16.35938-19.99375 18.175-25.44688l-21.8125-19.99375 21.8125-21.8125v-14.54062c-33.92812 26.05313-56.65 39.07813-68.15937 39.07813-4.84688-2.425-6.66563-12.26875-5.45313-29.5375 1.2125-17.26875 4.24063-38.01875 9.0875-62.25313L135.5 107.32813l-58.1625 16.35938 21.8125 21.8125L1 135.50313l82.7-55.4375-10.90625 29.99063 58.1625-16.35938c-1.2125-7.27187 1.3625-13.48125 7.725-18.63125 6.3625-5.15 14.69375-7.725 24.99375-7.725l3.63125 17.26875 37.2625-10.90625c1.81875-6.05937 5.3-10.75312 10.45-14.0875s10.75312-3.7875 16.8125-1.3625c0-6.05937 3.48437-11.6625 10.45-16.8125 6.96875-5.15 14.69375-7.725 23.175-7.725 10.3 0 20.90312 5.45313 31.80937 16.35938l48.16563-13.63126 7.27188-18.175L417.22813 1l-10.90625 27.26563 21.8125 17.26875-63.61563 17.2625-16.35938-12.72187-44.53125 12.72187 9.99688 32.71563h-11.81563v14.54062c0 5.45312-1.2125 9.39062-3.63437 11.81563-2.425 2.425-5.15 3.02812-8.17813 1.81875l-9.0875-2.725v19.99375h21.8125c6.05938 0 14.2375 11.20937 24.53751 33.625 10.3 22.41875 18.47812 44.53125 24.5375 66.34375l9.99687-72.70313v-29.99062l-3.63437-36.35313h9.99687l3.63438 27.26563h2.725l3.63437-27.26563h9.99687l-3.63437 27.26563c4.84688 0 7.27188 3.02812 7.27188 9.0875 0 7.875-4.84688 18.175-14.54063 30.9 2.425 29.08125 1.51563 53.46875-2.725 73.15937-4.24062 19.69063-10.60312 29.5375-19.08437 29.5375-11.5125 0-26.65938-23.02187-45.44063-69.06875L287.275 255.46876c10.3 11.5125 15.45 23.93125 15.45 37.2625 0 12.72187-4.09062 23.78125-12.26875 33.17187-8.17813 9.39063-16.8125 14.0875-25.9 14.0875 0 32.1125 6.05937 57.40625 18.175 75.88438 12.11875 18.47812 27.56563 27.71875 46.35 27.71875 13.93438 0 24.69063-4.39376 32.2625-13.17813 7.57188-8.78438 11.35938-19.84375 11.35938-33.17188v-8.17812h-30.9c-12.72188 0-21.65938-4.39375-26.80938-13.17813-5.15-8.78437-7.725-24.99062-7.725-48.62187h8.17813l4.54375 8.17812h20.90312c15.75312 0 28.475 5.75625 38.16875 17.26875 0-24.84062 3.9375-40.59375 11.81562-47.25937l15.45-11.81563-6.3625-12.72187 7.26563-4.54688zM270.00312 60.07188l-18.175 15.45 19.08438 10.90625 18.175-13.63125-19.08438-12.725zm-107.24062 113.6c29.08125-21.8125 50.89375-32.71562 65.43438-32.71562h26.35624l6.36251-39.07813c-11.5125 9.0875-21.20626 13.63125-29.08126 13.63125-12.72187 0-21.50937-8.17812-26.35624-24.5375L169.125 101.87813c0 5.45313-2.12187 10.90625-6.3625 16.35938v55.43437zm39.07812 141.775l39.07813-39.07813h-39.07813v39.07813z"/></svg>