<svg xmlns="http://www.w3.org/2000/svg" viewBox="0 0 80 80"><path fill="none" d="M-1-1h82v82H-1z"/><g><path fill-rule="evenodd" d="M61.28471 46.56825c-1.79453 4.73831-5.09693 8.39933-9.83524 10.33749V46.56825l5.67141-5.09693-5.67141-5.02498v-7.10676c5.16888-.3589 8.75824-4.16354 8.75824-8.82962 0-6.1017-5.81446-8.25542-9.11686-8.25542-.71753 0-1.50758 0-2.65568.28695v.28724c.43057 0 1.07614-.07167 1.292-.07167 2.29735 0 4.02022 1.07672 4.02022 3.1585 0 1.57924-1.2923 3.15849-3.58936 3.15849-5.67141 0-12.34759-4.59412-19.59796-4.59412-6.4609 0-10.9114 4.80941-10.9114 9.69105 0 4.8097 2.79959 6.38894 5.7428 7.46566l.07195-.28724c-.93339-.57419-1.57953-1.57896-1.57953-3.15849 0-2.15344 2.0101-3.94797 4.52274-3.94797 6.1017 0 15.93637 5.09664 22.03836 5.09664h.57419v7.17871l-5.67113 4.95303 5.67113 5.09693v10.48082c-2.36873.86115-4.80969 1.22063-7.32233 1.22063-9.47576 0-15.50551-5.74337-15.50551-15.2908 0-2.29678.28695-4.52246.9331-6.67618l4.73774-2.08149V55.3262l9.61939-4.23492V29.4832l-14.14184 6.31699c1.43562-4.16355 4.37883-7.17842 7.89652-8.90129l-.07167-.21528C27.68853 28.76539 18.5 35.9441 18.5 46.71187c0 12.41897 10.48082 21.03359 22.68479 21.03359 12.92122 0 20.24354-8.61462 20.31521-21.17721h-.21529z"/></g></svg>