<svg  xmlns="http://www.w3.org/2000/svg"  viewBox="0 0 44 57"><defs/><path fill="#000" fill-rule="evenodd" d="M43.6284633 34.8996508c-1.7945333 4.7383134-5.0969333 8.3993334-9.8352466 10.3374867V34.8996508l5.6714133-5.0969333-5.6714133-5.02498v-7.1067533c5.1688866-.3589067 8.75824-4.1635467 8.75824-8.82962003 0-6.1017-5.81446-8.25542667-9.11686-8.25542667-.7175267 0-1.50758 0-2.65568.28695333v.28724c.4305733 0 1.0761466-.07166666 1.2920066-.07166666 2.2973467 0 4.0202134 1.07672 4.0202134 3.15849333 0 1.57924667-1.2922934 3.15849333-3.5893534 3.15849333-5.6714133 0-12.3475933-4.59412-19.5979666-4.59412-6.46089337 0-10.91139337 4.80940667-10.91139337 9.69105337 0 4.8096933 2.79958667 6.38894 5.74279334 7.46566l.07195333-.28724c-.93338667-.5741934-1.57953333-1.57896-1.57953333-3.1584934 0-2.15344 2.01010666-3.9479733 4.52274003-3.9479733 6.1017 0 15.9363733 5.0966467 22.03836 5.0966467h.5741933v7.1787066l-5.6711267 4.9530267 5.6711267 5.0969333v10.48082c-2.3687267.8611467-4.8096933 1.2206267-7.3223267 1.2206267-9.4757666 0-15.5055133-5.7433667-15.5055133-15.2908 0-2.2967733.2869533-4.5224533.9331-6.67618l4.73774-2.0814867v21.1049734l9.6193867-4.2349267V17.8146042l-14.14184 6.3169866c1.4356266-4.1635466 4.3788333-7.17842 7.89652-8.9012866l-.0716667-.2152867C10.0322767 17.0967908.84375 24.2754975.84375 35.0432708c0 12.4189734 10.48082 21.0335934 22.6847933 21.0335934 12.9212134 0 20.24354-8.61462 20.3152067-21.1772134h-.2152867z"/></svg>
