<svg xmlns="http://www.w3.org/2000/svg" viewBox="0 0 50 50"><defs/><path fill="none" d="M-1-1h52v52H-1z"/><g><path d="M7.340001 17.1325c-.405-1.838-.498-2.148-1.09-2.303l-.435-.125v-.436h5.508v.436l-.468.093c-.994.218-.9 1.214-.62 2.552l2.458 12.2 1.805-9.71-.654-3.33c-.249-1.182-.343-1.555-.966-1.712l-.403-.093v-.436h5.695v.436l-.685.125c-1.027.186-.87 1.307-.622 2.52l2.365 12.2 2.334-11.545c.436-2.397.218-2.99-.716-3.176l-.651-.124v-.436h3.952v.436l-.436.156c-.622.217-.778.81-1.213 2.863l-3.796 18.11h-.81l-2.927-14.126-2.646 14.13h-1.027l-3.952-18.706v.001zm21.845 18.712c-1.804 0-2.426-1.244-3.018-1.244-.342 0-.746.094-1.058 1.12h-.373v-7.095h.467c.374 4.016 1.868 6.537 3.953 6.537 1.4 0 2.365-1.276 2.365-3.58 0-4.854-6.94-6.94-6.94-12.323-.001-2.895 1.462-5.105 4.107-5.105 1.712 0 2.054 1.12 2.77 1.12.404 0 .684-.31.84-.995h.374v7.095h-.467c-.374-3.58-1.307-6.535-3.548-6.535-1.556 0-1.836 1.556-1.836 2.614 0 4.636 6.94 6.223 6.94 12.696 0 3.3-1.805 5.695-4.575 5.695m13.475-5.072c0 3.33-1.68 5.073-4.263 5.073-2.335 0-3.704-1.897-3.673-3.982.032-1.62 1.214-2.428 2.18-2.303.684.093 1.368.59 1.275 1.68-.094 1.556-1.775 1.494-1.837 2.46-.062.59.716 1.46 1.71 1.46 1.744 0 1.744-2.208 1.744-3.89v-15.092c0-.872-.28-1.12-.965-1.276l-.777-.188v-.436h6.13v.436l-.684.187c-.622.155-.84.435-.84 1.307v14.564z"/></g></svg>
