<svg xmlns="http://www.w3.org/2000/svg" viewBox="0 0 560 560"><defs/><path d="M457.9 321.8c10.1 12.4 15.1 24 15.1 34.6 0 15.4-7.4 27.4-22.2 35.9-3.5 2.1-5.6 4.7-6.2 8s-.9 9.3-.9 18.2c0 34.6-10.1 62.5-30.4 83.6-20.3 21.1-47.3 31.7-81 31.7-40.2 0-74.1-16-101.6-48.1s-41.3-70.6-41.3-115.6c0-16.9 2.6-32.4 7.8-46.6 5.2-14.2 11-25.2 17.5-33.1 6.5-7.8 13-15.9 19.5-24.2 6.5-8.3 10.7-15.1 12.4-20.4-2.7-.9-6.8-3.4-12.4-7.5-16.9 10-28.7 15.1-35.5 15.1-3 0-5.8-1.1-8.4-3.3-2.7-2.2-5-5.3-6.9-9.3-2-4.3-3.8-8.6-5.3-13.1-1.8-5.4-3.1-10.8-4-16.4-1-6.2-1.9-12-2.7-17.3s-1.3-11.1-1.8-17.3l-1.1-15.5s-.2-4.3-.7-12.9c-.4-8.6-.5-11.1-.2-7.5-2.7-3.8-4.4-7.7-5.3-11.5l-47 12.4 20.4 16-85.6-4 72.3-46.6-10.2 24 39.9-10.7c1.5-16.9 11.2-25.3 29.3-25.3v8c6.8 0 12 1.8 15.5 5.3l44.4-12c1.2-5.9 4.4-11 9.8-15.3 5.3-4.3 11.1-6.9 17.3-7.8 8-10.7 19.4-16 34.2-16 6.2 0 11.6.9 16.2 2.7 4.6 1.8 7.7 3.4 9.3 4.9 1.6 1.5 3.9 3.8 6.9 7.1l37.7-10.7 8-1.8 7.5-17.8 57.3-15.1-10.2 23.1 20.9 16-57.7 15.6-14.6-11.6-43.5 12 5.8 32.8h-7.5v20.9c0 8.9-5.5 11.7-16.4 8.4v16.4c17.7 0 28.1.3 31.1.9 12.7 3 23.5 23.1 32.4 60.3 1-3.6 2.2-7.2 3.6-10.7 1.7-4.6 3.2-9.2 4.4-14 1.2-4.4 1.8-9 1.8-13.5-3.3-3.6-4.9-8.4-4.9-14.6v-48.3h9.8v24c2-1.3 4.3-2.2 6.7-2.7l6.7-21.3h9.8l-9.3 28c9.5.9 14.2 6.4 14.2 16.4 0 9.5-2.4 16.3-7.1 20.4.6 16.9.6 31.7 0 44.6-.6 12.9-1.9 23.7-4 32.6-2.1 8.9-5.4 15.5-10 20S397.1 289 390 289c-16 0-30.8-21-44.4-63l-20.4 49.7c10.1 11.8 15.1 24.1 15.1 36.8 0 17.7-8.6 34-25.7 48.8.3 15.4 2.2 29.9 5.8 43.5 3.6 13.6 9.8 25.5 18.9 35.7 9 10.2 20 15.3 33.1 15.3 8.3 0 16.1-2.3 23.5-6.9 7.4-4.6 11.1-11.8 11.1-21.5 0-4.7-1.7-8.4-5.1-11.1-3.4-2.7-7.8-4-13.1-4h-9.3c-29 0-43.5-21.3-43.5-63.9l12-2.2c2.1 4.7 3.8 7.5 5.3 8.4.3 0 1.9-1 4.9-2.9 2.9-1.9 6-3.5 9.3-4.7 3.3-1.2 6.7-1.8 10.2-1.8 9.2 0 17.6 3.8 25.3 11.5-1.2-12.4-.4-21.2 2.2-26.4 2.7-5.2 7.7-9.2 15.1-12.2 7.7-3.3 11.8-5.9 12.4-8 1.2-3.3.7-7.8-1.3-13.8l10.2-4c3.2 11 8.9 20.9 16.3 29.5zM395.8 50.3l-2.7 5.8 32.4-8.4 1.3-5.3-31 7.9zm36.4 11l-4.4-4-31.5 8.4 4.4 4 31.5-8.4zM272 85.3c-6.8 0-12.4 3-16.9 8.9l18.2-4.9c2.4 4.4 5.6 6.7 9.8 6.7 3.3 0 5.8-.9 7.5-2.7 1.8-1.8 3.7-4.9 5.8-9.3 3.5-7.1 6.5-11.5 8.9-13.3-5.9-.9-11.2-.4-16 1.6-4.7 1.9-7.9 3.8-9.5 5.8-1.6 1.9-2.4 3.2-2.4 3.8l-1.8 3.5-3.6-.1zm47-12c-4.4 0-9.2 4.9-14.2 14.6-3.3 9.2-8.6 14.6-16 16.4 0 1.8.8 3.3 2.4 4.7s3.8 1.8 6.4 1.6l1.8 16.4c15.4 5.6 25 8 28.8 7.1v-9.3l-11.1-2.7V115l11.1 2.7v-11.5h6.7c-2.3-21.9-7.6-32.9-15.9-32.9zm-23.9 9.3c-4.1 0-6.2 2.7-6.2 8h-8.4c0-4.7 1.6-8.6 4.7-11.5 3.1-3 6.4-4.4 10-4.4l-.1 7.9zm35 7.6c-7.1 3.5-10.9 5.3-11.5 5.3-1.2 0-5.3-1.8-12.4-5.3 5.3-4.1 9.5-6.2 12.4-6.2 2.4 0 6.2 2 11.5 6.2zm-72.7 12l-3.5.9c1.2 10.1 6.4 15.1 15.5 15.1 4.7 0 9.3-1.6 13.8-4.9-2.3-2.2-3.6-5.3-3.5-8.4-5-.9-8.6-2.8-10.7-5.8l-3.5.9c0 4.7 2.8 7.1 8.4 7.1v7.1c-10.2 0-15.6-4-16.5-12zm-95 15.5l17.3-4.4v-8.4c-10.6-.1-16.4 4.2-17.3 12.8zm40.4 8.9c0 8.9-3.3 15.2-9.8 19.1.9 8.3 3.5 17.9 8 28.8 4.4 11.5 7.5 21.3 9.3 29.3 15.1-17.2 26.9-30 35.5-38.6 3.8-3.8 10.4-6.9 19.5-9.3 8.6-1.8 15.4-4.7 20.4-8.9l3.1-17.3-.8-6.7c-5.6 4.4-11.8 6.7-18.6 6.7-7.1 0-13-2.1-17.8-6.2-4.7-4.1-8.1-9.5-9.8-15.5l-39.9 10.7c.6 2.5.9 5.2.9 7.9zm-31.1 0c1.2 8.3 4.4 12.4 9.8 12.4 7.7 0 11.5-4.1 11.5-12.4 0-5.3-.8-8.6-2.4-10s-4.7-2-9.1-2v9.3l-9.8 2.7zm32 268c.3 2.3 1.6 4.5 3.6 5.8 2.1 1.5 4 2.2 5.8 2.2 3.3 0 5.8-1.2 7.5-3.5 1.8-2.4 2.8-4.7 3.1-7.1l.4-3.1c-8-5-12-13.5-12-25.3h10.7c0-10.1 3.7-20.7 11.1-31.9l-7.5-19.5 9.3-3.5 6.7 18.6 24.4-11.5 5.3 8.4c-12.1 6.2-20 10.1-23.5 11.5-8.9 5-13.3 14.9-13.3 29.7h-12c0 10.4 3.8 15.5 11.5 15.5 7.1 0 10.7-5.8 10.7-17.3h11.1c0 13.3-4.1 21.7-12.4 25.3.9 9.2 4.6 13.8 11.1 13.8 7.7 0 11.5-4.6 11.5-13.8H277c.3-7.7 2.4-13.9 6.4-18.6 4-4.7 9.7-9.5 17.1-14.2 18-12.1 27.1-26.6 27.1-43.5 0-10.9-5.3-22.3-16-34.2l24-60.8 11.1-29.3 4.4 17.3c5.3 20.1 11.7 37.1 19.1 51 7.4 13.9 13.9 20.9 19.5 20.9 8.6 0 14.2-7.2 16.9-21.7 2.7-14.5 3.7-36.5 3.1-66.1h-3.1c-.6 7.1-3.2 17.3-8 30.6-4.7 13.3-7.1 25.4-7.1 36.4H380c0-10.9-3.4-27.4-10.2-49.2-6.8-21.9-13.2-33.4-19.1-34.6-3.3-.9-16.3-1.3-39-1.3v-30.2l-12-3.5-7.1 38.2-11.5-2.2 2.2-11.1c-1.5.6-6.5 2.2-15.1 4.9-6.8 1.5-11.5 3.5-14.2 6.2-18.2 18.2-35.4 37.5-51.5 57.7l-1.8-13.3c-1.2-11.5-4.6-24.5-10.2-39-4.7-12.7-7.5-22.8-8.4-30.2l-4-.4c.8 15.8 2.5 31.6 5.1 47.3 2.5 14.6 5.2 26 8 33.9 2.8 8 5.4 12.1 7.7 12.4 5 0 14.3-4.3 28-12.9l-2.2-5.8 27.1-33.3 8 5.8-17.8 20c1.8.9 2.7 2.7 2.7 5.3 0 4.1-2.1 6.2-6.2 6.2l-1.8-.4c4.1 7.1 12.3 11.2 24.4 12.4-.5 3.9-1.4 7.8-2.4 11.5-1 3.5-3 7.4-6 11.5s-4.9 6.8-5.8 8c-.9 1.2-3.6 4.4-8 9.8-7.7 9.5-13.5 17.1-17.3 22.9s-8 14.9-12.4 27.5c-4.5 12.8-6.7 26.2-6.7 39.7-.2 7.1.3 15.2 1.2 24.1zm210.3-245c-5.9 0-9.8 1.3-11.5 4s-2.7 7.1-2.7 13.3c2.7-6.5 7.4-9.8 14.2-9.8v-7.5zm-6.2 23.1h-8c.9 5.3 4.4 8 10.7 8 5.9 0 8.9-5.3 8.9-16 0-4.4-1.5-7-4.4-7.5v7.5c-4.9 0-7.2 2.7-7.2 8zm-112.7 54.6c-4.4 0-6.7-2.1-6.7-6.2.1-3.6 3-6.6 6.7-6.7 4.1 0 6.2 2.2 6.2 6.7 0 4.1-2.1 6.2-6.2 6.2zm0 20.9c-7.7 0-13.9-2.5-18.6-7.5s-7.1-12-7.1-20.9h9.8c0 5.6 1.5 10.1 4.4 13.3 3 3.3 6.8 4.9 11.5 4.9s8.7-1.7 11.8-5.1c3.1-3.4 4.7-7.8 4.7-13.1h9.3c0 8.9-2.4 15.8-7.1 20.9-4.8 5-11 7.5-18.7 7.5zm-37.3 44.3c-3.8 0-5.8-1.8-5.8-5.3 0-3.8 1.9-5.8 5.8-5.8 3.5 0 5.3 1.9 5.3 5.8 0 3.5-1.7 5.3-5.3 5.3zM442 384.8c12.4-6.5 18.6-16 18.6-28.4 0-1.4-.1-2.8-.2-4.2-.1-1.2-.3-2.4-.7-3.5-.4-1.2-.8-2.4-1.3-3.5-.6-1.3-1-2.3-1.3-2.9-.3-.6-1-1.7-2-3.3-1-1.6-1.6-2.6-1.8-2.9-.2-.3-.9-1.4-2.2-3.3-.8-1.2-1.6-2.3-2.4-3.3-1.1-1.5-2.3-3-3.5-4.4-1.5-1.7-2.8-3.4-4-5.3l-3.5 2.6c7.4 10.4 11.5 20.1 12.4 29.3.9 6.8-.1 12.9-3.1 18.4-3.1 5.6-7.1 10.7-11.8 15.1-4.9 4.6-7.8 7.6-8.7 9.1h7.1c.8-3.7 3.6-6.8 8.4-9.5zm-11.6-58.1l-3.5 2.2c6.8 11.8 7.7 24.9 2.7 39-.9 3.5-4 9.2-9.3 16.9l1.8 1.8c12.7-11.2 19.1-21.6 19.1-31.1-.2-12.1-3.7-21.7-10.8-28.8zm-18.6 23c0 3 .2 6.1.7 9.1.5 2.9 1.1 5.8 2 8.7.9 3 1.5 5.2 1.8 6.7 4.9-6.5 7.6-14.5 7.5-22.6 0-7.7-1.6-14.3-4.9-20-4.8 2-7.1 8.1-7.1 18.1zm-3.1 28c-4.1-5.9-9.7-11-16.6-15.3-7-4.3-12.6-6.3-17.1-6 7.3 11 18.6 18.1 33.7 21.3zM367 359.9l-4.9 3.6c3.6 9.5 8.9 16.1 16.2 20 7.2 3.8 18.3 6.2 33.1 7.1v-2.2c-7.4-1.8-12.8-3.3-16.2-4.4s-8-3.8-13.8-8c-5.9-4.3-10.8-9.8-14.4-16.1zm39.9 46.2l4.9-7.5c-17.2-.9-30.2-3.8-39-8.7-8.9-4.9-15.2-12.8-19.1-23.7h-4.4c2.7 23.1 12.6 34.6 29.7 34.6h7.5c8.6 0 15.4 1.7 20.4 5.3zm-117.6-17.3h9.8c0 6.8 2.8 11.2 8.4 13.3-3.3-10.6-4.9-21.7-4.9-32.8-8.6 4.1-13 10.6-13.3 19.5zm-5.8 30.6c3.1.1 6-1.2 8-3.5 2.1-2.4 3.1-5.5 3.1-9.3-4.1-5.6-6.2-10.9-6.2-16h-11.1c0 5.8-1.8 11.4-5.3 16 0 8.5 3.9 12.8 11.5 12.8zm-49.6-26.2c-1.5 7.7-5.3 13.5-11.5 17.3 1.5 5.6 5.2 8.4 11.1 8.4 6.2 0 9.8-3.1 10.7-9.3-5.5-3.2-8.9-8.7-10.3-16.4zm199.2 24v-13.3c-8.9-1.2-14.5.9-16.9 6.2 6.2 0 11.8 2.4 16.9 7.1zm-164.2 8c-4.4-3.3-6.8-7.7-7.1-13.3h-7.1c-1.8 6.5-4.6 11.1-8.4 13.8.6 8 4.4 12 11.5 12 3.1.1 6-1.2 8-3.6 2.1-2.4 3.1-5.4 3.1-8.9zM215.7 438c4.1-2.7 6.4-6.4 6.7-11.1-5.6-2.1-9.2-7-10.6-14.6h-4.5c.8 6.8 3.6 15.4 8.4 25.7zM316 426.5l-5.3-12.9h-6.2c-.9 5.3-3.8 9.6-8.9 12.9.9 7.4 4.6 11.1 11.1 11.1 6.1 0 9.2-3.7 9.3-11.1zm101.5 7.5c3-2.1 7-3.1 12-3.1-2.4-6.5-6.4-9.8-12-9.8V434zm-194.3 11.6c1.2 7.7 5.5 11.5 12.9 11.5 6.5 0 10.1-3.8 10.6-11.5-5.6-3.3-9.3-8.4-11.1-15.5h-3.5c-.3 5.9-3.3 11.1-8.9 15.5zm69.7-1.3c-3.9-3.9-6.7-8.8-8-14.2h-5.3c-1.5 6.2-4.6 10.9-9.3 14.2 1.5 7.7 5.5 11.5 12 11.5 7 0 10.6-3.9 10.6-11.5zM420.2 474c5.6-8.9 9.3-19.5 11.1-31.9-7.7 0-12.7 2.2-15.1 6.7 6.8 7.3 8.1 15.7 4 25.2zm-99.4-19.1c0-2.4-.7-5.8-2.2-10.2-3.6 1.8-7.5 2.7-11.5 2.7h-2.7c-.8 3.7-2.5 7.2-4.9 10.2 3.3 4.4 7.4 6.7 12.4 6.7 5.9-.1 8.9-3.2 8.9-9.4zm-71.9 8.5c.3 2.1 1.5 4.3 3.5 6.7 2.1 2.4 4.6 3.6 7.5 3.5 5.9 0 8.9-3.7 8.9-11.1-4.1-3.3-7-8-8.4-14.2h-3.1c-1.1 7.4-3.9 12.4-8.4 15.1zm82.1-15.2v8.9c5.6 3.3 9.2 7 10.7 11.1 5 0 8.3-1.5 9.8-4.4-6.6-2.7-13.4-7.9-20.5-15.6zm80.3 18.2c1.5-5 0-9.2-4.4-12.4-3 3.5-6.2 6.2-9.8 8v.4c5.7-.2 10.4 1.1 14.2 4zm-136.6 9.8c3.3 7.1 7.7 10.7 13.3 10.7 2.1 0 4-1 5.8-2.9 1.7-1.7 2.6-4 2.7-6.4 0-4.4-1.6-8.7-4.9-12.9-3.9 1.2-7.9 1.8-12 1.8 0 4.1-1.7 7.3-4.9 9.7zM387.8 466c-5.9 1.5-10.9 2.2-15.1 2.2 2.4 1.8 4 4.3 4.9 7.5 6.2 0 9.6-3.1 10.2-9.3v-.4zm-134.9 25.3c3.3-2.1 5.2-4.6 5.8-7.5-4.4 0-7.8-.9-10.2-2.7-3.5-2.1-6.9-6.5-10.2-13.3h-6.7c6.1 8.7 13.3 16.6 21.3 23.5zm74.1-23.5c-3.8 5.3-10.2 8-19.1 8v3.1c5 2.1 9.2 5.6 12.4 10.6 2.4 0 5-1 7.8-2.9s4.2-4.1 4.2-6.4c0-2.7-.6-5.3-1.8-7.8-1.1-2.5-2.3-4-3.5-4.6zm32.4 4.4c-.5.5-.9 1-1.3 1.6-.4.5-.9 1.1-1.3 1.6-.6.5-1.3 1-2 1.3-.9.5-1.9.9-2.9 1.1-.9.1-2.1.4-3.8.7-1.7.3-3.4.4-5.1.4v3.1c6.2 1.8 10.8 5.6 13.8 11.5 7.1-.6 10.7-4.1 10.7-10.7-.1-7.1-2.8-10.6-8.1-10.6zm43.9 22.6c6.8-3.5 8.4-8.7 4.9-15.5-2.1-5-6.1-7-12-5.8l-3.1 5.3c2.7 1.5 5 4 7.1 7.5s3.1 6.5 3.1 8.5zm-11.9 8.5c1.2-2.1 1.6-4.7 1.3-8-.3-3.5-1.8-6.1-4.4-7.8-2.7-1.6-5.9-2-9.8-1.1-.3 3.8-1.9 7.4-4.9 10.7 4.1 2.4 7.4 6.2 9.8 11.5 3.8-.9 6.5-2.7 8-5.3zM279.6 509c3-3 3.5-7.4 1.8-13.3-5.3-1.8-9.2-4.7-11.5-8.9-1.5 4.1-4 8-7.5 11.5 5.1 4.4 10.9 8 17.2 10.7zm22.1 2.3c2.7 0 5-1.3 6.9-4 1.9-2.6 2.9-5.7 2.9-8.9 0-3.8-2.5-6.9-7.5-9.3-1.2 4.7-5 7.4-11.5 8v10.2c2.6 2.6 5.7 4 9.2 4zm33.8 2.6c3.6 0 6.4-1 8.7-3.1 2.2-2.1 3.3-4.7 3.3-8 0-5.9-3-9.6-8.9-11.1-1.2 1.8-2.7 3.5-4.4 4.9-3.3 2.4-7.1 3.5-11.5 3.5 0 .6-.3 2.1-.9 4.4 6.5 1.9 11 5 13.7 9.4zm12.4 7.1c9.8-1.5 18.3-3.4 25.7-5.8-.3-3.6-2.1-6.2-5.3-8-3.1-1.7-6.6-2.7-10.2-2.7-.3 7.5-3.7 13-10.2 16.5zm-37.7-1.3c4.7 1.2 10.7 1.8 17.8 1.8-1.5-4.1-5.2-6.5-11.1-7.1l-6.7 5.3z" data-name="Nei.st"/></svg>
