<svg xmlns="http://www.w3.org/2000/svg" viewBox="0 0 975.87 1170.43"><path d="M941.06 681q34.82 43 34.81 79.87 0 53.25-51.2 82.95-12.28 7.15-14.33 18.43t-2.05 42q0 119.8-70.15 193t-186.88 73.21q-139.26 0-234.49-111.1t-95.23-266.78q0-58.38 17.92-107.52t40.44-76.29Q402.43 581.64 425 553t28.67-47.1q-9.21-3.08-28.67-17.41-58.4 34.78-82 34.77-10.25 0-19.46-7.68t-15.87-21.5a279.06 279.06 0 01-12.29-30.21 237.63 237.63 0 01-9.17-37.87q-3.58-21.5-6.15-39.93T276 346.11l-2.56-35.84s-.51-9.9-1.54-29.69-1.19-25.6-.51-17.41q-9.21-13.32-12.29-26.63l-108.57 28.68 47.1 36.86L0 292.86l166.91-107.52-23.55 55.3 92.16-24.58q5.11-58.37 67.58-58.36v18.43q23.56 0 35.84 12.29l102.4-27.65q4.1-20.49 22.53-35.33t39.94-17.92q27.65-36.87 78.85-36.86 21.5 0 37.37 6.14t21.51 11.26q5.63 5.13 15.87 16.39l87-24.58 18.43-4.09 17.41-41L912.38 0l-23.55 53.25L937 90.11 803.84 126l-33.79-26.67L669.7 127l13.3 75.75h-17.4v48.13q0 30.72-37.89 19.46v37.88q61.44 0 71.68 2 44 10.25 74.75 139.27a251 251 0 018.2-24.58 319.31 319.31 0 0010.24-32.26 124.65 124.65 0 004.09-31.23q-11.26-12.29-11.26-33.79V216.06h22.53v55.3a45 45 0 0115.36-6.14l15.36-49.16h22.52l-21.5 64.52q32.77 3.06 32.77 37.88 0 32.78-16.39 47.11 2.06 58.37 0 102.91t-9.21 75.26q-7.17 30.72-23 46.08t-40.45 15.36q-55.29 0-102.4-145.4l-47.1 114.68q34.82 41 34.81 85 0 61.44-59.39 112.64 1 53.24 13.31 100.35t43.52 82.43q31.23 35.32 76.29 35.33 28.67 0 54.27-15.87t25.6-49.67q0-16.38-11.77-25.6t-30.21-9.21h-21.55q-100.35 0-100.35-147.46l27.65-5.12q7.17 16.38 12.29 19.46 1 0 11.26-6.66a105.46 105.46 0 0121.51-10.75 68.4 68.4 0 0123.55-4.1q31.74 0 58.37 26.63-4.09-43 5.12-60.93T853 672.77q26.63-11.26 28.67-18.43 4.1-11.26-3.07-31.75l23.55-9.21A208.34 208.34 0 00941.06 681zM797.7 54.27l-6.15 13.31 74.75-19.45 3.08-12.29zm84 25.6l-10.24-9.21-72.7 19.45L809 99.33zM512 135.17q-23.55 0-38.91 20.48l42-11.27q8.19 15.36 22.53 15.36 11.26 0 17.41-6.14t13.31-21.5q12.28-24.59 20.48-30.72-20.47-3.07-36.86 3.58t-22 13.31q-5.62 6.66-5.63 8.71l-4.1 8.19zm108.54-27.65q-15.36 0-32.76 33.79-11.26 31.74-36.87 37.89 0 6.15 5.63 10.75t14.85 3.59l4.1 37.88q53.25 19.46 66.56 16.39V226.3l-25.6-6.14v-16.38l25.6 6.14V183.3h15.36q-8.19-75.78-36.87-75.78zM565.25 129q-14.34 0-14.34 18.44h-19.45q0-16.4 10.75-26.63t23-10.24zm80.89 17.41q-24.57 12.28-26.62 12.29-4.1 0-28.67-12.29 18.43-14.34 28.67-14.33 8.19.02 26.62 14.35zm-167.93 27.67l-8.19 2q4.1 34.82 35.84 34.81 16.38 0 31.74-11.26a26.59 26.59 0 01-8.19-19.46q-17.42-3.06-24.58-13.31l-8.19 2.14q0 16.38 19.46 16.38v16.39q-34.82 0-37.89-27.65zm-219.14 35.84L299 199.68v-19.46q-36.86 0-39.93 29.7zm93.19 20.48q0 30.72-22.53 44 3.07 28.68 18.43 66.56 15.36 39.94 21.5 67.59 52.23-59.4 81.92-89.09 13.32-13.29 45.06-21.46 29.7-6.14 47.1-20.48l7.17-39.93-2-15.36q-19.46 15.36-43 15.36-24.58 0-41-14.34a73.23 73.23 0 01-22.53-35.84L350.21 212a95.29 95.29 0 012.05 18.43zm-71.68 0q4.1 28.66 22.52 28.67 26.63 0 26.63-28.67 0-18.43-5.63-23t-21-4.61v21.51zm73.72 618.5a18.74 18.74 0 008.2 13.31q7.15 5.12 13.31 5.12 11.26 0 17.41-8.19t7.16-16.39l1-7.17q-27.65-17.4-27.65-58.36h24.58q0-34.82 25.6-73.73l-17.41-45.06 21.5-8.19 15.36 43 56.32-26.63L512 686.08q-42 21.51-54.27 26.62Q427 730.11 427 781.31h-27.64q0 35.85 26.62 35.84 24.58 0 24.58-39.93h25.6q0 46.08-28.67 58.36 3.08 31.75 25.6 31.75 26.63 0 26.62-31.75h23.55q1-26.62 14.85-43t39.43-32.77Q640 717.83 640 659.46q0-37.89-36.86-78.85l55.29-140.29L684 372.74l10.24 39.93q18.43 69.63 44 117.76t45.06 48.13q29.7 0 38.91-50.18t7.17-152.57h-7.17q-2 24.57-18.43 70.65t-16.38 84h-26.57q0-37.89-23.55-113.66t-44-79.87q-11.26-3.07-90.11-3.08v-69.66L575.49 256l-16.39 88.06-26.62-5.12 5.12-25.6q-5.11 2.06-34.82 11.27-23.55 5.11-32.76 14.33a1562.35 1562.35 0 00-118.79 133.12l-4.09-30.72q-4.09-39.93-23.56-90.11-16.38-44-19.45-69.63l-9.22-1a937.2 937.2 0 0011.78 109.05q8.7 50.69 18.43 78.34T343 496.64q17.41 0 64.51-29.7l-5.12-13.31 62.47-76.8 18.43 13.31-41 46.08q6.13 3.07 6.14 12.29 0 14.34-14.33 14.34l-4.1-1q14.34 24.58 56.32 28.68a193 193 0 01-5.63 26.62q-3.58 12.28-13.83 26.62t-13.31 18.44q-3.08 4.1-18.43 22.52-26.62 32.77-39.94 52.74t-28.67 63.49a273.31 273.31 0 00-15.36 91.65q0 25.59 3.07 56.32zm485.38-565.25q-20.48 0-26.62 9.21t-6.15 30.72q9.23-22.51 32.77-22.52zm-14.34 53.25h-18.43q3.08 18.42 24.58 18.43 20.47 0 20.48-36.87 0-15.36-10.24-17.4v17.4q-16.38 0-16.39 18.44zm-260.09 126q-15.36 0-15.36-14.34a15.76 15.76 0 0115.36-15.36q14.34 0 14.33 15.36 0 14.34-14.33 14.34zm0 48.13q-26.62 0-43-17.41t-16.38-48.13h22.52q0 19.46 10.24 30.72t26.63 11.26q16.38 0 27.13-11.77t10.76-30.21h21.5q0 30.72-16.38 48.13t-43 17.41zm-86 102.4q-13.31 0-13.31-12.29 0-13.32 13.31-13.31 12.28 0 12.29 13.31-.02 12.24-12.31 12.24zm425 213q43-22.53 43-65.54a88.7 88.7 0 00-.51-9.73 50.28 50.28 0 00-1.54-8.19 62.31 62.31 0 00-3.07-8.19q-2.05-4.61-3.07-6.66t-4.61-7.68c-2.39-3.75-3.75-6-4.1-6.65s-2-3.24-5.12-7.68a89.83 89.83 0 00-5.63-7.68 125.58 125.58 0 00-8.19-10.24 95.14 95.14 0 01-9.22-12.29L894 682q25.6 35.85 28.67 67.59 3.07 23.55-7.16 42.49a137.49 137.49 0 01-27.14 34.82q-16.89 15.87-20 21h16.39q3.06-12.29 19.45-21.5zm-26.68-134.21l-8.19 5.12q23.55 41 6.14 90.12-3.07 12.28-21.5 38.91l4.09 4.09q44-38.91 44-71.68 0-42-24.57-66.56zm-43 53.25a134 134 0 001.54 21 152.29 152.29 0 004.6 20q3.07 10.25 4.1 15.36a85.79 85.79 0 0017.41-52.22q0-26.62-11.27-46.08-16.38 7.17-16.38 42zM827.39 810q-14.34-20.47-38.4-35.32t-39.42-13.83q25.59 37.89 77.82 49.15zm-96.25-41l-11.27 8.2q12.29 32.8 37.38 46.1t76.29 16.38v-5.12q-25.6-6.15-37.38-10.24t-31.74-18.43A119.39 119.39 0 01731.14 769zm92.16 106.5l11.26-17.41q-59.38-3.08-90.11-20t-44-54.78h-10.27q9.21 79.88 68.6 79.87h17.41q29.7.05 47.11 12.34zm-271.36-39.92h22.52q0 23.56 19.46 30.72a257.79 257.79 0 01-11.26-75.77q-29.7 14.34-30.72 45.05zm-13.32 70.66a23.39 23.39 0 0018.44-8.19q7.16-8.19 7.16-21.51-14.33-19.45-14.33-36.86h-25.6A59.91 59.91 0 01512 876.54q0 29.7 26.62 29.7zm-114.68-60.42q-5.13 26.63-26.63 39.94 5.13 19.46 25.6 19.46 21.51 0 24.58-21.51-18.44-11.26-23.55-37.89zm459.77 55.3V870.4q-30.72-4.1-38.91 14.34 21.51 0 38.91 16.38zm-378.88 18.43q-15.36-11.26-16.38-30.72h-16.39q-6.13 22.53-19.45 31.75 2 27.64 26.62 27.64a23.36 23.36 0 0018.43-8.22q7.17-8.19 7.17-20.48zM382 949.25q14.34-9.22 15.36-25.6-19.46-7.17-24.57-33.79H362.5q3.06 23.55 19.5 59.39zm231.43-26.63l-12.29-29.69h-14.39q-3.07 18.44-20.48 29.69 3.08 25.61 25.6 25.6 21.51 0 21.51-25.6zM847.87 940q10.25-7.17 27.65-7.17-8.19-22.51-27.65-22.52V940zm-448.51 26.66q4.09 26.63 29.7 26.62 22.51 0 24.57-26.62-19.45-11.26-25.63-35.84h-8.19q-1 20.48-20.48 35.84zm160.77-3.08a70.74 70.74 0 01-18.43-32.76h-12.29q-5.13 21.49-21.51 32.76 5.13 26.63 27.65 26.63 24.59 0 24.58-26.63zM854 1032.19q19.46-30.72 25.6-73.73-26.62 0-34.82 15.36 23.57 25.61 9.22 58.37zm-229.38-44q0-8.19-5.12-23.55a58.77 58.77 0 01-26.62 6.14h-6.15a58 58 0 01-11.26 23.55q11.26 15.36 28.67 15.36 20.48 0 20.48-21.5zm-165.89 19.46q1 7.15 8.19 15.36t17.41 8.19q20.49 0 20.48-25.6-14.34-11.27-19.45-32.77h-7.17q-4.07 25.58-19.44 34.79zm189.46-34.85v20.48q19.45 11.26 24.58 25.6 17.4 0 22.53-10.24-22.53-9.21-47.11-35.84zm185.35 42q5.12-17.4-10.24-28.67-10.24 12.28-22.53 18.43v1q19.46-1.01 32.77 9.22zm-315.4 22.53q11.26 24.59 30.72 24.58 7.17 0 13.32-6.66a21.39 21.39 0 006.14-14.85q0-15.36-11.26-29.69a87.23 87.23 0 01-27.65 4.09q0 14.32-11.27 22.51zm261.12-23.55q-20.47 5.12-34.81 5.12 8.19 6.15 11.26 17.41 21.51 0 23.55-21.51zM468 1072.13q11.26-7.17 13.31-17.41-15.36 0-23.55-6.14-12.28-7.17-23.55-30.72h-15.39a287.18 287.18 0 0049.18 54.27zm171-54.27q-13.32 18.42-44 18.43v7.17q17.41 7.15 28.68 24.57 8.19 0 17.92-6.65t9.72-14.85a41.62 41.62 0 00-4.09-17.92q-4.15-8.7-8.23-10.75zm74.75 10.24a46.26 46.26 0 00-3.07 3.58 45.81 45.81 0 01-3.08 3.58 25 25 0 01-4.6 3.08 20.73 20.73 0 01-6.66 2.56q-3.08.51-8.7 1.53a66 66 0 01-11.78 1v7.16q21.51 6.15 31.74 26.63 24.58-2.05 24.58-24.58 0-24.57-18.43-24.57zm101.37 52.22q23.56-12.28 11.27-35.84-7.17-17.42-27.65-13.31l-7.17 12.29q9.23 5.11 16.39 17.4t7.16 19.46zm-27.64 19.46q4.1-7.17 3.07-18.44-1-12.28-10.24-17.92t-22.53-2.56q-1 13.32-11.26 24.58 14.32 8.19 22.52 26.62 13.32-3.06 18.44-12.28zm-258.05 13.31q10.23-10.24 4.09-30.72-18.42-6.15-26.62-20.48-5.11 14.34-17.41 26.62a179 179 0 0039.94 24.58zm51.2 5.12q9.21 0 15.87-9.22a34.15 34.15 0 006.66-20.48q0-13.3-17.41-21.5-4.1 16.38-26.63 18.43V1109q9.21 9.22 21.49 9.21zm77.82 6.14q12.29 0 20-7.17t7.68-18.43q0-20.48-20.48-25.6a56 56 0 01-10.24 11.27q-11.26 8.19-26.62 8.19 0 2-2 10.24 22.53 6.14 31.74 21.5zm28.67 16.39q33.79-5.13 59.4-13.32-1-12.29-12.29-18.43a48.58 48.58 0 00-23.55-6.14q-1 25.59-23.56 37.89zm-87-3.08q16.4 4.1 41 4.1-5.12-14.34-25.6-16.38z" data-name="Nei.st"/></svg>
